<?xml version="1.0" encoding="utf-8"?>
<!-- Generator: Adobe Illustrator 19.1.0, SVG Export Plug-In . SVG Version: 6.00 Build 0)  -->
<svg version="1.1" id="P_Johns" xmlns="http://www.w3.org/2000/svg" xmlns:xlink="http://www.w3.org/1999/xlink" x="0px" y="0px"
	 viewBox="0 0 170 170" style="enable-background:new 0 0 170 170;" xml:space="preserve">
<style type="text/css">
	.st0{fill:#E1E2E3;}
	.st1{fill:#44C2CE;}
	.st2{fill:#3B79A3;}
	.st3{fill:#424750;}
	.st4{fill:none;stroke:#504F4F;stroke-width:2;stroke-miterlimit:10;}
	.st5{fill:#504F4F;}
	.st6{fill:#F16D6D;}
	.st7{fill:#87C6C0;}
	.st8{fill:#89DBD8;}
	.st9{fill:none;stroke:#C7C6C6;stroke-width:0.7565;stroke-miterlimit:10;}
	.st10{fill-rule:evenodd;clip-rule:evenodd;fill:#444751;}
	.st11{fill-rule:evenodd;clip-rule:evenodd;fill:#D6D6D5;}
	.st12{fill:#FFFFFF;}
	.st13{fill:#2B2A34;}
	.st14{fill:#2B2C2D;}
	.st15{fill:none;stroke:#504F4F;stroke-miterlimit:10;}
	.st16{fill-rule:evenodd;clip-rule:evenodd;fill:#89DBD8;}
	.st17{fill-rule:evenodd;clip-rule:evenodd;fill:#87C6C0;}
	.st18{fill:#59473A;}
	.st19{fill:none;stroke:#F2C24E;stroke-miterlimit:10;}
	.st20{fill:none;stroke:#F2C24E;stroke-linecap:round;stroke-miterlimit:10;}
	.st21{fill:#E9676D;}
	.st22{fill:#F6ECC3;}
	.st23{fill:#A6A8AB;}
	.st24{fill:none;stroke:#FFFFFF;stroke-width:5.289;stroke-miterlimit:10;}
	.st25{fill:#E6E6E6;}
	.st26{opacity:0.2;fill:none;stroke:#FFFFFF;stroke-width:3;stroke-miterlimit:10;}
	.st27{fill:none;stroke:#E9676D;stroke-linecap:round;stroke-miterlimit:10;}
	.st28{fill:#FCB856;}
	.st29{fill:none;stroke:#FCB856;stroke-linecap:round;stroke-miterlimit:10;}
	.st30{fill:none;stroke:#CBCACA;stroke-width:3.4513;stroke-miterlimit:10;}
	.st31{fill-rule:evenodd;clip-rule:evenodd;fill:#DADAD9;}
	.st32{fill:#469595;}
	.st33{fill:#2A2D35;}
	.st34{fill:#387D7B;}
	.st35{fill:#BFF7F5;}
	.st36{opacity:0.4;fill:#FFFFFF;}
	.st37{fill:#D3D3D3;}
	.st38{fill:none;stroke:#FFFFFF;stroke-width:5.0355;stroke-miterlimit:10;}
	.st39{fill:#777777;}
	.st40{fill:#70533D;}
	.st41{fill:#EA6A6D;}
	.st42{fill:#C7C6C6;}
	.st43{fill:#9FA0A3;}
	.st44{fill:#3C5777;}
	.st45{fill:#F2C24E;}
	.st46{fill:none;stroke:#E1E2E3;stroke-miterlimit:10;}
	.st47{fill:#314759;}
	.st48{fill:none;stroke:#314759;stroke-miterlimit:10;}
	.st49{fill:none;stroke:#3C5777;stroke-miterlimit:10;}
	.st50{fill:#80BBA8;}
	.st51{fill:#E94C64;}
	.st52{fill:#59C0C1;}
	.st53{fill:#8E8E8E;}
	.st54{fill:#80C0AC;}
	.st55{fill:none;stroke:#504F4F;stroke-linecap:round;stroke-miterlimit:10;}
	.st56{fill:#F9D88F;}
	.st57{fill:#BABABA;}
	.st58{clip-path:url(#XMLID_3_);fill:#F9D88F;}
	.st59{fill-rule:evenodd;clip-rule:evenodd;fill:#F2BC86;}
	.st60{fill:#F2F2F2;}
	.st61{fill:#57C4C6;}
	.st62{fill:#B4E219;}
	.st63{fill:#74777C;}
	.st64{fill:#E03E3E;}
	.st65{fill:#595C62;}
	.st66{fill:none;stroke:#C7C6C6;stroke-width:0.8879;stroke-miterlimit:10;}
	.st67{fill-rule:evenodd;clip-rule:evenodd;fill:#F9F0EB;}
	.st68{fill-rule:evenodd;clip-rule:evenodd;fill:#595C62;}
	.st69{fill:#EC7045;}
	.st70{opacity:0.7;}
	.st71{fill:#90CED2;}
	.st72{fill:#882888;}
	.st73{fill:#C1C0C0;}
	.st74{fill:#768035;}
	.st75{fill:#E3B27C;}
	.st76{fill:#775644;}
	.st77{fill:#DBC7C2;}
	.st78{fill:#D95027;}
	.st79{fill:#57BFC2;}
	.st80{clip-path:url(#SVGID_2_);}
	.st81{fill-rule:evenodd;clip-rule:evenodd;fill:#424750;}
	.st82{fill-rule:evenodd;clip-rule:evenodd;fill:#E1E2E3;}
	.st83{fill:none;stroke:#E6E6E6;stroke-miterlimit:10;}
	.st84{fill:#6BA588;}
	.st85{fill:#F9F0EB;}
	.st86{fill:none;stroke:#6BA588;stroke-miterlimit:10;}
	.st87{fill:#281A12;}
	.st88{fill:#2E465D;}
	.st89{fill:#422E21;}
	.st90{fill-rule:evenodd;clip-rule:evenodd;fill:#3C5F7C;}
	.st91{fill-rule:evenodd;clip-rule:evenodd;fill:#2E465D;}
	.st92{fill:#EDE2A2;}
	.st93{fill:#EFDFA8;}
	.st94{fill:#9AC68F;}
	.st95{clip-path:url(#XMLID_5_);fill:#B4D6AA;}
	.st96{fill:#96D696;}
	.st97{clip-path:url(#XMLID_6_);fill:#A7DBA7;}
	.st98{clip-path:url(#XMLID_7_);fill:#B4D6AA;}
	.st99{fill:#4D4D4F;}
	.st100{fill:#69502E;}
	.st101{fill:#3F3F3F;}
	.st102{fill:#4C381B;}
	.st103{fill:#919090;}
	.st104{fill:#74DDE2;}
	.st105{clip-path:url(#XMLID_10_);fill:#F9D88F;}
	.st106{fill-rule:evenodd;clip-rule:evenodd;fill:#504F4F;}
	.st107{fill-rule:evenodd;clip-rule:evenodd;fill:#FFFFFF;}
	.st108{fill-rule:evenodd;clip-rule:evenodd;fill:none;stroke:#4D4D4D;stroke-miterlimit:10;}
	.st109{fill:#4D4D4D;}
	.st110{fill:#42474F;}
	.st111{fill:#E6E7E8;}
	.st112{fill:#3A3A3A;}
	.st113{fill-rule:evenodd;clip-rule:evenodd;fill:#43474F;}
	.st114{fill-rule:evenodd;clip-rule:evenodd;fill:#DBDBDA;}
	.st115{fill:#F3E7A8;}
	.st116{fill:#F4E4AD;}
	.st117{fill:none;stroke:#F4E4AD;stroke-width:0.454;stroke-miterlimit:10;}
	.st118{fill:#57C4C7;}
	.st119{clip-path:url(#SVGID_4_);fill:#E6E7E8;}
	.st120{fill-rule:evenodd;clip-rule:evenodd;fill:#42474F;}
	.st121{fill-rule:evenodd;clip-rule:evenodd;fill:#E6E7E8;}
	.st122{fill:#E5D9BE;}
	.st123{fill:#F7F1E2;}
	.st124{fill:#B5967D;}
	.st125{clip-path:url(#XMLID_11_);fill:#96D696;}
	.st126{fill-rule:evenodd;clip-rule:evenodd;fill:#92BA85;}
	.st127{fill-rule:evenodd;clip-rule:evenodd;fill:#EFEFE4;}
	.st128{fill-rule:evenodd;clip-rule:evenodd;fill:#E0E0C7;}
	.st129{fill:#999999;}
	.st130{fill:#F9C543;}
	.st131{fill:#355B77;}
	.st132{fill:#C49B49;}
	.st133{fill:#444751;}
	.st134{fill:#D6D6D5;}
	.st135{fill:none;}
	.st136{fill:#5DC667;}
	.st137{fill:#EDE9C3;}
	.st138{fill:none;stroke:#FCD98D;stroke-linecap:round;stroke-miterlimit:10;}
	.st139{fill:none;stroke:#CBCACA;stroke-width:0.5;stroke-miterlimit:10;}
	.st140{fill:none;stroke:#80C0AC;stroke-width:0.5;stroke-miterlimit:10;}
	.st141{fill:#E85273;}
	.st142{fill:#FCD224;}
	.st143{fill:#59B5CE;}
	.st144{fill:#52ACC1;}
	.st145{fill:#FAFAFA;}
	.st146{fill:#E7E6E6;}
	.st147{fill:#71D3F4;}
	.st148{fill:#A3E8E3;}
	.st149{fill:#4AAFAF;}
	.st150{fill:#F2BC86;}
	.st151{fill:#585D62;}
	.st152{fill-rule:evenodd;clip-rule:evenodd;fill:#DBDBD9;}
	.st153{fill-rule:evenodd;clip-rule:evenodd;fill:#E7E6E6;}
	.st154{fill:#2A2A34;}
	.st155{fill:none;stroke:#3B79A3;stroke-miterlimit:10;}
	.st156{fill:#EDEFED;}
	.st157{fill:none;stroke:#CCCCCC;stroke-miterlimit:10;stroke-dasharray:1,1;}
	.st158{fill:#2D567F;}
	.st159{fill:#EF89B0;}
	.st160{fill:#3F6B9E;}
	.st161{fill:#D21C5A;}
	.st162{fill:#EDC169;}
	.st163{fill:#DDAC57;}
	.st164{fill:#92BA85;}
	.st165{fill:#29507F;}
	.st166{fill:none;stroke:#EFDFA8;stroke-width:0.3783;stroke-miterlimit:10;}
	.st167{clip-path:url(#SVGID_6_);}
	.st168{fill:#AEAEAF;}
	.st169{fill:#895C4E;}
	.st170{fill-rule:evenodd;clip-rule:evenodd;fill:#F7E9DF;}
	.st171{clip-path:url(#SVGID_8_);}
	.st172{clip-path:url(#SVGID_10_);fill:#F15C60;}
	.st173{fill-rule:evenodd;clip-rule:evenodd;fill:#F4F4F4;}
	.st174{clip-path:url(#SVGID_12_);}
	.st175{clip-path:url(#SVGID_14_);fill:#F15C60;}
</style>
<g>
	<g>
		<g>
			<path class="st0" d="M43.5,84.8c2.8,2.6,7.5,6.1,13.5,7.6c2.2,3.8,3.4,8.2,3.4,12.9c0,5.1-1.5,9.8-4,13.8
				c-4.7-1.4-9.8-4.5-14-10.8c0,0,0,0,0,0c-1.9-2.8-3.1-5.4-3.8-7.6c-0.1-0.1-0.1-0.3-0.2-0.4c0,0,0,0,0,0.1
				C37.1,95.9,41.6,83.1,43.5,84.8z"/>
		</g>
	</g>
	<path class="st3" d="M59.8,105c0-4.7-1.2-9.1-3.4-12.9c7,1.7,15.8,0.6,25.8-8.3l0.4,20.3l-12.4,14.6c0,0-6.7,2.4-14.3,0.2
		C58.3,114.9,59.8,110.1,59.8,105z"/>
	<path class="st65" d="M80.9,142.3L80.9,142.3c-7.4-3.9-12.5-11.6-12.5-20.4c0-12.8,10.8-23.2,24.1-23.2c13.3,0,24.1,10.4,24.1,23.2
		c0,8.8-5.1,16.4-12.6,20.4l0.1,0c-3.7,2.1-6.3,5.6-7.1,9.8c-0.2-0.1-0.9-0.4-1.9,0V145c-0.8,0.1-1.7,0.1-2.6,0.1
		c-0.9,0-1.7,0-2.6-0.1v7.2c-1-0.5-1.8-0.1-1.9,0C87.2,148,84.6,144.4,80.9,142.3z"/>
	<circle class="st9" cx="92.5" cy="100.3" r="15.9"/>
	<path class="st13" d="M103.6,74.2c0.2,1.5,1.1,0.2,1.6,1.7c1.3,4.3,3.3,11.8,7.9,16.2c0,0-4.2,16.4-20.5,16.4
		C76.2,108.5,72,92.1,72,92.1c4.4-4.2,6.4-11.8,7.8-16.1c0.6-1.8,1.5-0.5,1.7-2.1"/>
	<path class="st33" d="M92.5,82.3c16,0,29,14.5,29,32.4c0,11-4.9,20.8-12.5,26.6C93.8,135.4,92.5,119,92.5,119
		c-2.3,15.3-11.6,20.7-16.3,22.4c-7.6-5.8-12.6-15.6-12.6-26.7C63.6,96.8,76.5,82.3,92.5,82.3z"/>
	<path class="st13" d="M92.5,82.3c16,0,29,14.5,29,32.4c0,11-4.9,20.8-12.5,26.6C93.8,135.4,92.5,119,92.5,119
		c-2.3,15.3-11.6,20.7-16.3,22.4c-7.6-5.8-12.6-15.6-12.6-26.7C63.6,96.8,76.5,82.3,92.5,82.3z"/>
	<polygon class="st3" points="79.8,76 81.3,83.7 79,84.9 92.3,105.9 92.3,97.6 	"/>
	<g>
		<circle class="st10" cx="92.3" cy="80.4" r="1.4"/>
		<circle class="st11" cx="92.3" cy="80.4" r="0.3"/>
	</g>
	<path class="st13" d="M76,119.8c0-0.1,0-0.2-0.1-0.2c-0.1,0-0.1,0-0.2,0.1c0,0.1,0,0.2,0.1,0.2C75.9,119.9,76,119.8,76,119.8z"/>
	<polygon class="st33" points="74.8,119.2 74.8,119.4 75.8,119.8 75.9,119.7 	"/>
	<polyline class="st13" points="74.7,119.5 74.5,119.1 75,119 74.8,119.5 	"/>
	<path class="st3" d="M83.3,119.4c0,0-10,0.7-16.3-4.1v1.8c0,0,4.9,4.9,16.3,4V119.4z"/>
	<polygon class="st3" points="105.1,75.9 103.5,83.9 105.8,85.1 92.5,106.1 92.5,97.8 	"/>
	<g>
		<circle class="st10" cx="92.3" cy="88.3" r="1.4"/>
		<circle class="st11" cx="92.3" cy="88.3" r="0.3"/>
	</g>
	<path class="st0" d="M105.5,55.1c0.2-3.7-0.1-7.6-1.5-10.4c-0.7-2.1-3.2-3.4-5.6-4.2c1.1,0,2,0,2,0c-2.6-1.8-4.9-1.6-6.6-1
		c-0.5-0.1-1-0.1-1.2-0.1c1.2-0.7,2.6-1.2,2.6-1.2c-4.1-1-7.5,1.2-9.1,2.4c-2.4,0.8-4.7,2.1-5.5,4.2c-1.4,2.7-1.7,6.7-1.5,10.4
		c-0.2,3.4,0,6.1,0.7,8.6c2,4.8,1.1,8.5,0.1,12.2l12.6,22.3v0.1L105.2,76c-0.9-3.4-2.8-7.7-0.5-12.3C105.5,61.2,105.6,58,105.5,55.1
		z"/>
	<path class="st12" d="M98.5,52.8c0,1.2,1.2,2.1,2.7,2.2c1.5,0,2.8-0.8,2.9-2c0-1.1-1.2-2.1-2.7-2.2C99.9,50.7,98.6,51.6,98.5,52.8z
		"/>
	<path class="st13" d="M100.1,52.6c-0.1,0.7,0.4,1.4,1.1,1.5c0.7,0.1,1.4-0.4,1.5-1.1c0.1-0.7-0.4-1.4-1.1-1.5
		C100.8,51.4,100.2,51.9,100.1,52.6z"/>
	<path class="st12" d="M81.5,52.8c0,1.2,1.2,2.1,2.7,2.2c1.5,0,2.8-0.8,2.9-2c0-1.1-1.2-2.1-2.7-2.2C82.8,50.7,81.5,51.6,81.5,52.8z
		"/>
	<path class="st13" d="M83,52.6c-0.1,0.7,0.4,1.4,1.1,1.5c0.7,0.1,1.4-0.4,1.5-1.1c0.1-0.7-0.4-1.4-1.1-1.5
		C83.8,51.4,83.1,51.9,83,52.6z"/>
	<path class="st13" d="M74.3,50.2c-0.1,1.6,0.3,1.6,0.3,1.6c0.1,0.1,0.2,0.3,0.2,0.3c0.4,0.2,1,1.9,1,1.9c0.7,2.1,1.8,2.4,1.8,2.4
		c3,1.1,8,0.5,8,0.5s2.8-0.1,3.7-1.2c0.7-0.8,1.6-3.3,1.6-3.3s0.2-0.4,0.6-0.7c0.5-0.2,1.1-0.2,1.1-0.2s0.6,0,1.1,0.2
		c0.4,0.3,0.6,0.6,0.6,0.6s1,2.6,1.6,3.4c0.9,1.1,3.7,1.2,3.7,1.2s5,0.6,8-0.5c0,0,1.1-0.3,1.8-2.4c0,0,0.6-1.7,1-1.9
		c0,0,0.2-0.2,0.2-0.3c0,0,0.4,0,0.3-1.6l0-0.5c0,0,0-0.4-0.8-0.5c-0.8-0.1-1.4-0.7-9.1-0.5c-5.4,0.5-7,1.1-7,1.1s-0.3,0.1-0.6,0.1
		c-0.2,0-0.5,0.1-0.7,0.1c-0.2,0-0.5,0-0.7-0.1c-0.4,0-0.7-0.1-0.7-0.1s-1.6-0.6-7-1.1c-7.7-0.2-8.3,0.4-9.1,0.5
		c-0.8,0.1-0.8,0.5-0.8,0.5L74.3,50.2z M95.9,50.1c0,0,3.3-1.1,10.2-0.7c0,0,2.9,0,2.9,1.2c0,0-0.2,2.6-0.9,4c0,0-0.4,1.4-2.4,1.5
		c0,0-4.5,0.9-8.7-0.4c0,0-1.1-0.3-1.8-3C95.2,52.7,94.4,50.6,95.9,50.1z M76,50.6c0-1.2,2.9-1.2,2.9-1.2c6.9-0.4,10.2,0.7,10.2,0.7
		c1.5,0.5,0.7,2.6,0.7,2.6c-0.8,2.7-1.8,3-1.8,3c-4.2,1.3-8.7,0.4-8.7,0.4c-2-0.1-2.4-1.5-2.4-1.5C76.2,53.1,76,50.6,76,50.6z"/>
	<path class="st3" d="M92.7,55.7c1.4,2.3,4.3,3,4.3,3c-2.3,1.4-4.5,5.7-4.5,5.7s-2.2-4.3-4.4-5.7C88.1,58.6,91.4,58,92.7,55.7z"/>
	<path class="st3" d="M103.9,103.9c0,0,7.2,2.2,15.4-1.4c0,0,5.8,13.3-1.6,28.2c0,0-7,2.5-14.4,0.2
		C103.4,130.7,111.7,119.2,103.9,103.9z"/>
	<g>
		<path class="st0" d="M85,104.6c0,0,3.6,7.3,6.2,7.6c0,0-6.3-6.4-5.7-11.3c0,0,3.2,5.7,5.5,6.5c0,0-5.7-5-4.2-11.6
			c0,0,2.5,7,5.1,7.2c0,0-4.3-5.2-4-9.9c0,0,6.1,8.3,16.1,10.7c2.1,3.8,3.4,8.2,3.4,12.9c0,5.1-1.4,9.9-3.9,13.9
			c-4.6-1.4-9.6-4.5-13.7-10.9c0,0,0,0,0,0c-1.9-2.8-3.1-5.4-3.7-7.6c-0.1-0.1-0.1-0.3-0.2-0.4c0,0,0,0,0,0.1
			C84.5,107.4,85,104.6,85,104.6z"/>
	</g>
	<g>
		<path class="st79" d="M82.1,72.6c0-0.1,0-0.1,0-0.2h0c0-0.2,0.1-0.3,0.1-0.3l2.9-3.8c0.8-1,1.8-0.3,1.8-0.3l4.5,3
			c0.3-0.2,0.7-0.4,1.2-0.4c0.5,0,0.9,0.2,1.2,0.4l0,0l4.5-3c0,0,1-0.7,1.8,0.3l2.9,3.8c0,0,0.1,0.1,0.1,0.3h0c0,0.1,0,0.1,0,0.2v0
			v0c0,0.1,0,0.1,0,0.2h0c0,0.2-0.1,0.3-0.1,0.3l-2.9,3.8c-0.8,1-1.8,0.3-1.8,0.3l-4.5-3.1l0,0c-0.3,0.3-0.8,0.4-1.2,0.4
			c-0.4,0-0.8-0.1-1.2-0.4l-4.5,3c0,0-1,0.7-1.8-0.3l-2.9-3.8c0,0-0.1-0.1-0.1-0.3h0C82.1,72.8,82.1,72.7,82.1,72.6L82.1,72.6
			L82.1,72.6z"/>
		<g>
			<defs>
				<path id="SVGID_1_" d="M82.1,72.6c0-0.1,0-0.1,0-0.2h0c0-0.2,0.1-0.3,0.1-0.3l2.9-3.8c0.8-1,1.8-0.3,1.8-0.3l4.5,3
					c0.3-0.2,0.7-0.4,1.2-0.4c0.5,0,0.9,0.2,1.2,0.4l0,0l4.5-3c0,0,1-0.7,1.8,0.3l2.9,3.8c0,0,0.1,0.1,0.1,0.3h0c0,0.1,0,0.1,0,0.2
					v0v0c0,0.1,0,0.1,0,0.2h0c0,0.2-0.1,0.3-0.1,0.3l-2.9,3.8c-0.8,1-1.8,0.3-1.8,0.3l-4.5-3.1l0,0c-0.3,0.3-0.8,0.4-1.2,0.4
					c-0.4,0-0.8-0.1-1.2-0.4l-4.5,3c0,0-1,0.7-1.8-0.3l-2.9-3.8c0,0-0.1-0.1-0.1-0.3h0C82.1,72.8,82.1,72.7,82.1,72.6L82.1,72.6
					L82.1,72.6z"/>
			</defs>
			<clipPath id="SVGID_2_">
				<use xlink:href="#SVGID_1_"  style="overflow:visible;"/>
			</clipPath>
			<g class="st80">
				<g>
					<circle class="st0" cx="101.3" cy="68.1" r="0.4"/>
					<circle class="st0" cx="101.3" cy="69.9" r="0.4"/>
					<path class="st0" d="M100.9,71.7c0,0.2,0.2,0.4,0.4,0.4c0.2,0,0.4-0.2,0.4-0.4c0-0.2-0.2-0.4-0.4-0.4
						C101,71.3,100.9,71.5,100.9,71.7z"/>
					<circle class="st0" cx="101.3" cy="73.5" r="0.4"/>
					<circle class="st0" cx="101.3" cy="75.3" r="0.4"/>
				</g>
				<g>
					<circle class="st0" cx="97.8" cy="68.5" r="0.4"/>
					<circle class="st0" cx="97.8" cy="70.3" r="0.4"/>
					<circle class="st0" cx="97.8" cy="72.1" r="0.4"/>
					<path class="st0" d="M97.4,73.9c0,0.2,0.2,0.4,0.4,0.4c0.2,0,0.4-0.2,0.4-0.4c0-0.2-0.2-0.4-0.4-0.4
						C97.6,73.5,97.4,73.7,97.4,73.9z"/>
					<circle class="st0" cx="97.8" cy="75.7" r="0.4"/>
				</g>
				<g>
					<circle class="st0" cx="94.4" cy="68.5" r="0.4"/>
					<circle class="st0" cx="94.4" cy="70.3" r="0.4"/>
					<path class="st0" d="M94,72.1c0,0.2,0.2,0.4,0.4,0.4c0.2,0,0.4-0.2,0.4-0.4c0-0.2-0.2-0.4-0.4-0.4C94.2,71.7,94,71.9,94,72.1z"
						/>
					<path class="st0" d="M94,73.9c0,0.2,0.2,0.4,0.4,0.4c0.2,0,0.4-0.2,0.4-0.4c0-0.2-0.2-0.4-0.4-0.4C94.2,73.5,94,73.7,94,73.9z"
						/>
					<circle class="st0" cx="94.4" cy="75.7" r="0.4"/>
				</g>
				<g>
					<circle class="st0" cx="91" cy="68.5" r="0.4"/>
					<circle class="st0" cx="91" cy="70.3" r="0.4"/>
					<circle class="st0" cx="91" cy="72.1" r="0.4"/>
					<path class="st0" d="M90.6,73.9c0,0.2,0.2,0.4,0.4,0.4c0.2,0,0.4-0.2,0.4-0.4c0-0.2-0.2-0.4-0.4-0.4
						C90.8,73.5,90.6,73.7,90.6,73.9z"/>
					<path class="st0" d="M90.6,75.7c0,0.2,0.2,0.4,0.4,0.4c0.2,0,0.4-0.2,0.4-0.4c0-0.2-0.2-0.4-0.4-0.4
						C90.8,75.3,90.6,75.5,90.6,75.7z"/>
				</g>
				<g>
					<path class="st0" d="M87.2,68.5c0,0.2,0.2,0.4,0.4,0.4c0.2,0,0.4-0.2,0.4-0.4c0-0.2-0.2-0.4-0.4-0.4
						C87.3,68.1,87.2,68.3,87.2,68.5z"/>
					<path class="st0" d="M87.2,70.3c0,0.2,0.2,0.4,0.4,0.4c0.2,0,0.4-0.2,0.4-0.4c0-0.2-0.2-0.4-0.4-0.4
						C87.3,69.9,87.2,70.1,87.2,70.3z"/>
					<path class="st0" d="M87.2,72.1c0,0.2,0.2,0.4,0.4,0.4c0.2,0,0.4-0.2,0.4-0.4c0-0.2-0.2-0.4-0.4-0.4
						C87.3,71.7,87.2,71.9,87.2,72.1z"/>
					<path class="st0" d="M87.2,73.9c0,0.2,0.2,0.4,0.4,0.4c0.2,0,0.4-0.2,0.4-0.4c0-0.2-0.2-0.4-0.4-0.4
						C87.3,73.5,87.2,73.7,87.2,73.9z"/>
					<path class="st0" d="M87.2,75.7c0,0.2,0.2,0.4,0.4,0.4c0.2,0,0.4-0.2,0.4-0.4c0-0.2-0.2-0.4-0.4-0.4
						C87.3,75.3,87.2,75.5,87.2,75.7z"/>
				</g>
				<g>
					<circle class="st0" cx="99.5" cy="68.9" r="0.4"/>
					<circle class="st0" cx="99.5" cy="70.7" r="0.4"/>
					<circle class="st0" cx="99.5" cy="72.5" r="0.4"/>
					<circle class="st0" cx="99.5" cy="74.3" r="0.4"/>
					<circle class="st0" cx="99.5" cy="76.1" r="0.4"/>
				</g>
				<g>
					<circle class="st0" cx="103" cy="68.9" r="0.4"/>
					<circle class="st0" cx="103" cy="70.7" r="0.4"/>
					<circle class="st0" cx="103" cy="72.5" r="0.4"/>
					<circle class="st0" cx="103" cy="74.3" r="0.4"/>
					<circle class="st0" cx="103" cy="76.1" r="0.4"/>
				</g>
				<g>
					<circle class="st0" cx="96.1" cy="68.9" r="0.4"/>
					<circle class="st0" cx="96.1" cy="70.7" r="0.4"/>
					<circle class="st0" cx="96.1" cy="72.5" r="0.4"/>
					<circle class="st0" cx="96.1" cy="74.3" r="0.4"/>
					<circle class="st0" cx="96.1" cy="76.1" r="0.4"/>
				</g>
				<g>
					<path class="st0" d="M92.3,68.9c0,0.2,0.2,0.4,0.4,0.4c0.2,0,0.4-0.2,0.4-0.4c0-0.2-0.2-0.4-0.4-0.4
						C92.5,68.5,92.3,68.7,92.3,68.9z"/>
					<path class="st0" d="M92.3,70.7c0,0.2,0.2,0.4,0.4,0.4c0.2,0,0.4-0.2,0.4-0.4c0-0.2-0.2-0.4-0.4-0.4
						C92.5,70.3,92.3,70.5,92.3,70.7z"/>
					<path class="st0" d="M92.3,72.5c0,0.2,0.2,0.4,0.4,0.4c0.2,0,0.4-0.2,0.4-0.4c0-0.2-0.2-0.4-0.4-0.4
						C92.5,72.1,92.3,72.3,92.3,72.5z"/>
					<path class="st0" d="M92.3,74.3c0,0.2,0.2,0.4,0.4,0.4c0.2,0,0.4-0.2,0.4-0.4c0-0.2-0.2-0.4-0.4-0.4
						C92.5,73.9,92.3,74.1,92.3,74.3z"/>
					<path class="st0" d="M92.3,76.1c0,0.2,0.2,0.4,0.4,0.4c0.2,0,0.4-0.2,0.4-0.4c0-0.2-0.2-0.4-0.4-0.4
						C92.5,75.7,92.3,75.9,92.3,76.1z"/>
				</g>
				<g>
					<circle class="st0" cx="89.2" cy="68.9" r="0.4"/>
					<circle class="st0" cx="89.2" cy="70.7" r="0.4"/>
					<circle class="st0" cx="89.2" cy="72.5" r="0.4"/>
					<circle class="st0" cx="89.2" cy="74.3" r="0.4"/>
					<circle class="st0" cx="89.2" cy="76.1" r="0.4"/>
				</g>
				<g>
					<circle class="st0" cx="85.8" cy="68.9" r="0.4"/>
					<circle class="st0" cx="85.8" cy="70.7" r="0.4"/>
					<circle class="st0" cx="85.8" cy="72.5" r="0.4"/>
					<circle class="st0" cx="85.8" cy="74.3" r="0.4"/>
					<circle class="st0" cx="85.8" cy="76.1" r="0.4"/>
				</g>
				<g>
					<circle class="st0" cx="82.4" cy="68.9" r="0.4"/>
					<circle class="st0" cx="82.4" cy="70.7" r="0.4"/>
					<circle class="st0" cx="82.4" cy="72.5" r="0.4"/>
					<circle class="st0" cx="82.4" cy="74.3" r="0.4"/>
					<circle class="st0" cx="82.4" cy="76.1" r="0.4"/>
				</g>
				<g>
					<circle class="st0" cx="84.1" cy="68.9" r="0.4"/>
					<circle class="st0" cx="84.1" cy="70.7" r="0.4"/>
					<circle class="st0" cx="84.1" cy="72.5" r="0.4"/>
					<circle class="st0" cx="84.1" cy="74.3" r="0.4"/>
					<circle class="st0" cx="84.1" cy="76.1" r="0.4"/>
				</g>
			</g>
		</g>
	</g>
	<g>
		<path class="st81" d="M90.9,80.4c0,0.8,0.6,1.4,1.4,1.4c0.8,0,1.4-0.6,1.4-1.4c0-0.8-0.6-1.4-1.4-1.4C91.5,79,90.9,79.6,90.9,80.4
			z"/>
		<circle class="st82" cx="92.3" cy="80.4" r="0.3"/>
	</g>
	<g>
		<path class="st81" d="M90.9,89.7c0,0.8,0.6,1.4,1.4,1.4c0.8,0,1.4-0.6,1.4-1.4c0-0.8-0.6-1.4-1.4-1.4
			C91.5,88.3,90.9,88.9,90.9,89.7z"/>
		<circle class="st82" cx="92.3" cy="89.7" r="0.3"/>
	</g>
	<g>
		<path class="st14" d="M90.9,153.5L90.9,153.5v-0.1v-1.7c0-0.2-0.2-0.4-0.4-0.4c0,0-0.5,0.5-1.5,0.5c-1,0-1.4-0.5-1.6-0.5
			c0,0,0-0.2-0.2,0c-1.5,1.4-4.7,1.6-4.7,1.6c-0.2,0-0.3,0.3-0.1,0.5c0,0,0.1,0.1,0.1,0.1l-0.1,0.1c0,0.2,0.2,0.4,0.4,0.4h7.8
			c0.2,0,0.4-0.2,0.4-0.4V153.5z"/>
		<path class="st14" d="M94.1,153.6c0,0.2,0.2,0.4,0.4,0.4h7.8c0.2,0,0.4-0.2,0.4-0.4l-0.1-0.1c0,0,0.1-0.1,0.1-0.1
			c0.2-0.2,0-0.5-0.1-0.5c0,0-3.3-0.3-4.7-1.6c-0.2-0.2-0.2,0-0.2,0c-0.3,0-0.7,0.5-1.6,0.5c-1,0-1.5-0.5-1.5-0.5
			c-0.2,0-0.4,0.2-0.4,0.4v1.7l0.1,0.1l-0.1,0.1V153.6z"/>
	</g>
	<line class="st83" x1="33.1" y1="52.4" x2="44.5" y2="91.6"/>
	<line class="st83" x1="43.5" y1="52.4" x2="44.5" y2="91.6"/>
	<line class="st83" x1="58.3" y1="41.6" x2="44.5" y2="91.6"/>
	<g>
		<path id="XMLID_24_" class="st21" d="M31.7,49.9c-0.2-0.2-0.6-0.1-0.7,0.2c0,0-0.1,1.9-0.3,3.4s-0.9,3.6-0.9,3.6
			c-0.1,0.3,0.3,0.6,0.6,0.4c0.9-0.4,2-1,3.2-1.5c1.2-0.4,2.5-0.7,3.4-1c0.3-0.1,0.4-0.5,0.1-0.7c0,0-1.9-1.2-3-2
			C33.2,51.6,31.7,49.9,31.7,49.9z"/>
		<path id="XMLID_23_" class="st21" d="M17.5,45.2c2.6,7,10.8,10.5,15.4,8.7s8.6-9.7,5.9-16.7c-2.6-7-9.3-10.3-15.2-8.1
			S14.8,38.2,17.5,45.2z"/>
		<path id="XMLID_19_" class="st26" d="M22.1,35c0,0-3.4,3.7-0.6,10.4"/>
	</g>
	<g>
		<path id="XMLID_18_" class="st45" d="M43.7,60.1c-0.2-0.3-0.6-0.2-0.7,0c0,0-0.7,1.8-1.4,3.2c-0.7,1.4-1.9,3.2-1.9,3.2
			c-0.1,0.3,0.1,0.6,0.4,0.6c1-0.1,2.2-0.4,3.5-0.4c1.3-0.1,2.6,0.1,3.6,0.1c0.3,0,0.5-0.4,0.3-0.6c0,0-1.5-1.7-2.2-2.8
			C44.6,62.2,43.7,60.1,43.7,60.1z"/>
		<path id="XMLID_17_" class="st45" d="M31.6,51.3c0.3,7.5,7,13.3,12,13.1s11.1-6.6,10.8-14c-0.3-7.5-5.6-12.7-11.9-12.4
			S31.3,43.8,31.6,51.3z"/>
		<path id="XMLID_16_" class="st26" d="M39.1,43.1c0,0-4.4,2.5-3.8,9.7"/>
	</g>
	<g>
		<path id="XMLID_9_" class="st1" d="M59.7,38.2c-0.1-0.3-0.5-0.3-0.7-0.1c0,0-1,1.7-1.9,2.9s-2.5,2.8-2.5,2.8
			c-0.2,0.3,0,0.6,0.3,0.7c1,0.1,2.2,0.1,3.6,0.2c1.3,0.2,2.5,0.6,3.5,0.8c0.3,0.1,0.6-0.3,0.4-0.5c0,0-1.1-2-1.6-3.2
			S59.7,38.2,59.7,38.2z"/>
		<path id="XMLID_8_" class="st1" d="M49.4,27.3c-1,7.4,4.5,14.3,9.4,15C63.7,43,70.9,37.9,72,30.5S68.7,17,62.5,16.1
			C56.3,15.2,50.5,19.9,49.4,27.3z"/>
		<path id="XMLID_4_" class="st26" d="M58.3,20.5c0,0-4.7,1.6-5.5,8.8"/>
	</g>
	<line class="st83" x1="56.7" y1="41.6" x2="61.7" y2="42.4"/>
	<line class="st83" x1="41.4" y1="64.1" x2="46" y2="63.8"/>
	<line class="st83" x1="32" y1="54" x2="30.1" y2="54.6"/>
	<g>
		<path class="st73" d="M43.6,84.9c0,0,0.9,1.3,3.3,2.3c2,0.8,3.9,1.5,3.9,1.5s-2.5,1.6-6.2,0.9c-0.3-0.1,2.2,1.9,5.7,1.9
			c3.5,0,3.5,0,3.5,0S52.9,93.5,49,94c-3,0.4-4.9-0.6-4.9-0.6s1.9,2.4,7.2,1.9c4-0.4,4.9-1.7,4.9-1.7s-0.2,3.2-5.3,4.9
			c-2.3,0.8-5.7,0.6-5.7,0.6s2.3,0.9,5.8,0.4c2.2-0.3,3.9-1,3.9-1s-2.9,5.4-9.1,4.8c-5.2-0.5-7.3-3.3-7.9-4.8
			c-1-2.5,1.3-11.4,4.9-13.9C43.3,84.3,43.6,84.9,43.6,84.9z"/>
	</g>
</g>
</svg>
