<svg xmlns="http://www.w3.org/2000/svg" viewBox="0 0 77.94 117.44"><defs><style>.cls-1{fill:#5a483b;}.cls-2{fill:#e2e3e4;}.cls-20,.cls-3{fill:#1c458b;}.cls-4,.cls-8,.cls-9{fill:#2c2c36;}.cls-5{fill:#e3e2e2;}.cls-6{fill:#efe0a7;}.cls-15,.cls-16,.cls-23,.cls-7{fill:none;}.cls-7{stroke:#efe0a7;stroke-width:0.07px;}.cls-15,.cls-16,.cls-7{stroke-miterlimit:10;}.cls-8{font-size:1.27px;}.cls-8,.cls-9{font-family:Georgia, Georgia;}.cls-9{font-size:1.27px;}.cls-10{fill:#2b2f36;}.cls-11{fill:#efcb81;}.cls-12{fill:#444952;}.cls-13,.cls-21{fill:#3155a4;}.cls-14{fill:#18254e;}.cls-15,.cls-16{stroke:#f2c24e;stroke-width:0.94px;}.cls-16,.cls-25,.cls-26,.cls-27{stroke-linecap:round;}.cls-17{fill:#e3e1e1;}.cls-18{fill:#fff;}.cls-19{fill:#2c2c2d;}.cls-20,.cls-21,.cls-25,.cls-26,.cls-27{fill-rule:evenodd;}.cls-22{fill:#281a13;}.cls-24{fill:#323232;}.cls-25{fill:#57c0c3;}.cls-25,.cls-26,.cls-27{stroke:#3155a4;stroke-linejoin:round;}.cls-26{fill:#fac348;}.cls-27{fill:#ff674c;}</style></defs><title>Asset 13</title><g id="Layer_2" data-name="Layer 2"><g id="Layer_1-2" data-name="Layer 1"><path class="cls-1" d="M50.84,106h-.07A23.39,23.39,0,0,0,63.58,85.38c0-13-11-23.51-24.48-23.51S14.63,72.39,14.63,85.38A23.39,23.39,0,0,0,27.44,106h-.06a14.66,14.66,0,0,1,7.19,10,2.17,2.17,0,0,1,1.93,0v-7.27a25.51,25.51,0,0,0,5.22,0V116a2.16,2.16,0,0,1,1.93,0,14.68,14.68,0,0,1,7.19-10"/><path class="cls-2" d="M11,101.81a9.11,9.11,0,0,1-3.61-5.07s2.11,4.47,6.43,5.68c0,0-3.29-2-3.43-5.12,0,0,1.83,4.89,6.5,5.2a6.81,6.81,0,0,1-4.12-4.81s2.59,3.89,5.84,4.56c0,0-12.55-18.85,12.3-31.29L32.6,57.69,26.14,46.25s-31,6.4-25.48,41.14C2.55,99.17,11,101.81,11,101.81Z"/><path class="cls-3" d="M16.65,84.74c1.8-4.67,5.92-9.59,14.28-13.77L32.6,57.69,26.14,46.25S-.71,51.79,0,80.55c0,0,5-2.82,10-1.07S16.65,84.74,16.65,84.74Z"/><path class="cls-2" d="M66.91,101.81a9.11,9.11,0,0,0,3.61-5.07s-2.11,4.47-6.43,5.68c0,0,3.29-2,3.43-5.12,0,0-1.83,4.89-6.5,5.2a6.81,6.81,0,0,0,4.12-4.81s-2.59,3.89-5.84,4.56c0,0,12.55-18.85-12.3-31.29L45.34,57.69,51.8,46.25s31,6.4,25.48,41.14C75.39,99.17,66.91,101.81,66.91,101.81Z"/><path class="cls-3" d="M61.29,84.74C59.49,80.06,55.37,75.15,47,71L45.34,57.69,51.8,46.25s26.86,5.54,26.13,34.3c0,0-5-2.82-10-1.07S61.29,84.74,61.29,84.74Z"/><path class="cls-4" d="M49.5,87.38a4.24,4.24,0,0,1-3.12-1.28,3.77,3.77,0,0,1-1-2.83A4.5,4.5,0,0,1,47,80.12a5,5,0,0,1,3.22-1.19,4.24,4.24,0,0,1,3.12,1.28,3.77,3.77,0,0,1,1,2.84,4.5,4.5,0,0,1-1.62,3.15,5,5,0,0,1-3.23,1.19m.69-8.26a4.8,4.8,0,0,0-3.1,1.15,4.3,4.3,0,0,0-1.55,3,3.58,3.58,0,0,0,1,2.69,4.06,4.06,0,0,0,3,1.23A4.79,4.79,0,0,0,52.6,86a4.31,4.31,0,0,0,1.56-3,3.59,3.59,0,0,0-1-2.69,4,4,0,0,0-3-1.22"/><path class="cls-5" d="M47,85.58a3.37,3.37,0,0,1,.48-4.92,3.86,3.86,0,0,1,5.24.07,3.36,3.36,0,0,1-.48,4.93A3.85,3.85,0,0,1,47,85.58"/><path class="cls-6" d="M51,87.12a.4.4,0,1,1,.75-.28l.52,1.41a.4.4,0,1,1-.75.28Z"/><circle class="cls-7" cx="52.05" cy="88.84" r="1.37" transform="translate(-22.8 18.13) rotate(-16.26)"/><text class="cls-8" transform="matrix(-0.93, 0.36, -0.36, -0.93, 49.28, 79.65)">X</text><text class="cls-8" transform="matrix(-0.93, 0.36, -0.36, -0.93, 48.5, 79.96)">I</text><text class="cls-8" transform="matrix(-0.93, 0.36, -0.36, -0.93, 48.12, 80.11)">I</text><text class="cls-8" transform="matrix(-0.93, 0.36, -0.36, -0.93, 50.96, 84.66)">V</text><text class="cls-8" transform="matrix(-0.93, 0.36, -0.36, -0.93, 50.26, 84.93)">I</text><text class="cls-9" transform="translate(46.52 84.14) rotate(71.45)">I</text><polygon class="cls-4" points="49.35 81.59 49.97 83.12 50.09 83.07 49.47 81.55 49.35 81.59"/><polygon class="cls-10" points="50.02 83.05 50.06 83.17 51.15 82.73 51.1 82.61 50.02 83.05"/><polygon class="cls-4" points="49.25 81.76 49.65 81.55 49.63 81.5 49.3 81.29 49.25 81.76"/><polygon class="cls-4" points="51.12 82.84 51.17 82.83 51.41 82.51 50.95 82.42 51.12 82.84"/><path class="cls-11" d="M51.92,86.46a4.58,4.58,0,0,1,.65-6.69,5.25,5.25,0,0,1,7.12.09,4.58,4.58,0,0,1-.65,6.7,5.25,5.25,0,0,1-7.12-.1"/><path class="cls-12" d="M48.48,82.79S58.66,83.52,65,78.6v1.81s-5,5-16.51,4.08Z"/><path class="cls-10" d="M48,84.43s7.14.68,12.51-1.43c6.34-2.48,1.11,9.78,1.11,9.78l-8.26,0Z"/><path class="cls-13" d="M26.64,37.54a6.93,6.93,0,0,0-.66,2c-1.31,4.34-3.44,11.75-8.28,16.25,0,0,4.42,16.49,21.39,16.49S60.48,55.76,60.48,55.76c-4.59-4.26-6.88-11.83-8.19-16.09a22.68,22.68,0,0,0-.66-2.21"/><path class="cls-14" d="M50.61,106.16h0A23.24,23.24,0,0,0,63.16,85.73c0-12.86-10.81-23.19-24.06-23.19S15,73,15,85.73a23.09,23.09,0,0,0,12.54,20.43H27.5A14.7,14.7,0,0,1,34.6,116a2,2,0,0,1,1.89,0v-7.18c.87.08,1.74.16,2.52.16s1.74-.08,2.6-.16V116a2,2,0,0,1,1.89,0A15,15,0,0,1,50.61,106.16Z"/><path class="cls-1" d="M66.47,84.86A57.23,57.23,0,0,1,42.33,91a28.74,28.74,0,0,1-5.92-.08,64.63,64.63,0,0,1-24.85-6.47c-.87-.55-.95-.39,0,2.45a64.63,64.63,0,0,0,24.85,6.47,24,24,0,0,0,5.92.08,59.37,59.37,0,0,0,24.14-6.15C67.57,84.23,67.57,84.23,66.47,84.86Z"/><path class="cls-15" d="M36.57,92.12v1.1a.69.69,0,0,0,.79.71l3.47-.08a.71.71,0,0,0,.71-.71V92a.73.73,0,0,0-.79-.71l-3.47.08C36.89,91.33,36.57,91.65,36.57,92.12Z"/><line class="cls-16" x1="41.54" y1="92.59" x2="39.57" y2="92.59"/><path class="cls-13" d="M39.14,42.77c-16,0-28.89,14.46-28.89,32.29,0,11,3.72,20.71,11.23,26.54,15.17-5.82,30.39-1.63,35.07.13C64.16,95.9,68,86.13,68,75.05c0-17.83-12.94-32.29-28.91-32.29"/><path class="cls-17" d="M52.26,17.49c.18-3.72-.07-7.75-1.53-10.52C50,4.81,47.51,3.48,45,2.66c1.12,0,2.06,0,2.06,0a7.15,7.15,0,0,0-6.73-1L39.1,1.45A18.42,18.42,0,0,1,41.73.25c-4.13-1-7.65,1.24-9.19,2.46C30.1,3.54,27.73,4.86,27,7c-1.46,2.77-1.72,6.8-1.53,10.52a25.5,25.5,0,0,0,.74,8.76c2.08,4.9,1.1,8.58.07,12.39,0,0,3.88,19.93,12.84,19.93,8.08.11,12.84-19.84,12.84-19.84-.88-3.48-2.82-7.81-.48-12.52a26,26,0,0,0,.79-8.72"/><path class="cls-18" d="M34.3,15.13c0,1.17-1.2,2.16-2.76,2.21s-2.86-.85-2.9-2,1.2-2.16,2.76-2.21,2.86.85,2.9,2"/><path class="cls-4" d="M32.76,15a1.31,1.31,0,1,1-1.48-1.12A1.32,1.32,0,0,1,32.76,15"/><path class="cls-18" d="M50,15.13c0,1.17-1.2,2.16-2.76,2.21s-2.86-.85-2.9-2,1.19-2.16,2.76-2.21,2.86.85,2.9,2"/><path class="cls-4" d="M48.47,15A1.31,1.31,0,1,1,47,13.86,1.31,1.31,0,0,1,48.47,15"/><path class="cls-12" d="M39.11,26.87s2.29-4.38,4.57-5.82c0,0-3.17-.64-4.57-3-1.4,2.36-4.57,3-4.57,3C36.82,22.5,39.11,26.87,39.11,26.87Z"/><path class="cls-19" d="M40.73,117l.1,0-.1-.1v-1.7a.42.42,0,0,1,.39-.39,2.5,2.5,0,0,0,1.51.44,4.77,4.77,0,0,0,1.66-.44s0-.24.24,0c1.46,1.36,4.77,1.66,4.77,1.66.19,0,.29.29.15.49l-.1.1.1.1a.42.42,0,0,1-.39.39H41.12a.42.42,0,0,1-.39-.39Z"/><path class="cls-19" d="M37.47,117a.42.42,0,0,1-.39.39H29.19a.42.42,0,0,1-.39-.39l.1-.1a.1.1,0,0,0-.1-.1.28.28,0,0,1,.15-.49s3.31-.29,4.77-1.66c.24-.24.19,0,.24,0a4.77,4.77,0,0,0,1.66.44,2.5,2.5,0,0,0,1.51-.44.42.42,0,0,1,.39.39v1.7l-.1.1.1,0v.1Z"/><path class="cls-20" d="M38,46.29l1.13,11.33,0,3.59s-5-3.94-7.1-7.78c-1.93-3.51-5.7-14.61-5.7-14.61a65.58,65.58,0,0,0,5.68,5,49.36,49.36,0,0,0,5.73,2.45"/><path class="cls-21" d="M26.62,37.27a16.91,16.91,0,0,0,4.75,5A47.71,47.71,0,0,0,38,46.29a5.69,5.69,0,0,0-2.45,3.42,14.76,14.76,0,0,0-.12,3.22s-6.64-6.87-9.13-14.28c-.13-.39.34-1.39.34-1.39"/><path class="cls-20" d="M40.21,46.2,39.06,57.53l.07,3.69s5.09-3.74,7-7.87c1.68-3.64,5.7-14.62,5.7-14.62a65,65,0,0,1-5.67,5,50.88,50.88,0,0,1-5.73,2.45"/><path class="cls-21" d="M51.58,37.11a16.82,16.82,0,0,1-4.76,5,47.46,47.46,0,0,1-6.61,4.06,5.67,5.67,0,0,1,2.45,3.42,14.48,14.48,0,0,1,.12,3.23S49.49,46,52,38.58c.13-.38-.41-1.47-.41-1.47"/><path class="cls-22" d="M26.29,38.5S37.64,58.76,39.14,61.21l-15-12.3,2-3.46-3,0A68.52,68.52,0,0,0,26.29,38.5Z"/><path class="cls-22" d="M52,38.58S40.64,58.76,39.14,61.21L54.12,49l-2-3.46,3,0A67.2,67.2,0,0,1,52,38.58Z"/><path class="cls-23" d="M36.15,13.41c-.37-.69-1.28-1.28-3.62-1.68a10.21,10.21,0,0,0-5.78.56,3.16,3.16,0,0,0-1.21,2.2A11.43,11.43,0,0,0,26,18.26a3.48,3.48,0,0,0,2.58,2.43,8.37,8.37,0,0,0,4.38,0,4.3,4.3,0,0,0,2.82-3.09,9.79,9.79,0,0,0,.43-4.09Z"/><path class="cls-23" d="M50.89,12.29a10.21,10.21,0,0,0-5.78-.56c-2.34.4-3.25,1-3.62,1.68l0,.07a9.79,9.79,0,0,0,.43,4.09,4.3,4.3,0,0,0,2.82,3.09,8.37,8.37,0,0,0,4.38,0,3.48,3.48,0,0,0,2.58-2.43,11.43,11.43,0,0,0,.44-3.77A3.16,3.16,0,0,0,50.89,12.29Z"/><path class="cls-24" d="M51.94,11.27a36.52,36.52,0,0,0-9-.19c-3,.48-2.59,1.1-2.56,1.34a3.14,3.14,0,0,0-1.56-.36,3.22,3.22,0,0,0-1.58.36c0-.24.32-.86-2.63-1.34a35.24,35.24,0,0,0-8.89.19c-1.39.21-1.4.52-1.4.52l.07,1.33s-.14-.19.29.28.29.74.72.88a8.72,8.72,0,0,0,.39,3.17,3.6,3.6,0,0,0,2.76,2.31,9.44,9.44,0,0,0,2.24.25,8.9,8.9,0,0,0,2.3-.28,4.3,4.3,0,0,0,3-2.9,9.23,9.23,0,0,0,.54-3.38.49.49,0,0,0,.38-.09h0s0,0,0-.06a2.59,2.59,0,0,1,1.84-.57,2.61,2.61,0,0,1,1.84.57s0,0,0,.06h0a.49.49,0,0,0,.38.09,9.14,9.14,0,0,0,.52,3.38,4.32,4.32,0,0,0,3,2.9,9,9,0,0,0,2.31.28,9.62,9.62,0,0,0,2.26-.25A3.66,3.66,0,0,0,52,17.45a8.92,8.92,0,0,0,.47-3.17c.43-.14.2-.48.56-.88s.17-.28.17-.28V11.79S53.32,11.48,51.94,11.27ZM35.75,16.75a4,4,0,0,1-2.82,2.71,9.51,9.51,0,0,1-4.38,0A3.33,3.33,0,0,1,26,17.35a8.86,8.86,0,0,1-.44-3.3,2.69,2.69,0,0,1,1.21-1.93,11.53,11.53,0,0,1,5.78-.49c2.34.35,3.25.86,3.62,1.47l0,.06A7.58,7.58,0,0,1,35.75,16.75Zm15.91.6a3.33,3.33,0,0,1-2.58,2.13,9.51,9.51,0,0,1-4.38,0,4,4,0,0,1-2.82-2.71,7.58,7.58,0,0,1-.43-3.59l0-.06c.37-.61,1.28-1.12,3.62-1.47a11.53,11.53,0,0,1,5.78.49A2.69,2.69,0,0,1,52.1,14,8.86,8.86,0,0,1,51.66,17.35Z"/><path class="cls-25" d="M39.15,76.81,42.69,63.9a13.4,13.4,0,1,0,4,24Z"/><path class="cls-26" d="M39.15,76.81,51.66,72a13.41,13.41,0,0,0-9.42-8.26Z"/><path class="cls-27" d="M52.55,76.81a13.34,13.34,0,0,0-.88-4.73L39.15,76.81l7.2,11.29A13.38,13.38,0,0,0,52.55,76.81Z"/></g></g></svg>