<?xml version="1.0" encoding="utf-8"?>
<!-- Generator: Adobe Illustrator 20.0.0, SVG Export Plug-In . SVG Version: 6.00 Build 0)  -->
<!DOCTYPE svg PUBLIC "-//W3C//DTD SVG 1.1//EN" "http://www.w3.org/Graphics/SVG/1.1/DTD/svg11.dtd">
<svg version="1.1" id="Layer_1" xmlns="http://www.w3.org/2000/svg" xmlns:xlink="http://www.w3.org/1999/xlink" x="0px" y="0px"
	 viewBox="0 0 125 125" style="enable-background:new 0 0 125 125;" xml:space="preserve">
<style type="text/css">
	.st0{fill:#E2E1E1;}
	.st1{fill:#2A2D35;}
	.st2{fill:#E1E2E3;}
	.st3{fill:#FFFFFF;}
	.st4{fill:#C7C6C6;}
	.st5{fill:#2B2A34;}
	.st6{fill:none;stroke:#C7C6C6;stroke-width:0.3819;stroke-miterlimit:10;}
	.st7{fill-rule:evenodd;clip-rule:evenodd;fill:#434750;}
	.st8{fill-rule:evenodd;clip-rule:evenodd;fill:#D6D6D5;}
	.st9{fill:#42474F;}
	.st10{fill:#1A1A1A;}
	.st11{fill:#2B2C2D;}
	.st12{fill:none;}
	.st13{fill-rule:evenodd;clip-rule:evenodd;fill:#1A1A1A;}
	.st14{fill:#FF0000;}
	.st15{fill:none;stroke:#FF0000;stroke-width:0.3897;stroke-linecap:round;stroke-linejoin:round;stroke-miterlimit:10;}
	.st16{fill:#E4E3E3;}
	.st17{fill:#8CCDDD;}
	.st18{fill:#8CAFDD;}
	.st19{fill:#661938;}
	.st20{fill:#C69C6D;}
	.st21{fill:#C7B299;}
	.st22{clip-path:url(#SVGID_2_);}
	.st23{fill:#C1272D;}
</style>
<g>
	<g>
		<g>
			<path class="st0" d="M45.8,111"/>
		</g>
		<g>
			<path class="st0" d="M44.7,98.5"/>
		</g>
	</g>
	<g>
		<g>
			<path class="st0" d="M33.6,78c0,0-8.7-3.1-10.5-6.2c-2.5-4.4,2.8-3.9,2.8-3.9s-1-1.2-2.8-1.9c-1.6-0.6-5.1,0-4.9,3.9
				c0.2,3.9,1,4.1,1,4.1s-1.2-1.2-1.3-4.1c-0.2-3,1-3.2,0.3-3.4c-0.4-0.1-2.7,2.2-2.9,3.8c-0.2,1.6,0.6,4,1.8,5.6
				c2.1,2.7-1.8-0.7-2.1-4.5c0-0.4-1.2,4.6,0.2,7.8c0.5,1.3,1.5,2.5,1.5,2.5c-0.4-0.3-0.9-1-1.5-2c-0.9-1.6-1-3.7-1-3.7
				s-1.6,4.7,0.9,10.8c3.8,9.3,13.2,11.6,13.5,11.4c0.1,0,0.1-0.1,0.2-0.2c8.6-9.4,4.1-19.5,4.1-19.5"/>
		</g>
		<g>
			<path class="st1" d="M74.7,115.2L74.7,115.2c6.3-3.3,10.5-9.7,10.5-17.1c0-10.7-9.1-19.5-20.3-19.5c-11.2,0-20.3,8.7-20.3,19.5
				c0,7.4,4.3,13.8,10.6,17.1l-0.1,0c3.1,1.8,5.3,4.7,6,8.2c0.1-0.1,0.8-0.4,1.6,0v-6c0.7,0.1,1.4,0.1,2.2,0.1c0.7,0,1.5,0,2.2-0.1
				v6c0.8-0.4,1.5-0.1,1.6,0C69.4,119.9,71.6,116.9,74.7,115.2z"/>
		</g>
		<g>
			<path class="st2" d="M114,82.6c1.1-3.7,0.7-6.1,0.7-6.1s-3,6.1-5.2,6.4c0,0,5.3-5.3,4.8-9.5c0,0-2.7,4.8-4.7,5.4
				c0,0,4.8-4.2,3.6-9.7c0,0-2.1,5.9-4.3,6.1c0,0,3.6-4.3,3.3-8.3c0,0-14.8,20.1-35.2,2.1l0.4,17.1l9.7,12.3c0,0,14.4,5.3,23.5-9
				c0,0,0,0,0,0c1.6-2.4,2.6-4.6,3.2-6.4C114,82.8,114,82.7,114,82.6C114.1,82.6,114,82.6,114,82.6z"/>
		</g>
		<g>
			<path class="st3" d="M95.9,86.8c0-4,1-7.7,2.8-10.9c-5.8,1.4-13.3,0.5-21.7-6.9l-0.3,17.1l10.4,12.3c0,0,5.6,2.1,12,0.1
				C97.2,95.2,95.9,91.1,95.9,86.8z"/>
			<path class="st2" d="M93.6,99.5c-3.7,0-6.3-0.9-6.4-1l0,0l0,0L76.6,86.2L77,68.7l0.2,0.2c7.2,6.3,14.4,8.7,21.5,6.9l0.3-0.1
				L98.9,76c-1.8,3.3-2.8,7-2.8,10.8c0,4.1,1.1,8.1,3.3,11.6l0.1,0.2l-0.2,0.1C97.3,99.3,95.3,99.5,93.6,99.5z M87.3,98.3
				c0.5,0.2,5.8,1.9,11.7,0.2c-2.1-3.5-3.2-7.5-3.2-11.6c0-3.7,0.9-7.4,2.7-10.7c-7,1.6-14.2-0.7-21.2-6.8l-0.3,16.7L87.3,98.3z"/>
		</g>
		<g>
			<path class="st3" d="M32.1,86.8c0-4-1-7.7-2.8-10.9c5.8,1.4,13.3,0.5,21.7-6.9l0.3,17.1L40.8,98.4c0,0-5.6,2.1-12,0.1
				C30.9,95.2,32.1,91.1,32.1,86.8z"/>
			<path class="st2" d="M34.5,99.5c-1.7,0-3.7-0.2-5.7-0.8l-0.2-0.1l0.1-0.2C30.9,95,32,91,32,86.8c0-3.8-1-7.5-2.8-10.8L29,75.7
				l0.3,0.1c7.1,1.7,14.4-0.6,21.5-6.9l0.2-0.2l0.3,17.5l0,0L40.9,98.5l0,0C40.9,98.6,38.2,99.5,34.5,99.5z M29,98.5
				c6,1.7,11.2,0,11.7-0.2l10.4-12.2l-0.3-16.7c-7.1,6.2-14.2,8.5-21.2,6.8c1.8,3.3,2.7,6.9,2.7,10.7C32.3,91,31.2,95,29,98.5z"/>
		</g>
		<g>
			<path class="st4" d="M65,93.3c-7.5,0-13.5-6.1-13.5-13.5c0-7.5,6.1-13.5,13.5-13.5c7.5,0,13.5,6.1,13.5,13.5
				C78.5,87.3,72.5,93.3,65,93.3z M65,66.7c-7.2,0-13.1,5.9-13.1,13.1C51.9,87.1,57.8,93,65,93c7.2,0,13.1-5.9,13.1-13.1
				C78.1,72.6,72.2,66.7,65,66.7z"/>
		</g>
		<g>
			<path class="st5" d="M55.7,57.9c-0.2,1.2-0.9,0.2-1.3,1.5c-1.1,3.6-2.8,9.9-6.7,13.6c0,0,3.5,13.8,17.2,13.8
				C78.7,86.8,82.2,73,82.2,73c-3.7-3.6-5.4-9.9-6.6-13.5c-0.5-1.5-1.3-0.4-1.5-1.8"/>
		</g>
		<g>
			<path class="st1" d="M65,64.7c-13.4,0-24.4,12.2-24.4,27.2c0,9.3,4.2,17.4,10.5,22.4l0.7,0c1.6,0,2.8-1.3,2.8-2.8L54.6,59"/>
		</g>
		<g>
			<path class="st1" d="M65.3,64.7c13.4,0,24.4,12.2,24.4,27.2c0,9.3-4.2,17.4-10.5,22.4l-0.7,0c-1.6,0-2.8-1.3-2.8-2.8L75.7,59"/>
		</g>
		<g>
			<path class="st6" d="M61.7,122.3"/>
		</g>
		<g>
			<g>
				<circle class="st7" cx="65.2" cy="63.1" r="1.2"/>
			</g>
			<g>
				<circle class="st8" cx="65.2" cy="63.1" r="0.3"/>
			</g>
		</g>
		<g>
			<g>
				<circle class="st7" cx="65.2" cy="69.7" r="1.2"/>
			</g>
			<g>
				<circle class="st8" cx="65.2" cy="69.7" r="0.3"/>
			</g>
		</g>
		<g>
			<path class="st2" d="M75.9,41.9c0.2-3.1-0.1-6.4-1.3-8.7c-0.6-1.8-2.7-2.9-4.7-3.6c0.9,0,1.7,0,1.7,0c-2.2-1.5-4.1-1.4-5.6-0.9
				c-0.4-0.1-0.8-0.1-1-0.1c1-0.6,2.2-1,2.2-1c-3.4-0.8-6.3,1-7.6,2c-2,0.7-4,1.8-4.6,3.5c-1.2,2.3-1.4,5.6-1.3,8.7
				c-0.1,2.9,0,5.1,0.6,7.3c1.7,4.1,0.9,7.1,0.1,10.3L65,78.1v0.1l10.6-18.7c-0.7-2.9-2.3-6.5-0.4-10.4C75.9,46.9,76,44.3,75.9,41.9
				z"/>
		</g>
		<g>
			
				<ellipse transform="matrix(0.9994 -3.320923e-02 3.320923e-02 0.9994 -1.296 1.9338)" class="st3" cx="57.6" cy="40" rx="2.3" ry="1.8"/>
		</g>
		<g>
			<ellipse transform="matrix(0.9905 -0.1378 0.1378 0.9905 -4.952 8.3095)" class="st5" cx="57.6" cy="39.9" rx="1.1" ry="1.1"/>
		</g>
		<g>
			
				<ellipse transform="matrix(0.9994 -3.320587e-02 3.320587e-02 0.9994 -1.2879 2.4096)" class="st3" cx="71.9" cy="40" rx="2.3" ry="1.8"/>
		</g>
		<g>
			<ellipse transform="matrix(0.9905 -0.1378 0.1378 0.9905 -4.8172 10.2887)" class="st5" cx="71.9" cy="39.9" rx="1.1" ry="1.1"/>
		</g>
		<g>
			<path class="st9" d="M64.8,42.3c-1.2,2-3.6,2.5-3.6,2.5c1.9,1.2,3.8,4.8,3.8,4.8s1.8-3.6,3.7-4.8C68.7,44.8,65.9,44.3,64.8,42.3z
				"/>
		</g>
		<g>
			<path class="st10" d="M51.1,114.3c0,0,0.1,0,0.3,0c0.2,0,0.5,0,0.9-0.1c0.4-0.1,0.8-0.3,1.2-0.6c0.4-0.4,0.7-0.9,0.9-1.5
				c0.1-0.6,0-1.4,0-2.1c0-0.8,0-1.6-0.1-2.4c0-1.7,0-3.5-0.1-5.3c0-1.8,0-3.6,0-5.3c0-1.7,0.1-3.3,0.1-4.6c0.1-2.7,0.2-4.5,0.2-4.5
				s0.1,1.8,0.2,4.5c0,1.3,0.1,2.9,0.1,4.6c0,1.7,0,3.5,0.1,5.3c0,1.8,0,3.6,0,5.3c0,0.8,0,1.7,0,2.4c0,0.8,0,1.5-0.1,2.2
				c-0.2,0.7-0.6,1.2-1.1,1.6c-0.5,0.3-0.9,0.5-1.3,0.6c-0.4,0.1-0.7,0-0.9,0C51.2,114.3,51.1,114.3,51.1,114.3z"/>
		</g>
		<g>
			<path class="st10" d="M78.9,114.3c0,0-0.1,0-0.3,0c-0.2,0-0.5,0.1-0.9,0c-0.4-0.1-0.9-0.2-1.3-0.6c-0.4-0.3-0.9-0.9-1.1-1.6
				c-0.2-0.7-0.1-1.4-0.1-2.2c0-0.8,0-1.6,0-2.4c0-1.7,0-3.5,0-5.3c0-1.8,0-3.6,0.1-5.3c0-1.7,0.1-3.3,0.1-4.6
				c0.1-2.7,0.2-4.5,0.2-4.5s0.1,1.8,0.2,4.5c0,1.3,0.1,2.9,0.1,4.6c0,1.7,0,3.5,0,5.3c0,1.8,0,3.6-0.1,5.3c0,0.8,0,1.7-0.1,2.4
				c0,0.8-0.1,1.5,0,2.1c0.1,0.6,0.5,1.1,0.9,1.5c0.4,0.3,0.8,0.5,1.2,0.6c0.4,0.1,0.7,0.1,0.9,0.1
				C78.8,114.3,78.9,114.3,78.9,114.3z"/>
		</g>
	</g>
	<g>
		<g>
			<path class="st11" d="M66.3,124.6L66.3,124.6v-0.1V123c0-0.2,0.1-0.3,0.3-0.3c0,0,0.5,0.4,1.3,0.4c0.8,0,1.2-0.4,1.4-0.4
				c0,0,0-0.2,0.2,0c1.2,1.1,4,1.4,4,1.4c0.2,0,0.3,0.2,0.1,0.4c0,0-0.1,0.1-0.1,0.1l0.1,0.1c0,0.2-0.1,0.3-0.3,0.3h-6.6
				C66.5,125,66.3,124.9,66.3,124.6L66.3,124.6z"/>
		</g>
		<g>
			<path class="st11" d="M63.6,124.7c0,0.2-0.1,0.3-0.3,0.3h-6.6c-0.2,0-0.3-0.1-0.3-0.3l0.1-0.1c0,0-0.1-0.1-0.1-0.1
				c-0.1-0.2,0-0.4,0.1-0.4c0,0,2.7-0.2,4-1.4c0.2-0.2,0.2,0,0.2,0c0.2,0,0.6,0.4,1.4,0.4c0.8,0,1.3-0.4,1.3-0.4
				c0.2,0,0.3,0.1,0.3,0.3v1.4l-0.1,0.1L63.6,124.7L63.6,124.7z"/>
		</g>
	</g>
	<g>
		<path class="st3" d="M54.4,60.1c0,0,2,6.2,10.2,6.2S75,60.1,75,60.1v28.5c0,0-9.5,9.7-20.8-0.3C54.2,88.4,54.4,60.1,54.4,60.1z"/>
	</g>
	<g>
		<g>
			<path class="st3" d="M75.6,59.3c0.1-0.3,0.2-0.3,0.3,0c0,0,1.6,9.5-7.1,15.3C67.7,75.2,65,66,65,66c-0.1-0.3,0.1-0.6,0.5-0.6
				c0,0,4.8,0.5,8.6-3.6C75.1,60.8,75.6,59.3,75.6,59.3z"/>
		</g>
		<g>
			<path class="st2" d="M68.6,74.8c0,0-0.1,0-0.1,0c-1.1-0.4-3.3-7.8-3.6-8.7c-0.1-0.2,0-0.4,0.1-0.5c0.1-0.1,0.3-0.2,0.5-0.2
				c0,0,4.7,0.4,8.5-3.6c1-1.1,1.4-2.5,1.4-2.5l0,0c0-0.1,0.1-0.4,0.3-0.4c0,0,0,0,0,0c0.2,0,0.2,0.3,0.3,0.4
				c0,0.1,1.5,9.6-7.2,15.4C68.7,74.8,68.7,74.8,68.6,74.8z M65.4,65.6c-0.1,0-0.2,0-0.2,0.1c-0.1,0.1-0.1,0.2,0,0.3
				c0.9,3.1,2.7,8.2,3.4,8.5c0,0,0,0,0,0c8.5-5.7,7.1-15,7.1-15.1c0,0,0,0,0,0c0,0,0,0,0,0l0,0c0,0.1-0.4,1.5-1.5,2.6
				C70.3,66.1,65.5,65.6,65.4,65.6C65.5,65.6,65.4,65.6,65.4,65.6z"/>
		</g>
	</g>
	<g>
		<g>
			<path class="st3" d="M54.6,59.2c-0.1-0.3-0.2-0.3-0.3,0c0,0-1.6,9.5,7.1,15.3c1,0.6,3.7-8.6,3.7-8.6c0.1-0.3-0.1-0.6-0.5-0.6
				c0,0-4.8,0.5-8.6-3.6C55.1,60.7,54.6,59.2,54.6,59.2z"/>
		</g>
		<g>
			<path class="st2" d="M61.6,74.7c-0.1,0-0.1,0-0.2-0.1c-8.7-5.8-7.2-15.3-7.2-15.4c0-0.1,0.1-0.4,0.3-0.4c0,0,0,0,0,0
				c0.2,0,0.3,0.3,0.3,0.4l-0.1,0l0.1,0c0,0,0.4,1.4,1.4,2.5c3.8,4,8.4,3.6,8.5,3.6c0.2,0,0.4,0,0.5,0.2c0.1,0.1,0.1,0.3,0.1,0.5
				c-0.2,0.8-2.5,8.3-3.6,8.7C61.7,74.7,61.6,74.7,61.6,74.7z M54.5,59.3C54.5,59.3,54.5,59.3,54.5,59.3c0,0.1-1.5,9.5,7.1,15.1
				c0,0,0,0,0,0c0.7-0.3,2.5-5.3,3.4-8.5c0-0.1,0-0.2,0-0.3c-0.1-0.1-0.2-0.1-0.3-0.1c0,0-4.9,0.5-8.7-3.6
				C54.9,60.8,54.5,59.4,54.5,59.3L54.5,59.3C54.5,59.3,54.5,59.3,54.5,59.3z"/>
		</g>
	</g>
	<g>
		<path class="st12" d="M54.6,59"/>
	</g>
	<g>
		<path class="st12" d="M54.6,111.5"/>
	</g>
	<g>
		<path class="st12" d="M51.8,114.3"/>
	</g>
	<g>
		<g>
			<path class="st3" d="M59.2,118.3c0,0,2.3,0.8,3.6,0c0,1.3,0.5,4.2,0.5,4.2s-0.4,1.4-2.6,0L59.2,118.3z"/>
		</g>
		<g>
			<path class="st2" d="M59.2,118.3c0.3,0.1,0.6,0.1,0.9,0.2c0.3,0,0.6,0.1,0.9,0.1c0.2,0,0.3,0,0.5,0c0.2,0,0.3,0,0.4-0.1
				c0.1,0,0.1,0,0.2-0.1c0.1,0,0.1,0,0.2-0.1c0.1,0,0.1,0,0.2-0.1l0.2-0.1l0.2-0.1l0,0.2c0,0.3,0,0.7,0.1,1.1c0,0.4,0.1,0.7,0.1,1.1
				c0.1,0.7,0.2,1.4,0.3,2.1l0,0l0,0c0,0.1-0.1,0.1-0.1,0.2c0,0.1-0.1,0.1-0.1,0.2c-0.1,0.1-0.2,0.2-0.4,0.3c-0.1,0-0.1,0.1-0.2,0.1
				c-0.1,0-0.1,0-0.2,0c-0.1,0-0.1,0-0.2,0l-0.2,0c-0.1,0-0.1,0-0.2,0c-0.1,0-0.1,0-0.2-0.1c-0.1,0-0.3-0.1-0.4-0.1
				c-0.1-0.1-0.2-0.1-0.3-0.2l-0.3-0.2l0,0l0,0l-0.7-2.1c-0.1-0.4-0.2-0.7-0.3-1.1C59.4,119,59.3,118.6,59.2,118.3z M59.2,118.3
				c0.1,0.3,0.3,0.7,0.4,1c0.1,0.3,0.3,0.7,0.4,1l0.8,2.1l-0.1-0.1l0.3,0.2c0.1,0.1,0.2,0.1,0.3,0.2c0.1,0.1,0.2,0.1,0.3,0.1
				c0.1,0,0.1,0,0.2,0c0.1,0,0.1,0,0.2,0l0.2,0c0.1,0,0.1,0,0.2,0c0.1,0,0.1,0,0.2,0c0.1,0,0.1,0,0.2,0c0.1,0,0.2-0.1,0.3-0.2
				c0,0,0.1-0.1,0.1-0.1c0,0,0.1-0.1,0.1-0.1l0,0.1c-0.1-0.7-0.2-1.4-0.3-2.1c-0.1-0.7-0.1-1.4-0.1-2.1l0.2,0.1l-0.2,0.1
				c-0.1,0-0.2,0.1-0.2,0.1c-0.1,0-0.2,0.1-0.2,0.1c-0.1,0-0.2,0-0.2,0c-0.2,0-0.3,0-0.5,0c-0.2,0-0.3,0-0.5,0
				c-0.3,0-0.6-0.1-0.9-0.2C59.8,118.5,59.5,118.4,59.2,118.3z"/>
		</g>
	</g>
	<g>
		<g>
			<path class="st3" d="M70.7,118.3c0,0-2.3,0.8-3.6,0c0,1.3-0.5,4.2-0.5,4.2s0.4,1.4,2.6,0L70.7,118.3z"/>
		</g>
		<g>
			<path class="st2" d="M70.7,118.3c-0.3,0.1-0.6,0.2-0.9,0.3c-0.3,0.1-0.6,0.1-0.9,0.2c-0.2,0-0.3,0-0.5,0c-0.2,0-0.3,0-0.5,0
				c-0.1,0-0.2,0-0.2,0c-0.1,0-0.2,0-0.2-0.1c-0.1,0-0.2,0-0.2-0.1l-0.2-0.1l0.2-0.1c0,0.7-0.1,1.4-0.1,2.1
				c-0.1,0.7-0.2,1.4-0.3,2.1l0-0.1c0,0,0,0.1,0.1,0.1c0,0,0.1,0.1,0.1,0.1c0,0,0.1,0.1,0.1,0.1c0,0,0.1,0.1,0.1,0.1
				c0,0,0.1,0,0.2,0c0.1,0,0.1,0,0.2,0c0.1,0,0.1,0,0.2,0l0.2,0c0.1,0,0.1,0,0.2,0c0.1,0,0.1,0,0.2,0c0.1,0,0.2-0.1,0.3-0.1
				c0.1-0.1,0.2-0.1,0.3-0.2l0.3-0.2l-0.1,0.1l0.8-2.1c0.1-0.3,0.3-0.7,0.4-1C70.4,119,70.6,118.6,70.7,118.3z M70.7,118.3
				c-0.1,0.4-0.2,0.7-0.3,1.1c-0.1,0.4-0.2,0.7-0.3,1.1l-0.7,2.1l0,0l0,0l-0.3,0.2c-0.1,0.1-0.2,0.1-0.3,0.2
				c-0.1,0.1-0.2,0.1-0.4,0.1c-0.1,0-0.1,0-0.2,0.1c-0.1,0-0.1,0-0.2,0l-0.2,0c-0.1,0-0.1,0-0.2,0c-0.1,0-0.1,0-0.2,0
				c-0.1,0-0.1,0-0.2-0.1c-0.1,0-0.1-0.1-0.2-0.1c-0.1,0-0.1-0.1-0.2-0.1c-0.1-0.1-0.1-0.1-0.1-0.2c0-0.1-0.1-0.1-0.1-0.2l0,0l0,0
				c0.1-0.7,0.2-1.4,0.3-2.1c0-0.3,0.1-0.7,0.1-1c0-0.3,0.1-0.7,0.1-1l0-0.2l0.2,0.1l0.2,0.1c0.1,0,0.1,0.1,0.2,0.1
				c0.1,0,0.1,0.1,0.2,0.1c0.1,0,0.1,0,0.2,0.1c0.1,0,0.3,0,0.4,0.1c0.1,0,0.3,0,0.5,0c0.3,0,0.6,0,0.9-0.1
				C70.1,118.4,70.4,118.4,70.7,118.3z"/>
		</g>
	</g>
	<g>
		<g>
			<g>
				<path class="st1" d="M63,118.6C63,118.6,63.1,118.7,63,118.6c0,0.1,0,0.1,0,0.2c0,0.1,0,0.1-0.1,0.2c0,0.1-0.1,0.2-0.1,0.2
					c-0.1,0.1-0.1,0.2-0.2,0.2c-0.1,0.1-0.2,0.2-0.3,0.2c-0.1,0.1-0.2,0.1-0.3,0.2c-0.1,0.1-0.2,0.1-0.3,0.2
					c-0.2,0.1-0.5,0.2-0.7,0.2c-0.1,0-0.2,0-0.3,0.1c-0.1,0-0.2,0-0.3,0c-0.2,0-0.3,0-0.5,0c-0.1,0-0.2,0-0.2,0s0.1,0,0.2,0
					c0.1,0,0.3,0,0.4-0.1c0.1,0,0.2,0,0.3-0.1c0.1,0,0.2-0.1,0.3-0.1c0.1,0,0.2-0.1,0.3-0.1c0.1,0,0.2-0.1,0.3-0.1
					c0.2-0.1,0.4-0.2,0.6-0.3c0.1-0.1,0.2-0.1,0.3-0.2c0.1-0.1,0.1-0.1,0.2-0.2c0.1-0.1,0.1-0.1,0.2-0.2c0-0.1,0.1-0.1,0.1-0.2
					C63,118.8,63,118.7,63,118.6C63,118.7,63,118.6,63,118.6z"/>
			</g>
			<g>
				<path class="st1" d="M63.3,120C63.3,120,63.3,120,63.3,120c0,0.1,0,0.1-0.1,0.1c0,0,0,0-0.1,0.1c0,0-0.1,0-0.1,0.1
					c-0.1,0-0.2,0.1-0.3,0.1c-0.1,0-0.2,0-0.3,0c-0.1,0-0.2,0-0.4,0c-0.1,0-0.2-0.1-0.4-0.1c-0.1,0-0.2-0.1-0.4-0.1
					c-0.2-0.1-0.5-0.2-0.7-0.3c-0.2-0.1-0.4-0.2-0.6-0.3c-0.3-0.2-0.5-0.4-0.5-0.4s0.1,0,0.2,0.1c0.1,0,0.3,0.1,0.4,0.2
					c0.4,0.1,0.8,0.3,1.3,0.5c0.5,0.2,0.9,0.3,1.3,0.4c0,0,0.1,0,0.1,0c0,0,0.1,0,0.1,0c0,0,0.1,0,0.1,0c0,0,0.1,0,0.1,0
					C63.2,120.1,63.2,120,63.3,120C63.3,120,63.3,120,63.3,120z"/>
			</g>
		</g>
		<g>
			<g>
				<path class="st1" d="M63.3,120.1C63.3,120.1,63.3,120.1,63.3,120.1c0,0.1,0,0.1,0,0.2c0,0.1,0,0.1,0,0.2c0,0.1-0.1,0.1-0.1,0.2
					c-0.1,0.1-0.1,0.2-0.2,0.2c-0.1,0.1-0.2,0.1-0.3,0.2c-0.1,0.1-0.2,0.1-0.3,0.2c-0.1,0.1-0.2,0.1-0.3,0.1
					c-0.2,0.1-0.5,0.1-0.7,0.2c-0.1,0-0.2,0-0.3,0c-0.1,0-0.2,0-0.3,0c-0.2,0-0.3,0-0.4,0c-0.1,0-0.2,0-0.2,0s0.1,0,0.2,0
					c0.1,0,0.2-0.1,0.4-0.1c0.2,0,0.4-0.1,0.6-0.1c0.1,0,0.2-0.1,0.3-0.1c0.1,0,0.2-0.1,0.3-0.1c0.1,0,0.2-0.1,0.3-0.1
					c0.1,0,0.2-0.1,0.3-0.1c0.1-0.1,0.2-0.1,0.2-0.2c0.1-0.1,0.1-0.1,0.2-0.2c0.1-0.1,0.1-0.1,0.1-0.2c0-0.1,0.1-0.1,0.1-0.2
					C63.3,120.1,63.3,120.1,63.3,120.1z"/>
			</g>
			<g>
				<path class="st1" d="M63.3,121.4c0,0,0,0-0.1,0.1c-0.1,0-0.1,0-0.2,0.1c-0.1,0-0.2,0-0.3,0c-0.1,0-0.2,0-0.3,0
					c-0.1,0-0.2,0-0.3,0c-0.2,0-0.5-0.1-0.7-0.2c-0.2-0.1-0.4-0.2-0.7-0.3c-0.2-0.1-0.4-0.2-0.5-0.3c-0.2-0.1-0.3-0.2-0.4-0.2
					c-0.1-0.1-0.1-0.1-0.1-0.1s0.1,0,0.2,0.1c0.1,0,0.2,0.1,0.4,0.1c0.2,0.1,0.4,0.1,0.6,0.2c0.1,0,0.2,0.1,0.3,0.1
					c0.1,0,0.2,0.1,0.3,0.1c0.4,0.2,0.9,0.3,1.2,0.3c0.2,0,0.3,0,0.4,0C63.3,121.4,63.3,121.4,63.3,121.4z"/>
			</g>
		</g>
	</g>
	<g>
		<g>
			<g>
				<path class="st1" d="M67,118.6c0,0,0,0.1,0,0.2c0,0.1,0.1,0.2,0.3,0.3c0.3,0.2,0.7,0.5,1.1,0.7c0.4,0.2,0.9,0.3,1.3,0.4
					c0.4,0.1,0.6,0.1,0.6,0.1s-0.1,0-0.2,0c-0.1,0-0.3,0-0.5,0c-0.4,0-0.9-0.1-1.4-0.3c-0.5-0.2-0.9-0.5-1.1-0.9
					c-0.1-0.2-0.2-0.3-0.2-0.4C67,118.7,67,118.6,67,118.6z"/>
			</g>
			<g>
				<path class="st1" d="M66.7,120c0,0,0,0.1,0.1,0.1c0.1,0.1,0.2,0.1,0.4,0.1c0.4,0,0.8-0.2,1.3-0.4c0.5-0.2,0.9-0.4,1.3-0.5
					c0.4-0.1,0.6-0.2,0.6-0.2s-0.2,0.2-0.5,0.4c-0.3,0.2-0.8,0.4-1.2,0.6c-0.5,0.2-1,0.3-1.4,0.2c-0.2,0-0.4-0.1-0.4-0.2
					C66.7,120,66.7,120,66.7,120z"/>
			</g>
		</g>
		<g>
			<g>
				<path class="st1" d="M66.7,120.1c0,0,0,0.1,0,0.2c0,0.1,0.1,0.2,0.2,0.3c0.2,0.2,0.6,0.4,1,0.6c0.4,0.2,0.9,0.3,1.2,0.4
					c0.3,0.1,0.6,0.1,0.6,0.1s-0.2,0-0.6,0c-0.4,0-0.8-0.1-1.3-0.2c-0.4-0.2-0.9-0.4-1.1-0.8C66.7,120.3,66.7,120.1,66.7,120.1z"/>
			</g>
			<g>
				<path class="st1" d="M66.7,121.4c0,0,0.2,0.1,0.6,0c0.3-0.1,0.8-0.2,1.2-0.3c0.4-0.1,0.9-0.3,1.2-0.4c0.3-0.1,0.6-0.2,0.6-0.2
					s-0.2,0.2-0.5,0.4c-0.3,0.2-0.7,0.4-1.2,0.6c-0.5,0.1-0.9,0.2-1.3,0.2C66.9,121.5,66.7,121.4,66.7,121.4z"/>
			</g>
		</g>
	</g>
	<g>
		<g>
			<circle class="st13" cx="77.8" cy="72.8" r="1"/>
		</g>
		<g>
			<circle class="st13" cx="77.8" cy="79.2" r="1"/>
		</g>
		<g>
			<circle class="st13" cx="77.8" cy="85.7" r="1"/>
		</g>
		<g>
			<circle class="st13" cx="77.8" cy="92.1" r="1"/>
		</g>
		<g>
			<circle class="st13" cx="77.8" cy="98.6" r="1"/>
		</g>
		<g>
			<circle class="st13" cx="77.8" cy="105" r="1"/>
		</g>
		<g>
			<circle class="st13" cx="77.8" cy="111.5" r="1"/>
		</g>
	</g>
	<g>
		<line class="st12" x1="63.8" y1="78.2" x2="63.8" y2="86.7"/>
	</g>
	<g>
		<g>
			<g>
				<path class="st14" d="M63.8,66.4c0,0,0,0.1,0,0.1c0,0,0,0.1,0,0.1c0,0.3-0.1,0.7-0.2,1.1c0,0.2-0.1,0.4-0.1,0.6
					c0,0.2-0.1,0.4-0.2,0.6c-0.1,0.2-0.1,0.4-0.2,0.6c-0.1,0.2-0.1,0.4-0.2,0.6c-0.1,0.2-0.1,0.4-0.2,0.5c-0.1,0.2-0.1,0.3-0.2,0.5
					c0,0,0,0.1,0,0.1c0,0,0,0.1,0,0.1c0,0.1,0,0.2,0,0.3c0,0.2,0,0.3,0,0.5c0,0.1,0,0.2,0,0.3c0,0.1,0,0.1,0,0.1s0,0,0.1,0
					c0,0,0.1,0,0.2-0.1c0.1,0,0.2-0.1,0.3-0.2c0.1,0,0.1-0.1,0.2-0.1c0,0,0.1-0.1,0.1-0.1c0,0,0-0.1,0-0.1c0.1-0.2,0.1-0.3,0.2-0.5
					c0.1-0.2,0.1-0.4,0.2-0.6c0.1-0.2,0.2-0.4,0.2-0.6c0.1-0.2,0.1-0.5,0.2-0.7c0.1-0.2,0.1-0.5,0.2-0.7c0.1-0.2,0.1-0.5,0.2-0.7
					c0.1-0.5,0.2-0.9,0.2-1.3c0,0,0-0.1,0-0.1c0,0,0-0.1,0-0.1"/>
			</g>
			<g>
				<path class="st15" d="M61.9,73.4"/>
			</g>
			<g>
				<path class="st14" d="M65.4,66.4c0,0,0,0.1,0,0.1c0,0,0,0.1,0,0.1c0,0.3,0.1,0.7,0.2,1.1c0,0.2,0.1,0.4,0.1,0.6
					c0,0.2,0.1,0.4,0.2,0.6c0.1,0.2,0.1,0.4,0.2,0.6c0.1,0.2,0.1,0.4,0.2,0.6c0.1,0.2,0.1,0.4,0.2,0.5c0.1,0.2,0.1,0.3,0.2,0.5
					c0,0,0,0.1,0,0.1c0,0,0,0.1,0,0.1c0,0.1,0,0.2,0,0.3c0,0.2,0,0.3,0,0.5c0,0.1,0,0.2,0,0.3c0,0.1,0,0.1,0,0.1s0,0-0.1,0
					c0,0-0.1,0-0.2-0.1c-0.1,0-0.2-0.1-0.3-0.2c-0.1,0-0.1-0.1-0.2-0.1c0,0-0.1-0.1-0.1-0.1c0,0,0-0.1,0-0.1
					c-0.1-0.2-0.1-0.3-0.2-0.5c-0.1-0.2-0.1-0.4-0.2-0.6c-0.1-0.2-0.2-0.4-0.2-0.6c-0.1-0.2-0.1-0.5-0.2-0.7
					c-0.1-0.2-0.1-0.5-0.2-0.7c-0.1-0.2-0.1-0.5-0.2-0.7c-0.1-0.5-0.2-0.9-0.2-1.3c0,0,0-0.1,0-0.1c0,0,0-0.1,0-0.1"/>
			</g>
		</g>
		<g>
			<path class="st14" d="M64.4,66.6c0,0,0-0.1,0.1-0.4c0-0.1,0.1-0.2,0.1-0.4c0-0.1,0.1-0.2,0.1-0.2c0,0,0.1-0.1,0.1-0.1
				c0,0,0.1-0.1,0.1-0.1c0.3-0.3,0.6-0.6,1.1-0.8c0.2-0.1,0.5-0.2,0.9-0.2c0.2,0,0.4,0.1,0.5,0.2c0.1,0.1,0.2,0.3,0.3,0.4
				c0,0,0,0.1,0,0.1l0,0.1l0,0c0,0,0,0.1,0,0.1c0,0,0,0.1,0,0.1c0,0.2-0.1,0.4-0.2,0.6c-0.2,0.3-0.5,0.4-0.8,0.5
				c-0.5,0.2-0.9,0.2-1.3,0.3c0,0-0.1,0-0.1,0c0,0-0.1,0-0.1,0c-0.1,0-0.2,0-0.2-0.1c-0.2,0-0.3-0.1-0.4-0.1
				C64.5,66.6,64.4,66.6,64.4,66.6z M64.4,66.6c0,0,0.1-0.1,0.3-0.1c0.1,0,0.2-0.1,0.4-0.2c0.1,0,0.1-0.1,0.2-0.1c0,0,0.1,0,0.1,0
				c0,0,0.1,0,0.1,0c0.3,0,0.7-0.1,1.1-0.2c0.2-0.1,0.3-0.2,0.4-0.2c0,0,0,0,0-0.1c0,0,0,0,0,0c0,0,0,0,0,0l0,0c0,0,0,0,0,0
				c0,0,0,0,0-0.1c-0.1-0.2-0.2-0.2-0.2-0.2c-0.1,0-0.3,0-0.4,0.1c-0.3,0.2-0.6,0.4-0.9,0.7c0,0-0.1,0.1-0.1,0.1c0,0,0,0.1-0.1,0.1
				c-0.1,0-0.1,0.1-0.2,0.1c-0.1,0.1-0.3,0.1-0.4,0.2C64.5,66.5,64.4,66.6,64.4,66.6z"/>
		</g>
		<g>
			<path class="st14" d="M64.7,66.6c0,0-0.1-0.1-0.3-0.2c-0.1,0-0.2-0.1-0.4-0.2c-0.1,0-0.1-0.1-0.2-0.1c0,0-0.1,0-0.1-0.1
				c0,0-0.1-0.1-0.1-0.1c-0.2-0.2-0.5-0.5-0.9-0.7c-0.2-0.1-0.3-0.1-0.4-0.1c-0.1,0-0.2,0.1-0.2,0.2c0,0,0,0,0,0.1c0,0,0,0,0,0l0,0
				c0,0,0,0,0,0c0,0,0,0,0,0c0,0,0,0,0,0.1c0.1,0.1,0.2,0.2,0.4,0.2c0.4,0.1,0.8,0.2,1.1,0.2c0,0,0.1,0,0.1,0c0,0,0.1,0,0.1,0
				c0.1,0,0.2,0.1,0.2,0.1c0.1,0.1,0.3,0.1,0.4,0.2C64.6,66.5,64.7,66.6,64.7,66.6z M64.7,66.6c0,0-0.1,0.1-0.3,0.1
				c-0.1,0-0.2,0.1-0.4,0.1c-0.1,0-0.2,0-0.2,0.1c0,0-0.1,0-0.1,0c0,0-0.1,0-0.1,0c-0.4,0-0.8-0.1-1.3-0.3c-0.2-0.1-0.5-0.2-0.8-0.5
				c-0.1-0.2-0.2-0.4-0.2-0.6c0-0.1,0-0.1,0-0.1c0,0,0-0.1,0-0.1l0,0l0-0.1c0,0,0-0.1,0-0.1c0.1-0.1,0.2-0.3,0.3-0.4
				c0.1-0.1,0.3-0.2,0.5-0.2c0.4-0.1,0.7,0.1,0.9,0.2c0.5,0.2,0.8,0.5,1.1,0.8c0,0,0.1,0.1,0.1,0.1c0,0,0.1,0.1,0.1,0.1
				c0,0.1,0.1,0.2,0.1,0.2c0.1,0.1,0.1,0.3,0.1,0.4C64.7,66.4,64.7,66.6,64.7,66.6z"/>
		</g>
	</g>
	<g>
		<g>
			<path class="st14" d="M58.2,16.5c0.9-0.2,1.7-0.4,2.6-0.5c1.8-0.2,13.3-1.9,14.7-1.7c0.4,0.1,0.8,0.3,1.1,0.5
				c0.4,0.3,0.7,0.7,0.6,1.2c0,0.1,0,0.2,0,0.3c0,0.2-0.1,0.5-0.1,0.7c-0.1,0.1-0.1,0.3-0.2,0.4c-0.3,0.6-3.6,6.2-3.6,6.7
				c0,0.3-0.4-0.2-0.6-0.2c-2.4,0-4.9,0.2-7.3,0.6c-1.4,0.2-2.9,0.4-4.3,0.8c-1.4,0.4-5.8,1.8-6.6,2c-1.6,0.5-3.6,1.1-5.3,1.2
				c-0.4,0-0.8,0-1.1,0.1c-0.2,0-0.4,0-0.6,0c-0.1,0-0.3-0.1-0.4-0.1c-0.1,0-0.1-0.1-0.2-0.1c-0.5-0.2-0.6-0.3-0.6-0.8
				c0-0.1,0-0.1,0-0.2c0,0,0,0,0,0c0.1-0.4,0.2-0.8,0.5-1.1c0,0,0,0,0,0c0.8-1,8.9-8.4,10.1-9.1"/>
		</g>
		<g>
			<path class="st14" d="M72.8,28.6c0,0-5.6,1.1-9.7,1.2c-4.1,0.1-8-1.2-8-1.2s0.3-4.1-1.5-3.7c0,0,4.4-4.8,12.1-4.5
				c6.7,0.2,8.1,0.6,8.1,0.6s0,0.5-0.4,2.1c-0.4,1.6,0.2,4.6-0.1,5.2C73.4,28.2,72.8,28.6,72.8,28.6z"/>
		</g>
		<g>
			<path class="st1" d="M55.2,27.4c0,0,0.5,0.4,2.3,1.1c1.8,0.6,13.7-0.1,13.7-0.1s2.1,0,2.3-1.4c0.2-1.1,0.1,2.3,0.3,4
				c0.1,0.5-0.2,1-0.7,1.2c-2,0.7-7.8,2.3-18.1,0c-0.5-0.1-0.8-0.6-0.7-1.2C54.7,29.5,55.2,27.4,55.2,27.4z"/>
		</g>
		<g>
			<path class="st16" d="M63.1,33.4c0,0,1.5-0.3,1.5-1.2c0,0,0.4,0.5,0.2,1.2c0,0,0.6,0,0.7-0.6c0,0,0.4,0.6,0.2,0.8
				C65.5,33.8,63.1,33.4,63.1,33.4z"/>
		</g>
		<g>
			<path class="st16" d="M70.9,32.7c0,0,1.5-0.3,1.5-1.2c0,0,0.4,0.5,0.2,1.2c0,0,0.6,0,0.7-0.6c0,0,0.4,0.6,0.2,0.8
				C73.3,33.1,70.9,32.7,70.9,32.7z"/>
		</g>
	</g>
	<g>
		<path class="st16" d="M64,34.7c0,0,1.5-0.3,1.5-1.2c0,0,0.4,0.5,0.2,1.2c0,0,0.6,0,0.7-0.6c0,0,0.4,0.6,0.2,0.8
			C66.4,35.1,64,34.7,64,34.7z"/>
	</g>
	<g>
		<path class="st16" d="M71.7,34.2c0,0,1.5-0.3,1.5-1.2c0,0,0.4,0.5,0.2,1.2c0,0,0.6,0,0.7-0.6c0,0,0.4,0.6,0.2,0.8
			C74.1,34.6,71.7,34.2,71.7,34.2z"/>
	</g>
	<g>
		<path class="st17" d="M68,121.3"/>
	</g>
	<g>
		<g>
			<path class="st17" d="M28.7,87"/>
		</g>
		<g>
			<g>
				<path class="st17" d="M29.2,82.3"/>
			</g>
			<g>
				<path class="st18" d="M20.5,73.2l4.8-10.1c0.1-0.2,0.3-0.3,0.5-0.2l3.5,0.9c0.2,0.1,0.3,0.3,0.2,0.5l-5.6,9.8
					c-0.3,0.7-0.1,1.1,0.4,1.4c0.2,0.1,0.4,0.3,0.5,0.4l0,0.1l0,0c4,3.6,4.5,9.7,1.3,13.8c-0.2,0.3-0.6,0.4-1,0.3l-13.7-3.6
					c-0.4-0.1-0.7-0.5-0.8-0.9c-0.7-5.2,2.7-10.2,7.9-11.3l0,0l0,0c0.2-0.1,0.4-0.1,0.7-0.1C19.7,74.1,20.1,73.9,20.5,73.2z"/>
			</g>
			<g>
				<path class="st18" d="M9.9,67.9c0,0,0.7,3.6,1.3,6.3c0.2,1,0.5,1.9,1.3,3.1c0.5,0.8,1.6,1,2.5,0.6l2.5-1.5
					c0.6-0.4,0.8-1.2,0.3-1.7c-1.9-2.1-7.4-6.1-7.5-7C10.2,67.5,9.9,67.9,9.9,67.9z"/>
			</g>
			<g>
				<path class="st19" d="M26.8,83.4c0,1.1-0.5,3.1-1,4.2c-0.6,1.2-1.2,1.5-2.1,1.2l-10.3-2.9c-1.6-0.7-1.9-1.4-1.6-2.8
					c0.2-1.1,0.6-2.1,0.9-3.1c0-0.1,0.1-0.1,0.1-0.1c0.7,0.4,4.9,2.6,8.8,1c4.1-1.6,4.7-1.2,4.8-1.1c0,0,0,0.1,0.1,0.1
					C26.4,80,26.9,81.4,26.8,83.4z"/>
			</g>
		</g>
		<g>
			<path class="st20" d="M28,64.6l-1.5-0.4c-0.3-0.1-0.4-0.4-0.4-0.7l0.1-1.9c0.1-0.3,0.4-0.5,0.7-0.5l2.3,0.6
				c0.3,0.1,0.4,0.4,0.4,0.7l-0.9,1.7C28.6,64.5,28.3,64.7,28,64.6z"/>
		</g>
		<g>
			<path class="st18" d="M29.8,64l-4.5-1.2c-0.1,0-0.2-0.2-0.2-0.3l0-0.1c0-0.1,0.2-0.2,0.3-0.2l4.5,1.2c0.1,0,0.2,0.2,0.2,0.3
				l0,0.1C30.1,64,29.9,64.1,29.8,64z"/>
		</g>
		<g>
			<path class="st21" d="M26.1,62.4l0,1.2c-0.1,0.3,0.1,0.7,0.4,0.8l1.5,0.4c0.3,0.1,0.6-0.2,0.7-0.5l0.6-1.1L26.1,62.4z"/>
		</g>
	</g>
	<g>
		<path class="st0" d="M23.7,68.1c0.9-0.2,2,0.1,2,0.1l0.3,0.1c-0.3-0.5-1-1.3-2-2c-0.1-0.1-0.2-0.1-0.4-0.2l-1.6,3.4
			C21.9,69.4,22.7,68.3,23.7,68.1z"/>
	</g>
	<g>
		<defs>
			<polygon id="SVGID_1_" points="75.8,106.9 54.3,106.9 54.3,79.7 75.3,79.7 			"/>
		</defs>
		<clipPath id="SVGID_2_">
			<use xlink:href="#SVGID_1_"  style="overflow:visible;"/>
		</clipPath>
		<g class="st22">
			<g>
				<path class="st14" d="M53,85.8c0,0,6.5,3.3,22.8-3.5c-0.3,0.1,0.6,1.3,0.3,9c0.1,0-6.4,0.7-9.7,2.1c-3.3,1.4-8.5,4.1-13.5,2.3
					V85.8z"/>
			</g>
			<g>
				<g>
					<path class="st14" d="M67.6,93.4l-1.6,10c0,0,5.9,1.2,9.4-2.8c0,0,0.5-6.9,0.2-9C75.6,91.5,67.6,93.4,67.6,93.4z"/>
				</g>
				<g>
					<path class="st23" d="M68,103.7c-1.2,0-2-0.2-2-0.2l-0.1,0l0-0.1l1.6-10.1l0.1,0c8-1.9,8.1-1.9,8.1-1.8l0.1,0l0,0.1
						c0.3,2.2-0.2,8.8-0.2,9.1l0,0l0,0C73.3,103.2,70.1,103.7,68,103.7z M66.2,103.3c0.9,0.1,6,0.8,9.1-2.8c0-0.6,0.5-6.6,0.3-8.8
						c-0.8,0.2-4.9,1.1-7.8,1.8L66.2,103.3z"/>
				</g>
			</g>
			<g>
				<g>
					<path class="st23" d="M66.3,103.5c0,0-0.1,0.1-0.1,0.2c0,0-0.1,0.1-0.1,0.2c-0.1,0.2-0.2,0.5-0.2,0.8c0,0.3,0,0.6,0.1,0.8
						c0,0,0,0,0,0c0,0,0.1,0,0.1,0c0.1,0,0.1,0,0.2,0.1c0,0,0,0,0-0.1c0.1-0.2,0.2-0.5,0.2-0.8c0-0.3,0-0.6-0.1-0.8
						c0-0.1,0-0.1-0.1-0.2C66.4,103.6,66.3,103.5,66.3,103.5z"/>
				</g>
				<g>
					<path class="st23" d="M66.1,105.5c-0.1,0-0.2,0.2-0.2,0.3c0,0.2,0.1,0.4,0.3,0.4c0.2,0,0.4-0.1,0.4-0.3c0-0.1-0.1-0.2-0.2-0.3
						c-0.1,0-0.1-0.1-0.2-0.1C66.2,105.5,66.1,105.5,66.1,105.5z"/>
				</g>
				<g>
					<path class="st23" d="M67.4,103.7c0,0,0,0.1-0.1,0.1c0,0.1-0.1,0.1-0.1,0.2c-0.1,0.2-0.2,0.5-0.2,0.8c0,0.3,0,0.6,0.1,0.8
						c0,0,0,0,0,0c0,0,0.1,0,0.1,0c0.1,0,0.1,0,0.2,0.1c0,0,0,0,0-0.1c0.1-0.2,0.2-0.5,0.2-0.8c0-0.3,0-0.6-0.1-0.8
						c0-0.1-0.1-0.2-0.1-0.2C67.4,103.7,67.4,103.7,67.4,103.7z"/>
				</g>
				<g>
					<path class="st23" d="M67.1,105.7c-0.1,0-0.2,0.2-0.2,0.3c0,0.2,0.1,0.4,0.3,0.4c0.2,0,0.4-0.1,0.4-0.3c0-0.1-0.1-0.2-0.2-0.3
						c-0.1,0-0.1-0.1-0.2-0.1C67.2,105.6,67.2,105.6,67.1,105.7z"/>
				</g>
				<g>
					<path class="st23" d="M68.4,103.8c0,0.1-0.1,0.1-0.1,0.2c-0.1,0.2-0.2,0.5-0.2,0.8c0,0.3,0,0.6,0.1,0.8c0,0,0,0,0,0
						c0,0,0.1,0,0.1,0c0.1,0,0.1,0,0.2,0.1c0,0,0,0,0-0.1c0.1-0.2,0.2-0.5,0.2-0.8c0-0.3,0-0.6-0.1-0.8c0-0.1-0.1-0.2-0.1-0.3
						c0-0.1-0.1-0.1-0.1-0.1S68.5,103.7,68.4,103.8z"/>
				</g>
				<g>
					<path class="st23" d="M68.3,105.7c-0.1,0-0.2,0.2-0.2,0.3c0,0.2,0.1,0.4,0.3,0.4c0.2,0,0.4-0.1,0.4-0.3c0-0.1-0.1-0.2-0.2-0.3
						c-0.1,0-0.1-0.1-0.2-0.1C68.4,105.7,68.3,105.7,68.3,105.7z"/>
				</g>
				<g>
					<path class="st23" d="M69.6,103.8c0,0.1-0.1,0.1-0.1,0.2c-0.1,0.2-0.2,0.5-0.2,0.8c0,0.3,0,0.6,0.1,0.8c0,0,0,0,0,0
						c0,0,0.1,0,0.1,0c0.1,0,0.1,0,0.2,0.1c0,0,0,0,0-0.1c0.1-0.2,0.2-0.5,0.2-0.8c0-0.3,0-0.6-0.1-0.8c0-0.1-0.1-0.2-0.1-0.3
						c0-0.1-0.1-0.1-0.1-0.1S69.6,103.7,69.6,103.8z"/>
				</g>
				<g>
					<path class="st23" d="M69.4,105.7c-0.1,0-0.2,0.2-0.2,0.3c0,0.2,0.1,0.4,0.3,0.4c0.2,0,0.4-0.1,0.4-0.3c0-0.1-0.1-0.2-0.2-0.3
						c-0.1,0-0.1-0.1-0.2-0.1C69.5,105.6,69.5,105.6,69.4,105.7z"/>
				</g>
				<g>
					<path class="st23" d="M70.7,103.3c0,0-0.1,0.1-0.2,0.3c0,0,0,0,0,0c-0.1,0.2-0.2,0.5-0.2,0.8c0,0.3,0,0.6,0.1,0.8c0,0,0,0,0,0
						c0,0,0.1,0,0.1,0c0.1,0,0.1,0,0.2,0.1c0,0,0,0,0-0.1c0.1-0.2,0.2-0.5,0.2-0.8c0-0.3,0-0.6-0.1-0.8c0,0,0-0.1,0-0.1
						C70.8,103.4,70.7,103.3,70.7,103.3z"/>
				</g>
				<g>
					<path class="st23" d="M70.5,105.3c-0.1,0-0.2,0.2-0.2,0.3c0,0.2,0.1,0.4,0.3,0.4c0.2,0,0.4-0.1,0.4-0.3c0-0.1-0.1-0.2-0.2-0.3
						c-0.1,0-0.1-0.1-0.2-0.1C70.5,105.3,70.5,105.3,70.5,105.3z"/>
				</g>
				<g>
					<path class="st23" d="M71.8,103C71.8,102.9,71.7,102.9,71.8,103C71.7,102.9,71.7,103,71.8,103c-0.1,0.1-0.2,0.2-0.2,0.3
						c0,0,0,0.1,0,0.1c-0.1,0.2-0.1,0.4-0.1,0.7c0,0.3,0,0.6,0.1,0.8c0,0,0,0,0,0c0,0,0.1,0,0.1,0c0.1,0,0.1,0,0.2,0.1
						c0,0,0,0,0-0.1c0.1-0.2,0.2-0.5,0.2-0.8c0-0.3,0-0.6-0.1-0.8c0,0,0,0,0,0C71.9,103.1,71.8,103,71.8,103z"/>
				</g>
				<g>
					<path class="st23" d="M71.5,104.9c-0.1,0-0.2,0.2-0.2,0.3c0,0.2,0.1,0.4,0.3,0.4c0.2,0,0.4-0.1,0.4-0.3c0-0.1-0.1-0.2-0.2-0.3
						c-0.1,0-0.1-0.1-0.2-0.1C71.6,104.9,71.5,104.9,71.5,104.9z"/>
				</g>
				<g>
					<path class="st23" d="M72.8,102.5c0,0-0.1,0.1-0.2,0.4c0,0,0,0.1,0,0.1c-0.1,0.2-0.1,0.4-0.1,0.7c0,0.3,0,0.6,0.1,0.8
						c0,0,0,0,0,0c0,0,0.1,0,0.1,0c0.1,0,0.1,0,0.2,0.1c0,0,0,0,0-0.1c0.1-0.2,0.2-0.5,0.2-0.8c0-0.3,0-0.6-0.1-0.8c0,0,0-0.1,0-0.1
						C72.9,102.6,72.8,102.5,72.8,102.5z"/>
				</g>
				<g>
					<path class="st23" d="M72.6,104.5c-0.1,0-0.2,0.2-0.2,0.3c0,0.2,0.1,0.4,0.3,0.4c0.2,0,0.4-0.1,0.4-0.3c0-0.1-0.1-0.2-0.2-0.3
						c-0.1,0-0.1-0.1-0.2-0.1C72.6,104.5,72.6,104.5,72.6,104.5z"/>
				</g>
				<g>
					<path class="st23" d="M73.8,101.9C73.8,101.9,73.8,101.9,73.8,101.9C73.8,101.9,73.8,101.9,73.8,101.9
						c-0.1,0.1-0.2,0.2-0.2,0.3c0,0.1-0.1,0.1-0.1,0.2c-0.1,0.2-0.1,0.4-0.1,0.6c0,0.3,0,0.6,0.1,0.8c0,0,0,0,0,0c0,0,0.1,0,0.1,0
						c0.1,0,0.1,0,0.2,0.1c0,0,0,0,0-0.1c0.1-0.2,0.2-0.5,0.2-0.8c0-0.3,0-0.6-0.1-0.8c0,0,0,0,0-0.1
						C73.9,102,73.8,101.9,73.8,101.9z"/>
				</g>
				<g>
					<path class="st23" d="M73.5,103.9c-0.1,0-0.2,0.2-0.2,0.3c0,0.2,0.1,0.4,0.3,0.4s0.4-0.1,0.4-0.3c0-0.1-0.1-0.2-0.2-0.3
						c-0.1,0-0.1-0.1-0.2-0.1C73.6,103.8,73.6,103.9,73.5,103.9z"/>
				</g>
				<g>
					<path class="st23" d="M74.7,101.2C74.7,101.2,74.7,101.1,74.7,101.2C74.7,101.1,74.7,101.2,74.7,101.2
						c-0.1,0.2-0.2,0.2-0.2,0.3c0,0.1-0.1,0.2-0.1,0.4c0,0.1-0.1,0.3-0.1,0.4c0,0.3,0,0.6,0.1,0.8c0,0,0,0,0,0c0,0,0.1,0,0.1,0
						c0.1,0,0.1,0,0.2,0.1c0,0,0,0,0-0.1c0.1-0.2,0.2-0.5,0.2-0.8c0-0.3,0-0.6-0.1-0.8c0,0,0,0,0-0.1
						C74.8,101.3,74.8,101.2,74.7,101.2z"/>
				</g>
				<g>
					<path class="st23" d="M74.5,103.2c-0.1,0-0.2,0.2-0.2,0.3c0,0.2,0.1,0.4,0.3,0.4c0.2,0,0.4-0.1,0.4-0.3c0-0.1-0.1-0.2-0.2-0.3
						c-0.1,0-0.1-0.1-0.2-0.1C74.5,103.1,74.5,103.1,74.5,103.2z"/>
				</g>
			</g>
			<g>
				<g>
					<path class="st14" d="M67.6,85.2c0,0,0.4-0.4,0.4,0.4c0,0.8,0.4,6.1-0.7,8c0,0.2,8.7-1.1,8.3-2.1c0,0,1.1-8.7,0.1-9.2
						C74.7,81.9,67.6,85.2,67.6,85.2z"/>
				</g>
				<g>
					<path class="st23" d="M67.5,93.8c-0.1,0-0.2,0-0.2,0l-0.1,0l0-0.1l0,0c0.9-1.6,0.8-5.8,0.7-7.4c0-0.3,0-0.5,0-0.6
						c0-0.3,0-0.4-0.1-0.4c-0.1,0-0.1,0.1-0.2,0.1l-0.9,0.4l0.7-0.6c0,0,0.1-0.1,0.3-0.1c1.4-0.6,7-3.1,8-2.7c1.1,0.5,0.2,7.8,0,9.3
						c0,0.1,0,0.2-0.2,0.4C74.6,92.8,68.7,93.8,67.5,93.8z M68.1,85.1c0.1,0.1,0.1,0.3,0.1,0.5c0,0.1,0,0.3,0,0.6
						c0.1,1.7,0.2,5.5-0.7,7.3c1.1-0.1,7.1-1,7.9-1.8c0,0,0.1-0.1,0.1-0.1l0,0l0,0c0.5-3.6,0.8-8.8,0.2-9.1
						C75,82.2,70.9,83.8,68.1,85.1z"/>
				</g>
			</g>
			<g>
				<path class="st23" d="M70.7,93.3c0,0,0.1,0.3,0.2,0.6c0.1,0.4,0.1,0.9,0.1,1.4c0,0.5-0.1,1-0.2,1.4c-0.1,0.4-0.2,0.6-0.2,0.6
					s-0.1-0.3-0.2-0.6c-0.1-0.4-0.1-0.9-0.1-1.4c0-0.5,0.1-1,0.2-1.4C70.6,93.5,70.7,93.3,70.7,93.3z"/>
			</g>
			<g>
				<path class="st23" d="M72.8,92.9c0,0,0.1,0.2,0.3,0.6c0.2,0.4,0.3,0.9,0.4,1.4c0.1,0.5,0.2,1,0.2,1.4c0,0.4,0,0.7,0,0.7
					s-0.2-0.2-0.3-0.6c-0.2-0.4-0.3-0.9-0.4-1.4c-0.1-0.5-0.2-1-0.2-1.4C72.8,93.1,72.8,92.9,72.8,92.9z"/>
			</g>
			<g>
				<path class="st23" d="M59.6,90c0,0,0.1,0.1,0.3,0.2c0.1,0,0.3,0.1,0.4,0.2c0.2,0.1,0.4,0.1,0.6,0.1c0.2,0,0.4,0.1,0.7,0.1
					c0.2,0,0.5,0,0.7,0c0.3,0,0.5-0.1,0.8-0.1c0.1,0,0.3-0.1,0.4-0.1c0.1,0,0.3-0.1,0.4-0.1c0.3-0.1,0.5-0.2,0.8-0.3
					c0.3-0.1,0.5-0.2,0.8-0.3c0.5-0.2,0.9-0.4,1.3-0.6c0.2-0.1,0.4-0.1,0.6-0.2c0.2,0,0.3,0,0.5-0.1c0.1,0,0.2,0,0.3,0
					c0.1,0,0.1,0,0.1,0s-0.1,0-0.4,0c-0.1,0-0.3,0.1-0.4,0.1c-0.2,0.1-0.3,0.1-0.5,0.2c-0.4,0.2-0.8,0.4-1.3,0.6
					c-0.2,0.1-0.5,0.2-0.7,0.3c-0.3,0.1-0.5,0.2-0.8,0.3c-0.1,0.1-0.3,0.1-0.4,0.1c-0.1,0-0.3,0.1-0.4,0.1c-0.3,0.1-0.6,0.1-0.8,0.1
					c-0.3,0-0.5,0-0.8,0c-0.2,0-0.5-0.1-0.7-0.1c-0.2-0.1-0.4-0.1-0.6-0.2c-0.2-0.1-0.3-0.1-0.4-0.2C59.7,90.1,59.6,90,59.6,90z"/>
			</g>
			<g>
				<path class="st23" d="M59.6,92c0,0,0.1,0.1,0.4,0.1c0.1,0,0.3,0.1,0.4,0.1c0.2,0,0.4,0.1,0.6,0.1c0.2,0,0.4,0,0.7,0
					c0.2,0,0.5,0,0.7-0.1c0.3,0,0.5-0.1,0.8-0.2c0.1,0,0.3-0.1,0.4-0.1c0.1-0.1,0.3-0.1,0.4-0.2c0.2-0.1,0.5-0.3,0.7-0.4
					c0.2-0.1,0.5-0.3,0.7-0.4c0.5-0.3,0.9-0.5,1.3-0.7c0.2-0.1,0.4-0.2,0.5-0.2c0.2-0.1,0.3-0.1,0.4-0.1c0.1,0,0.2,0,0.3,0
					c0.1,0,0.1,0,0.1,0s-0.1,0-0.4,0.1c-0.1,0-0.3,0.1-0.4,0.2c-0.2,0.1-0.3,0.2-0.5,0.3c-0.4,0.2-0.8,0.5-1.2,0.8
					c-0.2,0.1-0.5,0.3-0.7,0.4c-0.2,0.1-0.5,0.3-0.7,0.4c-0.1,0.1-0.3,0.1-0.4,0.2c-0.1,0.1-0.3,0.1-0.4,0.1
					c-0.3,0.1-0.5,0.1-0.8,0.2c-0.3,0-0.5,0.1-0.8,0c-0.2,0-0.5,0-0.7-0.1c-0.2,0-0.4-0.1-0.6-0.1c-0.2-0.1-0.3-0.1-0.4-0.2
					C59.8,92.1,59.6,92,59.6,92z"/>
			</g>
		</g>
	</g>
</g>
</svg>
