<?xml version="1.0" encoding="utf-8"?>
<!-- Generator: Adobe Illustrator 16.0.0, SVG Export Plug-In . SVG Version: 6.00 Build 0)  -->
<!DOCTYPE svg PUBLIC "-//W3C//DTD SVG 1.1//EN" "http://www.w3.org/Graphics/SVG/1.1/DTD/svg11.dtd">
<svg version="1.1" id="Layer_1" xmlns="http://www.w3.org/2000/svg" xmlns:xlink="http://www.w3.org/1999/xlink" x="0px" y="0px"
	 width="125px" height="125px" viewBox="0 0 125 125" enable-background="new 0 0 125 125" xml:space="preserve">
<circle fill="#2B2C35" cx="97" cy="55" r="11.7"/>
<path fill="#2C2C2D" d="M67.9,115.3L67.9,115.3c5.8-3.3,9.7-9.7,9.7-17.2c0-10.8-8.4-19.5-18.7-19.5c-10.3,0-18.7,8.7-18.7,19.5
	c0,7.4,3.9,13.9,9.8,17.2l0,0c2.8,1.8,4.9,4.8,5.5,8.3c0.1-0.1,0.7-0.4,1.5,0v-6c0.7,0.1,1.3,0.1,2,0.1c0.7,0,1.3,0,2-0.1v6
	c0.8-0.4,1.4-0.1,1.5,0C63,120.1,65.1,117.1,67.9,115.3z"/>
<path fill="none" stroke="#CDCCCC" stroke-width="0.4791" stroke-miterlimit="10" d="M55.9,122.5"/>
<path fill="#E7E7E7" d="M69,41.8c0.1-3.1-0.1-6.4-1.2-8.7c-0.6-1.8-2.5-2.9-4.3-3.6c0.8,0,1.6,0,1.6,0c-2-1.5-3.8-1.4-5.1-0.9
	c-0.4-0.1-0.7-0.1-0.9-0.1c0.9-0.6,2-1,2-1c-3.1-0.8-5.8,1-7,2c-1.9,0.7-3.7,1.8-4.2,3.5c-1.1,2.3-1.3,5.6-1.2,8.7
	c-0.1,2.9,0,5.1,0.6,7.3c1.6,4.1,0.8,7.1,0,10.3l9.8,18.8v0.1l9.8-18.8c-0.7-2.9-2.2-6.5-0.4-10.4C69,46.9,69.1,44.3,69,41.8z"/>
<path fill="#FFFFFF" d="M54.3,39.8c0,1-0.9,1.8-2.1,1.8C51,41.7,50,41,49.9,40c0-1,0.9-1.8,2.1-1.8C53.2,38.1,54.2,38.9,54.3,39.8z"
	/>
<path fill="#2B2C35" d="M53.1,39.7c0.1,0.6-0.3,1.1-0.9,1.2c-0.5,0.1-1.1-0.3-1.1-0.9c-0.1-0.6,0.3-1.1,0.9-1.2
	C52.5,38.7,53,39.1,53.1,39.7z"/>
<path fill="#FFFFFF" d="M67.5,39.8c0,1-0.9,1.8-2.1,1.8c-1.2,0-2.2-0.7-2.2-1.7c0-1,0.9-1.8,2.1-1.8C66.4,38.1,67.4,38.9,67.5,39.8z
	"/>
<path fill="#2B2C35" d="M66.3,39.7c0.1,0.6-0.3,1.1-0.9,1.2c-0.5,0.1-1-0.3-1.1-0.9c-0.1-0.6,0.3-1.1,0.9-1.2
	C65.7,38.7,66.2,39.1,66.3,39.7z"/>
<path fill="#2B2C35" d="M73.1,37.2c0,0,0-0.4-0.6-0.5c-0.6-0.1-1.1-0.6-7.1-0.4c-4.2,0.4-5.4,0.9-5.4,0.9s-0.2,0.1-0.5,0.1
	c-0.2,0-0.3,0.1-0.5,0.1c-0.2,0-0.4,0-0.6-0.1c-0.3,0-0.5-0.1-0.5-0.1s-1.2-0.5-5.4-0.9c-5.9-0.2-6.4,0.3-7,0.4
	c-0.6,0.1-0.6,0.5-0.6,0.5l0,0.4C44.7,39,45,39,45,39c0,0.1,0.2,0.3,0.2,0.3c0.3,0.1,0.7,1.6,0.7,1.6c0.6,1.8,1.4,2,1.4,2
	c2.3,0.9,6.2,0.4,6.2,0.4s2.2-0.1,2.8-1c0.5-0.7,1.3-2.9,1.3-2.9s0.1-0.3,0.4-0.5c0.4-0.2,0.8-0.2,0.8-0.2s0.5,0,0.8,0.2
	c0.3,0.2,0.5,0.6,0.5,0.6s0.7,2.1,1.2,2.8c0.7,1,2.8,1,2.8,1s3.8,0.5,6.2-0.4c0,0,0.9-0.2,1.4-2c0,0,0.4-1.5,0.7-1.6
	c0,0,0.1-0.2,0.2-0.3c0,0,0.3,0,0.3-1.3L73.1,37.2z M56.9,39.7c-0.6,2.3-1.4,2.5-1.4,2.5c-3.3,1.1-6.8,0.4-6.8,0.4
	c-1.5-0.1-1.8-1.3-1.8-1.3c-0.5-1.2-0.7-3.4-0.7-3.4c0-1,2.2-1,2.2-1c5.4-0.3,7.9,0.6,7.9,0.6C57.4,38,56.9,39.7,56.9,39.7z
	 M71,41.4c0,0-0.3,1.1-1.8,1.3c0,0-3.5,0.8-6.8-0.4c0,0-0.9-0.2-1.4-2.5c0,0-0.6-1.7,0.6-2.2c0,0,2.6-0.9,7.9-0.6c0,0,2.2,0,2.2,1
	C71.7,38,71.6,40.1,71,41.4z"/>
<path fill="#444750" d="M58.7,42.3c-1.1,2-3.3,2.5-3.3,2.5c1.7,1.2,3.5,4.8,3.5,4.8s1.7-3.6,3.4-4.8C62.4,44.8,59.8,44.2,58.7,42.3z
	"/>
<polygon fill="#203C74" points="48.3,114.1 51.6,119.3 58,119.3 59.3,117.6 61.4,119.3 65.8,119.7 70,113.6 47.1,112.4 "/>
<g>
	<path fill="#E7E7E7" d="M104.9,84.3c2.2-3.9,2.3-6.8,2.3-6.8s-4.8,6.1-7.1,5.8c0,0,6.9-4.6,7.5-9.4c0,0-4,4.7-6.3,4.8
		c0,0,6.1-3.4,6.3-10.1c0,0-3.8,6.1-6.1,5.7c0,0,5-3.9,5.7-8.5c0,0-22.9,19-39.5-7.5l-2,19.3l6.9,16.9c0,0,13.7,10.2,27-3.5
		c0,0,0,0,0,0c2.3-2.3,3.9-4.5,5-6.4C104.8,84.4,104.9,84.3,104.9,84.3C105,84.2,105,84.2,104.9,84.3z"/>
	<path fill="#234893" d="M88.4,97.7c-8.8,2-15.7-3.2-15.7-3.2L58.5,68.8l10.3-10.5C76,69.9,85.2,72.6,92,72.2c0,0-2.4,3.4-4.4,11.9
		C85.6,92.6,88.4,97.7,88.4,97.7z"/>
</g>
<g>
	<path fill="#E7E7E7" d="M34.6,102.7c2,4,4.2,5.6,4.2,5.6s-2.4-7.6-1-9.6c0,0,0.1,8.8,3.6,11.9c0,0-1.6-6.2-0.6-8.4
		c0,0-0.4,7.5,4.7,11c0,0-2.9-6.6-1.4-8.6c0,0,0.6,6.6,3.9,9.7c0,0-4.2-29,25.1-31.2L59.7,69.3l-16.8-2.1c0,0-15,7.7-10.9,27.1
		c0,0,0,0,0,0c0.6,3.3,1.6,5.9,2.5,8C34.5,102.5,34.6,102.6,34.6,102.7C34.6,102.7,34.6,102.7,34.6,102.7z"/>
	<path fill="#234893" d="M32.3,80.3c3.5-15.8,20.5-21.7,20.5-21.7l9.9,7.3l10.4,17.2c-12.8,0.9-19.3,7-22.4,13.6c0,0-1.5-4-7.2-10.1
		C37.8,80.3,32.3,80.3,32.3,80.3z"/>
</g>
<path fill="#8F1A1E" d="M59,63.8c-7,0-9.2-5.2-9.2-5.2C40.7,67.3,37.1,82,37.5,90.8c0.5,10,4.7,18,10.3,23.3
	c8.3,4.6,18.8,1.5,21.5,0.8c6.1-6.4,10.9-14,10.9-24.1c0-6.5-5.7-24.4-12.2-31.5C68,59.3,65.1,63.8,59,63.8z"/>
<g>
	<g>
		<g>
			<defs>
				<path id="SVGID_1_" d="M59,63.8c-7,0-9.2-5.2-9.2-5.2C40.7,67.3,37.1,82,37.5,90.8c0.5,10,4.7,18,10.3,23.3
					c8.3,4.6,18.8,1.5,21.5,0.8c6.1-6.4,10.9-14,10.9-24.1c0-6.5-5.7-24.4-12.2-31.5C68,59.3,65.1,63.8,59,63.8z"/>
			</defs>
			<clipPath id="SVGID_2_">
				<use xlink:href="#SVGID_1_"  overflow="visible"/>
			</clipPath>
			<g clip-path="url(#SVGID_2_)">
				<rect x="43.6" y="47" fill="#234893" width="6.5" height="81.3"/>
				<rect x="55.4" y="47" fill="#234893" width="6.5" height="81.3"/>
				<rect x="67.2" y="47" fill="#234893" width="6.5" height="81.3"/>
			</g>
		</g>
	</g>
</g>
<path fill="#EDCB20" d="M59,64.9c-0.1,0-8.6-3.8-9.8-5.6c-0.2-0.2-0.4-1.1-0.3-1.9c0.2-1.8,1.1-2,1.2-1.8c1.4,3,8.6,6.2,8.9,6.2
	c0.2,0,7.6-3.3,8.9-5.8c0.4-0.7,1.5,2.3,1.1,3C67.6,61.2,59,64.9,59,64.9z"/>
<g>
	<path d="M73,73.6c-0.4,0.3-0.8,0.4-1.2,0.4c-0.4,0-0.8-0.1-1.2-0.4l-0.1-0.1l-0.1,0.1C69.9,73.9,69.5,74,69,74
		c-0.2,0-0.4,0-0.6-0.1l-0.1,0l-0.1,0.1c0,0.1-0.1,0.1-0.1,0.2c0,0.1-0.1,0.1-0.1,0.2l-0.1,0.1l0.1,0.1c0.3,0.5,0.5,1,0.5,1.5
		c0,0.9-0.5,1.7-0.8,2.1l-0.1,0.1l0.1,0.1c0.1,0.1,0.2,0.2,0.3,0.3c0,0,0,0.1,0,0.1l0,0c0,0.1,0,0.2,0,0.3c0,0.9,0.2,1.7,0.7,2.3
		c0.6,0.7,1.5,1.1,2.5,1.2c0.3,0.3,0.5,0.5,0.5,0.5l0.1,0.1l0.1-0.1c0,0,0.3-0.2,0.5-0.5c1.1-0.1,1.9-0.5,2.5-1.2
		c0.5-0.6,0.7-1.4,0.7-2.3c0-0.1,0-0.2,0-0.3v0v0c0,0,0-0.1,0-0.1c0.1-0.1,0.2-0.3,0.3-0.3l0.1-0.1L76,78.1
		c-0.4-0.4-0.8-1.2-0.8-2.1c0-0.5,0.1-1,0.5-1.5l0.1-0.1l-0.1-0.1c0-0.1-0.1-0.1-0.1-0.2c0,0-0.1-0.1-0.1-0.2l-0.1-0.1l-0.1,0.1
		C75,73.9,74.8,74,74.6,74c-0.6,0-0.9-0.1-1.4-0.4l-0.1-0.1L73,73.6L73,73.6z"/>
	<path fill="#DEB408" d="M71.8,82.8c0,0-0.3-0.2-0.6-0.5c-1.8-0.1-3.3-1.2-3.1-3.5c0-0.1,0-0.1,0-0.2c-0.1-0.1-0.3-0.3-0.4-0.4
		c0.6-0.7,1.4-2.4,0.4-3.9c0.1-0.1,0.1-0.2,0.2-0.3c0.2,0.1,0.4,0.1,0.7,0.1c0.6,0,1-0.1,1.5-0.4c0.4,0.3,0.8,0.5,1.3,0.5
		c0.5,0,0.9-0.2,1.3-0.5c0.5,0.4,0.9,0.4,1.5,0.4c0.2,0,0.5,0,0.7-0.1c0.1,0.2,0.1,0.2,0.2,0.3c-1,1.5-0.3,3.1,0.3,3.9
		c-0.1,0.1-0.3,0.3-0.4,0.4c0,0.1,0,0.1,0,0.2c0.1,2.3-1.4,3.4-3.1,3.5C72.1,82.5,71.8,82.8,71.8,82.8L71.8,82.8z"/>
	<path d="M68.4,78.6L68.4,78.6l0,0.1l0,0.1c0,0.9,0.2,1.6,0.6,2.1c0.5,0.6,1.3,1,2.4,1h0c0.3,0,0.6,0,0.9,0c1,0,1.9-0.4,2.4-1
		c0.4-0.5,0.6-1.2,0.6-2.1c0,0,0-0.1,0-0.1l0-0.1h0L68.4,78.6L68.4,78.6z"/>
	<path fill="#00539F" d="M68.4,78.7C68.4,78.7,68.4,78.8,68.4,78.7l0,0.1c0,0.1,0,0.1,0,0.2c0,0.8,0.2,1.4,0.6,1.9
		c0.1,0.1,0.2,0.2,0.3,0.3v-2.5C68.8,78.7,68.4,78.7,68.4,78.7L68.4,78.7z"/>
	<path fill="#00539F" d="M75.1,78.8L75.1,78.8c0-0.1,0-0.1,0-0.1c0,0-0.4,0-0.9,0v2.5c0.1-0.1,0.2-0.2,0.3-0.3
		c0.4-0.5,0.6-1.1,0.6-1.9C75.1,79,75.1,78.9,75.1,78.8L75.1,78.8z"/>
	<path fill="#A2224C" d="M70.3,78.7c-0.4,0-0.7,0-1,0v2.5c0.3,0.2,0.6,0.4,1,0.5V78.7L70.3,78.7z"/>
	<path fill="#A2224C" d="M73.3,78.7v3c0.4-0.1,0.7-0.3,1-0.5v-2.5C74,78.7,73.6,78.7,73.3,78.7L73.3,78.7z"/>
	<path fill="#00539F" d="M70.8,80.2c0-0.4,0.2-0.7,0.4-0.9v-0.7c-0.3,0-0.7,0-1,0v3c0.3,0.1,0.6,0.1,1,0.2v-0.8
		C71,80.9,70.8,80.6,70.8,80.2L70.8,80.2z"/>
	<path fill="#00539F" d="M72.3,78.7v0.7c0.3,0.2,0.5,0.5,0.5,0.9s-0.2,0.7-0.5,0.9v0.8c0.4,0,0.7-0.1,1-0.2v-3
		C72.9,78.7,72.6,78.7,72.3,78.7L72.3,78.7z"/>
	<path fill="#A2224C" d="M72.3,79.4v-0.7c-0.3,0-0.7,0-1,0v0.7c0.1-0.1,0.3-0.1,0.5-0.1C72,79.2,72.1,79.3,72.3,79.4L72.3,79.4z"/>
	<path fill="#A2224C" d="M71.3,81.1v0.8c0,0,0,0,0.1,0h0c0.3,0,0.6,0,0.9,0c0,0,0,0,0.1,0v-0.8c-0.1,0.1-0.3,0.2-0.5,0.2
		C71.6,81.3,71.4,81.2,71.3,81.1L71.3,81.1z"/>
	<path fill="#DEB408" d="M71.3,80.4c-0.2-0.2-0.2-0.5-0.1-0.7c0-0.1,0-0.1,0-0.2c-0.2,0.2-0.3,0.4-0.3,0.8c0,0.1,0,0.3,0.1,0.4
		c0,0,0,0,0,0C71.1,80.6,71.2,80.5,71.3,80.4L71.3,80.4z"/>
	<path fill="#DEB408" d="M72.2,80.5c0,0.2-0.2,0.3-0.3,0.4c-0.2,0.1-0.4,0.2-0.6,0.2c0.1,0.1,0.3,0.2,0.5,0.2c0.3,0,0.6-0.2,0.8-0.5
		C72.5,80.5,72.3,80.4,72.2,80.5L72.2,80.5z"/>
	<path fill="#DEB408" d="M71.2,81c0.2,0,0.5,0,0.6-0.2c0.2-0.1,0.4-0.3,0.3-0.5c0-0.1-0.2-0.2-0.3-0.1c0,0.1-0.2,0.3-0.3,0.3
		c-0.1,0-0.1,0-0.2-0.1c-0.1,0.1-0.2,0.2-0.3,0.2c0,0,0,0,0,0C71,80.8,71.1,80.9,71.2,81L71.2,81z"/>
	<path fill="#DEB408" d="M71.8,79.6c0.1-0.1,0.4,0,0.5,0.1c0.1,0.1,0.3,0.3,0.4,0.4c0-0.5-0.4-0.9-0.9-0.9
		C71.6,79.4,71.7,79.6,71.8,79.6L71.8,79.6z"/>
	<path fill="#DEB408" d="M71.8,80.3c-0.2-0.1-0.2-0.4-0.1-0.5c0,0,0-0.1,0.1-0.1c-0.1-0.1-0.1-0.3,0-0.4c-0.2,0-0.3,0.1-0.4,0.2
		c0,0.2-0.1,0.3-0.1,0.5c0,0.3,0.1,0.5,0.3,0.5C71.6,80.5,71.7,80.4,71.8,80.3L71.8,80.3z"/>
	<path fill="#DEB408" d="M72.7,80.3c0-0.2-0.2-0.4-0.4-0.5c-0.2-0.1-0.5-0.2-0.6,0c-0.1,0.1-0.1,0.3,0.1,0.4c0.2-0.2,0.4,0,0.4,0.1
		c0,0,0,0.1,0,0.1c0.1,0,0.3,0,0.4,0.2C72.6,80.5,72.7,80.4,72.7,80.3L72.7,80.3z"/>
	<path d="M71,77.5h-0.6v0.9h0.2c0,0,0-0.4,0-0.4c0,0,0.3,0,0.3,0v-0.2c0,0-0.2,0-0.3,0c0,0,0-0.1,0-0.2c0,0,0.4,0,0.4,0L71,77.5
		L71,77.5L71,77.5z"/>
	<path d="M71.3,78c0,0.3,0.2,0.5,0.4,0.5c0.2,0,0.3-0.1,0.3-0.2l0,0l-0.2-0.1l0,0c0,0.1-0.1,0.1-0.2,0.1c-0.1,0-0.2-0.1-0.2-0.3
		c0-0.2,0.1-0.3,0.2-0.3c0.1,0,0.1,0,0.2,0.1l0,0l0.2-0.1l0,0c-0.1-0.1-0.2-0.2-0.3-0.2C71.5,77.5,71.3,77.7,71.3,78L71.3,78z"/>
	<path d="M73.1,78c0.1,0,0.1-0.1,0.1-0.2c0-0.2-0.1-0.3-0.3-0.3h-0.4h0v0.9h0.4c0.2,0,0.3-0.1,0.3-0.3C73.2,78.1,73.2,78,73.1,78
		L73.1,78z M72.7,77.7c0,0,0.2,0,0.2,0c0.1,0,0.1,0,0.1,0.1c0,0.1,0,0.1-0.1,0.1c0,0-0.2,0-0.2,0C72.7,77.9,72.7,77.7,72.7,77.7
		L72.7,77.7z M72.9,78.3c0,0-0.2,0-0.2,0c0,0,0-0.2,0-0.2c0,0,0.2,0,0.2,0c0.1,0,0.1,0,0.1,0.1C73,78.2,73,78.3,72.9,78.3L72.9,78.3
		z"/>
	<path d="M73.1,74.1c-0.4,0.3-0.9,0.4-1.3,0.4c-0.5,0-0.9-0.1-1.3-0.4l0,0l0,0c-0.5,0.3-0.9,0.4-1.5,0.4c-0.1,0-0.3,0-0.4,0l-0.1,0
		l0,0.1c0.6,1.1,0.4,2.1,0.1,2.8l0,0H75l0,0c-0.3-0.7-0.5-1.7,0.1-2.8l0-0.1l-0.1,0c-0.1,0-0.3,0-0.4,0C74,74.5,73.6,74.4,73.1,74.1
		L73.1,74.1L73.1,74.1L73.1,74.1z"/>
	<path fill="#FFFFFF" d="M69.8,74.5c-0.3,0.1-0.5,0.1-0.9,0.1c-0.1,0-0.2,0-0.4,0c0.1,0.3,0.2,0.6,0.3,0.9c0.3,0,0.9,0,0.9,0
		C69.8,75.3,69.8,74.9,69.8,74.5L69.8,74.5z"/>
	<path fill="#FFFFFF" d="M71.8,75.4v-0.8c-0.3,0-0.7-0.1-1-0.2c0,0.4,0,1,0,1C70.8,75.4,71.3,75.4,71.8,75.4L71.8,75.4z"/>
	<path fill="#FFFFFF" d="M68.9,76.4c0,0.3-0.1,0.6-0.2,0.9c0,0,0.5,0,1.1,0c0-0.4,0-0.9,0-0.9C69.8,76.4,69.3,76.4,68.9,76.4
		L68.9,76.4z"/>
	<path fill="#FFFFFF" d="M70.8,77.3c0.3,0,0.6,0,1,0v-0.9c-0.5,0-1,0-1,0C70.8,76.4,70.8,76.9,70.8,77.3L70.8,77.3z"/>
	<path fill="#E03A3E" d="M70.8,75.4c0,0,0-0.6,0-1c-0.1-0.1-0.2-0.1-0.3-0.2c-0.2,0.1-0.4,0.2-0.6,0.3c0,0.4,0,0.9,0,0.9
		c0,0-0.6,0-0.9,0c0,0.2,0.1,0.4,0.1,0.6c0,0.2,0,0.3,0,0.4c0.4,0,0.9,0,0.9,0c0,0,0,0.5,0,0.9c0.3,0,0.6,0,1,0c0-0.4,0-0.9,0-0.9
		c0,0,0.5,0,1,0v-1C71.3,75.4,70.8,75.4,70.8,75.4L70.8,75.4z"/>
	<path fill="#FFDF1C" d="M73.1,74.2L73.1,74.2v3.1c0.1,0,0.2,0,0.3,0v-2.9C73.3,74.3,73.2,74.3,73.1,74.2L73.1,74.2z"/>
	<path fill="#FFDF1C" d="M72.4,74.5v2.8c0.1,0,0.2,0,0.3,0v-2.9C72.7,74.4,72.6,74.5,72.4,74.5L72.4,74.5z"/>
	<path fill="#FFDF1C" d="M71.8,74.6v2.7c0.1,0,0.2,0,0.3,0v-2.7C72,74.6,71.9,74.6,71.8,74.6L71.8,74.6z"/>
	<path fill="#FFDF1C" d="M73.8,74.5v2.8c0.1,0,0.2,0,0.3,0v-2.8C74,74.5,73.9,74.5,73.8,74.5L73.8,74.5z"/>
	<path fill="#FFDF1C" d="M74.6,76c0-0.5,0.1-1,0.4-1.5c-0.1,0-0.3,0-0.4,0c0,0-0.1,0-0.1,0v2.8c0.3,0,0.4,0,0.4,0
		C74.7,76.9,74.6,76.5,74.6,76L74.6,76z"/>
	<path fill="#E03A3E" d="M74.1,74.5v2.8c0.1,0,0.2,0,0.3,0v-2.8C74.3,74.5,74.2,74.5,74.1,74.5L74.1,74.5z"/>
	<path fill="#E03A3E" d="M72.1,74.6v2.7c0.1,0,0.2,0,0.3,0v-2.8C72.3,74.5,72.2,74.6,72.1,74.6L72.1,74.6z"/>
	<path fill="#E03A3E" d="M72.8,74.4v2.9c0.1,0,0.2,0,0.3,0v-3.1C73,74.3,72.9,74.3,72.8,74.4L72.8,74.4z"/>
	<path fill="#E03A3E" d="M73.5,74.4v2.9c0.1,0,0.2,0,0.3,0v-2.8C73.7,74.4,73.6,74.4,73.5,74.4L73.5,74.4z"/>
</g>
<g>
	<path fill="#2C2C2D" d="M60.3,124.5L60.3,124.5v-0.1v-1.6c0-0.2,0.2-0.4,0.3-0.4c0,0,0.5,0.4,1.3,0.4c0.8,0,1.2-0.4,1.5-0.4
		c0,0,0-0.2,0.2,0c1.3,1.2,4.2,1.5,4.2,1.5c0.2,0,0.3,0.3,0.1,0.4c0,0-0.1,0.1-0.1,0.1l0.1,0.1c0,0.2-0.2,0.4-0.3,0.4h-6.9
		C60.4,125,60.3,124.8,60.3,124.5L60.3,124.5z"/>
	<path fill="#2C2C2D" d="M57.4,124.6c0,0.2-0.2,0.4-0.3,0.4h-6.9c-0.2,0-0.3-0.2-0.3-0.4l0.1-0.1c0,0-0.1-0.1-0.1-0.1
		c-0.1-0.2,0-0.4,0.1-0.4c0,0,2.9-0.3,4.2-1.5c0.2-0.2,0.2,0,0.2,0c0.2,0,0.6,0.4,1.5,0.4c0.8,0,1.3-0.4,1.3-0.4
		c0.2,0,0.3,0.2,0.3,0.4v1.6l-0.1,0.1L57.4,124.6L57.4,124.6z"/>
</g>
<path fill="#2B2C35" d="M100.8,55.7L95.6,54l-0.3-5c0.6-0.3,2.6-1,4.8-1.5c0.4,0.5,2,2.1,3.2,4C103.1,52,102.2,53.8,100.8,55.7z"/>
<path fill="#FFFFFF" d="M87.3,51c1.5-1.8,3.3-3,3.8-3.3c1.4,0.4,3,1.1,3.6,1.3l0.3,5.1l-3.6,3.1c-2.3-0.8-3.6-1.4-4-1.6
	C86.9,53.6,87.2,51.4,87.3,51z"/>
<path fill="#2B2C35" d="M98.1,64.4c0.6-0.4,2.3-1.6,3.9-3.2c0.5,0.1,1.8,0.5,3.3,0.5c-0.1,0.6-0.4,1.7-1.1,2.5
	c-1.4,1.1-3,1.9-4.8,2.2C98.8,65.8,98.3,64.8,98.1,64.4z"/>
<path fill="#FFFFFF" d="M85.8,58.4c-0.3-1.1-0.5-2.2-0.5-3.4c0-1.6,0.3-3,0.9-4.4l0.4,0.4c-0.1,0.6-0.4,2.8,0,4.9
	C86.5,56.1,86.1,57.1,85.8,58.4z"/>
<path fill="#2B2C35" d="M100.8,44c0.2,0.1,0.4,0.1,0.6,0.2c-0.1,0-0.3,0-0.3,0C101,44.1,100.9,44,100.8,44z"/>
<path fill="#2B2C35" d="M90.7,47.1c-0.5,0.3-2.2,1.5-3.8,3.2l-0.5-0.4c1-2.1,2.6-3.9,4.6-5C90.8,45.9,90.7,46.7,90.7,47.1z"/>
<path fill="#FFFFFF" d="M95.4,54.7l5.2,1.7c0.6,1.9,0.9,3.8,0.9,4.3c-1.6,1.7-3.5,3-3.9,3.3c-2.1-0.3-4.1-1.2-4.6-1.4
	c-0.2-0.5-0.9-2.5-1.2-4.7L95.4,54.7z"/>
<path fill="#FFFFFF" d="M105.6,61c-1.5,0-2.9-0.4-3.4-0.5c-0.1-0.6-0.3-2.5-0.9-4.4c1.5-1.9,2.4-3.7,2.7-4.3
	c1.5,0.2,2.8,0.7,3.1,0.8c0.2,0.4,0.8,2.2,0.9,4.5C107.8,57.5,107,59.6,105.6,61z"/>
<path fill="#2B2C35" d="M87.2,56.3c0.6,0.3,1.9,0.8,3.9,1.6c0.3,2,0.9,3.9,1.2,4.6c-0.6,0.2-2,0.8-3.4,0.9c-1.1-1-2-2.3-2.6-3.7
	C86.5,58.1,86.9,56.9,87.2,56.3z"/>
<path fill="#FFFFFF" d="M100.5,44.6l-0.5,2.2c-2.4,0.5-4.4,1.3-5,1.6c-0.5-0.2-2.1-0.9-3.6-1.4c0-0.5,0.2-1.6,0.6-2.6
	c1.5-0.7,3.2-1.1,5-1.1c0.4,0,0.8,0,1.2,0.1C99.5,43.6,100.3,44.4,100.5,44.6z"/>
<path fill="#FFFFFF" d="M92.7,63.1c0.5,0.3,2.5,1.2,4.7,1.5c0.2,0.4,0.6,1.2,1.2,2c-0.5,0.1-1.1,0.1-1.6,0.1c-2.8,0-5.4-1-7.4-2.6
	C91,63.8,92.3,63.3,92.7,63.1z"/>
<path fill="#FFFFFF" d="M108.1,58.5c-0.5,1.6-1.3,3-2.4,4.3c0.2-0.5,0.3-1,0.3-1.2C107,60.6,107.7,59.3,108.1,58.5z"/>
<path fill="#FFFFFF" d="M107.1,51.9c-0.6-0.2-1.8-0.6-3.2-0.8c-1.3-1.9-2.8-3.6-3.3-4.1l0.5-2.2c0.5,0,1.3-0.1,1.7,0
	c2,1.1,3.6,2.8,4.6,4.9C107.5,50.4,107.2,51.4,107.1,51.9z"/>
<path fill="#2B2C35" d="M107.7,52.4c0.1-0.2,0.2-0.7,0.3-1.3c0.5,1.2,0.7,2.5,0.7,3.9c0,0.5,0,0.9-0.1,1.4
	C108.4,54.2,107.9,52.8,107.7,52.4z"/>
</svg>
