<svg xmlns="http://www.w3.org/2000/svg" xmlns:xlink="http://www.w3.org/1999/xlink" viewBox="0 0 176.36 161.74"><defs><style>.cls-1,.cls-14,.cls-22,.cls-24,.cls-25,.cls-26{fill:none;}.cls-2{fill:#fd4f57;}.cls-3{fill:#c2c0c0;}.cls-4{fill:#e1e2e2;}.cls-5{fill:#9d9ea0;}.cls-6{fill:#e2e3e4;}.cls-7{fill:#515050;}.cls-8{fill:#454751;}.cls-9{fill:#d7d6d5;}.cls-10{fill:#fff;}.cls-11{fill:#2b2b35;}.cls-12{fill:#434851;}.cls-13{fill:#2c2c2d;}.cls-14{stroke:#e1e2e2;}.cls-14,.cls-25,.cls-26{stroke-miterlimit:10;}.cls-15{clip-path:url(#clip-path);}.cls-16{clip-path:url(#clip-path-2);}.cls-17{fill:#365e84;}.cls-18{fill:#b8dbdc;}.cls-19{fill:#d33145;}.cls-20{fill:#57c0c3;}.cls-21{clip-path:url(#clip-path-3);}.cls-22{stroke:#af1f24;}.cls-22,.cls-24{stroke-linecap:round;stroke-linejoin:round;}.cls-23{clip-path:url(#clip-path-4);}.cls-24{stroke:#e2e3e4;}.cls-25{stroke:#434851;stroke-width:2px;}.cls-26{stroke:#d33145;stroke-dasharray:1;}.cls-27{clip-path:url(#clip-path-5);}.cls-28{fill:#686d77;}</style><clipPath id="clip-path"><path class="cls-1" d="M108.07,79.54C104.13,74,101.85,66.6,100.36,62c-.74-2.27-1.94-.58-2.21-2.68l-27.92.35c-.24,1.88-1.38.23-2,2.22C66.83,66.58,64.8,74,60.72,79.59a43.27,43.27,0,0,0-13.26,31.7c0,14.05,6.27,26.45,15.84,33.9a58.12,58.12,0,0,1,41.68.17c9.69-7.43,16.05-19.91,16.05-34.06A44.27,44.27,0,0,0,108.07,79.54Z"/></clipPath><clipPath id="clip-path-2"><rect class="cls-1" x="6.78" y="10.45" width="154.47" height="154.47"/></clipPath><clipPath id="clip-path-3"><path class="cls-2" d="M175.31,88.27a13.1,13.1,0,0,0,.86-3,18.61,18.61,0,0,0-2.76-12.39A17.76,17.76,0,0,0,166,65.81a11.3,11.3,0,0,0-10,0c-3,1.61-4.87,4.69-6.31,7.76a2.75,2.75,0,0,0-.38-3.7,3.9,3.9,0,0,0-3.89-.59,6.89,6.89,0,0,0-3.13,2.6,11.48,11.48,0,0,0-2,7.41,11.23,11.23,0,0,0,1,3.88c.5,1.08,1.11,1.56-.32,2-.8.23-1.62.36-2.43.56-1.17.29-2.74.76-2.84,2.17a16.5,16.5,0,0,0,.68,5.08,19.74,19.74,0,0,0,8.47,11.36,38.37,38.37,0,0,0,6.12,3.14c1.42.6,3.57,1.74,4.27-.4.32-1,.56-2,.94-3a5.44,5.44,0,0,1,3.48-3.35,40.41,40.41,0,0,0,9-5C171.32,93.68,174,91.44,175.31,88.27Z"/></clipPath><clipPath id="clip-path-4"><path class="cls-2" d="M112.29,103.65a13.3,13.3,0,0,0-.63-5.85c-1.67-5.48-5-10.57-10.06-13.42a15.36,15.36,0,0,0-5.6-2,8.46,8.46,0,0,0-5.74,1.21,7.8,7.8,0,0,0-7.35,0A11.08,11.08,0,0,0,78,89.31a16.51,16.51,0,0,0-1,4c-.13.94.12,2.76-.38,3.51-.78-1.21-2,0-3.11.33a15,15,0,0,1-4,.7,2.37,2.37,0,0,0-1.74.5,2.11,2.11,0,0,0-.4,1.31c-.61,9.11,2,21.69,10.86,26.32q.59.31,1.2.59a2,2,0,0,0,1.36.26,2.09,2.09,0,0,0,.94-.74l4.93-5.73c.2-.25,1.69-.28,2-.34.71-.12,1.43-.17,2.14-.27a21.12,21.12,0,0,0,4.26-1.22,40,40,0,0,0,12.85-8.06,13.39,13.39,0,0,0,4.12-5.63A8.05,8.05,0,0,0,112.29,103.65Z"/></clipPath><clipPath id="clip-path-5"><path class="cls-2" d="M138.12,21h0A19.83,19.83,0,0,1,158,40.85V60.68a0,0,0,0,1,0,0H138.12a19.83,19.83,0,0,1-19.83-19.83v0A19.83,19.83,0,0,1,138.12,21Z" transform="translate(206.9 167.4) rotate(-135)"/></clipPath></defs><title>Asset 4</title><g id="Layer_2" data-name="Layer 2"><g id="Layer_1-2" data-name="Layer 1"><path class="cls-3" d="M125.5,26.38"/><path class="cls-4" d="M158.84,97.38a22.06,22.06,0,0,0,1.07-9.32s-4.6,9.32-7.82,9.75c0,0,8-8.14,7.28-14.46,0,0-4.07,7.28-7.07,8.25,0,0,7.28-6.32,5.46-14.78,0,0-3.21,8.89-6.53,9.21,0,0,5.57-6.53,5-12.64,0,0-22.38,30.63-53.44,3.21l.64,25.92,14.78,18.74s21.85,8,35.77-13.71h0a40.65,40.65,0,0,0,4.82-9.75c-.11-.21,0-.32,0-.43Z"/><path class="cls-5" d="M131.31,103.7A34,34,0,0,1,135.6,87.2c-8.89,2.14-20.24.75-32.88-10.6l-.43,26,15.85,18.74a32,32,0,0,0,18.31.21A34.17,34.17,0,0,1,131.31,103.7Z"/><path class="cls-6" d="M69,59.47A17.32,17.32,0,0,0,68.13,62c-1.61,5.57-4.28,15-10.07,20.67,0,0,5.35,21,26.24,21s26.24-21,26.24-21c-5.68-5.35-8.46-15-10-20.56a21,21,0,0,1-.75-2.78"/><path class="cls-7" d="M98.76,146.64h0a29.65,29.65,0,0,0,16-26c0-16.39-13.71-29.56-30.63-29.56s-30.63,13.28-30.63,29.56a29.54,29.54,0,0,0,16.06,26h-.11a18.4,18.4,0,0,1,9,12.53,3,3,0,0,1,2.46,0v-9.1c1.07.11,2.14.21,3.21.21s2.14-.11,3.32-.21v9.1a2.58,2.58,0,0,1,2.46,0A17.94,17.94,0,0,1,98.76,146.64Z"/><path class="cls-7" d="M84.3,70.07C64,70.07,47.46,88.6,47.46,111.41c0,14.14,8.78,25.49,18.31,32.88,19.28-7.5,30.84-2,36.84.21C112.36,137,121,125.65,121,111.41,121.14,88.6,104.65,70.07,84.3,70.07Z"/><circle class="cls-8" cx="84.62" cy="67.61" r="1.82"/><circle class="cls-9" cx="84.62" cy="67.61" r="0.43"/><circle class="cls-8" cx="84.62" cy="77.78" r="1.82"/><circle class="cls-9" cx="84.62" cy="77.78" r="0.43"/><path class="cls-6" d="M100.9,35.37c.21-4.71-.11-9.75-1.93-13.28-1-2.68-4.07-4.39-7.18-5.46h2.57C91,14.38,88,14.49,85.91,15.34c-.64-.11-1.18-.11-1.61-.21a31.83,31.83,0,0,1,3.32-1.5c-5.14-1.29-9.64,1.61-11.57,3.11-3.11,1.07-6,2.68-7,5.35-1.82,3.53-2.14,8.57-1.93,13.28a32.36,32.36,0,0,0,1,11c2.36,5.46,1.61,9.75.54,13.92A4,4,0,0,1,69.2,62L84.41,90.42v.11L99.72,62.25c-.11-.54.54-1.39.32-2-1.18-4.07-2.68-8.78-.11-14C100.9,43.08,101,39.12,100.9,35.37Z"/><path class="cls-10" d="M76.59,32.37c0,1.5-1.5,2.68-3.43,2.78s-3.64-1.07-3.64-2.57,1.5-2.68,3.43-2.78S76.48,30.87,76.59,32.37Z"/><path class="cls-11" d="M74.66,32.16a1.62,1.62,0,1,1-1.82-1.39A1.66,1.66,0,0,1,74.66,32.16Z"/><path class="cls-10" d="M98.33,32.37c0,1.5-1.5,2.68-3.43,2.78s-3.64-1.07-3.64-2.57,1.5-2.68,3.43-2.78S98.33,30.87,98.33,32.37Z"/><path class="cls-11" d="M96.4,32.16a1.62,1.62,0,1,1-1.82-1.39A1.66,1.66,0,0,1,96.4,32.16Z"/><path class="cls-12" d="M84,36c-1.71,3-5.46,3.75-5.46,3.75C81.41,41.58,84.3,47,84.3,47s2.78-5.46,5.68-7.28A9.24,9.24,0,0,1,84,36Z"/><path class="cls-13" d="M86.34,161.1l.11-.11-.11-.11v-2.14a.51.51,0,0,1,.54-.54,3.14,3.14,0,0,0,1.93.54,7.24,7.24,0,0,0,2.14-.54c.11,0,0-.32.32,0,1.82,1.71,6,2.14,6,2.14a.39.39,0,0,1,.21.64l-.11.11v.11a.51.51,0,0,1-.54.54H86.76a.51.51,0,0,1-.54-.54v-.11Z"/><path class="cls-13" d="M82.05,161a.51.51,0,0,1-.54.54H71.45a.51.51,0,0,1-.54-.54l.11-.11-.11-.11a.37.37,0,0,1,.21-.64s4.18-.32,6-2.14c.32-.32.21,0,.32,0a6.3,6.3,0,0,0,2.14.54,3.55,3.55,0,0,0,1.93-.54.51.51,0,0,1,.54.54v2.14l-.11.11.11.11V161Z"/><path class="cls-6" d="M80.87,131c3.11.43,3.43.21,7.5.11a73.18,73.18,0,0,0,30.84-7.92,35.33,35.33,0,0,0,2-11.78c0-20.67-14.22-39-31.27-40.8C88,70.39,84.3,76,84.3,76s-3.75-5.68-5.46-5.46c-17.88,3-31.59,20.13-31.59,41a36.06,36.06,0,0,0,1.93,11.35A84.34,84.34,0,0,0,80.87,131Z"/><path class="cls-13" d="M98.25,138l-14,1.32-14-1.32-4.66,5.2.83,11.19,14.68-.45v-3.6a14.37,14.37,0,0,0,3.16.22,14.37,14.37,0,0,0,3.16-.22v3.6l14.68.45.83-11.19Z"/><line class="cls-14" x1="84.73" y1="136.85" x2="82.71" y2="146.26"/><line class="cls-14" x1="84.92" y1="139.81" x2="86.91" y2="147.24"/><g class="cls-15"><g class="cls-16"><path class="cls-17" d="M65.62,66.57S66.51,84,83.82,84s20.44-18,20.44-18l3.87,8.56s.15,39.33,12.21,47.47c0,0-1.28,30.09-16.91,25.59,0,0-27.55,4.75-42.74,1.88l-13.39-23.6L48.66,122S64.18,106.4,61.23,73.6Z"/></g></g><ellipse class="cls-18" cx="85.89" cy="100.82" rx="12.86" ry="12.91"/><path class="cls-5" d="M69.76,98.48a30,30,0,0,1-19.62-2.61S40.78,115.55,52.56,132a25,25,0,0,0,16.58.88C69.14,132.76,59,117.67,69.76,98.48Z"/><path class="cls-4" d="M93.9,100.3s-5,9.13-8.2,9.43c0,0,8.35-7.81,7.85-14.16,0,0-4.36,7.11-7.39,8,0,0,7.53-6,6-14.55,0,0-3.56,8.75-6.89,8.94,0,0,5.82-6.31,5.53-12.43,0,0-8.23,10.28-21.09,12.88a33.9,33.9,0,0,0-.62,34.27c6-1.48,12.54-5.29,18-13.21h0a40.65,40.65,0,0,0,5.2-9.55c.12-.21.12-.32.24-.53l-.11.1A21.56,21.56,0,0,0,93.9,100.3Z"/><path class="cls-19" d="M105.65,28.84h1.23a0,0,0,0,1,0,0v15.8a0,0,0,0,1,0,0h-1.23a3.23,3.23,0,0,1-3.23-3.23V32.07a3.23,3.23,0,0,1,3.23-3.23Z" transform="translate(209.31 73.48) rotate(180)"/><path class="cls-19" d="M64.23,28.84h1.23a0,0,0,0,1,0,0v15.8a0,0,0,0,1,0,0H64.23A3.23,3.23,0,0,1,61,41.41V32.07A3.23,3.23,0,0,1,64.23,28.84Z"/><path class="cls-2" d="M102.1,20.83a20.51,20.51,0,0,0-10.71-7.39h0a26.83,26.83,0,0,0-14.89,0h0a20.51,20.51,0,0,0-10.71,7.39,12.7,12.7,0,0,0-2.47,7.63V46.62a9.41,9.41,0,0,0,1.22,4.63l.62,1.09A7.27,7.27,0,0,0,71.65,56,4.53,4.53,0,0,0,76,51.48V45.11c0-3.1-1.22-5.25-3.2-6.44l-3.18-1.91a5,5,0,0,1-2.41-4.25V32a4.48,4.48,0,0,1,3.09-4.26l.07,0a43.72,43.72,0,0,1,27.09,0l.07,0A4.48,4.48,0,0,1,100.65,32v.56a5,5,0,0,1-2.41,4.25l-3.18,1.91a6.6,6.6,0,0,0-3.2,5.66v7.15A4.55,4.55,0,0,0,96.41,56h0a7.27,7.27,0,0,0,6.33-3.69l.62-1.09a9.41,9.41,0,0,0,1.22-4.63V28.46A12.7,12.7,0,0,0,102.1,20.83Z"/><circle class="cls-20" cx="83.94" cy="19.13" r="3.39"/><path class="cls-2" d="M175.31,88.27a13.1,13.1,0,0,0,.86-3,18.61,18.61,0,0,0-2.76-12.39A17.76,17.76,0,0,0,166,65.81a11.3,11.3,0,0,0-10,0c-3,1.61-4.87,4.69-6.31,7.76a2.75,2.75,0,0,0-.38-3.7,3.9,3.9,0,0,0-3.89-.59,6.89,6.89,0,0,0-3.13,2.6,11.48,11.48,0,0,0-2,7.41,11.23,11.23,0,0,0,1,3.88c.5,1.08,1.11,1.56-.32,2-.8.23-1.62.36-2.43.56-1.17.29-2.74.76-2.84,2.17a16.5,16.5,0,0,0,.68,5.08,19.74,19.74,0,0,0,8.47,11.36,38.37,38.37,0,0,0,6.12,3.14c1.42.6,3.57,1.74,4.27-.4.32-1,.56-2,.94-3a5.44,5.44,0,0,1,3.48-3.35,40.41,40.41,0,0,0,9-5C171.32,93.68,174,91.44,175.31,88.27Z"/><g class="cls-21"><path class="cls-22" d="M150.92,70.33c-7.75,7.85-2.17,20.57,7.58,23.42,5.37,1.57,11.8-.47,14.72-5.25"/><path class="cls-22" d="M140.68,83.57a28,28,0,0,0,25.26,19.87"/><path class="cls-22" d="M147.33,79.81A2.15,2.15,0,0,1,144.86,82"/></g><path class="cls-2" d="M112.29,103.65a13.3,13.3,0,0,0-.63-5.85c-1.67-5.48-5-10.57-10.06-13.42a15.36,15.36,0,0,0-5.6-2,8.46,8.46,0,0,0-5.74,1.21,7.8,7.8,0,0,0-7.35,0A11.08,11.08,0,0,0,78,89.31a16.51,16.51,0,0,0-1,4c-.13.94.12,2.76-.38,3.51-.78-1.21-2,0-3.11.33a15,15,0,0,1-4,.7,2.37,2.37,0,0,0-1.74.5,2.11,2.11,0,0,0-.4,1.31c-.61,9.11,2,21.69,10.86,26.32q.59.31,1.2.59a2,2,0,0,0,1.36.26,2.09,2.09,0,0,0,.94-.74l4.93-5.73c.2-.25,1.69-.28,2-.34.71-.12,1.43-.17,2.14-.27a21.12,21.12,0,0,0,4.26-1.22,40,40,0,0,0,12.85-8.06,13.39,13.39,0,0,0,4.12-5.63A8.05,8.05,0,0,0,112.29,103.65Z"/><g class="cls-23"><path class="cls-22" d="M76,94.34c-1,4.72.63,12.21,2.67,16.59a22.48,22.48,0,0,0,9.81,10.33"/><path class="cls-22" d="M100.16,78.81A36.08,36.08,0,0,0,81.68,90"/></g><path class="cls-6" d="M73.46,99.38a1.38,1.38,0,0,1,.37.49,4,4,0,0,1,.21,1.55,8,8,0,0,0,.71,4,.72.72,0,0,1,.14.56.64.64,0,0,1-.33.31,13.06,13.06,0,0,1-2.4,1c-.41.13-.83.26-1.24.4s-.75.4-1.15.21a1.2,1.2,0,0,1-.52-.85,30.08,30.08,0,0,1-.65-3.3c-.11-.76-.55-2.31-.14-3s1.49-.67,2.12-.83a18.52,18.52,0,0,0,2-.61A.89.89,0,0,1,73.46,99.38Z"/><path class="cls-24" d="M144.69,93.74a16.32,16.32,0,0,1,.74,5.56"/><path class="cls-24" d="M147.89,96.38a9.57,9.57,0,0,0-5.56.58"/><polyline class="cls-25" points="8.45 27.36 21.5 6.2 34.55 27.36"/><path class="cls-2" d="M6.73,26.3H36.27A6.73,6.73,0,0,1,43,33V82.79A15.26,15.26,0,0,1,27.74,98H15.26A15.26,15.26,0,0,1,0,82.79V33A6.73,6.73,0,0,1,6.73,26.3Z"/><rect class="cls-19" y="41.56" width="43" height="2.55"/><rect class="cls-19" y="78.14" width="43" height="2.55"/><line class="cls-26" x1="15.07" y1="43.79" x2="15.07" y2="78.14"/><rect class="cls-10" x="18.28" width="6.44" height="6.44"/><path class="cls-2" d="M138.12,21h0A19.83,19.83,0,0,1,158,40.85V60.68a0,0,0,0,1,0,0H138.12a19.83,19.83,0,0,1-19.83-19.83v0A19.83,19.83,0,0,1,138.12,21Z" transform="translate(206.9 167.4) rotate(-135)"/><g class="cls-27"><path class="cls-26" d="M138.45,15s8.25,15,8.81,16.31S160.51,53.45,138.45,62"/></g><rect class="cls-12" x="135.09" y="9.14" width="6.05" height="6.6"/><rect class="cls-28" x="136.42" y="6.21" width="3.41" height="2.93"/></g></g></svg>