<?xml version="1.0" encoding="utf-8"?>
<!-- Generator: Adobe Illustrator 19.2.1, SVG Export Plug-In . SVG Version: 6.00 Build 0)  -->
<svg version="1.1" id="Layer_1" xmlns="http://www.w3.org/2000/svg" xmlns:xlink="http://www.w3.org/1999/xlink" x="0px" y="0px"
	 width="200px" height="200px" viewBox="0 0 200 200" style="enable-background:new 0 0 200 200;" xml:space="preserve">
<style type="text/css">
	.st0{fill:#E2E3E4;}
	.st1{fill:#595D62;}
	.st2{fill:#C7702A;}
	.st3{fill:#C9C7C7;}
	.st4{fill:#EA8824;}
	.st5{fill:none;stroke:#C9C7C7;stroke-width:0.75651;stroke-miterlimit:10;}
	.st6{fill-rule:evenodd;clip-rule:evenodd;fill:#444851;}
	.st7{fill-rule:evenodd;clip-rule:evenodd;fill:#D8D7D6;}
	.st8{fill:#FFFFFF;}
	.st9{fill:#2B2B35;}
	.st10{fill:#434850;}
	.st11{fill:#6C4396;}
	.st12{fill:#A4A4A4;}
	.st13{fill:#EA4C65;}
	.st14{fill:#94814F;}
	.st15{fill:#9C2023;}
	.st16{fill:#B7242C;}
	.st17{fill-rule:evenodd;clip-rule:evenodd;fill:#FFFFFF;}
	.st18{fill:#0C4F6E;}
	.st19{fill:#C18E46;}
	.st20{fill:#3180BF;}
	.st21{fill:#D94F4F;}
	.st22{fill:#2C2C2D;}
	.st23{fill:#595E63;}
	.st24{fill:#E3E2E2;}
	.st25{fill:#9D9EA0;}
	.st26{fill:none;stroke:#C8C6C6;stroke-width:0.75651;stroke-miterlimit:10;}
	.st27{fill:#2A2E35;}
	.st28{fill-rule:evenodd;clip-rule:evenodd;fill:#454751;}
	.st29{fill-rule:evenodd;clip-rule:evenodd;fill:#D8D7D5;}
	.st30{fill:#434851;}
	.st31{fill:#EC9424;}
	.st32{fill:#445AA4;}
	.st33{clip-path:url(#SVGID_2_);fill:#58C1C4;}
	.st34{fill:#B7DBDB;}
	.st35{fill:#58C1C4;}
	.st36{fill:none;stroke:#434851;stroke-width:1.51302;stroke-linecap:round;stroke-linejoin:round;stroke-miterlimit:10;}
	.st37{clip-path:url(#SVGID_4_);fill:#58C1C4;}
	.st38{fill:#010101;}
	.st39{fill:#161718;}
	.st40{fill-rule:evenodd;clip-rule:evenodd;fill:#010101;}
	.st41{fill:#272626;}
	.st42{fill:#17191A;}
	.st43{fill:#D4D5D4;}
	.st44{fill-rule:evenodd;clip-rule:evenodd;fill:#272626;}
	.st45{fill-rule:evenodd;clip-rule:evenodd;fill:#E2E3E4;}
	.st46{fill:#19244E;}
	.st47{fill:#E3E1E1;}
	.st48{fill:#8E1B27;}
	.st49{fill:#CA2033;}
	.st50{fill:#EFE0A7;}
	.st51{fill:none;stroke:#EFE0A7;stroke-width:0.09335;stroke-miterlimit:10;}
	.st52{fill:#EECA81;}
	.st53{fill:#F3F3F3;}
	.st54{fill:#A0A1A4;}
	.st55{fill:#EB6B6D;}
	.st56{fill:none;stroke:#CAC8C6;stroke-width:0.02289;stroke-miterlimit:10;}
	.st57{fill:#464951;}
	.st58{fill:#D7D6D6;}
	.st59{fill:#EECC82;}
	.st60{fill:#F0E0A9;}
	.st61{fill:none;stroke:#F0E0A9;stroke-width:0.01145;stroke-miterlimit:10;}
	.st62{fill:#5AC1C2;}
	.st63{clip-path:url(#SVGID_6_);fill:#E2E3E4;}
	.st64{fill:#EE7823;}
	.st65{fill:#D6563D;}
	.st66{fill:#70533D;}
	.st67{fill:#81BCA9;}
	.st68{clip-path:url(#SVGID_8_);fill:#E2E3E4;}
	.st69{fill:none;stroke:#EFE0A7;stroke-width:0.37825;stroke-miterlimit:10;}
	.st70{clip-path:url(#SVGID_10_);}
	.st71{clip-path:url(#SVGID_12_);fill:#E3E2E2;}
	.st72{clip-path:url(#SVGID_12_);}
	.st73{fill-rule:evenodd;clip-rule:evenodd;fill:#1AAEA1;}
	.st74{fill-rule:evenodd;clip-rule:evenodd;fill:#0C8C70;}
	.st75{fill:#1AAEA1;}
	.st76{fill:#6F513B;}
	.st77{fill:#515050;}
	.st78{fill:#D4563A;}
	.st79{fill:none;}
	.st80{clip-path:url(#SVGID_14_);}
	.st81{clip-path:url(#SVGID_16_);fill:#E3E2E2;}
	.st82{clip-path:url(#SVGID_16_);}
	.st83{fill:#EEE3A3;}
	.st84{fill:none;stroke:#F0E0A9;stroke-width:0.37825;stroke-miterlimit:10;}
	.st85{clip-path:url(#SVGID_18_);}
	.st86{fill-rule:evenodd;clip-rule:evenodd;fill:#434850;}
	.st87{clip-path:url(#SVGID_20_);}
	.st88{fill:none;stroke:#E4CC21;stroke-width:1.92135;stroke-miterlimit:10;}
	.st89{fill:none;stroke:#FFFFFF;stroke-width:2.2037;stroke-miterlimit:10;}
	.st90{fill:#E4CC21;}
	.st91{fill:#232244;}
	.st92{fill:#C8C6C6;}
	.st93{fill:#542F19;}
	.st94{fill-rule:evenodd;clip-rule:evenodd;fill:#3D2E21;}
	.st95{fill:#3D2E21;}
	.st96{fill-rule:evenodd;clip-rule:evenodd;fill:#232244;}
	.st97{fill-rule:evenodd;clip-rule:evenodd;fill:#2E3280;}
	.st98{fill:#281911;}
	.st99{fill-rule:evenodd;clip-rule:evenodd;fill:#E4CC21;}
	.st100{fill-rule:evenodd;clip-rule:evenodd;fill:#D85127;}
	.st101{clip-path:url(#SVGID_22_);}
	.st102{fill-rule:evenodd;clip-rule:evenodd;fill:#EE7434;}
	.st103{fill:#17733B;}
	.st104{clip-path:url(#SVGID_24_);}
	.st105{fill:#1D73B6;}
	.st106{fill:#115E8E;}
	.st107{clip-path:url(#SVGID_26_);}
	.st108{fill:none;stroke:#FFFFFF;stroke-width:1.49993;stroke-miterlimit:10;}
	.st109{fill:none;stroke:#CAC8C6;stroke-width:0.024;stroke-miterlimit:10;}
	.st110{clip-path:url(#SVGID_28_);fill:#E2E3E4;}
	.st111{fill:#603A17;}
	.st112{fill:#78471F;}
	.st113{fill:#F8FAFD;}
	.st114{clip-path:url(#SVGID_30_);}
	.st115{clip-path:url(#SVGID_32_);}
	.st116{fill:none;stroke:#FFFFFF;stroke-width:0.49998;stroke-miterlimit:10;}
	.st117{fill:none;stroke:#FFFFFF;stroke-width:0.74997;stroke-miterlimit:10;}
	.st118{clip-path:url(#SVGID_34_);}
	.st119{clip-path:url(#SVGID_36_);}
	.st120{clip-path:url(#SVGID_38_);fill:#E2E3E4;}
	.st121{clip-path:url(#SVGID_40_);}
	.st122{clip-path:url(#SVGID_42_);}
	.st123{clip-path:url(#SVGID_44_);}
	.st124{opacity:0.7;fill:#434850;}
	.st125{fill:#5B3287;}
	.st126{fill:#643E1E;}
	.st127{fill:#C8D6DE;}
	.st128{fill:none;stroke:#CAC7C6;stroke-width:0.75651;stroke-miterlimit:10;}
	.st129{fill:#B6C3CE;}
	.st130{fill:#273980;}
	.st131{fill:#2B2C35;}
	.st132{clip-path:url(#SVGID_46_);fill:#FFFFFF;stroke:#5A3B84;stroke-width:4.53905;stroke-miterlimit:10;}
	.st133{fill:#C8C7C9;}
	.st134{fill:#056F43;}
	.st135{clip-path:url(#SVGID_48_);}
	.st136{fill:#EBEDF1;}
	.st137{fill:#CF2B29;}
	.st138{fill-rule:evenodd;clip-rule:evenodd;fill:#273980;}
	.st139{fill:#D6232A;}
	.st140{clip-path:url(#SVGID_52_);fill:#FFFFFF;stroke:#5A3B84;stroke-width:4.53905;stroke-miterlimit:10;}
	.st141{clip-path:url(#SVGID_54_);}
	.st142{fill:#532D17;}
	.st143{fill:none;stroke:#5E1116;stroke-width:0.95369;stroke-miterlimit:10;}
	.st144{fill-rule:evenodd;clip-rule:evenodd;fill:#5E1116;}
	.st145{fill:none;stroke:#5E1116;stroke-width:0.94639;stroke-miterlimit:10;}
	.st146{fill:#291B13;}
	.st147{fill-rule:evenodd;clip-rule:evenodd;fill:#291B13;}
	.st148{fill-rule:evenodd;clip-rule:evenodd;fill:#454850;}
	.st149{fill-rule:evenodd;clip-rule:evenodd;fill:#74441F;}
	.st150{fill:#7F161B;}
	.st151{fill-rule:evenodd;clip-rule:evenodd;fill:#7F161B;}
	.st152{fill:none;stroke:#5E1116;stroke-width:1.04342;stroke-miterlimit:10;}
	.st153{fill:#E4E0E4;}
	.st154{clip-path:url(#SVGID_58_);fill:#E1244D;}
	.st155{clip-path:url(#SVGID_60_);fill:#E1244D;}
	.st156{fill:#292933;}
	.st157{fill:none;stroke:#CAC8C6;stroke-width:0.02378;stroke-miterlimit:10;}
	.st158{fill:none;stroke:#F0E0A9;stroke-width:0.01189;stroke-miterlimit:10;}
	.st159{clip-path:url(#SVGID_62_);fill:#E2E3E4;}
	.st160{fill:#2F465D;}
	.st161{fill:#432F21;}
	.st162{fill-rule:evenodd;clip-rule:evenodd;fill:#3D5F7C;}
	.st163{fill-rule:evenodd;clip-rule:evenodd;fill:#2F465D;}
	.st164{clip-path:url(#SVGID_64_);fill:#2C2C2D;}
	.st165{clip-path:url(#SVGID_66_);fill:#F8B917;}
	.st166{clip-path:url(#SVGID_66_);fill:#1F4394;}
	.st167{clip-path:url(#SVGID_68_);fill:#E8212F;}
	.st168{clip-path:url(#SVGID_68_);fill:#C9C8C8;}
	.st169{clip-path:url(#SVGID_68_);fill:#2A2E35;}
	.st170{clip-path:url(#SVGID_68_);fill:#444750;}
	.st171{clip-path:url(#SVGID_68_);fill:#D7D7D6;}
	.st172{clip-path:url(#SVGID_68_);fill:#E3E2E2;}
	.st173{clip-path:url(#SVGID_68_);fill:#FFFFFF;}
	.st174{clip-path:url(#SVGID_68_);fill:#2B2D34;}
	.st175{clip-path:url(#SVGID_68_);fill:#B9252D;}
	.st176{clip-path:url(#SVGID_68_);fill:#24345B;}
	.st177{clip-path:url(#SVGID_68_);fill:#F7F6F8;}
	.st178{clip-path:url(#SVGID_70_);fill:#1F4394;}
	.st179{clip-path:url(#SVGID_70_);fill:#F8B917;}
	.st180{clip-path:url(#SVGID_70_);fill:#883D1E;}
	.st181{clip-path:url(#SVGID_70_);fill:#F5D07C;}
	.st182{clip-path:url(#SVGID_72_);fill:#E8212F;}
	.st183{clip-path:url(#SVGID_72_);fill:#E3E2E2;}
	.st184{clip-path:url(#SVGID_72_);fill:#F7F6F8;}
	.st185{clip-path:url(#SVGID_72_);fill:#F8B917;}
	.st186{clip-path:url(#SVGID_72_);fill:#888983;}
	.st187{clip-path:url(#SVGID_74_);fill:#888983;}
	.st188{clip-path:url(#SVGID_74_);fill:#624219;}
	.st189{clip-path:url(#SVGID_76_);fill:#E3E2E2;}
	.st190{clip-path:url(#SVGID_76_);fill:#2C2C2D;}
	.st191{clip-path:url(#SVGID_76_);fill:#888983;}
	.st192{clip-path:url(#SVGID_78_);fill:#F8B917;}
	.st193{clip-path:url(#SVGID_78_);fill:#1F4394;}
	.st194{clip-path:url(#SVGID_80_);fill:#E8212F;}
	.st195{clip-path:url(#SVGID_80_);fill:#C9C8C8;}
	.st196{clip-path:url(#SVGID_80_);fill:#2A2E35;}
	.st197{clip-path:url(#SVGID_80_);fill:#444750;}
	.st198{clip-path:url(#SVGID_80_);fill:#D7D7D6;}
	.st199{clip-path:url(#SVGID_80_);fill:#E3E2E2;}
	.st200{clip-path:url(#SVGID_80_);fill:#FFFFFF;}
	.st201{clip-path:url(#SVGID_80_);fill:#2B2D34;}
	.st202{clip-path:url(#SVGID_80_);fill:#B9252D;}
	.st203{clip-path:url(#SVGID_80_);fill:#24345B;}
	.st204{clip-path:url(#SVGID_80_);fill:#F7F6F8;}
	.st205{clip-path:url(#SVGID_82_);fill:#1F4394;}
	.st206{clip-path:url(#SVGID_82_);fill:#F8B917;}
	.st207{clip-path:url(#SVGID_82_);fill:#883D1E;}
	.st208{clip-path:url(#SVGID_82_);fill:#F5D07C;}
	.st209{clip-path:url(#SVGID_84_);fill:#E8212F;}
	.st210{clip-path:url(#SVGID_84_);fill:#E3E2E2;}
	.st211{clip-path:url(#SVGID_84_);fill:#F7F6F8;}
	.st212{clip-path:url(#SVGID_84_);fill:#F8B917;}
	.st213{clip-path:url(#SVGID_84_);fill:#888983;}
	.st214{clip-path:url(#SVGID_86_);fill:#888983;}
	.st215{clip-path:url(#SVGID_86_);fill:#624219;}
	.st216{clip-path:url(#SVGID_88_);fill:#E3E2E2;}
	.st217{clip-path:url(#SVGID_88_);fill:#2C2C2D;}
	.st218{clip-path:url(#SVGID_90_);fill:#2C2C2D;}
	.st219{clip-path:url(#SVGID_92_);fill:#F8B917;}
	.st220{clip-path:url(#SVGID_92_);fill:#1F4394;}
	.st221{clip-path:url(#SVGID_94_);fill:#E8212F;}
	.st222{clip-path:url(#SVGID_94_);fill:#C9C8C8;}
	.st223{clip-path:url(#SVGID_94_);fill:#2A2E35;}
	.st224{clip-path:url(#SVGID_94_);fill:#444750;}
	.st225{clip-path:url(#SVGID_94_);fill:#D7D7D6;}
	.st226{clip-path:url(#SVGID_94_);fill:#E3E2E2;}
	.st227{clip-path:url(#SVGID_94_);fill:#FFFFFF;}
	.st228{clip-path:url(#SVGID_94_);fill:#2B2D34;}
	.st229{clip-path:url(#SVGID_94_);fill:#B9252D;}
	.st230{clip-path:url(#SVGID_94_);fill:#24345B;}
	.st231{clip-path:url(#SVGID_94_);fill:#F7F6F8;}
	.st232{clip-path:url(#SVGID_96_);fill:#1F4394;}
	.st233{clip-path:url(#SVGID_96_);fill:#F8B917;}
	.st234{clip-path:url(#SVGID_96_);fill:#883D1E;}
	.st235{clip-path:url(#SVGID_96_);fill:#F5D07C;}
	.st236{clip-path:url(#SVGID_98_);fill:#E8212F;}
	.st237{clip-path:url(#SVGID_98_);fill:#E3E2E2;}
	.st238{clip-path:url(#SVGID_98_);fill:#F7F6F8;}
	.st239{clip-path:url(#SVGID_98_);fill:#F8B917;}
	.st240{clip-path:url(#SVGID_98_);fill:#888983;}
	.st241{clip-path:url(#SVGID_100_);fill:#888983;}
	.st242{clip-path:url(#SVGID_100_);fill:#624219;}
	.st243{clip-path:url(#SVGID_102_);fill:#E3E2E2;}
	.st244{clip-path:url(#SVGID_102_);fill:#2C2C2D;}
	.st245{clip-path:url(#SVGID_102_);fill:#888983;}
	.st246{clip-path:url(#SVGID_104_);fill:#F8B917;}
	.st247{clip-path:url(#SVGID_104_);fill:#1F4394;}
	.st248{clip-path:url(#SVGID_106_);fill:#E8212F;}
	.st249{clip-path:url(#SVGID_106_);fill:#C9C8C8;}
	.st250{clip-path:url(#SVGID_106_);fill:#2A2E35;}
	.st251{clip-path:url(#SVGID_106_);fill:#444750;}
	.st252{clip-path:url(#SVGID_106_);fill:#D7D7D6;}
	.st253{clip-path:url(#SVGID_106_);fill:#E3E2E2;}
	.st254{clip-path:url(#SVGID_106_);fill:#FFFFFF;}
	.st255{clip-path:url(#SVGID_106_);fill:#2B2D34;}
	.st256{clip-path:url(#SVGID_106_);fill:#B9252D;}
	.st257{clip-path:url(#SVGID_106_);fill:#24345B;}
	.st258{clip-path:url(#SVGID_106_);fill:#F7F6F8;}
	.st259{clip-path:url(#SVGID_108_);fill:#1F4394;}
	.st260{clip-path:url(#SVGID_108_);fill:#F8B917;}
	.st261{clip-path:url(#SVGID_108_);fill:#883D1E;}
	.st262{clip-path:url(#SVGID_108_);fill:#F5D07C;}
	.st263{clip-path:url(#SVGID_110_);fill:#E8212F;}
	.st264{clip-path:url(#SVGID_110_);fill:#E3E2E2;}
	.st265{clip-path:url(#SVGID_110_);fill:#F7F6F8;}
	.st266{clip-path:url(#SVGID_110_);fill:#F8B917;}
	.st267{clip-path:url(#SVGID_110_);fill:#888983;}
	.st268{clip-path:url(#SVGID_112_);fill:#888983;}
	.st269{clip-path:url(#SVGID_112_);fill:#624219;}
	.st270{clip-path:url(#SVGID_114_);fill:#E3E2E2;}
	.st271{clip-path:url(#SVGID_114_);fill:#2C2C2D;}
	.st272{fill:#EDE2A3;}
	.st273{clip-path:url(#SVGID_116_);}
	.st274{fill-rule:evenodd;clip-rule:evenodd;fill:#434851;}
	.st275{fill-rule:evenodd;clip-rule:evenodd;fill:#E3E2E2;}
	.st276{fill:#2A2B2A;}
	.st277{clip-path:url(#SVGID_118_);}
	.st278{clip-path:url(#SVGID_120_);}
	.st279{clip-path:url(#SVGID_122_);}
	.st280{fill:#1F3566;}
	.st281{fill:#E3E4E5;}
	.st282{fill:#4BB1E4;}
	.st283{fill:#2D2A6C;}
	.st284{fill-rule:evenodd;clip-rule:evenodd;fill:#D8D9D5;}
	.st285{fill:#434852;}
	.st286{fill:#E3E3E3;}
	.st287{fill:#162E54;}
	.st288{fill:none;stroke:#335DAB;stroke-width:1.68786;stroke-miterlimit:10;}
	.st289{fill:#81817F;}
	.st290{fill:#142B49;}
	.st291{fill:#5A5A5A;}
	.st292{fill:none;stroke:#FFFFFF;stroke-width:0.84393;stroke-linecap:round;stroke-linejoin:round;stroke-miterlimit:10;}
	.st293{fill:#AB9D9C;}
	.st294{fill:#EA6689;}
	.st295{fill:#CE1D5B;}
	.st296{fill:#BF742A;}
	.st297{fill:#273449;}
	.st298{fill:#A4464B;}
	.st299{fill:none;stroke:#CAC8C6;stroke-width:0.0662;stroke-miterlimit:10;}
	.st300{fill:#80333A;}
	.st301{fill:none;stroke:#B4B4B4;stroke-width:0.25748;stroke-miterlimit:10;}
	.st302{fill:none;stroke:#B4B4B4;stroke-width:3.08973;stroke-miterlimit:10;}
	.st303{fill:none;stroke:#B4B4B4;stroke-width:1.02991;stroke-miterlimit:10;}
	.st304{fill:none;stroke:#82858B;stroke-width:0.51495;stroke-miterlimit:10;}
	.st305{fill:none;stroke:#E2E3E4;stroke-width:1.02991;stroke-miterlimit:10;}
	.st306{fill:#E5E5E5;}
	.st307{fill:#2D2C2D;}
	.st308{fill:#4CB2E5;}
	.st309{fill:#AD2824;}
	.st310{fill-rule:evenodd;clip-rule:evenodd;fill:#D9D9D6;}
	.st311{fill:#E4E4E3;}
	.st312{fill:#DB4826;}
	.st313{fill:#B33725;}
	.st314{fill:#120C0D;}
	.st315{fill:#F3F0F0;}
	.st316{fill:#C4BFBF;}
	.st317{clip-path:url(#SVGID_124_);fill:none;stroke:#F3F0F0;stroke-width:1.10165;stroke-linecap:round;stroke-miterlimit:10;}
	.st318{clip-path:url(#SVGID_126_);fill:none;stroke:#F3F0F0;stroke-width:1.10165;stroke-linecap:round;stroke-miterlimit:10;}
	.st319{clip-path:url(#SVGID_128_);fill:none;stroke:#F3F0F0;stroke-width:1.10165;stroke-linecap:round;stroke-miterlimit:10;}
	.st320{fill:#DE5B2A;}
	.st321{fill:#7A2716;}
	.st322{fill:#E5E4E4;}
	.st323{fill:#BB4928;}
	.st324{fill:#454545;}
	.st325{fill:#6265AE;}
	.st326{fill:none;stroke:#CAC5C4;stroke-width:0.55083;stroke-linecap:round;stroke-miterlimit:10;}
	.st327{fill:#E1E3E3;}
	.st328{fill:#484848;}
	.st329{fill:#422F90;}
	.st330{fill:#D57A28;}
	.st331{fill:#B4B4B5;}
	.st332{fill:#4B4B4D;}
	.st333{fill:#949393;}
	.st334{fill:#040404;}
	.st335{clip-path:url(#SVGID_130_);fill:none;stroke:#F3F0F0;stroke-width:1.10165;stroke-linecap:round;stroke-miterlimit:10;}
	.st336{clip-path:url(#SVGID_132_);fill:none;stroke:#F3F0F0;stroke-width:1.10165;stroke-linecap:round;stroke-miterlimit:10;}
	.st337{clip-path:url(#SVGID_134_);fill:none;stroke:#F3F0F0;stroke-width:1.10165;stroke-linecap:round;stroke-miterlimit:10;}
	.st338{clip-path:url(#SVGID_140_);fill:#AD2824;}
	.st339{fill:#CDCCCC;}
	.st340{fill:#E4E5E6;}
	.st341{opacity:0.72;fill:none;stroke:#FFFFFF;stroke-width:1.1546;stroke-linecap:round;stroke-miterlimit:10;}
	.st342{fill:#BBD867;}
	.st343{fill:none;stroke:#BBD867;stroke-width:5.799;stroke-miterlimit:10;}
	.st344{clip-path:url(#SVGID_146_);fill:#AD2824;}
	.st345{fill:none;stroke:#AE4E85;stroke-width:1.54066;stroke-linecap:round;stroke-linejoin:round;stroke-miterlimit:10;}
	.st346{fill:none;stroke:#E97625;stroke-width:1.62274;stroke-linecap:round;stroke-linejoin:round;stroke-miterlimit:10;}
	.st347{fill:none;stroke:#C9C7C7;stroke-width:0.23348;stroke-miterlimit:10;}
	.st348{fill:#981E5C;}
	.st349{fill:none;stroke:#AE4E85;stroke-width:1.21706;stroke-linecap:round;stroke-linejoin:round;stroke-miterlimit:10;}
	.st350{fill:#AE4E85;}
	.st351{fill:#F7B456;}
	.st352{fill:#E97625;}
	.st353{fill:none;stroke:#E97625;stroke-width:1.54273;stroke-linecap:round;stroke-linejoin:round;stroke-miterlimit:10;}
</style>
<g>
	<g>
		<path class="st47" d="M27.05765,120.54007c-1.46734-4.90778-0.9007-8.04464-0.9007-8.04464s3.9772,8.033,6.79244,8.44112
			c0,0-6.90291-7.04459-6.30113-12.50344c0,0,3.48589,6.29588,6.11394,7.15499c0,0-6.28682-5.51995-4.69331-12.80231
			c0,0,2.8191,7.72296,5.63041,8.00698c0,0-4.7882-5.70388-4.36057-10.96975c0,0,19.379,26.51456,46.19115,2.75156
			l-0.54069,22.51326l-12.76989,16.24274c0,0-18.91364,6.9861-30.88032-11.91205c-0.00779-0.00905-0.01557-0.02208-0.02728-0.03439
			c-2.09128-3.13953-3.36631-6.01585-4.13705-8.47234c-0.05849-0.15073-0.11439-0.29174-0.17156-0.44706
			C27.00308,120.46474,27.02125,120.49203,27.05765,120.54007"/>
		<path class="st142" d="M50.79077,126.06853c0-5.20997-1.34783-10.09892-3.71075-14.34125
			c7.67884,1.88133,17.43984,0.60697,28.44985-9.1527l0.40939,22.53928l-13.71997,16.21672c0,0-7.34997,2.70804-15.78131,0.18201
			C49.19732,137.01678,50.79077,131.72623,50.79077,126.06853"/>
		<path class="st143" d="M93.32188,108.98485c0,0,9.75841,6.5799,12.17071,7.0517"/>
		<polygon class="st144" points="105.41978,116.44728 105.70699,116.48495 105.61343,115.82341 105.56532,115.6076 		"/>
		<path class="st145" d="M100.34303,91.63864c0,0,11.1972,9.72001,14.0215,10.59542"/>
		<polygon class="st144" points="100.04278,91.97789 99.89205,91.79722 100.59911,91.23377 100.65494,91.32667 		"/>
		<polygon class="st144" points="114.49449,101.82594 114.79082,101.93381 114.22678,102.64213 		"/>
		<path class="st24" d="M149.77571,110.3223c0,0,7.12904-2.10951,9.00711-5.60772c3.03491-5.66681-3.76791-4.29562-3.76791-4.29562
			s1.21786-1.85339,3.55476-3.10898c2.17839-1.17294,7.15504-0.90656,7.54369,4.5881c0.38077,5.46864-0.5914,5.90339-0.5914,5.90339
			s1.38029-1.89178,1.06841-5.89108c-0.32755-4.24359-1.9938-4.27547-0.98262-4.65238
			c0.4939-0.18001,4.13577,2.53841,4.74794,4.79539c0.58095,2.13155-0.13782,5.71686-1.54668,8.03686
			c-2.4825,4.11954,1.65973-1.53562,1.44266-6.92886c-0.02336-0.56145,3.16614,6.41546,1.84174,11.17578
			c-0.53157,1.88585-1.67278,3.75813-1.67278,3.75813c0.48746-0.52379,1.09828-1.57529,1.71829-2.99392
			c1.03453-2.36359-2.19656-13.58348-2.19656-13.58348s6.39856,10.572,3.02707,19.6883
			c-2.80739,7.59432-16.22066,18.43604-16.22066,18.43604c-11.71446-13.92593-11.32584-21.44753-11.32584-21.44753"/>
		<path class="st142" d="M150.99098,109.71725c-7.4579,2.79568-17.65166,3.0576-31.40803-2.47732l-17.58538,12.0154
			l-6.89506,19.77349c0,0,34.76263,26.14468,68.31777-5.06378c0,0-8.55745-2.92703-11.74048-10.77802
			C148.49809,115.33403,150.99098,109.71725,150.99098,109.71725"/>
		<path class="st146" d="M116.54026,179.53166l-0.10009,0.01038c10.72153-5.5986,18.00522-16.51498,18.00522-29.05548
			c0-18.243-15.40446-33.0359-34.39742-33.0359c-18.99163,0-34.38438,14.7929-34.38438,33.0359
			c0,12.5405,7.26938,23.45688,17.99351,29.05548l-0.08837-0.00586c5.2093,2.98747,8.98374,8.04538,10.10145,13.99554
			c0.23138-0.12671,1.29326-0.62387,2.71256,0.02277v-10.21977c1.20748,0.12537,2.42528,0.18906,3.66523,0.18906
			c1.23477,0,2.45908-0.06369,3.67568-0.18906v10.21977c1.43102-0.65961,2.50195-0.13649,2.71249-0.01823
			C107.55132,187.58156,111.32317,182.52365,116.54026,179.53166"/>
		<path class="st92" d="M100.04797,142.32751c-12.56319,0-22.79076-10.22304-22.79076-22.79143
			c0-12.56001,10.22756-22.79015,22.79076-22.79015c12.56713,0,22.79209,10.23015,22.79209,22.79015
			C122.84006,132.10448,112.6151,142.32751,100.04797,142.32751 M100.04797,97.09297
			c-12.37733,0-22.44372,10.06705-22.44372,22.44312c0,12.37927,10.06638,22.44632,22.44372,22.44632
			c12.37608,0,22.44772-10.06705,22.44772-22.44632C122.49568,107.16002,112.42404,97.09297,100.04797,97.09297"/>
		<path class="st142" d="M84.23418,82.3215c-0.26904,2.11531-1.54674,0.25867-2.23036,2.48963
			c-1.88593,6.18867-4.74016,16.76912-11.28039,23.05528c0,0,6.00347,23.44264,29.26218,23.44264
			c23.26777,0,29.28035-23.44264,29.28035-23.44264c-6.28423-6.0275-9.1722-16.86528-11.17252-22.93763
			c-0.83701-2.54812-2.18225-0.65182-2.48637-2.99525"/>
		<path class="st27" d="M99.98561,93.89562c-22.8233,0-41.32495,20.67352-41.32495,46.17425
			c0,15.72675,7.04712,29.61308,17.79979,37.95152c21.70033-8.32674,23.52516-31.80638,23.52516-31.80638
			c3.26104,21.81726,16.60669,29.47986,23.3029,31.99158c10.88524-8.31961,18.03636-22.29433,18.03636-38.13672
			C141.32487,114.56915,122.81796,93.89562,99.98561,93.89562"/>
		<path class="st142" d="M99.98561,93.89562c-22.8233,0-41.32495,20.67352-41.32495,46.17425
			c0,15.72675,7.04712,29.61308,17.79979,37.95152c21.91348,7.72429,23.52516-9.42502,23.52516-9.42502
			c3.19083,16.98102,19.31532,11.42207,23.3029,9.61021c10.88524-8.31961,18.03636-22.29433,18.03636-38.13672
			C141.32487,114.56915,122.81796,93.89562,99.98561,93.89562"/>
		<path class="st147" d="M107.4201,191.76732c0,0,5.91376,3.04269,7.74378,2.77171c0,0,0.59133,0.67651-0.07021,1.21913
			c0,0-3.54046,2.16667-8.25327,1.20747c0,0-0.87868-1.06514-1.48824-0.50754c0,0-0.516,0.55173-1.90802-0.23271l-0.22612-1.04691
			c0,0-0.36261-0.40813-0.26772-1.04564l0.3288-1.75723C103.27912,192.37561,105.23785,193.62988,107.4201,191.76732"/>
		<path class="st148" d="M102.3329,91.14214c0,1.09435-0.89159,1.98208-1.98467,1.98208c-1.09176,0-1.97948-0.88773-1.97948-1.98208
			c0-1.09961,0.88773-1.98727,1.97948-1.98727C101.44131,89.15487,102.3329,90.04253,102.3329,91.14214"/>
		<path class="st29" d="M100.81351,91.14214c0,0.25867-0.21181,0.46403-0.46529,0.46403c-0.25734,0-0.46789-0.20536-0.46789-0.46403
			c0-0.2606,0.21055-0.46789,0.46789-0.46789C100.6017,90.67425,100.81351,90.88154,100.81351,91.14214"/>
		<path class="st148" d="M102.3329,102.42052c0,1.10028-0.89159,1.98475-1.98467,1.98475
			c-1.09176,0-1.97948-0.88447-1.97948-1.98475c0-1.09435,0.88773-1.97881,1.97948-1.97881
			C101.44131,100.44171,102.3329,101.32617,102.3329,102.42052"/>
		<path class="st29" d="M100.81351,102.42052c0,0.26193-0.21181,0.46596-0.46529,0.46596
			c-0.25734,0-0.46789-0.20403-0.46789-0.46596c0-0.2586,0.21055-0.46136,0.46789-0.46136
			C100.6017,101.95916,100.81351,102.16193,100.81351,102.42052"/>
		<path class="st24" d="M118.53146,55.09277c0.26126-5.23074-0.10135-10.88657-2.15364-14.78185
			c-1.05801-3.03158-4.51396-4.91038-8.02454-6.0613c1.56358-0.0344,2.89709-0.02662,2.89709-0.02662
			c-3.73804-2.51631-7.01598-2.34276-9.45942-1.45703c-0.75384-0.10069-1.35694-0.17349-1.74684-0.20536
			c1.74425-1.00724,3.68733-1.69287,3.68733-1.69287c-5.79552-1.41803-10.74622,1.74425-12.91157,3.46054
			c-3.42348,1.15677-6.75205,3.01994-7.78405,5.98264c-2.05103,3.89529-2.4175,9.55112-2.1563,14.78185
			c-0.24043,4.9169-0.03634,8.64456,1.03852,12.3052c2.91792,6.8912,1.53629,12.06284,0.08578,17.41315l18.04414,31.79207v0.11246
			l18.04548-31.78688c-1.23862-4.88569-3.96548-10.97946-0.67844-17.58864
			C118.54184,63.73273,118.74334,59.27859,118.53146,55.09277"/>
		<path class="st8" d="M91.41,51.77324c0.05717,1.64223-1.68575,3.02513-3.88364,3.10638
			c-2.18484,0.06628-4.02132-1.19637-4.07203-2.84186c-0.05457-1.64416,1.68315-3.03491,3.87579-3.10438
			C89.52794,48.85925,91.35277,50.13042,91.41,51.77324"/>
		<path class="st9" d="M89.2394,51.57114c0.13908,1.00278-0.56019,1.93403-1.56876,2.0835
			c-1.00598,0.14035-1.94568-0.58102-2.08602-1.57528c-0.13908-1.01443,0.56924-1.93789,1.58047-2.08216
			C88.16714,49.86203,89.10424,50.56516,89.2394,51.57114"/>
		<path class="st8" d="M115.73052,51.77324c0.05849,1.64223-1.67923,3.02513-3.87579,3.10638
			c-2.19656,0.06628-4.01873-1.19637-4.07076-2.84186c-0.05849-1.64416,1.68188-3.03491,3.87059-3.10438
			C113.84986,48.85925,115.68114,50.13042,115.73052,51.77324"/>
		<path class="st9" d="M113.55998,51.57114c0.14427,1.00278-0.55367,1.93403-1.56876,2.0835
			c-0.99953,0.14035-1.9353-0.58102-2.07438-1.57528c-0.1339-1.01443,0.56018-1.93789,1.57528-2.08216
			C112.49551,49.86203,113.43135,50.56516,113.55998,51.57114"/>
		<path class="st30" d="M99.68929,55.88367c-1.96525,3.32405-6.06456,4.2163-6.06456,4.2163
			c3.21811,2.02633,6.43495,8.17986,6.43495,8.17986s3.07517-6.15353,6.29588-8.17986
			C106.35555,60.09998,101.66225,59.20773,99.68929,55.88367"/>
		<path class="st149" d="M98.13736,97.00652l1.97689,16.39095v10.11902c0,0-7.54102-9.64142-10.22756-16.17513
			c-2.20175-5.36469-8.24288-21.146-8.24288-21.146s5.82539,5.69802,8.20389,7.25833
			C91.58542,94.59748,98.13736,97.00652,98.13736,97.00652"/>
		<path class="st149" d="M81.64381,83.85972c0,0,2.12502,3.85435,6.92234,7.28242c5.59794,3.99344,9.57121,5.86179,9.57121,5.86179
			s-2.60595,1.41863-3.54691,4.95523c-0.37825,1.41863-0.16637,4.66343-0.16637,4.66343s-9.17354-9.70184-12.78027-20.42723
			C81.45275,85.64036,81.64381,83.85972,81.64381,83.85972"/>
		<path class="st142" d="M81.64381,85.57408l1.46349,9.66804l-4.03304,4.20852c0,0,2.67483,6.66181,7.63199,14.23338
			c6.23093,9.51145,13.40155,14.38091,13.40155,14.38091v-4.54844c0,0-5.27692-7.21548-8.17661-13.34692
			C82.76544,90.75284,81.64381,85.57408,81.64381,85.57408"/>
		<path class="st149" d="M102.02745,96.86745l-1.98335,16.39287V123.38c0,0,7.54236-9.63749,10.2289-16.17253
			c2.20434-5.36855,8.24415-21.15119,8.24415-21.15119s-5.82407,5.70061-8.20515,7.26093
			C108.57681,94.45388,102.02745,96.86745,102.02745,96.86745"/>
		<path class="st149" d="M118.51715,83.71804c0,0-2.12762,3.85695-6.92494,7.28435
			c-5.60053,3.99996-9.56476,5.86506-9.56476,5.86506s2.59817,1.41477,3.54053,4.94937
			c0.38338,1.42323,0.16763,4.67122,0.16763,4.67122s9.16961-9.70444,12.78154-20.43176
			C118.70435,85.50713,118.51715,83.71804,118.51715,83.71804"/>
		<path class="st142" d="M118.51715,85.4324l-1.46609,9.67323l4.02918,4.21311c0,0-2.66705,6.65656-7.62939,14.22945
			c-6.22314,9.51145-13.40289,14.38217-13.40289,14.38217V123.38c0,0,5.28211-7.22066,8.17534-13.34758
			C117.40203,90.60797,118.51715,85.4324,118.51715,85.4324"/>
		<path class="st24" d="M169.30284,126.49157c1.36993-1.82091,2.48511-3.63143,3.09601-5.28537
			c3.37276-9.11497-0.06242-11.35119-0.06242-11.35119s0.26778,2.88278-0.76422,5.24637
			c-0.62128,1.4219-1.23216,2.47013-1.71954,2.99265c0,0,1.14119-1.87102,1.67017-3.75687
			c1.31662-4.72518-2.33304-11.70542-2.30835-11.15176c0.21574,5.39584-3.45728,11.02372-0.97218,6.90484
			c1.41151-2.32,2.12509-5.90531,1.54149-8.03686c-0.60957-2.25698-4.24886-4.9754-4.74275-4.79539
			c-1.01244,0.37691,0.65248,0.40879,0.98003,4.65238c0.31456,3.99796-0.42111,0.95401-0.42111,0.95401
			s0.32495,4.50232-0.05589-0.96632c-0.38344-5.49465-5.3653-5.76104-7.54236-4.5881
			c-2.33823,1.25559-3.55862,3.10898-3.55862,3.10898s6.05931-1.31143,4.35799,5.4894c0,0,3.20772,0.38277,6.91328,7.7523
			C169.74086,121.65918,169.30284,126.49157,169.30284,126.49157"/>
		<path class="st147" d="M92.65382,192.05846c0,0-5.91636,3.04137-7.74512,2.77557c0,0-0.59266,0.67265,0.07021,1.21394
			c0,0,3.53919,2.16541,8.2494,1.20747c0,0,0.88254-1.0638,1.49077-0.50494c0,0,0.516,0.54462,1.90801-0.23917l0.22746-1.03979
			c0,0,0.36002-0.41132,0.26772-1.04623l-0.33007-1.76048C96.79219,192.66483,94.83347,193.92102,92.65382,192.05846"/>
		<path class="st9" d="M125.35764,47.0442c0,0,0.03254-0.59725-1.12816-0.76555c-1.16196-0.16637-2.05228-0.97217-12.90631-0.7012
			c-7.6996,0.64597-9.92218,1.50115-9.92218,1.50115s-0.43149,0.12743-1.00598,0.18007
			c-0.31323,0.05457-0.63425,0.08185-0.96571,0.08185c-0.36261,0-0.70965-0.02728-1.04105-0.09489
			c-0.51081-0.05783-0.86304-0.16703-0.86304-0.16703s-2.23296-0.85519-9.93382-1.50115
			c-10.8515-0.27097-11.74568,0.53483-12.90245,0.7012c-1.16716,0.1683-1.13595,0.76555-1.13595,0.76555l0.01038,0.74412
			c-0.09489,2.19849,0.47308,2.23489,0.47308,2.23489c0.07673,0.17216,0.30285,0.4828,0.30285,0.4828
			c0.59007,0.2405,1.37385,2.6918,1.37385,2.6918c1.02674,2.99718,2.60722,3.3695,2.60722,3.3695
			c4.26183,1.54281,11.29077,0.72203,11.29077,0.72203s3.95511-0.1098,5.18728-1.72927
			c0.93578-1.14899,2.3226-4.79087,2.3226-4.79087s0.25081-0.53869,0.79802-0.90716c0.6447-0.30611,1.54021-0.30611,1.54021-0.30611
			s0.88899,0,1.54147,0.30611c0.54848,0.36847,0.89033,1.00013,0.89033,1.00013s1.29712,3.54891,2.23029,4.6979
			c1.22305,1.61947,5.18336,1.72927,5.18336,1.72927s7.03413,0.82078,11.29336-0.72203c0,0,1.57915-0.37233,2.59943-3.3695
			c0,0,0.78764-2.4513,1.37511-2.6918c0,0,0.22485-0.31064,0.30025-0.4828c0,0,0.57449-0.0364,0.47701-2.23489L125.35764,47.0442z
			 M95.71601,51.26636c-1.06062,3.85888-2.62026,4.26115-2.62026,4.26115c-6.0022,1.89371-12.38,0.61802-12.38,0.61802
			c-2.82429-0.20663-3.38055-2.12695-3.38055-2.12695c-0.98389-2.07178-1.22439-5.72537-1.22439-5.72537
			c0-1.7117,4.08248-1.69547,4.08248-1.69547c9.8026-0.58101,14.50502,0.9982,14.50502,0.9982
			C96.75187,48.32961,95.71601,51.26636,95.71601,51.26636 M121.62872,54.01858c0,0-0.56019,1.92032-3.37802,2.12695
			c0,0-6.37772,1.27569-12.38512-0.61802c0,0-1.55446-0.40227-2.62153-4.26115c0,0-1.03333-2.93675,1.02548-3.67043
			c0,0,4.69983-1.57921,14.49976-0.9982c0,0,4.08121-0.01624,4.08121,1.69547
			C122.85051,48.29321,122.60482,51.9468,121.62872,54.01858"/>
		<path class="st150" d="M81.71268,83.65376c0,0,10.9593,10.24187,32.01627,22.73419c0,0,3.67435,9.34969-8.14153,15.72482
			C105.58741,122.11276,62.3038,101.02266,81.71268,83.65376"/>
		<path class="st144" d="M91.66993,113.63011c0,0-20.64231,36.39508-19.90538,47.60266l19.90538,5.71812l3.68081-50.89225
			L91.66993,113.63011z"/>
		<path class="st151" d="M93.87814,114.85769c0,0-17.17592,19.45567-13.49898,37.91445c0,0,30.45922,7.91475,37.02414,7.47542
			c0,0-11.02692-30.55278-11.81589-38.4662L93.87814,114.85769z"/>
		<path class="st151" d="M92.31197,104.19731c0,0,14.23078-11.68918,26.20518-20.47927c0,0,9.52443,14.58887-10.57068,31.47105
			l-15.63451-10.33217"/>
		<path class="st47" d="M162.95886,97.33926l-1.04364,6.01059c0,0-0.61742-2.36419-4.83372-2.82302
			c-0.78372-0.14035-3.04915-0.23065-3.04915-0.23065s1.28799-2.97575,5.09885-3.48656
			c2.31613-0.30997,3.36238,0.73108,3.52229,0.34963"/>
		<path class="st152" d="M93.53116,114.85769c0,0,9.45815,6.86777,12.05625,7.22972"/>
		<path class="st152" d="M100.21307,97.82211c0,0,9.6206,8.22272,13.96041,11.16273"/>
		<g>
			<path class="st153" d="M169.7682,179.19115c-0.28468,0.1436-0.59399,0.24695-0.93065,0.29439
				c-1.54015,0.20863-2.95558-0.87541-3.15961-2.41815c-0.0416-0.28854-11.25311-85.1597-12.66203-97.02363
				c-0.42496-3.57426-1.57002-6.08732-3.40657-7.47021c-2.13939-1.61494-4.69856-1.22439-4.72452-1.22439
				c-0.0507,0.01305-0.06886,0.01564-0.11958,0.02016c-7.49297,0.97477-6.3141,11.52927-6.26213,11.97832
				c0.18587,1.54281-0.90974,2.94387-2.44864,3.13174c-1.53761,0.18972-2.93874-0.89818-3.13239-2.43766
				c-0.71352-5.70847,0.68369-16.85497,11.05945-18.24306c0.80061-0.12996,5.02863-0.65634,8.90701,2.20435
				c3.1714,2.33564,5.09239,6.16072,5.71233,11.37655c1.40373,11.82174,12.61131,96.65257,12.65031,96.94245
				C171.41104,177.52556,170.78456,178.65437,169.7682,179.19115z"/>
			<g>
				<defs>
					<path id="SVGID_59_" d="M169.7682,179.19115c-0.28468,0.1436-0.59399,0.24695-0.93065,0.29439
						c-1.54015,0.20863-2.95558-0.87541-3.15961-2.41815c-0.0416-0.28854-11.25311-85.1597-12.66203-97.02363
						c-0.42496-3.57426-1.57002-6.08732-3.40657-7.47021c-2.13939-1.61494-4.69856-1.22439-4.72452-1.22439
						c-0.0507,0.01305-0.06886,0.01564-0.11958,0.02016c-7.49297,0.97477-6.3141,11.52927-6.26213,11.97832
						c0.18587,1.54281-0.90974,2.94387-2.44864,3.13174c-1.53761,0.18972-2.93874-0.89818-3.13239-2.43766
						c-0.71352-5.70847,0.68369-16.85497,11.05945-18.24306c0.80061-0.12996,5.02863-0.65634,8.90701,2.20435
						c3.1714,2.33564,5.09239,6.16072,5.71233,11.37655c1.40373,11.82174,12.61131,96.65257,12.65031,96.94245
						C171.41104,177.52556,170.78456,178.65437,169.7682,179.19115z"/>
				</defs>
				<clipPath id="SVGID_2_">
					<use xlink:href="#SVGID_59_"  style="overflow:visible;"/>
				</clipPath>
				
					<rect x="153.93317" y="107.90388" transform="matrix(0.77655 -0.63006 0.63006 0.77655 -34.09247 125.77292)" style="clip-path:url(#SVGID_2_);fill:#E1244D;" width="12.67897" height="6.0946"/>
				
					<rect x="155.65884" y="119.77757" transform="matrix(0.77644 -0.63019 0.63019 0.77644 -41.18689 129.54886)" style="clip-path:url(#SVGID_2_);fill:#E1244D;" width="12.67909" height="6.09495"/>
				
					<rect x="157.23811" y="131.97046" transform="matrix(0.77648 -0.63014 0.63014 0.77648 -48.51722 133.25711)" style="clip-path:url(#SVGID_2_);fill:#E1244D;" width="12.68082" height="6.09439"/>
				
					<rect x="158.83115" y="142.91656" transform="matrix(0.77631 -0.63036 0.63036 0.77631 -55.06051 136.76718)" style="clip-path:url(#SVGID_2_);fill:#E1244D;" width="12.67974" height="6.09162"/>
				
					<rect x="160.61066" y="156.3327" transform="matrix(0.77634 -0.63032 0.63032 0.77634 -63.11981 140.87941)" style="clip-path:url(#SVGID_2_);fill:#E1244D;" width="12.68199" height="6.09682"/>
				
					<rect x="161.27994" y="169.99876" transform="matrix(0.77644 -0.63019 0.63019 0.77644 -71.57822 144.31857)" style="clip-path:url(#SVGID_2_);fill:#E1244D;" width="12.68021" height="6.09223"/>
				
					<rect x="151.71556" y="95.78869" transform="matrix(0.77645 -0.63018 0.63018 0.77645 -26.95104 121.69859)" style="clip-path:url(#SVGID_2_);fill:#E1244D;" width="12.68084" height="6.09502"/>
				
					<rect x="150.31049" y="82.60886" transform="matrix(0.77652 -0.63009 0.63009 0.77652 -18.9636 117.84595)" style="clip-path:url(#SVGID_2_);fill:#E1244D;" width="12.68031" height="6.09579"/>
				
					<rect x="147.92636" y="71.044" transform="matrix(0.77635 -0.6303 0.6303 0.77635 -12.19771 113.80541)" style="clip-path:url(#SVGID_2_);fill:#E1244D;" width="12.68115" height="6.09355"/>
				
					<rect x="130.45793" y="70.46162" transform="matrix(-0.76616 -0.64265 0.64265 -0.76616 194.36569 217.7431)" style="clip-path:url(#SVGID_2_);fill:#E1244D;" width="12.67994" height="6.09608"/>
				
					<rect x="127.92339" y="82.56902" transform="matrix(-0.76635 -0.64242 0.64242 -0.76635 182.15459 237.48276)" style="clip-path:url(#SVGID_2_);fill:#E1244D;" width="12.68006" height="6.09527"/>
				<polygon style="clip-path:url(#SVGID_2_);fill:#E1244D;" points="149.97975,60.16499 148.04578,74.11242 144.39485,73.07909 
					141.45351,61.68824 				"/>
			</g>
		</g>
		<path class="st47" d="M163.04857,97.33926l-1.04239,6.01059c0,0-0.61475-2.36419-4.83112-2.82302
			c-0.78505-0.14035-3.05048-0.23065-3.05048-0.23065s1.28932-2.97575,5.09889-3.48656
			c2.31349-0.30997,3.36365,0.73108,3.52223,0.34963"/>
	</g>
	<g>
		<path class="st150" d="M115.26004,31.96728c0,0-2.06526-22.19677-6.60911-24.54998
			c-4.54131-2.35314-23.13786-5.8033-25.45008-4.70828C80.88864,3.80345,66.91526,33.6901,66.91526,33.6901l3.37276,1.10088
			c0,0,6.01385-11.77749,13.29235-14.25221c0,0-2.39667,6.2465-1.53496,11.79053L115.26004,31.96728z"/>
		<path class="st8" d="M113.60082,42.21827H84.29355c-2.55468,0-4.64487-2.09019-4.64487-4.64486v-0.96655
			c0-2.55177,2.08781-4.63957,4.63957-4.63957h29.3072c2.55467,0,4.64487,2.09019,4.64487,4.64487v0.96662
			C118.24032,40.13049,116.15254,42.21827,113.60082,42.21827z"/>
		<g>
			<path class="st153" d="M74.05004,36.93682c0,0.28534-1.61724,0.45247-1.65645,0.72698
				c-0.04015,0.28114,1.46428,0.89548,1.3859,1.16236c-0.0797,0.27135-1.67798-0.0258-1.79414,0.22776
				c-0.1174,0.25628,1.15144,1.27179,0.99995,1.50674c-0.1524,0.23637-1.60172-0.49982-1.78539-0.28826
				c-0.18398,0.21193,0.74869,1.5432,0.53658,1.72699c-0.21168,0.18341-1.39636-0.92934-1.63281-0.77717
				c-0.23508,0.15128,0.28635,1.69102,0.02998,1.80823c-0.25353,0.11591-1.07606-1.2856-1.34732-1.2061
				c-0.2667,0.07816-0.20232,1.70259-0.48323,1.74262c-0.27413,0.03906-0.66754-1.53772-0.95245-1.53772
				c-0.28534,0-0.67924,1.57673-0.95372,1.53758c-0.28115-0.0401-0.21671-1.66456-0.48358-1.74284
				c-0.27138-0.0796-1.09443,1.32162-1.34801,1.20558c-0.25633-0.11729,0.26573-1.65681,0.03074-1.80819
				c-0.23643-0.1523-1.42172,0.95981-1.63333,0.77624c-0.21199-0.1839,0.72152-1.51458,0.53769-1.72662
				c-0.18347-0.21161-1.63322,0.52368-1.78542,0.28728c-0.15131-0.23503,1.11822-1.24966,1.001-1.50602
				c-0.11591-0.25349-1.71434,0.04279-1.79383-0.22846c-0.07816-0.26667,1.42664-0.88008,1.38662-1.16098
				c-0.03905-0.2741-1.65625-0.44109-1.65625-0.72599c0-0.2854,1.61723-0.45284,1.65632-0.72731
				c0.04005-0.28121-1.46469-0.89485-1.38647-1.16172c0.07956-0.27145,1.678,0.02481,1.79399-0.22877
				c0.11727-0.25638-1.15205-1.27126-1.00069-1.50624c0.15232-0.23645,1.60184,0.49932,1.78545,0.28774
				c0.18395-0.21196-0.74878-1.54317-0.53667-1.72694c0.21168-0.18339,1.39614,0.92959,1.63263,0.7775
				c0.2351-0.15119-0.28575-1.69111-0.0293-1.80822c0.25354-0.11578,1.07544,1.28611,1.34676,1.20672
				c0.26669-0.07803,0.20292-1.70248,0.48386-1.74243c0.27412-0.03898,0.66728,1.53789,0.95222,1.53789
				c0.28534,0,0.67917-1.57676,0.9537-1.53764c0.28117,0.04007,0.21705,1.66455,0.48399,1.74277
				c0.27142,0.07954,1.09408-1.32192,1.34773-1.20596c0.25639,0.11722-0.26508,1.65694-0.03,1.80824
				c0.23651,0.15222,1.42141-0.96032,1.63311-0.7768c0.21207,0.18384-0.72099,1.51483-0.53707,1.72684
				c0.18353,0.21157,1.63315-0.524,1.78541-0.28758c0.15134,0.23502-1.1181,1.24976-1.00085,1.50616
				c0.11592,0.25349,1.71436-0.0427,1.79385,0.22863c0.07812,0.26667-1.42672,0.87995-1.38672,1.16093
				C72.43285,36.48473,74.05004,36.65184,74.05004,36.93682z"/>
		</g>
	</g>
</g>
</svg>
