<?xml version="1.0" encoding="utf-8"?>
<!-- Generator: Adobe Illustrator 20.0.0, SVG Export Plug-In . SVG Version: 6.00 Build 0)  -->
<!DOCTYPE svg PUBLIC "-//W3C//DTD SVG 1.1//EN" "http://www.w3.org/Graphics/SVG/1.1/DTD/svg11.dtd">
<svg version="1.1" id="Layer_1" xmlns="http://www.w3.org/2000/svg" xmlns:xlink="http://www.w3.org/1999/xlink" x="0px" y="0px"
	 viewBox="0 0 200 200" style="enable-background:new 0 0 200 200;" xml:space="preserve">
<style type="text/css">
	.st0{filter:url(#Adobe_OpacityMaskFilter);}
	.st1{fill:#FFFFFF;}
	.st2{mask:url(#mask-2_4_);}
	.st3{fill:#E1E2E3;}
	.st4{fill:#96D696;}
	.st5{filter:url(#Adobe_OpacityMaskFilter_1_);}
	.st6{mask:url(#mask-4_4_);fill:#96D696;}
	.st7{fill:#504F4F;}
	.st8{fill:#2B2A34;}
	.st9{fill:#424750;}
	.st10{fill:#2B2C2D;}
	.st11{fill:#92BA85;}
	.st12{fill:#59473A;}
	.st13{fill:none;stroke:#F2C24E;}
	.st14{fill:#EFEFE4;}
	.st15{fill:#E0E0C7;}
	.st16{fill:#999999;}
	.st17{fill:#F9C543;}
	.st18{fill:#355B77;}
	.st19{fill:#C7C6C6;}
	.st20{fill:#C49B49;}
	.st21{filter:url(#Adobe_OpacityMaskFilter_2_);}
	.st22{mask:url(#mask-2_3_);}
	.st23{fill:#F9D88F;}
	.st24{fill:#80C0AC;}
	.st25{fill:#F16D6D;}
	.st26{fill:#BABABA;}
	.st27{filter:url(#Adobe_OpacityMaskFilter_3_);}
	.st28{mask:url(#mask-4_3_);fill:#F9D88F;}
	.st29{fill:#444751;}
	.st30{fill:#D6D6D5;}
	.st31{fill:#F2BC86;}
	.st32{fill:#F2F2F2;}
	.st33{fill:#57C4C6;}
	.st34{fill:#B4E219;}
	.st35{fill:#74777C;}
	.st36{fill:#87C6C0;}
	.st37{fill:#89DBD8;}
	.st38{fill-rule:evenodd;clip-rule:evenodd;fill:#444751;}
	.st39{fill-rule:evenodd;clip-rule:evenodd;fill:#D6D6D5;}
	.st40{fill-rule:evenodd;clip-rule:evenodd;fill:#87C6C0;}
	.st41{fill:none;stroke:#F2C24E;stroke-miterlimit:10;}
	.st42{fill:none;stroke:#F2C24E;stroke-linecap:round;stroke-miterlimit:10;}
	.st43{fill:#FFFFFF;stroke:#FFFFFF;stroke-width:0.2;stroke-miterlimit:10;}
	.st44{fill:#E97625;}
	.st45{fill:#F7B456;}
	.st46{fill:#6BA588;}
	.st47{fill:#F2C24E;}
	.st48{fill:#F9F0EB;}
	.st49{fill:none;stroke:#6BA588;stroke-miterlimit:10;}
	.st50{fill:none;}
	.st51{clip-path:url(#SVGID_2_);fill:#14224F;}
	.st52{clip-path:url(#SVGID_2_);}
	.st53{clip-path:url(#SVGID_2_);fill:#CDCCCB;}
	.st54{clip-path:url(#SVGID_2_);fill:#27387D;}
	.st55{clip-path:url(#SVGID_2_);fill:#44474F;}
	.st56{clip-path:url(#SVGID_2_);fill:#DBDBDA;}
	.st57{clip-path:url(#SVGID_2_);fill:#E7E6E6;}
	.st58{clip-path:url(#SVGID_2_);fill:#FFFFFF;}
	.st59{clip-path:url(#SVGID_2_);fill:#2B2B34;}
	.st60{clip-path:url(#SVGID_2_);fill:#A91E23;}
	.st61{clip-path:url(#SVGID_2_);fill:#BBBDBF;}
	.st62{clip-path:url(#SVGID_2_);fill:#BE202E;}
	.st63{clip-path:url(#SVGID_2_);fill:none;stroke:#231F20;stroke-width:0.7213;stroke-miterlimit:10;}
	.st64{clip-path:url(#SVGID_2_);fill:#231F20;}
	.st65{clip-path:url(#SVGID_2_);fill-rule:evenodd;clip-rule:evenodd;fill:#FFBF31;}
	.st66{clip-path:url(#SVGID_2_);fill-rule:evenodd;clip-rule:evenodd;fill:#ED8803;}
	.st67{clip-path:url(#SVGID_2_);fill:#ED8803;}
	.st68{clip-path:url(#SVGID_2_);fill-rule:evenodd;clip-rule:evenodd;}
	.st69{clip-path:url(#SVGID_2_);fill-rule:evenodd;clip-rule:evenodd;fill:#14224F;}
	.st70{fill:#58C0C2;}
	.st71{clip-path:url(#SVGID_4_);fill:#14224F;}
	.st72{clip-path:url(#SVGID_4_);}
	.st73{clip-path:url(#SVGID_4_);fill:#CDCCCB;}
	.st74{clip-path:url(#SVGID_4_);fill:#27387D;}
	.st75{clip-path:url(#SVGID_4_);fill:#44474F;}
	.st76{clip-path:url(#SVGID_4_);fill:#DBDBDA;}
	.st77{clip-path:url(#SVGID_4_);fill:#E7E6E6;}
	.st78{clip-path:url(#SVGID_4_);fill:#FFFFFF;}
	.st79{clip-path:url(#SVGID_4_);fill:#2B2B34;}
	.st80{clip-path:url(#SVGID_4_);fill:#A91E23;}
	.st81{clip-path:url(#SVGID_4_);fill:#BBBDBF;}
	.st82{clip-path:url(#SVGID_4_);fill:#BE202E;}
	.st83{clip-path:url(#SVGID_4_);fill:none;stroke:#231F20;stroke-width:0.7213;stroke-miterlimit:10;}
	.st84{clip-path:url(#SVGID_4_);fill:#231F20;}
	.st85{clip-path:url(#SVGID_4_);fill-rule:evenodd;clip-rule:evenodd;fill:#FFBF31;}
	.st86{clip-path:url(#SVGID_4_);fill-rule:evenodd;clip-rule:evenodd;fill:#ED8803;}
	.st87{clip-path:url(#SVGID_4_);fill:#ED8803;}
	.st88{clip-path:url(#SVGID_4_);fill-rule:evenodd;clip-rule:evenodd;}
	.st89{clip-path:url(#SVGID_4_);fill-rule:evenodd;clip-rule:evenodd;fill:#14224F;}
</style>
<g>
	<path class="st3" d="M39.6,107.3c0.9-4.8,2.5-2.9,5.4-3c0,0-3.3-3.3-0.5-2.9c0,0-2.7-4.7,0.1-4.9c-0.1,0.3-2.1,1.8,4.2-3.2
		c8.9,4.4,21.5,5.9,35.9-12.1l3.3,22.3L78,121.8c0,0-17.6,10.2-32.7-6.5c0,0,0,0,0-0.1c-2.6-2.7-4.4-5.4-5.5-7.7
		c-0.1-0.1-0.2-0.2-0.2-0.4C39.5,107.3,39.5,107.3,39.6,107.3"/>
	<path class="st36" d="M83.9,82.5c0,0-15.4,17.4-31.5,12.2c-0.2-0.1-2.9,18.1-11.4,25.1c0,0,8.9,9.2,24.3,6.1
		C65.3,125.9,84.8,96,83.9,82.5z"/>
	<g>
		<path class="st36" d="M133.4,127.1c-2-5.2-6.6-10.7-15.8-15.3L115.7,97l7.2-12.7c0,0,29.8,6.2,29,38.1c0,0-5.5-3.2-11.1-1.2
			C135.2,123.3,133.4,127.1,133.4,127.1"/>
		<path class="st37" d="M87.6,71.2c-0.4,0.6-0.5,1.3-0.9,2.6c-1.6,5.7-4.4,15.4-10.3,21.1c0,0,5.5,21.5,26.9,21.5
			c21.3,0,26.9-21.5,26.9-21.5c-5.7-5.6-8.6-15.4-10.2-21.1c-0.6-2.3-0.7-2.6-0.8-2.8"/>
		<path class="st7" d="M118.3,160.7L118.3,160.7c9.7-5.1,16.3-15.1,16.3-26.7c0-16.7-14.1-30.3-31.4-30.3C86,103.7,72,117.3,72,134
			c0,11.5,6.6,21.5,16.4,26.7h-0.1c4.7,2.7,8.2,7.4,9.2,12.9c0.2-0.1,1.2-0.6,2.5,0v-9.4c1.1,0.1,2.2,0.2,3.3,0.2
			c1.1,0,2.3-0.1,3.3-0.2v9.4c1.3-0.6,2.3-0.1,2.5,0C110.1,168.1,113.6,163.4,118.3,160.7z"/>
		<path class="st7" d="M103.2,82.1c-20.8,0-37.7,19-37.7,42.4c0,14.4,9,26.1,18.8,33.7c19.8-7.6,31.6-2.1,37.7,0.2
			c9.9-7.6,18.9-19.4,18.9-33.9C141,101.1,124.1,82.1,103.2,82.1z"/>
		<circle class="st38" cx="103.6" cy="79.6" r="1.8"/>
		<path class="st39" d="M104,79.6c0,0.3-0.2,0.4-0.4,0.4c-0.3,0-0.4-0.2-0.4-0.4c0-0.3,0.2-0.4,0.4-0.4
			C103.8,79.2,104,79.3,104,79.6z"/>
		<circle class="st38" cx="103.6" cy="89.9" r="1.8"/>
		<path class="st39" d="M104,89.9c0,0.3-0.2,0.4-0.4,0.4c-0.3,0-0.4-0.2-0.4-0.4c0-0.3,0.2-0.4,0.4-0.4
			C103.8,89.5,104,89.7,104,89.9z"/>
		<path class="st3" d="M120.2,46.5c0.3-4.8-0.1-10-2-13.6c-0.9-2.8-4.2-4.5-7.4-5.6c1.5-0.1,2.6,0,2.6,0c-3.4-2.3-6.4-2.1-8.7-1.3
			c-0.7-0.1-1.3-0.1-1.6-0.2c1.6-0.9,3.4-1.6,3.4-1.6c-5.3-1.3-9.8,1.6-11.9,3.2c-3.2,1.1-6.2,2.8-7.1,5.5c-1.9,3.6-2.2,8.8-2,13.6
			c-0.2,4.5,0,7.9,0.9,11.3c2.4,5.6,1.6,10,0.5,14.3c0,0,0.7,1.2,0.6,1.8l15.6,29.1v0.1l15.7-29c-0.1-0.6,0.5-1.4,0.3-2
			c-1.2-4.2-2.7-9-0.1-14.3C120.3,54.4,120.4,50.4,120.2,46.5z"/>
		<path class="st1" d="M95.4,43.5c0.1,1.5-1.6,2.8-3.5,2.8c-2,0.1-3.7-1.1-3.7-2.6c-0.1-1.5,1.5-2.8,3.5-2.8
			C93.6,40.8,95.3,42,95.4,43.5z"/>
		<path class="st8" d="M93.3,43.3c0.1,0.9-0.5,1.8-1.5,1.9c-0.9,0.1-1.8-0.5-1.9-1.5c-0.1-0.9,0.5-1.8,1.5-1.9
			C92.4,41.7,93.2,42.4,93.3,43.3z"/>
		<path class="st1" d="M117.7,43.5c0.1,1.5-1.5,2.8-3.5,2.8c-2,0.1-3.7-1.1-3.7-2.6c-0.1-1.5,1.5-2.8,3.5-2.8
			C115.9,40.8,117.6,42,117.7,43.5z"/>
		<path class="st8" d="M115.7,43.3c0.1,0.9-0.5,1.8-1.5,1.9c-0.9,0.1-1.8-0.5-1.9-1.5c-0.1-0.9,0.5-1.8,1.5-1.9
			C114.7,41.7,115.5,42.4,115.7,43.3z"/>
		<path class="st9" d="M102.9,47.2c-1.8,3-5.6,3.8-5.6,3.8c3,1.8,5.9,7.5,5.9,7.5s2.8-5.7,5.8-7.5C109,51.1,104.8,50.3,102.9,47.2z"
			/>
		<path class="st10" d="M105.3,175.4l0.1-0.1l-0.1-0.1V173c0-0.3,0.3-0.5,0.5-0.5c0,0,0.7,0.6,2,0.6s1.8-0.6,2.1-0.6
			c0.1,0,0-0.3,0.3,0c1.9,1.8,6.2,2.1,6.2,2.1c0.3,0,0.4,0.4,0.2,0.6c-0.1,0.1-0.1,0.1-0.1,0.1l0.1,0.1c0,0.3-0.3,0.5-0.5,0.5h-10.3
			c-0.3,0-0.5-0.3-0.5-0.5V175.4z"/>
		<path class="st10" d="M101.1,175.5c0,0.3-0.3,0.5-0.5,0.5H90.4c-0.3,0-0.5-0.3-0.5-0.5l0.1-0.1c0-0.1-0.1-0.1-0.1-0.1
			c-0.3-0.3-0.1-0.6,0.2-0.6c0,0,4.3-0.4,6.2-2.1c0.3-0.3,0.3,0,0.3,0c0.3,0,0.9,0.6,2.1,0.6s2-0.6,2-0.6c0.3,0,0.5,0.3,0.5,0.5v2.2
			l-0.1,0.1l0.1,0.1L101.1,175.5L101.1,175.5z"/>
		<path class="st37" d="M99.8,144.5c3.2,0.4,3.5,0.3,7.7,0.1c9.7-0.4,20.5-2.6,31.5-8.1c1.3-3.7,2.1-7.8,2.1-12
			c0-21.1-13.9-38.7-32-41.8c-2-0.3-5.9,5.5-5.9,5.5s-3.8-5.9-5.6-5.6c-18.4,3-32.4,20.6-32.4,42c0,4.1,0.8,7.9,2,11.6
			C67.3,136.1,80.7,143.4,99.8,144.5z"/>
		<path class="st7" d="M102.4,89.6l-3.8-3.8c-0.7-0.7-0.2-2,0.8-2h7.6c1,0,1.5,1.2,0.8,2l-3.8,3.8C103.5,90.1,102.8,90.1,102.4,89.6
			z"/>
		<path class="st7" d="M103.2,136.3l-5.9-5.9l5.2-43.3c0.1-0.8,1.2-0.8,1.3,0l5.2,43.3L103.2,136.3z"/>
		<path class="st40" d="M87.2,72.2c0,0,1.8,3.3,6.1,6.4c4.9,3.5,8.3,5.1,8.3,5.1S99.3,85,98.5,88c-0.3,1.3-0.1,4-0.1,4
			s-8-8.5-11.2-17.8C87,73.7,87.2,72.2,87.2,72.2z"/>
		<path class="st40" d="M119.3,72.1c0,0-1.8,3.3-6.1,6.4c-4.9,3.5-8.3,5.1-8.3,5.1s2.3,1.3,3.1,4.3c0.3,1.3,0.1,4,0.1,4
			s8-8.5,11.2-17.8C119.5,73.7,119.3,72.1,119.3,72.1z"/>
		<path class="st12" d="M139,133.4c-11,5.5-21.8,7.7-31.5,8.1c-4.2,0.2-4.4,0.2-7.7-0.1c-19.1-1.1-32.4-8.4-32.4-8.5
			c-1.1-0.8-1.3-0.5,0,3.2c0.1,0,13.4,7.4,32.4,8.5c3.2,0.4,3.5,0.3,7.7,0.1c9.7-0.4,20.5-2.6,31.5-8.1
			C140.4,132.5,140.5,132.5,139,133.4z"/>
		<path class="st41" d="M100,142.4v1.5c0,0.6,0.4,1,1,0.9l4.5-0.1c0.5,0,0.9-0.4,0.9-0.9v-1.5c0-0.6-0.4-0.9-1-0.9l-4.5,0.1
			C100.4,141.4,100,141.9,100,142.4z"/>
		<line class="st42" x1="106.5" y1="143" x2="103.9" y2="143"/>
		<path class="st3" d="M151.9,122.4c0,0,7,14.1,10.7,13.6c3.7-0.4-12.5,8.8-22.7-3.4c-10.2-12.2,0.1-12.9,0.1-12.9
			S149.5,118.2,151.9,122.4z"/>
	</g>
	<g>
		<g>
			<path class="st43" d="M55.1,93.2c-0.1,0.2-0.2,0.4-0.4,0.4c0,0,0,0,0,0c-0.1-0.1-0.2-0.2-0.2-0.5"/>
		</g>
	</g>
	<g>
		<g>
			<rect x="41.4" y="93.7" transform="matrix(0.9902 -0.1395 0.1395 0.9902 -15.3804 14.9806)" width="115.6" height="46.9"/>
		</g>
		<g>
			
				<rect x="41.4" y="93.7" transform="matrix(0.9902 -0.1395 0.1395 0.9902 -15.3804 14.9806)" class="st44" width="115.6" height="46.9"/>
		</g>
		<g>
			
				<rect x="43.1" y="95.4" transform="matrix(0.9902 -0.1395 0.1395 0.9902 -15.3804 14.9806)" class="st45" width="112.1" height="43.6"/>
		</g>
		<g>
			
				<rect x="44.8" y="105.2" transform="matrix(0.9902 -0.1395 0.1395 0.9902 -14.6671 9.0884)" class="st45" width="25.3" height="7.8"/>
			<path class="st7" d="M44.9,115.6l-1.3-9.1l26.4-3.7l1.3,9.1L44.9,115.6z M45.2,107.6l0.9,6.4l23.7-3.3l-0.9-6.4L45.2,107.6z"/>
		</g>
		<g>
			
				<rect x="127.3" y="111.5" transform="matrix(0.9902 -0.1395 0.1395 0.9902 -14.7302 20.6552)" class="st45" width="25.3" height="7.8"/>
			<path class="st7" d="M127.4,121.8l-1.3-9.1l26.4-3.7l1.3,9.1L127.4,121.8z M127.7,113.9l0.9,6.4l23.7-3.3l-0.9-6.4L127.7,113.9z"
				/>
		</g>
		<g>
			
				<rect x="46.6" y="119" transform="matrix(0.9903 -0.1387 0.1387 0.9903 -15.8072 12.4753)" class="st7" width="70.1" height="1.4"/>
		</g>
		<g>
			
				<rect x="126.2" y="99.6" transform="matrix(0.9903 -0.1387 0.1387 0.9903 -12.5705 20.0834)" class="st7" width="23.2" height="1.4"/>
		</g>
		<g>
			
				<rect x="48.3" y="126.7" transform="matrix(0.9903 -0.1387 0.1387 0.9903 -16.863 12.8504)" class="st7" width="70.9" height="1.4"/>
		</g>
		<g>
			<g>
				
					<rect x="57.9" y="137.8" transform="matrix(0.9902 -0.1395 0.1395 0.9902 -18.9834 9.5937)" class="st7" width="2" height="4.8"/>
			</g>
			<g>
				
					<rect x="57.9" y="137.8" transform="matrix(0.9902 -0.1395 0.1395 0.9902 -18.9834 9.5937)" class="st7" width="2" height="4.8"/>
			</g>
			<g>
				
					<rect x="90.5" y="133.1" transform="matrix(0.9902 -0.1395 0.1395 0.9902 -18.0075 14.1732)" class="st7" width="3.1" height="4.8"/>
			</g>
			<g>
				
					<rect x="87.9" y="133.6" transform="matrix(0.9902 -0.1395 0.1395 0.9902 -18.0998 13.7403)" class="st7" width="2" height="4.8"/>
			</g>
			<g>
				<rect x="68" y="136.4" transform="matrix(0.9902 -0.1395 0.1395 0.9902 -18.6873 10.983)" class="st7" width="2" height="4.8"/>
			</g>
			<g>
				<rect x="70.7" y="136" transform="matrix(0.9902 -0.1395 0.1395 0.9902 -18.608 11.3551)" class="st7" width="2" height="4.8"/>
			</g>
			<g>
				
					<rect x="79.8" y="134.7" transform="matrix(0.9902 -0.1395 0.1395 0.9902 -18.3397 12.6145)" class="st7" width="2" height="4.8"/>
			</g>
			<g>
				
					<rect x="64.4" y="136.8" transform="matrix(0.9902 -0.1395 0.1395 0.9902 -18.7809 10.544)" class="st7" width="2.8" height="4.8"/>
			</g>
			<g>
				
					<rect x="73.5" y="135.6" transform="matrix(0.9902 -0.1395 0.1395 0.9902 -18.5141 11.7957)" class="st7" width="2.8" height="4.8"/>
			</g>
			<g>
				
					<rect x="62.1" y="137.2" transform="matrix(0.9902 -0.1395 0.1395 0.9902 -18.8607 10.1692)" class="st7" width="2" height="4.8"/>
			</g>
			<g>
				
					<rect x="76.8" y="135.2" transform="matrix(0.9902 -0.1395 0.1395 0.9902 -18.4288 12.196)" class="st7" width="2" height="4.8"/>
			</g>
			<g>
				
					<rect x="60.6" y="137.5" transform="matrix(0.9902 -0.1395 0.1395 0.9902 -18.9194 9.894)" class="st7" width="1" height="4.8"/>
			</g>
			<g>
				<rect x="85.6" y="134" transform="matrix(0.9902 -0.1395 0.1395 0.9902 -18.1844 13.343)" class="st7" width="1" height="4.8"/>
			</g>
			<g>
				
					<rect x="84" y="134.2" transform="matrix(0.9902 -0.1395 0.1395 0.9902 -18.2293 13.1325)" class="st7" width="1" height="4.8"/>
			</g>
			<g>
				
					<rect x="82.4" y="134.4" transform="matrix(0.9902 -0.1395 0.1395 0.9902 -18.2786 12.9012)" class="st7" width="1" height="4.8"/>
			</g>
		</g>
		<g>
			<g>
				<path class="st45" d="M136.7,123.6c0.1,0.7,0.7,1.5,1.5,2.2c-0.1-1.2-0.4-2.4-1.2-3.1C136.8,123,136.7,123.3,136.7,123.6z"/>
			</g>
			<g>
				<path class="st7" d="M149.8,124.4l0,0.3c0,0.5-0.1,0.9-0.3,1.3c-0.6-0.4-0.9-1.2-1.2-1.9c-0.2-0.6-0.5-1.2-0.9-1.6l-0.3-0.4
					l-0.3,0.5c-0.6,1-0.7,2.3-0.7,3.5c0,0-0.1,0-0.1-0.1c-1.3-1-2.7-2.1-2.9-3.7l-0.8,0c0,0.9-0.2,2-0.4,3.1
					c-0.2,1.2-0.4,2.3-0.4,3.5c-0.5-0.6-1.2-1.1-1.9-1.7c-0.2-0.2-0.5-0.4-0.7-0.6c0-1.8-0.4-3.7-1.9-4.7l-0.3-0.2l-0.2,0.3
					c-0.5,0.5-0.7,1.1-0.6,1.7c0.1,1.1,1.1,2.2,2.3,3.2c-0.1,1.3-0.4,2.6-0.6,3.4l0.7,0.2c0.2-0.8,0.5-1.9,0.6-3
					c0.1,0.1,0.2,0.1,0.2,0.2c1,0.8,2,1.7,2.5,2.4c0.1,0.4,0.1,0.8,0.3,1.1l0.8-0.1c0.1-0.4-0.1-0.9-0.3-1.3
					c-0.2-1.4,0.1-2.9,0.4-4.4c0.1-0.5,0.2-1,0.2-1.4c0.6,1,1.6,1.8,2.6,2.5c0.2,0.2,0.5,0.4,0.7,0.5l0.6,0.5l0-0.8
					c0-0.3,0-0.5,0-0.8c0-0.9,0-1.8,0.3-2.5c0.1,0.3,0.3,0.6,0.4,0.9c0.4,1,0.9,2,1.8,2.5l0.3,0.1l0.2-0.2c0.6-0.6,0.6-1.4,0.7-2
					l0-0.3L149.8,124.4z M138.2,125.8c-0.8-0.8-1.4-1.5-1.5-2.2c0-0.3,0.1-0.6,0.2-0.9C137.8,123.4,138.1,124.6,138.2,125.8z"/>
			</g>
		</g>
	</g>
	<path class="st19" d="M36.3,103.4c2.7-8,10.1-9.8,12.6-10.1c3.5,5.8,9.5,8.3,9.5,8.3c-3.3,1.1-7.6-1.1-7.6-1.1
		c0.6,1.7,5.9,2.4,5.9,2.4c-4.4,2.1-8.9-1.1-8.9-1.1c0.9,1.5,5.5,2.9,5.5,2.9c-3.3,1.2-8.9-2.2-8.9-2.2c0.6,1.7,6.4,3.1,6.4,3.1
		s-1.9,0.8-5.2,0.7l0.1,0c-0.1,0-0.2,0-0.3-0.1c-1.7-0.1-3.7-0.5-6-1.4l0,0C38.2,104.4,37.2,104,36.3,103.4z"/>
	<path class="st19" d="M147.9,134.2L147.9,134.2c1-2.2,2.2-3.9,3.3-5.1c0-0.1,0.1-0.2,0.2-0.2l0,0.1c2.3-2.4,4.2-3.2,4.2-3.2
		s-3.2,4.9-2.4,6.6c0,0,1.6-6.2,4.9-7.7c0,0-2.4,4.1-1.9,5.8c0,0,0.9-5.4,5.6-6.9c0,0-3.4,4.2-2.6,5.8c0,0,1.6-4.6,4.7-6.1
		c0,0-2.5,6-1.1,12.6c-2,1.5-8.6,5.3-16.1,1.5C146.9,136.4,147.3,135.5,147.9,134.2z"/>
</g>
</svg>
