<?xml version="1.0" encoding="utf-8"?>
<!-- Generator: Adobe Illustrator 19.2.1, SVG Export Plug-In . SVG Version: 6.00 Build 0)  -->
<svg version="1.1" id="Layer_1" xmlns="http://www.w3.org/2000/svg" xmlns:xlink="http://www.w3.org/1999/xlink" x="0px" y="0px"
	 width="200px" height="200px" viewBox="0 0 200 200" style="enable-background:new 0 0 200 200;" xml:space="preserve">
<style type="text/css">
	.st0{fill:#E2E3E4;}
	.st1{fill:#595D62;}
	.st2{fill:#C7702A;}
	.st3{fill:#C9C7C7;}
	.st4{fill:#EA8824;}
	.st5{fill:none;stroke:#C9C7C7;stroke-width:0.75651;stroke-miterlimit:10;}
	.st6{fill-rule:evenodd;clip-rule:evenodd;fill:#444851;}
	.st7{fill-rule:evenodd;clip-rule:evenodd;fill:#D8D7D6;}
	.st8{fill:#FFFFFF;}
	.st9{fill:#2B2B35;}
	.st10{fill:#434850;}
	.st11{fill:#6C4396;}
	.st12{fill:#A4A4A4;}
	.st13{fill:#EA4C65;}
	.st14{fill:#94814F;}
	.st15{fill:#9C2023;}
	.st16{fill:#B7242C;}
	.st17{fill-rule:evenodd;clip-rule:evenodd;fill:#FFFFFF;}
	.st18{fill:#0C4F6E;}
	.st19{fill:#C18E46;}
	.st20{fill:#3180BF;}
	.st21{fill:#D94F4F;}
	.st22{fill:#2C2C2D;}
	.st23{fill:#595E63;}
	.st24{fill:#E3E2E2;}
	.st25{fill:#9D9EA0;}
	.st26{fill:none;stroke:#C8C6C6;stroke-width:0.75651;stroke-miterlimit:10;}
	.st27{fill:#2A2E35;}
	.st28{fill-rule:evenodd;clip-rule:evenodd;fill:#454751;}
	.st29{fill-rule:evenodd;clip-rule:evenodd;fill:#D8D7D5;}
	.st30{fill:#434851;}
	.st31{fill:#EC9424;}
	.st32{fill:#445AA4;}
	.st33{clip-path:url(#SVGID_2_);fill:#58C1C4;}
	.st34{fill:#B7DBDB;}
	.st35{fill:#58C1C4;}
	.st36{fill:none;stroke:#434851;stroke-width:1.51302;stroke-linecap:round;stroke-linejoin:round;stroke-miterlimit:10;}
	.st37{clip-path:url(#SVGID_4_);fill:#58C1C4;}
	.st38{fill:#010101;}
	.st39{fill:#161718;}
	.st40{fill-rule:evenodd;clip-rule:evenodd;fill:#010101;}
	.st41{fill:#272626;}
	.st42{fill:#17191A;}
	.st43{fill:#D4D5D4;}
	.st44{fill-rule:evenodd;clip-rule:evenodd;fill:#272626;}
	.st45{fill-rule:evenodd;clip-rule:evenodd;fill:#E2E3E4;}
	.st46{fill:#19244E;}
	.st47{fill:#E3E1E1;}
	.st48{fill:#8E1B27;}
	.st49{fill:#CA2033;}
	.st50{fill:#EFE0A7;}
	.st51{fill:none;stroke:#EFE0A7;stroke-width:0.09335;stroke-miterlimit:10;}
	.st52{fill:#EECA81;}
	.st53{fill:#F3F3F3;}
	.st54{font-family:'Georgia';}
	.st55{font-size:2.08181px;}
	.st56{font-size:2.08204px;}
	.st57{fill:#A0A1A4;}
	.st58{fill:#EB6B6D;}
	.st59{fill:none;stroke:#CAC8C6;stroke-width:0.02289;stroke-miterlimit:10;}
	.st60{fill:#464951;}
	.st61{fill:#D7D6D6;}
	.st62{fill:#EECC82;}
	.st63{fill:#F0E0A9;}
	.st64{fill:none;stroke:#F0E0A9;stroke-width:0.01145;stroke-miterlimit:10;}
	.st65{fill:#5AC1C2;}
	.st66{clip-path:url(#SVGID_6_);fill:#E2E3E4;}
	.st67{fill:#EE7823;}
	.st68{fill:#D6563D;}
	.st69{fill:#70533D;}
	.st70{fill:#81BCA9;}
	.st71{clip-path:url(#SVGID_8_);fill:#E2E3E4;}
	.st72{fill:none;stroke:#EFE0A7;stroke-width:0.37825;stroke-miterlimit:10;}
	.st73{clip-path:url(#SVGID_10_);}
	.st74{clip-path:url(#SVGID_12_);fill:#E3E2E2;}
	.st75{clip-path:url(#SVGID_12_);}
	.st76{fill-rule:evenodd;clip-rule:evenodd;fill:#1AAEA1;}
	.st77{fill-rule:evenodd;clip-rule:evenodd;fill:#0C8C70;}
	.st78{fill:#1AAEA1;}
	.st79{fill:#6F513B;}
	.st80{fill:#515050;}
	.st81{fill:#D4563A;}
	.st82{fill:none;}
	.st83{clip-path:url(#SVGID_14_);}
	.st84{clip-path:url(#SVGID_16_);fill:#E3E2E2;}
	.st85{clip-path:url(#SVGID_16_);}
	.st86{fill:#EEE3A3;}
	.st87{fill:none;stroke:#F0E0A9;stroke-width:0.37825;stroke-miterlimit:10;}
	.st88{clip-path:url(#SVGID_18_);}
	.st89{fill-rule:evenodd;clip-rule:evenodd;fill:#434850;}
	.st90{clip-path:url(#SVGID_20_);}
	.st91{fill:none;stroke:#E4CC21;stroke-width:1.92135;stroke-miterlimit:10;}
	.st92{fill:none;stroke:#FFFFFF;stroke-width:2.2037;stroke-miterlimit:10;}
	.st93{fill:#E4CC21;}
	.st94{fill:#232244;}
	.st95{fill:#C8C6C6;}
	.st96{fill:#542F19;}
	.st97{fill-rule:evenodd;clip-rule:evenodd;fill:#3D2E21;}
	.st98{fill:#3D2E21;}
	.st99{fill-rule:evenodd;clip-rule:evenodd;fill:#232244;}
	.st100{fill-rule:evenodd;clip-rule:evenodd;fill:#2E3280;}
	.st101{fill:#281911;}
	.st102{fill-rule:evenodd;clip-rule:evenodd;fill:#E4CC21;}
	.st103{fill-rule:evenodd;clip-rule:evenodd;fill:#D85127;}
	.st104{clip-path:url(#SVGID_22_);}
	.st105{fill-rule:evenodd;clip-rule:evenodd;fill:#EE7434;}
	.st106{fill:#17733B;}
	.st107{clip-path:url(#SVGID_24_);}
	.st108{fill:#1D73B6;}
	.st109{fill:#115E8E;}
	.st110{clip-path:url(#SVGID_26_);}
	.st111{fill:none;stroke:#FFFFFF;stroke-width:1.49993;stroke-miterlimit:10;}
	.st112{fill:none;stroke:#CAC8C6;stroke-width:0.024;stroke-miterlimit:10;}
	.st113{clip-path:url(#SVGID_28_);fill:#E2E3E4;}
	.st114{fill:#603A17;}
	.st115{fill:#78471F;}
	.st116{fill:#F8FAFD;}
	.st117{clip-path:url(#SVGID_30_);}
	.st118{clip-path:url(#SVGID_32_);}
	.st119{fill:none;stroke:#FFFFFF;stroke-width:0.49998;stroke-miterlimit:10;}
	.st120{fill:none;stroke:#FFFFFF;stroke-width:0.74997;stroke-miterlimit:10;}
	.st121{clip-path:url(#SVGID_34_);}
	.st122{clip-path:url(#SVGID_36_);}
	.st123{clip-path:url(#SVGID_38_);fill:#E2E3E4;}
	.st124{clip-path:url(#SVGID_40_);}
	.st125{clip-path:url(#SVGID_42_);}
	.st126{clip-path:url(#SVGID_44_);}
	.st127{opacity:0.7;fill:#434850;}
	.st128{fill:#5B3287;}
	.st129{fill:#643E1E;}
	.st130{fill:#C8D6DE;}
	.st131{fill:none;stroke:#CAC7C6;stroke-width:0.75651;stroke-miterlimit:10;}
	.st132{fill:#B6C3CE;}
	.st133{fill:#273980;}
	.st134{fill:#2B2C35;}
	.st135{clip-path:url(#SVGID_46_);fill:#FFFFFF;stroke:#5A3B84;stroke-width:4.53905;stroke-miterlimit:10;}
	.st136{fill:#C8C7C9;}
	.st137{fill:#056F43;}
	.st138{clip-path:url(#SVGID_48_);}
	.st139{fill:#EBEDF1;}
	.st140{fill:#CF2B29;}
	.st141{fill-rule:evenodd;clip-rule:evenodd;fill:#273980;}
	.st142{fill:#D6232A;}
	.st143{clip-path:url(#SVGID_52_);fill:#FFFFFF;stroke:#5A3B84;stroke-width:4.53905;stroke-miterlimit:10;}
	.st144{clip-path:url(#SVGID_54_);}
	.st145{fill:#532D17;}
	.st146{fill:none;stroke:#5E1116;stroke-width:0.95369;stroke-miterlimit:10;}
	.st147{fill-rule:evenodd;clip-rule:evenodd;fill:#5E1116;}
	.st148{fill:none;stroke:#5E1116;stroke-width:0.94639;stroke-miterlimit:10;}
	.st149{fill:#291B13;}
	.st150{fill-rule:evenodd;clip-rule:evenodd;fill:#291B13;}
	.st151{fill-rule:evenodd;clip-rule:evenodd;fill:#454850;}
	.st152{fill-rule:evenodd;clip-rule:evenodd;fill:#74441F;}
	.st153{fill:#7F161B;}
	.st154{fill-rule:evenodd;clip-rule:evenodd;fill:#7F161B;}
	.st155{fill:none;stroke:#5E1116;stroke-width:1.04342;stroke-miterlimit:10;}
	.st156{fill:#E4E0E4;}
	.st157{clip-path:url(#SVGID_58_);fill:#E1244D;}
	.st158{clip-path:url(#SVGID_60_);fill:#E1244D;}
	.st159{fill:#292933;}
	.st160{fill:none;stroke:#CAC8C6;stroke-width:0.02378;stroke-miterlimit:10;}
	.st161{fill:none;stroke:#F0E0A9;stroke-width:0.01189;stroke-miterlimit:10;}
	.st162{clip-path:url(#SVGID_62_);fill:#E2E3E4;}
	.st163{fill:#2F465D;}
	.st164{fill:#432F21;}
	.st165{fill-rule:evenodd;clip-rule:evenodd;fill:#3D5F7C;}
	.st166{fill-rule:evenodd;clip-rule:evenodd;fill:#2F465D;}
	.st167{clip-path:url(#SVGID_64_);fill:#2C2C2D;}
	.st168{clip-path:url(#SVGID_66_);fill:#F8B917;}
	.st169{clip-path:url(#SVGID_66_);fill:#1F4394;}
	.st170{clip-path:url(#SVGID_68_);fill:#E8212F;}
	.st171{clip-path:url(#SVGID_68_);fill:#C9C8C8;}
	.st172{clip-path:url(#SVGID_68_);fill:#2A2E35;}
	.st173{clip-path:url(#SVGID_68_);fill:#444750;}
	.st174{clip-path:url(#SVGID_68_);fill:#D7D7D6;}
	.st175{clip-path:url(#SVGID_68_);fill:#E3E2E2;}
	.st176{clip-path:url(#SVGID_68_);fill:#FFFFFF;}
	.st177{clip-path:url(#SVGID_68_);fill:#2B2D34;}
	.st178{clip-path:url(#SVGID_68_);fill:#B9252D;}
	.st179{clip-path:url(#SVGID_68_);fill:#24345B;}
	.st180{clip-path:url(#SVGID_68_);fill:#F7F6F8;}
	.st181{clip-path:url(#SVGID_70_);fill:#1F4394;}
	.st182{clip-path:url(#SVGID_70_);fill:#F8B917;}
	.st183{clip-path:url(#SVGID_70_);fill:#883D1E;}
	.st184{clip-path:url(#SVGID_70_);fill:#F5D07C;}
	.st185{clip-path:url(#SVGID_72_);fill:#E8212F;}
	.st186{clip-path:url(#SVGID_72_);fill:#E3E2E2;}
	.st187{clip-path:url(#SVGID_72_);fill:#F7F6F8;}
	.st188{clip-path:url(#SVGID_72_);fill:#F8B917;}
	.st189{clip-path:url(#SVGID_72_);fill:#888983;}
	.st190{clip-path:url(#SVGID_74_);fill:#888983;}
	.st191{clip-path:url(#SVGID_74_);fill:#624219;}
	.st192{clip-path:url(#SVGID_76_);fill:#E3E2E2;}
	.st193{clip-path:url(#SVGID_76_);fill:#2C2C2D;}
	.st194{clip-path:url(#SVGID_76_);fill:#888983;}
	.st195{clip-path:url(#SVGID_78_);fill:#F8B917;}
	.st196{clip-path:url(#SVGID_78_);fill:#1F4394;}
	.st197{clip-path:url(#SVGID_80_);fill:#E8212F;}
	.st198{clip-path:url(#SVGID_80_);fill:#C9C8C8;}
	.st199{clip-path:url(#SVGID_80_);fill:#2A2E35;}
	.st200{clip-path:url(#SVGID_80_);fill:#444750;}
	.st201{clip-path:url(#SVGID_80_);fill:#D7D7D6;}
	.st202{clip-path:url(#SVGID_80_);fill:#E3E2E2;}
	.st203{clip-path:url(#SVGID_80_);fill:#FFFFFF;}
	.st204{clip-path:url(#SVGID_80_);fill:#2B2D34;}
	.st205{clip-path:url(#SVGID_80_);fill:#B9252D;}
	.st206{clip-path:url(#SVGID_80_);fill:#24345B;}
	.st207{clip-path:url(#SVGID_80_);fill:#F7F6F8;}
	.st208{clip-path:url(#SVGID_82_);fill:#1F4394;}
	.st209{clip-path:url(#SVGID_82_);fill:#F8B917;}
	.st210{clip-path:url(#SVGID_82_);fill:#883D1E;}
	.st211{clip-path:url(#SVGID_82_);fill:#F5D07C;}
	.st212{clip-path:url(#SVGID_84_);fill:#E8212F;}
	.st213{clip-path:url(#SVGID_84_);fill:#E3E2E2;}
	.st214{clip-path:url(#SVGID_84_);fill:#F7F6F8;}
	.st215{clip-path:url(#SVGID_84_);fill:#F8B917;}
	.st216{clip-path:url(#SVGID_84_);fill:#888983;}
	.st217{clip-path:url(#SVGID_86_);fill:#888983;}
	.st218{clip-path:url(#SVGID_86_);fill:#624219;}
	.st219{clip-path:url(#SVGID_88_);fill:#E3E2E2;}
	.st220{clip-path:url(#SVGID_88_);fill:#2C2C2D;}
	.st221{clip-path:url(#SVGID_90_);fill:#2C2C2D;}
	.st222{clip-path:url(#SVGID_92_);fill:#F8B917;}
	.st223{clip-path:url(#SVGID_92_);fill:#1F4394;}
	.st224{clip-path:url(#SVGID_94_);fill:#E8212F;}
	.st225{clip-path:url(#SVGID_94_);fill:#C9C8C8;}
	.st226{clip-path:url(#SVGID_94_);fill:#2A2E35;}
	.st227{clip-path:url(#SVGID_94_);fill:#444750;}
	.st228{clip-path:url(#SVGID_94_);fill:#D7D7D6;}
	.st229{clip-path:url(#SVGID_94_);fill:#E3E2E2;}
	.st230{clip-path:url(#SVGID_94_);fill:#FFFFFF;}
	.st231{clip-path:url(#SVGID_94_);fill:#2B2D34;}
	.st232{clip-path:url(#SVGID_94_);fill:#B9252D;}
	.st233{clip-path:url(#SVGID_94_);fill:#24345B;}
	.st234{clip-path:url(#SVGID_94_);fill:#F7F6F8;}
	.st235{clip-path:url(#SVGID_96_);fill:#1F4394;}
	.st236{clip-path:url(#SVGID_96_);fill:#F8B917;}
	.st237{clip-path:url(#SVGID_96_);fill:#883D1E;}
	.st238{clip-path:url(#SVGID_96_);fill:#F5D07C;}
	.st239{clip-path:url(#SVGID_98_);fill:#E8212F;}
	.st240{clip-path:url(#SVGID_98_);fill:#E3E2E2;}
	.st241{clip-path:url(#SVGID_98_);fill:#F7F6F8;}
	.st242{clip-path:url(#SVGID_98_);fill:#F8B917;}
	.st243{clip-path:url(#SVGID_98_);fill:#888983;}
	.st244{clip-path:url(#SVGID_100_);fill:#888983;}
	.st245{clip-path:url(#SVGID_100_);fill:#624219;}
	.st246{clip-path:url(#SVGID_102_);fill:#E3E2E2;}
	.st247{clip-path:url(#SVGID_102_);fill:#2C2C2D;}
	.st248{clip-path:url(#SVGID_102_);fill:#888983;}
	.st249{clip-path:url(#SVGID_104_);fill:#F8B917;}
	.st250{clip-path:url(#SVGID_104_);fill:#1F4394;}
	.st251{clip-path:url(#SVGID_106_);fill:#E8212F;}
	.st252{clip-path:url(#SVGID_106_);fill:#C9C8C8;}
	.st253{clip-path:url(#SVGID_106_);fill:#2A2E35;}
	.st254{clip-path:url(#SVGID_106_);fill:#444750;}
	.st255{clip-path:url(#SVGID_106_);fill:#D7D7D6;}
	.st256{clip-path:url(#SVGID_106_);fill:#E3E2E2;}
	.st257{clip-path:url(#SVGID_106_);fill:#FFFFFF;}
	.st258{clip-path:url(#SVGID_106_);fill:#2B2D34;}
	.st259{clip-path:url(#SVGID_106_);fill:#B9252D;}
	.st260{clip-path:url(#SVGID_106_);fill:#24345B;}
	.st261{clip-path:url(#SVGID_106_);fill:#F7F6F8;}
	.st262{clip-path:url(#SVGID_108_);fill:#1F4394;}
	.st263{clip-path:url(#SVGID_108_);fill:#F8B917;}
	.st264{clip-path:url(#SVGID_108_);fill:#883D1E;}
	.st265{clip-path:url(#SVGID_108_);fill:#F5D07C;}
	.st266{clip-path:url(#SVGID_110_);fill:#E8212F;}
	.st267{clip-path:url(#SVGID_110_);fill:#E3E2E2;}
	.st268{clip-path:url(#SVGID_110_);fill:#F7F6F8;}
	.st269{clip-path:url(#SVGID_110_);fill:#F8B917;}
	.st270{clip-path:url(#SVGID_110_);fill:#888983;}
	.st271{clip-path:url(#SVGID_112_);fill:#888983;}
	.st272{clip-path:url(#SVGID_112_);fill:#624219;}
	.st273{clip-path:url(#SVGID_114_);fill:#E3E2E2;}
	.st274{clip-path:url(#SVGID_114_);fill:#2C2C2D;}
	.st275{fill:#EDE2A3;}
	.st276{clip-path:url(#SVGID_116_);}
	.st277{fill-rule:evenodd;clip-rule:evenodd;fill:#434851;}
	.st278{fill-rule:evenodd;clip-rule:evenodd;fill:#E3E2E2;}
	.st279{fill:#2A2B2A;}
	.st280{clip-path:url(#SVGID_118_);}
	.st281{clip-path:url(#SVGID_120_);}
	.st282{clip-path:url(#SVGID_122_);}
	.st283{fill:#1F3566;}
	.st284{fill:#E3E4E5;}
	.st285{fill:#4BB1E4;}
	.st286{fill:#2D2A6C;}
	.st287{fill-rule:evenodd;clip-rule:evenodd;fill:#D8D9D5;}
	.st288{fill:#434852;}
	.st289{fill:#E3E3E3;}
	.st290{fill:#162E54;}
	.st291{fill:none;stroke:#335DAB;stroke-width:1.68786;stroke-miterlimit:10;}
	.st292{fill:#81817F;}
	.st293{fill:#142B49;}
	.st294{fill:#5A5A5A;}
	.st295{fill:none;stroke:#FFFFFF;stroke-width:0.84393;stroke-linecap:round;stroke-linejoin:round;stroke-miterlimit:10;}
	.st296{fill:#AB9D9C;}
	.st297{fill:#EA6689;}
	.st298{fill:#CE1D5B;}
	.st299{fill:#BF742A;}
	.st300{fill:#273449;}
	.st301{fill:#A4464B;}
	.st302{fill:none;stroke:#CAC8C6;stroke-width:0.0662;stroke-miterlimit:10;}
	.st303{fill:#80333A;}
	.st304{fill:none;stroke:#B4B4B4;stroke-width:0.25748;stroke-miterlimit:10;}
	.st305{fill:none;stroke:#B4B4B4;stroke-width:3.08973;stroke-miterlimit:10;}
	.st306{fill:none;stroke:#B4B4B4;stroke-width:1.02991;stroke-miterlimit:10;}
	.st307{fill:none;stroke:#82858B;stroke-width:0.51495;stroke-miterlimit:10;}
	.st308{fill:none;stroke:#E2E3E4;stroke-width:1.02991;stroke-miterlimit:10;}
	.st309{fill:#E5E5E5;}
	.st310{fill:#2D2C2D;}
	.st311{fill:#4CB2E5;}
	.st312{fill:#AD2824;}
	.st313{fill-rule:evenodd;clip-rule:evenodd;fill:#D9D9D6;}
	.st314{fill:#E4E4E3;}
	.st315{fill:#DB4826;}
	.st316{fill:#B33725;}
	.st317{fill:#120C0D;}
	.st318{fill:#F3F0F0;}
	.st319{fill:#C4BFBF;}
	.st320{clip-path:url(#SVGID_124_);fill:none;stroke:#F3F0F0;stroke-width:1.10165;stroke-linecap:round;stroke-miterlimit:10;}
	.st321{clip-path:url(#SVGID_126_);fill:none;stroke:#F3F0F0;stroke-width:1.10165;stroke-linecap:round;stroke-miterlimit:10;}
	.st322{clip-path:url(#SVGID_128_);fill:none;stroke:#F3F0F0;stroke-width:1.10165;stroke-linecap:round;stroke-miterlimit:10;}
	.st323{fill:#DE5B2A;}
	.st324{fill:#7A2716;}
	.st325{fill:#E5E4E4;}
	.st326{fill:#BB4928;}
	.st327{fill:#454545;}
	.st328{fill:#6265AE;}
	.st329{fill:none;stroke:#CAC5C4;stroke-width:0.55083;stroke-linecap:round;stroke-miterlimit:10;}
	.st330{fill:#E1E3E3;}
	.st331{fill:#484848;}
	.st332{fill:#422F90;}
	.st333{fill:#D57A28;}
	.st334{fill:#B4B4B5;}
	.st335{fill:#4B4B4D;}
	.st336{fill:#949393;}
	.st337{fill:#040404;}
	.st338{clip-path:url(#SVGID_130_);fill:none;stroke:#F3F0F0;stroke-width:1.10165;stroke-linecap:round;stroke-miterlimit:10;}
	.st339{clip-path:url(#SVGID_132_);fill:none;stroke:#F3F0F0;stroke-width:1.10165;stroke-linecap:round;stroke-miterlimit:10;}
	.st340{clip-path:url(#SVGID_134_);fill:none;stroke:#F3F0F0;stroke-width:1.10165;stroke-linecap:round;stroke-miterlimit:10;}
	.st341{clip-path:url(#SVGID_140_);fill:#AD2824;}
	.st342{fill:#CDCCCC;}
	.st343{fill:#E4E5E6;}
	.st344{opacity:0.72;fill:none;stroke:#FFFFFF;stroke-width:1.1546;stroke-linecap:round;stroke-miterlimit:10;}
	.st345{fill:#BBD867;}
	.st346{fill:none;stroke:#BBD867;stroke-width:5.799;stroke-miterlimit:10;}
	.st347{clip-path:url(#SVGID_146_);fill:#AD2824;}
	.st348{fill:none;stroke:#AE4E85;stroke-width:1.54066;stroke-linecap:round;stroke-linejoin:round;stroke-miterlimit:10;}
	.st349{fill:none;stroke:#E97625;stroke-width:1.62274;stroke-linecap:round;stroke-linejoin:round;stroke-miterlimit:10;}
	.st350{fill:none;stroke:#C9C7C7;stroke-width:0.23348;stroke-miterlimit:10;}
	.st351{fill:#981E5C;}
	.st352{fill:none;stroke:#AE4E85;stroke-width:1.21706;stroke-linecap:round;stroke-linejoin:round;stroke-miterlimit:10;}
	.st353{fill:#AE4E85;}
	.st354{fill:#F7B456;}
	.st355{fill:#E97625;}
	.st356{fill:none;stroke:#E97625;stroke-width:1.54273;stroke-linecap:round;stroke-linejoin:round;stroke-miterlimit:10;}
</style>
<g>
	<path class="st46" d="M118.43228,174.31067l-0.1051,0.00635c12.00937-6.26625,20.16759-18.49409,20.16759-32.54465
		c0-20.44275-17.25552-37.02488-38.54239-37.02488c-21.27686,0-38.53238,16.58213-38.53238,37.02488
		c0,14.05055,8.15402,26.2784,20.16328,32.54465h-0.0966c5.84704,3.34999,10.07223,9.01953,11.32436,15.68079
		c0.25011-0.13554,1.44555-0.69438,3.03384,0.03259v-11.45151c1.35099,0.13757,2.71876,0.21115,4.10751,0.21115
		c1.38928,0,2.76233-0.07358,4.11955-0.21115v11.45151c1.60303-0.73859,2.81116-0.15233,3.03803-0.0284
		C108.3622,183.33655,112.58943,177.66701,118.43228,174.31067"/>
	<path class="st47" d="M189.68991,112.27749c2.12195-7.08562,1.30679-11.6091,1.30679-11.6091s-5.76089,11.5934-9.84108,12.18375
		c0,0,9.99866-10.16883,9.12883-18.04025c0,0-5.04865,9.07945-8.8557,10.31696c0,0,9.1057-7.96072,6.79463-18.46678
		c0,0-4.07803,11.14375-8.15401,11.55338c0,0,6.93544-8.23588,6.32196-15.83526c0,0-28.07365,38.26249-66.89174,3.97089
		l0.78365,32.48365l18.48882,23.43776c0,0,27.38864,10.08266,44.71989-17.18625c0.01259-0.01366,0.02313-0.02937,0.03357-0.04518
		c3.03383-4.52865,4.88062-8.68025,5.99838-12.22678c0.07982-0.21632,0.16179-0.42233,0.2458-0.64285
		C189.76973,112.17142,189.74037,112.20811,189.68991,112.27749"/>
	<path class="st48" d="M155.31958,120.25186c0-7.51633,1.95187-14.56527,5.37857-20.68963
		c-11.12268,2.71445-25.2583,0.87606-41.20274-13.20794l-0.59466,32.52668l19.86498,23.3915c0,0,10.64796,3.91312,22.85687,0.26581
		C157.63074,136.05765,155.31958,128.42159,155.31958,120.25186"/>
	<g>
		<path class="st49" d="M155.31958,120.24767c0,8.17188,2.31116,15.80794,6.30302,22.28847c0,0-3.07588,0.77527-4.10535,0.97061
			c-0.81732,0.15663-1.54849,0.3026-1.54849,0.3026c-3.99187-6.48053-5.65793-15.3983-5.65793-23.5691"/>
		<path class="st49" d="M155.31958,120.24767c0-7.51633,1.95187-14.56312,5.37857-20.68963c0,0-3.56331,0.69642-4.72519,0.8425
			c-0.96857,0.11973-1.47491,0.13651-1.47491,0.13651c-3.42668,6.12447-4.18721,12.18687-4.18721,19.7032"/>
	</g>
	<path class="st47" d="M10.30886,112.84998c-2.12195-7.08562-1.30473-11.61115-1.30473-11.61115s5.75883,11.59544,9.83901,12.18375
		c0,0-9.99865-10.17097-9.12775-18.03821c0,0,5.04757,9.07741,8.85463,10.31491c0,0-9.1057-7.96072-6.79679-18.46893
		c0,0,4.07814,11.1458,8.15617,11.55553c0,0-6.9333-8.23491-6.31982-15.83526c0,0,28.06935,38.26238,66.89175,3.96777
		l-0.78581,32.48676l-18.49098,23.43668c0,0-27.38648,10.08589-44.71774-17.18301c-0.01259-0.01786-0.02302-0.03152-0.03571-0.04733
		c-3.03384-4.5266-4.87955-8.67821-5.99732-12.22893c-0.07874-0.21535-0.16276-0.42017-0.2458-0.6408
		C10.22797,112.74177,10.25841,112.78071,10.30886,112.84998"/>
	<path class="st48" d="M44.6792,120.82231c0-7.51633-1.95393-14.56527-5.37857-20.6907
		c11.12266,2.71553,25.25829,0.87606,41.20274-13.20697l0.5925,32.52571l-19.86499,23.39149c0,0-10.64785,3.91098-22.85472,0.26474
		C42.36599,136.6281,44.6792,128.99203,44.6792,120.82231"/>
	<g>
		<path class="st49" d="M44.6792,120.81812c0,8.17177-2.31322,15.80794-6.30304,22.28632c0,0,3.0759,0.77742,4.10535,0.97276
			c0.81732,0.15652,1.55053,0.3026,1.55053,0.3026c3.98982-6.48053,5.65589-15.3983,5.65589-23.57114"/>
		<path class="st49" d="M44.6792,120.81812c0-7.51644-1.95393-14.56312-5.37857-20.68963c0,0,3.56115,0.69437,4.72303,0.84035
			c0.97073,0.12188,1.47706,0.13662,1.47706,0.13662c3.42464,6.12651,4.18721,12.18687,4.18721,19.7032"/>
	</g>
	<path class="st9" d="M117.41121,131.92184c-1.77536,0-3.50865,0.63972-4.88062,1.80376
		c-1.46232,1.23955-2.35732,2.97188-2.44768,4.74928c-0.08616,1.58948,0.46643,3.09267,1.55054,4.23143
		c1.18501,1.24062,2.84892,1.92982,4.6957,1.92982c1.77751,0,3.51286-0.64511,4.87858-1.80795
		c1.46233-1.23857,2.36151-2.96983,2.45607-4.74927c0.07767-1.59056-0.47063-3.09268-1.56312-4.23251
		C120.92406,132.60255,119.2538,131.92184,117.41121,131.92184 M116.32915,144.93552c-1.92864,0-3.67667-0.71439-4.91214-2.0159
		c-1.14499-1.19974-1.73125-2.78911-1.63874-4.46367c0.09875-1.85303,1.03161-3.66518,2.55482-4.95732
		c1.42445-1.21533,3.23134-1.88034,5.07812-1.88034c1.9308,0,3.67464,0.71857,4.90999,2.01695
		c1.1451,1.2018,1.73341,2.78804,1.64089,4.46573c-0.09875,1.85614-1.02946,3.66409-2.55267,4.95624
		C119.98281,144.27051,118.18013,144.93552,116.32915,144.93552"/>
	<path class="st24" d="M112.3688,142.10014c-2.06946-2.16606-1.7291-5.6433,0.75214-7.75482
		c2.49813-2.1156,6.18536-2.06418,8.24438,0.10402c2.07581,2.17348,1.73965,5.64438-0.75644,7.75795
		C118.12978,144.32408,114.43202,144.2747,112.3688,142.10014"/>
	<path class="st50" d="M118.69067,144.51738c-0.12177-0.32562,0.04421-0.68706,0.36983-0.80893
		c0.32777-0.1208,0.68285,0.04517,0.80882,0.37294l0.82153,2.21446c0.11768,0.32671-0.0483,0.68814-0.36973,0.80894
		c-0.32572,0.11865-0.69125-0.04518-0.80894-0.37091L118.69067,144.51738z"/>
	<path class="st51" d="M118.26425,147.83488c-0.33616-1.14822,0.32766-2.34474,1.47695-2.68402
		c1.1451-0.32776,2.34258,0.32777,2.67875,1.47169c0.33616,1.14929-0.32562,2.35107-1.46857,2.68616
		C119.80005,149.64284,118.60461,148.98309,118.26425,147.83488z"/>
	<text transform="matrix(-0.93314 0.3595 -0.3595 -0.93314 116.08876 132.87172)" class="st9 st54 st55">X</text>
	<text transform="matrix(-0.93314 0.3595 -0.3595 -0.93314 114.86372 133.34891)" class="st9 st54 st55">I</text>
	<text transform="matrix(-0.93314 0.3595 -0.3595 -0.93314 114.26505 133.58374)" class="st9 st54 st55">I</text>
	<text transform="matrix(-0.93314 0.3595 -0.3595 -0.93314 118.72931 140.75929)" class="st9 st54 st55">V</text>
	<text transform="matrix(-0.93314 0.3595 -0.3595 -0.93314 117.62823 141.17931)" class="st9 st54 st55">I</text>
	<text transform="matrix(0.31819 0.94803 -0.94803 0.31819 111.57057 139.75951)" class="st9 st54 st56">I</text>
	<polygon class="st9" points="116.0855,135.81508 117.06666,138.22069 117.26201,138.1398 116.2787,135.74042 	"/>
	<polygon class="st27" points="117.14013,138.11247 117.21156,138.30363 118.91969,137.60925 118.84202,137.41917 	"/>
	<polygon class="st9" points="115.92576,136.07346 116.56236,135.75407 116.53504,135.66695 116.01408,135.34122 	"/>
	<polygon class="st9" points="118.87558,137.77631 118.96175,137.75739 119.32523,137.26363 118.60461,137.11969 	"/>
	<g>
		<path class="st52" d="M120.13825,143.47319c-2.80901-2.94563-2.35098-7.66974,1.02957-10.53651
			c3.37838-2.87204,8.3998-2.81009,11.20463,0.14394c2.81955,2.94766,2.35097,7.66542-1.02945,10.54489
			C127.9645,146.49336,122.94522,146.42924,120.13825,143.47319"/>
		<path class="st30" d="M114.71558,137.69434c0,0,16.03276,1.15553,26.00624-6.58766v2.85527c0,0-7.89133,7.80731-26.00624,6.41963
			V137.69434z"/>
		<path class="st27" d="M113.93407,140.29123c0,0,11.24873,1.06732,19.70739-2.24814
			c9.98811-3.91301,1.74385,15.3983,1.74385,15.3983l-13.00108-0.06723L113.93407,140.29123z"/>
		<path class="st47" d="M120.66567,34.87236c0.28991-5.85554-0.11349-12.19633-2.41411-16.5633
			c-1.18706-3.40259-5.0592-5.50572-8.99437-6.79044c1.76062-0.04303,3.24812-0.03356,3.24812-0.03356
			c-4.18937-2.8217-7.8682-2.6242-10.59116-1.62938c-0.84981-0.11553-1.53106-0.18911-1.96178-0.23526
			c1.95759-1.12197,4.13634-1.89304,4.13634-1.89304C97.58667,6.14113,92.03793,9.6813,89.61122,11.6079
			c-3.83427,1.29634-7.56152,3.37634-8.71909,6.70116c-2.30278,4.36697-2.70821,10.70776-2.41615,16.5633
			c-0.27743,5.5098-0.04626,9.68766,1.15757,13.78989c3.27125,7.71803,1.72491,13.51892,0.10714,19.51205l20.21169,35.62042v0.13544
			l20.21954-35.6214c-1.38035-5.47839-4.44151-12.30035-0.75633-19.71159C120.68461,44.55379,120.90308,39.56172,120.66567,34.87236
			"/>
		<path class="st8" d="M90.27096,31.15147c0.06508,1.84679-1.88885,3.39517-4.35116,3.48241
			c-2.45187,0.07455-4.49615-1.33937-4.56135-3.18616c-0.06508-1.83635,1.8825-3.39635,4.34072-3.48144
			C88.16159,27.89066,90.20587,29.312,90.27096,31.15147"/>
		<path class="st9" d="M87.84425,30.92245c0.15135,1.12821-0.63026,2.17455-1.76266,2.33215
			c-1.12412,0.15964-2.1767-0.645-2.32999-1.75858c-0.15555-1.13036,0.63026-2.16821,1.76266-2.33634
			C86.64257,29.01682,87.69096,29.79736,87.84425,30.92245"/>
		<path class="st8" d="M117.53094,31.15147c0.06303,1.84679-1.8867,3.39517-4.34276,3.48241
			c-2.46243,0.07455-4.50671-1.33937-4.5676-3.18616c-0.06508-1.83635,1.88046-3.39635,4.33857-3.48144
			C115.42157,27.89066,117.4679,29.312,117.53094,31.15147"/>
		<path class="st9" d="M115.10004,30.92245c0.15759,1.12821-0.62391,2.17455-1.75847,2.33215
			c-1.1282,0.15964-2.17455-0.645-2.32795-1.75858c-0.1534-1.13036,0.63242-2.16821,1.76277-2.33634
			C113.90879,29.01682,114.94879,29.79736,115.10004,30.92245"/>
		<path class="st49" d="M124.9013,34.06977c0,0-0.63037,2.16294-3.80706,2.40142c0,0-7.20438,1.44124-13.96954-0.70072
			c0,0-1.75858-0.45374-2.95821-4.81027c0,0-1.17662-3.31115,1.15134-4.14107c0,0,5.29874-1.77536,16.35633-1.12401
			c0,0,4.60954-0.01366,4.60954,1.91197C126.2837,27.6071,126.00638,31.72923,124.9013,34.06977 M95.66426,30.96021
			c-1.19555,4.35653-2.95821,4.81027-2.95821,4.81027c-6.76527,2.14196-13.96329,0.70072-13.96329,0.70072
			c-3.18304-0.23848-3.8133-2.40142-3.8133-2.40142c-1.10723-2.34054-1.38454-6.46267-1.38454-6.46267
			c0-1.92564,4.61169-1.91197,4.61169-1.91197c11.05758-0.65134,16.35633,1.12401,16.35633,1.12401
			C96.83453,27.64905,95.66426,30.96021,95.66426,30.96021 M129.11583,26.19835c0,0,0.02948-0.6692-1.28365-0.86455
			c-1.30688-0.18911-2.31321-1.08938-14.56-0.79312c-8.68757,0.73213-11.19409,1.69651-11.19409,1.69651
			s-0.48536,0.14285-1.13982,0.2017c-0.3509,0.06099-0.71062,0.1009-1.08464,0.1009c-0.40759,0-0.80463-0.03991-1.17867-0.11456
			c-0.56937-0.06723-0.97061-0.18804-0.97061-0.18804s-2.51492-0.96438-11.19839-1.69651
			c-12.25517-0.29625-13.25731,0.60401-14.56419,0.79312c-1.30678,0.19535-1.28365,0.86455-1.28365,0.86455l0.01474,0.8425
			c-0.10725,2.48027,0.53571,2.52018,0.53571,2.52018c0.08617,0.19115,0.3467,0.55044,0.3467,0.55044
			c0.66178,0.27205,1.54214,3.03072,1.54214,3.03072c1.15338,3.38258,2.93928,3.80071,2.93928,3.80071
			c4.80285,1.74481,12.74258,0.82045,12.74258,0.82045s4.46249-0.13027,5.85339-1.95188
			c1.05054-1.29634,2.61571-5.41213,2.61571-5.41213s0.28151-0.60928,0.89929-1.01795
			c0.73321-0.34563,1.74169-0.34982,1.74169-0.34982s1.00687,0.00419,1.73492,0.34982
			c0.61982,0.40866,1.01063,1.1209,1.01063,1.1209s1.46017,4.01284,2.5106,5.30919c1.39305,1.82161,5.84919,1.95188,5.84919,1.95188
			s7.93974,0.92436,12.74258-0.82045c0,0,1.78171-0.41813,2.94359-3.80071c0,0,0.87605-2.75867,1.54418-3.03072
			c0,0,0.25635-0.35929,0.34251-0.55044c0,0,0.64284-0.03991,0.53366-2.52018L129.11583,26.19835z"/>
		<path class="st30" d="M99.55114,35.76316c-2.21243,3.7167-6.79044,4.72303-6.79044,4.72303
			c3.59901,2.27018,7.20427,9.1625,7.20427,9.1625s3.45143-6.89231,7.05463-9.1625
			C107.0196,40.48619,101.75452,39.47986,99.55114,35.76316"/>
		<path class="st8" d="M129.60335,90.41135c-4.9542-6.89027-7.54688-16.38054-9.42519-22.10258
			c-0.00624-0.01582-0.01259-0.0284-0.01678-0.04314c-0.59874-2.36463-1.50427-4.97722-2.04428-7.77999v0.01054
			c-14.43597,8.40821-36.94345,1.57678-36.94345,1.57678l0.00204-0.00947c-0.3424,2.04429-0.87186,4.02973-1.41392,6.03411
			c-0.00839,0.02517-0.01894,0.04722-0.02312,0.07347c-1.77956,5.82198-4.31544,15.10313-9.42088,22.10473
			c-10.22983,9.49123-15.92777,24.7739-16.74715,39.81507c-0.95383,17.6032,92.63271,17.75766,92.63271,0
			C146.20332,114.15472,139.74905,99.90366,129.60335,90.41135z"/>
		<path class="st46" d="M104.92917,95.47678c-1.11777,0-2.13884-0.67651-3.04653-1.27837
			c-0.69857-0.46643-1.42177-0.94341-1.94919-0.94975c-0.00204,0-0.0042,0-0.00839,0c-0.59455,0-1.35723,0.48752-2.09678,0.96126
			c-0.97492,0.62402-1.98341,1.2659-3.09688,1.17759c-1.19963-0.0966-2.17036-0.97062-3.02964-1.73965
			c-0.61767-0.55463-1.25428-1.12606-1.76062-1.20383c-0.62197-0.09455-1.46448,0.28991-2.27965,0.66286
			c-1.04,0.47375-2.11152,0.9633-3.17249,0.72385c-1.22492-0.27312-2.08839-1.29634-2.85107-2.20187
			c-0.51473-0.60928-1.0442-1.2417-1.48965-1.37304c-0.71223-0.21117-1.66811,0.0725-2.59258,0.34778
			c-1.07367,0.31927-2.08634,0.61767-3.00027,0.27312c-1.99168-0.75117-2.38884-1.9266-2.68294-2.78179
			c-0.21429-0.62822,0.81517-2.25964,1.05043-1.93715c0.33616,0.45708,0.44761,0.93082,0.59885,1.37412
			c0.25838,0.75429,0.42856,1.25224,1.64928,1.71544c0.36552,0.13758,1.17446-0.10187,1.88884-0.31615
			c1.11562-0.32992,2.37614-0.70384,3.58428-0.34455c0.94329,0.27937,1.64713,1.11455,2.3258,1.92241
			c0.61564,0.72482,1.24794,1.47695,1.89928,1.62304c0.48956,0.10606,1.29214-0.25635,2.06741-0.61143
			c1.00009-0.45589,2.13464-0.97062,3.26704-0.79948c1.01903,0.15555,1.85518,0.9035,2.66196,1.63046
			c0.68491,0.61552,1.39294,1.25008,2.00642,1.30043c0.53162,0.04626,1.2859-0.44223,2.01911-0.90973
			c0.9476-0.60821,1.92876-1.23535,3.03384-1.23535c0.00635,0,0.01678,0,0.02517,0c1.04474,0.00947,1.98706,0.63445,2.89894,1.23955
			c0.75633,0.50429,1.54214,1.02537,2.14508,0.98546c0.53581-0.03679,1.21857-0.63037,1.8783-1.20921
			c0.84885-0.74159,1.72706-1.50954,2.81956-1.66499c1.03784-0.14812,2.06322,0.32357,3.05696,0.78162
			c0.82571,0.3823,1.68295,0.77526,2.26072,0.64704c0.52936-0.1208,1.11143-0.81733,1.67446-1.4917
			c0.72061-0.8625,1.46436-1.75642,2.5191-2.07999c1.00214-0.31196,2.08839-0.0042,3.14098,0.29205
			c0.87617,0.24796,1.78172,0.50322,2.33634,0.28367c0.50214-0.2017,0.96858-0.97912,1.42027-1.73018
			c0.3026-0.50957,0.55464-0.99482,0.87198-1.41295c0.28151-0.37714,1.30677,1.20598,0.96008,1.75223
			c-0.11338,0.18169-0.22688,0.36875-0.33617,0.55464c-0.60089,1.00224-1.22276,2.03793-2.27319,2.45403
			c-1.10304,0.4391-2.35108,0.0882-3.45197-0.22483c-0.80894-0.22697-1.64509-0.46331-2.15358-0.30679
			c-0.55883,0.17438-1.13875,0.86778-1.69554,1.53483c-0.74998,0.89812-1.52321,1.82474-2.62829,2.07365
			c-1.15973,0.26269-2.33634-0.28463-3.37839-0.76365c-0.76064-0.3509-1.55484-0.71653-2.07581-0.6408
			c-0.58411,0.08606-1.26278,0.68071-1.92036,1.25428c-0.87821,0.76785-1.78579,1.56097-2.91196,1.6367
			C105.0489,95.47581,104.98801,95.47678,104.92917,95.47678z"/>
		<path class="st46" d="M62.17213,107.27392c0.14705,1.11465,0.25214,1.91929,1.70597,2.64626
			c0.44341,0.22482,1.5401-0.09144,2.50652-0.36983c1.46867-0.42437,3.13054-0.89919,4.54865-0.31196
			c1.11358,0.46428,1.80269,1.72491,2.46661,2.94456c0.61143,1.12089,1.24169,2.2775,2.0275,2.5433
			c0.60294,0.20374,1.73965-0.30367,2.74393-0.74902c1.37821-0.61563,2.80267-1.25117,4.14946-0.90242
			c1.22276,0.31938,2.10732,1.50331,2.96026,2.6483c0.73956,0.98858,1.50643,2.01277,2.25857,2.15143
			c0.65974,0.11983,1.68715-0.53366,2.6767-1.16704c1.25223-0.79733,2.55062-1.62196,3.89107-1.48331
			c1.27321,0.13027,2.33419,1.16393,3.36375,2.16606c0.87821,0.85519,1.78579,1.74072,2.53374,1.75438
			c0.00635,0,0.01054,0,0.01688,0c0.68125,0,1.58356-0.81518,2.45554-1.6041c1.09249-0.98439,2.22285-2.00653,3.55695-2.09785
			c1.27322-0.09036,2.50233,0.74374,3.68938,1.54945c1.01063,0.68813,2.06107,1.39929,2.79438,1.28053
			c0.67651-0.10811,1.42027-1.08088,2.14293-2.02428c0.89091-1.16607,1.81526-2.3741,3.10957-2.70918
			c1.23116-0.3226,2.58839,0.26785,3.89946,0.83615c1.12402,0.48956,2.29008,0.99697,2.99178,0.73956
			c0.63875-0.23009,1.18919-1.32366,1.7207-2.38152c0.66189-1.31624,1.34464-2.67767,2.55698-3.25231
			c1.15338-0.54001,2.59258-0.21223,3.98563,0.10714c1.19748,0.27625,2.43294,0.55991,3.08632,0.1775
			c0.57993-0.33929,0.92867-1.5074,1.26064-2.63669c0.42232-1.42027,1.10089-3.22821,2.20177-4.00563
			c-2.64087-4.82597-5.96677-9.1341-9.83052-12.74883c-0.20589-0.28678-0.40758-0.57991-0.60509-0.87197
			c-0.51268,0.27312-0.96437,1.02526-1.40563,1.7575c-0.59669,1.00224-1.21857,2.03697-2.269,2.45715
			c-1.10519,0.43696-2.35108,0.08401-3.45197-0.22482c-0.80894-0.22902-1.64724-0.46428-2.15358-0.30884
			c-0.55884,0.17438-1.13875,0.86671-1.69759,1.5358c-0.74794,0.8951-1.52321,1.82365-2.6284,2.07161
			c-1.15758,0.26473-2.33419-0.28152-3.37624-0.7616c-0.76268-0.35294-1.55473-0.7175-2.07796-0.64188
			c-0.58196,0.08616-1.26052,0.67974-1.92026,1.25643c-0.87821,0.76472-1.78374,1.56-2.91206,1.63454
			c-0.05873,0.0042-0.11758,0.00635-0.17857,0.00635c-1.11767,0-2.13884-0.67651-3.04642-1.28053
			c-0.69437-0.46331-1.41972-0.94125-1.94499-0.94653c-0.0042,0-0.00839,0-0.01054,0c-0.59455,0-1.35938,0.4874-2.09679,0.96018
			c-0.97481,0.62392-1.98329,1.26472-3.09687,1.17866c-1.20178-0.09875-2.1724-0.97072-3.03178-1.74287
			c-0.61553-0.55464-1.25633-1.12509-1.75848-1.20168c-0.62198-0.0967-1.46448,0.28991-2.28169,0.66071
			c-1.03796,0.47375-2.11152,0.96545-3.17249,0.72482c-1.22491-0.27312-2.08839-1.29419-2.84903-2.19973
			c-0.51257-0.61036-1.04624-1.24169-1.48954-1.37616c-0.71234-0.20901-1.66821,0.07562-2.59269,0.34875
			c-1.07356,0.31831-2.08839,0.61778-3.00027,0.27312c-1.98964-0.75214-2.39088-1.92661-2.68294-2.78481
			c-0.21429-0.6251-0.41394-0.88348-1.12821-1.26063l0.00839-0.01151c-0.145,0.20482-0.29002,0.40963-0.43707,0.61348
			c-4.06329,3.7692-7.53838,8.30526-10.25499,13.40231C61.62169,104.64874,62.03132,106.20982,62.17213,107.27392z"/>
		<path class="st49" d="M140.42137,104.57839c-0.60928,0.43169-1.10928,1.61562-1.44963,2.75017
			c-0.43073,1.45286-0.87617,2.95402-2.05278,3.64312c-1.2459,0.73224-2.82581,0.36875-4.35536,0.02001
			c-1.10303-0.25527-2.24382-0.51581-2.85106-0.23117c-0.66599,0.31518-1.21439,1.40671-1.74384,2.45822
			c-0.68276,1.36142-1.39294,2.76705-2.68089,3.23865c-1.35723,0.49171-2.84473-0.15652-4.28178-0.77946
			c-1.04-0.45374-2.11786-0.92017-2.76706-0.74998c-0.71223,0.18588-1.45178,1.14811-2.16616,2.08205
			c-0.92651,1.21125-1.88454,2.46661-3.24812,2.68509c-1.41607,0.23321-2.75856-0.67867-4.05286-1.55893
			c-0.93909-0.6366-1.90982-1.30366-2.58838-1.25224c-0.73331,0.05045-1.6367,0.86562-2.51071,1.65563
			c-1.11562,1.0074-2.26804,2.04955-3.6216,2.04955c-0.01678,0-0.03368,0-0.0483,0
			c-1.43716-0.02732-2.59892-1.15661-3.71885-2.24706c-0.81518-0.79312-1.65768-1.61465-2.32581-1.68392
			c-0.74794-0.07465-1.7732,0.58401-2.77329,1.22169c-1.27526,0.81313-2.59473,1.65563-3.92883,1.4108
			c-1.42661-0.26054-2.40153-1.56419-3.34062-2.82579c-0.67448-0.8993-1.37197-1.83527-2.00223-2.00018
			c-0.7543-0.19535-1.89939,0.31303-3.00232,0.80679c-1.35734,0.60616-2.76082,1.23116-4.0109,0.80894
			c-1.43285-0.48332-2.26481-2.01277-3.00017-3.35849c-0.4959-0.91188-1.05893-1.94349-1.60518-2.17036
			c-0.85304-0.35402-2.14723,0.01786-3.39947,0.37607c-1.39499,0.4034-2.71865,0.78162-3.77124,0.25527
			c-2.2775-1.14295-2.48554-2.71554-2.64938-3.98036c-0.12822-0.96329-0.32573-1.64928-1.185-2.21758
			C55.68848,112.34257,53.64,120.7823,53.64,129.75676c0,17.62848,7.90187,33.18329,19.9532,42.52533
			c24.31704-9.32837,44.96719-2.59677,52.47417,0.21332c12.19418-9.32214,20.20535-24.97884,20.20535-42.73865
			C146.27272,120.61535,144.14645,112.03061,140.42137,104.57839z"/>
		<g>
			<polygon class="st8" points="73.42937,101.18419 70.0299,101.31231 70.61401,100.40473 73.43776,99.98241 73.444,99.01179 
				71.28633,99.35419 72.009,98.22813 73.45658,97.94339 73.27802,95.70267 71.16866,96.48009 71.5174,97.91187 70.79882,99.03911 
				70.20642,96.94125 69.32821,97.35411 70.1265,100.09277 69.5425,101.00035 68.23776,97.86669 67.31749,98.30268 
				68.91632,102.51733 73.41882,102.20838 			"/>
			<polyline class="st8" points="68.25874,103.12134 66.60526,99.31955 65.50437,99.83955 67.40989,104.8641 72.77168,104.49115 
				72.78642,103.27366 68.6348,103.36079 			"/>
			<polygon class="st8" points="66.59891,106.66151 66.1199,106.35375 69.5425,101.00035 70.02355,101.31026 			"/>
		</g>
		<g>
			<polygon class="st8" points="87.35265,104.88927 84.27471,105.73177 84.61507,104.77482 87.10265,103.78624 86.90096,102.90071 
				85.00372,103.67178 85.42186,102.48785 86.68668,101.92159 86.04588,99.91098 84.28095,101.07178 84.90917,102.30616 
				84.49115,103.48901 83.50149,101.69892 82.78722,102.26302 84.10034,104.59409 83.76203,105.55116 81.90061,102.96159 
				81.15052,103.55733 83.51203,107.07018 87.56069,105.82536 			"/>
			<polyline class="st8" points="83.0414,107.7624 80.71346,104.64143 79.82062,105.35151 82.63802,109.53464 87.45775,108.05241 
				87.20765,106.93571 83.43641,107.90321 			"/>
			<polygon class="st8" points="82.27668,111.3541 81.77658,111.17241 83.76203,105.55116 84.26632,105.72865 			"/>
		</g>
		<g>
			<polygon class="st8" points="103.35755,105.40303 100.67989,107.13106 100.71345,106.11946 102.79033,104.42812 
				102.33229,103.64026 100.75336,104.94919 100.79746,103.69598 101.83015,102.77044 100.61469,101.04973 99.28221,102.68535 
				100.25282,103.67597 100.20872,104.92714 98.72542,103.51839 98.21488,104.2716 100.16882,106.1016 100.13514,107.1132 
				97.58032,105.20757 97.04247,106.0007 100.35362,108.63857 103.83871,106.23392 			"/>
			<polyline class="st8" points="100.11417,109.44008 96.9563,107.16473 96.31765,108.11018 100.26122,111.2533 
				104.41228,108.38642 103.83871,107.39794 100.53434,109.45374 			"/>
			
				<rect x="97.31871" y="109.83578" transform="matrix(0.04145 -0.99914 0.99914 0.04145 -13.86411 205.75479)" class="st8" width="5.96515" height="0.53436"/>
		</g>
		<g>
			<polygon class="st8" points="118.08772,103.02678 116.15897,105.55847 115.84809,104.59732 117.22211,102.30293 
				116.5246,101.72097 115.48665,103.48482 115.10004,102.29035 115.75773,101.0749 114.03282,99.86795 113.33737,101.85651 
				114.58327,102.45848 114.96773,103.6508 113.09782,102.82928 112.87299,103.71169 115.32906,104.7632 115.64005,105.72661 
				112.59363,104.80322 112.36246,105.73177 116.36486,107.08588 118.82093,103.64241 			"/>
			<polyline class="st8" points="116.41112,107.91891 112.6713,106.85267 112.39397,107.9599 117.16745,109.5725 
				120.08791,105.47027 119.21593,104.73803 116.80817,107.79079 			"/>
			
				<rect x="116.54443" y="105.49996" transform="matrix(0.95291 -0.30325 0.30325 0.95291 -27.39577 40.53137)" class="st8" width="0.53389" height="5.95782"/>
		</g>
		<g>
			<polygon class="st8" points="131.56567,96.77946 129.90584,99.67045 129.452,98.71339 130.56976,96.14598 129.76514,95.63329 
				128.92888,97.60831 128.36584,96.42018 128.88477,95.06822 126.92665,94.04813 126.47496,96.20686 127.85112,96.6649 
				128.40996,97.84883 126.35728,97.25106 126.24379,98.19661 128.93523,98.95607 129.39326,99.91518 126.10308,99.36893 
				125.9854,100.36482 130.32817,101.22722 132.41235,97.31829 			"/>
			<polyline class="st8" points="130.48996,102.08758 126.46022,101.48572 126.32361,102.67169 131.49628,103.70018 
				133.97763,99.04427 132.96915,98.40143 130.88495,101.90062 			"/>
			
				<rect x="130.7016" y="99.49547" transform="matrix(0.90401 -0.42752 0.42752 0.90401 -31.29629 65.84682)" class="st8" width="0.55892" height="6.23847"/>
		</g>
		<circle class="st53" cx="67.76133" cy="115.05" r="1.24301"/>
		<circle class="st53" cx="62.6622" cy="130.82277" r="1.24299"/>
		<circle class="st53" cx="77.12765" cy="134.49741" r="1.24299"/>
		<circle class="st53" cx="93.15927" cy="136.18245" r="1.24299"/>
		<circle class="st53" cx="108.56021" cy="136.76918" r="1.24248"/>
		<circle class="st53" cx="123.75674" cy="134.93918" r="1.24304"/>
		<circle class="st53" cx="137.75204" cy="129.58005" r="1.24194"/>
		<circle class="st53" cx="80.23971" cy="119.68168" r="1.2425"/>
		<circle class="st53" cx="93.15927" cy="121.65241" r="1.24245"/>
		<circle class="st53" cx="106.90722" cy="122.16666" r="1.24299"/>
		<circle class="st53" cx="119.54163" cy="120.38762" r="1.24194"/>
		<circle class="st53" cx="132.11296" cy="116.63472" r="1.24248"/>
		<circle class="st53" cx="71.51586" cy="124.13739" r="1.24301"/>
		<circle class="st53" cx="67.76133" cy="140.54727" r="1.24301"/>
		<circle class="st53" cx="85.03159" cy="158.62959" r="1.24302"/>
		<circle class="st53" cx="67.17302" cy="158.62959" r="1.24301"/>
		<circle class="st53" cx="101.19894" cy="158.62959" r="1.24288"/>
		<circle class="st53" cx="119.15556" cy="158.22221" r="1.24272"/>
		<circle class="st53" cx="134.21709" cy="155.34702" r="1.24223"/>
		<circle class="st53" cx="60.46194" cy="147.14339" r="1.24406"/>
		<circle class="st53" cx="76.75784" cy="150.63892" r="1.24301"/>
		<circle class="st53" cx="93.83533" cy="151.8822" r="1.2425"/>
		<circle class="st53" cx="109.80293" cy="151.27077" r="1.24248"/>
		<circle class="st53" cx="126.92452" cy="149.39566" r="1.24352"/>
		<circle class="st53" cx="140.35521" cy="145.73415" r="1.24248"/>
		<circle class="st53" cx="85.03159" cy="142.59995" r="1.24248"/>
		<circle class="st53" cx="100.79657" cy="143.36156" r="1.24342"/>
		<circle class="st53" cx="116.55922" cy="142.59995" r="1.24299"/>
		<circle class="st53" cx="132.63245" cy="139.78149" r="1.24143"/>
		<circle class="st53" cx="58.91248" cy="121.62985" r="1.24301"/>
		<circle class="st53" cx="85.89719" cy="127.79732" r="1.24245"/>
		<circle class="st53" cx="99.95671" cy="129.58005" r="1.24207"/>
		<circle class="st53" cx="114.98193" cy="129.03954" r="1.2425"/>
		<circle class="st46" cx="76.75784" cy="85.22028" r="1.24223"/>
		<circle class="st46" cx="85.89719" cy="89.10581" r="1.24248"/>
		<circle class="st46" cx="95.11954" cy="90.34778" r="1.24221"/>
		<circle class="st46" cx="105.04677" cy="91.20472" r="1.24352"/>
		<circle class="st46" cx="123.75674" cy="86.65652" r="1.2425"/>
		<circle class="st46" cx="114.71405" cy="89.96224" r="1.24119"/>
		<circle class="st53" cx="128.22299" cy="126.5546" r="1.24248"/>
		<circle class="st53" cx="141.20557" cy="120.92445" r="1.2425"/>
		<path class="st49" d="M118.48897,62.14332c-14.43597,8.41036-37.67042,1.79644-37.67042,1.79644s0.42857-2.28385,0.53366-3.05492
			c0.07983-0.61143,0.20374-2.47812,0.20374-2.47812s21.00116,6.65383,36.1557-1.37304c0,0,0.11134,1.68715,0.20374,2.27643
			C118.02674,60.02663,118.48897,62.14332,118.48897,62.14332z"/>
		<path class="st48" d="M129.8869,169.23674c-7.67704-3.63689-34.24996-11.01456-59.80032,0.0441
			c0,0,1.24805,1.15457,1.66198,1.4959c0.49364,0.40759,1.97276,1.50536,1.97276,1.50536
			c24.31704-9.32837,44.83907-2.59677,52.34605,0.21332c0,0,1.43285-1.06625,1.89713-1.46437
			C128.45406,170.61494,129.8869,169.23674,129.8869,169.23674z"/>
		<path class="st49" d="M99.08471,70.86466c-2.08635,0-4.05082-0.13242-5.81982-0.32777
			c-7.73374-0.85304-13.23634-3.19563-13.29518-3.21875l0.26689-1.01064c0.22687,0.08832,22.66722,8.70026,38.76721-1.95597
			l0.30669,1.06829C112.78263,69.7385,105.4397,70.86466,99.08471,70.86466z"/>
		<path class="st8" d="M99.98389,120.92526c-0.01893,0-0.03571,0-0.05249,0c-1.43501-0.0284-2.59473-1.15661-3.7167-2.25018
			c-0.81313-0.79312-1.65563-1.6126-2.32375-1.6808c-0.74795-0.07885-1.77536,0.58196-2.77534,1.21964
			c-1.27537,0.8141-2.59484,1.6566-3.92679,1.4108c-1.42876-0.26054-2.40153-1.56312-3.34278-2.82375
			c-0.67436-0.90241-1.36981-1.83732-2.00222-2.00126c-0.7543-0.1975-1.89724,0.31207-3.00232,0.80474
			c-1.35723,0.60402-2.76071,1.23008-4.0108,0.80883c-1.43285-0.48321-2.26492-2.00857-2.99812-3.35838
			c-0.49795-0.90973-1.05894-1.94135-1.60733-2.16832c-0.85509-0.35498-2.14723,0.01582-3.39937,0.37714
			c-1.39713,0.40028-2.71876,0.78162-3.77134,0.25215c-2.2775-1.14187-2.48339-2.71553-2.64938-3.98035
			c-0.12608-0.96018-0.32562-1.65144-1.18705-2.21554l0.8383-1.64187c1.5274,1.00633,1.93715,2.56741,2.07581,3.63054
			c0.1492,1.11562,0.25419,1.92241,1.70393,2.6483c0.4475,0.22267,1.54419-0.09036,2.51072-0.36876
			c1.46642-0.42233,3.12839-0.90026,4.54865-0.31196c1.11347,0.46428,1.80053,1.72491,2.46661,2.94456
			c0.61133,1.11874,1.23955,2.2775,2.02535,2.54115c0.60294,0.20374,1.74169-0.30152,2.74382-0.74794
			c1.37831-0.61563,2.80492-1.25332,4.15162-0.90134c1.22276,0.31723,2.10527,1.50116,2.96036,2.64615
			c0.74159,0.99062,1.50428,2.01277,2.25857,2.15046c0.65974,0.1208,1.68501-0.53269,2.6767-1.16403
			c1.25009-0.79732,2.55063-1.62196,3.89108-1.48438c1.27106,0.13027,2.33419,1.165,3.3616,2.16724
			c0.87821,0.854,1.78579,1.73856,2.53374,1.75427c0.00635,0,0.01258,0,0.01678,0c0.6834,0,1.58367-0.81518,2.45564-1.60195
			c1.09454-0.98859,2.22285-2.00965,3.5591-2.10001c1.27311-0.0924,2.50018,0.74375,3.68507,1.54957
			c1.01482,0.68803,2.06322,1.39606,2.79642,1.28053c0.67447-0.1093,1.42037-1.08411,2.14304-2.0275
			c0.8951-1.16393,1.81526-2.37099,3.10957-2.70919c1.23116-0.31937,2.59053,0.27097,3.89946,0.83938
			c1.12606,0.48946,2.29008,0.99579,2.99393,0.73956c0.6366-0.23322,1.18705-1.32366,1.71856-2.38152
			c0.66393-1.31839,1.34679-2.67982,2.56116-3.25242c1.14919-0.54205,2.58838-0.21105,3.98132,0.10725
			c1.1976,0.27409,2.43509,0.55776,3.08644,0.1775c0.58195-0.33929,0.92867-1.50751,1.26062-2.6368
			c0.42223-1.42027,1.10089-3.23026,2.20598-4.00972l0.91823,1.75427c-0.61143,0.42867-1.11563,1.61572-1.45178,2.75135
			c-0.43073,1.45179-0.87617,2.95714-2.05278,3.64624c-1.24794,0.73009-2.82796,0.36661-4.35536,0.01582
			c-1.10507-0.25214-2.24597-0.51484-2.85107-0.23117c-0.66812,0.31831-1.21437,1.40563-1.74384,2.45919
			c-0.6849,1.36153-1.39294,2.76814-2.68294,3.23563c-1.35518,0.49364-2.84687-0.15135-4.27972-0.77741
			c-1.04215-0.44965-2.11787-0.9192-2.7691-0.7501c-0.71018,0.18599-1.44974,1.15134-2.16412,2.0842
			c-0.92651,1.21125-1.88874,2.46661-3.24812,2.68616c-1.42026,0.23009-2.75652-0.67963-4.0549-1.56108
			c-0.94125-0.63972-1.90778-1.30473-2.58633-1.2532c-0.73331,0.05142-1.6367,0.86671-2.51072,1.65563
			C102.48988,119.88107,101.33531,120.92526,99.98389,120.92526z"/>
		<g>
			<path class="st24" d="M102.61515,191.84543l0.16254-0.09642l-0.16254-0.13931v-2.83961
				c0-0.35721,0.29288-0.65009,0.65189-0.65009c0,0,0.89294,0.76082,2.47705,0.76082c1.58414,0,2.31457-0.76082,2.73962-0.76082
				c0.08038,0-0.0107-0.36792,0.38222,0c2.43422,2.27528,7.86525,2.73605,7.86525,2.73605
				c0.30362,0,0.50365,0.48221,0.22324,0.81081c-0.04288,0.04645-0.14465,0.12143-0.14465,0.17857l0.16071,0.17145
				c0,0.36078-0.2911,0.65366-0.64826,0.65366h-13.05518c-0.35901,0-0.65189-0.29288-0.65189-0.65366V191.84543z"/>
			<path class="st24" d="M97.29664,192.01688c0,0.36078-0.29288,0.65366-0.65009,0.65366H83.58958
				c-0.35538,0-0.64831-0.29288-0.64831-0.65366l0.16254-0.17145c0-0.05714-0.10538-0.13213-0.14465-0.1768
				c-0.2822-0.33037-0.08038-0.81258,0.22146-0.81258c0,0,5.43459-0.46077,7.86703-2.73605c0.3947-0.36792,0.30184,0,0.38217,0
				c0.42684,0,1.15553,0.76082,2.73785,0.76082c1.58593,0,2.47889-0.76082,2.47889-0.76082
				c0.35721,0,0.65009,0.29288,0.65009,0.65187v2.83783l-0.16253,0.1411l0.16253,0.09464V192.01688z"/>
		</g>
	</g>
</g>
</svg>
