<svg xmlns="http://www.w3.org/2000/svg" viewBox="0 0 166.62 179.44"><defs><style>.cls-1{fill:#e1e2e2;}.cls-11,.cls-2{fill:#f8b74a;}.cls-3{fill:#fff;}.cls-21,.cls-4{fill:#fac348;}.cls-5{fill:#515050;}.cls-6{fill:#454751;}.cls-7{fill:#d7d6d5;}.cls-8{fill:#2b2b35;}.cls-9{fill:#434851;}.cls-10{fill:#f8c54f;}.cls-10,.cls-11,.cls-14,.cls-15,.cls-21{fill-rule:evenodd;}.cls-12,.cls-13,.cls-15{fill:none;}.cls-12,.cls-13{stroke:#f2c24e;stroke-miterlimit:10;}.cls-13,.cls-15{stroke-linecap:round;}.cls-14,.cls-16{fill:#57c0c3;}.cls-15{stroke:#2faaaa;stroke-linejoin:round;stroke-width:0.62px;}.cls-17{fill:#a7a9ac;}.cls-18{fill:#f7edc4;}.cls-19{fill:#ea676d;}.cls-20{fill:#8ed3d3;}</style></defs><title>Asset 3 1</title><g id="Layer_2" data-name="Layer 2"><g id="Layer_1-2" data-name="Layer 1"><path class="cls-1" d="M12.66,116.79a20.6,20.6,0,0,1-1-8.7s4.3,8.7,7.3,9.1c0,0-7.5-7.6-6.8-13.5,0,0,3.8,6.8,6.6,7.7,0,0-6.8-5.9-5.1-13.8,0,0,3,8.3,6.1,8.6,0,0-5.2-6.1-4.7-11.8,0,0,20.9,28.6,49.9,3l-.6,24.2-13.8,17.5s-20.4,7.5-33.4-12.8h0a38,38,0,0,1-4.5-9.1c.1-.2,0-.3,0-.4Z"/><path class="cls-2" d="M38.36,122.69a31.79,31.79,0,0,0-4-15.4c8.3,2,18.9.7,30.7-9.9l.4,24.3-14.8,17.5a29.84,29.84,0,0,1-17.1.2A31.9,31.9,0,0,0,38.36,122.69Z"/><circle class="cls-3" cx="38.61" cy="110.39" r="1.22"/><circle class="cls-3" cx="39.67" cy="114.12" r="1.22"/><circle class="cls-3" cx="43.65" cy="113.69" r="1.22"/><circle class="cls-3" cx="47.15" cy="113.12" r="1.22"/><circle class="cls-3" cx="50.74" cy="112.24" r="1.22"/><circle class="cls-3" cx="54.02" cy="111.09" r="1.22"/><circle class="cls-3" cx="57.65" cy="109.79" r="1.22"/><circle class="cls-3" cx="61.45" cy="107.95" r="1.22"/><circle class="cls-3" cx="42.11" cy="110.39" r="1.22"/><circle class="cls-3" cx="45.71" cy="109.87" r="1.22"/><circle class="cls-3" cx="49.33" cy="109.17" r="1.22"/><circle class="cls-3" cx="52.8" cy="107.95" r="1.22"/><circle class="cls-3" cx="56.43" cy="106.45" r="1.22"/><circle class="cls-3" cx="59.59" cy="104.83" r="1.22"/><rect class="cls-4" x="16.79" y="100.51" width="5.73" height="2.96" transform="translate(96.82 171.51) rotate(142.93)"/><path class="cls-1" d="M151.75,116.79a20.6,20.6,0,0,0,1-8.7s-4.3,8.7-7.3,9.1c0,0,7.5-7.6,6.8-13.5,0,0-3.8,6.8-6.6,7.7,0,0,6.8-5.9,5.1-13.8,0,0-3,8.3-6.1,8.6,0,0,5.2-6.1,4.7-11.8,0,0-20.9,28.6-49.9,3l.6,24.2,13.8,17.5s20.4,7.5,33.4-12.8h0a38,38,0,0,0,4.5-9.1c-.1-.2,0-.3,0-.4Z"/><path class="cls-2" d="M126.05,122.69a31.79,31.79,0,0,1,4-15.4c-8.3,2-18.9.7-30.7-9.9l-.4,24.3,14.8,17.5a29.84,29.84,0,0,0,17.1.2A31.9,31.9,0,0,1,126.05,122.69Z"/><circle class="cls-3" cx="125.8" cy="110.39" r="1.22"/><circle class="cls-3" cx="124.75" cy="114.12" r="1.22"/><circle class="cls-3" cx="120.76" cy="113.69" r="1.22"/><circle class="cls-3" cx="117.27" cy="113.12" r="1.22"/><circle class="cls-3" cx="113.68" cy="112.24" r="1.22"/><circle class="cls-3" cx="110.39" cy="111.09" r="1.22"/><circle class="cls-3" cx="106.76" cy="109.79" r="1.22"/><circle class="cls-3" cx="102.97" cy="107.95" r="1.22"/><circle class="cls-3" cx="122.3" cy="110.39" r="1.22"/><circle class="cls-3" cx="118.71" cy="109.87" r="1.22"/><circle class="cls-3" cx="115.08" cy="109.17" r="1.22"/><circle class="cls-3" cx="111.62" cy="107.95" r="1.22"/><circle class="cls-3" cx="107.99" cy="106.45" r="1.22"/><circle class="cls-3" cx="104.83" cy="104.83" r="1.22"/><rect class="cls-4" x="141.89" y="100.51" width="5.73" height="2.96" transform="translate(90.72 -66.64) rotate(37.07)"/><path class="cls-4" d="M67.85,81.39a16.17,16.17,0,0,0-.8,2.4c-1.5,5.2-4,14-9.4,19.3,0,0,5,19.6,24.5,19.6s24.5-19.6,24.5-19.6c-5.3-5-7.9-14-9.3-19.2a19.62,19.62,0,0,1-.7-2.6"/><path class="cls-1" d="M95.85,163h0a27.68,27.68,0,0,0,14.9-24.3c0-15.3-12.8-27.6-28.6-27.6s-28.6,12.4-28.6,27.6a27.59,27.59,0,0,0,15,24.3h-.1a17.18,17.18,0,0,1,8.4,11.7,2.76,2.76,0,0,1,2.3,0v-8.5c1,.1,2,.2,3,.2s2-.1,3.1-.2v8.5a2.41,2.41,0,0,1,2.3,0A16.75,16.75,0,0,1,95.85,163Z"/><path class="cls-5" d="M82.15,91.29c-19,0-34.4,17.3-34.4,38.6,0,13.2,8.2,23.8,17.1,30.7,18-7,28.8-1.9,34.4.2,9.1-7,17.2-17.6,17.2-30.9C116.55,108.59,101.15,91.29,82.15,91.29Z"/><circle class="cls-6" cx="82.45" cy="88.99" r="1.7"/><circle class="cls-7" cx="82.45" cy="88.99" r="0.4"/><circle class="cls-6" cx="82.45" cy="98.49" r="1.7"/><circle class="cls-7" cx="82.45" cy="98.49" r="0.4"/><path class="cls-1" d="M97.65,58.89c.2-4.4-.1-9.1-1.8-12.4-.9-2.5-3.8-4.1-6.7-5.1h2.4c-3.1-2.1-5.9-2-7.9-1.2-.6-.1-1.1-.1-1.5-.2a29.72,29.72,0,0,1,3.1-1.4c-4.8-1.2-9,1.5-10.8,2.9-2.9,1-5.6,2.5-6.5,5-1.7,3.3-2,8-1.8,12.4a30.22,30.22,0,0,0,.9,10.3c2.2,5.1,1.5,9.1.5,13a3.73,3.73,0,0,1,.5,1.6l14.2,26.5v.1L96.55,84c-.1-.5.5-1.3.3-1.9-1.1-3.8-2.5-8.2-.1-13.1A32.81,32.81,0,0,0,97.65,58.89Z"/><path class="cls-3" d="M75,56.09c0,1.4-1.4,2.5-3.2,2.6s-3.4-1-3.4-2.4,1.4-2.5,3.2-2.6S74.85,54.69,75,56.09Z"/><path class="cls-8" d="M73.15,55.89a1.51,1.51,0,1,1-1.7-1.3A1.55,1.55,0,0,1,73.15,55.89Z"/><path class="cls-3" d="M95.25,56.09c0,1.4-1.4,2.5-3.2,2.6s-3.4-1-3.4-2.4,1.4-2.5,3.2-2.6S95.25,54.69,95.25,56.09Z"/><path class="cls-8" d="M93.45,55.89a1.51,1.51,0,1,1-1.7-1.3A1.55,1.55,0,0,1,93.45,55.89Z"/><path class="cls-9" d="M81.85,59.49a8.3,8.3,0,0,1-5.1,3.5c2.7,1.7,5.4,6.8,5.4,6.8s2.6-5.1,5.3-6.8A8.63,8.63,0,0,1,81.85,59.49Z"/><path class="cls-4" d="M79,148.19c2.9.4,3.2.2,7,.1a68.33,68.33,0,0,0,28.8-7.4,33,33,0,0,0,1.9-11c0-19.3-12.6-35.2-29.2-38.1-1.8-.3-5.3,5-5.3,5s-3.5-5.3-5.1-5.1c-16.7,2.8-29.5,18.8-29.5,38.3a33.67,33.67,0,0,0,1.8,10.6A78.76,78.76,0,0,0,79,148.19Z"/><polygon class="cls-1" points="70.28 88.99 82.1 104.21 94.53 88.99 70.28 88.99"/><path class="cls-10" d="M70.46,85.2a2.1,2.1,0,1,1-2.91-3,2.33,2.33,0,0,1,3,0A2.29,2.29,0,0,1,70.46,85.2Zm-.8-.7A1,1,0,1,0,68.22,83a1,1,0,1,0,1.44,1.48Z"/><path class="cls-10" d="M73.95,87.5a2.11,2.11,0,1,1-3.49-2.3,2.09,2.09,0,1,1,3.49,2.3ZM73,87a1,1,0,1,0-1.72-1.14A1,1,0,1,0,73,87Z"/><path class="cls-10" d="M77.88,88.91a2.11,2.11,0,1,1-3.93-1.41,2.09,2.09,0,1,1,3.93,1.41Zm-1-.26a1,1,0,1,0-1.94-.7,1,1,0,1,0,1.94.7Z"/><path class="cls-10" d="M82,89.27a2,2,0,0,1-.6,1.59,2.08,2.08,0,0,1-1.68.6,2.16,2.16,0,0,1-1.56-.85,2.11,2.11,0,0,1-.32-1.68,2.56,2.56,0,0,1,.88-1.43A1.88,1.88,0,0,1,80.14,87,2.33,2.33,0,0,1,82,89.27Zm-1.06,0a1,1,0,1,0-2.05-.18,1,1,0,1,0,2.05.18Z"/><path class="cls-10" d="M86.17,88.56a2.12,2.12,0,0,1-3.38,2.22A2.05,2.05,0,0,1,82,89.27a2.64,2.64,0,0,1,.48-1.63,2,2,0,0,1,1.22-.82A2.31,2.31,0,0,1,86.17,88.56Zm-1,.26a1,1,0,1,0-2,.35,1,1,0,1,0,2-.35Z"/><path class="cls-10" d="M90.05,87A2.09,2.09,0,0,1,89,89.95a2,2,0,0,1-1.74-.07,2.09,2.09,0,0,1-1.07-1.32,2.57,2.57,0,0,1,.1-1.69,2,2,0,0,1,1-1.07A2.27,2.27,0,0,1,90.05,87Zm-1,.46a1,1,0,1,0-1.92.76,1,1,0,1,0,1.92-.76Z"/><path class="cls-10" d="M93.65,84.87A2.1,2.1,0,1,1,90.05,87a2.09,2.09,0,1,1,3.6-2.14Zm-.89.58a1,1,0,1,0-.3,1.5A1.07,1.07,0,0,0,92.76,85.45Z"/><path class="cls-10" d="M97,82.29a2.1,2.1,0,1,1-3.3,2.58A2.1,2.1,0,1,1,97,82.29Zm-.82.68a1,1,0,1,0-1.63,1.27A1,1,0,1,0,96.13,83Z"/><circle class="cls-3" cx="63.74" cy="98.09" r="1.22"/><circle class="cls-3" cx="63.74" cy="101.99" r="1.22"/><circle class="cls-3" cx="63.74" cy="105.89" r="1.22"/><circle class="cls-3" cx="63.74" cy="109.79" r="1.22"/><circle class="cls-3" cx="63.74" cy="113.69" r="1.22"/><circle class="cls-3" cx="63.74" cy="117.59" r="1.22"/><circle class="cls-3" cx="63.74" cy="121.49" r="1.22"/><circle class="cls-3" cx="63.74" cy="125.39" r="1.22"/><circle class="cls-3" cx="67.55" cy="98.09" r="1.22"/><circle class="cls-3" cx="67.55" cy="101.99" r="1.22"/><circle class="cls-3" cx="67.55" cy="105.89" r="1.22"/><circle class="cls-3" cx="67.55" cy="109.79" r="1.22"/><circle class="cls-3" cx="67.55" cy="113.69" r="1.22"/><circle class="cls-3" cx="67.55" cy="117.59" r="1.22"/><circle class="cls-3" cx="67.55" cy="121.49" r="1.22"/><circle class="cls-3" cx="67.55" cy="125.39" r="1.22"/><circle class="cls-3" cx="71.37" cy="98.09" r="1.22"/><circle class="cls-3" cx="71.37" cy="101.99" r="1.22"/><circle class="cls-3" cx="71.37" cy="105.89" r="1.22"/><circle class="cls-3" cx="71.37" cy="109.79" r="1.22"/><circle class="cls-3" cx="71.37" cy="113.69" r="1.22"/><circle class="cls-3" cx="71.37" cy="117.59" r="1.22"/><circle class="cls-3" cx="71.37" cy="121.49" r="1.22"/><circle class="cls-3" cx="71.37" cy="125.39" r="1.22"/><circle class="cls-3" cx="75.18" cy="98.09" r="1.22"/><circle class="cls-3" cx="75.18" cy="101.99" r="1.22"/><circle class="cls-3" cx="75.18" cy="105.89" r="1.22"/><circle class="cls-3" cx="75.18" cy="109.79" r="1.22"/><circle class="cls-3" cx="75.18" cy="113.69" r="1.22"/><circle class="cls-3" cx="75.18" cy="117.59" r="1.22"/><circle class="cls-3" cx="75.18" cy="121.49" r="1.22"/><circle class="cls-3" cx="75.18" cy="125.39" r="1.22"/><circle class="cls-3" cx="89.11" cy="98.09" r="1.22"/><circle class="cls-3" cx="89.11" cy="101.99" r="1.22"/><circle class="cls-3" cx="89.11" cy="105.89" r="1.22"/><circle class="cls-3" cx="89.11" cy="109.79" r="1.22"/><circle class="cls-3" cx="89.11" cy="113.69" r="1.22"/><circle class="cls-3" cx="89.11" cy="117.59" r="1.22"/><circle class="cls-3" cx="89.11" cy="121.49" r="1.22"/><circle class="cls-3" cx="89.11" cy="125.39" r="1.22"/><circle class="cls-3" cx="92.92" cy="98.09" r="1.22"/><circle class="cls-3" cx="92.92" cy="101.99" r="1.22"/><circle class="cls-3" cx="92.92" cy="105.89" r="1.22"/><circle class="cls-3" cx="92.92" cy="109.79" r="1.22"/><circle class="cls-3" cx="92.92" cy="113.69" r="1.22"/><circle class="cls-3" cx="92.92" cy="117.59" r="1.22"/><circle class="cls-3" cx="92.92" cy="121.49" r="1.22"/><circle class="cls-3" cx="92.92" cy="125.39" r="1.22"/><circle class="cls-3" cx="96.73" cy="98.09" r="1.22"/><circle class="cls-3" cx="96.73" cy="101.99" r="1.22"/><circle class="cls-3" cx="96.73" cy="105.89" r="1.22"/><circle class="cls-3" cx="96.73" cy="109.79" r="1.22"/><circle class="cls-3" cx="96.73" cy="113.69" r="1.22"/><circle class="cls-3" cx="96.73" cy="117.59" r="1.22"/><circle class="cls-3" cx="96.73" cy="121.49" r="1.22"/><circle class="cls-3" cx="96.73" cy="125.39" r="1.22"/><circle class="cls-3" cx="100.54" cy="98.09" r="1.22"/><circle class="cls-3" cx="100.54" cy="101.99" r="1.22"/><circle class="cls-3" cx="100.54" cy="105.89" r="1.22"/><circle class="cls-3" cx="100.54" cy="109.79" r="1.22"/><circle class="cls-3" cx="100.54" cy="113.69" r="1.22"/><circle class="cls-3" cx="100.54" cy="117.59" r="1.22"/><circle class="cls-3" cx="100.54" cy="121.49" r="1.22"/><circle class="cls-3" cx="100.54" cy="125.39" r="1.22"/><path class="cls-11" d="M67.55,82.29,82.1,104.21S63.72,90.69,53.66,99C60.78,87.29,67.55,82.29,67.55,82.29Z"/><path class="cls-12" d="M79.15,146.19v1.3a.9.9,0,0,0,.9.9l4.1-.1a.9.9,0,0,0,.9-.9v-1.3a.9.9,0,0,0-.9-.9l-4.1.1A1.06,1.06,0,0,0,79.15,146.19Z"/><line class="cls-13" x1="85.05" y1="146.79" x2="82.75" y2="146.79"/><path class="cls-5" d="M112,35.92c9-3.92,3.92-15.3-2.78-13.15,4.43-5.69-1.9-12.77-6.45-10.5,1.9-4.3-3.67-11-11.51-7.34C90.08,1.26,85.21,0,82.05,0s-8,1.26-9.17,4.93C65,1.26,59.48,8,61.38,12.27,56.82,10,50.5,17.07,54.93,22.76c-6.7-2.15-11.76,9.23-2.78,13.15-4.93,1.9-6.58,12.14,1.64,13.41-3.16,4.81,2.66,9.48,5.94,8.85-1.9,3,3.54,8.22,7,5.82,1.9-1,1.64-2.4.38-3.67,1.14-.89.76-3.29-.25-4.93C68.2,54,66.43,53,66.43,53c1.14-.63,1.64-2.78.13-3.41,2.66-.38,3.16-3.79,3.16-3.79,3.79,2.53,6.58-1.64,5.94-2.78a3.2,3.2,0,0,0,4-1.9s.19.88,2.34.88,2.34-.88,2.34-.88a3.2,3.2,0,0,0,4,1.9c-.63,1.14,2.15,5.31,5.94,2.78,0,0,.51,3.41,3.16,3.79-1.52.63-1,2.78.13,3.41,0,0-1.77,1-.38,2.4-1,1.64-1.39,4-.25,4.93-1.27,1.26-1.52,2.66.38,3.67,3.41,2.4,8.85-2.78,7-5.82,3.29.63,9.11-4,5.94-8.85C118.54,48.06,116.89,37.81,112,35.92Z"/><path class="cls-11" d="M97,82.29,82.1,104.21S100.79,90.69,110.85,99C103.72,87.29,97,82.29,97,82.29Z"/><path class="cls-14" d="M65.58,50.25C68,48.3,74,48.75,77.76,51.6c2.16,1.64,2.19,2.53,4.3,2.53s2.13-.76,4.25-2.43c3.73-2.93,9.89-3.41,12.31-1.45,4.33,3.52,2.79,10.56-4,12.64-5.23,1.59-10.19-1.4-11-5.15-.23-.49-.36-.93-1.4-.84H82c-1-.09-1.17.35-1.4.84-.79,3.75-5.75,6.74-11,5.15C62.8,60.81,61.25,53.77,65.58,50.25Z"/><path class="cls-15" d="M68,52.81c2.23-1.75,8.73-.79,10.82,2.87S76.16,63.47,71,62,64.77,55.34,68,52.81Z"/><path class="cls-15" d="M96.21,52.81C94,51.05,87.47,52,85.39,55.68S88,63.47,93.16,62,99.44,55.34,96.21,52.81Z"/><path class="cls-5" d="M114.43,141.15A68.32,68.32,0,0,1,86,148.39c-3.8.1-4.1.3-7-.1a77.26,77.26,0,0,1-29.27-7.53,43.31,43.31,0,0,0,12,17.2c1.18,1.17,3.76,3.15,3.76,3.15s5.13,4.77.72,10.48a28,28,0,0,0,15.17.66,6.29,6.29,0,0,1-.67-5.92h0c.49,0,1,.06,1.46.06s1.54-.06,1.54-.06a6.29,6.29,0,0,1-.67,5.92,28,28,0,0,0,15.17-.66c-4.42-5.71.72-10.48.72-10.48s2.46-1.91,3.6-3h0A43.06,43.06,0,0,0,114.43,141.15Z"/><circle class="cls-3" cx="55.13" cy="144.93" r="0.9"/><circle class="cls-3" cx="56.59" cy="146.93" r="0.9"/><circle class="cls-3" cx="57.96" cy="148.94" r="0.9"/><circle class="cls-3" cx="59.53" cy="150.75" r="0.9"/><circle class="cls-3" cx="61.34" cy="152.36" r="0.9"/><circle class="cls-3" cx="63.15" cy="154.16" r="0.9"/><circle class="cls-3" cx="64.96" cy="155.74" r="0.9"/><circle class="cls-3" cx="66.62" cy="157.55" r="0.9"/><circle class="cls-3" cx="68.05" cy="159.36" r="0.9"/><circle class="cls-3" cx="68.96" cy="161.42" r="0.9"/><circle class="cls-3" cx="69.73" cy="163.57" r="0.9"/><circle class="cls-3" cx="70.04" cy="166.03" r="0.9"/><circle class="cls-3" cx="69.91" cy="168.5" r="0.9"/><circle class="cls-3" cx="69.14" cy="170.74" r="0.9"/><path class="cls-16" d="M48.47,137.49s39.17-2.36,67.09.81l-.94,3.35s-29.56,16.9-65.49-.88Z"/><path class="cls-3" d="M81.31,132a.83.83,0,0,1,1.48,0l2.66,5.39a.83.83,0,0,0,.62.45l6,.86a.83.83,0,0,1,.46,1.41l-4.31,4.2a.83.83,0,0,0-.24.73l1,5.93a.83.83,0,0,1-1.2.87L82.44,149a.83.83,0,0,0-.77,0l-5.32,2.8a.83.83,0,0,1-1.2-.87l1-5.93a.83.83,0,0,0-.24-.73l-4.31-4.2a.83.83,0,0,1,.46-1.41l6-.86a.83.83,0,0,0,.62-.45Z"/><path class="cls-4" d="M83.37,147.25a2.83,2.83,0,0,0-2.63,0l-3.22,1.69.62-3.59a2.82,2.82,0,0,0-.81-2.5l-2.6-2.54,3.6-.52a2.83,2.83,0,0,0,2.13-1.55L82.05,135l1.61,3.26a2.83,2.83,0,0,0,2.13,1.55l3.6.52-2.61,2.54a2.83,2.83,0,0,0-.81,2.5l.62,3.59Z"/><path class="cls-4" d="M80.25,174.47a.47.47,0,0,0-.5-.5,3.32,3.32,0,0,1-1.8.5c-1.2,0-2.2-.91-2.3-.5-.1,2.89-6.15,2.08-5.72,4.78.41.79,3.05.68,5.47.68.58,0,1.15-.09,1.17-.8s1.27-.65,1.27,0-.07.8.5.8h1.41a.47.47,0,0,0,.5-.5v-.1l-.1-.1.1-.1Z"/><path class="cls-4" d="M84.07,174.47a.47.47,0,0,1,.5-.5,3.32,3.32,0,0,0,1.8.5c1.2,0,2.2-.91,2.3-.5.1,2.89,6.15,2.08,5.72,4.78-.41.79-3.05.68-5.47.68-.58,0-1.15-.09-1.17-.8s-1.27-.65-1.27,0,.07.8-.5.8H84.57a.47.47,0,0,1-.5-.5v-.1l.1-.1-.1-.1Z"/><circle class="cls-3" cx="109.23" cy="144.93" r="0.9"/><circle class="cls-3" cx="107.76" cy="146.93" r="0.9"/><circle class="cls-3" cx="106.39" cy="148.94" r="0.9"/><circle class="cls-3" cx="104.82" cy="150.75" r="0.9"/><circle class="cls-3" cx="103.01" cy="152.36" r="0.9"/><circle class="cls-3" cx="101.2" cy="154.16" r="0.9"/><circle class="cls-3" cx="99.39" cy="155.74" r="0.9"/><circle class="cls-3" cx="97.73" cy="157.55" r="0.9"/><circle class="cls-3" cx="96.3" cy="159.36" r="0.9"/><circle class="cls-3" cx="95.39" cy="161.42" r="0.9"/><circle class="cls-3" cx="94.62" cy="163.57" r="0.9"/><circle class="cls-3" cx="94.31" cy="166.03" r="0.9"/><circle class="cls-3" cx="94.44" cy="168.5" r="0.9"/><circle class="cls-3" cx="95.21" cy="170.74" r="0.9"/><rect id="_Rectangle_" data-name="&lt;Rectangle&gt;" class="cls-17" x="41.13" y="72.73" width="1.96" height="6.24" transform="translate(115.26 122.51) rotate(151.57)"/><rect id="_Rectangle_2" data-name="&lt;Rectangle&gt;" class="cls-18" x="44.26" y="49.6" width="1.96" height="6.24" transform="translate(107.98 82.54) rotate(156.06)"/><rect id="_Rectangle_3" data-name="&lt;Rectangle&gt;" class="cls-19" x="29.52" y="59.47" width="1.96" height="6.24" transform="translate(-5.94 121.92) rotate(-122.47)"/><rect id="_Rectangle_4" data-name="&lt;Rectangle&gt;" class="cls-20" x="0.81" y="80.13" width="1.96" height="6.24" transform="translate(26.18 162.86) rotate(164.2)"/><rect id="_Rectangle_5" data-name="&lt;Rectangle&gt;" class="cls-19" x="29.52" y="147.99" width="1.96" height="6.24" transform="translate(84 6.54) rotate(31.72)"/><rect id="_Rectangle_6" data-name="&lt;Rectangle&gt;" class="cls-20" x="34.37" y="30.6" width="1.96" height="6.24" transform="matrix(-1, -0.03, 0.03, -1, 69.56, 68.59)"/><rect id="_Rectangle_7" data-name="&lt;Rectangle&gt;" class="cls-18" x="25.42" y="84.42" width="1.96" height="6.24" transform="translate(17.45 178.54) rotate(-157.6)"/><rect id="_Rectangle_8" data-name="&lt;Rectangle&gt;" class="cls-17" x="48.53" y="153.77" width="1.96" height="6.24" transform="translate(9.14 316.38) rotate(-148.28)"/><rect id="_Rectangle_9" data-name="&lt;Rectangle&gt;" class="cls-20" x="41.51" y="94.76" width="1.96" height="6.24" transform="translate(110.03 180.5) rotate(164.2)"/><rect id="_Rectangle_10" data-name="&lt;Rectangle&gt;" class="cls-19" x="14.38" y="75.12" width="1.96" height="6.24" transform="translate(18.41 157.92) rotate(-171.08)"/><rect id="_Rectangle_11" data-name="&lt;Rectangle&gt;" class="cls-17" x="157.95" y="72.73" width="1.96" height="6.24" transform="translate(253.16 224.62) rotate(-147.87)"/><rect id="_Rectangle_12" data-name="&lt;Rectangle&gt;" class="cls-18" x="138.59" y="75.42" width="1.96" height="6.24" transform="translate(-20.52 82.96) rotate(-30.95)"/><rect id="_Rectangle_13" data-name="&lt;Rectangle&gt;" class="cls-19" x="131.9" y="18.9" width="1.96" height="6.24" transform="translate(257 74.32) rotate(-166.56)"/><rect id="_Rectangle_14" data-name="&lt;Rectangle&gt;" class="cls-20" x="16.07" y="133.38" width="1.96" height="6.24" transform="translate(-69.22 29.36) rotate(-31.72)"/><rect id="_Rectangle_15" data-name="&lt;Rectangle&gt;" class="cls-17" x="17.27" y="41.23" width="1.96" height="6.24" transform="translate(-20.59 16.22) rotate(-31.72)"/><rect id="_Rectangle_16" data-name="&lt;Rectangle&gt;" class="cls-19" x="154.63" y="41.23" width="1.96" height="6.24" transform="translate(34.66 151.83) rotate(-57.53)"/><rect id="_Rectangle_17" data-name="&lt;Rectangle&gt;" class="cls-17" x="117.54" y="10.01" width="1.96" height="6.24" transform="translate(2 38.47) rotate(-18.59)"/><rect id="_Rectangle_18" data-name="&lt;Rectangle&gt;" class="cls-20" x="146.26" y="24.18" width="1.96" height="6.24" transform="translate(296.8 19.64) rotate(166.56)"/><rect id="_Rectangle_19" data-name="&lt;Rectangle&gt;" class="cls-19" x="105.67" y="68.22" width="1.96" height="6.24" transform="translate(158.34 188.78) rotate(-147.53)"/><rect id="_Rectangle_20" data-name="&lt;Rectangle&gt;" class="cls-17" x="46.33" y="11.67" width="1.96" height="6.24" transform="translate(79.28 52.66) rotate(-147.53)"/><rect id="_Rectangle_21" data-name="&lt;Rectangle&gt;" class="cls-17" x="129.45" y="54.83" width="1.96" height="6.24" transform="translate(22.59 -35.54) rotate(16.97)"/><rect id="_Rectangle_22" data-name="&lt;Rectangle&gt;" class="cls-17" x="155.51" y="126.64" width="1.96" height="6.24" transform="translate(44.69 -40.02) rotate(16.97)"/><rect id="_Rectangle_23" data-name="&lt;Rectangle&gt;" class="cls-18" x="138.59" y="36.68" width="1.96" height="6.24" transform="translate(24.72 -48.93) rotate(21.77)"/><rect id="_Rectangle_24" data-name="&lt;Rectangle&gt;" class="cls-18" x="118.74" y="95.77" width="1.96" height="6.24" transform="translate(-28.65 53.07) rotate(-22.4)"/><rect id="_Rectangle_25" data-name="&lt;Rectangle&gt;" class="cls-18" x="163.54" y="102.78" width="1.96" height="6.24" transform="translate(-27.94 70.67) rotate(-22.4)"/><rect id="_Rectangle_26" data-name="&lt;Rectangle&gt;" class="cls-18" x="56.67" y="68.22" width="1.96" height="6.24" transform="translate(-22.83 27.35) rotate(-22.4)"/><rect id="_Rectangle_27" data-name="&lt;Rectangle&gt;" class="cls-19" x="121.59" y="36.68" width="1.96" height="6.24" transform="translate(232.54 106.99) rotate(-166.56)"/><rect id="_Rectangle_28" data-name="&lt;Rectangle&gt;" class="cls-18" x="117.54" y="152.06" width="1.96" height="6.24" transform="translate(281.51 262.7) rotate(160.78)"/><rect id="_Rectangle_29" data-name="&lt;Rectangle&gt;" class="cls-18" x="19.77" y="16.59" width="1.96" height="6.24" transform="translate(-6.34 28.94) rotate(-62.35)"/><rect id="_Rectangle_30" data-name="&lt;Rectangle&gt;" class="cls-20" x="148.48" y="55.88" width="1.96" height="6.24" transform="translate(-10.2 40.85) rotate(-15.06)"/><rect id="_Rectangle_31" data-name="&lt;Rectangle&gt;" class="cls-20" x="118.74" y="73.99" width="1.96" height="6.24" transform="translate(236.8 158.16) rotate(-178.09)"/><rect id="_Rectangle_32" data-name="&lt;Rectangle&gt;" class="cls-20" x="141.6" y="143.67" width="1.96" height="6.24" transform="translate(280.2 298.25) rotate(-178.09)"/><path class="cls-21" d="M68,52.81c2.23-1.75,8.73-.79,10.82,2.87S76.16,63.47,71,62,64.77,55.34,68,52.81Z"/><path class="cls-21" d="M96.21,52.81C94,51.05,87.47,52,85.39,55.68S88,63.47,93.16,62,99.44,55.34,96.21,52.81Z"/></g></g></svg>