<svg xmlns="http://www.w3.org/2000/svg" viewBox="0 0 71.55 121.82"><defs><style>.cls-1,.cls-11{fill:#abd2e7;}.cls-2{fill:#e7e7e7;}.cls-13,.cls-3{fill:#77c6e5;}.cls-4{fill:#2b2b35;}.cls-5{fill:#454751;}.cls-6{fill:#d7d6d5;}.cls-7{fill:#2c2c2d;}.cls-8{fill:#e1e2e2;}.cls-9{fill:#fff;}.cls-10{fill:#434851;}.cls-11,.cls-13{fill-rule:evenodd;}.cls-12{fill:#57c0c3;}.cls-14{fill:none;stroke:#2b2b35;stroke-miterlimit:10;stroke-width:0.47px;}</style></defs><title>Asset 9</title><g id="Layer_2" data-name="Layer 2"><g id="Layer_1-2" data-name="Layer 1"><path class="cls-1" d="M50.14,7.86l-1-.45a9.8,9.8,0,0,1-3.91-3.21L44.18,2.73a9.41,9.41,0,0,1-5.1-.92L35.41,0,31.74,1.81a9.41,9.41,0,0,1-5.1.92L25.58,4.21a9.8,9.8,0,0,1-3.91,3.21l-1,.45a1.6,1.6,0,0,0-.94,1.45c0,3,2.4,6.61,5.36,6.61l10.31-1.25,10.31,1.25c3,0,5.36-3.65,5.36-6.61A1.6,1.6,0,0,0,50.14,7.86Z"/><path class="cls-2" d="M62.7,100.61a7.33,7.33,0,0,0,2.9-4.07s-1.7,3.59-5.16,4.56c0,0,2.64-1.64,2.75-4.11,0,0-1.47,3.93-5.22,4.18a5.5,5.5,0,0,0,3.31-3.87s-2.09,3.13-4.69,3.66c0,0,10.08-15.14-9.88-25.13L45.37,65.17,50.55,56S75.47,61.13,71,89c-1.51,9.47-8.32,11.59-8.32,11.59"/><path class="cls-3" d="M58.18,86.9c-1.44-3.75-4.75-7.7-11.47-11.07L45.37,65.17,50.56,56s21.57,4.45,21,27.55c0,0-4-2.27-8-.86a9.22,9.22,0,0,0-5.34,4.22"/><path class="cls-4" d="M71.44,80.11a34,34,0,0,1,.09,3.43s-4-2.27-8-.86a9.22,9.22,0,0,0-5.34,4.22,15.86,15.86,0,0,0-2.6-4.39C61.67,78.86,66.07,78.26,71.44,80.11Z"/><path class="cls-2" d="M8.86,100.61A7.33,7.33,0,0,1,6,96.54s1.7,3.59,5.16,4.56c0,0-2.64-1.64-2.75-4.11,0,0,1.47,3.93,5.22,4.18a5.5,5.5,0,0,1-3.31-3.87S12.36,100.44,15,101c0,0-10.08-15.14,9.88-25.13l1.34-10.66L21,56S-3.92,61.13.53,89C2,98.49,8.86,100.61,8.86,100.61"/><path class="cls-3" d="M13.37,86.9c1.44-3.75,4.75-7.7,11.47-11.07l1.34-10.66L21,56S-.57,60.44,0,83.53c0,0,4-2.27,8-.86a9.22,9.22,0,0,1,5.34,4.22"/><path class="cls-1" d="M24.43,46a7.91,7.91,0,0,0-.62,1.89C22.63,52,20.66,59,16.32,63.22c0,0,4,15.55,19.42,15.55S55.16,63.22,55.16,63.22C51,59.22,48.89,52.08,47.75,48c-.47-1.69-.52-1.87-.58-2.06"/><path class="cls-4" d="M46.66,110.77H46.6A21.83,21.83,0,0,0,58.47,91.5c0-12.1-10.16-21.92-22.69-21.92S13.09,79.39,13.09,91.5A21.82,21.82,0,0,0,25,110.77h-.06a13.67,13.67,0,0,1,6.67,9.29,2,2,0,0,1,1.79,0v-6.78a23.15,23.15,0,0,0,4.84,0v6.78a2,2,0,0,1,1.79,0A13.67,13.67,0,0,1,46.66,110.77Z"/><path class="cls-4" d="M.11,80.11A34,34,0,0,0,0,83.53s4-2.27,8-.86a9.22,9.22,0,0,1,5.34,4.22A15.86,15.86,0,0,1,16,82.51C9.88,78.86,5.48,78.26.11,80.11Z"/><path class="cls-1" d="M35.78,54C20.71,54,8.5,67.68,8.5,84.51a31.58,31.58,0,0,0,11.75,25c14.46,5.1,15.53-6.22,15.53-6.22,2.11,11.21,12.75,7.54,15.38,6.34A31.56,31.56,0,0,0,63.06,84.51C63.06,67.68,50.85,54,35.78,54Z"/><circle class="cls-5" cx="35.98" cy="52.12" r="1.32"/><circle class="cls-6" cx="35.98" cy="52.12" r="0.31"/><circle class="cls-5" cx="35.98" cy="59.61" r="1.31"/><circle class="cls-6" cx="35.98" cy="59.61" r="0.31"/><path class="cls-7" d="M37.25,121.36l.09-.05-.09-.08v-1.61a.37.37,0,0,1,.37-.37,2.28,2.28,0,0,0,1.41.43,4.55,4.55,0,0,0,1.56-.43s0-.21.22,0c1.38,1.29,4.47,1.56,4.47,1.56.17,0,.29.27.13.46,0,0-.08.07-.08.1l.09.1a.37.37,0,0,1-.37.37H37.62a.37.37,0,0,1-.37-.37Z"/><path class="cls-7" d="M34.23,121.45a.37.37,0,0,1-.37.37H26.44a.37.37,0,0,1-.37-.37l.09-.1s-.06-.08-.08-.1c-.16-.19,0-.46.13-.46,0,0,3.09-.26,4.47-1.56.22-.21.17,0,.22,0a4.56,4.56,0,0,0,1.56.43,2.28,2.28,0,0,0,1.41-.43.37.37,0,0,1,.37.37v1.61l-.09.08.09.05v.1Z"/><path class="cls-8" d="M48,28.2c.17-3.47-.07-7.22-1.43-9.81-.7-2-3-3.26-5.32-4,1,0,1.92,0,1.92,0a6.67,6.67,0,0,0-6.27-1c-.5-.07-.9-.11-1.16-.14a17.13,17.13,0,0,1,2.45-1.12c-3.85-.94-7.14,1.16-8.57,2.29-2.27.77-4.48,2-5.17,4-1.36,2.59-1.6,6.34-1.43,9.81a24,24,0,0,0,.69,8.17c1.71,4,1.19,7.2.39,10.33l-.32,1.22L35.78,69v.08l12-20.83c-.11-.42-.29-1.13-.42-1.58-.86-3-2-6.54-.09-10.36A24.16,24.16,0,0,0,48,28.2Z"/><ellipse class="cls-9" cx="27.41" cy="26.09" rx="2.64" ry="1.97" transform="translate(-0.85 0.92) rotate(-1.9)"/><path class="cls-4" d="M28.61,25.86a1.22,1.22,0,1,1-1.38-1A1.22,1.22,0,0,1,28.61,25.86Z"/><ellipse class="cls-9" cx="43.55" cy="26.09" rx="2.64" ry="1.97" transform="translate(-0.84 1.46) rotate(-1.9)"/><path class="cls-4" d="M44.75,25.86a1.22,1.22,0,1,1-1.38-1A1.22,1.22,0,0,1,44.75,25.86Z"/><path class="cls-10" d="M35.54,28.73a6.84,6.84,0,0,1-4,2.8C33.65,32.87,35.79,37,35.79,37s2-4.08,4.18-5.43C40,31.53,36.85,30.93,35.54,28.73Z"/><path class="cls-11" d="M34.56,56.08l1.3,4.23V73.58s-5-6.36-6.75-10.67c-1.45-3.54-5.44-14-5.44-14a62.78,62.78,0,0,0,5.41,4.79A47.7,47.7,0,0,0,34.56,56.08Z"/><path class="cls-11" d="M37.12,56,35.81,66.81v6.68s5-6.36,6.75-10.67c1.46-3.54,5.44-14,5.44-14a61.8,61.8,0,0,1-5.42,4.79A47.87,47.87,0,0,1,37.12,56Z"/><path class="cls-12" d="M35.34,60.32l-2.76-2.76a.82.82,0,0,1,.58-1.39h5.52a.82.82,0,0,1,.58,1.39l-2.76,2.76A.82.82,0,0,1,35.34,60.32Z"/><path class="cls-13" d="M23.67,47.41a16.4,16.4,0,0,0,4.57,4.81,45.63,45.63,0,0,0,6.32,3.87,5.43,5.43,0,0,0-2.34,3.27,13.82,13.82,0,0,0-.11,3.08S26.05,56,23.67,49A6.11,6.11,0,0,1,23.67,47.41Z"/><path class="cls-13" d="M48,47.32a16.4,16.4,0,0,1-4.57,4.81A45.52,45.52,0,0,1,37.12,56a5.44,5.44,0,0,1,2.34,3.27,13.77,13.77,0,0,1,.11,3.08s6.05-6.4,8.44-13.49A6.19,6.19,0,0,0,48,47.32Z"/><path class="cls-12" d="M38.12,74.09l-1.67-14c-.07-.56-.88-.43-.95.13L33.84,74.09Z"/><line class="cls-14" x1="35.86" y1="75.49" x2="35.78" y2="106.49"/><path class="cls-3" d="M23.67,48.54l1,6.38L22,57.7a60,60,0,0,0,5,9.39,36.42,36.42,0,0,0,8.85,9.49v-3a66.09,66.09,0,0,1-5.4-8.81C24.41,52,23.67,48.54,23.67,48.54Z"/><path class="cls-3" d="M48,48.45l-1,6.38,2.66,2.78a59.51,59.51,0,0,1-5,9.39,36.28,36.28,0,0,1-8.85,9.49v-3a66,66,0,0,0,5.4-8.81C47.27,51.86,48,48.45,48,48.45Z"/><path class="cls-3" d="M47,19.51c-3.68,4.27-19.06,3.95-23,0L31,17.05l14.28,1.34Z"/><path class="cls-3" d="M24.05,19.49v-6.9a.81.81,0,0,1,.88-.7,52.81,52.81,0,0,1,10.28-1.12,48.14,48.14,0,0,1,10.93,1.12.81.81,0,0,1,.88.7v6.9Z"/><rect class="cls-4" x="24.05" y="18.03" width="22.99" height="1.32"/><rect class="cls-4" x="16.26" y="87" width="13.45" height="2.53"/><rect class="cls-4" x="41.85" y="87" width="13.45" height="2.53"/><path class="cls-4" d="M35.18,13.27A56,56,0,0,1,47,14.44V12.59a.81.81,0,0,0-.88-.7,48.14,48.14,0,0,0-10.93-1.12,52.81,52.81,0,0,0-10.28,1.12.81.81,0,0,0-.88.7v1.86A59.06,59.06,0,0,1,35.18,13.27Z"/></g></g></svg>