<?xml version="1.0" encoding="utf-8"?>
<!-- Generator: Adobe Illustrator 19.2.1, SVG Export Plug-In . SVG Version: 6.00 Build 0)  -->
<svg version="1.1" id="Layer_1" xmlns="http://www.w3.org/2000/svg" xmlns:xlink="http://www.w3.org/1999/xlink" x="0px" y="0px"
	 width="200px" height="200px" viewBox="0 0 200 200" style="enable-background:new 0 0 200 200;" xml:space="preserve">
<style type="text/css">
	.st0{fill:#E2E3E4;}
	.st1{fill:#595D62;}
	.st2{fill:#C7702A;}
	.st3{fill:#C9C7C7;}
	.st4{fill:#EA8824;}
	.st5{fill:none;stroke:#C9C7C7;stroke-width:0.75651;stroke-miterlimit:10;}
	.st6{fill-rule:evenodd;clip-rule:evenodd;fill:#444851;}
	.st7{fill-rule:evenodd;clip-rule:evenodd;fill:#D8D7D6;}
	.st8{fill:#FFFFFF;}
	.st9{fill:#2B2B35;}
	.st10{fill:#434850;}
	.st11{fill:#6C4396;}
	.st12{fill:#A4A4A4;}
	.st13{fill:#EA4C65;}
	.st14{fill:#94814F;}
	.st15{fill:#9C2023;}
	.st16{fill:#B7242C;}
	.st17{fill-rule:evenodd;clip-rule:evenodd;fill:#FFFFFF;}
	.st18{fill:#0C4F6E;}
	.st19{fill:#C18E46;}
	.st20{fill:#3180BF;}
	.st21{fill:#D94F4F;}
	.st22{fill:#2C2C2D;}
	.st23{fill:#595E63;}
	.st24{fill:#E3E2E2;}
	.st25{fill:#9D9EA0;}
	.st26{fill:none;stroke:#C8C6C6;stroke-width:0.75651;stroke-miterlimit:10;}
	.st27{fill:#2A2E35;}
	.st28{fill-rule:evenodd;clip-rule:evenodd;fill:#454751;}
	.st29{fill-rule:evenodd;clip-rule:evenodd;fill:#D8D7D5;}
	.st30{fill:#434851;}
	.st31{fill:#EC9424;}
	.st32{fill:#445AA4;}
	.st33{clip-path:url(#SVGID_2_);fill:#58C1C4;}
	.st34{fill:#B7DBDB;}
	.st35{fill:#58C1C4;}
	.st36{fill:none;stroke:#434851;stroke-width:1.51302;stroke-linecap:round;stroke-linejoin:round;stroke-miterlimit:10;}
	.st37{clip-path:url(#SVGID_4_);fill:#58C1C4;}
	.st38{fill:#010101;}
	.st39{fill:#161718;}
	.st40{fill-rule:evenodd;clip-rule:evenodd;fill:#010101;}
	.st41{fill:#272626;}
	.st42{fill:#17191A;}
	.st43{fill:#D4D5D4;}
	.st44{fill-rule:evenodd;clip-rule:evenodd;fill:#272626;}
	.st45{fill-rule:evenodd;clip-rule:evenodd;fill:#E2E3E4;}
	.st46{fill:#19244E;}
	.st47{fill:#E3E1E1;}
	.st48{fill:#8E1B27;}
	.st49{fill:#CA2033;}
	.st50{fill:#EFE0A7;}
	.st51{fill:none;stroke:#EFE0A7;stroke-width:0.09335;stroke-miterlimit:10;}
	.st52{fill:#EECA81;}
	.st53{fill:#F3F3F3;}
	.st54{fill:#A0A1A4;}
	.st55{fill:#EB6B6D;}
	.st56{fill:none;stroke:#CAC8C6;stroke-width:0.02289;stroke-miterlimit:10;}
	.st57{fill:#464951;}
	.st58{fill:#D7D6D6;}
	.st59{fill:#EECC82;}
	.st60{fill:#F0E0A9;}
	.st61{fill:none;stroke:#F0E0A9;stroke-width:0.01145;stroke-miterlimit:10;}
	.st62{fill:#5AC1C2;}
	.st63{clip-path:url(#SVGID_6_);fill:#E2E3E4;}
	.st64{fill:#EE7823;}
	.st65{fill:#D6563D;}
	.st66{fill:#70533D;}
	.st67{fill:#81BCA9;}
	.st68{clip-path:url(#SVGID_8_);fill:#E2E3E4;}
	.st69{fill:none;stroke:#EFE0A7;stroke-width:0.37825;stroke-miterlimit:10;}
	.st70{clip-path:url(#SVGID_10_);}
	.st71{clip-path:url(#SVGID_12_);fill:#E3E2E2;}
	.st72{clip-path:url(#SVGID_12_);}
	.st73{fill-rule:evenodd;clip-rule:evenodd;fill:#1AAEA1;}
	.st74{fill-rule:evenodd;clip-rule:evenodd;fill:#0C8C70;}
	.st75{fill:#1AAEA1;}
	.st76{fill:#6F513B;}
	.st77{fill:#515050;}
	.st78{fill:#D4563A;}
	.st79{fill:none;}
	.st80{clip-path:url(#SVGID_14_);}
	.st81{clip-path:url(#SVGID_16_);fill:#E3E2E2;}
	.st82{clip-path:url(#SVGID_16_);}
	.st83{fill:#EEE3A3;}
	.st84{fill:none;stroke:#F0E0A9;stroke-width:0.37825;stroke-miterlimit:10;}
	.st85{clip-path:url(#SVGID_18_);}
	.st86{fill-rule:evenodd;clip-rule:evenodd;fill:#434850;}
	.st87{clip-path:url(#SVGID_20_);}
	.st88{fill:none;stroke:#E4CC21;stroke-width:1.92135;stroke-miterlimit:10;}
	.st89{fill:none;stroke:#FFFFFF;stroke-width:2.2037;stroke-miterlimit:10;}
	.st90{fill:#E4CC21;}
	.st91{fill:#232244;}
	.st92{fill:#C8C6C6;}
	.st93{fill:#542F19;}
	.st94{fill-rule:evenodd;clip-rule:evenodd;fill:#3D2E21;}
	.st95{fill:#3D2E21;}
	.st96{fill-rule:evenodd;clip-rule:evenodd;fill:#232244;}
	.st97{fill-rule:evenodd;clip-rule:evenodd;fill:#2E3280;}
	.st98{fill:#281911;}
	.st99{fill-rule:evenodd;clip-rule:evenodd;fill:#E4CC21;}
	.st100{fill-rule:evenodd;clip-rule:evenodd;fill:#D85127;}
	.st101{clip-path:url(#SVGID_22_);}
	.st102{fill-rule:evenodd;clip-rule:evenodd;fill:#EE7434;}
	.st103{fill:#17733B;}
	.st104{clip-path:url(#SVGID_24_);}
	.st105{fill:#1D73B6;}
	.st106{fill:#115E8E;}
	.st107{clip-path:url(#SVGID_26_);}
	.st108{fill:none;stroke:#FFFFFF;stroke-width:1.49993;stroke-miterlimit:10;}
	.st109{fill:none;stroke:#CAC8C6;stroke-width:0.024;stroke-miterlimit:10;}
	.st110{clip-path:url(#SVGID_28_);fill:#E2E3E4;}
	.st111{fill:#603A17;}
	.st112{fill:#78471F;}
	.st113{fill:#F8FAFD;}
	.st114{clip-path:url(#SVGID_30_);}
	.st115{clip-path:url(#SVGID_32_);}
	.st116{fill:none;stroke:#FFFFFF;stroke-width:0.49998;stroke-miterlimit:10;}
	.st117{fill:none;stroke:#FFFFFF;stroke-width:0.74997;stroke-miterlimit:10;}
	.st118{clip-path:url(#SVGID_34_);}
	.st119{clip-path:url(#SVGID_36_);}
	.st120{clip-path:url(#SVGID_38_);fill:#E2E3E4;}
	.st121{clip-path:url(#SVGID_40_);}
	.st122{clip-path:url(#SVGID_42_);}
	.st123{clip-path:url(#SVGID_44_);}
	.st124{opacity:0.7;fill:#434850;}
	.st125{fill:#5B3287;}
	.st126{fill:#643E1E;}
	.st127{fill:#C8D6DE;}
	.st128{fill:none;stroke:#CAC7C6;stroke-width:0.75651;stroke-miterlimit:10;}
	.st129{fill:#B6C3CE;}
	.st130{fill:#273980;}
	.st131{fill:#2B2C35;}
	.st132{clip-path:url(#SVGID_46_);fill:#FFFFFF;stroke:#5A3B84;stroke-width:4.53905;stroke-miterlimit:10;}
	.st133{fill:#C8C7C9;}
	.st134{fill:#056F43;}
	.st135{clip-path:url(#SVGID_48_);}
	.st136{fill:#EBEDF1;}
	.st137{fill:#CF2B29;}
	.st138{fill-rule:evenodd;clip-rule:evenodd;fill:#273980;}
	.st139{fill:#D6232A;}
	.st140{clip-path:url(#SVGID_52_);fill:#FFFFFF;stroke:#5A3B84;stroke-width:4.53905;stroke-miterlimit:10;}
	.st141{clip-path:url(#SVGID_54_);}
	.st142{fill:#532D17;}
	.st143{fill:none;stroke:#5E1116;stroke-width:0.95369;stroke-miterlimit:10;}
	.st144{fill-rule:evenodd;clip-rule:evenodd;fill:#5E1116;}
	.st145{fill:none;stroke:#5E1116;stroke-width:0.94639;stroke-miterlimit:10;}
	.st146{fill:#291B13;}
	.st147{fill-rule:evenodd;clip-rule:evenodd;fill:#291B13;}
	.st148{fill-rule:evenodd;clip-rule:evenodd;fill:#454850;}
	.st149{fill-rule:evenodd;clip-rule:evenodd;fill:#74441F;}
	.st150{fill:#7F161B;}
	.st151{fill-rule:evenodd;clip-rule:evenodd;fill:#7F161B;}
	.st152{fill:none;stroke:#5E1116;stroke-width:1.04342;stroke-miterlimit:10;}
	.st153{fill:#E4E0E4;}
	.st154{clip-path:url(#SVGID_58_);fill:#E1244D;}
	.st155{clip-path:url(#SVGID_60_);fill:#E1244D;}
	.st156{fill:#292933;}
	.st157{fill:none;stroke:#CAC8C6;stroke-width:0.02378;stroke-miterlimit:10;}
	.st158{fill:none;stroke:#F0E0A9;stroke-width:0.01189;stroke-miterlimit:10;}
	.st159{clip-path:url(#SVGID_62_);fill:#E2E3E4;}
	.st160{fill:#2F465D;}
	.st161{fill:#432F21;}
	.st162{fill-rule:evenodd;clip-rule:evenodd;fill:#3D5F7C;}
	.st163{fill-rule:evenodd;clip-rule:evenodd;fill:#2F465D;}
	.st164{font-family:'Georgia';}
	.st165{font-size:2.0629px;}
	.st166{font-size:2.06295px;}
	.st167{font-size:2.06308px;}
	.st168{clip-path:url(#SVGID_64_);fill:#2C2C2D;}
	.st169{clip-path:url(#SVGID_66_);fill:#F8B917;}
	.st170{clip-path:url(#SVGID_66_);fill:#1F4394;}
	.st171{clip-path:url(#SVGID_68_);fill:#E8212F;}
	.st172{clip-path:url(#SVGID_68_);fill:#C9C8C8;}
	.st173{clip-path:url(#SVGID_68_);fill:#2A2E35;}
	.st174{clip-path:url(#SVGID_68_);fill:#444750;}
	.st175{clip-path:url(#SVGID_68_);fill:#D7D7D6;}
	.st176{clip-path:url(#SVGID_68_);fill:#E3E2E2;}
	.st177{clip-path:url(#SVGID_68_);fill:#FFFFFF;}
	.st178{clip-path:url(#SVGID_68_);fill:#2B2D34;}
	.st179{clip-path:url(#SVGID_68_);fill:#B9252D;}
	.st180{clip-path:url(#SVGID_68_);fill:#24345B;}
	.st181{clip-path:url(#SVGID_68_);fill:#F7F6F8;}
	.st182{clip-path:url(#SVGID_70_);fill:#1F4394;}
	.st183{clip-path:url(#SVGID_70_);fill:#F8B917;}
	.st184{clip-path:url(#SVGID_70_);fill:#883D1E;}
	.st185{clip-path:url(#SVGID_70_);fill:#F5D07C;}
	.st186{clip-path:url(#SVGID_72_);fill:#E8212F;}
	.st187{clip-path:url(#SVGID_72_);fill:#E3E2E2;}
	.st188{clip-path:url(#SVGID_72_);fill:#F7F6F8;}
	.st189{clip-path:url(#SVGID_72_);fill:#F8B917;}
	.st190{clip-path:url(#SVGID_72_);fill:#888983;}
	.st191{clip-path:url(#SVGID_74_);fill:#888983;}
	.st192{clip-path:url(#SVGID_74_);fill:#624219;}
	.st193{clip-path:url(#SVGID_76_);fill:#E3E2E2;}
	.st194{clip-path:url(#SVGID_76_);fill:#2C2C2D;}
	.st195{clip-path:url(#SVGID_76_);fill:#888983;}
	.st196{clip-path:url(#SVGID_78_);fill:#F8B917;}
	.st197{clip-path:url(#SVGID_78_);fill:#1F4394;}
	.st198{clip-path:url(#SVGID_80_);fill:#E8212F;}
	.st199{clip-path:url(#SVGID_80_);fill:#C9C8C8;}
	.st200{clip-path:url(#SVGID_80_);fill:#2A2E35;}
	.st201{clip-path:url(#SVGID_80_);fill:#444750;}
	.st202{clip-path:url(#SVGID_80_);fill:#D7D7D6;}
	.st203{clip-path:url(#SVGID_80_);fill:#E3E2E2;}
	.st204{clip-path:url(#SVGID_80_);fill:#FFFFFF;}
	.st205{clip-path:url(#SVGID_80_);fill:#2B2D34;}
	.st206{clip-path:url(#SVGID_80_);fill:#B9252D;}
	.st207{clip-path:url(#SVGID_80_);fill:#24345B;}
	.st208{clip-path:url(#SVGID_80_);fill:#F7F6F8;}
	.st209{clip-path:url(#SVGID_82_);fill:#1F4394;}
	.st210{clip-path:url(#SVGID_82_);fill:#F8B917;}
	.st211{clip-path:url(#SVGID_82_);fill:#883D1E;}
	.st212{clip-path:url(#SVGID_82_);fill:#F5D07C;}
	.st213{clip-path:url(#SVGID_84_);fill:#E8212F;}
	.st214{clip-path:url(#SVGID_84_);fill:#E3E2E2;}
	.st215{clip-path:url(#SVGID_84_);fill:#F7F6F8;}
	.st216{clip-path:url(#SVGID_84_);fill:#F8B917;}
	.st217{clip-path:url(#SVGID_84_);fill:#888983;}
	.st218{clip-path:url(#SVGID_86_);fill:#888983;}
	.st219{clip-path:url(#SVGID_86_);fill:#624219;}
	.st220{clip-path:url(#SVGID_88_);fill:#E3E2E2;}
	.st221{clip-path:url(#SVGID_88_);fill:#2C2C2D;}
	.st222{clip-path:url(#SVGID_90_);fill:#2C2C2D;}
	.st223{clip-path:url(#SVGID_92_);fill:#F8B917;}
	.st224{clip-path:url(#SVGID_92_);fill:#1F4394;}
	.st225{clip-path:url(#SVGID_94_);fill:#E8212F;}
	.st226{clip-path:url(#SVGID_94_);fill:#C9C8C8;}
	.st227{clip-path:url(#SVGID_94_);fill:#2A2E35;}
	.st228{clip-path:url(#SVGID_94_);fill:#444750;}
	.st229{clip-path:url(#SVGID_94_);fill:#D7D7D6;}
	.st230{clip-path:url(#SVGID_94_);fill:#E3E2E2;}
	.st231{clip-path:url(#SVGID_94_);fill:#FFFFFF;}
	.st232{clip-path:url(#SVGID_94_);fill:#2B2D34;}
	.st233{clip-path:url(#SVGID_94_);fill:#B9252D;}
	.st234{clip-path:url(#SVGID_94_);fill:#24345B;}
	.st235{clip-path:url(#SVGID_94_);fill:#F7F6F8;}
	.st236{clip-path:url(#SVGID_96_);fill:#1F4394;}
	.st237{clip-path:url(#SVGID_96_);fill:#F8B917;}
	.st238{clip-path:url(#SVGID_96_);fill:#883D1E;}
	.st239{clip-path:url(#SVGID_96_);fill:#F5D07C;}
	.st240{clip-path:url(#SVGID_98_);fill:#E8212F;}
	.st241{clip-path:url(#SVGID_98_);fill:#E3E2E2;}
	.st242{clip-path:url(#SVGID_98_);fill:#F7F6F8;}
	.st243{clip-path:url(#SVGID_98_);fill:#F8B917;}
	.st244{clip-path:url(#SVGID_98_);fill:#888983;}
	.st245{clip-path:url(#SVGID_100_);fill:#888983;}
	.st246{clip-path:url(#SVGID_100_);fill:#624219;}
	.st247{clip-path:url(#SVGID_102_);fill:#E3E2E2;}
	.st248{clip-path:url(#SVGID_102_);fill:#2C2C2D;}
	.st249{clip-path:url(#SVGID_102_);fill:#888983;}
	.st250{clip-path:url(#SVGID_104_);fill:#F8B917;}
	.st251{clip-path:url(#SVGID_104_);fill:#1F4394;}
	.st252{clip-path:url(#SVGID_106_);fill:#E8212F;}
	.st253{clip-path:url(#SVGID_106_);fill:#C9C8C8;}
	.st254{clip-path:url(#SVGID_106_);fill:#2A2E35;}
	.st255{clip-path:url(#SVGID_106_);fill:#444750;}
	.st256{clip-path:url(#SVGID_106_);fill:#D7D7D6;}
	.st257{clip-path:url(#SVGID_106_);fill:#E3E2E2;}
	.st258{clip-path:url(#SVGID_106_);fill:#FFFFFF;}
	.st259{clip-path:url(#SVGID_106_);fill:#2B2D34;}
	.st260{clip-path:url(#SVGID_106_);fill:#B9252D;}
	.st261{clip-path:url(#SVGID_106_);fill:#24345B;}
	.st262{clip-path:url(#SVGID_106_);fill:#F7F6F8;}
	.st263{clip-path:url(#SVGID_108_);fill:#1F4394;}
	.st264{clip-path:url(#SVGID_108_);fill:#F8B917;}
	.st265{clip-path:url(#SVGID_108_);fill:#883D1E;}
	.st266{clip-path:url(#SVGID_108_);fill:#F5D07C;}
	.st267{clip-path:url(#SVGID_110_);fill:#E8212F;}
	.st268{clip-path:url(#SVGID_110_);fill:#E3E2E2;}
	.st269{clip-path:url(#SVGID_110_);fill:#F7F6F8;}
	.st270{clip-path:url(#SVGID_110_);fill:#F8B917;}
	.st271{clip-path:url(#SVGID_110_);fill:#888983;}
	.st272{clip-path:url(#SVGID_112_);fill:#888983;}
	.st273{clip-path:url(#SVGID_112_);fill:#624219;}
	.st274{clip-path:url(#SVGID_114_);fill:#E3E2E2;}
	.st275{clip-path:url(#SVGID_114_);fill:#2C2C2D;}
	.st276{fill:#EDE2A3;}
	.st277{clip-path:url(#SVGID_116_);}
	.st278{fill-rule:evenodd;clip-rule:evenodd;fill:#434851;}
	.st279{fill-rule:evenodd;clip-rule:evenodd;fill:#E3E2E2;}
	.st280{fill:#2A2B2A;}
	.st281{clip-path:url(#SVGID_118_);}
	.st282{clip-path:url(#SVGID_120_);}
	.st283{clip-path:url(#SVGID_122_);}
	.st284{fill:#1F3566;}
	.st285{fill:#E3E4E5;}
	.st286{fill:#4BB1E4;}
	.st287{fill:#2D2A6C;}
	.st288{fill-rule:evenodd;clip-rule:evenodd;fill:#D8D9D5;}
	.st289{fill:#434852;}
	.st290{fill:#E3E3E3;}
	.st291{fill:#162E54;}
	.st292{fill:none;stroke:#335DAB;stroke-width:1.68786;stroke-miterlimit:10;}
	.st293{fill:#81817F;}
	.st294{fill:#142B49;}
	.st295{fill:#5A5A5A;}
	.st296{fill:none;stroke:#FFFFFF;stroke-width:0.84393;stroke-linecap:round;stroke-linejoin:round;stroke-miterlimit:10;}
	.st297{fill:#AB9D9C;}
	.st298{fill:#EA6689;}
	.st299{fill:#CE1D5B;}
	.st300{fill:#BF742A;}
	.st301{fill:#273449;}
	.st302{fill:#A4464B;}
	.st303{fill:none;stroke:#CAC8C6;stroke-width:0.0662;stroke-miterlimit:10;}
	.st304{fill:#80333A;}
	.st305{fill:none;stroke:#B4B4B4;stroke-width:0.25748;stroke-miterlimit:10;}
	.st306{fill:none;stroke:#B4B4B4;stroke-width:3.08973;stroke-miterlimit:10;}
	.st307{fill:none;stroke:#B4B4B4;stroke-width:1.02991;stroke-miterlimit:10;}
	.st308{fill:none;stroke:#82858B;stroke-width:0.51495;stroke-miterlimit:10;}
	.st309{fill:none;stroke:#E2E3E4;stroke-width:1.02991;stroke-miterlimit:10;}
	.st310{fill:#E5E5E5;}
	.st311{fill:#2D2C2D;}
	.st312{fill:#4CB2E5;}
	.st313{fill:#AD2824;}
	.st314{fill-rule:evenodd;clip-rule:evenodd;fill:#D9D9D6;}
	.st315{fill:#E4E4E3;}
	.st316{fill:#DB4826;}
	.st317{fill:#B33725;}
	.st318{fill:#120C0D;}
	.st319{fill:#F3F0F0;}
	.st320{fill:#C4BFBF;}
	.st321{clip-path:url(#SVGID_124_);fill:none;stroke:#F3F0F0;stroke-width:1.10165;stroke-linecap:round;stroke-miterlimit:10;}
	.st322{clip-path:url(#SVGID_126_);fill:none;stroke:#F3F0F0;stroke-width:1.10165;stroke-linecap:round;stroke-miterlimit:10;}
	.st323{clip-path:url(#SVGID_128_);fill:none;stroke:#F3F0F0;stroke-width:1.10165;stroke-linecap:round;stroke-miterlimit:10;}
	.st324{fill:#DE5B2A;}
	.st325{fill:#7A2716;}
	.st326{fill:#E5E4E4;}
	.st327{fill:#BB4928;}
	.st328{fill:#454545;}
	.st329{fill:#6265AE;}
	.st330{fill:none;stroke:#CAC5C4;stroke-width:0.55083;stroke-linecap:round;stroke-miterlimit:10;}
	.st331{fill:#E1E3E3;}
	.st332{fill:#484848;}
	.st333{fill:#422F90;}
	.st334{fill:#D57A28;}
	.st335{fill:#B4B4B5;}
	.st336{fill:#4B4B4D;}
	.st337{fill:#949393;}
	.st338{fill:#040404;}
	.st339{clip-path:url(#SVGID_130_);fill:none;stroke:#F3F0F0;stroke-width:1.10165;stroke-linecap:round;stroke-miterlimit:10;}
	.st340{clip-path:url(#SVGID_132_);fill:none;stroke:#F3F0F0;stroke-width:1.10165;stroke-linecap:round;stroke-miterlimit:10;}
	.st341{clip-path:url(#SVGID_134_);fill:none;stroke:#F3F0F0;stroke-width:1.10165;stroke-linecap:round;stroke-miterlimit:10;}
	.st342{clip-path:url(#SVGID_140_);fill:#AD2824;}
	.st343{fill:#CDCCCC;}
	.st344{fill:#E4E5E6;}
	.st345{opacity:0.72;fill:none;stroke:#FFFFFF;stroke-width:1.1546;stroke-linecap:round;stroke-miterlimit:10;}
	.st346{fill:#BBD867;}
	.st347{fill:none;stroke:#BBD867;stroke-width:5.799;stroke-miterlimit:10;}
	.st348{clip-path:url(#SVGID_146_);fill:#AD2824;}
	.st349{fill:none;stroke:#AE4E85;stroke-width:1.54066;stroke-linecap:round;stroke-linejoin:round;stroke-miterlimit:10;}
	.st350{fill:none;stroke:#E97625;stroke-width:1.62274;stroke-linecap:round;stroke-linejoin:round;stroke-miterlimit:10;}
	.st351{fill:none;stroke:#C9C7C7;stroke-width:0.23348;stroke-miterlimit:10;}
	.st352{fill:#981E5C;}
	.st353{fill:none;stroke:#AE4E85;stroke-width:1.21706;stroke-linecap:round;stroke-linejoin:round;stroke-miterlimit:10;}
	.st354{fill:#AE4E85;}
	.st355{fill:#F7B456;}
	.st356{fill:#E97625;}
	.st357{fill:none;stroke:#E97625;stroke-width:1.54273;stroke-linecap:round;stroke-linejoin:round;stroke-miterlimit:10;}
</style>
<g>
	<path class="st0" d="M142.12444,99.96476c0,0,7.90001-2.33402,9.98085-6.21246c3.36462-6.27898-4.17665-4.76202-4.17665-4.76202
		s1.35182-2.05357,3.94-3.44643c2.41454-1.29885,7.93253-1.00491,8.3593,5.08498c0.42226,6.06413-0.65489,6.54314-0.65489,6.54314
		s1.53397-2.09532,1.18526-6.52615c-0.36322-4.70524-2.21045-4.74226-1.08823-5.15724
		c0.54788-0.20043,4.5829,2.8095,5.25984,5.31485c0.64291,2.3575-0.15108,6.33503-1.71107,8.90592
		c-2.75426,4.56417,2.63019-1.37988,2.38852-7.35992c-0.024-0.62015,2.71773,6.79054,1.24733,12.06493
		c-0.58739,2.0903-1.85121,4.16386-1.85121,4.16386c0.53986-0.58136,1.21732-1.7441,1.90372-3.31859
		c1.14674-2.61645,0.84903-5.81242,0.84903-5.81242s3.80643,2.47676,0.07053,12.58071
		c-3.11197,8.41737-17.97643,20.4315-17.97643,20.4315c-12.98425-15.43078-12.54898-23.76838-12.54898-23.76838"/>
	<g>
		<path class="st0" d="M46.9469,170.28096c0,0-3.75888-2.20786-5.37145-7.54776c0,0,3.14904,6.66576,9.57462,8.45683
			c0,0-4.89362-3.03137-5.10677-7.61678c0,0,2.72825,7.28407,9.67518,7.7459c0,0-5.11629-1.8512-6.14194-7.16754
			c0,0,3.86747,5.79665,8.70105,6.78479c0,0-18.68689-28.06036,18.31211-46.59312l2.48163-19.76085l-9.61914-17.03884
			c0,0-46.18289,9.53456-37.93459,61.25723C34.31934,166.35049,46.9469,170.28096,46.9469,170.28096z"/>
		<path class="st146" d="M55.32419,144.8553c2.67371-6.95691,8.81462-14.27405,21.26551-20.51202l2.48163-19.76085
			l-9.61914-17.03884c0,0-39.98095,8.25551-38.89971,51.07477c0,0,7.36965-4.20567,14.86993-1.58755
			C52.91815,139.63998,55.32419,144.8553,55.32419,144.8553z"/>
	</g>
	<path class="st146" d="M144.09868,99.29762c-8.26523,3.09547-19.56045,3.3859-34.80613-2.75053l-19.4894,13.31672
		l-7.63887,21.91721c0,0,38.52152,28.97089,75.71016-5.6156c0,0-9.48251-3.24303-13.01126-11.9446
		C141.3394,105.52303,144.09868,99.29762,144.09868,99.29762z"/>
	<path class="st160" d="M105.92088,176.66656l-0.10855,0.0085c11.88257-6.20198,19.95171-18.29962,19.95171-32.19748
		c0-20.21787-17.07187-36.61156-38.11828-36.61156c-21.0484,0-38.1092,16.39368-38.1092,36.61156
		c0,13.89786,8.0601,25.9955,19.94215,32.19748l-0.09706-0.00502c5.77015,3.3116,9.95735,8.91422,11.19559,15.50938
		c0.25416-0.13962,1.43197-0.68997,3.00443,0.02498v-11.32367c1.33784,0.13608,2.6912,0.21063,4.06409,0.21063
		c1.36887,0,2.7232-0.07455,4.07108-0.21063v11.32367c1.58549-0.72891,2.77225-0.1496,3.00491-0.01796
		C95.96105,185.58426,100.14072,179.98164,105.92088,176.66656z"/>
	<path class="st3" d="M87.64576,135.43533c-13.92487,0-25.25807-11.33021-25.25807-25.25884
		c0-13.91859,11.3332-25.25604,25.25807-25.25604c13.92538,0,25.25704,11.33746,25.25704,25.25604
		C112.9028,124.10513,101.57114,135.43533,87.64576,135.43533z M87.64576,85.30566c-13.71774,0-24.87534,11.1556-24.87534,24.87083
		c0,13.71996,11.1576,24.87756,24.87534,24.87756c13.71272,0,24.87634-11.15759,24.87634-24.87756
		C112.5221,96.46126,101.35848,85.30566,87.64576,85.30566z"/>
	<path class="st161" d="M70.1196,68.93703c-0.29913,2.34075-1.71507,0.28719-2.47255,2.75574
		c-2.09136,6.85938-5.25183,18.58307-12.50198,25.55c0,0,6.65424,25.98178,32.43366,25.98178
		c25.78139,0,32.44361-25.98178,32.44361-25.98178c-6.9619-6.67823-10.16643-18.68914-12.38087-25.4209
		c-0.92558-2.82428-2.41753-0.72246-2.75272-3.31837"/>
	<path class="st27" d="M87.57874,81.76321c-25.29808,0-45.80212,22.90853-45.80212,51.169
		c0,17.4301,7.80994,32.81888,19.7275,42.05576c24.04729-9.22736,26.07462-35.24593,26.07462-35.24593
		c3.6118,24.17738,18.39915,32.6683,25.82143,35.45461c12.06467-9.21941,19.98968-24.70325,19.98968-42.26443
		C133.38985,104.67174,112.87882,81.76321,87.57874,81.76321z"/>
	<path class="st161" d="M87.57874,81.76321c-25.29808,0-45.80212,22.90853-45.80212,51.169
		c0,17.4301,7.80994,32.81888,19.7275,42.05576c24.28497,8.56247,26.07462-10.43864,26.07462-10.43864
		c3.53476,18.81497,21.4021,12.65457,25.82143,10.64732c12.06467-9.21941,19.98968-24.70325,19.98968-42.26443
		C133.38985,104.67174,112.87882,81.76321,87.57874,81.76321z"/>
	<g>
		<circle class="st6" cx="87.97884" cy="78.70853" r="2.19772"/>
		<path class="st7" d="M88.4938,78.70972c0,0.28445-0.23513,0.51434-0.51582,0.51434c-0.28867,0-0.51784-0.22988-0.51784-0.51434
			c0-0.28693,0.22917-0.51707,0.51784-0.51707C88.25867,78.19265,88.4938,78.42279,88.4938,78.70972z"/>
	</g>
	<g>
		<ellipse class="st6" cx="87.97884" cy="91.21044" rx="2.19816" ry="2.19365"/>
		<path class="st7" d="M88.4938,91.20995c0,0.28741-0.23513,0.51282-0.51582,0.51282c-0.28867,0-0.51784-0.2254-0.51784-0.51282
			c0-0.28896,0.22917-0.51585,0.51784-0.51585C88.25867,90.69411,88.4938,90.921,88.4938,91.20995z"/>
	</g>
	<path class="st0" d="M108.12933,38.75983c0.28967-5.79748-0.11509-12.06715-2.38808-16.38218
		c-1.17122-3.36215-5.00266-5.44398-8.89462-6.71628c1.73457-0.04027,3.21303-0.03177,3.21303-0.03177
		c-4.14512-2.78926-7.77797-2.59642-10.48217-1.61176c-0.83803-0.11708-1.50495-0.19309-1.93874-0.23014
		c1.93526-1.11221,4.08863-1.87722,4.08863-1.87722c-6.42407-1.57075-11.91109,1.93301-14.31111,3.83646
		c-3.79291,1.28054-7.48177,3.34763-8.62401,6.63071c-2.27544,4.31503-2.68119,10.58471-2.39198,16.38218
		c-0.2652,5.4472-0.03957,9.57758,1.14971,13.63739c3.23457,7.6324,1.70306,13.36726,0.09706,19.29554l19.99871,35.23193v0.12758
		l19.99572-35.23042c-1.3709-5.41524-4.39226-12.16547-0.75098-19.49015C108.14182,48.33438,108.36243,43.39602,108.12933,38.75983z
		"/>
	<path class="st8" d="M78.07069,35.07976c0.06203,1.81815-1.86872,3.35384-4.30025,3.44266
		c-2.42455,0.07578-4.45935-1.32912-4.5174-3.15074c-0.05952-1.82117,1.86769-3.3604,4.29575-3.43944
		C75.98333,31.85144,78.00667,33.25981,78.07069,35.07976z"/>
	<path class="st9" d="M75.66466,34.85136c0.1581,1.11742-0.61993,2.14886-1.73915,2.31017
		c-1.11369,0.15436-2.15388-0.64014-2.30843-1.74282c-0.15558-1.12373,0.62791-2.14764,1.74759-2.30695
		C74.4779,32.96236,75.51506,33.74038,75.66466,34.85136z"/>
	<g>
		<path class="st8" d="M105.02481,35.07976c0.06406,1.81815-1.86264,3.35384-4.2962,3.44266
			c-2.43507,0.07578-4.45487-1.32912-4.51189-3.15074c-0.06406-1.82117,1.86219-3.3604,4.28976-3.43944
			C102.94002,31.85144,104.9698,33.25981,105.02481,35.07976z"/>
		<path class="st9" d="M102.62029,34.85136c0.1581,1.11742-0.61491,2.14886-1.73911,2.31017
			c-1.10918,0.15436-2.14484-0.64014-2.29997-1.74282c-0.14805-1.12373,0.61993-2.14764,1.74713-2.30695
			C101.43951,32.96236,102.4742,33.74038,102.62029,34.85136z"/>
	</g>
	<path class="st10" d="M87.24651,39.63462c-2.17838,3.68236-6.72178,4.67497-6.72178,4.67497
		c3.56676,2.24344,7.13107,9.0605,7.13107,9.0605s3.41117-6.81707,6.97839-9.0605
		C94.63419,44.3096,89.4304,43.31699,87.24651,39.63462z"/>
	<g>
		<ellipse class="st0" cx="87.90491" cy="135.76579" rx="0.79001" ry="0.78798"/>
		<circle class="st0" cx="87.90491" cy="124.01557" r="0.78951"/>
		<circle class="st0" cx="87.89918" cy="146.54689" r="0.78823"/>
		<ellipse class="st0" cx="87.90491" cy="157.32538" rx="0.79001" ry="0.78724"/>
	</g>
	<path class="st9" d="M115.6936,29.84014c0,0,0.03403-0.66393-1.2513-0.85003c-1.28779-0.1851-2.2739-1.0757-14.30158-0.77651
		c-8.53442,0.71624-10.99599,1.66359-10.99599,1.66359s-0.47927,0.1411-1.1162,0.19837
		c-0.34574,0.06049-0.70446,0.09252-1.07071,0.09252c-0.39928,0-0.78597-0.03203-1.15222-0.10604
		c-0.56632-0.06355-0.9581-0.18485-0.9581-0.18485s-2.47358-0.94735-11.00955-1.66359
		C61.81332,27.9144,60.82067,28.805,59.53988,28.9901c-1.29232,0.1861-1.25881,0.85003-1.25881,0.85003l0.01001,0.82351
		c-0.10105,2.4346,0.52782,2.47686,0.52782,2.47686c0.08209,0.19135,0.33425,0.53609,0.33425,0.53609
		c0.65389,0.26562,1.52243,2.98064,1.52243,2.98064c1.13774,3.32387,2.88738,3.73384,2.88738,3.73384
		c4.72451,1.71037,12.51443,0.80155,12.51443,0.80155s4.3828-0.12262,5.7507-1.9155c1.03363-1.27204,2.5726-5.30983,2.5726-5.30983
		s0.27515-0.59816,0.88206-1.00494c0.71799-0.33767,1.70609-0.34095,1.70609-0.34095s0.98914,0.00328,1.71011,0.34095
		c0.60985,0.40678,0.98611,1.10551,0.98611,1.10551s1.43841,3.93723,2.47207,5.20926c1.35738,1.79288,5.74719,1.9155,5.74719,1.9155
		s7.79292,0.90882,12.51392-0.80155c0,0,1.75016-0.40997,2.88136-3.73384c0,0,0.87202-2.71502,1.52243-2.98064
		c0,0,0.24817-0.34475,0.33425-0.53609c0,0,0.63486-0.04227,0.52734-2.47686L115.6936,29.84014z M82.84122,34.51511
		c-1.17424,4.27946-2.90231,4.72651-2.90231,4.72651c-6.65173,2.09912-13.71974,0.68395-13.71974,0.68395
		c-3.13-0.22637-3.74439-2.3555-3.74439-2.3555c-1.09022-2.29723-1.35889-6.34533-1.35889-6.34533
		c0-1.89869,4.52538-1.88192,4.52538-1.88192c10.86192-0.64516,16.07276,1.10718,16.07276,1.10718
		C83.99247,31.26329,82.84122,34.51511,82.84122,34.51511z M111.56149,37.57008c0,0-0.62141,2.12912-3.74491,2.3555
		c0,0-7.06849,1.41517-13.72672-0.68395c0,0-1.72105-0.44705-2.90234-4.72651c0,0-1.14823-3.25182,1.13676-4.06509
		c0,0,5.20631-1.75235,16.0677-1.10718c0,0,4.52087-0.01677,4.52087,1.88192
		C112.91285,31.22475,112.64369,35.27285,111.56149,37.57008z"/>
	<g>
		<path class="st162" d="M85.52495,85.20464l2.19083,18.16624v11.21468c0,0-8.35628-10.68379-11.33218-17.92117
			c-2.44106-5.94801-9.13432-23.43741-9.13432-23.43741s6.45362,6.31355,9.08678,8.04539
			C78.2663,82.53794,85.52495,85.20464,85.52495,85.20464z"/>
		<path class="st163" d="M67.24928,70.63757c0,0,2.35398,4.27,7.6709,8.07118c6.20345,4.42429,10.60477,6.49589,10.60477,6.49589
			s-2.88583,1.57297-3.92905,5.48946c-0.42123,1.575-0.18311,5.17054-0.18311,5.17054S71.2448,85.11405,67.24928,73.22698
			C67.03765,72.61189,67.24928,70.63757,67.24928,70.63757z"/>
		<path class="st146" d="M67.24928,72.53655l1.62003,10.71557l-4.46836,4.66647c0,0,2.9649,7.38121,8.45738,15.7698
			c6.90544,10.54244,14.85146,15.9399,14.85146,15.9399v-5.04274c0,0-5.8487-7.99536-9.06125-14.79218
			C68.48958,78.27496,67.24928,72.53655,67.24928,72.53655z"/>
	</g>
	<g>
		<path class="st162" d="M89.83666,85.0535l-2.19792,18.16759v11.21487c0,0,8.35982-10.68031,11.33521-17.92265
			c2.44509-5.94653,9.13783-23.4424,9.13783-23.4424s-6.4541,6.3215-9.09428,8.04835
			C97.0928,82.38158,89.83666,85.0535,89.83666,85.0535z"/>
		<path class="st163" d="M108.11178,70.48302c0,0-2.35749,4.27293-7.6749,8.0706
			c-6.20641,4.43131-10.60022,6.49988-10.60022,6.49988s2.87984,1.57426,3.92648,5.48602
			c0.42278,1.578,0.18214,5.17405,0.18214,5.17405s10.16247-10.7506,14.1665-22.64265
			C108.32093,72.46403,108.11178,70.48302,108.11178,70.48302z"/>
		<path class="st146" d="M108.11178,72.38194l-1.62354,10.71886l4.46537,4.66969c0,0-2.95592,7.37994-8.45588,15.76831
			c-6.89738,10.5427-14.85197,15.93539-14.85197,15.93539v-5.03823c0,0,5.85224-8.00006,9.05977-14.79418
			C106.87402,78.11861,108.11178,72.38194,108.11178,72.38194z"/>
	</g>
	<path class="st83" d="M107.72853,146.17969c-2.77927-2.91087-2.32701-7.57835,1.01769-10.41467
		c3.34512-2.84479,8.30872-2.77728,11.08149,0.13762c2.78378,2.91583,2.32402,7.58733-1.02013,10.42311
		C115.46597,149.16409,110.50829,149.10251,107.72853,146.17969z"/>
	<g>
		<path class="st9" d="M113.24156,147.62459c-1.90172,0-3.63034-0.70845-4.86259-1.99429
			c-1.12573-1.18326-1.70061-2.75426-1.61955-4.40881c0.11061-1.83514,1.02013-3.62177,2.52914-4.90562
			c1.41488-1.19777,3.19597-1.86064,5.02519-1.86064c1.90269,0,3.62728,0.71292,4.85306,2.00026
			c1.13271,1.18477,1.71111,2.75226,1.62358,4.40729c-0.09709,1.84016-1.01617,3.63034-2.52718,4.90863
			C116.85683,146.96768,115.06769,147.62459,113.24156,147.62459z M114.31375,134.75891c-1.75762,0-3.46973,0.63686-4.82708,1.7876
			c-1.43893,1.2263-2.32749,2.93692-2.41853,4.69153c-0.08607,1.56746,0.46228,3.06494,1.53248,4.18565
			c1.17121,1.2278,2.81674,1.9037,4.64095,1.9037c1.76162,0,3.47572-0.63141,4.82657-1.78412
			c1.44742-1.22729,2.32948-2.93736,2.42303-4.69502c0.07751-1.57297-0.46527-3.05841-1.54548-4.18913
			C117.78246,135.43533,116.13589,134.75891,114.31375,134.75891z"/>
	</g>
	<path class="st0" d="M109.32156,144.8253c-2.04134-2.1459-1.70007-5.58257,0.75449-7.67087
		c2.46254-2.09337,6.10991-2.03783,8.15717,0.10606c2.03931,2.15082,1.70512,5.57504-0.76147,7.67039
		C115.0242,147.02019,111.36737,146.97415,109.32156,144.8253z"/>
	<path class="st60" d="M115.58305,147.21631c-0.12461-0.32768,0.02949-0.68196,0.35421-0.80101l0,0
		c0.32569-0.12108,0.68196,0.04703,0.80954,0.36426l0.8085,2.1899c0.11956,0.32518-0.04704,0.67842-0.36274,0.80301l0,0
		c-0.32272,0.11758-0.67996-0.04556-0.80152-0.36774L115.58305,147.21631z"/>
	<path class="st60" d="M115.79115,150.08263c-0.07452-0.35573,0.14612-0.70845,0.50584-0.79199l1.49596-0.33122
		c0.36326-0.07951,0.71844,0.1431,0.79247,0.50432l0,0c0.08409,0.35274-0.14805,0.70447-0.50381,0.78253l-1.50195,0.33618
		C116.22693,150.668,115.86873,150.43935,115.79115,150.08263L115.79115,150.08263z"/>
	<path class="st60" d="M117.21307,152.12791c-0.98615,0-1.86917-0.65636-2.14938-1.60596
		c-0.3392-1.18329,0.33773-2.42607,1.52246-2.77432c0.20368-0.05553,0.41125-0.08905,0.61993-0.08905
		c0.98563,0,1.86666,0.66246,2.15086,1.60954c0.1646,0.57689,0.09754,1.17975-0.19013,1.70558
		c-0.28516,0.51935-0.75851,0.90057-1.32735,1.06218C117.63537,152.10094,117.42123,152.12791,117.21307,152.12791z
		 M117.20609,147.85172c-0.19463,0-0.38676,0.02704-0.56587,0.07903c-1.08018,0.31726-1.70107,1.45695-1.39939,2.53568
		c0.26465,0.86752,1.0662,1.47691,1.97225,1.47691c0.1881,0,0.38425-0.03,0.56938-0.09254
		c0.52779-0.14561,0.96409-0.49432,1.21326-0.97263c0.26864-0.4758,0.32771-1.03166,0.17509-1.55803
		C118.91465,148.45312,118.10814,147.85172,117.20609,147.85172z"/>
	<text transform="matrix(-0.93317 0.35943 -0.35943 -0.93317 113.14646 135.71918)" class="st9 st164 st165">XII</text>
	<text transform="matrix(-0.93317 0.35943 -0.35943 -0.93317 115.75733 143.51039)" class="st9 st164 st165">VI</text>
	<text transform="matrix(-0.28435 -0.95872 0.95872 -0.28435 119.02861 140.11186)" class="st9 st164 st166">III</text>
	<text transform="matrix(0.31828 0.948 -0.948 0.31828 108.6558 142.62105)" class="st9 st164 st167">IX</text>
	<path class="st9" d="M113.86895,141.0159c-0.03705-0.11914,0.02753-0.24017,0.13756-0.27222
		c0.09407-0.03499,0.21917,0.03352,0.24721,0.16161c0.03699,0.11061-0.02003,0.23868-0.13614,0.26717
		C114.02003,141.2095,113.90897,141.13747,113.86895,141.0159z"/>
	<polygon class="st9" points="113.01039,138.60934 113.1955,138.52925 114.16763,140.91483 113.97602,140.98883 	"/>
	<polygon class="st27" points="115.72763,140.19234 115.8017,140.38446 114.11758,141.07292 114.04659,140.88132 	"/>
	<polyline class="st9" points="113.44617,138.46175 112.92985,138.13754 112.84882,138.86699 113.4652,138.5508 	"/>
	<polyline class="st9" points="115.8452,140.53206 116.20646,140.03923 115.49549,139.89517 115.75764,140.5486 	"/>
	<path class="st146" d="M102.36764,140.46304c0,0,15.85157,1.14468,25.71186-6.50368v2.81683c0,0-7.797,7.7234-25.71186,6.35402
		V140.46304z"/>
	<path class="st161" d="M101.60063,143.03767c0,0,11.12009,1.05064,19.47742-2.22342
		c9.87626-3.87146,1.72006,15.21918,1.72006,15.21918l-12.85117-0.07607L101.60063,143.03767z"/>
	<path class="st161" d="M100.49345,12.91561c-0.9966-1.99276-2.80831-0.77145-3.80495-0.72442
		c-0.17561,0.00521-0.34021-0.00103-0.51527-0.01803V7.80215c0-2.93537-1.98732-5.20032-5.31541-5.6729
		c0,0-1.15875-0.26868-3.5938-0.26868c-2.45359,0-3.61431,0.26868-3.61431,0.26868c-3.32709,0.47258-5.30987,2.73752-5.30987,5.6729
		v3.63182c0.61839,0.16257,1.24828,0.33045,1.77814,0.47651c0.75349,0.20365,1.95222,0.55361,1.91472,0.7362
		c-0.04407,0.23845-0.24166,0.348-0.46981,0.348c-0.03251,0-0.05952-0.00325-0.09306-0.01149
		c-0.1571-0.02727-3.34013-0.60862-5.24033-1.151c-0.79852-0.14483-1.63652-0.05927-2.21192,1.08195
		c-0.5218,1.03668,0.27921,2.45455,0.84205,2.96235c0.74248,0.67043,1.69057,1.23708,2.73772,1.479
		c0,0,2.34555,1.16098,10.08795,1.16098c5.83971,0,9.22189-1.16098,9.22189-1.16098c1.05416-0.24192,2.00628-0.80857,2.74422-1.479
		C100.20777,15.36868,101.00874,13.95905,100.49345,12.91561z"/>
	<g>
		<g>
			<path class="st38" d="M152.82024,190.86058l0.15662,0.0065l-0.6064,6.40257c0,0,0.1786,0.80899-0.9021,0.86754
				c-1.07518,0.05254-0.98511-0.84198-0.98511-0.84198l-0.56285-6.4937l0,0c-2.05984-3.77086-3.74937-15.39726-3.74937-29.17253
				c0-7.06049,1.01962-13.56062,1.62901-18.72543c0,0,1.90268-0.55634,3.24658-0.55634c1.56949,0,4.03406,0.48732,4.03406,0.48732
				c0.61435,5.18178,1.63452,11.70995,1.63452,18.79799c0,13.84077-1.66153,25.52072-3.73834,29.23456L152.82024,190.86058z"/>
		</g>
		<path class="st38" d="M150.14604,113.21617V95.15195c0,0-0.55388-10.93696,8.57147-10.93696
			c3.71732,0,9.34943,3.03968,6.52512,11.29342c-0.35672,1.19652-2.90186,0.6807-2.27898-1.19826
			c1.62706-4.99043-0.93756-7.38168-4.24266-7.49075c-4.21118-0.14461-5.96681,4.11512-5.96681,8.254v18.17258l0.15558-0.20113
			c0,0,3.0835-3.97554,3.66034-4.44284c0.70044-0.56484,1.7171-0.37826,1.77411,0.73222
			c0.1301,3.62982,0.1301,3.62982,2.72928,6.25145h0.01398c1.481,1.50096,2.27946,2.23697,1.53203,4.5434
			c-1.14128,3.51226-6.15398,17.09637-7.28067,20.60109c0,0-2.69171-0.48578-4.26871-0.48578
			c-1.34834,0-3.47668,0.48578-3.47668,0.48578c-1.12425-3.50471-6.13643-17.08883-7.27713-20.60109
			c-0.75101-2.30643,0.04999-3.04244,1.54097-4.5434c2.59566-2.61838,2.59566-2.61838,2.72272-6.25145
			c0.06506-1.11047,1.08171-1.29706,1.77861-0.73222c0.57541,0.4673,3.65935,4.44284,3.65935,4.44284"/>
	</g>
	<path class="st0" d="M164.39407,117.88416c1.51848-2.01629,2.75427-4.02109,3.43268-5.85623
		c3.7359-10.10395-0.07053-12.58071-0.07053-12.58071s0.29771,3.19597-0.84903,5.81242
		c-0.6864,1.57449-1.36386,2.73723-1.90372,3.31859c0,0,1.26382-2.07355,1.85121-4.16386
		c1.4704-5.27439-1.27133-12.68508-1.24733-12.06493c0.24167,5.98004-5.14278,11.9241-2.38852,7.35992
		c1.56-2.57089,2.35399-6.54842,1.71107-8.90592c-0.67694-2.50535-4.71196-5.51528-5.25984-5.31485
		c-1.12222,0.41499,0.72501,0.452,1.08823,5.15724c0.34871,4.43082-1.18526,6.52615-1.18526,6.52615
		s1.07715-0.47902,0.65489-6.54314c-0.42677-6.08988-5.94476-6.38383-8.3593-5.08498c-2.58818,1.39286-3.94,3.44643-3.94,3.44643
		s6.71223-1.45142,4.82555,6.08312c0,0,3.55678,0.42525,7.66388,8.59172
		C164.87993,112.52851,164.39407,117.88416,164.39407,117.88416z"/>
	<g>
		<path class="st22" d="M90.24202,194.7345l0.16254-0.09642l-0.16254-0.13931v-2.83961c0-0.35721,0.29288-0.6501,0.65189-0.6501
			c0,0,0.89294,0.76083,2.47705,0.76083c1.58414,0,2.31457-0.76083,2.73962-0.76083c0.08038,0-0.0107-0.3679,0.38223,0
			c2.43422,2.2753,7.86524,2.73607,7.86524,2.73607c0.30363,0,0.50365,0.48221,0.22325,0.81079
			c-0.04288,0.04646-0.14466,0.12143-0.14466,0.17859l0.16071,0.17145c0,0.36078-0.2911,0.65366-0.64826,0.65366H90.89391
			c-0.359,0-0.65189-0.29288-0.65189-0.65366V194.7345z"/>
		<path class="st22" d="M84.92352,194.90594c0,0.36078-0.29288,0.65366-0.65009,0.65366H71.21645
			c-0.35538,0-0.64831-0.29288-0.64831-0.65366l0.16253-0.17145c0-0.05716-0.10538-0.13213-0.14465-0.1768
			c-0.2822-0.33037-0.08038-0.81258,0.22146-0.81258c0,0,5.43459-0.46077,7.86703-2.73607c0.3947-0.3679,0.30184,0,0.38217,0
			c0.42684,0,1.15553,0.76083,2.73785,0.76083c1.58593,0,2.47889-0.76083,2.47889-0.76083
			c0.35721,0,0.65009,0.29289,0.65009,0.65189v2.83783l-0.16254,0.14108l0.16254,0.09465V194.90594z"/>
	</g>
</g>
</svg>
