<svg xmlns="http://www.w3.org/2000/svg" viewBox="0 0 101.16 117.02"><defs><style>.cls-1{fill:#e1e2e2;}.cls-2{fill:#1e4384;}.cls-3{fill:#57c0c3;}.cls-4{fill:#023c4a;}.cls-5{fill:#3155a4;}.cls-6{fill:#bbb;}.cls-7{fill:#18254e;}.cls-8{fill:#e2e3e4;}.cls-13,.cls-14,.cls-9{fill:#2c2c36;}.cls-10{fill:#e3e2e2;}.cls-11{fill:#efe0a7;}.cls-12,.cls-21,.cls-22,.cls-24,.cls-25{fill:none;stroke-miterlimit:10;}.cls-12{stroke:#efe0a7;stroke-width:0.07px;}.cls-13{font-size:1.27px;}.cls-13,.cls-14{font-family:Georgia, Georgia;}.cls-14{font-size:1.27px;}.cls-15{fill:#2b2f36;}.cls-16{fill:#efcb81;}.cls-17{fill:#444952;}.cls-18{fill:#e3e1e1;}.cls-19{fill:#fff;}.cls-20{fill:#ca2033;}.cls-21{stroke:#57c0c3;}.cls-21,.cls-24,.cls-25{stroke-width:2px;}.cls-22,.cls-25{stroke:#323232;}.cls-23{fill:#3f3f42;}.cls-24{stroke:#55c1c3;}</style></defs><title>Asset 11</title><g id="Layer_2" data-name="Layer 2"><g id="Layer_1-2" data-name="Layer 1"><path class="cls-1" d="M92.74,59.85c-1.64-4-2.62-2.05-5.17-1.56,0,0,2.21-3.45-.08-2.62,0,0,1.48-4.51-1-4.18,0,0-.7-3-2.46-3.69-6.89,5.41-19.28,10.66-34.94-2.38l1.15,19.93,11.81,14S79,85,89.13,67.89h0a30,30,0,0,0,3.45-7.63c.08-.25.16-.33.16-.41h0"/><path class="cls-2" d="M71.41,65.27a26.64,26.64,0,0,1,3.28-12.71c-6.81,1.64-15.5.57-25.26-8.12L49.1,64.36,61.24,79a24.58,24.58,0,0,0,14,.16A27,27,0,0,1,71.41,65.27Z"/><circle class="cls-3" cx="92.09" cy="23.15" r="4.54" transform="translate(-0.91 42.33) rotate(-25.77)"/><path class="cls-4" d="M100.89,32.41a1.08,1.08,0,0,1-.1,1.52l-.42.37a1.08,1.08,0,0,1-1.52-.09L81.1,14.08a1.08,1.08,0,0,1,.09-1.52l.42-.37a1.08,1.08,0,0,1,1.52.09Z"/><rect class="cls-4" x="66.33" y="34.08" width="10.32" height="13.07" rx="1.29" ry="1.29" transform="translate(-8.99 57.46) rotate(-41.42)"/><path class="cls-3" d="M64.33,40.3A4.63,4.63,0,0,0,64.64,46l.82.93a4.63,4.63,0,0,0,5.6,1Z"/><path class="cls-5" d="M71.89,33.27l7,8a37.7,37.7,0,0,1,19.53-7.49l-17-19.23A37.13,37.13,0,0,1,71.89,33.27Z"/><path class="cls-3" d="M72.61,48.35a.7.7,0,0,0,.1.09l1.87,1.08a.65.65,0,0,0,.87-.23l6.25,7.3.23.26.41.47a.65.65,0,0,0,.91.06l3.33-2.94a.65.65,0,0,0,.06-.91L86,52.81a.66.66,0,0,0-.91-.06s-2-1.83-2.73-2.71l-4.43-5,.7-1.22a.64.64,0,0,0-.05-.72Z"/><path class="cls-6" d="M92.57,60.26c1-7.46-5.89-11.9-7.7-13.13A20.6,20.6,0,0,1,74,50c2.21,2.13,6.48,2.05,6.48,2.05-1.15,1.15-5.66-.41-5.66-.41,2.62,3.36,7.46,2.62,7.46,2.62-1.31.82-5.41.08-5.41.08,2.21,2.3,7.87,1.8,7.87,1.8-1.23,1.15-6.23-.08-6.23-.08a11.56,11.56,0,0,0,3.94,2.54h-.08c.08,0,.16.08.25.08a17,17,0,0,0,5.33,1.23h0C89.06,60.09,91.67,60.26,92.57,60.26Z"/><path class="cls-7" d="M50.66,105.66h-.07A23.31,23.31,0,0,0,63.35,85.07c0-12.94-10.92-23.43-24.39-23.43S14.58,72.13,14.58,85.07a23.3,23.3,0,0,0,12.76,20.59h-.06a14.6,14.6,0,0,1,7.17,9.92,2.16,2.16,0,0,1,1.92,0v-7.25a25.42,25.42,0,0,0,5.21,0v7.25a2.15,2.15,0,0,1,1.92,0,14.63,14.63,0,0,1,7.16-9.93"/><path class="cls-8" d="M11,101.45a9.08,9.08,0,0,1-3.6-5s2.11,4.46,6.41,5.66c0,0-3.27-2-3.42-5.1,0,0,1.83,4.88,6.47,5.18a6.79,6.79,0,0,1-4.11-4.79s2.59,3.88,5.82,4.54c0,0-12.5-18.78,12.25-31.18l1.67-13.23L26,46.08s-30.9,6.38-25.39,41C2.54,98.82,11,101.45,11,101.45Z"/><path class="cls-2" d="M16.59,84.43c1.79-4.66,5.9-9.55,14.23-13.72l1.67-13.23L26,46.08S-.71,51.61,0,80.26c0,0,4.93-2.81,10-1.06S16.59,84.43,16.59,84.43Z"/><path class="cls-9" d="M49.32,87.07a4.23,4.23,0,0,1-3.11-1.28,3.76,3.76,0,0,1-1-2.82,4.49,4.49,0,0,1,1.62-3.14A5,5,0,0,1,50,78.64a4.23,4.23,0,0,1,3.11,1.28,3.76,3.76,0,0,1,1,2.83,4.48,4.48,0,0,1-1.62,3.14,5,5,0,0,1-3.21,1.19M50,78.84A4.78,4.78,0,0,0,46.92,80a4.28,4.28,0,0,0-1.55,3,3.56,3.56,0,0,0,1,2.68,4.05,4.05,0,0,0,3,1.22,4.77,4.77,0,0,0,3.09-1.14,4.29,4.29,0,0,0,1.55-3,3.57,3.57,0,0,0-1-2.68,4,4,0,0,0-3-1.22"/><path class="cls-10" d="M46.82,85.28a3.36,3.36,0,0,1,.48-4.91,3.85,3.85,0,0,1,5.22.07A3.35,3.35,0,0,1,52,85.34a3.84,3.84,0,0,1-5.21-.07"/><path class="cls-11" d="M50.82,86.81a.4.4,0,1,1,.75-.28l.52,1.4a.4.4,0,1,1-.75.28Z"/><circle class="cls-12" cx="51.87" cy="88.52" r="1.37" transform="matrix(0.96, -0.28, 0.28, 0.96, -22.71, 18.07)"/><text class="cls-13" transform="matrix(-0.93, 0.36, -0.36, -0.93, 49.11, 79.37)">X</text><text class="cls-13" transform="matrix(-0.93, 0.36, -0.36, -0.93, 48.33, 79.67)">I</text><text class="cls-13" transform="matrix(-0.93, 0.36, -0.36, -0.93, 47.95, 79.82)">I</text><text class="cls-13" transform="matrix(-0.93, 0.36, -0.36, -0.93, 50.78, 84.36)">V</text><text class="cls-13" transform="matrix(-0.93, 0.36, -0.36, -0.93, 50.08, 84.63)">I</text><text class="cls-14" transform="translate(46.35 83.84) rotate(71.45)">I</text><polygon class="cls-9" points="49.17 81.3 49.79 82.82 49.91 82.77 49.29 81.25 49.17 81.3"/><polygon class="cls-15" points="49.84 82.75 49.88 82.87 50.96 82.44 50.91 82.31 49.84 82.75"/><polygon class="cls-9" points="49.07 81.46 49.47 81.26 49.45 81.21 49.13 81 49.07 81.46"/><polygon class="cls-9" points="50.94 82.54 50.99 82.53 51.22 82.22 50.77 82.13 50.94 82.54"/><path class="cls-16" d="M51.74,86.15a4.56,4.56,0,0,1,.65-6.67,5.23,5.23,0,0,1,7.09.09,4.56,4.56,0,0,1-.65,6.67,5.23,5.23,0,0,1-7.09-.1"/><path class="cls-17" d="M48.3,82.49s10.14.73,16.46-4.17v1.81s-5,4.94-16.46,4.06Z"/><path class="cls-15" d="M47.81,84.13s7.12.68,12.47-1.42c6.32-2.48,1.1,9.74,1.1,9.74l-8.23,0Z"/><path class="cls-18" d="M52.07,17.43c.18-3.71-.07-7.72-1.53-10.48-.75-2.15-3.2-3.48-5.69-4.3,1.11,0,2.06,0,2.06,0a7.12,7.12,0,0,0-6.7-1L39,1.45A18.36,18.36,0,0,1,41.58.25c-4.11-1-7.63,1.24-9.16,2.46C30,3.53,27.63,4.84,26.9,6.95c-1.46,2.76-1.71,6.78-1.53,10.48a25.41,25.41,0,0,0,.73,8.73c2.07,4.88,1.09,8.55.07,12.35L39,61v.09L51.76,38.58c-.87-3.47-2.81-7.78-.48-12.47a25.87,25.87,0,0,0,.79-8.68"/><path class="cls-19" d="M34.18,15.07c0,1.17-1.2,2.15-2.75,2.2s-2.84-.85-2.89-2,1.19-2.15,2.75-2.2,2.85.85,2.89,2"/><path class="cls-9" d="M32.64,14.93a1.31,1.31,0,1,1-1.47-1.12,1.31,1.31,0,0,1,1.47,1.12"/><path class="cls-19" d="M49.83,15.07c0,1.17-1.19,2.15-2.75,2.2s-2.85-.85-2.89-2,1.19-2.15,2.75-2.2,2.85.85,2.89,2"/><path class="cls-9" d="M48.3,14.93a1.31,1.31,0,1,1-1.47-1.12,1.31,1.31,0,0,1,1.47,1.12"/><polygon class="cls-20" points="27.08 34.64 27.08 34.64 27.08 34.63 27.08 34.64"/><path class="cls-5" d="M64.73,62.16l-.14-.28-.16-.33h0a32.35,32.35,0,0,0-6.7-9c-3.13-4.36-4.78-10.36-6-14v0c-.38-1.5-1-3.15-1.29-4.92h0c-9.13,5.32-23.37,1-23.38,1-.22,1.29-.55,2.55-.89,3.81v0c-1.13,3.68-2.73,9.56-6,14a30.5,30.5,0,0,0-6.67,9.33l0,0a35.89,35.89,0,0,0-4,15.67,34,34,0,0,0,12.76,26.91,46.47,46.47,0,0,1,33.2.14c7.72-5.9,12.78-15.81,12.78-27A33.89,33.89,0,0,0,64.73,62.16Z"/><path class="cls-2" d="M50.69,34.68C41.56,40,26.86,35.82,26.86,35.82s.27-1.45.34-1.93.13-1.57.13-1.57,13.29,4.21,22.88-.87c0,0,.07,1.07.13,1.44S50.69,34.68,50.69,34.68Z"/><path class="cls-2" d="M57.9,102.45c-4.86-2.3-21.67-7-37.84,0,0,0,.79.73,1.05.95s1.25,1,1.25,1a46.24,46.24,0,0,1,33.12.13s.91-.67,1.2-.93S57.9,102.45,57.9,102.45Z"/><path class="cls-2" d="M38.41,40.2A33.64,33.64,0,0,1,34.73,40a32.7,32.7,0,0,1-8.41-2l.17-.64c.14.06,14.34,5.51,24.53-1.24l.19.68A22.88,22.88,0,0,1,38.41,40.2Z"/><line class="cls-21" x1="23.06" y1="85.52" x2="53.23" y2="85.52"/><path class="cls-17" d="M39,26.78s2.28-4.36,4.56-5.8c0,0-3.16-.64-4.56-3-1.4,2.35-4.56,3-4.56,3C36.69,22.42,39,26.78,39,26.78Z"/><circle class="cls-22" cx="31.35" cy="15.11" r="5.79"/><circle class="cls-22" cx="47" cy="15.11" r="5.79"/><path class="cls-23" d="M40.59,116.53l.1,0-.1-.1v-1.7a.42.42,0,0,1,.39-.39,2.5,2.5,0,0,0,1.5.44,4.76,4.76,0,0,0,1.65-.44s0-.24.24,0c1.46,1.36,4.75,1.65,4.75,1.65.19,0,.29.29.15.49l-.1.1.1.1a.42.42,0,0,1-.39.39H41a.42.42,0,0,1-.39-.39Z"/><path class="cls-23" d="M37.34,116.63a.42.42,0,0,1-.39.39H29.09a.42.42,0,0,1-.39-.39l.1-.1a.1.1,0,0,0-.1-.1.28.28,0,0,1,.15-.49s3.3-.29,4.75-1.65c.24-.24.19,0,.24,0a4.76,4.76,0,0,0,1.65.44,2.5,2.5,0,0,0,1.5-.44.42.42,0,0,1,.39.39v1.7l-.1.1.1,0v.1Z"/><polyline class="cls-24" points="53.23 64.04 42.12 74.12 38.24 70.5 23.06 81.64"/><polyline class="cls-24" points="53.03 69.49 53.23 64.04 47.58 63.84"/><path class="cls-25" d="M37.14,15.11a4.61,4.61,0,0,1,4.08,0"/></g></g></svg>