<?xml version="1.0" encoding="utf-8"?>
<!-- Generator: Adobe Illustrator 19.2.1, SVG Export Plug-In . SVG Version: 6.00 Build 0)  -->
<svg version="1.1" id="Layer_1" xmlns="http://www.w3.org/2000/svg" xmlns:xlink="http://www.w3.org/1999/xlink" x="0px" y="0px"
	 width="200px" height="200px" viewBox="0 0 200 200" style="enable-background:new 0 0 200 200;" xml:space="preserve">
<style type="text/css">
	.st0{fill:#E2E3E4;}
	.st1{fill:#595D62;}
	.st2{fill:#C7702A;}
	.st3{fill:#C9C7C7;}
	.st4{fill:#EA8824;}
	.st5{fill:none;stroke:#C9C7C7;stroke-width:0.75651;stroke-miterlimit:10;}
	.st6{fill-rule:evenodd;clip-rule:evenodd;fill:#444851;}
	.st7{fill-rule:evenodd;clip-rule:evenodd;fill:#D8D7D6;}
	.st8{fill:#FFFFFF;}
	.st9{fill:#2B2B35;}
	.st10{fill:#434850;}
	.st11{fill:#6C4396;}
	.st12{fill:#A4A4A4;}
	.st13{fill:#EA4C65;}
	.st14{fill:#94814F;}
	.st15{fill:#9C2023;}
	.st16{fill:#B7242C;}
	.st17{fill-rule:evenodd;clip-rule:evenodd;fill:#FFFFFF;}
	.st18{fill:#0C4F6E;}
	.st19{fill:#C18E46;}
	.st20{fill:#3180BF;}
	.st21{fill:#D94F4F;}
	.st22{fill:#2C2C2D;}
	.st23{fill:#595E63;}
	.st24{fill:#E3E2E2;}
	.st25{fill:#9D9EA0;}
	.st26{fill:none;stroke:#C8C6C6;stroke-width:0.75651;stroke-miterlimit:10;}
	.st27{fill:#2A2E35;}
	.st28{fill-rule:evenodd;clip-rule:evenodd;fill:#454751;}
	.st29{fill-rule:evenodd;clip-rule:evenodd;fill:#D8D7D5;}
	.st30{fill:#434851;}
	.st31{fill:#EC9424;}
	.st32{fill:#445AA4;}
	.st33{clip-path:url(#SVGID_2_);fill:#58C1C4;}
	.st34{fill:#B7DBDB;}
	.st35{fill:#58C1C4;}
	.st36{fill:none;stroke:#434851;stroke-width:1.51302;stroke-linecap:round;stroke-linejoin:round;stroke-miterlimit:10;}
	.st37{clip-path:url(#SVGID_4_);fill:#58C1C4;}
	.st38{fill:#010101;}
	.st39{fill:#161718;}
	.st40{fill-rule:evenodd;clip-rule:evenodd;fill:#010101;}
	.st41{fill:#272626;}
	.st42{fill:#17191A;}
	.st43{fill:#D4D5D4;}
	.st44{fill-rule:evenodd;clip-rule:evenodd;fill:#272626;}
	.st45{fill-rule:evenodd;clip-rule:evenodd;fill:#E2E3E4;}
	.st46{fill:#19244E;}
	.st47{fill:#E3E1E1;}
	.st48{fill:#8E1B27;}
	.st49{fill:#CA2033;}
	.st50{fill:#EFE0A7;}
	.st51{fill:none;stroke:#EFE0A7;stroke-width:0.09335;stroke-miterlimit:10;}
	.st52{fill:#EECA81;}
	.st53{fill:#F3F3F3;}
	.st54{fill:#A0A1A4;}
	.st55{fill:#EB6B6D;}
	.st56{fill:none;stroke:#CAC8C6;stroke-width:0.02289;stroke-miterlimit:10;}
	.st57{fill:#464951;}
	.st58{fill:#D7D6D6;}
	.st59{fill:#EECC82;}
	.st60{fill:#F0E0A9;}
	.st61{fill:none;stroke:#F0E0A9;stroke-width:0.01145;stroke-miterlimit:10;}
	.st62{fill:#5AC1C2;}
	.st63{clip-path:url(#SVGID_6_);fill:#E2E3E4;}
	.st64{fill:#EE7823;}
	.st65{fill:#D6563D;}
	.st66{fill:#70533D;}
	.st67{fill:#81BCA9;}
	.st68{clip-path:url(#SVGID_8_);fill:#E2E3E4;}
	.st69{fill:none;stroke:#EFE0A7;stroke-width:0.37825;stroke-miterlimit:10;}
	.st70{clip-path:url(#SVGID_10_);}
	.st71{clip-path:url(#SVGID_12_);fill:#E3E2E2;}
	.st72{clip-path:url(#SVGID_12_);}
	.st73{fill-rule:evenodd;clip-rule:evenodd;fill:#1AAEA1;}
	.st74{fill-rule:evenodd;clip-rule:evenodd;fill:#0C8C70;}
	.st75{fill:#1AAEA1;}
	.st76{fill:#6F513B;}
	.st77{fill:#515050;}
	.st78{fill:#D4563A;}
	.st79{fill:none;}
	.st80{clip-path:url(#SVGID_14_);}
	.st81{clip-path:url(#SVGID_16_);fill:#E3E2E2;}
	.st82{clip-path:url(#SVGID_16_);}
	.st83{fill:#EEE3A3;}
	.st84{fill:none;stroke:#F0E0A9;stroke-width:0.37825;stroke-miterlimit:10;}
	.st85{clip-path:url(#SVGID_18_);}
	.st86{fill-rule:evenodd;clip-rule:evenodd;fill:#434850;}
	.st87{clip-path:url(#SVGID_20_);}
	.st88{fill:none;stroke:#E4CC21;stroke-width:1.92135;stroke-miterlimit:10;}
	.st89{fill:none;stroke:#FFFFFF;stroke-width:2.2037;stroke-miterlimit:10;}
	.st90{fill:#E4CC21;}
	.st91{fill:#232244;}
	.st92{fill:#C8C6C6;}
	.st93{fill:#542F19;}
	.st94{fill-rule:evenodd;clip-rule:evenodd;fill:#3D2E21;}
	.st95{fill:#3D2E21;}
	.st96{fill-rule:evenodd;clip-rule:evenodd;fill:#232244;}
	.st97{fill-rule:evenodd;clip-rule:evenodd;fill:#2E3280;}
	.st98{fill:#281911;}
	.st99{fill-rule:evenodd;clip-rule:evenodd;fill:#E4CC21;}
	.st100{fill-rule:evenodd;clip-rule:evenodd;fill:#D85127;}
	.st101{clip-path:url(#SVGID_22_);}
	.st102{fill-rule:evenodd;clip-rule:evenodd;fill:#EE7434;}
	.st103{fill:#17733B;}
	.st104{clip-path:url(#SVGID_24_);}
	.st105{fill:#1D73B6;}
	.st106{fill:#115E8E;}
	.st107{clip-path:url(#SVGID_26_);}
	.st108{fill:none;stroke:#FFFFFF;stroke-width:1.49993;stroke-miterlimit:10;}
	.st109{fill:none;stroke:#CAC8C6;stroke-width:0.024;stroke-miterlimit:10;}
	.st110{clip-path:url(#SVGID_28_);fill:#E2E3E4;}
	.st111{fill:#603A17;}
	.st112{fill:#78471F;}
	.st113{fill:#F8FAFD;}
	.st114{clip-path:url(#SVGID_30_);}
	.st115{clip-path:url(#SVGID_32_);}
	.st116{fill:none;stroke:#FFFFFF;stroke-width:0.49998;stroke-miterlimit:10;}
	.st117{fill:none;stroke:#FFFFFF;stroke-width:0.74997;stroke-miterlimit:10;}
	.st118{clip-path:url(#SVGID_34_);}
	.st119{clip-path:url(#SVGID_36_);}
	.st120{clip-path:url(#SVGID_38_);fill:#E2E3E4;}
	.st121{clip-path:url(#SVGID_40_);}
	.st122{clip-path:url(#SVGID_42_);}
	.st123{clip-path:url(#SVGID_44_);}
	.st124{opacity:0.7;fill:#434850;}
	.st125{fill:#5B3287;}
	.st126{fill:#643E1E;}
	.st127{fill:#C8D6DE;}
	.st128{fill:none;stroke:#CAC7C6;stroke-width:0.75651;stroke-miterlimit:10;}
	.st129{fill:#B6C3CE;}
	.st130{fill:#273980;}
	.st131{fill:#2B2C35;}
	.st132{clip-path:url(#SVGID_46_);fill:#FFFFFF;stroke:#5A3B84;stroke-width:4.53905;stroke-miterlimit:10;}
	.st133{fill:#C8C7C9;}
	.st134{fill:#056F43;}
	.st135{clip-path:url(#SVGID_48_);}
	.st136{fill:#EBEDF1;}
	.st137{fill:#CF2B29;}
	.st138{fill-rule:evenodd;clip-rule:evenodd;fill:#273980;}
	.st139{fill:#D6232A;}
	.st140{clip-path:url(#SVGID_52_);fill:#FFFFFF;stroke:#5A3B84;stroke-width:4.53905;stroke-miterlimit:10;}
	.st141{clip-path:url(#SVGID_54_);}
	.st142{fill:#532D17;}
	.st143{fill:none;stroke:#5E1116;stroke-width:0.95369;stroke-miterlimit:10;}
	.st144{fill-rule:evenodd;clip-rule:evenodd;fill:#5E1116;}
	.st145{fill:none;stroke:#5E1116;stroke-width:0.94639;stroke-miterlimit:10;}
	.st146{fill:#291B13;}
	.st147{fill-rule:evenodd;clip-rule:evenodd;fill:#291B13;}
	.st148{fill-rule:evenodd;clip-rule:evenodd;fill:#454850;}
	.st149{fill-rule:evenodd;clip-rule:evenodd;fill:#74441F;}
	.st150{fill:#7F161B;}
	.st151{fill-rule:evenodd;clip-rule:evenodd;fill:#7F161B;}
	.st152{fill:none;stroke:#5E1116;stroke-width:1.04342;stroke-miterlimit:10;}
	.st153{fill:#E4E0E4;}
	.st154{clip-path:url(#SVGID_58_);fill:#E1244D;}
	.st155{clip-path:url(#SVGID_60_);fill:#E1244D;}
	.st156{fill:#292933;}
	.st157{fill:none;stroke:#CAC8C6;stroke-width:0.02378;stroke-miterlimit:10;}
	.st158{fill:none;stroke:#F0E0A9;stroke-width:0.01189;stroke-miterlimit:10;}
	.st159{clip-path:url(#SVGID_62_);fill:#E2E3E4;}
	.st160{fill:#2F465D;}
	.st161{fill:#432F21;}
	.st162{fill-rule:evenodd;clip-rule:evenodd;fill:#3D5F7C;}
	.st163{fill-rule:evenodd;clip-rule:evenodd;fill:#2F465D;}
	.st164{clip-path:url(#SVGID_64_);fill:#2C2C2D;}
	.st165{clip-path:url(#SVGID_66_);fill:#F8B917;}
	.st166{clip-path:url(#SVGID_66_);fill:#1F4394;}
	.st167{clip-path:url(#SVGID_68_);fill:#E8212F;}
	.st168{clip-path:url(#SVGID_68_);fill:#C9C8C8;}
	.st169{clip-path:url(#SVGID_68_);fill:#2A2E35;}
	.st170{clip-path:url(#SVGID_68_);fill:#444750;}
	.st171{clip-path:url(#SVGID_68_);fill:#D7D7D6;}
	.st172{clip-path:url(#SVGID_68_);fill:#E3E2E2;}
	.st173{clip-path:url(#SVGID_68_);fill:#FFFFFF;}
	.st174{clip-path:url(#SVGID_68_);fill:#2B2D34;}
	.st175{clip-path:url(#SVGID_68_);fill:#B9252D;}
	.st176{clip-path:url(#SVGID_68_);fill:#24345B;}
	.st177{clip-path:url(#SVGID_68_);fill:#F7F6F8;}
	.st178{clip-path:url(#SVGID_70_);fill:#1F4394;}
	.st179{clip-path:url(#SVGID_70_);fill:#F8B917;}
	.st180{clip-path:url(#SVGID_70_);fill:#883D1E;}
	.st181{clip-path:url(#SVGID_70_);fill:#F5D07C;}
	.st182{clip-path:url(#SVGID_72_);fill:#E8212F;}
	.st183{clip-path:url(#SVGID_72_);fill:#E3E2E2;}
	.st184{clip-path:url(#SVGID_72_);fill:#F7F6F8;}
	.st185{clip-path:url(#SVGID_72_);fill:#F8B917;}
	.st186{clip-path:url(#SVGID_72_);fill:#888983;}
	.st187{clip-path:url(#SVGID_74_);fill:#888983;}
	.st188{clip-path:url(#SVGID_74_);fill:#624219;}
	.st189{clip-path:url(#SVGID_76_);fill:#E3E2E2;}
	.st190{clip-path:url(#SVGID_76_);fill:#2C2C2D;}
	.st191{clip-path:url(#SVGID_76_);fill:#888983;}
	.st192{clip-path:url(#SVGID_78_);fill:#F8B917;}
	.st193{clip-path:url(#SVGID_78_);fill:#1F4394;}
	.st194{clip-path:url(#SVGID_80_);fill:#E8212F;}
	.st195{clip-path:url(#SVGID_80_);fill:#C9C8C8;}
	.st196{clip-path:url(#SVGID_80_);fill:#2A2E35;}
	.st197{clip-path:url(#SVGID_80_);fill:#444750;}
	.st198{clip-path:url(#SVGID_80_);fill:#D7D7D6;}
	.st199{clip-path:url(#SVGID_80_);fill:#E3E2E2;}
	.st200{clip-path:url(#SVGID_80_);fill:#FFFFFF;}
	.st201{clip-path:url(#SVGID_80_);fill:#2B2D34;}
	.st202{clip-path:url(#SVGID_80_);fill:#B9252D;}
	.st203{clip-path:url(#SVGID_80_);fill:#24345B;}
	.st204{clip-path:url(#SVGID_80_);fill:#F7F6F8;}
	.st205{clip-path:url(#SVGID_82_);fill:#1F4394;}
	.st206{clip-path:url(#SVGID_82_);fill:#F8B917;}
	.st207{clip-path:url(#SVGID_82_);fill:#883D1E;}
	.st208{clip-path:url(#SVGID_82_);fill:#F5D07C;}
	.st209{clip-path:url(#SVGID_84_);fill:#E8212F;}
	.st210{clip-path:url(#SVGID_84_);fill:#E3E2E2;}
	.st211{clip-path:url(#SVGID_84_);fill:#F7F6F8;}
	.st212{clip-path:url(#SVGID_84_);fill:#F8B917;}
	.st213{clip-path:url(#SVGID_84_);fill:#888983;}
	.st214{clip-path:url(#SVGID_86_);fill:#888983;}
	.st215{clip-path:url(#SVGID_86_);fill:#624219;}
	.st216{clip-path:url(#SVGID_88_);fill:#E3E2E2;}
	.st217{clip-path:url(#SVGID_88_);fill:#2C2C2D;}
	.st218{clip-path:url(#SVGID_90_);fill:#2C2C2D;}
	.st219{clip-path:url(#SVGID_92_);fill:#F8B917;}
	.st220{clip-path:url(#SVGID_92_);fill:#1F4394;}
	.st221{clip-path:url(#SVGID_94_);fill:#E8212F;}
	.st222{clip-path:url(#SVGID_94_);fill:#C9C8C8;}
	.st223{clip-path:url(#SVGID_94_);fill:#2A2E35;}
	.st224{clip-path:url(#SVGID_94_);fill:#444750;}
	.st225{clip-path:url(#SVGID_94_);fill:#D7D7D6;}
	.st226{clip-path:url(#SVGID_94_);fill:#E3E2E2;}
	.st227{clip-path:url(#SVGID_94_);fill:#FFFFFF;}
	.st228{clip-path:url(#SVGID_94_);fill:#2B2D34;}
	.st229{clip-path:url(#SVGID_94_);fill:#B9252D;}
	.st230{clip-path:url(#SVGID_94_);fill:#24345B;}
	.st231{clip-path:url(#SVGID_94_);fill:#F7F6F8;}
	.st232{clip-path:url(#SVGID_96_);fill:#1F4394;}
	.st233{clip-path:url(#SVGID_96_);fill:#F8B917;}
	.st234{clip-path:url(#SVGID_96_);fill:#883D1E;}
	.st235{clip-path:url(#SVGID_96_);fill:#F5D07C;}
	.st236{clip-path:url(#SVGID_98_);fill:#E8212F;}
	.st237{clip-path:url(#SVGID_98_);fill:#E3E2E2;}
	.st238{clip-path:url(#SVGID_98_);fill:#F7F6F8;}
	.st239{clip-path:url(#SVGID_98_);fill:#F8B917;}
	.st240{clip-path:url(#SVGID_98_);fill:#888983;}
	.st241{clip-path:url(#SVGID_100_);fill:#888983;}
	.st242{clip-path:url(#SVGID_100_);fill:#624219;}
	.st243{clip-path:url(#SVGID_102_);fill:#E3E2E2;}
	.st244{clip-path:url(#SVGID_102_);fill:#2C2C2D;}
	.st245{clip-path:url(#SVGID_102_);fill:#888983;}
	.st246{clip-path:url(#SVGID_104_);fill:#F8B917;}
	.st247{clip-path:url(#SVGID_104_);fill:#1F4394;}
	.st248{clip-path:url(#SVGID_106_);fill:#E8212F;}
	.st249{clip-path:url(#SVGID_106_);fill:#C9C8C8;}
	.st250{clip-path:url(#SVGID_106_);fill:#2A2E35;}
	.st251{clip-path:url(#SVGID_106_);fill:#444750;}
	.st252{clip-path:url(#SVGID_106_);fill:#D7D7D6;}
	.st253{clip-path:url(#SVGID_106_);fill:#E3E2E2;}
	.st254{clip-path:url(#SVGID_106_);fill:#FFFFFF;}
	.st255{clip-path:url(#SVGID_106_);fill:#2B2D34;}
	.st256{clip-path:url(#SVGID_106_);fill:#B9252D;}
	.st257{clip-path:url(#SVGID_106_);fill:#24345B;}
	.st258{clip-path:url(#SVGID_106_);fill:#F7F6F8;}
	.st259{clip-path:url(#SVGID_108_);fill:#1F4394;}
	.st260{clip-path:url(#SVGID_108_);fill:#F8B917;}
	.st261{clip-path:url(#SVGID_108_);fill:#883D1E;}
	.st262{clip-path:url(#SVGID_108_);fill:#F5D07C;}
	.st263{clip-path:url(#SVGID_110_);fill:#E8212F;}
	.st264{clip-path:url(#SVGID_110_);fill:#E3E2E2;}
	.st265{clip-path:url(#SVGID_110_);fill:#F7F6F8;}
	.st266{clip-path:url(#SVGID_110_);fill:#F8B917;}
	.st267{clip-path:url(#SVGID_110_);fill:#888983;}
	.st268{clip-path:url(#SVGID_112_);fill:#888983;}
	.st269{clip-path:url(#SVGID_112_);fill:#624219;}
	.st270{clip-path:url(#SVGID_114_);fill:#E3E2E2;}
	.st271{clip-path:url(#SVGID_114_);fill:#2C2C2D;}
	.st272{fill:#EDE2A3;}
	.st273{clip-path:url(#SVGID_116_);}
	.st274{fill-rule:evenodd;clip-rule:evenodd;fill:#434851;}
	.st275{fill-rule:evenodd;clip-rule:evenodd;fill:#E3E2E2;}
	.st276{fill:#2A2B2A;}
	.st277{clip-path:url(#SVGID_118_);}
	.st278{clip-path:url(#SVGID_120_);}
	.st279{clip-path:url(#SVGID_122_);}
	.st280{fill:#1F3566;}
	.st281{fill:#E3E4E5;}
	.st282{fill:#4BB1E4;}
	.st283{fill:#2D2A6C;}
	.st284{fill-rule:evenodd;clip-rule:evenodd;fill:#D8D9D5;}
	.st285{fill:#434852;}
	.st286{fill:#E3E3E3;}
	.st287{fill:#162E54;}
	.st288{fill:none;stroke:#335DAB;stroke-width:1.68786;stroke-miterlimit:10;}
	.st289{fill:#81817F;}
	.st290{fill:#142B49;}
	.st291{fill:#5A5A5A;}
	.st292{fill:none;stroke:#FFFFFF;stroke-width:0.84393;stroke-linecap:round;stroke-linejoin:round;stroke-miterlimit:10;}
	.st293{fill:#AB9D9C;}
	.st294{fill:#EA6689;}
	.st295{fill:#CE1D5B;}
	.st296{fill:#BF742A;}
	.st297{fill:#273449;}
	.st298{fill:#A4464B;}
	.st299{fill:none;stroke:#CAC8C6;stroke-width:0.0662;stroke-miterlimit:10;}
	.st300{fill:#80333A;}
	.st301{fill:none;stroke:#B4B4B4;stroke-width:0.25748;stroke-miterlimit:10;}
	.st302{fill:none;stroke:#B4B4B4;stroke-width:3.08973;stroke-miterlimit:10;}
	.st303{fill:none;stroke:#B4B4B4;stroke-width:1.02991;stroke-miterlimit:10;}
	.st304{fill:none;stroke:#82858B;stroke-width:0.51495;stroke-miterlimit:10;}
	.st305{fill:none;stroke:#E2E3E4;stroke-width:1.02991;stroke-miterlimit:10;}
	.st306{fill:#E5E5E5;}
	.st307{fill:#2D2C2D;}
	.st308{fill:#4CB2E5;}
	.st309{fill:#AD2824;}
	.st310{fill-rule:evenodd;clip-rule:evenodd;fill:#D9D9D6;}
	.st311{fill:#E4E4E3;}
	.st312{fill:#DB4826;}
	.st313{fill:#B33725;}
	.st314{fill:#120C0D;}
	.st315{fill:#F3F0F0;}
	.st316{fill:#C4BFBF;}
	.st317{clip-path:url(#SVGID_124_);fill:none;stroke:#F3F0F0;stroke-width:1.10165;stroke-linecap:round;stroke-miterlimit:10;}
	.st318{clip-path:url(#SVGID_126_);fill:none;stroke:#F3F0F0;stroke-width:1.10165;stroke-linecap:round;stroke-miterlimit:10;}
	.st319{clip-path:url(#SVGID_128_);fill:none;stroke:#F3F0F0;stroke-width:1.10165;stroke-linecap:round;stroke-miterlimit:10;}
	.st320{fill:#DE5B2A;}
	.st321{fill:#7A2716;}
	.st322{fill:#E5E4E4;}
	.st323{fill:#BB4928;}
	.st324{fill:#454545;}
	.st325{fill:#6265AE;}
	.st326{fill:none;stroke:#CAC5C4;stroke-width:0.55083;stroke-linecap:round;stroke-miterlimit:10;}
	.st327{fill:#E1E3E3;}
	.st328{fill:#484848;}
	.st329{fill:#422F90;}
	.st330{fill:#D57A28;}
	.st331{fill:#B4B4B5;}
	.st332{fill:#4B4B4D;}
	.st333{fill:#949393;}
	.st334{fill:#040404;}
	.st335{clip-path:url(#SVGID_130_);fill:none;stroke:#F3F0F0;stroke-width:1.10165;stroke-linecap:round;stroke-miterlimit:10;}
	.st336{clip-path:url(#SVGID_132_);fill:none;stroke:#F3F0F0;stroke-width:1.10165;stroke-linecap:round;stroke-miterlimit:10;}
	.st337{clip-path:url(#SVGID_134_);fill:none;stroke:#F3F0F0;stroke-width:1.10165;stroke-linecap:round;stroke-miterlimit:10;}
	.st338{clip-path:url(#SVGID_140_);fill:#AD2824;}
	.st339{fill:#CDCCCC;}
	.st340{fill:#E4E5E6;}
	.st341{opacity:0.72;fill:none;stroke:#FFFFFF;stroke-width:1.1546;stroke-linecap:round;stroke-miterlimit:10;}
	.st342{fill:#BBD867;}
	.st343{fill:none;stroke:#BBD867;stroke-width:5.799;stroke-miterlimit:10;}
	.st344{clip-path:url(#SVGID_146_);fill:#AD2824;}
	.st345{fill:none;stroke:#AE4E85;stroke-width:1.54066;stroke-linecap:round;stroke-linejoin:round;stroke-miterlimit:10;}
	.st346{fill:none;stroke:#E97625;stroke-width:1.62274;stroke-linecap:round;stroke-linejoin:round;stroke-miterlimit:10;}
	.st347{fill:none;stroke:#C9C7C7;stroke-width:0.23348;stroke-miterlimit:10;}
	.st348{fill:#981E5C;}
	.st349{fill:none;stroke:#AE4E85;stroke-width:1.21706;stroke-linecap:round;stroke-linejoin:round;stroke-miterlimit:10;}
	.st350{fill:#AE4E85;}
	.st351{fill:#F7B456;}
	.st352{fill:#E97625;}
	.st353{fill:none;stroke:#E97625;stroke-width:1.54273;stroke-linecap:round;stroke-linejoin:round;stroke-miterlimit:10;}
</style>
<g>
	<g>
		<defs>
			<rect id="SVGID_89_" x="2.5" y="2.50021" width="195" height="194.99957"/>
		</defs>
		<clipPath id="SVGID_2_">
			<use xlink:href="#SVGID_89_"  style="overflow:visible;"/>
		</clipPath>
		<path style="clip-path:url(#SVGID_2_);fill:#2C2C2D;" d="M114.43861,190.62364c0.18535-0.11357,1.17621-0.59502,2.4969,0.01208
			v-9.42445c1.11737,0.11566,2.24307-8.47577,3.37713-8.47577c1.14494,0,2.27064,8.59143,3.38046,8.47577v9.42445
			c1.30482-0.6071,2.29025-0.1403,2.49946-0.02171c1.03384-5.48157,4.50742-10.14595,9.30793-12.90971l-0.07597,0.01212
			c9.88376-5.16133,16.59334-15.20999,16.59334-26.77394c0-16.82428-14.19493-30.46136-31.70688-30.46136
			c-17.4986,0-31.69766,13.63708-31.69766,30.46136c0,11.56395,6.71458,21.61261,16.59248,26.77394l-0.09271-0.01212
			C109.92532,180.46806,113.39847,185.13245,114.43861,190.62364"/>
	</g>
	<g>
		<defs>
			<path id="SVGID_91_" d="M88.61535,150.94037c0,11.56606,6.71254,21.61472,16.5921,26.77605l-0.09438-0.01212
				c4.81348,2.76376,8.28539,7.42815,9.32553,12.91934c0.18535-0.11357,1.17621-0.59502,2.49943,0.01208v-9.42653
				c1.11485,0.11774,2.24055-8.47369,3.37711-8.47369c1.14243,0,2.26814,8.59143,3.37586,8.47369v9.42653
				c1.3082-0.6071,2.29234-0.1403,2.50156-0.02298c1.03255-5.4803,4.50742-10.14468,9.30793-12.90845l-0.07597,0.01212
				c9.88376-5.16133,16.59334-15.20999,16.59334-26.77605c0-16.82217-14.19493-30.45925-31.70688-30.45925
				C102.81071,120.48112,88.61535,134.11819,88.61535,150.94037"/>
		</defs>
		<clipPath id="SVGID_4_">
			<use xlink:href="#SVGID_91_"  style="overflow:visible;"/>
		</clipPath>
		<polygon style="clip-path:url(#SVGID_4_);fill:#F8B917;" points="117.75764,191.18944 117.02903,191.47 114.88996,181.44635 
			116.81568,181.06512 		"/>
		<polygon style="clip-path:url(#SVGID_4_);fill:#F8B917;" points="116.2282,191.47334 114.81731,191.72346 112.67821,181.69562 
			114.08869,181.44635 		"/>
		<polygon style="clip-path:url(#SVGID_4_);fill:#1F4394;" points="116.86955,191.42157 116.14384,191.70216 114.0035,181.6777 
			115.93047,181.29688 		"/>
		<polygon style="clip-path:url(#SVGID_4_);fill:#1F4394;" points="114.80058,191.48795 112.29781,191.93681 110.16084,181.90901 
			112.66193,181.46764 		"/>
		<polygon style="clip-path:url(#SVGID_4_);fill:#F8B917;" points="122.8196,190.99861 123.48222,191.28751 125.57205,181.80545 
			123.81461,181.38457 		"/>
		
			<rect x="121.05149" y="186.0563" transform="matrix(0.21421 -0.97679 0.97679 0.21421 -83.44588 269.7038)" style="clip-path:url(#SVGID_4_);fill:#F8B917;" width="9.70923" height="1.31945"/>
		<polygon style="clip-path:url(#SVGID_4_);fill:#1F4394;" points="123.62838,191.24454 124.2906,191.5343 126.38043,182.05515 
			124.62299,181.63173 		"/>
		
			<rect x="122.85585" y="185.71976" transform="matrix(0.21596 -0.9764 0.9764 0.21596 -82.34886 271.22485)" style="clip-path:url(#SVGID_4_);fill:#1F4394;" width="9.70706" height="2.33782"/>
	</g>
	<g>
		<defs>
			<rect id="SVGID_93_" x="2.5" y="2.50021" width="195" height="194.99957"/>
		</defs>
		<clipPath id="SVGID_6_">
			<use xlink:href="#SVGID_93_"  style="overflow:visible;"/>
		</clipPath>
		<path style="clip-path:url(#SVGID_6_);fill:#E8212F;" d="M72.31937,143.7865c10.04824,3.00761,18.79918-0.21919,18.79918-0.21919
			l16.34783-19.24393l-0.48478-26.75476c-13.12056,11.59029-24.74551,13.10724-33.88856,10.86877
			c2.80302,5.03607,4.41516,10.837,4.41516,17.01922C77.5082,132.17494,75.60921,138.45485,72.31937,143.7865"/>
		<path style="clip-path:url(#SVGID_6_);fill:#C9C8C8;" d="M99.31419,122.40685c0-11.58107,9.42404-21.00053,20.99845-21.00053
			c11.58652,0,21.01057,9.41946,21.01057,21.00053c0,11.58446-9.42406,21.00764-21.01057,21.00764
			C108.73823,143.41449,99.31419,133.9913,99.31419,122.40685 M99.62733,122.40685c0,11.40741,9.28295,20.68863,20.6853,20.68863
			c11.41742,0,20.69656-9.28122,20.69656-20.68863c0-11.40155-9.27914-20.6882-20.69656-20.6882
			C108.91029,101.71864,99.62733,111.00196,99.62733,122.40685"/>
		<path style="clip-path:url(#SVGID_6_);fill:#2A2E35;" d="M82.26989,141.33427c0,14.60953,6.59183,27.48878,16.63012,35.16039
			c6.1759-2.32198,18.46222-9.38396,21.47316-29.4901c0,0,1.68651,21.63564,21.69368,29.31725
			c9.90675-7.69415,16.41046-20.48488,16.41046-34.98753c0-23.50374-17.06227-42.55392-38.10414-42.55392
			C99.32839,98.78035,82.26989,117.83054,82.26989,141.33427"/>
		<path style="clip-path:url(#SVGID_6_);fill:#444750;" d="M120.04207,94.40154c1.01337,0,1.82721,0.8209,1.82721,1.82508
			c0,1.013-0.81588,1.8339-1.82721,1.8339c-1.01214,0-1.82595-0.8209-1.82595-1.8339
			C118.21612,95.22243,119.02993,94.40154,120.04207,94.40154"/>
		<path style="clip-path:url(#SVGID_6_);fill:#D7D7D6;" d="M120.04207,95.7999c0.2397,0,0.43091,0.19164,0.43091,0.42838
			c0,0.2447-0.19331,0.43093-0.43091,0.43093c-0.23632,0-0.42758-0.18871-0.42758-0.43093
			C119.61449,95.99154,119.80575,95.7999,120.04207,95.7999"/>
		<path style="clip-path:url(#SVGID_6_);fill:#444750;" d="M120.04207,104.80513c1.01337,0,1.82721,0.81924,1.82721,1.82847
			c0,1.00795-0.81588,1.82468-1.82721,1.82468c-1.01214,0-1.82595-0.82259-1.82595-1.82468
			C118.21612,105.62437,119.02993,104.80808,120.04207,104.80513"/>
		<path style="clip-path:url(#SVGID_6_);fill:#D7D7D6;" d="M120.04207,106.20016c0.2397,0,0.43091,0.1917,0.43091,0.43343
			c0,0.2309-0.19331,0.42003-0.43091,0.42003c-0.23632,0-0.42758-0.18913-0.42758-0.42003
			C119.61449,106.39186,119.80575,106.20016,120.04207,106.20016"/>
		<path style="clip-path:url(#SVGID_6_);fill:#E3E2E2;" d="M104.31264,74.2891c3.02846,6.09415,0.5165,11.70554-0.62588,16.21047
			l16.62963,29.30846v-0.10355l16.63422-29.31682c-1.3349-4.91915-2.60674-9.69296,0.08104-16.04384
			c0.98833-3.37923,1.17957-6.8127,0.96117-11.34226c0.24174-4.82184-0.10268-10.03448-1.98793-13.62874
			c-0.96036-2.73368-4.02806-4.4477-7.17596-5.51583c-1.99503-1.58208-6.5651-4.49864-11.9147-3.19046
			c0,0,1.79588,0.63383,3.40091,1.55581c-0.35195,0.04092-0.90814,0.10059-1.60503,0.19959
			c-2.24641-0.81966-5.27448-0.97791-8.71548,1.33991c0,0,1.23051-0.01215,2.66353,0.02128
			c-3.22514,1.06098-6.4177,2.79087-7.39185,5.58971c-1.88857,3.59426-2.21844,8.8069-1.98336,13.62874
			C103.08633,66.85636,103.25666,70.96171,104.31264,74.2891"/>
		<path style="clip-path:url(#SVGID_6_);fill:#FFFFFF;" d="M113.02143,59.94136c0.0522,1.51279-1.55285,2.78507-3.57589,2.86062
			c-2.01884,0.06096-3.7103-1.10899-3.75707-2.61969c-0.05347-1.51067,1.55078-2.79881,3.5696-2.86103
			C111.28863,57.2557,112.97218,58.42527,113.02143,59.94136"/>
		<path style="clip-path:url(#SVGID_6_);fill:#2B2D34;" d="M111.02515,59.74889c0.12609,0.9324-0.51484,1.78709-1.45476,1.92154
			c-0.92611,0.13446-1.78876-0.52862-1.91275-1.44931c-0.12904-0.93782,0.51148-1.78167,1.44638-1.9178
			C110.0347,58.18309,110.89025,58.82192,111.02515,59.74889"/>
		<path style="clip-path:url(#SVGID_6_);fill:#FFFFFF;" d="M135.44914,59.94136c0.04382,1.51279-1.55371,2.78507-3.58211,2.86062
			c-2.02304,0.06096-3.69864-1.10899-3.74794-2.61969c-0.05428-1.51067,1.54825-2.79881,3.56628-2.86103
			C133.7059,57.2557,135.38902,58.42527,135.44914,59.94136"/>
		<path style="clip-path:url(#SVGID_6_);fill:#2B2D34;" d="M133.44368,59.74889c0.12689,0.9324-0.51527,1.78709-1.44766,1.92154
			c-0.92401,0.13446-1.785-0.52862-1.9203-1.44931c-0.11942-0.93782,0.52403-1.78167,1.45013-1.9178
			C132.45908,58.18309,133.3205,58.82192,133.44368,59.74889"/>
		<path style="clip-path:url(#SVGID_6_);fill:#2B2D34;" d="M144.9705,55.86318c0,0,0.02711-0.55323-1.04932-0.70817
			c-1.07266-0.15282-1.90442-0.89978-11.97652-0.65594c-7.14925,0.60377-9.21191,1.39627-9.21191,1.39627
			s-0.39918,0.11609-0.93282,0.16576c-0.29021,0.05593-0.59206,0.08393-0.89688,0.08393c-0.33776,0-0.66016-0.03259-0.9687-0.09602
			c-0.46809-0.05433-0.80132-0.15368-0.80132-0.15368s-2.06557-0.79251-9.21568-1.39627
			c-10.07497-0.24013-10.90465,0.50313-11.97691,0.65594c-1.07645,0.15494-1.05096,0.70817-1.05096,0.70817l0.00832,0.6927
			c-0.08183,2.04058,0.44176,2.07774,0.44176,2.07774c0.06728,0.15781,0.28229,0.44843,0.28229,0.44843
			c0.54071,0.22256,1.26933,2.49234,1.26933,2.49234c0.9512,2.78798,2.41722,3.1266,2.41722,3.1266
			c3.94914,1.43719,10.47831,0.66808,10.47831,0.66808s3.67403-0.09518,4.81849-1.595
			c0.86434-1.06856,2.15334-4.45399,2.15334-4.45399s0.22963-0.4944,0.73985-0.83804
			c0.60044-0.28395,1.43095-0.28395,1.43095-0.28395s0.82883,0,1.43176,0.28395c0.50982,0.34074,0.82883,0.92321,0.82883,0.92321
			s1.20963,3.2965,2.06855,4.36587c1.14075,1.49901,4.81222,1.59795,4.81222,1.59795s6.52711,0.76661,10.47878-0.66889
			c0,0,1.46895-0.34161,2.42389-3.12746c0,0,0.72522-2.26935,1.2639-2.494c0,0,0.21211-0.29228,0.28352-0.4451
			c0,0,0.52736-0.03716,0.44215-2.07983L144.9705,55.86318z M117.45035,59.77643c-0.97455,3.58631-2.41883,3.96505-2.41883,3.96505
			c-5.57552,1.75703-11.49762,0.57327-11.49762,0.57327c-2.61547-0.19792-3.13617-1.98083-3.13617-1.98083
			c-0.909-1.91697-1.13531-5.31164-1.13531-5.31164c0-1.58458,3.783-1.57246,3.783-1.57246
			c9.10082-0.53867,13.46255,0.92697,13.46255,0.92697C118.4199,57.0561,117.45035,59.77643,117.45035,59.77643 M141.50693,62.33392
			c0,0-0.51482,1.78291-3.14038,1.98083c0,0-5.91249,1.18376-11.48882-0.57327c0,0-1.44762-0.37874-2.42972-3.96505
			c0,0-0.9595-2.72033,0.94285-3.40131c0,0,4.36127-1.46731,13.45753-0.9274c0,0,3.7905-0.01295,3.7905,1.57289
			C142.63889,57.02061,142.42052,60.41695,141.50693,62.33392"/>
		<path style="clip-path:url(#SVGID_6_);fill:#444750;" d="M120.65336,63.72393c-1.81759,3.06521-5.58764,3.89071-5.58764,3.89071
			c2.96293,1.87229,5.93169,7.54005,5.93169,7.54005s2.83475-5.66776,5.80392-7.54005
			C126.80132,67.61464,122.47342,66.78915,120.65336,63.72393"/>
		<path style="clip-path:url(#SVGID_6_);fill:#B9252D;" d="M95.74416,108.89671c4.18717-5.68701,6.37176-13.62418,7.94261-18.39714
			c0,0,6.70581,3.90196,17.07935,3.90196c11.19693,0,16.18161-4.01306,16.18161-4.01306
			c1.48439,4.84938,3.62556,12.5945,7.92841,18.37797c8.30791,7.80516,13.60118,19.49026,13.60118,32.56783
			c0,14.50266-6.50371,27.29338-16.41046,34.98753c-20.19924,17.65016-21.69368-2.75748-21.69368-2.75748
			c-0.35365,14.0997-13.35688,10.45287-21.47488,2.93033c-10.03405-7.6716-16.6284-20.55086-16.6284-35.16039
			C82.26989,128.32602,87.50929,116.69941,95.74416,108.89671"/>
		<path style="clip-path:url(#SVGID_6_);fill:#E3E2E2;" d="M73.09304,108.43069c0,0,11.62075,17.87647-0.13694,35.52663
			c0,0-16.35321-5.66405-21.8916-16.93491c-6.15839-12.53144-0.68937-15.49016-0.68937-15.49016s0.06722,3.38549,1.56709,5.9872
			c0.90147,1.55997,1.74658,2.69946,2.38205,3.24229c0,0-1.5687-2.02013-2.41926-4.14459
			c-2.16118-5.32832-0.15905-13.40285-0.1127-12.75397c0.44802,6.28324,6.77427,11.86792,3.36039,7.41646
			c-1.93153-2.49862-3.22509-6.56885-2.83223-9.10754c0.41925-2.70026,4.28408-6.31998,4.87657-6.17426
			c1.22172,0.30525-0.70481,0.55533-0.542,5.51997c0.15825,4.67195,2.00842,6.69122,2.00842,6.69122
			s-1.18585-0.38499-1.44933-6.77723c-0.26512-6.26572,5.20893-7.31461,7.9568-6.35717
			c0.05846,0.02716,0.33781,0.07018,0.33781,0.07018v3.56541c0,0-0.14198,0.08184-0.21254,0.12447
			c-1.00923,0.65468-1.34076,1.93782,0.35617,4.4009C68.27912,107.05363,73.09304,108.43069,73.09304,108.43069"/>
		<path style="clip-path:url(#SVGID_6_);fill:#24345B;" d="M119.65836,53.52452c-5.69704,1.68565-11.42078,3.83638-17.451,3.68985
			c-2.69983-0.06349-9.224-0.01086-7.71752-4.21431c1.1207-3.12617,6.43524-5.52372,9.0541-7.18264
			c7.30292-4.62975,13.69682-10.4007,21.12916-14.88096c4.90118-2.95667,14.93772-2.59967,18.58292,2.54282
			c1.35788,1.91364,1.62593,5.20267,1.33615,7.50418C143.33867,50.8313,126.66689,51.45304,119.65836,53.52452"/>
		<path style="clip-path:url(#SVGID_6_);fill:#F7F6F8;" d="M71.30178,107.73343c0,0,10.87838,19.8957-0.14989,35.52199
			c0,0,1.55534,0.90649,5.96589,1.54951c0,0,10.52221-18.45561,0-35.664C77.11778,109.14093,72.84087,108.53716,71.30178,107.73343"
			/>
		<path style="clip-path:url(#SVGID_6_);fill:#F7F6F8;" d="M137.66425,73.35676v16.12856c0,0-0.59753,5.2816-14.55656,4.82143
			v-8.37849c0,0,0.23428-4.01556,3.52161-5.2373C129.91537,79.46794,137.19576,76.14973,137.66425,73.35676"/>
		<path style="clip-path:url(#SVGID_6_);fill:#F7F6F8;" d="M103.6596,73.35676v16.12856c0,0,0.59501,5.2816,14.55652,4.82143
			v-8.37849c0,0-0.23508-4.01556-3.51946-5.2373C111.40762,79.46794,104.12852,76.14973,103.6596,73.35676"/>
	</g>
	<g>
		<defs>
			<path id="SVGID_95_" d="M95.87402,108.76644c-8.31129,7.80516-13.60078,19.49026-13.60078,32.56783
				c0,14.50266,6.50207,27.29338,16.40753,34.98544c21.63562,18.40759,21.69492-2.75539,21.69492-2.75539
				c0.81502,14.85005,13.66547,10.92842,21.47402,2.93033c10.03743-7.6716,16.62883-20.55086,16.62883-35.16039
				c0-13.00826-5.23981-24.63486-13.47217-32.43756c-4.18883-5.68533-6.37386-13.62418-7.94299-18.39714
				c0,0-6.70705,3.90196-17.08231,3.90196c-11.19398,0-16.18161-4.01306-16.18161-4.01306
				C102.31846,95.23914,100.17643,102.98297,95.87402,108.76644"/>
		</defs>
		<clipPath id="SVGID_8_">
			<use xlink:href="#SVGID_95_"  style="overflow:visible;"/>
		</clipPath>
		<path style="clip-path:url(#SVGID_8_);fill:#1F4394;" d="M156.42796,181.00166l-7.6841-3.72745l-2.29695-47.0488l1.44722-2.66647
			l10.61949,5.13126c0,0,5.06401,5.84732,5.47862,8.29912C166.4491,155.59059,156.42796,181.00166,156.42796,181.00166"/>
		<path style="clip-path:url(#SVGID_8_);fill:#F8B917;" d="M146.59555,187.82567l-10.72594-3.39381l0.74739-47.38123l1.446-2.66977
			l11.47374,1.19125c0,0,4.21014,9.78734,4.62308,12.23914C156.6167,162.41287,146.59555,187.82567,146.59555,187.82567"/>
		<path style="clip-path:url(#SVGID_8_);fill:#1F4394;" d="M134.31636,187.82567l-11.03163-3.30785l1.05308-47.46719
			l1.44762-2.66977l12.55068,1.89233c0,0,3.13197,9.08626,3.54619,11.53806
			C144.33995,162.41287,134.31636,187.82567,134.31636,187.82567"/>
		<path style="clip-path:url(#SVGID_8_);fill:#1F4394;" d="M89.38155,187.82567l7.68499-3.72871l2.29565-47.04633l-1.44595-2.66977
			l-16.61838,3.25392c0,0,0.9353,7.72467,0.5215,10.17647C79.36375,162.41287,89.38155,187.82567,89.38155,187.82567"/>
		<path style="clip-path:url(#SVGID_8_);fill:#F8B917;" d="M101.66039,187.82567l11.03617-3.30785l-1.05473-47.46719
			l-1.44718-2.66977l-13.46674,3.36252c0,0-2.21844,7.61607-2.6293,10.06787
			C91.6401,162.41287,101.66039,187.82567,101.66039,187.82567"/>
		<path style="clip-path:url(#SVGID_8_);fill:#F8B917;" d="M94.19675,107.05363l14.64336,24.95141
			c0,0-2.25769-0.02135-13.57531,0.11227c-11.14516,0.13699-17.04842,1.21259-17.04842,1.21259
			S91.72318,108.73885,94.19675,107.05363"/>
		<path style="clip-path:url(#SVGID_8_);fill:#1F4394;" d="M145.67239,107.05363l-11.94106,20.71913
			c0,0-7.32291,5.99558-3.92032,7.23943c1.60919,0.58749,18.77791,1.07516,22.32207,0.26724
			c11.03659-2.51741,5.47864-9.01237,5.47864-9.01237S148.14716,108.73885,145.67239,107.05363"/>
		<polygon style="clip-path:url(#SVGID_8_);fill:#1F4394;" points="138.06004,87.74461 139.23758,96.23124 120.10636,131.25468 
			120.10636,89.11163 		"/>
		<polygon style="clip-path:url(#SVGID_8_);fill:#F8B917;" points="103.08504,87.74461 101.97143,96.23124 120.10636,131.25468 
			120.10636,89.11163 		"/>
		<path style="clip-path:url(#SVGID_8_);fill:#1F4394;" d="M112.69656,185.37424l7.68123-3.72662l2.2986-47.05008l-1.44724-2.66896
			L99.82112,92.44282l-10.3573,5.61182l21.14668,39.0077c0,0-3.84391,0.9115-5.47693,8.29712
			C101.9326,159.81573,112.69656,185.37424,112.69656,185.37424"/>
		
			<rect x="107.17522" y="112.31024" transform="matrix(0.47644 -0.87921 0.87921 0.47644 -34.14151 179.06795)" style="clip-path:url(#SVGID_8_);fill:#F8B917;" width="52.21245" height="11.78047"/>
		<path style="clip-path:url(#SVGID_8_);fill:#F8B917;" d="M128.20012,187.16846l-8.09209-7.47412
			c0,0-11.32092-32.67516,1.17916-51.72701c0.51777-0.79001,1.80005-3.31741,1.80005-3.31741l17.45892-32.2071l10.35599,5.61391
			l-18.65268,34.40216c0,0-2.31569,4.13165-3.00674,5.54796C123.38496,150.00587,128.20012,187.16846,128.20012,187.16846"/>
		<rect x="68.0762" y="145.06798" style="clip-path:url(#SVGID_8_);fill:#1F4394;" width="11.77942" height="52.21596"/>
		<rect x="80.23479" y="131.5173" style="clip-path:url(#SVGID_8_);fill:#883D1E;" width="60.31556" height="7.81188"/>
		<path style="clip-path:url(#SVGID_8_);fill:#F5D07C;" d="M108.83259,135.42307c0,2.5412,2.06186,4.60344,4.60387,4.60344h4.56631
			c2.53949,0,4.60054-2.06224,4.60054-4.60344c0-2.54161-2.06105-4.60057-4.60054-4.60057h-4.56631
			C110.89445,130.82249,108.83259,132.88145,108.83259,135.42307"/>
	</g>
	<g>
		<defs>
			<rect id="SVGID_97_" x="2.5" y="2.50021" width="195" height="194.99957"/>
		</defs>
		<clipPath id="SVGID_10_">
			<use xlink:href="#SVGID_97_"  style="overflow:visible;"/>
		</clipPath>
		<path style="clip-path:url(#SVGID_10_);fill:#E8212F;" d="M134.61278,162.48219
			c9.72137,3.06857,18.91281-0.21924,18.91281-0.21924c9.75641-19.55495,2.12239-37.03767,2.12239-37.03767
			c-4.74332,2.10111-9.20735,2.72952-12.73184,2.7692c-4.54959,0.05215-7.53421-0.87977-7.53421-0.87977
			C145.62852,147.34528,134.6153,162.48219,134.61278,162.48219"/>
		<path style="clip-path:url(#SVGID_10_);fill:#E3E2E2;" d="M111.59343,137.60138c-0.04428-0.06052-0.06892-0.09102-0.06892-0.09102
			c0.07058,0.18291,0.13404,0.3566,0.20422,0.53574c0.91359,2.91907,2.44057,6.32832,4.93371,10.05157
			c0.00253,0.02173,0.01628,0.03426,0.02631,0.04597c5.36298,8.44571,11.91555,12.52847,17.99087,14.34187
			c3.28275-5.32872,5.17924-11.6057,5.17924-18.33032c0-6.17551-1.60255-11.98192-4.41513-17.01337
			c-13.11933-3.21176-21.13959-14.13482-21.13959-14.13482c-0.50316,6.24944,5.19931,13.01579,5.19931,13.01579
			c-3.35961-0.32815-6.70332-9.49624-6.70332-9.49624c-1.90778,8.64363,5.58009,15.1916,5.58009,15.1916
			c-3.1295-1.01129-7.28162-8.49458-7.28162-8.49458c-0.7169,6.48367,7.50418,14.84673,7.50418,14.84673
			c-3.35207-0.48354-8.08498-10.01782-8.08498-10.01782S109.84892,131.76991,111.59343,137.60138"/>
		<path style="clip-path:url(#SVGID_10_);fill:#F7F6F8;" d="M134.61278,126.92222c0,0,3.92458,0.99376,6.62483,1.05389
			c0,0,9.87834,13.60158-0.49396,35.81679c0,0-3.54623-0.15031-7.15927-1.65768
			C133.58438,162.13521,142.32072,145.24004,134.61278,126.92222"/>
		<path style="clip-path:url(#SVGID_10_);fill:#F8B917;" d="M123.55406,97.25297c0,0.55616-0.45721,1.01507-1.02046,1.01507
			c-0.56414,0-1.01802-0.45891-1.01802-1.01507c0-0.56621,0.45388-1.02635,1.01802-1.02635
			C123.09686,96.22662,123.55406,96.68676,123.55406,97.25297"/>
		<path style="clip-path:url(#SVGID_10_);fill:#F8B917;" d="M122.53191,102.21844c0.56495,0,1.02216,0.45681,1.02216,1.02046
			c0,0.56664-0.45721,1.02222-1.02216,1.02222c-0.56245,0-1.02009-0.45557-1.02009-1.02222
			C121.51182,102.67525,121.96946,102.21844,122.53191,102.21844"/>
		<path style="clip-path:url(#SVGID_10_);fill:#F8B917;" d="M122.53191,108.20901c0.56495,0,1.02216,0.45676,1.02216,1.02047
			c0,0.56328-0.45721,1.02006-1.02216,1.02006c-0.56245,0-1.02009-0.45678-1.02009-1.02006
			C121.51182,108.66577,121.96946,108.20901,122.53191,108.20901"/>
		<path style="clip-path:url(#SVGID_10_);fill:#F8B917;" d="M123.55406,115.21668c0,0.57246-0.45721,1.02302-1.02046,1.02302
			c-0.56414,0-1.01802-0.45055-1.01802-1.02302c0-0.56119,0.45388-1.01128,1.01802-1.01128
			C123.09686,114.20541,123.55406,114.65549,123.55406,115.21668"/>
		<path style="clip-path:url(#SVGID_10_);fill:#888983;" d="M48.56883,38.93584c0,0,5.40892-4.09201,2.42512-8.02195
			c0,0,1.90445-3.05645-6.24361-3.19339c0,0,1.78589-2.56499,7.1334-1.18835c0,0-0.23175,0.86725,0.4088,0.9278
			c0.63799,0.06306,1.2877,1.46389,1.16952,1.613c0,0,1.93078-0.12987,4.96004-0.57123
			c3.03434-0.44888,3.34167-1.43885,3.29946-2.39293c-0.04258-0.95037-0.13651-4.82353-0.13651-4.82353l1.16995,6.50123
			c0,0,0.84052,0.56161,3.5312,0.20206c2.69527-0.3624,0.6305,1.08441,0.6305,1.08441s-0.18874-1.83642,1.29856-0.50737
			c1.48815,1.33034,6.55466,5.52459,6.55466,5.52459l-4.9095-2.51402c0,0-5.29074-0.29061-5.23441,1.38456
			c0.05637,1.67939,8.18522,158.58614,8.18522,158.58614l-3.51619,0.10768L61.18544,33.30309c0,0-5.36798-0.34488-5.65486,2.0268
			c0,0-2.31569-0.71902-1.8735-0.13446c0,0-0.09605,1.27562-0.27723,2.11656C53.37984,37.31199,51.35804,39.21807,48.56883,38.93584
			"/>
	</g>
	<g>
		<defs>
			<path id="SVGID_99_" d="M61.72075,26.1075c0.04092,0.95537-0.26431,1.94534-3.29532,2.39422
				c-3.03222,0.44219-5.02307-1.60086-5.02307-1.60086c0.12066-0.15034,0.13906-0.60922-0.50396-0.67018
				c-0.63679-0.06179-1.0134,0.30147-1.0134,0.30147c-5.34877-1.37959-4.6878,1.9746-4.6878,1.9746
				c8.15139,0.13863,3.79675,2.40715,3.79675,2.40715c2.98423,3.92993-2.42388,8.02195-2.42388,8.02195
				c2.78714,0.28223,4.80978-1.62679,4.80978-1.62679c0.17909-0.83801,1.11901-2.4393,1.11901-2.4393
				c-0.43927-0.58501,1.03172,0.46014,1.03172,0.46014c0.28519-2.37168,5.65486-2.0268,5.65486-2.0268l8.11128,158.35144
				l3.51243-0.10768c0,0-8.12923-156.90674-8.18312-158.58614c-0.05467-1.67517,5.23773-1.38289,5.23773-1.38289l4.90617,1.80131
				c0,0-1.41172-4.89661-2.89984-6.22523c-1.4894-1.32825-2.64978-0.466-2.64978-0.466s-0.23884,0.93825-2.9341,1.30065
				c-2.69069,0.36245-2.97625-2.10818-2.97625-2.10818l-1.95665-5.81643C61.3533,20.06394,61.67897,25.15842,61.72075,26.1075"/>
		</defs>
		<clipPath id="SVGID_12_">
			<use xlink:href="#SVGID_99_"  style="overflow:visible;"/>
		</clipPath>
		
			<rect x="58.29981" y="2.96019" transform="matrix(0.99326 -0.11594 0.11594 0.99326 -1.17914 7.2276)" style="clip-path:url(#SVGID_12_);fill:#888983;" width="6.47715" height="21.57877"/>
		<polygon style="clip-path:url(#SVGID_12_);fill:#624219;" points="59.82632,49.57533 68.49669,48.56279 74.7716,191.48709 
			67.30334,191.71509 66.06698,187.40724 		"/>
	</g>
	<g>
		<defs>
			<rect id="SVGID_101_" x="2.5" y="2.50021" width="195" height="194.99957"/>
		</defs>
		<clipPath id="SVGID_14_">
			<use xlink:href="#SVGID_101_"  style="overflow:visible;"/>
		</clipPath>
		<path style="clip-path:url(#SVGID_14_);fill:#E3E2E2;" d="M63.92162,94.80531l0.34032,5.38426c0,0,0.4355-1.71149,3.38631-2.03722
			c0.55157-0.09771,2.13577-0.15658,2.13577-0.15658s-1.11571-1.39417-3.5588-2.53573
			C64.85444,94.80531,63.91705,94.80531,63.92162,94.80531"/>
		<path style="clip-path:url(#SVGID_14_);fill:#2C2C2D;" d="M122.58408,192.08296l0.13946-0.08226l-0.13946-0.11986v-2.4213
			c0-0.30446,0.24889-0.55409,0.55704-0.55409c0,0,0.76158,0.64801,2.11234,0.64801c1.34992,0,1.97459-0.64801,2.33743-0.64801
			c0.06808,0-0.01128-0.31445,0.32613,0c2.07604,1.94028,6.70911,2.33324,6.70911,2.33324c0.25891,0,0.42839,0.4117,0.19041,0.69102
			c-0.03673,0.03967-0.12399,0.104-0.12399,0.15324l0.13777,0.14615c0,0.30771-0.24844,0.55699-0.55409,0.55699h-11.13512
			c-0.30816,0-0.55704-0.24928-0.55704-0.55699V192.08296z"/>
		<path style="clip-path:url(#SVGID_14_);fill:#2C2C2D;" d="M118.04788,192.22911c0,0.30771-0.24969,0.55699-0.55576,0.55699
			h-11.1356c-0.30523,0-0.55363-0.24928-0.55363-0.55699l0.13903-0.14615c0-0.04924-0.09022-0.11357-0.12485-0.15324
			c-0.2397-0.27933-0.06765-0.69102,0.18954-0.69102c0,0,4.63646-0.39296,6.71124-2.33324c0.33486-0.31445,0.25765,0,0.3257,0
			c0.36452,0,0.98581,0.64801,2.33536,0.64801c1.352,0,2.1132-0.64801,2.1132-0.64801c0.30606,0,0.55576,0.24963,0.55576,0.55409
			v2.4213l-0.13866,0.12109l0.13866,0.08102V192.22911z"/>
		<path style="clip-path:url(#SVGID_14_);fill:#888983;" d="M41.50977,28.04451c0,0,8.50629-0.12904,9.02699,4.61513
			c0,0,0.51817,5.72039-6.17556,7.99481c0,0,6.97472,0.90061,9.55556-2.85979c2.57837-3.76,6.67495-4.56379,7.26867-4.49157
			l0.59458,0.07061l7.0198-0.6489l10.3652,2.85982l-9.06409-9.16143l-6.46864,0.45176L61.06768,4.05935l-0.72985,22.94549
			c0,0-5.38262,0.65051-8.69753-1.3654C48.32499,23.62559,43.01378,26.029,41.50977,28.04451"/>
		<path style="clip-path:url(#SVGID_14_);fill:#2C2C2D;" d="M114.43861,190.62364c0.18535-0.11357,1.17621-0.59502,2.4969,0.01208
			v-9.42445c1.11737,0.11566,2.24307-8.47577,3.37713-8.47577c1.14494,0,2.27064,8.59143,3.38046,8.47577v9.42445
			c1.30482-0.6071,2.29025-0.1403,2.49946-0.02171c1.03384-5.48157,4.50742-10.14595,9.30793-12.90971l-0.07597,0.01212
			c9.88376-5.16133,16.59334-15.20999,16.59334-26.77394c0-16.82428-14.19493-30.46136-31.70688-30.46136
			c-17.4986,0-31.69766,13.63708-31.69766,30.46136c0,11.56395,6.71458,21.61261,16.59248,26.77394l-0.09271-0.01212
			C109.92532,180.46806,113.39847,185.13245,114.43861,190.62364"/>
	</g>
	<g>
		<defs>
			<path id="SVGID_103_" d="M88.61535,150.94037c0,11.56606,6.71254,21.61472,16.5921,26.77605l-0.09438-0.01212
				c4.81348,2.76376,8.28539,7.42815,9.32553,12.91934c0.18535-0.11357,1.17621-0.59502,2.49943,0.01208v-9.42653
				c1.11485,0.11774,2.24055-8.47369,3.37711-8.47369c1.14243,0,2.26814,8.59143,3.37586,8.47369v9.42653
				c1.3082-0.6071,2.29234-0.1403,2.50156-0.02298c1.03255-5.4803,4.50742-10.14468,9.30793-12.90845l-0.07597,0.01212
				c9.88376-5.16133,16.59334-15.20999,16.59334-26.77605c0-16.82217-14.19493-30.45925-31.70688-30.45925
				C102.81071,120.48112,88.61535,134.11819,88.61535,150.94037"/>
		</defs>
		<clipPath id="SVGID_16_">
			<use xlink:href="#SVGID_103_"  style="overflow:visible;"/>
		</clipPath>
		<polygon style="clip-path:url(#SVGID_16_);fill:#F8B917;" points="117.75764,191.18944 117.02903,191.47 114.88996,181.44635 
			116.81568,181.06512 		"/>
		<polygon style="clip-path:url(#SVGID_16_);fill:#F8B917;" points="116.2282,191.47334 114.81731,191.72346 112.67821,181.69562 
			114.08869,181.44635 		"/>
		<polygon style="clip-path:url(#SVGID_16_);fill:#1F4394;" points="116.86955,191.42157 116.14384,191.70216 114.0035,181.6777 
			115.93047,181.29688 		"/>
		<polygon style="clip-path:url(#SVGID_16_);fill:#1F4394;" points="114.80058,191.48795 112.29781,191.93681 110.16084,181.90901 
			112.66193,181.46764 		"/>
		<polygon style="clip-path:url(#SVGID_16_);fill:#F8B917;" points="122.8196,190.99861 123.48222,191.28751 125.57205,181.80545 
			123.81461,181.38457 		"/>
		
			<rect x="121.05149" y="186.0563" transform="matrix(0.21421 -0.97679 0.97679 0.21421 -83.44588 269.7038)" style="clip-path:url(#SVGID_16_);fill:#F8B917;" width="9.70923" height="1.31945"/>
		<polygon style="clip-path:url(#SVGID_16_);fill:#1F4394;" points="123.62838,191.24454 124.2906,191.5343 126.38043,182.05515 
			124.62299,181.63173 		"/>
		
			<rect x="122.85585" y="185.71976" transform="matrix(0.21596 -0.9764 0.9764 0.21596 -82.34886 271.22485)" style="clip-path:url(#SVGID_16_);fill:#1F4394;" width="9.70706" height="2.33782"/>
	</g>
	<g>
		<defs>
			<rect id="SVGID_105_" x="2.5" y="2.50021" width="195" height="194.99957"/>
		</defs>
		<clipPath id="SVGID_18_">
			<use xlink:href="#SVGID_105_"  style="overflow:visible;"/>
		</clipPath>
		<path style="clip-path:url(#SVGID_18_);fill:#E8212F;" d="M72.31937,143.7865c10.04824,3.00761,18.79918-0.21919,18.79918-0.21919
			l16.34783-19.24393l-0.48478-26.75476c-13.12056,11.59029-24.74551,13.10724-33.88856,10.86877
			c2.80302,5.03607,4.41516,10.837,4.41516,17.01922C77.5082,132.17494,75.60921,138.45485,72.31937,143.7865"/>
		<path style="clip-path:url(#SVGID_18_);fill:#C9C8C8;" d="M99.31419,122.40685c0-11.58107,9.42404-21.00053,20.99845-21.00053
			c11.58652,0,21.01057,9.41946,21.01057,21.00053c0,11.58446-9.42406,21.00764-21.01057,21.00764
			C108.73823,143.41449,99.31419,133.9913,99.31419,122.40685 M99.62733,122.40685c0,11.40741,9.28295,20.68863,20.6853,20.68863
			c11.41742,0,20.69656-9.28122,20.69656-20.68863c0-11.40155-9.27914-20.6882-20.69656-20.6882
			C108.91029,101.71864,99.62733,111.00196,99.62733,122.40685"/>
		<path style="clip-path:url(#SVGID_18_);fill:#2A2E35;" d="M82.26989,141.33427c0,14.60953,6.59183,27.48878,16.63012,35.16039
			c6.1759-2.32198,18.46222-9.38396,21.47316-29.4901c0,0,1.68651,21.63564,21.69368,29.31725
			c9.90675-7.69415,16.41046-20.48488,16.41046-34.98753c0-23.50374-17.06227-42.55392-38.10414-42.55392
			C99.32839,98.78035,82.26989,117.83054,82.26989,141.33427"/>
		<path style="clip-path:url(#SVGID_18_);fill:#444750;" d="M120.04207,94.40154c1.01337,0,1.82721,0.8209,1.82721,1.82508
			c0,1.013-0.81588,1.8339-1.82721,1.8339c-1.01214,0-1.82595-0.8209-1.82595-1.8339
			C118.21612,95.22243,119.02993,94.40154,120.04207,94.40154"/>
		<path style="clip-path:url(#SVGID_18_);fill:#D7D7D6;" d="M120.04207,95.7999c0.2397,0,0.43091,0.19164,0.43091,0.42838
			c0,0.2447-0.19331,0.43093-0.43091,0.43093c-0.23632,0-0.42758-0.18871-0.42758-0.43093
			C119.61449,95.99154,119.80575,95.7999,120.04207,95.7999"/>
		<path style="clip-path:url(#SVGID_18_);fill:#444750;" d="M120.04207,104.80513c1.01337,0,1.82721,0.81924,1.82721,1.82847
			c0,1.00795-0.81588,1.82468-1.82721,1.82468c-1.01214,0-1.82595-0.82259-1.82595-1.82468
			C118.21612,105.62437,119.02993,104.80808,120.04207,104.80513"/>
		<path style="clip-path:url(#SVGID_18_);fill:#D7D7D6;" d="M120.04207,106.20016c0.2397,0,0.43091,0.1917,0.43091,0.43343
			c0,0.2309-0.19331,0.42003-0.43091,0.42003c-0.23632,0-0.42758-0.18913-0.42758-0.42003
			C119.61449,106.39186,119.80575,106.20016,120.04207,106.20016"/>
		<path style="clip-path:url(#SVGID_18_);fill:#E3E2E2;" d="M104.31264,74.2891c3.02846,6.09415,0.5165,11.70554-0.62588,16.21047
			l16.62963,29.30846v-0.10355l16.63422-29.31682c-1.3349-4.91915-2.60674-9.69296,0.08104-16.04384
			c0.98833-3.37923,1.17957-6.8127,0.96117-11.34226c0.24174-4.82184-0.10268-10.03448-1.98793-13.62874
			c-0.96036-2.73368-4.02806-4.4477-7.17596-5.51583c-1.99503-1.58208-6.5651-4.49864-11.9147-3.19046
			c0,0,1.79588,0.63383,3.40091,1.55581c-0.35195,0.04092-0.90814,0.10059-1.60503,0.19959
			c-2.24641-0.81966-5.27448-0.97791-8.71548,1.33991c0,0,1.23051-0.01215,2.66353,0.02128
			c-3.22514,1.06098-6.4177,2.79087-7.39185,5.58971c-1.88857,3.59426-2.21844,8.8069-1.98336,13.62874
			C103.08633,66.85636,103.25666,70.96171,104.31264,74.2891"/>
		<path style="clip-path:url(#SVGID_18_);fill:#FFFFFF;" d="M113.02143,59.94136c0.0522,1.51279-1.55285,2.78507-3.57589,2.86062
			c-2.01884,0.06096-3.7103-1.10899-3.75707-2.61969c-0.05347-1.51067,1.55078-2.79881,3.5696-2.86103
			C111.28863,57.2557,112.97218,58.42527,113.02143,59.94136"/>
		<path style="clip-path:url(#SVGID_18_);fill:#2B2D34;" d="M111.02515,59.74889c0.12609,0.9324-0.51484,1.78709-1.45476,1.92154
			c-0.92611,0.13446-1.78876-0.52862-1.91275-1.44931c-0.12904-0.93782,0.51148-1.78167,1.44638-1.9178
			C110.0347,58.18309,110.89025,58.82192,111.02515,59.74889"/>
		<path style="clip-path:url(#SVGID_18_);fill:#FFFFFF;" d="M135.44914,59.94136c0.04382,1.51279-1.55371,2.78507-3.58211,2.86062
			c-2.02304,0.06096-3.69864-1.10899-3.74794-2.61969c-0.05428-1.51067,1.54825-2.79881,3.56628-2.86103
			C133.7059,57.2557,135.38902,58.42527,135.44914,59.94136"/>
		<path style="clip-path:url(#SVGID_18_);fill:#2B2D34;" d="M133.44368,59.74889c0.12689,0.9324-0.51527,1.78709-1.44766,1.92154
			c-0.92401,0.13446-1.785-0.52862-1.9203-1.44931c-0.11942-0.93782,0.52403-1.78167,1.45013-1.9178
			C132.45908,58.18309,133.3205,58.82192,133.44368,59.74889"/>
		<path style="clip-path:url(#SVGID_18_);fill:#2B2D34;" d="M144.9705,55.86318c0,0,0.02711-0.55323-1.04932-0.70817
			c-1.07266-0.15282-1.90442-0.89978-11.97652-0.65594c-7.14925,0.60377-9.21191,1.39627-9.21191,1.39627
			s-0.39918,0.11609-0.93282,0.16576c-0.29021,0.05593-0.59206,0.08393-0.89688,0.08393c-0.33776,0-0.66016-0.03259-0.9687-0.09602
			c-0.46809-0.05433-0.80132-0.15368-0.80132-0.15368s-2.06557-0.79251-9.21568-1.39627
			c-10.07497-0.24013-10.90465,0.50313-11.97691,0.65594c-1.07645,0.15494-1.05096,0.70817-1.05096,0.70817l0.00832,0.6927
			c-0.08183,2.04058,0.44176,2.07774,0.44176,2.07774c0.06728,0.15781,0.28229,0.44843,0.28229,0.44843
			c0.54071,0.22256,1.26933,2.49234,1.26933,2.49234c0.9512,2.78798,2.41722,3.1266,2.41722,3.1266
			c3.94914,1.43719,10.47831,0.66808,10.47831,0.66808s3.67403-0.09518,4.81849-1.595
			c0.86434-1.06856,2.15334-4.45399,2.15334-4.45399s0.22963-0.4944,0.73985-0.83804
			c0.60044-0.28395,1.43095-0.28395,1.43095-0.28395s0.82883,0,1.43176,0.28395c0.50982,0.34074,0.82883,0.92321,0.82883,0.92321
			s1.20963,3.2965,2.06855,4.36587c1.14075,1.49901,4.81222,1.59795,4.81222,1.59795s6.52711,0.76661,10.47878-0.66889
			c0,0,1.46895-0.34161,2.42389-3.12746c0,0,0.72522-2.26935,1.2639-2.494c0,0,0.21211-0.29228,0.28352-0.4451
			c0,0,0.52736-0.03716,0.44215-2.07983L144.9705,55.86318z M117.45035,59.77643c-0.97455,3.58631-2.41883,3.96505-2.41883,3.96505
			c-5.57552,1.75703-11.49762,0.57327-11.49762,0.57327c-2.61547-0.19792-3.13617-1.98083-3.13617-1.98083
			c-0.909-1.91697-1.13531-5.31164-1.13531-5.31164c0-1.58458,3.783-1.57246,3.783-1.57246
			c9.10082-0.53867,13.46255,0.92697,13.46255,0.92697C118.4199,57.0561,117.45035,59.77643,117.45035,59.77643 M141.50693,62.33392
			c0,0-0.51482,1.78291-3.14038,1.98083c0,0-5.91249,1.18376-11.48882-0.57327c0,0-1.44762-0.37874-2.42972-3.96505
			c0,0-0.9595-2.72033,0.94285-3.40131c0,0,4.36127-1.46731,13.45753-0.9274c0,0,3.7905-0.01295,3.7905,1.57289
			C142.63889,57.02061,142.42052,60.41695,141.50693,62.33392"/>
		<path style="clip-path:url(#SVGID_18_);fill:#444750;" d="M120.65336,63.72393c-1.81759,3.06521-5.58764,3.89071-5.58764,3.89071
			c2.96293,1.87229,5.93169,7.54005,5.93169,7.54005s2.83475-5.66776,5.80392-7.54005
			C126.80132,67.61464,122.47342,66.78915,120.65336,63.72393"/>
		<path style="clip-path:url(#SVGID_18_);fill:#B9252D;" d="M95.74416,108.89671c4.18717-5.68701,6.37176-13.62418,7.94261-18.39714
			c0,0,6.70581,3.90196,17.07935,3.90196c11.19693,0,16.18161-4.01306,16.18161-4.01306
			c1.48439,4.84938,3.62556,12.5945,7.92841,18.37797c8.30791,7.80516,13.60118,19.49026,13.60118,32.56783
			c0,14.50266-6.50371,27.29338-16.41046,34.98753c-20.19924,17.65016-21.69368-2.75748-21.69368-2.75748
			c-0.35365,14.0997-13.35688,10.45287-21.47488,2.93033c-10.03405-7.6716-16.6284-20.55086-16.6284-35.16039
			C82.26989,128.32602,87.50929,116.69941,95.74416,108.89671"/>
		<path style="clip-path:url(#SVGID_18_);fill:#E3E2E2;" d="M73.09304,108.43069c0,0,11.62075,17.87647-0.13694,35.52663
			c0,0-16.35321-5.66405-21.8916-16.93491c-6.15839-12.53144-0.68937-15.49016-0.68937-15.49016s0.06722,3.38549,1.56709,5.9872
			c0.90147,1.55997,1.74658,2.69946,2.38205,3.24229c0,0-1.5687-2.02013-2.41926-4.14459
			c-2.16118-5.32832-0.15905-13.40285-0.1127-12.75397c0.44802,6.28324,6.77427,11.86792,3.36039,7.41646
			c-1.93153-2.49862-3.22509-6.56885-2.83223-9.10754c0.41925-2.70026,4.28408-6.31998,4.87657-6.17426
			c1.22172,0.30525-0.70481,0.55533-0.542,5.51997c0.15825,4.67195,2.00842,6.69122,2.00842,6.69122
			s-1.18585-0.38499-1.44933-6.77723c-0.26512-6.26572,5.20893-7.31461,7.9568-6.35717
			c0.05846,0.02716,0.33781,0.07018,0.33781,0.07018v3.56541c0,0-0.14198,0.08184-0.21254,0.12447
			c-1.00923,0.65468-1.34076,1.93782,0.35617,4.4009C68.27912,107.05363,73.09304,108.43069,73.09304,108.43069"/>
		<path style="clip-path:url(#SVGID_18_);fill:#24345B;" d="M119.65836,53.52452c-5.69704,1.68565-11.42078,3.83638-17.451,3.68985
			c-2.69983-0.06349-9.224-0.01086-7.71752-4.21431c1.1207-3.12617,6.43524-5.52372,9.0541-7.18264
			c7.30292-4.62975,13.69682-10.4007,21.12916-14.88096c4.90118-2.95667,14.93772-2.59967,18.58292,2.54282
			c1.35788,1.91364,1.62593,5.20267,1.33615,7.50418C143.33867,50.8313,126.66689,51.45304,119.65836,53.52452"/>
		<path style="clip-path:url(#SVGID_18_);fill:#F7F6F8;" d="M71.30178,107.73343c0,0,10.87838,19.8957-0.14989,35.52199
			c0,0,1.55534,0.90649,5.96589,1.54951c0,0,10.52221-18.45561,0-35.664C77.11778,109.14093,72.84087,108.53716,71.30178,107.73343"
			/>
		<path style="clip-path:url(#SVGID_18_);fill:#F7F6F8;" d="M137.66425,73.35676v16.12856c0,0-0.59753,5.2816-14.55656,4.82143
			v-8.37849c0,0,0.23428-4.01556,3.52161-5.2373C129.91537,79.46794,137.19576,76.14973,137.66425,73.35676"/>
		<path style="clip-path:url(#SVGID_18_);fill:#F7F6F8;" d="M103.6596,73.35676v16.12856c0,0,0.59501,5.2816,14.55652,4.82143
			v-8.37849c0,0-0.23508-4.01556-3.51946-5.2373C111.40762,79.46794,104.12852,76.14973,103.6596,73.35676"/>
	</g>
	<g>
		<defs>
			<path id="SVGID_107_" d="M95.87402,108.76644c-8.31129,7.80516-13.60078,19.49026-13.60078,32.56783
				c0,14.50266,6.50207,27.29338,16.40753,34.98544c21.63562,18.40759,21.69492-2.75539,21.69492-2.75539
				c0.81502,14.85005,13.66547,10.92842,21.47402,2.93033c10.03743-7.6716,16.62883-20.55086,16.62883-35.16039
				c0-13.00826-5.23981-24.63486-13.47217-32.43756c-4.18883-5.68533-6.37386-13.62418-7.94299-18.39714
				c0,0-6.70705,3.90196-17.08231,3.90196c-11.19398,0-16.18161-4.01306-16.18161-4.01306
				C102.31846,95.23914,100.17643,102.98297,95.87402,108.76644"/>
		</defs>
		<clipPath id="SVGID_20_">
			<use xlink:href="#SVGID_107_"  style="overflow:visible;"/>
		</clipPath>
		<path style="clip-path:url(#SVGID_20_);fill:#1F4394;" d="M156.42796,181.00166l-7.6841-3.72745l-2.29695-47.0488l1.44722-2.66647
			l10.61949,5.13126c0,0,5.06401,5.84732,5.47862,8.29912C166.4491,155.59059,156.42796,181.00166,156.42796,181.00166"/>
		<path style="clip-path:url(#SVGID_20_);fill:#F8B917;" d="M146.59555,187.82567l-10.72594-3.39381l0.74739-47.38123l1.446-2.66977
			l11.47374,1.19125c0,0,4.21014,9.78734,4.62308,12.23914C156.6167,162.41287,146.59555,187.82567,146.59555,187.82567"/>
		<path style="clip-path:url(#SVGID_20_);fill:#1F4394;" d="M134.31636,187.82567l-11.03163-3.30785l1.05308-47.46719
			l1.44762-2.66977l12.55068,1.89233c0,0,3.13197,9.08626,3.54619,11.53806
			C144.33995,162.41287,134.31636,187.82567,134.31636,187.82567"/>
		<path style="clip-path:url(#SVGID_20_);fill:#1F4394;" d="M89.38155,187.82567l7.68499-3.72871l2.29565-47.04633l-1.44595-2.66977
			l-16.61838,3.25392c0,0,0.9353,7.72467,0.5215,10.17647C79.36375,162.41287,89.38155,187.82567,89.38155,187.82567"/>
		<path style="clip-path:url(#SVGID_20_);fill:#F8B917;" d="M101.66039,187.82567l11.03617-3.30785l-1.05473-47.46719
			l-1.44718-2.66977l-13.46674,3.36252c0,0-2.21844,7.61607-2.6293,10.06787
			C91.6401,162.41287,101.66039,187.82567,101.66039,187.82567"/>
		<path style="clip-path:url(#SVGID_20_);fill:#F8B917;" d="M94.19675,107.05363l14.64336,24.95141
			c0,0-2.25769-0.02135-13.57531,0.11227c-11.14516,0.13699-17.04842,1.21259-17.04842,1.21259
			S91.72318,108.73885,94.19675,107.05363"/>
		<path style="clip-path:url(#SVGID_20_);fill:#1F4394;" d="M145.67239,107.05363l-11.94106,20.71913
			c0,0-7.32291,5.99558-3.92032,7.23943c1.60919,0.58749,18.77791,1.07516,22.32207,0.26724
			c11.03659-2.51741,5.47864-9.01237,5.47864-9.01237S148.14716,108.73885,145.67239,107.05363"/>
		<polygon style="clip-path:url(#SVGID_20_);fill:#1F4394;" points="138.06004,87.74461 139.23758,96.23124 120.10636,131.25468 
			120.10636,89.11163 		"/>
		<polygon style="clip-path:url(#SVGID_20_);fill:#F8B917;" points="103.08504,87.74461 101.97143,96.23124 120.10636,131.25468 
			120.10636,89.11163 		"/>
		<path style="clip-path:url(#SVGID_20_);fill:#1F4394;" d="M112.69656,185.37424l7.68123-3.72662l2.2986-47.05008l-1.44724-2.66896
			L99.82112,92.44282l-10.3573,5.61182l21.14668,39.0077c0,0-3.84391,0.9115-5.47693,8.29712
			C101.9326,159.81573,112.69656,185.37424,112.69656,185.37424"/>
		
			<rect x="107.17522" y="112.31024" transform="matrix(0.47644 -0.87921 0.87921 0.47644 -34.14151 179.06795)" style="clip-path:url(#SVGID_20_);fill:#F8B917;" width="52.21245" height="11.78047"/>
		<path style="clip-path:url(#SVGID_20_);fill:#F8B917;" d="M128.20012,187.16846l-8.09209-7.47412
			c0,0-11.32092-32.67516,1.17916-51.72701c0.51777-0.79001,1.80005-3.31741,1.80005-3.31741l17.45892-32.2071l10.35599,5.61391
			l-18.65268,34.40216c0,0-2.31569,4.13165-3.00674,5.54796C123.38496,150.00587,128.20012,187.16846,128.20012,187.16846"/>
		<rect x="68.0762" y="145.06798" style="clip-path:url(#SVGID_20_);fill:#1F4394;" width="11.77942" height="52.21596"/>
		<rect x="80.23479" y="131.5173" style="clip-path:url(#SVGID_20_);fill:#883D1E;" width="60.31556" height="7.81188"/>
		<path style="clip-path:url(#SVGID_20_);fill:#F5D07C;" d="M108.83259,135.42307c0,2.5412,2.06186,4.60344,4.60387,4.60344h4.56631
			c2.53949,0,4.60054-2.06224,4.60054-4.60344c0-2.54161-2.06105-4.60057-4.60054-4.60057h-4.56631
			C110.89445,130.82249,108.83259,132.88145,108.83259,135.42307"/>
	</g>
	<g>
		<defs>
			<rect id="SVGID_109_" x="2.5" y="2.50021" width="195" height="194.99957"/>
		</defs>
		<clipPath id="SVGID_22_">
			<use xlink:href="#SVGID_109_"  style="overflow:visible;"/>
		</clipPath>
		<path style="clip-path:url(#SVGID_22_);fill:#E8212F;" d="M134.61278,162.48219
			c9.72137,3.06857,18.91281-0.21924,18.91281-0.21924c9.75641-19.55495,2.12239-37.03767,2.12239-37.03767
			c-4.74332,2.10111-9.20735,2.72952-12.73184,2.7692c-4.54959,0.05215-7.53421-0.87977-7.53421-0.87977
			C145.62852,147.34528,134.6153,162.48219,134.61278,162.48219"/>
		<path style="clip-path:url(#SVGID_22_);fill:#E3E2E2;" d="M111.59343,137.60138c-0.04428-0.06052-0.06892-0.09102-0.06892-0.09102
			c0.07058,0.18291,0.13404,0.3566,0.20422,0.53574c0.91359,2.91907,2.44057,6.32832,4.93371,10.05157
			c0.00253,0.02173,0.01628,0.03426,0.02631,0.04597c5.36298,8.44571,11.91555,12.52847,17.99087,14.34187
			c3.28275-5.32872,5.17924-11.6057,5.17924-18.33032c0-6.17551-1.60255-11.98192-4.41513-17.01337
			c-13.11933-3.21176-21.13959-14.13482-21.13959-14.13482c-0.50316,6.24944,5.19931,13.01579,5.19931,13.01579
			c-3.35961-0.32815-6.70332-9.49624-6.70332-9.49624c-1.90778,8.64363,5.58009,15.1916,5.58009,15.1916
			c-3.1295-1.01129-7.28162-8.49458-7.28162-8.49458c-0.7169,6.48367,7.50418,14.84673,7.50418,14.84673
			c-3.35207-0.48354-8.08498-10.01782-8.08498-10.01782S109.84892,131.76991,111.59343,137.60138"/>
		<path style="clip-path:url(#SVGID_22_);fill:#F7F6F8;" d="M134.61278,126.92222c0,0,3.92458,0.99376,6.62483,1.05389
			c0,0,9.87834,13.60158-0.49396,35.81679c0,0-3.54623-0.15031-7.15927-1.65768
			C133.58438,162.13521,142.32072,145.24004,134.61278,126.92222"/>
		<path style="clip-path:url(#SVGID_22_);fill:#F8B917;" d="M123.55406,97.25297c0,0.55616-0.45721,1.01507-1.02046,1.01507
			c-0.56414,0-1.01802-0.45891-1.01802-1.01507c0-0.56621,0.45388-1.02635,1.01802-1.02635
			C123.09686,96.22662,123.55406,96.68676,123.55406,97.25297"/>
		<path style="clip-path:url(#SVGID_22_);fill:#F8B917;" d="M122.53191,102.21844c0.56495,0,1.02216,0.45681,1.02216,1.02046
			c0,0.56664-0.45721,1.02222-1.02216,1.02222c-0.56245,0-1.02009-0.45557-1.02009-1.02222
			C121.51182,102.67525,121.96946,102.21844,122.53191,102.21844"/>
		<path style="clip-path:url(#SVGID_22_);fill:#F8B917;" d="M122.53191,108.20901c0.56495,0,1.02216,0.45676,1.02216,1.02047
			c0,0.56328-0.45721,1.02006-1.02216,1.02006c-0.56245,0-1.02009-0.45678-1.02009-1.02006
			C121.51182,108.66577,121.96946,108.20901,122.53191,108.20901"/>
		<path style="clip-path:url(#SVGID_22_);fill:#F8B917;" d="M123.55406,115.21668c0,0.57246-0.45721,1.02302-1.02046,1.02302
			c-0.56414,0-1.01802-0.45055-1.01802-1.02302c0-0.56119,0.45388-1.01128,1.01802-1.01128
			C123.09686,114.20541,123.55406,114.65549,123.55406,115.21668"/>
		<path style="clip-path:url(#SVGID_22_);fill:#888983;" d="M48.56883,38.93584c0,0,5.40892-4.09201,2.42512-8.02195
			c0,0,1.90445-3.05645-6.24361-3.19339c0,0,1.78589-2.56499,7.1334-1.18835c0,0-0.23175,0.86725,0.4088,0.9278
			c0.63799,0.06306,1.2877,1.46389,1.16952,1.613c0,0,1.93078-0.12987,4.96004-0.57123
			c3.03434-0.44888,3.34167-1.43885,3.29946-2.39293c-0.04258-0.95037-0.13651-4.82353-0.13651-4.82353l1.16995,6.50123
			c0,0,0.84052,0.56161,3.5312,0.20206c2.69527-0.3624,0.6305,1.08441,0.6305,1.08441s-0.18874-1.83642,1.29856-0.50737
			c1.48815,1.33034,6.55466,5.52459,6.55466,5.52459l-4.9095-2.51402c0,0-5.29074-0.29061-5.23441,1.38456
			c0.05637,1.67939,8.18522,158.58614,8.18522,158.58614l-3.51619,0.10768L61.18544,33.30309c0,0-5.36798-0.34488-5.65486,2.0268
			c0,0-2.31569-0.71902-1.8735-0.13446c0,0-0.09605,1.27562-0.27723,2.11656C53.37984,37.31199,51.35804,39.21807,48.56883,38.93584
			"/>
	</g>
	<g>
		<defs>
			<path id="SVGID_111_" d="M61.72075,26.1075c0.04092,0.95537-0.26431,1.94534-3.29532,2.39422
				c-3.03222,0.44219-5.02307-1.60086-5.02307-1.60086c0.12066-0.15034,0.13906-0.60922-0.50396-0.67018
				c-0.63679-0.06179-1.0134,0.30147-1.0134,0.30147c-5.34877-1.37959-4.6878,1.9746-4.6878,1.9746
				c8.15139,0.13863,3.79675,2.40715,3.79675,2.40715c2.98423,3.92993-2.42388,8.02195-2.42388,8.02195
				c2.78714,0.28223,4.80978-1.62679,4.80978-1.62679c0.17909-0.83801,1.11901-2.4393,1.11901-2.4393
				c-0.43927-0.58501,1.03172,0.46014,1.03172,0.46014c0.28519-2.37168,5.65486-2.0268,5.65486-2.0268l8.11128,158.35144
				l3.51243-0.10768c0,0-8.12923-156.90674-8.18312-158.58614c-0.05467-1.67517,5.23773-1.38289,5.23773-1.38289l4.90617,1.80131
				c0,0-1.41172-4.89661-2.89984-6.22523c-1.4894-1.32825-2.64978-0.466-2.64978-0.466s-0.23884,0.93825-2.9341,1.30065
				c-2.69069,0.36245-2.97625-2.10818-2.97625-2.10818l-1.95665-5.81643C61.3533,20.06394,61.67897,25.15842,61.72075,26.1075"/>
		</defs>
		<clipPath id="SVGID_24_">
			<use xlink:href="#SVGID_111_"  style="overflow:visible;"/>
		</clipPath>
		
			<rect x="58.29981" y="2.96019" transform="matrix(0.99326 -0.11594 0.11594 0.99326 -1.17914 7.2276)" style="clip-path:url(#SVGID_24_);fill:#888983;" width="6.47715" height="21.57877"/>
		<polygon style="clip-path:url(#SVGID_24_);fill:#624219;" points="59.82632,49.57533 68.49669,48.56279 74.7716,191.48709 
			67.30334,191.71509 66.06698,187.40724 		"/>
	</g>
	<g>
		<defs>
			<rect id="SVGID_113_" x="2.5" y="2.50021" width="195" height="194.99957"/>
		</defs>
		<clipPath id="SVGID_26_">
			<use xlink:href="#SVGID_113_"  style="overflow:visible;"/>
		</clipPath>
		<path style="clip-path:url(#SVGID_26_);fill:#E3E2E2;" d="M63.92162,94.80531l0.34032,5.38426c0,0,0.4355-1.71149,3.38631-2.03722
			c0.55157-0.09771,2.13577-0.15658,2.13577-0.15658s-1.11571-1.39417-3.5588-2.53573
			C64.85444,94.80531,63.91705,94.80531,63.92162,94.80531"/>
		<path style="clip-path:url(#SVGID_26_);fill:#2C2C2D;" d="M122.58408,192.08296l0.13946-0.08226l-0.13946-0.11986v-2.4213
			c0-0.30446,0.24889-0.55409,0.55704-0.55409c0,0,0.76158,0.64801,2.11234,0.64801c1.34992,0,1.97459-0.64801,2.33743-0.64801
			c0.06808,0-0.01128-0.31445,0.32613,0c2.07604,1.94028,6.70911,2.33324,6.70911,2.33324c0.25891,0,0.42839,0.4117,0.19041,0.69102
			c-0.03673,0.03967-0.12399,0.104-0.12399,0.15324l0.13777,0.14615c0,0.30771-0.24844,0.55699-0.55409,0.55699h-11.13512
			c-0.30816,0-0.55704-0.24928-0.55704-0.55699V192.08296z"/>
		<path style="clip-path:url(#SVGID_26_);fill:#2C2C2D;" d="M118.04788,192.22911c0,0.30771-0.24969,0.55699-0.55576,0.55699
			h-11.1356c-0.30523,0-0.55363-0.24928-0.55363-0.55699l0.13903-0.14615c0-0.04924-0.09022-0.11357-0.12485-0.15324
			c-0.2397-0.27933-0.06765-0.69102,0.18954-0.69102c0,0,4.63646-0.39296,6.71124-2.33324c0.33486-0.31445,0.25765,0,0.3257,0
			c0.36452,0,0.98581,0.64801,2.33536,0.64801c1.352,0,2.1132-0.64801,2.1132-0.64801c0.30606,0,0.55576,0.24963,0.55576,0.55409
			v2.4213l-0.13866,0.12109l0.13866,0.08102V192.22911z"/>
	</g>
</g>
</svg>
