<svg xmlns="http://www.w3.org/2000/svg" viewBox="0 0 89.93 122.07"><defs><style>.cls-1{fill:#c2c0c0;}.cls-14,.cls-18,.cls-19,.cls-2{fill:none;stroke-miterlimit:10;}.cls-14,.cls-2{stroke:#515050;}.cls-2{stroke-width:1.75px;}.cls-3{fill:#515050;}.cls-4{fill:#f16d6d;}.cls-5{fill:#e1e2e2;}.cls-16,.cls-6{fill:#87c6c1;}.cls-15,.cls-7{fill:#8ed3d3;}.cls-8{fill:#454751;}.cls-9{fill:#d7d6d5;}.cls-10{fill:#fff;}.cls-11{fill:#2b2b35;}.cls-12{fill:#434851;}.cls-13{fill:#2c2c2d;}.cls-14,.cls-18,.cls-19{stroke-width:0.87px;}.cls-15,.cls-16{fill-rule:evenodd;}.cls-17{fill:#5a483b;}.cls-18,.cls-19{stroke:#f2c24e;}.cls-19{stroke-linecap:round;}.cls-20{fill:#ccc;}.cls-21{fill:#dedddd;}</style></defs><title>Asset 10</title><g id="Layer_2" data-name="Layer 2"><g id="Layer_1-2" data-name="Layer 1"><path class="cls-1" d="M59.24,19.61"/><ellipse class="cls-2" cx="27.56" cy="18.71" rx="19.86" ry="17.84"/><path class="cls-3" d="M7.94,30.95h0a.81.81,0,0,1-.81-.81V19.68a.81.81,0,0,1,1.62,0V30.14A.87.87,0,0,1,7.94,30.95Z"/><rect class="cls-4" x="10.62" y="20.09" width="1.22" height="13.94"/><ellipse class="cls-4" cx="10.62" cy="27.06" rx="2.59" ry="6.97"/><rect class="cls-3" x="11.76" y="19.44" width="3.4" height="15.24" rx="0.73" ry="0.73"/><path class="cls-3" d="M47.43,30.95h0a.81.81,0,0,0,.81-.81V19.68a.81.81,0,0,0-1.62,0V30.14A.87.87,0,0,0,47.43,30.95Z"/><rect class="cls-4" x="43.53" y="20.09" width="1.22" height="13.94"/><ellipse class="cls-4" cx="44.75" cy="27.06" rx="2.59" ry="6.97"/><rect class="cls-3" x="40.29" y="19.44" width="3.4" height="15.24" rx="0.73" ry="0.73"/><path class="cls-5" d="M84.47,73.35a16.7,16.7,0,0,0,.81-7.05s-3.49,7.05-5.92,7.38c0,0,6.08-6.16,5.51-10.94,0,0-3.08,5.51-5.35,6.24,0,0,5.51-4.78,4.13-11.19,0,0-2.43,6.73-4.95,7,0,0,4.22-4.95,3.81-9.57,0,0-16.94,23.19-40.45,2.43l.49,19.62L53.75,91.43s16.54,6.08,27.08-10.38h0a30.77,30.77,0,0,0,3.65-7.38c-.08-.16,0-.24,0-.32Z"/><path class="cls-6" d="M63.64,78.13a25.77,25.77,0,0,1,3.24-12.48c-6.73,1.62-15.32.57-24.89-8l-.32,19.7,12,14.19a24.19,24.19,0,0,0,13.86.16A25.86,25.86,0,0,1,63.64,78.13Z"/><path class="cls-7" d="M16.46,44.65a13.11,13.11,0,0,0-.65,1.95c-1.22,4.22-3.24,11.35-7.62,15.65,0,0,4.05,15.89,19.86,15.89S47.91,62.24,47.91,62.24c-4.3-4.05-6.4-11.35-7.54-15.57a15.91,15.91,0,0,1-.57-2.11"/><path class="cls-3" d="M39.16,110.8h0A22.44,22.44,0,0,0,51.24,91.1c0-12.4-10.38-22.38-23.19-22.38S4.86,78.78,4.86,91.1A22.36,22.36,0,0,0,17,110.8h-.08a13.93,13.93,0,0,1,6.81,9.49,2.24,2.24,0,0,1,1.86,0V113.4c.81.08,1.62.16,2.43.16s1.62-.08,2.51-.16v6.89a2,2,0,0,1,1.86,0A13.58,13.58,0,0,1,39.16,110.8Z"/><path class="cls-3" d="M28,52.68C12.65,52.68.16,66.7.16,84c0,10.7,6.65,19.29,13.86,24.89,14.59-5.67,23.35-1.54,27.89.16C49.29,103.34,55.86,94.75,55.86,84,55.94,66.7,43.45,52.68,28,52.68Z"/><circle class="cls-8" cx="28.29" cy="50.81" r="1.38"/><circle class="cls-9" cx="28.29" cy="50.81" r="0.32"/><circle class="cls-8" cx="28.29" cy="58.51" r="1.38"/><circle class="cls-9" cx="28.29" cy="58.51" r="0.32"/><path class="cls-5" d="M40.62,26.41c.16-3.57-.08-7.38-1.46-10.05-.73-2-3.08-3.32-5.43-4.13h1.95a6.68,6.68,0,0,0-6.4-1c-.49-.08-.89-.08-1.22-.16A24.09,24.09,0,0,1,30.56,10c-3.89-1-7.3,1.22-8.76,2.35-2.35.81-4.54,2-5.27,4.05-1.38,2.68-1.62,6.49-1.46,10.05a24.5,24.5,0,0,0,.73,8.35c1.78,4.13,1.22,7.38.41,10.54a3,3,0,0,1,.41,1.3L28.13,68.08v.08l11.59-21.4c-.08-.41.41-1.05.24-1.54-.89-3.08-2-6.65-.08-10.62A26.6,26.6,0,0,0,40.62,26.41Z"/><path class="cls-10" d="M22.21,24.14c0,1.13-1.13,2-2.59,2.11s-2.76-.81-2.76-1.95,1.13-2,2.59-2.11S22.13,23,22.21,24.14Z"/><path class="cls-11" d="M20.75,24a1.23,1.23,0,1,1-1.38-1.05A1.26,1.26,0,0,1,20.75,24Z"/><path class="cls-10" d="M38.67,24.14c0,1.13-1.13,2-2.59,2.11s-2.76-.81-2.76-1.95,1.13-2,2.59-2.11S38.67,23,38.67,24.14Z"/><path class="cls-11" d="M37.21,24a1.23,1.23,0,1,1-1.38-1.05A1.26,1.26,0,0,1,37.21,24Z"/><path class="cls-12" d="M27.81,26.9a6.73,6.73,0,0,1-4.13,2.84C25.86,31.11,28,35.25,28,35.25s2.11-4.13,4.3-5.51A7,7,0,0,1,27.81,26.9Z"/><path class="cls-13" d="M29.59,121.59l.08-.08-.08-.08V119.8a.38.38,0,0,1,.41-.41,2.38,2.38,0,0,0,1.46.41,5.48,5.48,0,0,0,1.62-.41c.08,0,0-.24.24,0,1.38,1.3,4.54,1.62,4.54,1.62a.3.3,0,0,1,.16.49l-.08.08v.08a.38.38,0,0,1-.41.41H29.91a.38.38,0,0,1-.41-.41v-.08Z"/><path class="cls-13" d="M26.51,121.67a.38.38,0,0,1-.41.41H18.48a.38.38,0,0,1-.41-.41l.08-.08-.08-.08a.28.28,0,0,1,.16-.49s3.16-.24,4.54-1.62c.24-.24.16,0,.24,0a4.77,4.77,0,0,0,1.62.41,2.69,2.69,0,0,0,1.46-.41.38.38,0,0,1,.41.41v1.62l-.08.08.08.08v.08Z"/><rect class="cls-3" x="14.43" y="41.65" width="7.86" height="2.51" rx="0.89" ry="0.89"/><rect class="cls-4" x="19.7" y="41.65" width="0.89" height="2.59"/><path class="cls-14" d="M15,42.95c-4.13,0-7.46-4.46-7.46-9.89a10.27,10.27,0,0,1,.32-2.76"/><path class="cls-15" d="M26.83,53.81,28,57.95l.08,13s-4.86-6.24-6.57-10.38c-1.38-3.49-5.27-13.62-5.27-13.62a66.88,66.88,0,0,0,5.27,4.7A54.36,54.36,0,0,0,26.83,53.81Z"/><path class="cls-15" d="M29.35,53.73,28,57.62,28,70.75s4.86-6.24,6.57-10.38c1.46-3.49,5.27-13.62,5.27-13.62a66.88,66.88,0,0,1-5.27,4.7A37.49,37.49,0,0,1,29.35,53.73Z"/><path class="cls-7" d="M25.46,98.8a25.67,25.67,0,0,0,5.67.08,55.4,55.4,0,0,0,23.35-6A26.75,26.75,0,0,0,56,84C56,68.32,45.8,55.43,32.35,53.08c-1.46-.24-4.3,4.05-4.3,4.05s-2.84-4.3-4.13-4.13C10.38,55.27,0,68.24,0,84.05a27.3,27.3,0,0,0,1.46,8.59A63.85,63.85,0,0,0,25.46,98.8Z"/><path class="cls-3" d="M27.4,58.11l-2.84-2.84a.87.87,0,0,1,.57-1.46h5.67a.84.84,0,0,1,.57,1.46l-2.84,2.84A.78.78,0,0,1,27.4,58.11Z"/><path class="cls-3" d="M28,93.94l-4.38-4.38,3.89-31.94a.49.49,0,0,1,1,0l3.89,31.94Z"/><path class="cls-16" d="M16.21,45.38a15.86,15.86,0,0,0,4.46,4.7,42.08,42.08,0,0,0,6.16,3.81,5.05,5.05,0,0,0-2.27,3.16,13.06,13.06,0,0,0-.08,3s-6-6.24-8.27-13.21A4.29,4.29,0,0,1,16.21,45.38Z"/><path class="cls-16" d="M40,45.3A15.86,15.86,0,0,1,35.51,50a42.08,42.08,0,0,1-6.16,3.81A5.05,5.05,0,0,1,31.62,57a13.06,13.06,0,0,1,.08,3S37.62,53.73,40,46.84A9.39,9.39,0,0,0,40,45.3Z"/><path class="cls-17" d="M54.48,90.62a57.6,57.6,0,0,1-23.35,6,25.54,25.54,0,0,1-5.67-.08,63,63,0,0,1-24-6.24c-.81-.57-1-.32,0,2.35a61.8,61.8,0,0,0,24,6.24,25.67,25.67,0,0,0,5.67.08,55.4,55.4,0,0,0,23.35-6C55.53,90,55.53,90,54.48,90.62Z"/><path class="cls-6" d="M17.11,73.59A22.72,22.72,0,0,1,2.19,72.21S-4.3,87.37,5.11,99.45a18.91,18.91,0,0,0,12.57.16C17.67,99.53,9.57,88.43,17.11,73.59Z"/><path class="cls-5" d="M35.43,74.24s-3.49,7.05-5.92,7.38c0,0,6.08-6.16,5.51-10.94,0,0-3.08,5.51-5.35,6.24,0,0,5.51-4.78,4.13-11.19,0,0-2.43,6.73-4.95,7,0,0,4.22-4.95,3.81-9.57,0,0-5.92,8-15.57,10.38a25.66,25.66,0,0,0,.57,25.94c4.46-1.3,9.32-4.38,13.21-10.54h0a30.77,30.77,0,0,0,3.65-7.38c.08-.16.08-.24.16-.41l-.08.08A16.32,16.32,0,0,0,35.43,74.24Z"/><path class="cls-18" d="M25.62,97.18v1.05a.73.73,0,0,0,.73.73l3.32-.08a.73.73,0,0,0,.73-.73V97.1a.73.73,0,0,0-.73-.73l-3.32.08A.86.86,0,0,0,25.62,97.18Z"/><line class="cls-19" x1="30.4" y1="97.67" x2="28.54" y2="97.67"/><path class="cls-3" d="M52.64,40.82H84a1.4,1.4,0,0,1,1.4,1.4V64.45a0,0,0,0,1,0,0H51.24a0,0,0,0,1,0,0V42.22A1.4,1.4,0,0,1,52.64,40.82Z"/><rect class="cls-10" x="58.19" y="37.27" width="20.22" height="30.74" transform="translate(120.94 -15.67) rotate(90)"/><path class="cls-20" d="M46.67,64.45H89.93a0,0,0,0,1,0,0v.88a1.73,1.73,0,0,1-1.73,1.73H48.4a1.73,1.73,0,0,1-1.73-1.73v-.88A0,0,0,0,1,46.67,64.45Z"/><rect class="cls-10" x="46.67" y="64.45" width="43.26" height="0.99"/><rect class="cls-4" x="54.6" y="44.03" width="6.61" height="1.83"/><rect class="cls-21" x="58.21" y="47.66" width="24.58" height="14.33"/><circle class="cls-7" cx="55.47" cy="54.39" r="0.43"/><circle class="cls-7" cx="81.46" cy="44.95" r="1.33"/><circle class="cls-7" cx="55.47" cy="55.86" r="0.43"/><circle class="cls-7" cx="55.47" cy="57.34" r="0.43"/><circle class="cls-7" cx="55.47" cy="58.81" r="0.43"/><circle class="cls-4" cx="55.47" cy="60.29" r="0.43"/><rect class="cls-7" x="54.6" y="47.66" width="2.86" height="4.29"/></g></g></svg>