<?xml version="1.0" encoding="utf-8"?>
<!-- Generator: Adobe Illustrator 19.2.1, SVG Export Plug-In . SVG Version: 6.00 Build 0)  -->
<svg version="1.1" id="Layer_1" xmlns="http://www.w3.org/2000/svg" xmlns:xlink="http://www.w3.org/1999/xlink" x="0px" y="0px"
	 width="200px" height="200px" viewBox="0 0 200 200" style="enable-background:new 0 0 200 200;" xml:space="preserve">
<style type="text/css">
	.st0{fill:#E2E3E4;}
	.st1{fill:#595D62;}
	.st2{fill:#C7702A;}
	.st3{fill:#C9C7C7;}
	.st4{fill:#EA8824;}
	.st5{fill:none;stroke:#C9C7C7;stroke-width:0.75651;stroke-miterlimit:10;}
	.st6{fill-rule:evenodd;clip-rule:evenodd;fill:#444851;}
	.st7{fill-rule:evenodd;clip-rule:evenodd;fill:#D8D7D6;}
	.st8{fill:#FFFFFF;}
	.st9{fill:#2B2B35;}
	.st10{fill:#434850;}
	.st11{fill:#6C4396;}
	.st12{fill:#A4A4A4;}
	.st13{fill:#EA4C65;}
	.st14{fill:#94814F;}
	.st15{fill:#9C2023;}
	.st16{fill:#B7242C;}
	.st17{fill-rule:evenodd;clip-rule:evenodd;fill:#FFFFFF;}
	.st18{fill:#0C4F6E;}
	.st19{fill:#C18E46;}
	.st20{fill:#3180BF;}
	.st21{fill:#D94F4F;}
	.st22{fill:#2C2C2D;}
	.st23{fill:#595E63;}
	.st24{fill:#E3E2E2;}
	.st25{fill:#9D9EA0;}
	.st26{fill:none;stroke:#C8C6C6;stroke-width:0.75651;stroke-miterlimit:10;}
	.st27{fill:#2A2E35;}
	.st28{fill-rule:evenodd;clip-rule:evenodd;fill:#454751;}
	.st29{fill-rule:evenodd;clip-rule:evenodd;fill:#D8D7D5;}
	.st30{fill:#434851;}
	.st31{fill:#EC9424;}
	.st32{fill:#445AA4;}
	.st33{clip-path:url(#SVGID_2_);fill:#58C1C4;}
	.st34{fill:#B7DBDB;}
	.st35{fill:#58C1C4;}
	.st36{fill:none;stroke:#434851;stroke-width:1.51302;stroke-linecap:round;stroke-linejoin:round;stroke-miterlimit:10;}
	.st37{clip-path:url(#SVGID_4_);fill:#58C1C4;}
	.st38{fill:#010101;}
	.st39{fill:#161718;}
	.st40{fill-rule:evenodd;clip-rule:evenodd;fill:#010101;}
	.st41{fill:#272626;}
	.st42{fill:#17191A;}
	.st43{fill:#D4D5D4;}
	.st44{fill-rule:evenodd;clip-rule:evenodd;fill:#272626;}
	.st45{fill-rule:evenodd;clip-rule:evenodd;fill:#E2E3E4;}
	.st46{fill:#19244E;}
	.st47{fill:#E3E1E1;}
	.st48{fill:#8E1B27;}
	.st49{fill:#CA2033;}
	.st50{fill:#EFE0A7;}
	.st51{fill:none;stroke:#EFE0A7;stroke-width:0.09335;stroke-miterlimit:10;}
	.st52{fill:#EECA81;}
	.st53{fill:#F3F3F3;}
	.st54{fill:#A0A1A4;}
	.st55{fill:#EB6B6D;}
	.st56{fill:none;stroke:#CAC8C6;stroke-width:0.02289;stroke-miterlimit:10;}
	.st57{fill:#464951;}
	.st58{fill:#D7D6D6;}
	.st59{fill:#EECC82;}
	.st60{fill:#F0E0A9;}
	.st61{fill:none;stroke:#F0E0A9;stroke-width:0.01145;stroke-miterlimit:10;}
	.st62{fill:#5AC1C2;}
	.st63{clip-path:url(#SVGID_6_);fill:#E2E3E4;}
	.st64{fill:#EE7823;}
	.st65{fill:#D6563D;}
	.st66{fill:#70533D;}
	.st67{fill:#81BCA9;}
	.st68{clip-path:url(#SVGID_8_);fill:#E2E3E4;}
	.st69{fill:none;stroke:#EFE0A7;stroke-width:0.37825;stroke-miterlimit:10;}
	.st70{clip-path:url(#SVGID_10_);}
	.st71{clip-path:url(#SVGID_12_);fill:#E3E2E2;}
	.st72{clip-path:url(#SVGID_12_);}
	.st73{fill-rule:evenodd;clip-rule:evenodd;fill:#1AAEA1;}
	.st74{fill-rule:evenodd;clip-rule:evenodd;fill:#0C8C70;}
	.st75{fill:#1AAEA1;}
	.st76{fill:#6F513B;}
	.st77{fill:#515050;}
	.st78{fill:#D4563A;}
	.st79{fill:none;}
	.st80{clip-path:url(#SVGID_14_);}
	.st81{clip-path:url(#SVGID_16_);fill:#E3E2E2;}
	.st82{clip-path:url(#SVGID_16_);}
	.st83{fill:#EEE3A3;}
	.st84{fill:none;stroke:#F0E0A9;stroke-width:0.37825;stroke-miterlimit:10;}
	.st85{clip-path:url(#SVGID_18_);}
	.st86{fill-rule:evenodd;clip-rule:evenodd;fill:#434850;}
	.st87{clip-path:url(#SVGID_20_);}
	.st88{fill:none;stroke:#E4CC21;stroke-width:1.92135;stroke-miterlimit:10;}
	.st89{fill:none;stroke:#FFFFFF;stroke-width:2.2037;stroke-miterlimit:10;}
	.st90{fill:#E4CC21;}
	.st91{fill:#232244;}
	.st92{fill:#C8C6C6;}
	.st93{fill:#542F19;}
	.st94{fill-rule:evenodd;clip-rule:evenodd;fill:#3D2E21;}
	.st95{fill:#3D2E21;}
	.st96{fill-rule:evenodd;clip-rule:evenodd;fill:#232244;}
	.st97{fill-rule:evenodd;clip-rule:evenodd;fill:#2E3280;}
	.st98{fill:#281911;}
	.st99{fill-rule:evenodd;clip-rule:evenodd;fill:#E4CC21;}
	.st100{fill-rule:evenodd;clip-rule:evenodd;fill:#D85127;}
	.st101{clip-path:url(#SVGID_22_);}
	.st102{fill-rule:evenodd;clip-rule:evenodd;fill:#EE7434;}
	.st103{fill:#17733B;}
	.st104{clip-path:url(#SVGID_24_);}
	.st105{fill:#1D73B6;}
	.st106{fill:#115E8E;}
	.st107{clip-path:url(#SVGID_26_);}
	.st108{fill:none;stroke:#FFFFFF;stroke-width:1.49993;stroke-miterlimit:10;}
	.st109{fill:none;stroke:#CAC8C6;stroke-width:0.024;stroke-miterlimit:10;}
	.st110{clip-path:url(#SVGID_28_);fill:#E2E3E4;}
	.st111{fill:#603A17;}
	.st112{fill:#78471F;}
	.st113{fill:#F8FAFD;}
	.st114{clip-path:url(#SVGID_30_);}
	.st115{clip-path:url(#SVGID_32_);}
	.st116{fill:none;stroke:#FFFFFF;stroke-width:0.49998;stroke-miterlimit:10;}
	.st117{fill:none;stroke:#FFFFFF;stroke-width:0.74997;stroke-miterlimit:10;}
	.st118{clip-path:url(#SVGID_34_);}
	.st119{clip-path:url(#SVGID_36_);}
	.st120{clip-path:url(#SVGID_38_);fill:#E2E3E4;}
	.st121{clip-path:url(#SVGID_40_);}
	.st122{clip-path:url(#SVGID_42_);}
	.st123{clip-path:url(#SVGID_44_);}
	.st124{opacity:0.7;fill:#434850;}
	.st125{fill:#5B3287;}
	.st126{fill:#643E1E;}
	.st127{fill:#C8D6DE;}
	.st128{fill:none;stroke:#CAC7C6;stroke-width:0.75651;stroke-miterlimit:10;}
	.st129{fill:#B6C3CE;}
	.st130{fill:#273980;}
	.st131{fill:#2B2C35;}
	.st132{clip-path:url(#SVGID_46_);fill:#FFFFFF;stroke:#5A3B84;stroke-width:4.53905;stroke-miterlimit:10;}
	.st133{fill:#C8C7C9;}
	.st134{fill:#056F43;}
	.st135{clip-path:url(#SVGID_48_);}
	.st136{fill:#EBEDF1;}
	.st137{fill:#CF2B29;}
	.st138{fill-rule:evenodd;clip-rule:evenodd;fill:#273980;}
	.st139{fill:#D6232A;}
	.st140{clip-path:url(#SVGID_52_);fill:#FFFFFF;stroke:#5A3B84;stroke-width:4.53905;stroke-miterlimit:10;}
	.st141{clip-path:url(#SVGID_54_);}
	.st142{fill:#532D17;}
	.st143{fill:none;stroke:#5E1116;stroke-width:0.95369;stroke-miterlimit:10;}
	.st144{fill-rule:evenodd;clip-rule:evenodd;fill:#5E1116;}
	.st145{fill:none;stroke:#5E1116;stroke-width:0.94639;stroke-miterlimit:10;}
	.st146{fill:#291B13;}
	.st147{fill-rule:evenodd;clip-rule:evenodd;fill:#291B13;}
	.st148{fill-rule:evenodd;clip-rule:evenodd;fill:#454850;}
	.st149{fill-rule:evenodd;clip-rule:evenodd;fill:#74441F;}
	.st150{fill:#7F161B;}
	.st151{fill-rule:evenodd;clip-rule:evenodd;fill:#7F161B;}
	.st152{fill:none;stroke:#5E1116;stroke-width:1.04342;stroke-miterlimit:10;}
	.st153{fill:#E4E0E4;}
	.st154{clip-path:url(#SVGID_58_);fill:#E1244D;}
	.st155{clip-path:url(#SVGID_60_);fill:#E1244D;}
	.st156{fill:#292933;}
	.st157{fill:none;stroke:#CAC8C6;stroke-width:0.02378;stroke-miterlimit:10;}
	.st158{fill:none;stroke:#F0E0A9;stroke-width:0.01189;stroke-miterlimit:10;}
	.st159{clip-path:url(#SVGID_62_);fill:#E2E3E4;}
	.st160{fill:#2F465D;}
	.st161{fill:#432F21;}
	.st162{fill-rule:evenodd;clip-rule:evenodd;fill:#3D5F7C;}
	.st163{fill-rule:evenodd;clip-rule:evenodd;fill:#2F465D;}
	.st164{clip-path:url(#SVGID_64_);fill:#2C2C2D;}
	.st165{clip-path:url(#SVGID_66_);fill:#F8B917;}
	.st166{clip-path:url(#SVGID_66_);fill:#1F4394;}
	.st167{clip-path:url(#SVGID_68_);fill:#E8212F;}
	.st168{clip-path:url(#SVGID_68_);fill:#C9C8C8;}
	.st169{clip-path:url(#SVGID_68_);fill:#2A2E35;}
	.st170{clip-path:url(#SVGID_68_);fill:#444750;}
	.st171{clip-path:url(#SVGID_68_);fill:#D7D7D6;}
	.st172{clip-path:url(#SVGID_68_);fill:#E3E2E2;}
	.st173{clip-path:url(#SVGID_68_);fill:#FFFFFF;}
	.st174{clip-path:url(#SVGID_68_);fill:#2B2D34;}
	.st175{clip-path:url(#SVGID_68_);fill:#B9252D;}
	.st176{clip-path:url(#SVGID_68_);fill:#24345B;}
	.st177{clip-path:url(#SVGID_68_);fill:#F7F6F8;}
	.st178{clip-path:url(#SVGID_70_);fill:#1F4394;}
	.st179{clip-path:url(#SVGID_70_);fill:#F8B917;}
	.st180{clip-path:url(#SVGID_70_);fill:#883D1E;}
	.st181{clip-path:url(#SVGID_70_);fill:#F5D07C;}
	.st182{clip-path:url(#SVGID_72_);fill:#E8212F;}
	.st183{clip-path:url(#SVGID_72_);fill:#E3E2E2;}
	.st184{clip-path:url(#SVGID_72_);fill:#F7F6F8;}
	.st185{clip-path:url(#SVGID_72_);fill:#F8B917;}
	.st186{clip-path:url(#SVGID_72_);fill:#888983;}
	.st187{clip-path:url(#SVGID_74_);fill:#888983;}
	.st188{clip-path:url(#SVGID_74_);fill:#624219;}
	.st189{clip-path:url(#SVGID_76_);fill:#E3E2E2;}
	.st190{clip-path:url(#SVGID_76_);fill:#2C2C2D;}
	.st191{clip-path:url(#SVGID_76_);fill:#888983;}
	.st192{clip-path:url(#SVGID_78_);fill:#F8B917;}
	.st193{clip-path:url(#SVGID_78_);fill:#1F4394;}
	.st194{clip-path:url(#SVGID_80_);fill:#E8212F;}
	.st195{clip-path:url(#SVGID_80_);fill:#C9C8C8;}
	.st196{clip-path:url(#SVGID_80_);fill:#2A2E35;}
	.st197{clip-path:url(#SVGID_80_);fill:#444750;}
	.st198{clip-path:url(#SVGID_80_);fill:#D7D7D6;}
	.st199{clip-path:url(#SVGID_80_);fill:#E3E2E2;}
	.st200{clip-path:url(#SVGID_80_);fill:#FFFFFF;}
	.st201{clip-path:url(#SVGID_80_);fill:#2B2D34;}
	.st202{clip-path:url(#SVGID_80_);fill:#B9252D;}
	.st203{clip-path:url(#SVGID_80_);fill:#24345B;}
	.st204{clip-path:url(#SVGID_80_);fill:#F7F6F8;}
	.st205{clip-path:url(#SVGID_82_);fill:#1F4394;}
	.st206{clip-path:url(#SVGID_82_);fill:#F8B917;}
	.st207{clip-path:url(#SVGID_82_);fill:#883D1E;}
	.st208{clip-path:url(#SVGID_82_);fill:#F5D07C;}
	.st209{clip-path:url(#SVGID_84_);fill:#E8212F;}
	.st210{clip-path:url(#SVGID_84_);fill:#E3E2E2;}
	.st211{clip-path:url(#SVGID_84_);fill:#F7F6F8;}
	.st212{clip-path:url(#SVGID_84_);fill:#F8B917;}
	.st213{clip-path:url(#SVGID_84_);fill:#888983;}
	.st214{clip-path:url(#SVGID_86_);fill:#888983;}
	.st215{clip-path:url(#SVGID_86_);fill:#624219;}
	.st216{clip-path:url(#SVGID_88_);fill:#E3E2E2;}
	.st217{clip-path:url(#SVGID_88_);fill:#2C2C2D;}
	.st218{clip-path:url(#SVGID_90_);fill:#2C2C2D;}
	.st219{clip-path:url(#SVGID_92_);fill:#F8B917;}
	.st220{clip-path:url(#SVGID_92_);fill:#1F4394;}
	.st221{clip-path:url(#SVGID_94_);fill:#E8212F;}
	.st222{clip-path:url(#SVGID_94_);fill:#C9C8C8;}
	.st223{clip-path:url(#SVGID_94_);fill:#2A2E35;}
	.st224{clip-path:url(#SVGID_94_);fill:#444750;}
	.st225{clip-path:url(#SVGID_94_);fill:#D7D7D6;}
	.st226{clip-path:url(#SVGID_94_);fill:#E3E2E2;}
	.st227{clip-path:url(#SVGID_94_);fill:#FFFFFF;}
	.st228{clip-path:url(#SVGID_94_);fill:#2B2D34;}
	.st229{clip-path:url(#SVGID_94_);fill:#B9252D;}
	.st230{clip-path:url(#SVGID_94_);fill:#24345B;}
	.st231{clip-path:url(#SVGID_94_);fill:#F7F6F8;}
	.st232{clip-path:url(#SVGID_96_);fill:#1F4394;}
	.st233{clip-path:url(#SVGID_96_);fill:#F8B917;}
	.st234{clip-path:url(#SVGID_96_);fill:#883D1E;}
	.st235{clip-path:url(#SVGID_96_);fill:#F5D07C;}
	.st236{clip-path:url(#SVGID_98_);fill:#E8212F;}
	.st237{clip-path:url(#SVGID_98_);fill:#E3E2E2;}
	.st238{clip-path:url(#SVGID_98_);fill:#F7F6F8;}
	.st239{clip-path:url(#SVGID_98_);fill:#F8B917;}
	.st240{clip-path:url(#SVGID_98_);fill:#888983;}
	.st241{clip-path:url(#SVGID_100_);fill:#888983;}
	.st242{clip-path:url(#SVGID_100_);fill:#624219;}
	.st243{clip-path:url(#SVGID_102_);fill:#E3E2E2;}
	.st244{clip-path:url(#SVGID_102_);fill:#2C2C2D;}
	.st245{clip-path:url(#SVGID_102_);fill:#888983;}
	.st246{clip-path:url(#SVGID_104_);fill:#F8B917;}
	.st247{clip-path:url(#SVGID_104_);fill:#1F4394;}
	.st248{clip-path:url(#SVGID_106_);fill:#E8212F;}
	.st249{clip-path:url(#SVGID_106_);fill:#C9C8C8;}
	.st250{clip-path:url(#SVGID_106_);fill:#2A2E35;}
	.st251{clip-path:url(#SVGID_106_);fill:#444750;}
	.st252{clip-path:url(#SVGID_106_);fill:#D7D7D6;}
	.st253{clip-path:url(#SVGID_106_);fill:#E3E2E2;}
	.st254{clip-path:url(#SVGID_106_);fill:#FFFFFF;}
	.st255{clip-path:url(#SVGID_106_);fill:#2B2D34;}
	.st256{clip-path:url(#SVGID_106_);fill:#B9252D;}
	.st257{clip-path:url(#SVGID_106_);fill:#24345B;}
	.st258{clip-path:url(#SVGID_106_);fill:#F7F6F8;}
	.st259{clip-path:url(#SVGID_108_);fill:#1F4394;}
	.st260{clip-path:url(#SVGID_108_);fill:#F8B917;}
	.st261{clip-path:url(#SVGID_108_);fill:#883D1E;}
	.st262{clip-path:url(#SVGID_108_);fill:#F5D07C;}
	.st263{clip-path:url(#SVGID_110_);fill:#E8212F;}
	.st264{clip-path:url(#SVGID_110_);fill:#E3E2E2;}
	.st265{clip-path:url(#SVGID_110_);fill:#F7F6F8;}
	.st266{clip-path:url(#SVGID_110_);fill:#F8B917;}
	.st267{clip-path:url(#SVGID_110_);fill:#888983;}
	.st268{clip-path:url(#SVGID_112_);fill:#888983;}
	.st269{clip-path:url(#SVGID_112_);fill:#624219;}
	.st270{clip-path:url(#SVGID_114_);fill:#E3E2E2;}
	.st271{clip-path:url(#SVGID_114_);fill:#2C2C2D;}
	.st272{fill:#EDE2A3;}
	.st273{clip-path:url(#SVGID_116_);}
	.st274{fill-rule:evenodd;clip-rule:evenodd;fill:#434851;}
	.st275{fill-rule:evenodd;clip-rule:evenodd;fill:#E3E2E2;}
	.st276{fill:#2A2B2A;}
	.st277{clip-path:url(#SVGID_118_);}
	.st278{clip-path:url(#SVGID_120_);}
	.st279{clip-path:url(#SVGID_122_);}
	.st280{fill:#1F3566;}
	.st281{fill:#E3E4E5;}
	.st282{fill:#4BB1E4;}
	.st283{fill:#2D2A6C;}
	.st284{fill-rule:evenodd;clip-rule:evenodd;fill:#D8D9D5;}
	.st285{fill:#434852;}
	.st286{fill:#E3E3E3;}
	.st287{fill:#162E54;}
	.st288{fill:none;stroke:#335DAB;stroke-width:1.68786;stroke-miterlimit:10;}
	.st289{fill:#81817F;}
	.st290{fill:#142B49;}
	.st291{fill:#5A5A5A;}
	.st292{fill:none;stroke:#FFFFFF;stroke-width:0.84393;stroke-linecap:round;stroke-linejoin:round;stroke-miterlimit:10;}
	.st293{fill:#AB9D9C;}
	.st294{fill:#EA6689;}
	.st295{fill:#CE1D5B;}
	.st296{fill:#BF742A;}
	.st297{fill:#273449;}
	.st298{fill:#A4464B;}
	.st299{fill:none;stroke:#CAC8C6;stroke-width:0.0662;stroke-miterlimit:10;}
	.st300{fill:#80333A;}
	.st301{fill:none;stroke:#B4B4B4;stroke-width:0.25748;stroke-miterlimit:10;}
	.st302{fill:none;stroke:#B4B4B4;stroke-width:3.08973;stroke-miterlimit:10;}
	.st303{fill:none;stroke:#B4B4B4;stroke-width:1.02991;stroke-miterlimit:10;}
	.st304{fill:none;stroke:#82858B;stroke-width:0.51495;stroke-miterlimit:10;}
	.st305{fill:none;stroke:#E2E3E4;stroke-width:1.02991;stroke-miterlimit:10;}
	.st306{fill:#E5E5E5;}
	.st307{fill:#2D2C2D;}
	.st308{fill:#4CB2E5;}
	.st309{fill:#AD2824;}
	.st310{fill-rule:evenodd;clip-rule:evenodd;fill:#D9D9D6;}
	.st311{fill:#E4E4E3;}
	.st312{fill:#DB4826;}
	.st313{fill:#B33725;}
	.st314{fill:#120C0D;}
	.st315{fill:#F3F0F0;}
	.st316{fill:#C4BFBF;}
	.st317{clip-path:url(#SVGID_124_);fill:none;stroke:#F3F0F0;stroke-width:1.10165;stroke-linecap:round;stroke-miterlimit:10;}
	.st318{clip-path:url(#SVGID_126_);fill:none;stroke:#F3F0F0;stroke-width:1.10165;stroke-linecap:round;stroke-miterlimit:10;}
	.st319{clip-path:url(#SVGID_128_);fill:none;stroke:#F3F0F0;stroke-width:1.10165;stroke-linecap:round;stroke-miterlimit:10;}
	.st320{fill:#DE5B2A;}
	.st321{fill:#7A2716;}
	.st322{fill:#E5E4E4;}
	.st323{fill:#BB4928;}
	.st324{fill:#454545;}
	.st325{fill:#6265AE;}
	.st326{fill:none;stroke:#CAC5C4;stroke-width:0.55083;stroke-linecap:round;stroke-miterlimit:10;}
	.st327{fill:#E1E3E3;}
	.st328{fill:#484848;}
	.st329{fill:#422F90;}
	.st330{fill:#D57A28;}
	.st331{fill:#B4B4B5;}
	.st332{fill:#4B4B4D;}
	.st333{fill:#949393;}
	.st334{fill:#040404;}
	.st335{clip-path:url(#SVGID_130_);fill:none;stroke:#F3F0F0;stroke-width:1.10165;stroke-linecap:round;stroke-miterlimit:10;}
	.st336{clip-path:url(#SVGID_132_);fill:none;stroke:#F3F0F0;stroke-width:1.10165;stroke-linecap:round;stroke-miterlimit:10;}
	.st337{clip-path:url(#SVGID_134_);fill:none;stroke:#F3F0F0;stroke-width:1.10165;stroke-linecap:round;stroke-miterlimit:10;}
	.st338{clip-path:url(#SVGID_140_);fill:#AD2824;}
	.st339{fill:#CDCCCC;}
	.st340{fill:#E4E5E6;}
	.st341{opacity:0.72;fill:none;stroke:#FFFFFF;stroke-width:1.1546;stroke-linecap:round;stroke-miterlimit:10;}
	.st342{fill:#BBD867;}
	.st343{fill:none;stroke:#BBD867;stroke-width:5.799;stroke-miterlimit:10;}
	.st344{clip-path:url(#SVGID_146_);fill:#AD2824;}
	.st345{fill:none;stroke:#AE4E85;stroke-width:1.54066;stroke-linecap:round;stroke-linejoin:round;stroke-miterlimit:10;}
	.st346{fill:none;stroke:#E97625;stroke-width:1.62274;stroke-linecap:round;stroke-linejoin:round;stroke-miterlimit:10;}
	.st347{fill:none;stroke:#C9C7C7;stroke-width:0.23348;stroke-miterlimit:10;}
	.st348{fill:#981E5C;}
	.st349{fill:none;stroke:#AE4E85;stroke-width:1.21706;stroke-linecap:round;stroke-linejoin:round;stroke-miterlimit:10;}
	.st350{fill:#AE4E85;}
	.st351{fill:#F7B456;}
	.st352{fill:#E97625;}
	.st353{fill:none;stroke:#E97625;stroke-width:1.54273;stroke-linecap:round;stroke-linejoin:round;stroke-miterlimit:10;}
</style>
<g>
	<path class="st0" d="M180.58234,98.10479c0.50705-7.98489-1.45442-12.56847-1.45442-12.56847s-3.25958,13.6397-7.41583,15.25574
		c0,0,8.07866-13.16282,5.23993-21.26033c0,0-3.12169,10.8118-6.83173,13.04591c0,0,7.67017-10.62585,2.67223-21.14664
		c0,0-1.5891,12.75706-5.79118,14.17862c0,0,5.31267-10.37798,2.81447-18.25241c0,0-20.3071,47.2153-69.63152,20.48382
		l8.73825,34.09395l25.22314,20.22521c0,0,31.36406,3.97682,43.01271-29.0168c0.01022-0.02316,0.01456-0.04147,0.02589-0.06515
		c2.09241-5.51907,3.03487-10.35056,3.349-14.35915c0.03076-0.2468,0.07115-0.48878,0.10236-0.7431
		C180.63564,97.97598,180.61629,98.02234,180.58234,98.10479z"/>
	<path class="st0" d="M45.73581,19.37131c0,0-5.81059,3.19707-8.48335,11.24608c0,0,5.06424-9.99864,14.90823-12.45368
		c0,0-7.56782,4.40467-8.08621,11.3652c0,0,4.45747-10.95947,15.03433-11.3652c0,0-7.85345,2.59675-9.63277,10.63612
		c0,0,6.11991-8.64614,13.50937-9.9475c0,0-29.59393,41.87248,25.87626,71.59737l2.94597,30.15268l-15.34364,25.50231
		c0,0-69.80556-16.44942-55.09299-94.72212C26.36848,24.8133,45.73581,19.37131,45.73581,19.37131z"/>
	<path class="st18" d="M57.39361,58.37968c3.77148,10.69218,12.80286,22.06973,31.46807,32.07002l2.94597,30.15268
		l-15.34364,25.50231c0,0-60.44283-14.24272-56.98437-79.28747c0,0,11.02406,6.6981,22.53312,3.03924
		C53.51863,66.20082,57.39361,58.37968,57.39361,58.37968z"/>
	<path class="st19" d="M118.07082,179.08261l-0.10239,0.007c11.81997-6.16727,19.83721-18.20013,19.83721-32.03545
		c0-20.11688-16.97747-36.42078-37.91449-36.42078c-20.94946,0-37.92205,16.30389-37.92205,36.42078
		c0,13.83531,8.02473,25.86818,19.84584,32.03545l-0.09646-0.00589c5.74323,3.30003,9.90591,8.87454,11.13508,15.43576
		c0.25433-0.13741,1.42476-0.68329,2.99285,0.03127v-11.27414c1.32455,0.13907,2.67386,0.21074,4.04473,0.21074
		c1.36494,0,2.70832-0.07167,4.04633-0.21074v11.27414c1.57617-0.73074,2.76492-0.15251,2.98911-0.028
		C108.16599,187.95827,112.32597,182.38376,118.07082,179.08261z"/>
	<path class="st18" d="M163.35484,133.46831c-13.35095,10.70615-29.20917,8.69188-29.20917,8.69188l-25.22314-20.22521
		l-8.73825-34.09395c21.58372,11.69501,37.60791,9.23885,48.80388,2.77354c0,0-1.31802,7.38947,2.10211,22.31656
		C154.50778,127.86304,163.35484,133.46831,163.35484,133.46831z"/>
	<path class="st3" d="M94.91686,137.96727c-13.80409,0-25.03133-11.23046-25.03133-25.03614
		c0-13.80576,11.22724-25.02918,25.03133-25.02918c13.80572,0,25.03352,11.22343,25.03352,25.02918
		C119.95038,126.73681,108.72258,137.96727,94.91686,137.96727z M94.91686,88.08623c-13.69848,0-24.84001,11.14961-24.84001,24.8449
		c0,13.70329,11.14153,24.84483,24.84001,24.84483c13.70174,0,24.84219-11.14153,24.84219-24.84483
		C119.75906,99.23584,108.6186,88.08623,94.91686,88.08623z"/>
	<path class="st20" d="M82.76387,71.90573c-0.30068,2.32304-1.70605,0.27804-2.45615,2.73634
		c-2.09077,6.82261-5.22751,18.48308-12.45312,25.4258c0,0,6.63177,25.84772,32.27798,25.84772
		c25.65099,0,32.27798-25.84772,32.27798-25.84772c-6.92445-6.65337-10.11291-18.59515-12.31467-25.30025
		c-0.92145-2.80048-2.40664-0.71397-2.73797-3.30212"/>
	<path class="st20" d="M100.18428,84.6666c-25.16444,0-45.57121,22.7864-45.57121,50.90115
		c0,17.35141,7.77149,32.64761,19.62814,41.84497c23.92664-9.18279,44.24291-2.55635,51.63509,0.20796
		c12.00158-9.16823,19.8819-24.57816,19.8819-42.05293C145.75819,107.453,125.36328,84.6666,100.18428,84.6666z"/>
	<g>
		<path class="st6" d="M102.71914,81.6231c0,1.20435-0.98022,2.18234-2.18137,2.18234c-1.21243,0-2.19424-0.978-2.19424-2.18234
			c0-1.20871,0.98181-2.18838,2.19424-2.18838C101.73891,79.43472,102.71914,80.41439,102.71914,81.6231z"/>
		<path class="st7" d="M101.04592,81.6231c0,0.28019-0.23331,0.5076-0.50816,0.5076c-0.28883,0-0.51731-0.22741-0.51731-0.5076
			c0-0.28563,0.22849-0.51462,0.51731-0.51462C100.81261,81.10848,101.04592,81.33747,101.04592,81.6231z"/>
	</g>
	<path class="st0" d="M120.57816,41.87642c0.29045-5.76853,0.71238-10.14463-1.55193-14.44532
		c-1.16502-3.34155-3.60554-5.18226-5.9178-6.30745c1.50772-0.56845,2.76439,0.25924,2.76439,0.25924
		c-2.96327-4.99261-11.86098-1.97979-12.28721-2.02559c2.17645-2.0682,7.38676-1.91727,7.38676-1.91727
		c-4.22523-1.39566-13.6586-2.01914-19.93207,2.23515c-9.07177,1.14134-11.76664,8.96408-11.876,15.39864
		c-0.26028,5.42635-0.14011,16.32812,1.04211,20.3723c3.22029,7.58936,1.6953,13.30134,0.10131,19.19596
		c0,0,1.61125,14.14355,19.89272,14.14355c19.17982,0,19.89545-14.01801,19.89545-14.01801
		c-1.36605-5.38433-4.37402-12.10018-0.74854-19.38723C120.59917,51.39872,120.80879,46.48801,120.57816,41.87642z"/>
	<path class="st9" d="M116.62502,38.07852c0.15468,1.10844-0.61377,2.13932-1.73514,2.29128
		c-1.10358,0.16487-2.13606-0.62999-2.29073-1.7314c-0.146-1.1101,0.62133-2.13283,1.74222-2.29559
		C115.45084,36.19627,116.47361,36.96734,116.62502,38.07852z"/>
	<g>
		<path class="st21" d="M77.94535,26.00093c0,0-8.96238-13.5282,7.5344-20.15838
			c15.91858-6.40491,37.95814,6.13821,38.61285,20.83577c0.27374,6.24865-3.05855,2.29178-7.51283,0
			c-7.67992-3.93968-15.52256-6.18135-26.75892-0.74636C80.53294,30.42825,77.94535,26.00093,77.94535,26.00093z"/>
		<path class="st21" d="M96.02103,4.12575c0,0.89829-0.80509,1.62897-1.79391,1.62897c-1.00068,0-1.79818-0.73068-1.79818-1.62897
			c0-0.89722,0.7975-1.62575,1.79818-1.62575C95.21594,2.5,96.02103,3.22853,96.02103,4.12575z"/>
	</g>
	<g>
		<path class="st10" d="M77.72713,38.36682c0-0.51409,0-1.47219,0-2.06116c0-0.58361,0.55396-0.548,0.55396-0.548h1.02651
			c0.87242,0.09375,0.73824-0.89722,1.48022-2.35324c0.12451-0.20318,0.24628-0.44509,0.3659-0.68651
			c1.27286-2.22823,3.30434-3.79631,5.74538-4.43005c0.77059-0.20041,1.58376-0.31628,2.39794-0.31302
			c3.15833,0.01831,6.06873,1.6554,7.79468,4.264v-0.04473v0.04473c0.0415,0.07975,0.07926,0.12233,0.16598,0.20047
			c0.11158,0.20694,0.40255,0.37291,0.769,0.21012c0.77323-0.56414,1.7098-1.00546,2.72285-0.99575
			c1.00713,0.00374,1.93995,0.45369,2.74934,1.02651c0.36368,0.16652,0.60832,0.00811,0.77704-0.19722
			c0.04092-0.0803,0.1174-0.1218,0.15945-0.20103v-0.04039v0.04039c1.75886-2.58815,4.64287-4.19185,7.84909-4.1724
			c0.81264,0.00541,1.58806,0.12607,2.39745,0.33625c2.42807,0.66443,4.44402,2.25675,5.64296,4.49412
			c0.16486,0.2468,0.28452,0.44941,0.36375,0.68974c0.84225,1.54819,0.48766,1.77016,2.45234,1.78958l0.21074,0.00215
			c0.19992,0.00108,0.39713,0.20048,0.39713,0.40629l-0.01026,2.22981c0,0.16653-0.08779,0.32713-0.20741,0.367
			c-0.09756-0.01082-1.13163,0.18161-1.22108,0.18161c-0.85516,0-1.09499,2.27402-1.95174,3.70303
			c-1.6824,3.03276-4.85468,5.00014-8.38584,4.98235c-0.77004-0.00541-1.5794-0.13737-2.38823-0.34215
			c-2.43459-0.66282-4.44839-2.25197-5.65322-4.49252c-0.72264-1.25881-1.1171-2.68627-1.19685-4.09914l0.00916-0.93769
			c0.00645-1.09602-0.8805-1.98782-2.01644-1.99753c-1.08798-0.007-1.98512,0.8805-1.99699,1.9766l-0.00596,0.93113
			c-0.09161,1.42101-0.50435,2.84087-1.24155,4.08886c-1.27064,2.22392-3.30753,3.79419-5.74593,4.42627
			c-0.77108,0.20263-1.57884,0.31413-2.39413,0.31199c-3.48647-0.01834-6.67868-2.02393-8.28453-5.0761
			c-0.85461-1.46033-0.94461-3.07959-1.63165-3.23534c-0.10672-0.02153-0.30608-0.01078-1.18229-0.01078
			C78.24388,38.83507,77.72713,38.85452,77.72713,38.36682z"/>
		<circle class="st21" cx="89.4109" cy="37.63285" r="7.07434"/>
		<path class="st21" d="M119.23203,37.75954c0,3.91265-3.16416,7.0812-7.07419,7.0812c-3.90889,0-7.07368-3.16854-7.07368-7.0812
			c0-3.90841,3.16479-7.06993,7.07368-7.06993C116.06787,30.68961,119.23203,33.85113,119.23203,37.75954z"/>
	</g>
	<path class="st18" d="M100.27859,89.82677L100.27859,89.82677c-9.08474,0-17.32825-3.3803-21.80515-8.6833
		c-0.35889-0.43164-0.86594-2.2018-0.61432-3.81299c0.55288-3.63303,2.45615-4.1552,2.71588-3.6616
		c3.14481,6.21796,11.33015,9.93934,19.70358,9.93934c8.13957,0,16.91766-3.85175,19.71384-9.07392
		c0.81207-1.51424,3.32425,4.77271,2.38823,6.21529C119.50688,85.17635,110.93571,89.82677,100.27859,89.82677z"/>
	<g>
		<path class="st8" d="M132.96938,100.32056c-0.36104-0.42245-0.72693-0.82874-1.10202-1.23885
			c-7.64272,1.68615-18.16891,3.24342-30.99334,3.24342c-14.05089,0-24.92191-1.51958-32.60182-3.17602
			c-0.38206,0.41385-0.74958,0.83089-1.11763,1.26144c7.26447,1.61557,18.61671,3.36742,33.71945,3.36742
			C114.25025,103.77798,125.17466,102.09454,132.96938,100.32056z"/>
		<path class="st8" d="M100.87402,111.22182c16.27747,0,28.91439-2.48576,36.70748-4.60026
			c-0.26729-0.436-0.54263-0.86379-0.82121-1.2809c-7.71817,2.05469-20.05229,4.43217-35.88627,4.43217
			c-17.34871,0-29.8493-2.31767-37.49201-4.34916c-0.27967,0.42245-0.55507,0.8589-0.82877,1.29539
			c0.91819,0.25005,1.90487,0.50597,2.97287,0.75821C72.6607,109.18277,84.59224,111.22182,100.87402,111.22182z"/>
		<path class="st8" d="M59.78559,111.82858c-0.21441,0.44727-0.41815,0.89666-0.61322,1.3466
			c1.70713,0.54374,3.82055,1.14239,6.35374,1.74596c7.13459,1.71306,19.06613,3.74565,35.34791,3.74565
			c18.90716,0,32.91817-3.35825,40.11036-5.58162c-0.19234-0.44881-0.39818-0.89125-0.60132-1.33364
			c-7.13405,2.1889-20.90634,5.46193-39.50904,5.46193C80.46294,117.21346,66.75961,114.01633,59.78559,111.82858z"/>
		<path class="st8" d="M57.18828,118.41026c-0.15252,0.46187-0.29419,0.92852-0.42945,1.39996
			c1.95607,0.7,4.87021,1.62846,8.76728,2.55962c7.13459,1.70986,19.06613,3.74023,35.34791,3.74023
			c21.34119,0,36.43693-4.27155,42.54279-6.37148c-0.13629-0.46828-0.27748-0.92902-0.42349-1.39189
			c-5.95445,2.05035-20.89232,6.31331-42.1193,6.31331C77.51853,124.66,62.94441,120.47197,57.18828,118.41026z"/>
		<path class="st8" d="M55.47849,125.20377c-0.09324,0.48815-0.17194,0.978-0.25113,1.46941
			c1.78635,0.71133,5.19519,1.92053,10.29875,3.14488c7.13459,1.70821,19.06613,3.73753,35.34791,3.73753
			c23.46109,0,39.36248-5.16826,44.09153-6.92655c-0.07492-0.48927-0.16112-0.97159-0.24738-1.45493
			c-4.24084,1.60634-20.11147,6.93571-43.84415,6.93571C74.66691,132.10983,59.51941,126.83001,55.47849,125.20377z"/>
	</g>
	<path class="st10" d="M101.06534,44.84073c-2.17215,3.65242-6.96268,4.65039-6.96268,4.65039
		c3.55218,2.22933,7.36842,9.00981,7.36842,9.00981s3.12543-6.78048,6.67976-9.00981
		C108.15083,49.49112,103.23859,48.49315,101.06534,44.84073z"/>
	<g>
		<path class="st22" d="M102.4689,196.69887l0.15781-0.09361l-0.15781-0.13527v-2.75708c0-0.34683,0.28437-0.63121,0.63293-0.63121
			c0,0,0.867,0.73872,2.40506,0.73872c1.53812,0,2.24731-0.73872,2.66001-0.73872c0.07804,0-0.01038-0.35721,0.37111,0
			c2.36348,2.20918,7.63667,2.65656,7.63667,2.65656c0.2948,0,0.48901,0.46819,0.21676,0.78723
			c-0.04163,0.0451-0.14045,0.1179-0.14045,0.17339l0.15604,0.16647c0,0.3503-0.28264,0.63466-0.62943,0.63466h-12.67577
			c-0.34856,0-0.63293-0.28436-0.63293-0.63466V196.69887z"/>
		<path class="st22" d="M97.30496,196.86534c0,0.3503-0.28437,0.63466-0.6312,0.63466h-12.6775
			c-0.34505,0-0.62947-0.28436-0.62947-0.63466l0.15781-0.16647c0-0.05548-0.10233-0.12828-0.14045-0.17166
			c-0.27399-0.32077-0.07805-0.78896,0.21503-0.78896c0,0,5.27664-0.44737,7.63839-2.65656c0.38323-0.35721,0.29307,0,0.37106,0
			c0.41444,0,1.12195,0.73872,2.65828,0.73872c1.53984,0,2.40685-0.73872,2.40685-0.73872c0.34683,0,0.6312,0.28438,0.6312,0.63293
			v2.75536l-0.15781,0.13699l0.15781,0.09189V196.86534z"/>
	</g>
</g>
</svg>
