<?xml version="1.0" encoding="utf-8"?>
<!-- Generator: Adobe Illustrator 19.2.1, SVG Export Plug-In . SVG Version: 6.00 Build 0)  -->
<svg version="1.1" id="Layer_1" xmlns="http://www.w3.org/2000/svg" xmlns:xlink="http://www.w3.org/1999/xlink" x="0px" y="0px"
	 width="180px" height="180px" viewBox="0 0 180 180" style="enable-background:new 0 0 180 180;" xml:space="preserve">
<style type="text/css">
	.st0{fill:#729786;}
	.st1{fill:#F2CD8C;}
	.st2{fill:#6F523C;}
	.st3{fill:#FFFFFF;}
	.st4{fill:#F2E9E4;}
	.st5{fill:#E8BA88;}
	.st6{fill:#504F4F;}
	.st7{fill:#80B9A5;}
	.st8{fill:#FFC800;}
	.st9{fill:#4D4D4D;}
	.st10{fill:#FCB856;}
	.st11{fill:#E9676D;}
	.st12{fill:#F6ECC3;}
	.st13{fill:#A6A8AB;}
	.st14{fill:none;stroke:#E9676D;stroke-linecap:round;stroke-miterlimit:10;}
	.st15{fill:none;stroke:#FCB856;stroke-linecap:round;stroke-miterlimit:10;}
	.st16{fill:#E6E6E6;}
	.st17{fill:#424750;}
	.st18{fill:#2B2A34;}
	.st19{fill:#BFF7F5;}
	.st20{fill:#D3D3D3;}
	.st21{fill:#2B2C2D;}
	.st22{opacity:0.33;fill:#FFFFFF;}
	.st23{fill:#E1E2E3;}
	.st24{fill:#F9D88F;}
	.st25{fill:none;}
	.st26{fill:#444751;}
	.st27{fill:#D6D6D5;}
	.st28{fill-rule:evenodd;clip-rule:evenodd;fill:#F2BC86;}
	.st29{fill:#59473A;}
	.st30{fill:none;stroke:#F2C24E;stroke-miterlimit:10;}
	.st31{fill:none;stroke:#F2C24E;stroke-linecap:round;stroke-miterlimit:10;}
	.st32{fill-rule:evenodd;clip-rule:evenodd;fill:#504F4F;}
	.st33{fill:none;stroke:#4D4D4D;stroke-miterlimit:10;}
	.st34{fill:#F2BC86;}
	.st35{fill:#C1C0C0;}
	.st36{fill:#42474F;}
	.st37{fill:#E6E7E8;}
	.st38{fill:#3A3A3A;}
	.st39{fill:#2A2D35;}
	.st40{fill-rule:evenodd;clip-rule:evenodd;fill:#43474F;}
	.st41{fill-rule:evenodd;clip-rule:evenodd;fill:#DBDBDA;}
	.st42{fill:#F3E7A8;}
	.st43{fill:#57C4C7;}
	.st44{clip-path:url(#SVGID_2_);}
	.st45{clip-path:url(#SVGID_4_);fill:#E6E7E8;}
	.st46{clip-path:url(#SVGID_6_);}
	.st47{clip-path:url(#SVGID_8_);fill:#E6E7E8;}
	.st48{clip-path:url(#SVGID_10_);}
	.st49{clip-path:url(#SVGID_12_);fill:#E6E7E8;}
	.st50{clip-path:url(#SVGID_14_);}
	.st51{clip-path:url(#SVGID_16_);fill:#E6E7E8;}
	.st52{clip-path:url(#SVGID_18_);}
	.st53{clip-path:url(#SVGID_20_);fill:#E6E7E8;}
	.st54{clip-path:url(#SVGID_22_);}
	.st55{clip-path:url(#SVGID_24_);fill:#E6E7E8;}
	.st56{clip-path:url(#SVGID_26_);}
	.st57{clip-path:url(#SVGID_28_);fill:#E6E7E8;}
	.st58{clip-path:url(#SVGID_30_);}
	.st59{clip-path:url(#SVGID_32_);fill:#E6E7E8;}
	.st60{clip-path:url(#SVGID_34_);}
	.st61{clip-path:url(#SVGID_36_);fill:#E6E7E8;}
	.st62{clip-path:url(#SVGID_38_);}
	.st63{clip-path:url(#SVGID_40_);fill:#E6E7E8;}
	.st64{clip-path:url(#SVGID_42_);}
	.st65{clip-path:url(#SVGID_44_);fill:#E6E7E8;}
	.st66{clip-path:url(#SVGID_46_);}
	.st67{clip-path:url(#SVGID_48_);fill:#E6E7E8;}
	.st68{clip-path:url(#SVGID_50_);}
	.st69{clip-path:url(#SVGID_52_);fill:#E6E7E8;}
	.st70{clip-path:url(#SVGID_54_);}
	.st71{clip-path:url(#SVGID_56_);fill:#E6E7E8;}
	.st72{clip-path:url(#SVGID_58_);}
	.st73{clip-path:url(#SVGID_60_);fill:#E6E7E8;}
	.st74{clip-path:url(#SVGID_62_);}
	.st75{clip-path:url(#SVGID_64_);fill:#E6E7E8;}
	.st76{clip-path:url(#SVGID_66_);}
	.st77{clip-path:url(#SVGID_68_);fill:#E6E7E8;}
	.st78{clip-path:url(#SVGID_70_);}
	.st79{clip-path:url(#SVGID_72_);fill:#E6E7E8;}
	.st80{clip-path:url(#SVGID_74_);}
	.st81{clip-path:url(#SVGID_76_);fill:#E6E7E8;}
	.st82{clip-path:url(#SVGID_78_);}
	.st83{clip-path:url(#SVGID_80_);fill:#E6E7E8;}
	.st84{clip-path:url(#SVGID_82_);}
	.st85{clip-path:url(#SVGID_84_);fill:#E6E7E8;}
	.st86{clip-path:url(#SVGID_86_);}
	.st87{clip-path:url(#SVGID_88_);fill:#E6E7E8;}
	.st88{clip-path:url(#SVGID_90_);}
	.st89{clip-path:url(#SVGID_92_);fill:#E6E7E8;}
	.st90{clip-path:url(#SVGID_94_);}
	.st91{clip-path:url(#SVGID_96_);fill:#E6E7E8;}
	.st92{clip-path:url(#SVGID_98_);}
	.st93{clip-path:url(#SVGID_100_);fill:#E6E7E8;}
	.st94{clip-path:url(#SVGID_102_);}
	.st95{clip-path:url(#SVGID_104_);fill:#E6E7E8;}
	.st96{clip-path:url(#SVGID_106_);}
	.st97{clip-path:url(#SVGID_108_);fill:#E6E7E8;}
	.st98{clip-path:url(#SVGID_110_);}
	.st99{clip-path:url(#SVGID_112_);fill:#E6E7E8;}
	.st100{clip-path:url(#SVGID_114_);}
	.st101{clip-path:url(#SVGID_116_);fill:#E6E7E8;}
	.st102{clip-path:url(#SVGID_118_);}
	.st103{clip-path:url(#SVGID_120_);fill:#E6E7E8;}
	.st104{clip-path:url(#SVGID_122_);}
	.st105{clip-path:url(#SVGID_124_);fill:#E6E7E8;}
	.st106{clip-path:url(#SVGID_126_);}
	.st107{clip-path:url(#SVGID_128_);fill:#E6E7E8;}
	.st108{clip-path:url(#SVGID_130_);}
	.st109{clip-path:url(#SVGID_132_);fill:#E6E7E8;}
	.st110{clip-path:url(#SVGID_134_);}
	.st111{clip-path:url(#SVGID_136_);fill:#E6E7E8;}
	.st112{clip-path:url(#SVGID_138_);}
	.st113{clip-path:url(#SVGID_140_);fill:#E6E7E8;}
	.st114{clip-path:url(#SVGID_142_);}
	.st115{clip-path:url(#SVGID_144_);fill:#E6E7E8;}
	.st116{clip-path:url(#SVGID_146_);}
	.st117{clip-path:url(#SVGID_148_);fill:#E6E7E8;}
	.st118{clip-path:url(#SVGID_150_);}
	.st119{clip-path:url(#SVGID_152_);fill:#E6E7E8;}
	.st120{clip-path:url(#SVGID_154_);}
	.st121{clip-path:url(#SVGID_156_);fill:#E6E7E8;}
	.st122{clip-path:url(#SVGID_158_);}
	.st123{clip-path:url(#SVGID_160_);fill:#E6E7E8;}
	.st124{clip-path:url(#SVGID_162_);}
	.st125{clip-path:url(#SVGID_164_);fill:#E6E7E8;}
	.st126{clip-path:url(#SVGID_166_);}
	.st127{clip-path:url(#SVGID_168_);fill:#E6E7E8;}
	.st128{clip-path:url(#SVGID_170_);}
	.st129{clip-path:url(#SVGID_172_);fill:#E6E7E8;}
	.st130{clip-path:url(#SVGID_174_);}
	.st131{clip-path:url(#SVGID_176_);fill:#E6E7E8;}
	.st132{clip-path:url(#SVGID_178_);}
	.st133{clip-path:url(#SVGID_180_);fill:#E6E7E8;}
	.st134{clip-path:url(#SVGID_182_);}
	.st135{clip-path:url(#SVGID_184_);fill:#E6E7E8;}
	.st136{clip-path:url(#SVGID_186_);}
	.st137{clip-path:url(#SVGID_188_);fill:#E6E7E8;}
	.st138{clip-path:url(#SVGID_190_);}
	.st139{clip-path:url(#SVGID_192_);fill:#E6E7E8;}
	.st140{clip-path:url(#SVGID_194_);}
	.st141{clip-path:url(#SVGID_196_);fill:#E6E7E8;}
	.st142{clip-path:url(#SVGID_198_);}
	.st143{clip-path:url(#SVGID_200_);fill:#E6E7E8;}
	.st144{clip-path:url(#SVGID_202_);}
	.st145{clip-path:url(#SVGID_204_);fill:#E6E7E8;}
	.st146{clip-path:url(#SVGID_206_);}
	.st147{clip-path:url(#SVGID_208_);fill:#E6E7E8;}
	.st148{clip-path:url(#SVGID_210_);}
	.st149{clip-path:url(#SVGID_212_);fill:#E6E7E8;}
	.st150{clip-path:url(#SVGID_214_);}
	.st151{clip-path:url(#SVGID_216_);fill:#E6E7E8;}
	.st152{clip-path:url(#SVGID_218_);}
	.st153{clip-path:url(#SVGID_220_);fill:#E6E7E8;}
	.st154{clip-path:url(#SVGID_222_);}
	.st155{clip-path:url(#SVGID_224_);fill:#E6E7E8;}
	.st156{clip-path:url(#SVGID_226_);}
	.st157{clip-path:url(#SVGID_228_);fill:#E6E7E8;}
	.st158{clip-path:url(#SVGID_230_);}
	.st159{clip-path:url(#SVGID_232_);fill:#E6E7E8;}
	.st160{clip-path:url(#SVGID_234_);}
	.st161{clip-path:url(#SVGID_236_);fill:#E6E7E8;}
	.st162{clip-path:url(#SVGID_238_);}
	.st163{clip-path:url(#SVGID_240_);fill:#E6E7E8;}
	.st164{clip-path:url(#SVGID_242_);}
	.st165{clip-path:url(#SVGID_244_);fill:#E6E7E8;}
	.st166{clip-path:url(#SVGID_246_);}
	.st167{clip-path:url(#SVGID_248_);fill:#E6E7E8;}
	.st168{clip-path:url(#SVGID_250_);}
	.st169{clip-path:url(#SVGID_252_);fill:#E6E7E8;}
	.st170{clip-path:url(#SVGID_254_);}
	.st171{clip-path:url(#SVGID_256_);fill:#E6E7E8;}
	.st172{clip-path:url(#SVGID_258_);}
	.st173{clip-path:url(#SVGID_260_);fill:#E6E7E8;}
	.st174{fill-rule:evenodd;clip-rule:evenodd;fill:#42474F;}
	.st175{fill-rule:evenodd;clip-rule:evenodd;fill:#E6E7E8;}
	.st176{fill:#E5D9BE;}
	.st177{fill:#F7F1E2;}
	.st178{fill:#B5967D;}
	.st179{fill:#C7C6C6;}
	.st180{fill:#999999;}
	.st181{fill:#CCCCCC;}
	.st182{fill:#808080;}
	.st183{fill:#284D66;}
	.st184{fill:#725644;}
	.st185{fill:#8E6A51;}
	.st186{fill:#365D84;}
	.st187{fill:none;stroke:#C7C6C6;stroke-width:0.75651;stroke-miterlimit:10;}
	.st188{fill-rule:evenodd;clip-rule:evenodd;fill:#444751;}
	.st189{fill-rule:evenodd;clip-rule:evenodd;fill:#D6D6D5;}
	.st190{fill-rule:evenodd;clip-rule:evenodd;fill:#F2F2F2;}
	.st191{fill:#EA6A6D;}
	.st192{fill-rule:evenodd;clip-rule:evenodd;fill:#FFFFFF;}
	.st193{fill:none;stroke:#284D66;stroke-miterlimit:10;}
	.st194{fill:none;stroke:#365D84;stroke-miterlimit:10;}
	.st195{fill:#F2F2F2;}
	.st196{fill:#C7B299;}
	.st197{fill:none;stroke:#ABD4ED;stroke-miterlimit:10;}
	.st198{fill:none;stroke:#E6E6E6;stroke-linecap:round;stroke-linejoin:round;stroke-miterlimit:10;}
	.st199{fill:#BABABA;}
	.st200{fill:none;stroke:#CBCACA;stroke-width:3.45131;stroke-miterlimit:10;}
	.st201{opacity:0.2;fill:#FFFFFF;}
	.st202{fill:#F2C24E;}
	.st203{fill:#44C2CE;}
	.st204{fill:#9AC68F;}
	.st205{fill:#469595;}
	.st206{font-family:'Georgia';}
	.st207{font-size:1.6548px;}
	.st208{font-size:1.65485px;}
	.st209{font-size:1.65494px;}
	.st210{fill:#387D7B;}
	.st211{clip-path:url(#XMLID_2_);fill:#B4D6AA;}
	.st212{fill:#96D696;}
	.st213{clip-path:url(#XMLID_3_);fill:#A7DBA7;}
	.st214{clip-path:url(#XMLID_4_);fill:#B4D6AA;}
	.st215{fill:#755F54;}
	.st216{fill:#508CD3;}
	.st217{fill:#4668A3;}
	.st218{fill:#23B576;}
	.st219{fill:none;stroke:#755F54;stroke-width:2;stroke-miterlimit:10;}
	.st220{fill:#A2E0FC;}
	.st221{fill:#FFD62C;}
	.st222{fill:#A37666;}
	.st223{fill:#E28686;}
	.st224{fill:#D86464;}
	.st225{fill:#5ED38D;}
	.st226{fill:none;stroke:#A37666;stroke-width:2;stroke-miterlimit:10;}
	.st227{fill:#3D447A;}
	.st228{fill:#57C4C6;}
</style>
<g>
	<path class="st23" d="M42.32134,102.26062c3.14881-4.91959,4.03218-2.04137,7.22046-0.82855c0,0-2.10952-5.13946,0.74042-3.45146
		c0,0-0.87204-6.40414,2.34594-5.33904c0,0-0.20919-9.27926,4.14688-4.28545c7.75863,8.89453,22.86934,18.88068,46.90876,5.63052
		l-6.49179,26.09126l-19.16116,15.59281c0,0-23.93893,3.20178-33.0143-21.94498c-0.00669-0.01436-0.01236-0.03178-0.01876-0.04607
		c-1.63429-4.20387-2.37648-7.88822-2.63828-10.95508c-0.0257-0.18745-0.05622-0.3684-0.08366-0.56284
		C42.27585,102.16174,42.29348,102.198,42.32134,102.26062"/>
	
		<rect x="51.62897" y="41.11889" transform="matrix(0.98415 -0.17736 0.17736 0.98415 -11.0939 10.32812)" class="st16" width="1.18979" height="52.19886"/>
	
		<rect x="31.86049" y="66.509" transform="matrix(0.03123 -0.99951 0.99951 0.03123 -11.19934 122.65338)" class="st16" width="51.62585" height="1.19016"/>
	
		<rect x="32.60109" y="60.72288" transform="matrix(0.25782 -0.96619 0.96619 0.25782 -10.78314 108.59739)" class="st16" width="65.39086" height="1.18953"/>
	<path id="XMLID_291_" class="st11" d="M46.03723,38.65673c-0.25592-0.20285-0.63546-0.05258-0.68317,0.27047
		c0,0-0.02602,2.01445-0.26159,3.60966c-0.23558,1.59521-0.83212,3.79633-0.83212,3.79633
		c-0.04897,0.33158,0.28735,0.5866,0.59304,0.44914c0.91742-0.41254,2.06806-1.11265,3.36236-1.62508
		c1.25546-0.49706,2.61235-0.78971,3.56353-1.11698c0.31694-0.10905,0.38754-0.52517,0.12487-0.73337
		c0,0-2.05642-1.18831-3.14822-2.05369S46.03723,38.65673,46.03723,38.65673z"/>
	<path id="XMLID_290_" class="st11" d="M30.98531,34.08104c2.89254,7.30597,11.53,10.7373,16.34199,8.83216
		c4.81199-1.90514,8.75972-10.31913,5.86718-17.6251s-9.94931-10.60408-16.0822-8.17598S28.09277,26.77507,30.98531,34.08104z"/>
	<path class="st201" d="M35.17316,35.37802c-0.45771,0-0.89374-0.26487-1.08968-0.71096
		c-3.31163-7.52861,0.45461-11.94773,0.61647-12.13206c0.43216-0.49334,1.18417-0.54368,1.67828-0.1092
		c0.49179,0.43138,0.54213,1.17797,0.11539,1.67208c-0.13321,0.15722-2.89961,3.54862-0.23234,9.61193
		c0.26487,0.60099-0.00852,1.30266-0.61028,1.56752C35.49534,35.34549,35.3327,35.37802,35.17316,35.37802z"/>
	<path id="XMLID_288_" class="st202" d="M58.84098,49.15526c-0.181-0.27181-0.58837-0.24576-0.73326,0.0469
		c0,0-0.64524,1.90849-1.36072,3.35358c-0.71548,1.44509-1.961,3.35544-1.961,3.35544
		c-0.14872,0.30037,0.0927,0.64659,0.42586,0.60997c0.99989-0.1099,2.31023-0.42155,3.69944-0.5104
		c1.34752-0.08618,2.72858,0.05334,3.73432,0.03497c0.33511-0.00612,0.53046-0.38027,0.34468-0.65925
		c0,0-1.59041-1.76395-2.36258-2.92355C59.85556,51.30331,58.84098,49.15526,58.84098,49.15526z"/>
	<path id="XMLID_287_" class="st202" d="M45.93029,40.16575c0.50152,7.84171,7.66211,13.76672,12.82696,13.4364
		s11.51231-7.11924,11.0108-14.96096c-0.50153-7.84171-6.19931-13.15309-12.78192-12.7321
		C50.40351,26.33009,45.42877,32.32404,45.93029,40.16575z"/>
	<path class="st201" d="M49.87955,42.74709c-0.60254,0-1.11988-0.45616-1.18184-1.06954
		c-0.83178-8.18226,4.11243-11.2267,4.32309-11.35294c0.56226-0.3338,1.29336-0.15102,1.63103,0.41357
		c0.33457,0.56226,0.15257,1.28794-0.4066,1.62638c-0.17503,0.1092-3.84988,2.48372-3.18074,9.0729
		c0.0666,0.65365-0.40969,1.23683-1.06335,1.30343C49.96087,42.74477,49.91982,42.74709,49.87955,42.74709z"/>
	<path id="XMLID_285_" class="st203" d="M75.17736,25.77729c-0.12878-0.3001-0.53413-0.34825-0.72964-0.08667
		c0,0-0.98019,1.76009-1.94553,3.05171s-2.53623,2.94483-2.53623,2.94483c-0.20065,0.26847-0.02593,0.65269,0.30836,0.67701
		c1.00326,0.07299,2.34837,0.00379,3.73071,0.16799c1.34084,0.15927,2.67381,0.54659,3.66624,0.71066
		c0.33069,0.05467,0.59055-0.27792,0.45838-0.58593c0,0-1.24467-2.0228-1.79408-3.30306
		C75.78616,28.07357,75.17736,25.77729,75.17736,25.77729z"/>
	<path id="XMLID_284_" class="st203" d="M64.10809,14.59836c-0.92686,7.80288,5.04234,14.92666,10.18161,15.53713
		c5.13927,0.61047,12.61123-4.91671,13.53809-12.71959S84.11295,3.35763,77.56293,2.57959
		C71.01292,1.80155,65.03496,6.79548,64.10809,14.59836z"/>
	<path class="st201" d="M67.74268,17.87193c-0.03252,0-0.06506-0.00155-0.09758-0.00387
		c-0.6552-0.05344-1.14312-0.62732-1.08968-1.28175c0.6645-8.19775,6.07803-10.29656,6.30805-10.38176
		c0.61493-0.22537,1.30111,0.08597,1.5288,0.70167c0.22769,0.61338-0.08287,1.29491-0.69392,1.5257
		c-0.19672,0.07745-4.23634,1.74875-4.7715,8.34645C68.8765,17.40028,68.35606,17.87193,67.74268,17.87193z"/>
	
		<rect x="74.26331" y="27.44363" transform="matrix(0.12495 -0.99216 0.99216 0.12495 35.46742 100.41338)" class="st16" width="0.79308" height="5.31189"/>
	
		<rect x="56.15126" y="53.28845" transform="matrix(0.99542 -0.09564 0.09564 0.99542 -4.86483 5.86948)" class="st16" width="5.29492" height="0.7936"/>
	
		<rect x="44.42096" y="43.18505" transform="matrix(0.93761 -0.3477 0.3477 0.93761 -12.31806 18.51818)" class="st16" width="2.03635" height="0.79297"/>
	<path id="XMLID_322_" class="st16" d="M138.8212,143.60799c-4.96622-0.71457-10.00739-1.01558-15.0558-1.03006
		c-0.01039-0.00934-0.0173-0.01585-0.02869-0.02602c-0.65241-0.58197-1.26797-1.18803-1.83623-1.85356
		c-0.11226-0.13152-0.22181-0.26515-0.33137-0.39886c-0.24057-0.32838-0.47639-0.65979-0.70565-0.9962
		c-2.13443-3.13164-3.90434-6.44499-6.25262-9.43475c-2.08595-2.65575-6.76633-1.05966-7.46427,1.97067
		c-0.76526,3.32219-1.49722,6.65445-2.39619,9.94386c-0.17844,0.65298-0.36559,1.30354-0.55864,1.95232
		c-1.92262,0.21745-3.84203,0.46129-5.75938,0.72408c-2.68334,0.36777-4.30335,0.65262-6.89852,0.87015
		c-3.66199,0.30695-5.64259-0.23518-9.29439,0.08563c-2.58299-5.62106-5.72522-11.28677-5.72522-18.04093
		c0-12.6685,5.12927-23.99749,13.19345-31.54135c3.94099-5.48014,6.00166-13.02399,7.49625-17.57341v-0.00002
		c0.07745-0.30581,0.16193-0.61744,0.25018-0.93356c0.01086-0.03897,0.02211-0.07871,0.0331-0.11784
		c0.07561-0.26875,0.15371-0.54108,0.23353-0.81691c0.20431-0.70663,0.4173-1.43473,0.61674-2.18474v0.00002
		c0.92904-3.49302,1.54855-7.4345-0.52759-11.61194c-1.01398-3.21666-1.18158-7.18408-0.99609-10.91032
		c-0.23221-4.65727,0.09337-9.69583,1.91953-13.16714c0.94253-2.70267,4.02297-4.37769,7.14751-5.3986
		c-1.39464-0.03433-2.5803-0.02462-2.5803-0.02462c3.33187-2.24176,6.25308-2.08852,8.42121-1.29711
		c0.67255-0.09413,1.21257-0.15111,1.55743-0.18544c-1.55335-0.89104-3.28515-1.50392-3.28515-1.50392
		c5.16487-1.26278,9.57883,1.5512,11.50376,3.0806c3.0463,1.03047,6.01205,2.68959,6.93332,5.3291
		c1.82741,3.47132,2.15312,8.50987,1.92157,13.16714c0.21425,4.37951,0.03093,7.69916-0.92331,10.96181
		c-1.87603,4.42821-1.75648,8.06105-1.06161,11.53012c0.0656,0.3278,0.13666,0.65408,0.21135,0.97947
		c0.00421,0.01821,0.00848,0.03641,0.0127,0.05462c0.07152,0.30971,0.14653,0.61862,0.22404,0.92718
		c0.00612,0.02439,0.01224,0.04879,0.01843,0.07318c0.07751,0.30682,0.15726,0.61333,0.23846,0.91996
		c0.00572,0.02167,0.01138,0.04333,0.01717,0.06499c0.08357,0.31477,0.16838,0.62971,0.2536,0.94532
		c0.00111,0.00428,0.0023,0.00855,0.00342,0.01283v0.00002c1.41478,4.6274,3.43208,12.00581,7.48836,17.57091
		c8.13057,7.54348,13.30859,18.92087,13.30859,31.64966c0,6.3157-2.53529,12.19279-4.81331,17.53803
		C142.74692,144.41507,141.42664,143.98286,138.8212,143.60799z"/>
	<path id="XMLID_321_" class="st204" d="M73.80663,115.09259c0-5.96999-1.00439-12.29633-3.72353-17.16999
		c6.06891,0.89142,16.83358,1.42258,29.50602-9.77365l0.47275,25.85336L84.2676,132.59886c0,0-2.73663,5.82074-15.58562,2.52144
		C71.85727,129.96637,73.80663,121.59174,73.80663,115.09259z"/>
	<path id="XMLID_320_" class="st17" d="M98.58755,162.5242l0.08667,0.00816c-9.54809-4.98482-17.91867-14.70187-17.91867-25.87799
		c0-16.24914,15.60615-29.42725,32.52234-29.42725c16.91746,0,32.51742,13.17812,32.51742,29.42725
		c0,11.17612-8.3679,20.89317-17.91586,25.87799l0.07626-0.00409c-4.64137,2.66287-8.00364,7.16818-8.99978,12.46773
		c-0.20332-0.11128-1.15148-0.55505-2.41411,0.02336v-9.10419c-1.0724,0.10721-2.16071,0.16911-3.26393,0.16911
		c-1.10406,0-2.19363-0.0619-3.26884-0.16911v9.10419c-1.27924-0.58672-2.23542-0.12367-2.41959-0.01913
		C106.59527,169.69646,103.23173,165.19115,98.58755,162.5242z"/>
	<text id="XMLID_318_" transform="matrix(0.93317 0.35943 0.35943 -0.93317 90.75053 135.89203)" class="st205 st206 st207">VI</text>
	<text id="XMLID_317_" transform="matrix(0.28435 -0.95872 -0.95872 -0.28435 88.13322 133.13628)" class="st205 st206 st208">III</text>
	<text id="XMLID_316_" transform="matrix(-0.31828 0.948 0.948 0.31828 96.48971 135.12001)" class="st205 st206 st209">IX</text>
	
		<ellipse id="XMLID_315_" transform="matrix(0.28412 -0.95879 0.95879 0.28412 -62.33616 184.13815)" class="st205" cx="92.14113" cy="133.81285" rx="0.17955" ry="0.16195"/>
	<polygon id="XMLID_314_" class="st205" points="92.99126,131.92226 92.84015,131.86456 92.0611,133.77708 92.21362,133.83759 	"/>
	<polygon id="XMLID_313_" class="st39" points="90.79833,133.19867 90.74065,133.34711 92.09684,133.90765 92.15594,133.74965 	"/>
	<polyline id="XMLID_312_" class="st205" points="92.63544,131.80406 93.05177,131.54715 93.12183,132.12964 92.61616,131.87695 	
		"/>
	<polyline id="XMLID_311_" class="st205" points="90.70773,133.47078 90.42056,133.075 90.99207,132.95682 90.77906,133.48584 	"/>
	<path id="XMLID_310_" class="st210" d="M101.54729,133.41296c0,0-12.74673,0.91931-20.67889-5.23357v2.26848
		c0,0,6.27515,6.21057,20.67889,5.10722V133.41296z"/>
	<path id="XMLID_309_" class="st16" d="M96.81376,51.68424c-0.23215-4.65726,0.09343-9.69582,1.91956-13.16714
		c0.94254-2.70268,4.02299-4.37769,7.14748-5.39861c-1.3946-0.03433-2.58027-0.02462-2.58027-0.02462
		c3.33189-2.24175,6.25307-2.08853,8.42123-1.2971c0.67254-0.09413,1.21254-0.15111,1.55739-0.18544
		c-1.55331-0.89104-3.28517-1.50393-3.28517-1.50393c5.16491-1.26277,9.5789,1.5512,11.5038,3.0806
		c3.04626,1.03048,6.01205,2.68959,6.93334,5.3291c1.82739,3.47132,2.15312,8.50987,1.92152,13.16714
		c0.21428,4.37953,0.03096,7.69917-0.92326,10.96183c-2.59969,6.13629-1.36787,10.74543-0.08244,15.50766l-16.06905,28.31911v0.103
		l-16.07397-28.3163c1.10336-4.3549,3.53266-9.77602,0.60599-15.66496C96.79589,59.37792,96.62832,55.4105,96.81376,51.68424z"/>
	<path id="XMLID_308_" class="st3" d="M120.97298,48.7245c-0.04812,1.46749,1.50182,2.69719,3.45837,2.76796
		c1.94966,0.06318,3.57993-1.06269,3.62608-2.53229c0.0522-1.45989-1.49633-2.69916-3.45021-2.76445
		C122.65137,46.13255,121.02518,47.26265,120.97298,48.7245z"/>
	<path id="XMLID_307_" class="st18" d="M122.90421,48.54455c-0.12241,0.89794,0.49807,1.72581,1.39868,1.85215
		c0.89864,0.12846,1.732-0.51116,1.85216-1.40009c0.12438-0.89864-0.50018-1.72229-1.39798-1.85286
		C123.85632,47.02486,123.02844,47.64943,122.90421,48.54455z"/>
	<path id="XMLID_306_" class="st3" d="M99.30342,48.7245c-0.04671,1.46749,1.50041,2.69719,3.45837,2.76796
		c1.95388,0.06318,3.57937-1.06269,3.62608-2.53229c0.04812-1.45989-1.49352-2.69916-3.45021-2.76445
		C100.98392,46.13255,99.35562,47.26265,99.30342,48.7245z"/>
	<path id="XMLID_305_" class="st18" d="M101.23676,48.54455c-0.12241,0.89794,0.49863,1.72581,1.39868,1.85215
		c0.89724,0.12846,1.72849-0.51116,1.85075-1.40009c0.11819-0.89864-0.49878-1.72229-1.40009-1.85286
		C102.18746,47.02486,101.35622,47.64943,101.23676,48.54455z"/>
	<path id="XMLID_301_" class="st18" d="M90.10863,45.4558c-0.08652,1.97372,0.42449,2.00397,0.42449,2.00397
		c0.07147,0.15322,0.27211,0.4349,0.27211,0.4349c0.5317,0.2185,1.23111,2.41003,1.23111,2.41003
		c0.91919,2.6917,2.33447,3.02347,2.33447,3.02347c3.81828,1.38715,10.12917,0.64918,10.12917,0.64918
		s3.54561-0.09961,4.65108-1.54979c0.83321-1.02851,1.99637-4.21828,1.99637-4.21828s0.30841-0.56533,0.80241-0.89104
		c0.57841-0.27619,1.37955-0.27957,1.37955-0.27957s0.80241,0.00338,1.38081,0.27957
		c0.4947,0.32572,0.72066,0.81211,0.72066,0.81211s1.24349,3.26871,2.07825,4.29722
		c1.10744,1.45018,4.65375,1.54979,4.65375,1.54979s6.30668,0.73796,10.12847-0.64918c0,0,1.41388-0.33177,2.33517-3.02347
		c0,0,0.69942-2.19152,1.2283-2.41003c0,0,0.20274-0.28168,0.27211-0.4349c0,0,0.50905-0.03025,0.42532-2.00397l0.00957-0.66635
		c0,0,0.02477-0.53662-1.01753-0.68562c-1.03667-0.15181-1.83907-0.8698-11.57456-0.63624
		c-6.90437,0.58601-8.90298,1.35268-8.90298,1.35268s-0.32009,0.09554-0.77554,0.14703
		c-0.29688,0.06191-0.60937,0.09216-0.93086,0.09216c-0.29884,0-0.58882-0.02885-0.86642-0.08048
		c-0.52073-0.04601-0.90399-0.15871-0.90399-0.15871s-1.99243-0.76667-8.90087-1.35268
		c-9.73353-0.23356-10.53453,0.48442-11.57612,0.63624c-1.03864,0.149-1.01402,0.68562-1.01402,0.68562L90.10863,45.4558z
		 M117.60325,45.2833c0,0,4.21265-1.41726,13.00434-0.89653c0,0,3.66309-0.01097,3.66309,1.5232
		c0,0-0.21851,3.27631-1.09998,5.13465c0,0-0.50005,1.72229-3.02896,1.90773c0,0-5.72207,1.14388-11.10548-0.55365
		c0,0-1.39658-0.36216-2.34672-3.82602C116.68954,48.57269,115.75446,45.93881,117.60325,45.2833z M92.34827,45.90997
		c0-1.53418,3.6645-1.5232,3.6645-1.5232c8.78944-0.52073,13.00013,0.89653,13.00013,0.89653
		c1.84878,0.65551,0.91792,3.28939,0.91792,3.28939c-0.95436,3.46386-2.35093,3.82602-2.35093,3.82602
		c-5.37863,1.69753-11.10281,0.55365-11.10281,0.55365c-2.53088-0.18544-3.03107-1.90773-3.03107-1.90773
		C92.56664,49.18628,92.34827,45.90997,92.34827,45.90997z"/>
	<path id="XMLID_300_" class="st17" d="M113.59939,52.389c1.75324,2.95622,5.40254,3.75721,5.40254,3.75721
		c-2.86828,1.80277-5.73235,7.28368-5.73235,7.28368s-2.74319-5.48091-5.61078-7.28368
		C107.65881,56.14621,111.84473,55.34522,113.59939,52.389z"/>
	<path id="XMLID_299_" class="st210" d="M101.54729,133.41296c0,0-12.74673,0.91931-20.67889-5.23357v2.26848
		c0,0,6.27515,6.21057,20.67889,5.10722V133.41296z"/>
	<path class="st21" d="M111.22048,176.84564l-0.1289-0.07646l0.1289-0.11049v-2.25197c0-0.28329-0.23227-0.51556-0.51698-0.51556
		c0,0-0.70815,0.60338-1.96444,0.60338c-1.25632,0-1.83559-0.60338-2.17268-0.60338c-0.06374,0,0.00848-0.29178-0.30312,0
		c-1.93047,1.80444-6.23758,2.16985-6.23758,2.16985c-0.24079,0-0.39942,0.38243-0.17705,0.64302
		c0.03401,0.03683,0.11472,0.0963,0.11472,0.14162l-0.12745,0.13597c0,0.28612,0.23086,0.51839,0.51411,0.51839h10.35349
		c0.28471,0,0.51698-0.23227,0.51698-0.51839V176.84564z"/>
	<path class="st21" d="M115.43835,176.98161c0,0.28612,0.23228,0.51839,0.51556,0.51839h10.3549
		c0.28184,0,0.51414-0.23227,0.51414-0.51839l-0.1289-0.13597c0-0.04532,0.08358-0.10478,0.11472-0.14021
		c0.22379-0.26199,0.06375-0.64442-0.17563-0.64442c0,0-4.30994-0.3654-6.23899-2.16985c-0.31302-0.29178-0.23938,0-0.30309,0
		c-0.33851,0-0.9164,0.60338-2.17126,0.60338c-1.25774,0-1.9659-0.60338-1.9659-0.60338c-0.28329,0-0.51556,0.23227-0.51556,0.51697
		v2.25056l0.1289,0.11189l-0.1289,0.07506V176.98161z"/>
	<g>
		<defs>
			<path id="XMLID_298_" d="M73.80663,115.09259c0-5.96999-1.00439-12.29633-3.72353-17.16999
				c6.06891,0.89142,16.83358,1.42258,29.50602-9.77365l0.47275,25.85336L84.2676,132.59886c0,0-3.02301,6.45924-15.23804,1.03462
				C72.20484,128.47955,73.80663,121.59174,73.80663,115.09259z"/>
		</defs>
		<clipPath id="XMLID_2_">
			<use xlink:href="#XMLID_298_"  style="overflow:visible;"/>
		</clipPath>
		<path class="st211" d="M78.53439,140.11356l-1.90055-0.56383c7.71913-26.0175,0.1487-40.99728,0.07125-41.14559l1.75805-0.91697
			C78.79384,98.12146,86.48044,113.33396,78.53439,140.11356z"/>
	</g>
	<path id="XMLID_297_" class="st212" d="M113.45512,156.11519c-10.84128,0-19.18765-1.18381-25.734-2.21733
		c-6.16978-5.82819-11.20689-16.53197-11.20689-26.52355c0-12.6685,5.12927-23.99749,13.19345-31.54135
		c3.12717-4.34847,5.06985-9.995,6.48575-14.41512c3.51204,2.41138,8.86201,4.53629,16.81689,4.53629
		c8.27927,0,13.73743-2.30162,17.23787-4.83252c1.37241,4.45204,3.31688,10.11642,6.5871,14.60304
		c8.13057,7.54348,13.30859,18.92087,13.30859,31.64966c0,9.86187-5.27696,20.76345-11.13005,26.31051
		C133.49593,154.71425,125.32323,156.11519,113.45512,156.11519z"/>
	<g>
		<defs>
			<path id="XMLID_296_" d="M113.45512,156.11519c-10.84128,0-19.18765-1.18381-25.734-2.21733
				c-6.16978-5.82819-11.20689-16.53197-11.20689-26.52355c0-12.6685,5.12927-23.99749,13.19345-31.54135
				c3.12717-4.34847,5.06985-9.995,6.48575-14.41512c3.51204,2.41138,8.86201,4.53629,16.81689,4.53629
				c8.27927,0,13.73743-2.30162,17.23787-4.83252c1.37241,4.45204,3.31688,10.11642,6.5871,14.60304
				c8.13057,7.54348,13.30859,18.92087,13.30859,31.64966c0,9.86187-5.27696,20.76345-11.13005,26.31051
				C133.49593,154.71425,125.32323,156.11519,113.45512,156.11519z"/>
		</defs>
		<clipPath id="XMLID_3_">
			<use xlink:href="#XMLID_296_"  style="overflow:visible;"/>
		</clipPath>
		<rect x="73.34597" y="88.72147" class="st213" width="81.32944" height="2.20965"/>
		<rect x="73.34597" y="96.65204" class="st213" width="81.32944" height="2.20965"/>
		<rect x="73.34597" y="104.5826" class="st213" width="81.32944" height="2.20965"/>
		<rect x="73.34597" y="112.51316" class="st213" width="81.32944" height="2.20965"/>
		<rect x="73.34597" y="120.44373" class="st213" width="81.32944" height="2.20965"/>
		<rect x="73.34597" y="128.37428" class="st213" width="81.32944" height="2.20965"/>
		<rect x="73.34597" y="136.30484" class="st213" width="81.32944" height="2.20965"/>
		<rect x="73.34597" y="144.23541" class="st213" width="81.32944" height="2.20965"/>
		<rect x="73.34597" y="152.16597" class="st213" width="81.32944" height="2.20965"/>
	</g>
	<path id="XMLID_295_" class="st204" d="M127.82922,113.64101c0,0,9.08703,2.83184,19.58721-1.83091
		c0,0,8.00848,18.94431-3.66711,36.00533c0,0-7.26784,2.96227-16.66129-0.0083
		C127.08802,147.80713,137.73045,133.18629,127.82922,113.64101z"/>
	<path id="XMLID_294_" class="st16" d="M103.80606,114.54162c0,0,4.5789,9.21618,7.8182,9.68344
		c0,0-7.94455-8.08327-7.25343-14.34267c0,0,4.01413,7.2191,7.03704,8.20568c0,0-7.23627-6.33144-5.39917-14.68274
		c0,0,3.23846,8.86232,6.48114,9.18452c0,0-5.50976-6.54642-5.02266-12.58858c0,0,7.74728,10.55788,20.42535,13.65902
		c2.71844,4.86803,4.27246,10.47263,4.27246,16.44556c0,6.49493-1.83359,12.55566-5.00761,17.70959
		c-5.876-1.75465-12.20195-5.70082-17.3895-13.86247c-0.00549-0.01506-0.01717-0.02603-0.02673-0.0425
		c-2.40792-3.59723-3.87822-6.89619-4.76434-9.71298c-0.06458-0.17165-0.13057-0.34063-0.19797-0.51242
		c0,0,0.02336,0.02602,0.06332,0.08385C103.15899,118.13745,103.80606,114.54162,103.80606,114.54162z"/>
	<g>
		<defs>
			<path id="XMLID_293_" d="M127.82922,113.64101c0,0,9.08703,2.83184,19.58721-1.83091c0,0,8.00848,18.94431-3.66711,36.00533
				c0,0-7.26784,2.96227-16.66129-0.0083C127.08802,147.80713,137.73045,133.18629,127.82922,113.64101z"/>
		</defs>
		<clipPath id="XMLID_4_">
			<use xlink:href="#XMLID_293_"  style="overflow:visible;"/>
		</clipPath>
		<path class="st214" d="M142.59923,150.07477l-1.8324-0.75743c7.9507-19.21613,0.49257-35.76807,0.41589-35.93303l1.79987-0.83179
			C143.30864,113.25806,150.87831,130.06482,142.59923,150.07477z"/>
		<path class="st214" d="M134.66867,150.07477l-1.8324-0.75743c7.9507-19.21613,0.49257-35.76807,0.41589-35.93303l1.79987-0.83179
			C135.37808,113.25806,142.94774,130.06482,134.66867,150.07477z"/>
	</g>
	<path class="st179" d="M42.41824,102.70097c0.56044-10.83017,9.17821-15.58664,12.05124-16.87453
		c6.3321,5.93449,14.66635,7.03641,14.66635,7.03641c-3.68948,2.42728-9.79497,1.20391-9.79497,1.20391
		c1.33827,1.95309,8.13216,0.91846,8.13216,0.91846c-4.68856,4.09934-11.26646,1.69711-11.26646,1.69711
		c1.68835,1.58258,7.70487,1.61887,7.70487,1.61887c-3.75462,2.6338-11.69576,0.391-11.69576,0.391
		c1.43269,1.9081,8.9189,1.60046,8.9189,1.60046s-2.06597,1.67585-6.25108,2.57182c0.04449,0.00517,0.07273,0.00716,0.07273,0.00716
		c-0.13234,0.0235-0.26149,0.0397-0.39162,0.05736c-2.11323,0.42006-4.73219,0.63956-7.87475,0.35761
		c-0.01233,0.00275-0.02343-0.00159-0.03403-0.00067C45.1384,103.1882,43.72953,102.98647,42.41824,102.70097z"/>
</g>
</svg>
