<?xml version="1.0" encoding="utf-8"?>
<!-- Generator: Adobe Illustrator 19.2.1, SVG Export Plug-In . SVG Version: 6.00 Build 0)  -->
<svg version="1.1" xmlns="http://www.w3.org/2000/svg" xmlns:xlink="http://www.w3.org/1999/xlink" x="0px" y="0px" width="140.2px"
	 height="186.3px" viewBox="0 0 140.2 186.3" style="enable-background:new 0 0 140.2 186.3;" xml:space="preserve">
<style type="text/css">
	.st0{fill-rule:evenodd;clip-rule:evenodd;fill:#57C4C6;}
	.st1{fill-rule:evenodd;clip-rule:evenodd;fill:#FF931E;}
	.st2{fill-rule:evenodd;clip-rule:evenodd;fill:#FF7BAC;}
	.st3{fill-rule:evenodd;clip-rule:evenodd;fill:#F2BC86;}
	.st4{display:none;}
	.st5{display:inline;opacity:0.22;}
	.st6{display:inline;opacity:0.22;fill-opacity:0.59;}
	.st7{display:inline;}
	.st8{display:inline;opacity:0.36;}
	.st9{clip-path:url(#SVGID_2_);fill:#87CDCD;}
	.st10{fill:#3B4547;}
	.st11{fill:#424242;}
	.st12{fill:#D3EDED;}
	.st13{fill:#B7BABB;}
	.st14{fill:#B9B9B9;}
	.st15{fill:#C6E0E0;}
	.st16{fill:#AAAEAF;}
	.st17{fill:#ADADAD;}
	.st18{fill:#B9D3D3;}
	.st19{fill:#9DA1A1;}
	.st20{fill:#9F9F9F;}
	.st21{fill:#A6C0C0;}
	.st22{fill:#8FA9A9;}
	.st23{fill:#9CB6B6;}
	.st24{clip-path:url(#SVGID_4_);fill:#8FA9A9;}
	.st25{clip-path:url(#SVGID_4_);fill:#EE6666;}
	.st26{clip-path:url(#SVGID_4_);fill:#FFFFFF;}
	.st27{clip-path:url(#SVGID_4_);fill:#372013;}
	.st28{fill:#FED245;}
	.st29{fill:#183249;}
	.st30{fill:#87CDCD;}
	.st31{fill:#454B53;}
	.st32{fill:#FFFDE9;}
	.st33{fill:#F26A44;}
	.st34{fill:#79B8B8;}
	.st35{fill:#EE6666;}
	.st36{fill:#FFFFFF;}
	.st37{fill:#90DBDB;}
	.st38{fill:#EED593;}
	.st39{fill:#372013;}
	.st40{fill:#EF4B33;}
	.st41{fill:#53380A;}
	.st42{fill:#E1E2E3;}
	.st43{fill:#2D567F;}
	.st44{fill:#4AAFAF;}
	.st45{fill:#57C4C6;}
	.st46{fill:#4D4D4D;}
	.st47{fill:#B4E219;}
	.st48{fill:#E6E7E8;}
	.st49{fill:#F2BC86;}
	.st50{clip-path:url(#XMLID_274_);fill:#F9D88F;}
	.st51{fill:#424750;}
	.st52{fill:#80C0AC;}
	.st53{fill:#6BA588;}
	.st54{fill:#F2C24E;}
	.st55{fill:#F9F0EB;}
	.st56{fill:none;stroke:#6BA588;stroke-miterlimit:10;}
	.st57{fill:#281A12;}
	.st58{fill:#E03E3E;}
	.st59{fill:#595C62;}
	.st60{fill:none;stroke:#C7C6C6;stroke-width:0.7565;stroke-miterlimit:10;}
	.st61{fill:#2B2C2D;}
	.st62{display:none;fill:#2B2A34;}
	.st63{display:inline;fill:#57BFC2;}
	.st64{clip-path:url(#SVGID_6_);}
	.st65{fill:none;stroke:#504F4F;stroke-width:2;stroke-miterlimit:10;}
	.st66{fill:#504F4F;}
	.st67{fill:#F16D6D;}
	.st68{fill:#87C6C0;}
	.st69{fill:#89DBD8;}
	.st70{fill-rule:evenodd;clip-rule:evenodd;fill:#444751;}
	.st71{fill-rule:evenodd;clip-rule:evenodd;fill:#D6D6D5;}
	.st72{fill:#2B2A34;}
	.st73{fill:none;stroke:#504F4F;stroke-miterlimit:10;}
	.st74{fill-rule:evenodd;clip-rule:evenodd;fill:#89DBD8;}
	.st75{fill-rule:evenodd;clip-rule:evenodd;fill:#87C6C0;}
	.st76{fill:#59473A;}
	.st77{fill:none;stroke:#F2C24E;stroke-miterlimit:10;}
	.st78{fill:none;stroke:#F2C24E;stroke-linecap:round;stroke-miterlimit:10;}
	.st79{fill:#F9D88F;}
	.st80{fill:#E9676D;}
	.st81{fill:#F6ECC3;}
	.st82{fill:#A6A8AB;}
	.st83{fill:none;stroke:#FFFFFF;stroke-width:5.289;stroke-miterlimit:10;}
	.st84{fill:#E6E6E6;}
	.st85{opacity:0.2;fill:none;stroke:#FFFFFF;stroke-width:3;stroke-miterlimit:10;}
	.st86{fill:none;stroke:#E9676D;stroke-linecap:round;stroke-miterlimit:10;}
	.st87{fill:#FCB856;}
	.st88{fill:none;stroke:#FCB856;stroke-linecap:round;stroke-miterlimit:10;}
	.st89{fill:none;stroke:#CBCACA;stroke-width:3.4513;stroke-miterlimit:10;}
	.st90{fill-rule:evenodd;clip-rule:evenodd;fill:#DADAD9;}
	.st91{fill:#469595;}
	.st92{fill:#2A2D35;}
	.st93{fill:#387D7B;}
	.st94{fill:#BFF7F5;}
	.st95{opacity:0.4;fill:#FFFFFF;}
	.st96{fill:#D3D3D3;}
	.st97{fill:none;stroke:#FFFFFF;stroke-width:5.0355;stroke-miterlimit:10;}
	.st98{fill:#EDE2A2;}
	.st99{fill:#EFDFA8;}
	.st100{fill:none;stroke:#EFDFA8;stroke-width:0.3783;stroke-miterlimit:10;}
	.st101{fill:#57BFC2;}
	.st102{clip-path:url(#SVGID_8_);}
	.st103{fill-rule:evenodd;clip-rule:evenodd;fill:#424750;}
	.st104{fill-rule:evenodd;clip-rule:evenodd;fill:#E1E2E3;}
	.st105{clip-path:url(#SVGID_10_);}
	.st106{fill:#BABABA;}
	.st107{clip-path:url(#SVGID_12_);}
	.st108{fill:#25A4A4;}
	.st109{fill:none;stroke:#C7C6C6;stroke-width:0.8879;stroke-miterlimit:10;}
	.st110{fill:#44C2CE;}
	.st111{fill:#C7C6C6;}
	.st112{fill-rule:evenodd;clip-rule:evenodd;fill:#F9F0EB;}
	.st113{fill-rule:evenodd;clip-rule:evenodd;fill:#595C62;}
	.st114{fill:#EC7045;}
	.st115{opacity:0.7;}
	.st116{fill:#90CED2;}
	.st117{fill:#882888;}
	.st118{fill:#C1C0C0;}
	.st119{fill:#768035;}
	.st120{fill:#E3B27C;}
	.st121{fill:#775644;}
	.st122{fill:#DBC7C2;}
	.st123{fill:#D95027;}
	.st124{clip-path:url(#SVGID_14_);}
	.st125{fill:none;stroke:#E6E6E6;stroke-miterlimit:10;}
	.st126{clip-path:url(#SVGID_16_);}
	.st127{fill:#2E465D;}
	.st128{fill:#422E21;}
	.st129{fill-rule:evenodd;clip-rule:evenodd;fill:#3C5F7C;}
	.st130{fill-rule:evenodd;clip-rule:evenodd;fill:#2E465D;}
	.st131{fill:#9FA0A3;}
	.st132{fill:#EA6A6D;}
	.st133{fill:#777777;}
	.st134{fill:#70533D;}
	.st135{fill:#3C5777;}
	.st136{fill:none;stroke:#E1E2E3;stroke-miterlimit:10;}
	.st137{fill:#314759;}
	.st138{fill:none;stroke:#314759;stroke-miterlimit:10;}
	.st139{fill:none;stroke:#3C5777;stroke-miterlimit:10;}
	.st140{fill:#80BBA8;}
	.st141{fill:#E94C64;}
	.st142{fill:#59C0C1;}
	.st143{fill:#8E8E8E;}
	.st144{fill:none;stroke:#504F4F;stroke-linecap:round;stroke-miterlimit:10;}
	.st145{clip-path:url(#SVGID_18_);}
	.st146{fill:#6F523C;}
	.st147{fill:#E2E1E1;}
	.st148{fill:#FAFAFA;}
	.st149{fill:#CECCCC;}
	.st150{clip-path:url(#SVGID_20_);}
	.st151{fill:#444444;}
	.st152{fill:#57C3C5;}
	.st153{fill:none;stroke:#676868;stroke-miterlimit:10;}
	.st154{clip-path:url(#SVGID_22_);}
	.st155{fill:#585D62;}
	.st156{fill:none;stroke:#CBCACA;stroke-width:0.5;stroke-miterlimit:10;}
	.st157{fill-rule:evenodd;clip-rule:evenodd;fill:#DBDBD9;}
	.st158{fill-rule:evenodd;clip-rule:evenodd;fill:#E7E6E6;}
	.st159{fill:#2A2A34;}
	.st160{fill:none;stroke:#424750;stroke-miterlimit:10;}
	.st161{fill:none;stroke:#80C0AC;stroke-width:0.5;stroke-linecap:round;stroke-miterlimit:10;}
	.st162{fill:#E7E6E6;}
	.st163{fill:none;stroke:#80C0AC;stroke-width:0.5;stroke-linecap:round;stroke-linejoin:round;stroke-miterlimit:10;}
	.st164{fill:#D8563B;}
	.st165{fill:#3B79A3;}
	.st166{fill:#52ACC1;}
	.st167{fill:none;stroke:#3B79A3;stroke-miterlimit:10;}
	.st168{fill:none;stroke:#80C0AC;stroke-width:0.5;stroke-miterlimit:10;}
	.st169{fill:#5DC667;}
	.st170{fill:#EDE9C3;}
	.st171{fill:none;stroke:#FCD98D;stroke-linecap:round;stroke-miterlimit:10;}
	.st172{clip-path:url(#XMLID_275_);fill:#89DBD8;}
	.st173{clip-path:url(#XMLID_276_);fill:#A3E8E3;}
	.st174{clip-path:url(#XMLID_277_);fill:#89DBD8;}
	.st175{font-family:'Georgia';}
	.st176{font-size:2.0866px;}
	.st177{font-size:2.0867px;}
	.st178{font-size:2.0868px;}
	.st179{clip-path:url(#XMLID_278_);fill:#89DBD8;}
	.st180{clip-path:url(#XMLID_279_);fill:#A3E8E3;}
	.st181{clip-path:url(#XMLID_280_);fill:#89DBD8;}
	.st182{fill:#42474F;}
	.st183{fill:#585C61;}
	.st184{fill:none;stroke:#CCCBCB;stroke-width:0.1425;stroke-miterlimit:10;}
	.st185{fill-rule:evenodd;clip-rule:evenodd;fill:#434750;}
	.st186{fill-rule:evenodd;clip-rule:evenodd;fill:#DBDBDA;}
	.st187{fill:#F3E7A8;}
	.st188{fill:#F4E4AD;}
	.st189{fill:none;stroke:#F4E4AD;stroke-width:7.124000e-02;stroke-miterlimit:10;}
	.st190{fill:#57C4C7;}
	.st191{clip-path:url(#SVGID_24_);}
	.st192{fill-rule:evenodd;clip-rule:evenodd;fill:#42474F;}
	.st193{fill-rule:evenodd;clip-rule:evenodd;fill:#E6E7E8;}
	.st194{fill:#3D447A;}
	.st195{fill:#EF5273;}
	.st196{fill:#3A3A3A;}
	.st197{fill-rule:evenodd;clip-rule:evenodd;fill:#43474F;}
	.st198{fill:none;stroke:#F4E4AD;stroke-width:0.454;stroke-miterlimit:10;}
	.st199{clip-path:url(#SVGID_26_);fill:#E6E7E8;}
	.st200{fill:#E5D9BE;}
	.st201{fill:#F7F1E2;}
	.st202{fill:#B5967D;}
	.st203{clip-path:url(#SVGID_28_);fill:#E6E7E8;}
	.st204{fill:#FCD224;}
	.st205{fill:#ADDB19;}
	.st206{fill:#E85273;}
	.st207{fill-rule:evenodd;clip-rule:evenodd;fill:#504F4F;}
	.st208{fill-rule:evenodd;clip-rule:evenodd;fill:#FFFFFF;}
	.st209{fill-rule:evenodd;clip-rule:evenodd;fill:none;stroke:#4D4D4D;stroke-miterlimit:10;}
	.st210{clip-path:url(#XMLID_281_);fill:#F9D88F;}
	.st211{clip-path:url(#XMLID_281_);fill:#FCE7BE;}
	.st212{clip-path:url(#SVGID_30_);fill:#FCE7BE;}
	.st213{clip-path:url(#SVGID_32_);fill:#FCE7BE;}
	.st214{clip-path:url(#SVGID_34_);fill:#FCE7BE;}
	.st215{fill-rule:evenodd;clip-rule:evenodd;fill:#E85273;}
	.st216{fill-rule:evenodd;clip-rule:evenodd;fill:#3D447A;}
	.st217{fill-rule:evenodd;clip-rule:evenodd;fill:none;stroke:#4D4D4D;stroke-width:2;stroke-miterlimit:10;}
	.st218{fill:#96D696;}
	.st219{clip-path:url(#XMLID_282_);fill:#96D696;}
	.st220{fill-rule:evenodd;clip-rule:evenodd;fill:#92BA85;}
	.st221{fill-rule:evenodd;clip-rule:evenodd;fill:#EFEFE4;}
	.st222{fill-rule:evenodd;clip-rule:evenodd;fill:#E0E0C7;}
	.st223{fill:#999999;}
	.st224{fill:#C69C6D;}
	.st225{fill:none;stroke:#4D4D4D;stroke-miterlimit:10;}
	.st226{clip-path:url(#XMLID_283_);fill:#96D696;}
	.st227{fill:#F9C543;}
	.st228{fill:#355B77;}
	.st229{fill:#C49B49;}
	.st230{fill:#9AC68F;}
	.st231{clip-path:url(#XMLID_284_);fill:#B4D6AA;}
	.st232{clip-path:url(#XMLID_285_);fill:#A7DBA7;}
	.st233{clip-path:url(#XMLID_286_);fill:#B4D6AA;}
	.st234{fill:#4D4D4F;}
	.st235{fill:#69502E;}
	.st236{fill:#3F3F3F;}
	.st237{fill:#4C381B;}
	.st238{fill:#919090;}
	.st239{fill:#74DDE2;}
	.st240{fill:#59B5CE;}
	.st241{fill:#71D3F4;}
	.st242{fill:#EDEFED;}
	.st243{fill:none;stroke:#CCCCCC;stroke-miterlimit:10;stroke-dasharray:1,1;}
	.st244{fill:#72A9C1;}
	.st245{fill:#82F4F1;}
	.st246{fill:#F2F2F2;}
	.st247{clip-path:url(#XMLID_287_);fill:#F9D88F;}
	.st248{fill:#74777C;}
	.st249{fill:#EF89B0;}
	.st250{fill:#3F6B9E;}
	.st251{fill:#D21C5A;}
	.st252{fill:#EDC169;}
	.st253{fill:#DDAC57;}
	.st254{fill:#92BA85;}
	.st255{fill:#29507F;}
</style>
<g id="Layer_3">
</g>
<g id="sketch" class="st4">
</g>
<g id="illustration">
	<g>
		<g>
			
				<rect x="13.4" y="52.5" transform="matrix(0.9355 0.3533 -0.3533 0.9355 26.3096 -3.1808)" class="st169" width="16.8" height="36"/>
			
				<rect x="5.4" y="63.5" transform="matrix(0.3533 -0.9355 0.9355 0.3533 -51.7821 66.025)" class="st170" width="33" height="13.9"/>
			<ellipse transform="matrix(0.3533 -0.9355 0.9355 0.3533 -51.3751 65.7151)" class="st169" cx="21.8" cy="70" rx="5.8" ry="6"/>
			<path class="st171" d="M18.3,67.6c0,0-1.4,5.2,3.3,2.2c5.8-3.6,4.2,5.6,0.9,4c-3.5-1.8,4.3-4.2-0.9-6.8"/>
		</g>
		<path class="st42" d="M0.1,97.5c2.8-6.8,4.5-3.5,8.8-2.7c0,0-3.8-5.9,0.1-4.4c0,0-2.6-7.7,1.7-7.2c0,0-2.4-11.4,4.1-6.3
			c11.7,9.2,32.7,18.1,59.4-4l-2,33.8l-20.1,23.8c0,0-28.9,9.6-46-19.5c0,0,0,0,0-0.1c-3-4.8-4.8-9.2-5.8-13
			c-0.1-0.2-0.2-0.4-0.2-0.7C0,97.4,0,97.4,0.1,97.5"/>
		<path id="XMLID_272_" class="st84" d="M120.2,143.5c-6.3-0.9-12.6-1.3-19-1.3c0,0,0,0,0,0c-0.8-0.7-1.6-1.5-2.3-2.3
			c-0.1-0.2-0.3-0.3-0.4-0.5c-0.3-0.4-0.6-0.8-0.9-1.3c-2.7-3.9-4.9-8.1-7.9-11.9c-2.6-3.3-8.5-1.3-9.4,2.5c-1,4.2-1.9,8.4-3,12.5
			c-0.2,0.8-0.5,1.6-0.7,2.5c-2.4,0.3-4.8,0.6-7.3,0.9c-3.4,0.5-5.4,0.8-8.7,1.1c-4.6,0.4-7.1-0.3-11.7,0.1
			c-3.3-7.1-7.2-14.2-7.2-22.7c0-16,6.5-30.3,16.6-39.8c5-6.9,7.6-16.4,9.5-22.2v0c0.1-0.4,0.2-0.8,0.3-1.2c0,0,0-0.1,0-0.1
			c0.1-0.3,0.2-0.7,0.3-1c0.3-0.9,0.5-1.8,0.8-2.8v0c1.2-4.4,2-9.4-0.7-14.6c-1.3-4.1-1.5-9.1-1.3-13.8c-0.3-5.9,0.1-12.2,2.4-16.6
			c1.2-3.4,5.1-5.5,9-6.8c-1.8,0-3.3,0-3.3,0c4.2-2.8,7.9-2.6,10.6-1.6c0.8-0.1,1.5-0.2,2-0.2c-2-1.1-4.1-1.9-4.1-1.9
			c6.5-1.6,12.1,2,14.5,3.9c3.8,1.3,7.6,3.4,8.7,6.7c2.3,4.4,2.7,10.7,2.4,16.6c0.3,5.5,0,9.7-1.2,13.8C106,47,106.1,51.6,107,56
			c0.1,0.4,0.2,0.8,0.3,1.2c0,0,0,0,0,0.1c0.1,0.4,0.2,0.8,0.3,1.2c0,0,0,0.1,0,0.1c0.1,0.4,0.2,0.8,0.3,1.2c0,0,0,0.1,0,0.1
			c0.1,0.4,0.2,0.8,0.3,1.2c0,0,0,0,0,0v0c1.8,5.8,4.3,15.1,9.4,22.2c10.3,9.5,16.8,23.9,16.8,39.9c0,8-3.2,15.4-6.1,22.1
			C125.1,144.5,123.5,144,120.2,143.5z"/>
		<path id="XMLID_271_" class="st110" d="M38.2,107.6c0-7.5-1.3-15.5-4.7-21.7c7.7,1.1,21.2,1.8,37.2-12.3l0.6,32.6l-19.9,23.4
			c0,0-3,5.6-19.2,1.5C36.2,124.6,38.2,115.8,38.2,107.6z"/>
		<path id="XMLID_270_" class="st51" d="M69.5,167.4l0.1,0c-12-6.3-22.6-18.5-22.6-32.6c0-20.5,19.7-37.1,41-37.1
			c21.3,0,41,16.6,41,37.1c0,14.1-10.6,26.3-22.6,32.6l0.1,0c-5.9,3.4-10.1,9-11.3,15.7c-0.3-0.1-1.5-0.7-3,0v-11.5
			c-1.4,0.1-2.7,0.2-4.1,0.2c-1.4,0-2.8-0.1-4.1-0.2v11.5c-1.6-0.7-2.8-0.2-3.1,0C79.6,176.4,75.3,170.7,69.5,167.4z"/>
		<text id="XMLID_268_" transform="matrix(0.9332 0.3594 0.3594 -0.9332 59.5839 133.7889)" class="st91 st175 st176">VI</text>
		<text id="XMLID_267_" transform="matrix(0.2844 -0.9587 -0.9587 -0.2844 56.2835 130.3136)" class="st91 st175 st177">III</text>
		<text id="XMLID_266_" transform="matrix(-0.3183 0.948 0.948 0.3183 66.8205 132.8154)" class="st91 st175 st178">IX</text>
		<path id="XMLID_265_" class="st91" d="M61.5,131.2c0-0.1,0-0.2-0.1-0.3c-0.1,0-0.2,0-0.3,0.2c0,0.1,0,0.2,0.1,0.3
			C61.4,131.4,61.5,131.3,61.5,131.2z"/>
		<polygon id="XMLID_264_" class="st91" points="62.4,128.8 62.2,128.7 61.2,131.1 61.4,131.2 		"/>
		<polygon id="XMLID_263_" class="st92" points="59.6,130.4 59.6,130.6 61.3,131.3 61.4,131.1 		"/>
		<polyline id="XMLID_262_" class="st91" points="62,128.6 62.5,128.3 62.6,129 61.9,128.7 		"/>
		<polyline id="XMLID_261_" class="st91" points="59.5,130.7 59.2,130.2 59.9,130.1 59.6,130.8 		"/>
		<path id="XMLID_260_" class="st93" d="M73.2,130.7c0,0-16.1,1.2-26.1-6.6v2.9c0,0,7.9,7.8,26.1,6.4V130.7z"/>
		<path id="XMLID_259_" class="st84" d="M67.2,27.6c-0.3-5.9,0.1-12.2,2.4-16.6c1.2-3.4,5.1-5.5,9-6.8c-1.8,0-3.3,0-3.3,0
			c4.2-2.8,7.9-2.6,10.6-1.6c0.8-0.1,1.5-0.2,2-0.2c-2-1.1-4.1-1.9-4.1-1.9c6.5-1.6,12.1,2,14.5,3.9c3.8,1.3,7.6,3.4,8.7,6.7
			c2.3,4.4,2.7,10.7,2.4,16.6c0.3,5.5,0,9.7-1.2,13.8c-3.3,7.7-1.7,13.5-0.1,19.6L88,96.7v0.1L67.7,61.1c1.4-5.5,4.5-12.3,0.8-19.8
			C67.2,37.3,67,32.3,67.2,27.6z"/>
		<path id="XMLID_258_" class="st36" d="M97.7,23.9c-0.1,1.9,1.9,3.4,4.4,3.5c2.5,0.1,4.5-1.3,4.6-3.2c0.1-1.8-1.9-3.4-4.4-3.5
			C99.8,20.6,97.8,22,97.7,23.9z"/>
		<path id="XMLID_257_" class="st72" d="M100.1,23.6c-0.2,1.1,0.6,2.2,1.8,2.3c1.1,0.2,2.2-0.6,2.3-1.8c0.2-1.1-0.6-2.2-1.8-2.3
			C101.3,21.7,100.3,22.5,100.1,23.6z"/>
		<path id="XMLID_256_" class="st36" d="M70.4,23.9c-0.1,1.9,1.9,3.4,4.4,3.5c2.5,0.1,4.5-1.3,4.6-3.2c0.1-1.8-1.9-3.4-4.4-3.5
			C72.5,20.6,70.4,22,70.4,23.9z"/>
		<path id="XMLID_255_" class="st72" d="M72.8,23.6c-0.2,1.1,0.6,2.2,1.8,2.3c1.1,0.2,2.2-0.6,2.3-1.8c0.1-1.1-0.6-2.2-1.8-2.3
			C74,21.7,73,22.5,72.8,23.6z"/>
		<path id="XMLID_251_" class="st72" d="M58.8,19.8c-0.1,2.5,0.5,2.5,0.5,2.5c0.1,0.2,0.3,0.5,0.3,0.5c0.7,0.3,1.6,3,1.6,3
			c1.2,3.4,2.9,3.8,2.9,3.8c4.8,1.7,12.8,0.8,12.8,0.8s4.5-0.1,5.9-2c1.1-1.3,2.5-5.3,2.5-5.3s0.4-0.7,1-1.1
			c0.7-0.3,1.7-0.4,1.7-0.4s1,0,1.7,0.4c0.6,0.4,0.9,1,0.9,1s1.6,4.1,2.6,5.4c1.4,1.8,5.9,2,5.9,2s8,0.9,12.8-0.8
			c0,0,1.8-0.4,2.9-3.8c0,0,0.9-2.8,1.5-3c0,0,0.3-0.4,0.3-0.5c0,0,0.6,0,0.5-2.5l0-0.8c0,0,0-0.7-1.3-0.9
			c-1.3-0.2-2.3-1.1-14.6-0.8C92.8,18,90.2,19,90.2,19s-0.4,0.1-1,0.2c-0.4,0.1-0.8,0.1-1.2,0.1c-0.4,0-0.7,0-1.1-0.1
			c-0.7-0.1-1.1-0.2-1.1-0.2s-2.5-1-11.2-1.7C62.4,17,61.4,17.9,60,18c-1.3,0.2-1.3,0.9-1.3,0.9L58.8,19.8z M93.4,19.5
			c0,0,5.3-1.8,16.4-1.1c0,0,4.6,0,4.6,1.9c0,0-0.3,4.1-1.4,6.5c0,0-0.6,2.2-3.8,2.4c0,0-7.2,1.4-14-0.7c0,0-1.8-0.5-3-4.8
			C92.3,23.7,91.1,20.4,93.4,19.5z M61.6,20.3c0-1.9,4.6-1.9,4.6-1.9c11.1-0.7,16.4,1.1,16.4,1.1c2.3,0.8,1.2,4.1,1.2,4.1
			c-1.2,4.4-3,4.8-3,4.8c-6.8,2.1-14,0.7-14,0.7C63.6,29,63,26.8,63,26.8C61.9,24.5,61.6,20.3,61.6,20.3z"/>
		<path id="XMLID_250_" class="st51" d="M88.4,28.5c2.2,3.7,6.8,4.7,6.8,4.7c-3.6,2.3-7.2,9.2-7.2,9.2s-3.5-6.9-7.1-9.2
			C80.9,33.2,86.2,32.2,88.4,28.5z"/>
		<path id="XMLID_249_" class="st93" d="M73.2,130.7c0,0-16.1,1.2-26.1-6.6v2.9c0,0,7.9,7.8,26.1,6.4V130.7z"/>
		<path class="st61" d="M85.4,185.4l-0.2-0.1l0.2-0.1v-2.8c0-0.4-0.3-0.7-0.7-0.7c0,0-0.9,0.8-2.5,0.8c-1.6,0-2.3-0.8-2.7-0.8
			c-0.1,0,0-0.4-0.4,0c-2.4,2.3-7.9,2.7-7.9,2.7c-0.3,0-0.5,0.5-0.2,0.8c0,0,0.1,0.1,0.1,0.2l-0.2,0.2c0,0.4,0.3,0.7,0.6,0.7h13.1
			c0.4,0,0.7-0.3,0.7-0.7V185.4z"/>
		<path class="st61" d="M90.7,185.6c0,0.4,0.3,0.7,0.7,0.7h13.1c0.4,0,0.6-0.3,0.6-0.7l-0.2-0.2c0-0.1,0.1-0.1,0.1-0.2
			c0.3-0.3,0.1-0.8-0.2-0.8c0,0-5.4-0.5-7.9-2.7c-0.4-0.4-0.3,0-0.4,0c-0.4,0-1.2,0.8-2.7,0.8c-1.6,0-2.5-0.8-2.5-0.8
			c-0.4,0-0.7,0.3-0.7,0.7v2.8l0.2,0.1l-0.2,0.1V185.6z"/>
		<g>
			<defs>
				<path id="XMLID_248_" d="M38.2,107.6c0-7.5-1.3-15.5-4.7-21.7c7.7,1.1,21.2,1.8,37.2-12.3l0.6,32.6l-19.9,23.4
					c0,0-3.8,8.1-19.2,1.3C36.2,124.4,38.2,115.8,38.2,107.6z"/>
			</defs>
			<clipPath id="XMLID_274_">
				<use xlink:href="#XMLID_248_"  style="overflow:visible;"/>
			</clipPath>
			<path style="clip-path:url(#XMLID_274_);fill:#89DBD8;" d="M44.2,138.7l-2.4-0.7c9.7-32.8,0.2-51.7,0.1-51.9l2.2-1.2
				C44.5,85.8,54.2,105,44.2,138.7z"/>
		</g>
		<path id="XMLID_247_" class="st69" d="M88.2,159.3c-13.7,0-24.2-1.5-32.4-2.8c-7.8-7.3-14.1-20.8-14.1-33.4
			c0-16,6.5-30.3,16.6-39.8c3.9-5.5,6.4-12.6,8.2-18.2c4.4,3,11.2,5.7,21.2,5.7c10.4,0,17.3-2.9,21.7-6.1c1.7,5.6,4.2,12.8,8.3,18.4
			c10.3,9.5,16.8,23.9,16.8,39.9c0,12.4-6.7,26.2-14,33.2C113.5,157.5,103.2,159.3,88.2,159.3z"/>
		<g>
			<defs>
				<path id="XMLID_246_" d="M88.2,159.3c-13.7,0-24.2-1.5-32.4-2.8c-7.8-7.3-14.1-20.8-14.1-33.4c0-16,6.5-30.3,16.6-39.8
					c3.9-5.5,6.4-12.6,8.2-18.2c4.4,3,11.2,5.7,21.2,5.7c10.4,0,17.3-2.9,21.7-6.1c1.7,5.6,4.2,12.8,8.3,18.4
					c10.3,9.5,16.8,23.9,16.8,39.9c0,12.4-6.7,26.2-14,33.2C113.5,157.5,103.2,159.3,88.2,159.3z"/>
			</defs>
			<clipPath id="XMLID_275_">
				<use xlink:href="#XMLID_246_"  style="overflow:visible;"/>
			</clipPath>
			<rect x="37.6" y="74.3" style="clip-path:url(#XMLID_275_);fill:#A3E8E3;" width="102.6" height="2.8"/>
			<rect x="37.6" y="84.3" style="clip-path:url(#XMLID_275_);fill:#A3E8E3;" width="102.6" height="2.8"/>
			<rect x="37.6" y="94.3" style="clip-path:url(#XMLID_275_);fill:#A3E8E3;" width="102.6" height="2.8"/>
			<rect x="37.6" y="104.3" style="clip-path:url(#XMLID_275_);fill:#A3E8E3;" width="102.6" height="2.8"/>
			<rect x="37.6" y="114.3" style="clip-path:url(#XMLID_275_);fill:#A3E8E3;" width="102.6" height="2.8"/>
			<rect x="37.6" y="124.3" style="clip-path:url(#XMLID_275_);fill:#A3E8E3;" width="102.6" height="2.8"/>
			<rect x="37.6" y="134.3" style="clip-path:url(#XMLID_275_);fill:#A3E8E3;" width="102.6" height="2.8"/>
			<rect x="37.6" y="144.3" style="clip-path:url(#XMLID_275_);fill:#A3E8E3;" width="102.6" height="2.8"/>
			<rect x="37.6" y="154.3" style="clip-path:url(#XMLID_275_);fill:#A3E8E3;" width="102.6" height="2.8"/>
		</g>
		<path id="XMLID_245_" class="st110" d="M106.3,105.7c0,0,11.5,3.6,24.7-2.3c0,0,10.1,23.9-4.6,45.4c0,0-9.2,3.7-21,0
			C105.4,148.8,118.8,130.4,106.3,105.7z"/>
		<path id="XMLID_244_" class="st84" d="M76,106.9c0,0,5.8,11.6,9.9,12.2c0,0-10-10.2-9.1-18.1c0,0,5.1,9.1,8.9,10.3
			c0,0-9.1-8-6.8-18.5c0,0,4.1,11.2,8.2,11.6c0,0-6.9-8.3-6.3-15.9c0,0,9.8,13.3,25.8,17.2c3.4,6.1,5.4,13.2,5.4,20.7
			c0,8.2-2.3,15.8-6.3,22.3c-7.4-2.2-15.4-7.2-21.9-17.5c0,0,0,0,0-0.1c-3-4.5-4.9-8.7-6-12.2c-0.1-0.2-0.2-0.4-0.2-0.6
			c0,0,0,0,0.1,0.1C75.2,111.4,76,106.9,76,106.9z"/>
		<g>
			<defs>
				<path id="XMLID_243_" d="M106.3,105.7c0,0,11.5,3.6,24.7-2.3c0,0,10.1,23.9-4.6,45.4c0,0-9.2,3.7-21,0
					C105.4,148.8,118.8,130.4,106.3,105.7z"/>
			</defs>
			<clipPath id="XMLID_276_">
				<use xlink:href="#XMLID_243_"  style="overflow:visible;"/>
			</clipPath>
			<path style="clip-path:url(#XMLID_276_);fill:#89DBD8;" d="M125,151.3l-2.3-1c10-24.2,0.6-45.1,0.5-45.3l2.3-1
				C125.9,104.9,135.4,126.1,125,151.3z"/>
			<path style="clip-path:url(#XMLID_276_);fill:#89DBD8;" d="M115,151.3l-2.3-1c10-24.2,0.6-45.1,0.5-45.3l2.3-1
				C115.9,104.9,125.4,126.1,115,151.3z"/>
		</g>
		<g>
			<rect x="14" y="57.9" transform="matrix(0.876 0.4824 -0.4824 0.876 39.4038 -1.4021)" class="st169" width="16.8" height="36"/>
			<rect x="5.9" y="69" transform="matrix(0.4824 -0.876 0.876 0.4824 -54.8935 58.9441)" class="st170" width="33" height="13.9"/>
			<ellipse transform="matrix(0.4824 -0.876 0.876 0.4824 -54.4789 58.7503)" class="st169" cx="22.5" cy="75.5" rx="5.8" ry="6"/>
			<path class="st171" d="M19.3,72.6c0,0-2.2,5,3,2.7c6.2-2.8,3.4,6.2,0.4,4.1c-3.2-2.3,4.9-3.6,0.1-6.9"/>
		</g>
		<g>
			<rect x="9.1" y="61.8" transform="matrix(0.9579 0.287 -0.287 0.9579 23.6513 -1.659)" class="st169" width="16.8" height="36"/>
			<rect x="1" y="72.9" transform="matrix(0.287 -0.9579 0.9579 0.287 -64.0074 73.6644)" class="st170" width="33" height="13.9"/>
			<ellipse transform="matrix(0.287 -0.9579 0.9579 0.287 -63.6165 73.296)" class="st169" cx="17.4" cy="79.4" rx="5.8" ry="6"/>
			<path class="st171" d="M13.7,77.3c0,0-1.1,5.3,3.5,2c5.5-4,4.6,5.3,1.2,3.9c-3.6-1.5,4-4.5-1.4-6.8"/>
		</g>
		<path class="st111" d="M0.3,96.9c-1.6-11.8,6.7-18.7,9.6-20.7c8.1,5.1,17.3,4.6,17.3,4.6c-3.5,3.4-10.3,3.3-10.3,3.3
			c1.8,1.8,9-0.7,9-0.7C21.6,88.9,14,87.6,14,87.6c2.1,1.4,8.7,0.2,8.7,0.2c-3.5,3.6-12.6,2.8-12.6,2.8c1.9,1.8,10-0.1,10-0.1
			s-1.9,2.2-6.2,4.1c0,0,0.1,0,0.1,0c-0.1,0.1-0.3,0.1-0.4,0.1c-2.2,0.9-5,1.7-8.4,2c0,0,0,0,0,0C3.3,96.9,1.8,97,0.3,96.9z"/>
	</g>
</g>
<g id="Layer_4">
</g>
<g id="Layer_5">
</g>
</svg>
