<?xml version="1.0" encoding="utf-8"?>
<!-- Generator: Adobe Illustrator 19.2.1, SVG Export Plug-In . SVG Version: 6.00 Build 0)  -->
<svg version="1.1" xmlns="http://www.w3.org/2000/svg" xmlns:xlink="http://www.w3.org/1999/xlink" x="0px" y="0px" width="134.5px"
	 height="183.1px" viewBox="0 0 134.5 183.1" style="enable-background:new 0 0 134.5 183.1;" xml:space="preserve">
<style type="text/css">
	.st0{fill-rule:evenodd;clip-rule:evenodd;fill:#57C4C6;}
	.st1{fill-rule:evenodd;clip-rule:evenodd;fill:#FF931E;}
	.st2{fill-rule:evenodd;clip-rule:evenodd;fill:#FF7BAC;}
	.st3{fill-rule:evenodd;clip-rule:evenodd;fill:#F2BC86;}
	.st4{display:none;}
	.st5{display:inline;opacity:0.22;}
	.st6{display:inline;opacity:0.22;fill-opacity:0.59;}
	.st7{display:inline;}
	.st8{display:inline;opacity:0.36;}
	.st9{clip-path:url(#SVGID_2_);fill:#87CDCD;}
	.st10{fill:#3B4547;}
	.st11{fill:#424242;}
	.st12{fill:#D3EDED;}
	.st13{fill:#B7BABB;}
	.st14{fill:#B9B9B9;}
	.st15{fill:#C6E0E0;}
	.st16{fill:#AAAEAF;}
	.st17{fill:#ADADAD;}
	.st18{fill:#B9D3D3;}
	.st19{fill:#9DA1A1;}
	.st20{fill:#9F9F9F;}
	.st21{fill:#A6C0C0;}
	.st22{fill:#8FA9A9;}
	.st23{fill:#9CB6B6;}
	.st24{clip-path:url(#SVGID_4_);fill:#8FA9A9;}
	.st25{clip-path:url(#SVGID_4_);fill:#EE6666;}
	.st26{clip-path:url(#SVGID_4_);fill:#FFFFFF;}
	.st27{clip-path:url(#SVGID_4_);fill:#372013;}
	.st28{fill:#FED245;}
	.st29{fill:#183249;}
	.st30{fill:#87CDCD;}
	.st31{fill:#454B53;}
	.st32{fill:#FFFDE9;}
	.st33{fill:#F26A44;}
	.st34{fill:#79B8B8;}
	.st35{fill:#EE6666;}
	.st36{fill:#FFFFFF;}
	.st37{fill:#90DBDB;}
	.st38{fill:#EED593;}
	.st39{fill:#372013;}
	.st40{fill:#EF4B33;}
	.st41{fill:#53380A;}
	.st42{fill:#E1E2E3;}
	.st43{fill:#2D567F;}
	.st44{fill:#4AAFAF;}
	.st45{fill:#57C4C6;}
	.st46{fill:#4D4D4D;}
	.st47{fill:#B4E219;}
	.st48{fill:#E6E7E8;}
	.st49{fill:#F2BC86;}
	.st50{clip-path:url(#XMLID_274_);fill:#F9D88F;}
	.st51{fill:#424750;}
	.st52{fill:#80C0AC;}
	.st53{fill:#6BA588;}
	.st54{fill:#F2C24E;}
	.st55{fill:#F9F0EB;}
	.st56{fill:none;stroke:#6BA588;stroke-miterlimit:10;}
	.st57{fill:#281A12;}
	.st58{fill:#E03E3E;}
	.st59{fill:#595C62;}
	.st60{fill:none;stroke:#C7C6C6;stroke-width:0.7565;stroke-miterlimit:10;}
	.st61{fill:#2B2C2D;}
	.st62{display:none;fill:#2B2A34;}
	.st63{display:inline;fill:#57BFC2;}
	.st64{clip-path:url(#SVGID_6_);}
	.st65{fill:none;stroke:#504F4F;stroke-width:2;stroke-miterlimit:10;}
	.st66{fill:#504F4F;}
	.st67{fill:#F16D6D;}
	.st68{fill:#87C6C0;}
	.st69{fill:#89DBD8;}
	.st70{fill-rule:evenodd;clip-rule:evenodd;fill:#444751;}
	.st71{fill-rule:evenodd;clip-rule:evenodd;fill:#D6D6D5;}
	.st72{fill:#2B2A34;}
	.st73{fill:none;stroke:#504F4F;stroke-miterlimit:10;}
	.st74{fill-rule:evenodd;clip-rule:evenodd;fill:#89DBD8;}
	.st75{fill-rule:evenodd;clip-rule:evenodd;fill:#87C6C0;}
	.st76{fill:#59473A;}
	.st77{fill:none;stroke:#F2C24E;stroke-miterlimit:10;}
	.st78{fill:none;stroke:#F2C24E;stroke-linecap:round;stroke-miterlimit:10;}
	.st79{fill:#F9D88F;}
	.st80{fill:#E9676D;}
	.st81{fill:#F6ECC3;}
	.st82{fill:#A6A8AB;}
	.st83{fill:none;stroke:#FFFFFF;stroke-width:5.289;stroke-miterlimit:10;}
	.st84{fill:#E6E6E6;}
	.st85{opacity:0.2;fill:none;stroke:#FFFFFF;stroke-width:3;stroke-miterlimit:10;}
	.st86{fill:none;stroke:#E9676D;stroke-linecap:round;stroke-miterlimit:10;}
	.st87{fill:#FCB856;}
	.st88{fill:none;stroke:#FCB856;stroke-linecap:round;stroke-miterlimit:10;}
	.st89{fill:none;stroke:#CBCACA;stroke-width:3.4513;stroke-miterlimit:10;}
	.st90{fill-rule:evenodd;clip-rule:evenodd;fill:#DADAD9;}
	.st91{fill:#469595;}
	.st92{fill:#2A2D35;}
	.st93{fill:#387D7B;}
	.st94{fill:#BFF7F5;}
	.st95{opacity:0.4;fill:#FFFFFF;}
	.st96{fill:#D3D3D3;}
	.st97{fill:none;stroke:#FFFFFF;stroke-width:5.0355;stroke-miterlimit:10;}
	.st98{fill:#EDE2A2;}
	.st99{fill:#EFDFA8;}
	.st100{fill:none;stroke:#EFDFA8;stroke-width:0.3783;stroke-miterlimit:10;}
	.st101{fill:#57BFC2;}
	.st102{clip-path:url(#SVGID_8_);}
	.st103{fill-rule:evenodd;clip-rule:evenodd;fill:#424750;}
	.st104{fill-rule:evenodd;clip-rule:evenodd;fill:#E1E2E3;}
	.st105{clip-path:url(#SVGID_10_);}
	.st106{fill:#BABABA;}
	.st107{clip-path:url(#SVGID_12_);}
	.st108{fill:#25A4A4;}
	.st109{fill:none;stroke:#C7C6C6;stroke-width:0.8879;stroke-miterlimit:10;}
	.st110{fill:#44C2CE;}
	.st111{fill:#C7C6C6;}
	.st112{fill-rule:evenodd;clip-rule:evenodd;fill:#F9F0EB;}
	.st113{fill-rule:evenodd;clip-rule:evenodd;fill:#595C62;}
	.st114{fill:#EC7045;}
	.st115{opacity:0.7;}
	.st116{fill:#90CED2;}
	.st117{fill:#882888;}
	.st118{fill:#C1C0C0;}
	.st119{fill:#768035;}
	.st120{fill:#E3B27C;}
	.st121{fill:#775644;}
	.st122{fill:#DBC7C2;}
	.st123{fill:#D95027;}
	.st124{clip-path:url(#SVGID_14_);}
	.st125{fill:none;stroke:#E6E6E6;stroke-miterlimit:10;}
	.st126{clip-path:url(#SVGID_16_);}
	.st127{fill:#2E465D;}
	.st128{fill:#422E21;}
	.st129{fill-rule:evenodd;clip-rule:evenodd;fill:#3C5F7C;}
	.st130{fill-rule:evenodd;clip-rule:evenodd;fill:#2E465D;}
	.st131{fill:#9FA0A3;}
	.st132{fill:#EA6A6D;}
	.st133{fill:#777777;}
	.st134{fill:#70533D;}
	.st135{fill:#3C5777;}
	.st136{fill:none;stroke:#E1E2E3;stroke-miterlimit:10;}
	.st137{fill:#314759;}
	.st138{fill:none;stroke:#314759;stroke-miterlimit:10;}
	.st139{fill:none;stroke:#3C5777;stroke-miterlimit:10;}
	.st140{fill:#80BBA8;}
	.st141{fill:#E94C64;}
	.st142{fill:#59C0C1;}
	.st143{fill:#8E8E8E;}
	.st144{fill:none;stroke:#504F4F;stroke-linecap:round;stroke-miterlimit:10;}
	.st145{clip-path:url(#SVGID_18_);}
	.st146{fill:#6F523C;}
	.st147{fill:#E2E1E1;}
	.st148{fill:#FAFAFA;}
	.st149{fill:#CECCCC;}
	.st150{clip-path:url(#SVGID_20_);}
	.st151{fill:#444444;}
	.st152{fill:#57C3C5;}
	.st153{fill:none;stroke:#676868;stroke-miterlimit:10;}
	.st154{clip-path:url(#SVGID_22_);}
	.st155{fill:#585D62;}
	.st156{fill:none;stroke:#CBCACA;stroke-width:0.5;stroke-miterlimit:10;}
	.st157{fill-rule:evenodd;clip-rule:evenodd;fill:#DBDBD9;}
	.st158{fill-rule:evenodd;clip-rule:evenodd;fill:#E7E6E6;}
	.st159{fill:#2A2A34;}
	.st160{fill:none;stroke:#424750;stroke-miterlimit:10;}
	.st161{fill:none;stroke:#80C0AC;stroke-width:0.5;stroke-linecap:round;stroke-miterlimit:10;}
	.st162{fill:#E7E6E6;}
	.st163{fill:none;stroke:#80C0AC;stroke-width:0.5;stroke-linecap:round;stroke-linejoin:round;stroke-miterlimit:10;}
	.st164{fill:#D8563B;}
	.st165{fill:#3B79A3;}
	.st166{fill:#52ACC1;}
	.st167{fill:none;stroke:#3B79A3;stroke-miterlimit:10;}
	.st168{fill:none;stroke:#80C0AC;stroke-width:0.5;stroke-miterlimit:10;}
	.st169{fill:#5DC667;}
	.st170{fill:#EDE9C3;}
	.st171{fill:none;stroke:#FCD98D;stroke-linecap:round;stroke-miterlimit:10;}
	.st172{clip-path:url(#XMLID_275_);fill:#89DBD8;}
	.st173{clip-path:url(#XMLID_276_);fill:#A3E8E3;}
	.st174{clip-path:url(#XMLID_277_);fill:#89DBD8;}
	.st175{clip-path:url(#XMLID_278_);fill:#89DBD8;}
	.st176{clip-path:url(#XMLID_279_);fill:#A3E8E3;}
	.st177{clip-path:url(#XMLID_280_);fill:#89DBD8;}
	.st178{fill:#42474F;}
	.st179{fill:#585C61;}
	.st180{fill:none;stroke:#CCCBCB;stroke-width:0.1425;stroke-miterlimit:10;}
	.st181{fill-rule:evenodd;clip-rule:evenodd;fill:#434750;}
	.st182{fill-rule:evenodd;clip-rule:evenodd;fill:#DBDBDA;}
	.st183{fill:#F3E7A8;}
	.st184{fill:#F4E4AD;}
	.st185{fill:none;stroke:#F4E4AD;stroke-width:7.124000e-02;stroke-miterlimit:10;}
	.st186{fill:#57C4C7;}
	.st187{clip-path:url(#SVGID_24_);}
	.st188{fill-rule:evenodd;clip-rule:evenodd;fill:#42474F;}
	.st189{fill-rule:evenodd;clip-rule:evenodd;fill:#E6E7E8;}
	.st190{fill:#3D447A;}
	.st191{fill:#EF5273;}
	.st192{fill:#3A3A3A;}
	.st193{fill-rule:evenodd;clip-rule:evenodd;fill:#43474F;}
	.st194{fill:none;stroke:#F4E4AD;stroke-width:0.454;stroke-miterlimit:10;}
	.st195{clip-path:url(#SVGID_26_);fill:#E6E7E8;}
	.st196{fill:#E5D9BE;}
	.st197{fill:#F7F1E2;}
	.st198{fill:#B5967D;}
	.st199{clip-path:url(#SVGID_28_);fill:#E6E7E8;}
	.st200{fill:#FCD224;}
	.st201{fill:#ADDB19;}
	.st202{fill:#E85273;}
	.st203{fill-rule:evenodd;clip-rule:evenodd;fill:#504F4F;}
	.st204{fill-rule:evenodd;clip-rule:evenodd;fill:#FFFFFF;}
	.st205{fill-rule:evenodd;clip-rule:evenodd;fill:none;stroke:#4D4D4D;stroke-miterlimit:10;}
	.st206{clip-path:url(#XMLID_281_);fill:#F9D88F;}
	.st207{clip-path:url(#XMLID_281_);fill:#FCE7BE;}
	.st208{clip-path:url(#SVGID_30_);fill:#FCE7BE;}
	.st209{clip-path:url(#SVGID_32_);fill:#FCE7BE;}
	.st210{clip-path:url(#SVGID_34_);fill:#FCE7BE;}
	.st211{fill-rule:evenodd;clip-rule:evenodd;fill:#E85273;}
	.st212{fill-rule:evenodd;clip-rule:evenodd;fill:#3D447A;}
	.st213{fill-rule:evenodd;clip-rule:evenodd;fill:none;stroke:#4D4D4D;stroke-width:2;stroke-miterlimit:10;}
	.st214{fill:#96D696;}
	.st215{clip-path:url(#XMLID_282_);fill:#96D696;}
	.st216{fill-rule:evenodd;clip-rule:evenodd;fill:#92BA85;}
	.st217{fill-rule:evenodd;clip-rule:evenodd;fill:#EFEFE4;}
	.st218{fill-rule:evenodd;clip-rule:evenodd;fill:#E0E0C7;}
	.st219{fill:#999999;}
	.st220{fill:#C69C6D;}
	.st221{fill:none;stroke:#4D4D4D;stroke-miterlimit:10;}
	.st222{clip-path:url(#XMLID_283_);fill:#96D696;}
	.st223{fill:#F9C543;}
	.st224{fill:#355B77;}
	.st225{fill:#C49B49;}
	.st226{fill:#9AC68F;}
	.st227{clip-path:url(#XMLID_284_);fill:#B4D6AA;}
	.st228{clip-path:url(#XMLID_285_);fill:#A7DBA7;}
	.st229{clip-path:url(#XMLID_286_);fill:#B4D6AA;}
	.st230{fill:#4D4D4F;}
	.st231{fill:#69502E;}
	.st232{fill:#3F3F3F;}
	.st233{fill:#4C381B;}
	.st234{fill:#919090;}
	.st235{fill:#74DDE2;}
	.st236{fill:#59B5CE;}
	.st237{fill:#71D3F4;}
	.st238{fill:#EDEFED;}
	.st239{fill:none;stroke:#CCCCCC;stroke-miterlimit:10;stroke-dasharray:1,1;}
	.st240{fill:#72A9C1;}
	.st241{fill:#82F4F1;}
	.st242{fill:#F2F2F2;}
	.st243{clip-path:url(#XMLID_287_);fill:#F9D88F;}
	.st244{fill:#74777C;}
	.st245{fill:#EF89B0;}
	.st246{fill:#3F6B9E;}
	.st247{fill:#D21C5A;}
	.st248{fill:#EDC169;}
	.st249{fill:#DDAC57;}
	.st250{fill:#92BA85;}
	.st251{fill:#29507F;}
</style>
<g id="Layer_3">
</g>
<g id="sketch" class="st4">
</g>
<g id="illustration">
	<g>
		<path class="st42" d="M0.1,93.6c2.8-6.8,4.5-3.5,8.8-2.7c0,0-3.8-5.9,0.1-4.4c0,0-2.6-7.7,1.7-7.2c0,0-2.4-11.4,4.1-6.3
			c11.7,9.2,32.7,18.1,59.4-4l-2,33.8l-20.1,23.8c0,0-28.9,9.6-46-19.5c0,0,0,0,0-0.1c-3-4.8-4.8-9.2-5.8-13
			c-0.1-0.2-0.2-0.4-0.2-0.7C0,93.5,0,93.5,0.1,93.6"/>
		<path class="st165" d="M28.1,126.1c16,4.8,27.8,3.8,27.8,3.8l15.5-31.8l-1.1-30.9C55.1,82.4,41,84.3,30,81.6c0,0,2.9,5.9,3.7,19.3
			C34.5,114.3,28.1,126.1,28.1,126.1z"/>
		<path class="st155" d="M104.7,165l-0.1,0c11.9-6.2,19.9-18.3,19.9-32.2c0-20.2-17.1-36.6-38.1-36.6c-21,0-38.1,16.4-38.1,36.6
			c0,13.9,8.1,26,19.9,32.2l-0.1,0c5.8,3.3,10,8.9,11.2,15.5c0.3-0.1,1.4-0.7,3,0v-11.3c1.3,0.1,2.7,0.2,4.1,0.2
			c1.4,0,2.7-0.1,4.1-0.2v11.3c1.6-0.7,2.8-0.1,3,0C94.8,173.9,98.9,168.3,104.7,165z"/>
		<circle class="st156" cx="86.4" cy="98.6" r="25"/>
		<path class="st92" d="M86.4,70.2c-25.3,0-45.8,22.9-45.8,51.1c0,17.4,7.8,32.8,19.7,42c24-9.2,26.1-35.2,26.1-35.2
			c3.6,24.2,18.4,32.6,25.8,35.4c12.1-9.2,20-24.7,20-42.2C132.2,93.1,111.7,70.2,86.4,70.2z"/>
		<circle class="st70" cx="86.8" cy="67.1" r="2.2"/>
		<circle class="st157" cx="86.8" cy="67.1" r="0.5"/>
		<path class="st72" d="M110.6,124.8l0.6-0.2l0,0.1c-0.1,0-0.1,0-0.1,0.1c0,0,0,0,0,0.1c0,0,0,0,0,0.1c0,0,0.1,0,0.1,0.1
			c0,0,0.1,0.1,0.1,0.1c0.1,0,0.1,0.1,0.2,0.1c0-0.1,0.1-0.2,0.1-0.3c0-0.1,0-0.2,0-0.2c0,0,0,0,0,0c0,0-0.1,0-0.1,0l0-0.1l0.5-0.2
			l0,0.1c0,0,0,0-0.1,0c0,0,0,0-0.1,0c0,0,0,0.1-0.1,0.1c0,0,0,0.1,0,0.1c0,0.1,0,0.2-0.1,0.3c0,0.1-0.1,0.2-0.1,0.3
			c0.1,0,0.1,0.1,0.2,0.1c0.1,0.1,0.2,0.1,0.3,0.2c0,0,0.1,0,0.1,0.1c0,0,0,0,0.1,0c0,0,0,0,0.1,0c0,0,0.1,0,0.1,0l0,0.1l-0.6,0.2
			l0-0.1c0,0,0.1,0,0.1-0.1c0,0,0.1,0,0-0.1c0,0,0,0,0-0.1c0,0-0.1,0-0.1-0.1c0,0-0.1-0.1-0.1-0.1c0,0-0.1-0.1-0.2-0.1
			c0,0.1-0.1,0.2-0.1,0.3c0,0.1,0,0.2,0,0.2c0,0,0,0,0.1,0c0,0,0.1,0,0.1,0l0,0.1l-0.5,0.2l0-0.1c0,0,0,0,0.1,0c0,0,0,0,0.1,0
			c0,0,0-0.1,0.1-0.1c0,0,0-0.1,0-0.1c0-0.1,0-0.2,0.1-0.2c0-0.1,0-0.2,0.1-0.3c-0.1-0.1-0.2-0.1-0.3-0.2c-0.1-0.1-0.2-0.1-0.3-0.2
			c0,0-0.1,0-0.1-0.1c0,0-0.1,0-0.1,0C110.8,124.8,110.7,124.8,110.6,124.8C110.7,124.8,110.7,124.8,110.6,124.8L110.6,124.8z"/>
		<path class="st72" d="M110.1,125l0.6-0.2l0,0.1c0,0,0,0-0.1,0c0,0-0.1,0-0.1,0c0,0,0,0,0,0c0,0,0,0,0,0.1l0.4,1c0,0,0,0,0,0.1
			c0,0,0,0,0.1,0c0,0,0,0,0.1,0c0,0,0.1,0,0.1,0l0,0.1l-0.6,0.2l0-0.1c0,0,0,0,0.1,0c0,0,0,0,0.1,0c0,0,0,0,0-0.1c0,0,0,0,0-0.1
			l-0.4-1c0,0,0,0,0-0.1c0,0,0,0-0.1,0c0,0,0,0-0.1,0C110.2,125,110.2,125,110.1,125L110.1,125z"/>
		<path class="st72" d="M109.5,125.2l0.6-0.2l0,0.1c0,0,0,0-0.1,0c0,0-0.1,0-0.1,0c0,0,0,0,0,0c0,0,0,0,0,0.1l0.4,1c0,0,0,0,0,0.1
			c0,0,0,0,0.1,0c0,0,0,0,0.1,0c0,0,0.1,0,0.1,0l0,0.1l-0.6,0.2l0-0.1c0,0,0,0,0.1,0c0,0,0,0,0.1,0c0,0,0,0,0-0.1c0,0,0,0,0-0.1
			l-0.4-1c0,0,0,0,0-0.1c0,0,0,0-0.1,0c0,0,0,0-0.1,0C109.6,125.2,109.6,125.3,109.5,125.2L109.5,125.2z"/>
		<path class="st72" d="M117.5,127.8l0.2,0.6l-0.1,0c0,0,0,0,0-0.1c0,0,0-0.1,0-0.1c0,0,0,0,0,0c0,0,0,0-0.1,0l-1,0.3c0,0,0,0-0.1,0
			c0,0,0,0,0,0.1c0,0,0,0,0,0.1c0,0,0,0.1,0,0.1l-0.1,0l-0.2-0.6l0.1,0c0,0,0,0,0,0.1c0,0,0,0,0,0.1c0,0,0,0,0.1,0c0,0,0,0,0.1,0
			l1-0.3c0,0,0,0,0.1,0c0,0,0,0,0-0.1C117.5,128,117.5,127.9,117.5,127.8C117.5,127.9,117.5,127.9,117.5,127.8L117.5,127.8z"/>
		<path class="st72" d="M117.4,127.2l0.2,0.6l-0.1,0c0,0,0,0,0-0.1c0,0,0-0.1,0-0.1c0,0,0,0,0,0c0,0,0,0-0.1,0l-1,0.3c0,0,0,0-0.1,0
			c0,0,0,0,0,0.1c0,0,0,0,0,0.1c0,0,0,0.1,0,0.1l-0.1,0l-0.2-0.6l0.1,0c0,0,0,0,0,0.1c0,0,0,0,0,0.1c0,0,0,0,0.1,0c0,0,0,0,0.1,0
			l1-0.3c0,0,0,0,0.1,0c0,0,0,0,0-0.1c0,0,0,0,0-0.1C117.3,127.3,117.3,127.3,117.4,127.2L117.4,127.2z"/>
		<path class="st72" d="M117.2,126.7l0.2,0.6l-0.1,0c0,0,0,0,0-0.1c0,0,0-0.1,0-0.1c0,0,0,0,0,0c0,0,0,0-0.1,0l-1,0.3c0,0,0,0-0.1,0
			c0,0,0,0,0,0.1c0,0,0,0,0,0.1c0,0,0,0.1,0,0.1l-0.1,0l-0.2-0.6l0.1,0c0,0,0,0,0,0.1c0,0,0,0,0,0.1c0,0,0,0,0.1,0c0,0,0,0,0.1,0
			l1-0.3c0,0,0,0,0.1,0c0,0,0,0,0-0.1c0,0,0,0,0-0.1C117.1,126.7,117.1,126.7,117.2,126.7L117.2,126.7z"/>
		<path class="st72" d="M107.3,131.4l-0.2-0.6l0.1,0c0,0,0,0,0,0.1c0,0,0,0.1,0,0.1c0,0,0,0,0,0c0,0,0,0,0.1,0l1-0.3c0,0,0,0,0.1,0
			c0,0,0,0,0-0.1c0,0,0,0,0-0.1c0,0,0-0.1,0-0.1l0.1,0l0.2,0.6l-0.1,0c0,0,0,0,0-0.1c0,0,0,0,0-0.1c0,0,0,0-0.1,0c0,0,0,0-0.1,0
			l-1,0.3c0,0,0,0-0.1,0c0,0,0,0,0,0.1c0,0,0,0,0,0.1C107.4,131.4,107.4,131.4,107.3,131.4L107.3,131.4z"/>
		<path class="st72" d="M107.7,132.5l-0.2-0.6l0.1,0c0,0.1,0,0.1,0.1,0.1c0,0,0,0,0.1,0c0,0,0,0,0.1,0c0,0,0.1-0.1,0.1-0.1
			c0,0,0.1-0.1,0.1-0.1c0-0.1,0.1-0.1,0.1-0.2c-0.1,0-0.2-0.1-0.3-0.1c-0.1,0-0.2-0.1-0.2,0c0,0,0,0,0,0c0,0,0,0.1,0,0.1l-0.1,0
			l-0.2-0.5l0.1,0c0,0,0,0,0,0.1c0,0,0,0,0,0.1c0,0,0.1,0,0.1,0.1c0,0,0.1,0,0.1,0c0.1,0,0.2,0,0.3,0.1c0.1,0,0.2,0.1,0.3,0.1
			c0-0.1,0.1-0.1,0.2-0.2c0.1-0.1,0.1-0.2,0.2-0.3c0,0,0.1-0.1,0.1-0.1c0,0,0,0,0-0.1c0,0,0,0,0-0.1c0,0,0-0.1,0-0.1l0.1,0l0.2,0.6
			l-0.1,0c0,0,0-0.1-0.1-0.1c0,0,0-0.1-0.1,0c0,0,0,0-0.1,0c0,0-0.1,0.1-0.1,0.1c0,0-0.1,0.1-0.1,0.1c0,0-0.1,0.1-0.1,0.1
			c0.1,0,0.2,0.1,0.3,0.1c0.1,0,0.2,0,0.2,0c0,0,0,0,0-0.1c0,0,0-0.1,0-0.1l0.1,0l0.2,0.5l-0.1,0c0,0,0,0,0-0.1c0,0,0,0,0-0.1
			c0,0-0.1,0-0.1-0.1c0,0-0.1,0-0.1,0c-0.1,0-0.2-0.1-0.2-0.1c-0.1,0-0.2-0.1-0.3-0.1c-0.1,0.1-0.1,0.2-0.2,0.3
			c-0.1,0.1-0.1,0.2-0.2,0.3c0,0,0,0.1-0.1,0.1c0,0,0,0.1,0,0.1C107.7,132.3,107.7,132.3,107.7,132.5
			C107.7,132.4,107.7,132.4,107.7,132.5L107.7,132.5z"/>
		
			<ellipse transform="matrix(0.9585 -0.285 0.285 0.9585 -32.1781 37.4884)" class="st72" cx="112.7" cy="129.3" rx="0.2" ry="0.2"/>
		
			<rect x="112.1" y="126.8" transform="matrix(0.9254 -0.379 0.379 0.9254 -40.1811 52.0977)" class="st72" width="0.2" height="2.6"/>
		<polygon class="st92" points="114.4,128.5 114.5,128.7 112.8,129.4 112.7,129.2 		"/>
		<polyline class="st72" points="112.1,126.8 111.6,126.5 111.5,127.2 112.1,126.9 		"/>
		<polyline class="st72" points="114.5,128.9 114.9,128.4 114.2,128.3 114.4,128.9 		"/>
		<circle class="st70" cx="86.8" cy="79.6" r="2.2"/>
		<circle class="st157" cx="86.8" cy="79.6" r="0.5"/>
		<circle class="st158" cx="86.8" cy="67.1" r="0.5"/>
		<circle class="st158" cx="86.8" cy="81.8" r="0.5"/>
		<g>
			<path class="st159" d="M89.3,179.7c0-0.3,0.3-0.6,0.6-0.6c0,0,0.8,0.6,2.1,0.6c1.4,0,2.3-0.9,2.6-0.6c2.1,1.9,6.7,2.3,6.7,2.3
				c0.3,0,0.4,0.4,0.2,0.7c-0.1,0.1-0.1,0.1-0.1,0.2l0.1,0.1c0,0.3-0.3,0.6-0.6,0.6H89.8c-0.3,0-0.6-0.3-0.6-0.6L89.3,179.7z"/>
			<path class="st159" d="M83.4,182.6c0,0.3-0.3,0.6-0.6,0.6H71.6c-0.3,0-0.6-0.3-0.6-0.6l0.1-0.1c0-0.1-0.1-0.1-0.1-0.2
				c-0.3-0.3-0.1-0.7,0.2-0.7c0,0,4.6-0.4,6.7-2.3c0.3-0.3,1.3,0.6,2.6,0.6c1.4,0,2.1-0.6,2.1-0.6c0.3,0,0.6,0.3,0.6,0.6L83.4,182.6
				z"/>
		</g>
		<path class="st51" d="M105.9,131.6c0,0,14.6,1.8,26.1-6.6l-0.3,2.9c0,0-6.9,7.5-25.9,6.4V131.6z"/>
		<g>
			<path class="st166" d="M68.9,57.4c-0.3,2.3-1.7,0.3-2.5,2.7C64.4,67,61.2,78.7,54,85.7c0,0,6.7,26,32.4,26
				c25.8,0,32.4-26,32.4-26c-7-6.7-10.2-18.7-12.4-25.4c-0.9-2.8-2.4-0.7-2.7-3.3"/>
			<g>
				<path class="st166" d="M86.4,70.2c-25.3,0-45.8,22.9-45.8,51.1c0,17.4,7.8,32.8,19.7,42c21.6-0.4,25.9-13.7,25.9-13.7
					c5.6,13.9,25.9,13.9,25.9,13.9c12.1-9.2,20-24.7,20-42.2C132.2,93.1,111.7,70.2,86.4,70.2z"/>
				<line class="st167" x1="86.2" y1="94.7" x2="86.2" y2="151"/>
			</g>
		</g>
		<g>
			<path class="st165" d="M66.5,60.1c0,0-7.7,28.4,7.2,30.6c2.6,0.4,4.8-1.1,4.8-1.1l7.8,5.8L66.5,60.1z"/>
			<path class="st165" d="M106.4,60.1c0,0,7.3,28.4-7.6,30.6c-2.6,0.4-4.8-1.1-4.8-1.1l-7.8,5.8L106.4,60.1z"/>
			<path class="st168" d="M68.3,63.4c0,0-4.2,21.2,5.2,25.2c1.5,0.6,5,1,5,1"/>
			<path class="st168" d="M104.4,63.6c0,0,4,21.1-5.3,25.1c-1.5,0.6-5,1-5,1"/>
		</g>
		<g>
			<path class="st162" d="M106.9,27.2c0.3-5.8-0.1-12.1-2.4-16.4c-1.2-3.4-5-5.4-8.9-6.7c1.7,0,3.2,0,3.2,0
				c-4.1-2.8-7.8-2.6-10.5-1.6c-0.8-0.1-1.5-0.2-1.9-0.2c1.9-1.1,4.1-1.9,4.1-1.9c-6.4-1.6-11.9,1.9-14.3,3.8
				c-3.8,1.3-7.5,3.3-8.6,6.6c-2.3,4.3-2.7,10.6-2.4,16.4c-0.3,5.4,0,9.6,1.1,13.6c3.2,7.6,1.7,13.4,0.1,19.3l19.8,35.3l0,0
				l20.2-35.2c-1.4-5.4-4.4-12.2-0.8-19.5C106.9,36.8,107.1,31.8,106.9,27.2z"/>
			<path class="st36" d="M76.9,23.5c0.1,1.8-1.9,3.4-4.3,3.4c-2.4,0.1-4.4-1.3-4.5-3.1c-0.1-1.8,1.9-3.4,4.3-3.4
				C74.8,20.3,76.8,21.7,76.9,23.5z"/>
			<path class="st72" d="M74.5,23.3c0.2,1.1-0.6,2.1-1.7,2.3c-1.1,0.2-2.2-0.6-2.3-1.7c-0.2-1.1,0.6-2.1,1.7-2.3
				C73.3,21.4,74.3,22.2,74.5,23.3z"/>
			<path class="st36" d="M103.8,23.5c0.1,1.8-1.9,3.4-4.3,3.4c-2.4,0.1-4.5-1.3-4.5-3.1c-0.1-1.8,1.9-3.4,4.3-3.4
				C101.7,20.3,103.8,21.7,103.8,23.5z"/>
			<path class="st72" d="M101.4,23.3c0.2,1.1-0.6,2.1-1.7,2.3c-1.1,0.2-2.2-0.6-2.3-1.7c-0.1-1.1,0.6-2.1,1.7-2.3
				C100.2,21.4,101.3,22.2,101.4,23.3z"/>
			<path class="st72" d="M115.3,18.6c0,0,0-0.7-1.3-0.9c-1.3-0.2-2.3-1.1-14.4-0.8c-8.6,0.7-11.1,1.7-11.1,1.7s-0.5,0.1-1.1,0.2
				c-0.3,0.1-0.7,0.1-1.1,0.1c-0.4,0-0.8,0-1.2-0.1c-0.6-0.1-1-0.2-1-0.2s-2.5-1-11.1-1.7c-12.1-0.3-13.1,0.6-14.4,0.8
				c-1.3,0.2-1.3,0.9-1.3,0.9l0,0.8C57.4,21.9,58,22,58,22c0.1,0.2,0.3,0.5,0.3,0.5c0.7,0.3,1.5,3,1.5,3c1.1,3.3,2.9,3.8,2.9,3.8
				c4.8,1.7,12.6,0.8,12.6,0.8s4.4-0.1,5.8-1.9c1-1.3,2.6-5.3,2.6-5.3s0.3-0.6,0.9-1c0.7-0.3,1.7-0.3,1.7-0.3s1,0,1.7,0.3
				c0.6,0.4,1,1.1,1,1.1s1.4,4,2.5,5.2c1.4,1.8,5.8,1.9,5.8,1.9s7.8,0.9,12.6-0.8c0,0,1.8-0.4,2.9-3.8c0,0,0.9-2.7,1.5-3
				c0,0,0.3-0.4,0.3-0.5c0,0,0.6,0,0.5-2.5L115.3,18.6z M82.2,23.3c-1.2,4.3-2.9,4.8-2.9,4.8c-6.7,2.1-13.8,0.7-13.8,0.7
				c-3.1-0.2-3.8-2.4-3.8-2.4c-1.1-2.3-1.4-6.4-1.4-6.4c0-1.9,4.6-1.9,4.6-1.9c10.9-0.6,16.2,1.1,16.2,1.1
				C83.4,20.1,82.2,23.3,82.2,23.3z M111.1,26.4c0,0-0.6,2.1-3.8,2.4c0,0-7.1,1.4-13.8-0.7c0,0-1.7-0.4-2.9-4.8c0,0-1.2-3.3,1.1-4.1
				c0,0,5.2-1.8,16.2-1.1c0,0,4.6,0,4.6,1.9C112.5,20,112.2,24.1,111.1,26.4z"/>
			<path class="st51" d="M86.2,28.1c-2.2,3.7-6.9,4.7-6.9,4.7c3.6,2.2,6.9,9.1,6.9,9.1s3.6-6.9,7.1-9.1
				C93.4,32.8,88.4,31.8,86.2,28.1z"/>
		</g>
		<path class="st168" d="M34.8,82.5C40,94.6,41,117,33.4,127.2"/>
		<polygon class="st148" points="107.9,95.1 104.8,93.9 112.1,75.9 114.2,79.7 		"/>
		<polygon class="st148" points="65,95.1 68.1,93.9 60.8,75.9 58.7,79.7 		"/>
		<g>
			<path class="st202" d="M30.8,48.5l-5.3,4.1c-0.7,0.5-1.4-0.1-0.9-0.8l3.8-5.5c0.3-0.4,0.8-0.5,1.1-0.2l1.5,1.4
				C31.3,47.7,31.2,48.2,30.8,48.5z"/>
			<path class="st200" d="M40.5,51.6L36,50.6l-0.5,2l-5.2-1.2c0.9-3.3-1.8-5.5-4.8-7.4l1.3-5.3l11.7,2.8l2.7,9.4
				C41.4,51.3,41,51.8,40.5,51.6z"/>
			<polygon class="st202" points="26.9,38.6 25.6,43.9 22.5,42.3 23.5,37.8 			"/>
			<path class="st236" d="M35.7,52.5c0.4,0.2,0.7,0.7,0.8,1.1c0.1,0.4-0.8,20-0.8,20L30,97.4c-0.2,0.8-0.6,1.5-1.4,2
				c-0.2,0.1-0.3,0.2-0.5,0.2c-0.5,0.2-1,0.2-1.6,0.1C23.1,98.9,5.7,95,5.3,94.6c-0.5-0.4-1.3-1.8-1.4-2.5
				c-0.1-0.7,10.3-29.5,10.3-29.5c0.6-0.9,0.8-1.3,1.9-1.4c0,0,7-0.5,9.2-1.6c1.8-0.9,3-5.9,3.8-7.7c0.2-0.4,1-0.7,1.4-0.7
				C30.9,51.3,35.4,52.3,35.7,52.5z"/>
			<path class="st237" d="M13.2,64.5c-2.6,8-9.5,26.7-9.4,27.3c0.1,0.7,0.9,2.3,1.4,2.7c0.5,0.4,17.9,4.4,21.3,5.2
				c0.5,0.1,1.1,0.2,1.6,0c0.2-0.1,0.3-0.1,0.5-0.2c0.7-0.4,1.2-1.2,1.4-2l5.8-24.2c0,0,0.2-3.5,0.3-8.5L13.2,64.5z"/>
		</g>
		<path class="st42" d="M0.3,94.1c-1.8-13.6,7.7-21.5,11-23.7c9.2,5.9,19.8,5.3,19.8,5.3c-4,3.9-11.9,3.8-11.9,3.8
			c2.1,2.1,10.3-0.8,10.3-0.8C24.7,84.9,16,83.4,16,83.4c2.5,1.6,9.9,0.2,9.9,0.2c-4,4.1-14.4,3.2-14.4,3.2c2.2,2,11.4-0.1,11.4-0.1
			s-2.2,2.6-7.1,4.6c0.1,0,0.1,0,0.1,0c-0.2,0.1-0.3,0.1-0.5,0.2c-2.5,1-5.7,1.9-9.7,2.3c0,0,0,0,0,0C3.8,94.1,2,94.2,0.3,94.1z"/>
		<path class="st148" d="M134.5,126.3c-14-5.6-22.8-24.4-25.7-31.2c-0.6-1.5-2.2-2.8-3.8-2.8H68c-1.7,0-3.2,1.2-3.8,2.8
			c-2.5,5.9-11.5,23-23.4,29.8c0.1,1,0.2,3.2,0.4,4.4h7.6c1.1,0.2,3.5,1,3.5,4c0,0,0,0.2,0,0.3c0,12.1,15.3,21.9,34.3,21.9
			s34.3-9.8,34.3-21.9c0-0.1,0-0.3,0-0.3h-0.4v-4h0.6h2.8h10.7c0,0,0.1-0.8,0.1-1.3C134.5,127.4,134.4,127.3,134.5,126.3
			L134.5,126.3z"/>
		<path class="st238" d="M70.3,124.3V137c0,4.8,7.1,8.7,16,8.7s16-3.9,16-8.7v-12.7H70.3z"/>
		<line class="st239" x1="70.3" y1="126.8" x2="102.3" y2="126.8"/>
		<g>
			<path class="st165" d="M104.3,104.2c0,0,11.3,3.5,24.3-2.3c0,0,9.2,21-2.5,44.5c0,0-11,4-22.7,0.3
				C103.4,146.7,116.6,128.5,104.3,104.2z"/>
			<path class="st162" d="M74.4,105.4c0,0,5.7,11.5,9.7,12c0,0-9.9-10-9-17.8c0,0,5,9,8.7,10.2c0,0-9-7.9-6.7-18.3
				c0,0,4,11,8.1,11.4c0,0-6.8-8.1-6.2-15.6c0,0,9.6,13.1,25.4,17c3.4,6.1,5.3,13,5.3,20.4c0,8.1-2.3,15.6-6.2,22
				c-7.3-2.2-15.2-7.1-21.6-17.2c0,0,0,0,0-0.1c-3-4.5-4.8-8.6-5.9-12.1c-0.1-0.2-0.2-0.4-0.2-0.6c0,0,0,0,0.1,0.1
				C73.6,109.8,74.4,105.4,74.4,105.4z"/>
			<path class="st168" d="M112.2,105.6c-1.7-4,12.2,25.8-3.4,42.5"/>
		</g>
	</g>
</g>
<g id="Layer_4">
</g>
<g id="Layer_5">
</g>
</svg>
