<?xml version="1.0" encoding="utf-8"?>
<!-- Generator: Adobe Illustrator 19.1.0, SVG Export Plug-In . SVG Version: 6.00 Build 0)  -->
<svg version="1.1" id="P_Johns" xmlns="http://www.w3.org/2000/svg" xmlns:xlink="http://www.w3.org/1999/xlink" x="0px" y="0px"
	 viewBox="0 0 170 170" style="enable-background:new 0 0 170 170;" xml:space="preserve">
<style type="text/css">
	.st0{fill:#E1E2E3;}
	.st1{fill:#44C2CE;}
	.st2{fill:#3B79A3;}
	.st3{fill:#424750;}
	.st4{fill:none;stroke:#504F4F;stroke-width:2;stroke-miterlimit:10;}
	.st5{fill:#504F4F;}
	.st6{fill:#F16D6D;}
	.st7{fill:#87C6C0;}
	.st8{fill:#89DBD8;}
	.st9{fill:none;stroke:#C7C6C6;stroke-width:0.7565;stroke-miterlimit:10;}
	.st10{fill-rule:evenodd;clip-rule:evenodd;fill:#444751;}
	.st11{fill-rule:evenodd;clip-rule:evenodd;fill:#D6D6D5;}
	.st12{fill:#FFFFFF;}
	.st13{fill:#2B2A34;}
	.st14{fill:#2B2C2D;}
	.st15{fill:none;stroke:#504F4F;stroke-miterlimit:10;}
	.st16{fill-rule:evenodd;clip-rule:evenodd;fill:#89DBD8;}
	.st17{fill-rule:evenodd;clip-rule:evenodd;fill:#87C6C0;}
	.st18{fill:#59473A;}
	.st19{fill:none;stroke:#F2C24E;stroke-miterlimit:10;}
	.st20{fill:none;stroke:#F2C24E;stroke-linecap:round;stroke-miterlimit:10;}
	.st21{fill:#E9676D;}
	.st22{fill:#F6ECC3;}
	.st23{fill:#A6A8AB;}
	.st24{fill:none;stroke:#FFFFFF;stroke-width:5.289;stroke-miterlimit:10;}
	.st25{fill:#E6E6E6;}
	.st26{opacity:0.2;fill:none;stroke:#FFFFFF;stroke-width:3;stroke-miterlimit:10;}
	.st27{fill:none;stroke:#E9676D;stroke-linecap:round;stroke-miterlimit:10;}
	.st28{fill:#FCB856;}
	.st29{fill:none;stroke:#FCB856;stroke-linecap:round;stroke-miterlimit:10;}
	.st30{fill:none;stroke:#CBCACA;stroke-width:3.4513;stroke-miterlimit:10;}
	.st31{fill-rule:evenodd;clip-rule:evenodd;fill:#DADAD9;}
	.st32{fill:#469595;}
	.st33{fill:#2A2D35;}
	.st34{fill:#387D7B;}
	.st35{fill:#BFF7F5;}
	.st36{opacity:0.4;fill:#FFFFFF;}
	.st37{fill:#D3D3D3;}
	.st38{fill:none;stroke:#FFFFFF;stroke-width:5.0355;stroke-miterlimit:10;}
	.st39{fill:#777777;}
	.st40{fill:#70533D;}
	.st41{fill:#EA6A6D;}
	.st42{fill:#C7C6C6;}
	.st43{fill:#9FA0A3;}
	.st44{fill:#3C5777;}
	.st45{fill:#F2C24E;}
	.st46{fill:none;stroke:#E1E2E3;stroke-miterlimit:10;}
	.st47{fill:#314759;}
	.st48{fill:none;stroke:#314759;stroke-miterlimit:10;}
	.st49{fill:none;stroke:#3C5777;stroke-miterlimit:10;}
	.st50{fill:#80BBA8;}
	.st51{fill:#E94C64;}
	.st52{fill:#59C0C1;}
	.st53{fill:#8E8E8E;}
	.st54{fill:#80C0AC;}
	.st55{fill:none;stroke:#504F4F;stroke-linecap:round;stroke-miterlimit:10;}
	.st56{fill:#F9D88F;}
	.st57{fill:#BABABA;}
	.st58{clip-path:url(#XMLID_3_);fill:#F9D88F;}
	.st59{fill-rule:evenodd;clip-rule:evenodd;fill:#F2BC86;}
	.st60{fill:#F2F2F2;}
	.st61{fill:#57C4C6;}
	.st62{fill:#B4E219;}
	.st63{fill:#74777C;}
	.st64{fill:#E03E3E;}
	.st65{fill:#595C62;}
	.st66{fill:none;stroke:#C7C6C6;stroke-width:0.8879;stroke-miterlimit:10;}
	.st67{fill-rule:evenodd;clip-rule:evenodd;fill:#F9F0EB;}
	.st68{fill-rule:evenodd;clip-rule:evenodd;fill:#595C62;}
	.st69{fill:#EC7045;}
	.st70{opacity:0.7;}
	.st71{fill:#90CED2;}
	.st72{fill:#882888;}
	.st73{fill:#C1C0C0;}
	.st74{fill:#768035;}
	.st75{fill:#E3B27C;}
	.st76{fill:#775644;}
	.st77{fill:#DBC7C2;}
	.st78{fill:#D95027;}
	.st79{fill:#57BFC2;}
	.st80{clip-path:url(#SVGID_2_);}
	.st81{fill-rule:evenodd;clip-rule:evenodd;fill:#424750;}
	.st82{fill-rule:evenodd;clip-rule:evenodd;fill:#E1E2E3;}
	.st83{fill:none;stroke:#E6E6E6;stroke-miterlimit:10;}
	.st84{fill:#6BA588;}
	.st85{fill:#F9F0EB;}
	.st86{fill:none;stroke:#6BA588;stroke-miterlimit:10;}
	.st87{fill:#281A12;}
	.st88{fill:#2E465D;}
	.st89{fill:#422E21;}
	.st90{fill-rule:evenodd;clip-rule:evenodd;fill:#3C5F7C;}
	.st91{fill-rule:evenodd;clip-rule:evenodd;fill:#2E465D;}
	.st92{fill:#EDE2A2;}
	.st93{fill:#EFDFA8;}
	.st94{fill:#9AC68F;}
	.st95{clip-path:url(#XMLID_5_);fill:#B4D6AA;}
	.st96{fill:#96D696;}
	.st97{clip-path:url(#XMLID_6_);fill:#A7DBA7;}
	.st98{clip-path:url(#XMLID_7_);fill:#B4D6AA;}
	.st99{fill:#4D4D4F;}
	.st100{fill:#69502E;}
	.st101{fill:#3F3F3F;}
	.st102{fill:#4C381B;}
	.st103{fill:#919090;}
	.st104{fill:#74DDE2;}
	.st105{clip-path:url(#XMLID_10_);fill:#F9D88F;}
	.st106{fill-rule:evenodd;clip-rule:evenodd;fill:#504F4F;}
	.st107{fill-rule:evenodd;clip-rule:evenodd;fill:#FFFFFF;}
	.st108{fill-rule:evenodd;clip-rule:evenodd;fill:none;stroke:#4D4D4D;stroke-miterlimit:10;}
	.st109{fill:#4D4D4D;}
	.st110{fill:#42474F;}
	.st111{fill:#E6E7E8;}
	.st112{fill:#3A3A3A;}
	.st113{fill-rule:evenodd;clip-rule:evenodd;fill:#43474F;}
	.st114{fill-rule:evenodd;clip-rule:evenodd;fill:#DBDBDA;}
	.st115{fill:#F3E7A8;}
	.st116{fill:#F4E4AD;}
	.st117{fill:none;stroke:#F4E4AD;stroke-width:0.454;stroke-miterlimit:10;}
	.st118{fill:#57C4C7;}
	.st119{clip-path:url(#SVGID_4_);fill:#E6E7E8;}
	.st120{fill-rule:evenodd;clip-rule:evenodd;fill:#42474F;}
	.st121{fill-rule:evenodd;clip-rule:evenodd;fill:#E6E7E8;}
	.st122{fill:#E5D9BE;}
	.st123{fill:#F7F1E2;}
	.st124{fill:#B5967D;}
	.st125{clip-path:url(#XMLID_11_);fill:#96D696;}
	.st126{fill-rule:evenodd;clip-rule:evenodd;fill:#92BA85;}
	.st127{fill-rule:evenodd;clip-rule:evenodd;fill:#EFEFE4;}
	.st128{fill-rule:evenodd;clip-rule:evenodd;fill:#E0E0C7;}
	.st129{fill:#999999;}
	.st130{fill:#F9C543;}
	.st131{fill:#355B77;}
	.st132{fill:#C49B49;}
	.st133{fill:#444751;}
	.st134{fill:#D6D6D5;}
	.st135{fill:none;}
	.st136{fill:#5DC667;}
	.st137{fill:#EDE9C3;}
	.st138{fill:none;stroke:#FCD98D;stroke-linecap:round;stroke-miterlimit:10;}
	.st139{fill:none;stroke:#CBCACA;stroke-width:0.5;stroke-miterlimit:10;}
	.st140{fill:none;stroke:#80C0AC;stroke-width:0.5;stroke-miterlimit:10;}
	.st141{fill:#E85273;}
	.st142{fill:#FCD224;}
	.st143{fill:#59B5CE;}
	.st144{fill:#52ACC1;}
	.st145{fill:#FAFAFA;}
	.st146{fill:#E7E6E6;}
	.st147{fill:#71D3F4;}
	.st148{fill:#A3E8E3;}
	.st149{fill:#4AAFAF;}
	.st150{fill:#F2BC86;}
	.st151{fill:#585D62;}
	.st152{fill-rule:evenodd;clip-rule:evenodd;fill:#DBDBD9;}
	.st153{fill-rule:evenodd;clip-rule:evenodd;fill:#E7E6E6;}
	.st154{fill:#2A2A34;}
	.st155{fill:none;stroke:#3B79A3;stroke-miterlimit:10;}
	.st156{fill:#EDEFED;}
	.st157{fill:none;stroke:#CCCCCC;stroke-miterlimit:10;stroke-dasharray:1,1;}
	.st158{fill:#2D567F;}
	.st159{fill:#EF89B0;}
	.st160{fill:#3F6B9E;}
	.st161{fill:#D21C5A;}
	.st162{fill:#EDC169;}
	.st163{fill:#DDAC57;}
	.st164{fill:#92BA85;}
	.st165{fill:#29507F;}
	.st166{fill:none;stroke:#EFDFA8;stroke-width:0.3783;stroke-miterlimit:10;}
	.st167{clip-path:url(#SVGID_6_);}
	.st168{fill:#AEAEAF;}
	.st169{fill:#895C4E;}
	.st170{fill-rule:evenodd;clip-rule:evenodd;fill:#F7E9DF;}
	.st171{clip-path:url(#SVGID_8_);}
	.st172{clip-path:url(#SVGID_10_);fill:#F15C60;}
	.st173{fill-rule:evenodd;clip-rule:evenodd;fill:#F4F4F4;}
	.st174{clip-path:url(#SVGID_12_);}
	.st175{clip-path:url(#SVGID_14_);fill:#F15C60;}
</style>
<g>
	<path class="st64" d="M59.1,80.8l-7.4,1.7c-0.1,0-0.8,0.2-1.3,0.6c-2.5,2.1-9.8,8.3-9.8,8.3l0.7,1.1c0,0,7.4-6.3,9.8-8.3
		c0.3-0.2,0.7-0.3,0.8-0.4l7.4-1.7C59.6,81.5,59.4,81.1,59.1,80.8z"/>
	<path class="st65" d="M93.8,142.3L93.8,142.3c7.5-3.9,12.6-11.6,12.6-20.4c0-12.8-10.8-23.2-24.2-23.2C68.8,98.6,58,109,58,121.8
		c0,8.8,5.1,16.5,12.7,20.4l-0.1,0c3.7,2.1,6.3,5.7,7.1,9.8c0.2-0.1,0.9-0.4,1.9,0v-7.2c0.8,0.1,1.7,0.1,2.6,0.1
		c0.9,0,1.7,0,2.6-0.1v7.2c1-0.5,1.8-0.1,1.9,0C87.5,147.9,90.1,144.4,93.8,142.3z"/>
	<g>
		<path class="st14" d="M83.8,153.5L83.8,153.5v-0.1v-1.7c0-0.2,0.2-0.4,0.4-0.4c0,0,0.5,0.5,1.5,0.5c1,0,1.4-0.5,1.7-0.5
			c0,0,0-0.2,0.2,0c1.5,1.4,4.7,1.6,4.7,1.6c0.2,0,0.3,0.3,0.1,0.5c0,0-0.1,0.1-0.1,0.1l0.1,0.1c0,0.2-0.2,0.4-0.4,0.4h-7.9
			c-0.2,0-0.4-0.2-0.4-0.4V153.5z"/>
		<path class="st14" d="M80.5,153.6c0,0.2-0.2,0.4-0.4,0.4h-7.9c-0.2,0-0.4-0.2-0.4-0.4l0.1-0.1c0,0-0.1-0.1-0.1-0.1
			c-0.2-0.2,0-0.5,0.1-0.5c0,0,3.3-0.3,4.7-1.6c0.2-0.2,0.2,0,0.2,0c0.3,0,0.7,0.5,1.7,0.5c1,0,1.5-0.5,1.5-0.5
			c0.2,0,0.4,0.2,0.4,0.4v1.7l-0.1,0.1l0.1,0.1V153.6z"/>
	</g>
	<g>
		<path class="st1" d="M44.2,94.1c0,0,7.2,2.2,15.5-1.4c0,0,5.8,13-1.6,27.5c0,0-7,2.4-14.5,0.2C43.6,120.3,52.1,109.1,44.2,94.1z"
			/>
	</g>
	<g>
		<g>
			<path class="st0" d="M31,86.6c2.7,2.6,7.3,6,13.3,7.4c2.2,3.7,3.4,8.1,3.4,12.6c0,5-1.5,9.7-4,13.6c-4.6-1.3-9.7-4.4-13.8-10.7
				c0,0,0,0,0,0c-1.9-2.8-3.1-5.3-3.8-7.5c-0.1-0.1-0.1-0.3-0.2-0.4c0,0,0,0,0,0.1C24.7,97.5,29.1,84.9,31,86.6z"/>
		</g>
	</g>
	<g>
		<path class="st0" d="M139,102c1.3-4.3,0.8-7.1,0.8-7.1s-3.6,7.1-6.2,7.4c0,0,6.3-6.2,5.7-11c0,0-3.2,5.5-5.6,6.3
			c0,0,5.7-4.9,4.3-11.3c0,0-2.6,6.8-5.1,7.1c0,0,4.4-5,4-9.7c0,0-17.7,23.4-42.1,2.4l0.5,19.9l11.6,14.3c0,0,17.2,6.2,28.1-10.5
			c0,0,0,0,0,0c1.9-2.8,3.1-5.3,3.8-7.5C138.9,102.2,139,102,139,102C139,101.9,139,101.9,139,102z"/>
	</g>
	<g>
		<path class="st1" d="M117.5,106.8c0-4.6,1.2-8.9,3.4-12.6c-7,1.7-15.9,0.5-25.9-8.1L94.6,106l12.5,14.3c0,0,6.7,2.4,14.4,0.2
			C119,116.5,117.5,111.8,117.5,106.8z"/>
	</g>
	<g>
		<path class="st13" d="M71.1,73.2c-0.2,1.4-1.1,0.2-1.6,1.7c-1.3,4.2-3.3,11.5-8,15.8c0,0,4.2,16.1,20.6,16.1
			c16.4,0,20.6-16.1,20.6-16.1C98.4,86.6,96.7,81,95,75c-0.5-1.8-1.5-0.4-1.8-2.1"/>
	</g>
	<g>
		<path class="st8" d="M82.2,81.1c-2.2,0-4.4,0.3-6.4,0.8c-0.2,0.1-7.3-3.4-7.4-3.2c-2.1,5.4-2.9,7.8-6,11c-5.7,5.7-9.2,14-9.2,23.1
			c0,10.8,5,20.3,12.5,26c11.2,2.9,16.6-7.1,16.6-7.1c3.2,4.9,7.6,8.4,16.4,7.2c7.7-5.7,12.7-15.3,12.7-26.1
			c0-9.2-3.6-17.5-9.4-23.2c-1.5-1.5-3.3-3.9-4.5-7.3c-0.2-0.6-1.8,2.6-2.3,2.2C91.3,82.3,86.8,81.1,82.2,81.1z"/>
	</g>
	<g>
		<g>
			<ellipse class="st10" cx="82.4" cy="79.3" rx="1.4" ry="1.4"/>
		</g>
		<g>
			<ellipse class="st11" cx="82.4" cy="79.2" rx="0.3" ry="0.3"/>
		</g>
	</g>
	<g>
		<g>
			<ellipse class="st10" cx="82.4" cy="87" rx="1.4" ry="1.4"/>
		</g>
		<g>
			<ellipse class="st11" cx="82.4" cy="87" rx="0.3" ry="0.3"/>
		</g>
	</g>
	<g>
		<path class="st0" d="M95.3,54.6c0.2-3.6-0.1-7.5-1.5-10.1c-0.7-2.1-3.2-3.4-5.7-4.2c1.1,0,2,0,2,0c-2.6-1.7-4.9-1.6-6.7-1
			c-0.5-0.1-1-0.1-1.2-0.1c1.2-0.7,2.6-1.2,2.6-1.2c-4.1-1-7.6,1.2-9.1,2.4c-2.4,0.8-4.8,2.1-5.5,4.1c-1.4,2.7-1.7,6.5-1.5,10.1
			c-0.2,3.4,0,5.9,0.7,8.4c2.1,4.7,0,13.6-1.6,16.6l14.4,12.7l0,0L96.7,80c-0.7-1.6-4.6-12.5-2.2-17C95.3,60.5,95.4,57.4,95.3,54.6z
			"/>
	</g>
	<g>
		<path class="st12" d="M76.1,52.3c0,1.1-1.2,2.1-2.7,2.1c-1.5,0-2.8-0.8-2.9-1.9c0-1.1,1.2-2.1,2.7-2.1
			C74.8,50.3,76.1,51.2,76.1,52.3z"/>
	</g>
	<g>
		<path class="st13" d="M74.6,52.1c0.1,0.7-0.4,1.3-1.1,1.4c-0.7,0.1-1.4-0.4-1.5-1.1c-0.1-0.7,0.4-1.3,1.1-1.4
			C73.9,51,74.5,51.5,74.6,52.1z"/>
	</g>
	<g>
		<path class="st12" d="M93.3,52.3c0,1.1-1.2,2.1-2.7,2.1c-1.5,0-2.8-0.8-2.9-1.9c0-1.1,1.2-2.1,2.7-2.1
			C92,50.3,93.3,51.2,93.3,52.3z"/>
	</g>
	<g>
		<path class="st13" d="M91.8,52.1c0.1,0.7-0.4,1.3-1.1,1.4c-0.7,0.1-1.4-0.4-1.5-1.1c-0.1-0.7,0.4-1.3,1.1-1.4
			C91,51,91.7,51.5,91.8,52.1z"/>
	</g>
	<g>
		<path class="st3" d="M82.1,55.6c-1.4,2-4.3,2.5-4.3,2.5c2.3,1.2,4.5,4.9,4.5,4.9s2.2-3.7,4.4-4.9C86.8,58.1,83.5,57.6,82.1,55.6z"
			/>
	</g>
	<g>
		<ellipse class="st67" cx="82.4" cy="94.2" rx="1.4" ry="1.4"/>
	</g>
	<g>
		<ellipse class="st68" cx="82.4" cy="94.2" rx="0.3" ry="0.3"/>
	</g>
	<g>
		<ellipse class="st67" cx="82.4" cy="108.7" rx="1.4" ry="1.4"/>
	</g>
	<g>
		<ellipse class="st68" cx="82.4" cy="108.7" rx="0.3" ry="0.3"/>
	</g>
	<g>
		<ellipse class="st67" cx="82.4" cy="123.3" rx="1.4" ry="1.4"/>
	</g>
	<g>
		<ellipse class="st68" cx="82.4" cy="123.3" rx="0.3" ry="0.3"/>
	</g>
	<g>
		<path class="st1" d="M68.2,78.5l-1.4,4.3l4.8,9.5c0,0,0.9-0.7,3.6-1.6c3.5-1.1,7.1,1.5,7.1,1.5L68.2,78.5z"/>
	</g>
	<g>
		<path class="st1" d="M96.3,78.5l1.4,4.3L93,92.3c0,0-0.9-0.7-3.6-1.6c-3.5-1.1-7.1,1.5-7.1,1.5L96.3,78.5z"/>
	</g>
	<g>
		<g>
			<path class="st1" d="M98,49.8c0,0-1.8-3.4-5.3-3.4c-3.5,0-17.6,0-21.1,0c-3.5,0-5.3,3.4-5.3,3.4l-0.9,0.4v1.3l0.9,0.9
				c0,0,0,6,5.3,6c10.6,0,7.9-7.7,10.6-7.7c2.5,0,0,7.7,10.6,7.7c5.3,0,5.3-6,5.3-6l0.9-0.9v-1.3L98,49.8z M70.9,47.7
				c0.2,0,0.5-0.1,0.8-0.1c0,0,4.8,0,6.4,0c0.2,0,0.4,0,0.5,0.1c0.5,0.1,0.8,0.4,1,0.7H69.2C69.7,48.1,70.2,47.8,70.9,47.7z
				 M73.4,57.2h-2.5c-0.6-0.1-1.2-0.3-1.7-0.7h7.2C75.7,56.8,74.7,57,73.4,57.2z M77.6,55.7h-9.1c-0.2-0.2-0.3-0.4-0.4-0.7h10.1
				C78,55.2,77.8,55.5,77.6,55.7z M78.7,54.3H67.8c-0.1-0.2-0.1-0.5-0.2-0.7H79C78.9,53.8,78.8,54,78.7,54.3z M79.2,52.8H67.5
				c0-0.3,0-0.6,0-0.6v-0.1h12C79.4,52.3,79.3,52.6,79.2,52.8z M79.6,51.3H67.5l0.1-0.7h12.1C79.7,50.9,79.7,51.1,79.6,51.3z
				 M79.9,49.9h-12c0.1-0.2,0.3-0.4,0.5-0.7h11.5c0,0.1,0,0.1,0,0.2C79.9,49.5,79.9,49.7,79.9,49.9z M85.7,47.7
				c0.2,0,0.3-0.1,0.5-0.1c1.6,0,6.4,0,6.4,0c0.3,0,0.5,0,0.8,0.1c0.7,0.1,1.3,0.4,1.7,0.7H84.7C84.9,48.1,85.3,47.8,85.7,47.7z
				 M84.4,49.4c0-0.1,0-0.1,0-0.2H96c0.2,0.3,0.4,0.5,0.5,0.7h-12C84.5,49.7,84.4,49.5,84.4,49.4z M84.6,50.6h12.1l0.1,0.7H84.7
				C84.7,51.1,84.6,50.9,84.6,50.6z M93.6,57.2c-0.3,0-0.5,0.1-0.8,0.1c-0.6,0-1.2,0-1.8-0.1h0c-1.3-0.1-2.3-0.4-3-0.7h7.2
				C94.7,56.8,94.1,57.1,93.6,57.2L93.6,57.2z M95.9,55.7h-9.1c-0.2-0.2-0.5-0.5-0.6-0.7h10.1C96.1,55.3,96,55.5,95.9,55.7z
				 M96.6,54.3H85.7c-0.1-0.2-0.2-0.5-0.3-0.7h11.4C96.7,53.8,96.7,54,96.6,54.3z M96.9,52.2c0,0,0,0.2,0,0.6H85.1
				c-0.1-0.2-0.1-0.5-0.2-0.7h12V52.2z"/>
		</g>
	</g>
	<g class="st70">
		<path class="st71" d="M53.1,85.5c0,0,1.6-1.4-12.7-3.5c-14.5-2.2-13.2-0.4-13.2-0.4l9.9,17.6l-0.8,4.9l-2.9,0.9
			c-0.3,0-0.5,0.1-0.5,0.2c-0.1,0.3,1.5,0.8,3.6,1.1c2,0.3,3.7,0.3,3.8-0.1c0-0.1,0-0.1-0.1-0.2c0,0,0,0,0,0l0,0
			c0,0-0.1-0.1-0.1-0.1l-2.6-1.8l0.7-4.8L53.1,85.5z"/>
	</g>
	<g class="st70">
		<path class="st72" d="M48.3,88.6c0,0-3.9,0.1-8.7-0.6c-4.8-0.7-8-1.6-8.7-1.9c0,0,0,0,0,0.1l0,0l7,12.4L48.3,88.6L48.3,88.6
			C48.2,88.6,48.3,88.6,48.3,88.6z"/>
	</g>
	<g>
		<path class="st73" d="M31.1,86.7c0,0,0.8,1.2,3,2.1c1.9,0.8,3.6,1.3,3.6,1.3s-2.3,1.5-5.7,0.8c-0.3,0,2,1.7,5.2,1.7
			c3.2,0,3.2,0,3.2,0s-0.9,1.9-4.4,2.3c-2.8,0.3-4.5-0.5-4.5-0.5s1.8,2.2,6.6,1.7c3.6-0.3,4.5-1.5,4.5-1.5s-0.2,2.9-4.9,4.6
			c-2.1,0.7-5.2,0.6-5.2,0.6s2.1,0.8,5.4,0.4c2-0.3,3.6-1,3.6-1s-2.7,5-8.4,4.4c-4.8-0.5-6.7-3.1-7.3-4.4C24.9,97,27,88.9,30.3,86.6
			C30.7,86.2,31.1,86.7,31.1,86.7z"/>
	</g>
	<g>
		<g>
			<g>
				<path class="st74" d="M137.7,84.2c-0.1,0-0.2,0-0.2-0.1l0,0c-6.4,6-18.8,4.8-18.8,4.8c-0.9,2.4-1.1,5-0.6,7.7
					c0.7,3.5,4.3,13.1,15.5,9.2c9.3-3.2,8.4-11.7,7.7-15C140.8,88.2,139.5,85.9,137.7,84.2z"/>
			</g>
			<g>
				<path class="st75" d="M137.5,84.2c-2.8-0.7-6.2-0.6-9.7,0.2c-3.6,0.9-6.7,2.6-9.1,4.6C118.7,89,131.1,90.2,137.5,84.2z"/>
			</g>
			<g>
				<path class="st76" d="M130.5,85.3c0,0.2-0.9,0.6-2.1,0.9c-1.2,0.3-2.2,0.3-2.3,0.1c0-0.2,0.9-0.6,2.1-0.9
					C129.5,85.1,130.5,85.1,130.5,85.3z"/>
			</g>
			<g>
				<path class="st76" d="M131.8,76.4c-0.1,0-0.2,0-0.2,0.2l-2.1,9.3c0.2-0.1,0.3-0.1,0.5-0.2l2-9.1C132,76.5,132,76.4,131.8,76.4z"
					/>
			</g>
			<g>
				<path class="st77" d="M128,86.3l-3.8-7.8c-0.1-0.1-0.2-0.2-0.3-0.3l-5.9-2c-0.2-0.1-0.4,0.1-0.5,0.3c-0.1,0.2,0.1,0.5,0.3,0.6
					l5.8,2l3.6,7.4C127.3,86.4,127.6,86.3,128,86.3z"/>
			</g>
			<g>
				<path class="st77" d="M136.4,81L136.4,81C136.4,81,136.4,81,136.4,81c-0.1-0.1-0.1-0.2-0.3-0.3c-0.8-0.9-3.2-3.4-4.1-4.4
					c-0.1-0.1-0.3-0.1-0.4-0.1c-1.2,0.4-4.4,1.5-5.5,1.9c-0.1,0-0.3,0.1-0.3,0.1c0,0,0,0,0,0l0,0c-0.1,0-0.1,0.1-0.1,0.2
					c-0.1,0.6,2.2,1.7,5.1,2.4c2.9,0.8,5.4,1,5.6,0.4C136.4,81.1,136.4,81.1,136.4,81z"/>
			</g>
			<g>
				<g>
					<path class="st78" d="M129.1,80.3l2.7-4.1c0,0,0,0-0.1,0l-5.2,3C127.2,79.6,128.1,79.9,129.1,80.3z"/>
				</g>
				<g>
					<path class="st78" d="M131.9,76.2l0.6,4.9c1.1,0.2,2,0.3,2.7,0.3L131.9,76.2C131.9,76.2,131.9,76.2,131.9,76.2z"/>
				</g>
			</g>
		</g>
	</g>
	<g>
		<path class="st73" d="M138,86.3c0,0-0.8,1.2-3,2.2c-1.9,0.8-3.6,1.4-3.6,1.4s2.3,1.5,5.7,0.8c0.3-0.1-2,1.7-5.2,1.8
			c-3.2,0.1-3.2,0.1-3.2,0.1s0.9,1.9,4.4,2.3c2.8,0.3,4.5-0.5,4.5-0.5s-1.7,2.2-6.6,1.8c-3.6-0.3-4.5-1.5-4.5-1.5s0.2,2.9,4.9,4.5
			c2.1,0.7,5.2,0.5,5.2,0.5s-2.1,0.9-5.3,0.4c-2-0.3-3.6-0.9-3.6-0.9s2.7,5,8.4,4.3c4.8-0.5,6.7-3.1,7.2-4.5
			c0.9-2.3-1.3-10.5-4.6-12.8C138.3,85.8,138,86.3,138,86.3z"/>
	</g>
	<path class="st64" d="M59.1,80.8l-7.4,1.7c-0.1,0-0.8,0.2-1.3,0.6c-0.6,0.5-1.5,1.3-2.4,2.1l1.9,0c0.4-0.4,0.9-0.8,1.2-1.1
		c0.3-0.2,0.7-0.3,0.8-0.4l7.4-1.7C59.6,81.5,59.4,81.1,59.1,80.8z"/>
</g>
</svg>
