<?xml version="1.0" encoding="utf-8"?>
<!-- Generator: Adobe Illustrator 19.2.1, SVG Export Plug-In . SVG Version: 6.00 Build 0)  -->
<svg version="1.1" id="Layer_1" xmlns="http://www.w3.org/2000/svg" xmlns:xlink="http://www.w3.org/1999/xlink" x="0px" y="0px"
	 width="200px" height="200px" viewBox="0 0 200 200" style="enable-background:new 0 0 200 200;" xml:space="preserve">
<style type="text/css">
	.st0{fill:#E2E3E4;}
	.st1{fill:#595D62;}
	.st2{fill:#C7702A;}
	.st3{fill:#C9C7C7;}
	.st4{fill:#EA8824;}
	.st5{fill:none;stroke:#C9C7C7;stroke-width:0.75651;stroke-miterlimit:10;}
	.st6{fill-rule:evenodd;clip-rule:evenodd;fill:#444851;}
	.st7{fill-rule:evenodd;clip-rule:evenodd;fill:#D8D7D6;}
	.st8{fill:#FFFFFF;}
	.st9{fill:#2B2B35;}
	.st10{fill:#434850;}
	.st11{fill:#6C4396;}
	.st12{fill:#A4A4A4;}
	.st13{fill:#EA4C65;}
	.st14{fill:#94814F;}
	.st15{fill:#9C2023;}
	.st16{fill:#B7242C;}
	.st17{fill-rule:evenodd;clip-rule:evenodd;fill:#FFFFFF;}
	.st18{fill:#0C4F6E;}
	.st19{fill:#C18E46;}
	.st20{fill:#3180BF;}
	.st21{fill:#D94F4F;}
	.st22{fill:#2C2C2D;}
	.st23{fill:#595E63;}
	.st24{fill:#E3E2E2;}
	.st25{fill:#9D9EA0;}
	.st26{fill:none;stroke:#C8C6C6;stroke-width:0.75651;stroke-miterlimit:10;}
	.st27{fill:#2A2E35;}
	.st28{fill-rule:evenodd;clip-rule:evenodd;fill:#454751;}
	.st29{fill-rule:evenodd;clip-rule:evenodd;fill:#D8D7D5;}
	.st30{fill:#434851;}
	.st31{fill:#EC9424;}
	.st32{fill:#445AA4;}
	.st33{clip-path:url(#SVGID_2_);fill:#58C1C4;}
	.st34{fill:#B7DBDB;}
	.st35{fill:#58C1C4;}
	.st36{fill:none;stroke:#434851;stroke-width:1.51302;stroke-linecap:round;stroke-linejoin:round;stroke-miterlimit:10;}
	.st37{clip-path:url(#SVGID_4_);fill:#58C1C4;}
	.st38{fill:#010101;}
	.st39{fill:#161718;}
	.st40{fill-rule:evenodd;clip-rule:evenodd;fill:#010101;}
	.st41{fill:#272626;}
	.st42{fill:#17191A;}
	.st43{fill:#D4D5D4;}
	.st44{fill-rule:evenodd;clip-rule:evenodd;fill:#272626;}
	.st45{fill-rule:evenodd;clip-rule:evenodd;fill:#E2E3E4;}
	.st46{fill:#19244E;}
	.st47{fill:#E3E1E1;}
	.st48{fill:#8E1B27;}
	.st49{fill:#CA2033;}
	.st50{fill:#EFE0A7;}
	.st51{fill:none;stroke:#EFE0A7;stroke-width:0.09335;stroke-miterlimit:10;}
	.st52{fill:#EECA81;}
	.st53{fill:#F3F3F3;}
	.st54{fill:#A0A1A4;}
	.st55{fill:#EB6B6D;}
	.st56{fill:none;stroke:#CAC8C6;stroke-width:0.02289;stroke-miterlimit:10;}
	.st57{fill:#464951;}
	.st58{fill:#D7D6D6;}
	.st59{fill:#EECC82;}
	.st60{fill:#F0E0A9;}
	.st61{fill:none;stroke:#F0E0A9;stroke-width:0.01145;stroke-miterlimit:10;}
	.st62{fill:#5AC1C2;}
	.st63{clip-path:url(#SVGID_6_);fill:#E2E3E4;}
	.st64{fill:#EE7823;}
	.st65{fill:#D6563D;}
	.st66{fill:#70533D;}
	.st67{fill:#81BCA9;}
	.st68{clip-path:url(#SVGID_8_);fill:#E2E3E4;}
	.st69{fill:none;stroke:#EFE0A7;stroke-width:0.37825;stroke-miterlimit:10;}
	.st70{clip-path:url(#SVGID_10_);}
	.st71{clip-path:url(#SVGID_12_);fill:#E3E2E2;}
	.st72{clip-path:url(#SVGID_12_);}
	.st73{fill-rule:evenodd;clip-rule:evenodd;fill:#1AAEA1;}
	.st74{fill-rule:evenodd;clip-rule:evenodd;fill:#0C8C70;}
	.st75{fill:#1AAEA1;}
	.st76{fill:#6F513B;}
	.st77{fill:#515050;}
	.st78{fill:#D4563A;}
	.st79{fill:none;}
	.st80{clip-path:url(#SVGID_14_);}
	.st81{clip-path:url(#SVGID_16_);fill:#E3E2E2;}
	.st82{clip-path:url(#SVGID_16_);}
	.st83{fill:#EEE3A3;}
	.st84{fill:none;stroke:#F0E0A9;stroke-width:0.37825;stroke-miterlimit:10;}
	.st85{clip-path:url(#SVGID_18_);}
	.st86{fill-rule:evenodd;clip-rule:evenodd;fill:#434850;}
	.st87{clip-path:url(#SVGID_20_);}
	.st88{fill:none;stroke:#E4CC21;stroke-width:1.92135;stroke-miterlimit:10;}
	.st89{fill:none;stroke:#FFFFFF;stroke-width:2.2037;stroke-miterlimit:10;}
	.st90{fill:#E4CC21;}
	.st91{fill:#232244;}
	.st92{fill:#C8C6C6;}
	.st93{fill:#542F19;}
	.st94{fill-rule:evenodd;clip-rule:evenodd;fill:#3D2E21;}
	.st95{fill:#3D2E21;}
	.st96{fill-rule:evenodd;clip-rule:evenodd;fill:#232244;}
	.st97{fill-rule:evenodd;clip-rule:evenodd;fill:#2E3280;}
	.st98{fill:#281911;}
	.st99{fill-rule:evenodd;clip-rule:evenodd;fill:#E4CC21;}
	.st100{fill-rule:evenodd;clip-rule:evenodd;fill:#D85127;}
	.st101{clip-path:url(#SVGID_22_);}
	.st102{fill-rule:evenodd;clip-rule:evenodd;fill:#EE7434;}
	.st103{fill:#17733B;}
	.st104{clip-path:url(#SVGID_24_);}
	.st105{fill:#1D73B6;}
	.st106{fill:#115E8E;}
	.st107{clip-path:url(#SVGID_26_);}
	.st108{fill:none;stroke:#FFFFFF;stroke-width:1.49993;stroke-miterlimit:10;}
	.st109{fill:none;stroke:#CAC8C6;stroke-width:0.024;stroke-miterlimit:10;}
	.st110{clip-path:url(#SVGID_28_);fill:#E2E3E4;}
	.st111{fill:#603A17;}
	.st112{fill:#78471F;}
	.st113{fill:#F8FAFD;}
	.st114{clip-path:url(#SVGID_30_);}
	.st115{clip-path:url(#SVGID_32_);}
	.st116{fill:none;stroke:#FFFFFF;stroke-width:0.49998;stroke-miterlimit:10;}
	.st117{fill:none;stroke:#FFFFFF;stroke-width:0.74997;stroke-miterlimit:10;}
	.st118{clip-path:url(#SVGID_34_);}
	.st119{clip-path:url(#SVGID_36_);}
	.st120{clip-path:url(#SVGID_38_);fill:#E2E3E4;}
	.st121{clip-path:url(#SVGID_40_);}
	.st122{clip-path:url(#SVGID_42_);}
	.st123{clip-path:url(#SVGID_44_);}
	.st124{opacity:0.7;fill:#434850;}
	.st125{fill:#5B3287;}
	.st126{fill:#643E1E;}
	.st127{fill:#C8D6DE;}
	.st128{fill:none;stroke:#CAC7C6;stroke-width:0.75651;stroke-miterlimit:10;}
	.st129{fill:#B6C3CE;}
	.st130{fill:#273980;}
	.st131{fill:#2B2C35;}
	.st132{clip-path:url(#SVGID_46_);fill:#FFFFFF;stroke:#5A3B84;stroke-width:4.53905;stroke-miterlimit:10;}
	.st133{fill:#C8C7C9;}
	.st134{fill:#056F43;}
	.st135{clip-path:url(#SVGID_48_);}
	.st136{fill:#EBEDF1;}
	.st137{fill:#CF2B29;}
	.st138{fill-rule:evenodd;clip-rule:evenodd;fill:#273980;}
	.st139{fill:#D6232A;}
	.st140{clip-path:url(#SVGID_52_);fill:#FFFFFF;stroke:#5A3B84;stroke-width:4.53905;stroke-miterlimit:10;}
	.st141{clip-path:url(#SVGID_54_);}
	.st142{fill:#532D17;}
	.st143{fill:none;stroke:#5E1116;stroke-width:0.95369;stroke-miterlimit:10;}
	.st144{fill-rule:evenodd;clip-rule:evenodd;fill:#5E1116;}
	.st145{fill:none;stroke:#5E1116;stroke-width:0.94639;stroke-miterlimit:10;}
	.st146{fill:#291B13;}
	.st147{fill-rule:evenodd;clip-rule:evenodd;fill:#291B13;}
	.st148{fill-rule:evenodd;clip-rule:evenodd;fill:#454850;}
	.st149{fill-rule:evenodd;clip-rule:evenodd;fill:#74441F;}
	.st150{fill:#7F161B;}
	.st151{fill-rule:evenodd;clip-rule:evenodd;fill:#7F161B;}
	.st152{fill:none;stroke:#5E1116;stroke-width:1.04342;stroke-miterlimit:10;}
	.st153{fill:#E4E0E4;}
	.st154{clip-path:url(#SVGID_58_);fill:#E1244D;}
	.st155{clip-path:url(#SVGID_60_);fill:#E1244D;}
	.st156{fill:#292933;}
	.st157{fill:none;stroke:#CAC8C6;stroke-width:0.02378;stroke-miterlimit:10;}
	.st158{fill:none;stroke:#F0E0A9;stroke-width:0.01189;stroke-miterlimit:10;}
	.st159{clip-path:url(#SVGID_62_);fill:#E2E3E4;}
	.st160{fill:#2F465D;}
	.st161{fill:#432F21;}
	.st162{fill-rule:evenodd;clip-rule:evenodd;fill:#3D5F7C;}
	.st163{fill-rule:evenodd;clip-rule:evenodd;fill:#2F465D;}
	.st164{clip-path:url(#SVGID_64_);fill:#2C2C2D;}
	.st165{clip-path:url(#SVGID_66_);fill:#F8B917;}
	.st166{clip-path:url(#SVGID_66_);fill:#1F4394;}
	.st167{clip-path:url(#SVGID_68_);fill:#E8212F;}
	.st168{clip-path:url(#SVGID_68_);fill:#C9C8C8;}
	.st169{clip-path:url(#SVGID_68_);fill:#2A2E35;}
	.st170{clip-path:url(#SVGID_68_);fill:#444750;}
	.st171{clip-path:url(#SVGID_68_);fill:#D7D7D6;}
	.st172{clip-path:url(#SVGID_68_);fill:#E3E2E2;}
	.st173{clip-path:url(#SVGID_68_);fill:#FFFFFF;}
	.st174{clip-path:url(#SVGID_68_);fill:#2B2D34;}
	.st175{clip-path:url(#SVGID_68_);fill:#B9252D;}
	.st176{clip-path:url(#SVGID_68_);fill:#24345B;}
	.st177{clip-path:url(#SVGID_68_);fill:#F7F6F8;}
	.st178{clip-path:url(#SVGID_70_);fill:#1F4394;}
	.st179{clip-path:url(#SVGID_70_);fill:#F8B917;}
	.st180{clip-path:url(#SVGID_70_);fill:#883D1E;}
	.st181{clip-path:url(#SVGID_70_);fill:#F5D07C;}
	.st182{clip-path:url(#SVGID_72_);fill:#E8212F;}
	.st183{clip-path:url(#SVGID_72_);fill:#E3E2E2;}
	.st184{clip-path:url(#SVGID_72_);fill:#F7F6F8;}
	.st185{clip-path:url(#SVGID_72_);fill:#F8B917;}
	.st186{clip-path:url(#SVGID_72_);fill:#888983;}
	.st187{clip-path:url(#SVGID_74_);fill:#888983;}
	.st188{clip-path:url(#SVGID_74_);fill:#624219;}
	.st189{clip-path:url(#SVGID_76_);fill:#E3E2E2;}
	.st190{clip-path:url(#SVGID_76_);fill:#2C2C2D;}
	.st191{clip-path:url(#SVGID_76_);fill:#888983;}
	.st192{clip-path:url(#SVGID_78_);fill:#F8B917;}
	.st193{clip-path:url(#SVGID_78_);fill:#1F4394;}
	.st194{clip-path:url(#SVGID_80_);fill:#E8212F;}
	.st195{clip-path:url(#SVGID_80_);fill:#C9C8C8;}
	.st196{clip-path:url(#SVGID_80_);fill:#2A2E35;}
	.st197{clip-path:url(#SVGID_80_);fill:#444750;}
	.st198{clip-path:url(#SVGID_80_);fill:#D7D7D6;}
	.st199{clip-path:url(#SVGID_80_);fill:#E3E2E2;}
	.st200{clip-path:url(#SVGID_80_);fill:#FFFFFF;}
	.st201{clip-path:url(#SVGID_80_);fill:#2B2D34;}
	.st202{clip-path:url(#SVGID_80_);fill:#B9252D;}
	.st203{clip-path:url(#SVGID_80_);fill:#24345B;}
	.st204{clip-path:url(#SVGID_80_);fill:#F7F6F8;}
	.st205{clip-path:url(#SVGID_82_);fill:#1F4394;}
	.st206{clip-path:url(#SVGID_82_);fill:#F8B917;}
	.st207{clip-path:url(#SVGID_82_);fill:#883D1E;}
	.st208{clip-path:url(#SVGID_82_);fill:#F5D07C;}
	.st209{clip-path:url(#SVGID_84_);fill:#E8212F;}
	.st210{clip-path:url(#SVGID_84_);fill:#E3E2E2;}
	.st211{clip-path:url(#SVGID_84_);fill:#F7F6F8;}
	.st212{clip-path:url(#SVGID_84_);fill:#F8B917;}
	.st213{clip-path:url(#SVGID_84_);fill:#888983;}
	.st214{clip-path:url(#SVGID_86_);fill:#888983;}
	.st215{clip-path:url(#SVGID_86_);fill:#624219;}
	.st216{clip-path:url(#SVGID_88_);fill:#E3E2E2;}
	.st217{clip-path:url(#SVGID_88_);fill:#2C2C2D;}
	.st218{clip-path:url(#SVGID_90_);fill:#2C2C2D;}
	.st219{clip-path:url(#SVGID_92_);fill:#F8B917;}
	.st220{clip-path:url(#SVGID_92_);fill:#1F4394;}
	.st221{clip-path:url(#SVGID_94_);fill:#E8212F;}
	.st222{clip-path:url(#SVGID_94_);fill:#C9C8C8;}
	.st223{clip-path:url(#SVGID_94_);fill:#2A2E35;}
	.st224{clip-path:url(#SVGID_94_);fill:#444750;}
	.st225{clip-path:url(#SVGID_94_);fill:#D7D7D6;}
	.st226{clip-path:url(#SVGID_94_);fill:#E3E2E2;}
	.st227{clip-path:url(#SVGID_94_);fill:#FFFFFF;}
	.st228{clip-path:url(#SVGID_94_);fill:#2B2D34;}
	.st229{clip-path:url(#SVGID_94_);fill:#B9252D;}
	.st230{clip-path:url(#SVGID_94_);fill:#24345B;}
	.st231{clip-path:url(#SVGID_94_);fill:#F7F6F8;}
	.st232{clip-path:url(#SVGID_96_);fill:#1F4394;}
	.st233{clip-path:url(#SVGID_96_);fill:#F8B917;}
	.st234{clip-path:url(#SVGID_96_);fill:#883D1E;}
	.st235{clip-path:url(#SVGID_96_);fill:#F5D07C;}
	.st236{clip-path:url(#SVGID_98_);fill:#E8212F;}
	.st237{clip-path:url(#SVGID_98_);fill:#E3E2E2;}
	.st238{clip-path:url(#SVGID_98_);fill:#F7F6F8;}
	.st239{clip-path:url(#SVGID_98_);fill:#F8B917;}
	.st240{clip-path:url(#SVGID_98_);fill:#888983;}
	.st241{clip-path:url(#SVGID_100_);fill:#888983;}
	.st242{clip-path:url(#SVGID_100_);fill:#624219;}
	.st243{clip-path:url(#SVGID_102_);fill:#E3E2E2;}
	.st244{clip-path:url(#SVGID_102_);fill:#2C2C2D;}
	.st245{clip-path:url(#SVGID_102_);fill:#888983;}
	.st246{clip-path:url(#SVGID_104_);fill:#F8B917;}
	.st247{clip-path:url(#SVGID_104_);fill:#1F4394;}
	.st248{clip-path:url(#SVGID_106_);fill:#E8212F;}
	.st249{clip-path:url(#SVGID_106_);fill:#C9C8C8;}
	.st250{clip-path:url(#SVGID_106_);fill:#2A2E35;}
	.st251{clip-path:url(#SVGID_106_);fill:#444750;}
	.st252{clip-path:url(#SVGID_106_);fill:#D7D7D6;}
	.st253{clip-path:url(#SVGID_106_);fill:#E3E2E2;}
	.st254{clip-path:url(#SVGID_106_);fill:#FFFFFF;}
	.st255{clip-path:url(#SVGID_106_);fill:#2B2D34;}
	.st256{clip-path:url(#SVGID_106_);fill:#B9252D;}
	.st257{clip-path:url(#SVGID_106_);fill:#24345B;}
	.st258{clip-path:url(#SVGID_106_);fill:#F7F6F8;}
	.st259{clip-path:url(#SVGID_108_);fill:#1F4394;}
	.st260{clip-path:url(#SVGID_108_);fill:#F8B917;}
	.st261{clip-path:url(#SVGID_108_);fill:#883D1E;}
	.st262{clip-path:url(#SVGID_108_);fill:#F5D07C;}
	.st263{clip-path:url(#SVGID_110_);fill:#E8212F;}
	.st264{clip-path:url(#SVGID_110_);fill:#E3E2E2;}
	.st265{clip-path:url(#SVGID_110_);fill:#F7F6F8;}
	.st266{clip-path:url(#SVGID_110_);fill:#F8B917;}
	.st267{clip-path:url(#SVGID_110_);fill:#888983;}
	.st268{clip-path:url(#SVGID_112_);fill:#888983;}
	.st269{clip-path:url(#SVGID_112_);fill:#624219;}
	.st270{clip-path:url(#SVGID_114_);fill:#E3E2E2;}
	.st271{clip-path:url(#SVGID_114_);fill:#2C2C2D;}
	.st272{fill:#EDE2A3;}
	.st273{clip-path:url(#SVGID_116_);}
	.st274{fill-rule:evenodd;clip-rule:evenodd;fill:#434851;}
	.st275{fill-rule:evenodd;clip-rule:evenodd;fill:#E3E2E2;}
	.st276{fill:#2A2B2A;}
	.st277{clip-path:url(#SVGID_118_);}
	.st278{clip-path:url(#SVGID_120_);}
	.st279{clip-path:url(#SVGID_122_);}
	.st280{fill:#1F3566;}
	.st281{fill:#E3E4E5;}
	.st282{fill:#4BB1E4;}
	.st283{fill:#2D2A6C;}
	.st284{fill-rule:evenodd;clip-rule:evenodd;fill:#D8D9D5;}
	.st285{fill:#434852;}
	.st286{fill:#E3E3E3;}
	.st287{fill:#162E54;}
	.st288{fill:none;stroke:#335DAB;stroke-width:1.68786;stroke-miterlimit:10;}
	.st289{fill:#81817F;}
	.st290{fill:#142B49;}
	.st291{fill:#5A5A5A;}
	.st292{fill:none;stroke:#FFFFFF;stroke-width:0.84393;stroke-linecap:round;stroke-linejoin:round;stroke-miterlimit:10;}
	.st293{fill:#AB9D9C;}
	.st294{fill:#EA6689;}
	.st295{fill:#CE1D5B;}
	.st296{fill:#BF742A;}
	.st297{fill:#273449;}
	.st298{fill:#A4464B;}
	.st299{fill:none;stroke:#CAC8C6;stroke-width:0.0662;stroke-miterlimit:10;}
	.st300{fill:#80333A;}
	.st301{fill:none;stroke:#B4B4B4;stroke-width:0.25748;stroke-miterlimit:10;}
	.st302{fill:none;stroke:#B4B4B4;stroke-width:3.08973;stroke-miterlimit:10;}
	.st303{fill:none;stroke:#B4B4B4;stroke-width:1.02991;stroke-miterlimit:10;}
	.st304{fill:none;stroke:#82858B;stroke-width:0.51495;stroke-miterlimit:10;}
	.st305{fill:none;stroke:#E2E3E4;stroke-width:1.02991;stroke-miterlimit:10;}
	.st306{fill:#E5E5E5;}
	.st307{fill:#2D2C2D;}
	.st308{fill:#4CB2E5;}
	.st309{fill:#AD2824;}
	.st310{fill-rule:evenodd;clip-rule:evenodd;fill:#D9D9D6;}
	.st311{fill:#E4E4E3;}
	.st312{fill:#DB4826;}
	.st313{fill:#B33725;}
	.st314{fill:#120C0D;}
	.st315{fill:#F3F0F0;}
	.st316{fill:#C4BFBF;}
	.st317{clip-path:url(#SVGID_124_);fill:none;stroke:#F3F0F0;stroke-width:1.10165;stroke-linecap:round;stroke-miterlimit:10;}
	.st318{clip-path:url(#SVGID_126_);fill:none;stroke:#F3F0F0;stroke-width:1.10165;stroke-linecap:round;stroke-miterlimit:10;}
	.st319{clip-path:url(#SVGID_128_);fill:none;stroke:#F3F0F0;stroke-width:1.10165;stroke-linecap:round;stroke-miterlimit:10;}
	.st320{fill:#DE5B2A;}
	.st321{fill:#7A2716;}
	.st322{fill:#E5E4E4;}
	.st323{fill:#BB4928;}
	.st324{fill:#454545;}
	.st325{fill:#6265AE;}
	.st326{fill:none;stroke:#CAC5C4;stroke-width:0.55083;stroke-linecap:round;stroke-miterlimit:10;}
	.st327{fill:#E1E3E3;}
	.st328{fill:#484848;}
	.st329{fill:#422F90;}
	.st330{fill:#D57A28;}
	.st331{fill:#B4B4B5;}
	.st332{fill:#4B4B4D;}
	.st333{fill:#949393;}
	.st334{fill:#040404;}
	.st335{clip-path:url(#SVGID_130_);fill:none;stroke:#F3F0F0;stroke-width:1.10165;stroke-linecap:round;stroke-miterlimit:10;}
	.st336{clip-path:url(#SVGID_132_);fill:none;stroke:#F3F0F0;stroke-width:1.10165;stroke-linecap:round;stroke-miterlimit:10;}
	.st337{clip-path:url(#SVGID_134_);fill:none;stroke:#F3F0F0;stroke-width:1.10165;stroke-linecap:round;stroke-miterlimit:10;}
	.st338{clip-path:url(#SVGID_140_);fill:#AD2824;}
	.st339{fill:#CDCCCC;}
	.st340{fill:#E4E5E6;}
	.st341{opacity:0.72;fill:none;stroke:#FFFFFF;stroke-width:1.1546;stroke-linecap:round;stroke-miterlimit:10;}
	.st342{fill:#BBD867;}
	.st343{fill:none;stroke:#BBD867;stroke-width:5.799;stroke-miterlimit:10;}
	.st344{clip-path:url(#SVGID_146_);fill:#AD2824;}
	.st345{fill:none;stroke:#AE4E85;stroke-width:1.54066;stroke-linecap:round;stroke-linejoin:round;stroke-miterlimit:10;}
	.st346{fill:none;stroke:#E97625;stroke-width:1.62274;stroke-linecap:round;stroke-linejoin:round;stroke-miterlimit:10;}
	.st347{fill:none;stroke:#C9C7C7;stroke-width:0.23348;stroke-miterlimit:10;}
	.st348{fill:#981E5C;}
	.st349{fill:none;stroke:#AE4E85;stroke-width:1.21706;stroke-linecap:round;stroke-linejoin:round;stroke-miterlimit:10;}
	.st350{fill:#AE4E85;}
	.st351{fill:#F7B456;}
	.st352{fill:#E97625;}
	.st353{fill:none;stroke:#E97625;stroke-width:1.54273;stroke-linecap:round;stroke-linejoin:round;stroke-miterlimit:10;}
</style>
<g>
	<g>
		<path class="st307" d="M120.56976,177.94641l-0.11668,0.01297c11.97931-6.8138,19.82889-19.53918,19.31543-33.82291
			c-0.74306-20.7794-18.88451-36.99303-40.51605-36.21835c-21.6244,0.77708-38.55051,18.24641-37.81002,39.02196
			c0.51341,14.28381,9.24639,26.41736,21.6786,32.35388l-0.10723-0.00125c6.05592,3.19098,10.56108,8.79355,12.07448,15.52415
			c0.26529-0.15408,1.44599-0.7612,3.09195-0.08691l-0.41222-11.63371c1.38491,0.09351,2.77152,0.11427,4.1786,0.06334
			c1.4119-0.05087,2.79927-0.16945,4.18358-0.3629l0.41821,11.6347c1.60152-0.80669,2.83904-0.25452,3.08923-0.12854
			C110.66095,187.47487,114.75615,181.56163,120.56976,177.94641"/>
		<path class="st308" d="M79.81719,68.55991c-0.22763,2.42119-1.7552,0.3606-2.43512,2.92606
			c-1.89902,7.12341-4.71574,19.29214-11.91376,26.71568c0,0,7.79398,26.45085,34.28273,25.50219
			c26.49604-0.94981,32.38706-27.88995,32.38706-27.88995c-7.4015-6.60638-11.13712-18.83433-13.66283-25.66949
			c-1.05508-2.86357-2.51172-0.65066-2.94873-3.30766"/>
		<path class="st310" d="M99.05816,77.93284c0.00784,0.28925-0.22783,0.53116-0.511,0.53905
			c-0.29529,0.01157-0.54795-0.21339-0.55805-0.5026c-0.01046-0.29996,0.22506-0.54675,0.5204-0.5569
			C98.79278,77.40092,99.04298,77.62925,99.05816,77.93284"/>
		<path class="st311" d="M117.76275,36.1558c0.08697-5.97-0.55972-12.39319-3.05415-16.74664
			c-1.33247-3.40851-5.34132-5.40551-9.38424-6.57209c1.77225-0.10823,3.29871-0.15212,3.29871-0.15212
			c-4.36802-2.71246-8.09223-2.38303-10.83374-1.27436c-0.86562-0.08365-1.5582-0.13799-1.99771-0.15715
			c1.94714-1.22263,4.12682-2.07975,4.12682-2.07975c-6.66042-1.38139-12.16943,2.41988-14.56262,4.46791
			c-3.85506,1.45413-7.56323,3.71164-8.61741,7.12673c-2.17844,4.5206-2.36373,10.9741-1.85318,16.92224
			c-0.07304,5.60911,0.30972,9.84829,1.6809,13.96852c3.59893,7.73496,2.24091,13.67218,0.81594,19.82688l21.83736,35.46665
			l0.00256,0.12739l19.25329-36.93562c-1.60529-5.50998-4.9587-12.33498-1.48016-19.99584
			C118.1258,45.99282,118.17712,40.91161,117.76275,36.1558"/>
		<path class="st8" d="M86.74359,33.47797c0.13211,1.87057-1.80331,3.51599-4.30016,3.69772
			c-2.48368,0.16257-4.62426-1.19604-4.75391-3.07034c-0.12372-1.86962,1.79381-3.52323,4.28694-3.69892
			C84.47688,30.24145,86.60931,31.61303,86.74359,33.47797"/>
		<path class="st9" d="M84.26017,33.33898c0.19575,1.13541-0.56324,2.22488-1.70433,2.43496
			c-1.13983,0.204-2.2369-0.57982-2.44196-1.70906c-0.1946-1.14828,0.57278-2.22734,1.72334-2.43743
			C82.96645,31.43432,84.06326,32.19899,84.26017,33.33898"/>
		<path class="st8" d="M114.43487,32.48538c0.13217,1.87203-1.79134,3.51714-4.28577,3.69777
			c-2.49685,0.16499-4.62672-1.19363-4.75637-3.07038c-0.13211-1.87078,1.79613-3.52202,4.28568-3.69771
			C112.17771,29.24875,114.31236,30.62159,114.43487,32.48538"/>
		<path class="st9" d="M111.95863,32.34528c0.20264,1.13526-0.55362,2.22714-1.71262,2.43607
			c-1.12566,0.20274-2.21186-0.57751-2.41933-1.70921c-0.19576-1.14597,0.55705-2.22705,1.71016-2.43833
			C110.67326,30.44278,111.77495,31.20755,111.95863,32.34528"/>
		<path class="st285" d="M96.33736,38.76379c-2.10223,3.86119-6.73418,5.04964-6.73418,5.04964
			c3.74633,2.17597,7.65885,9.04979,7.65885,9.04979s3.25076-7.13311,6.83672-9.57165
			C104.09875,43.29158,98.7114,42.46598,96.33736,38.76379"/>
		<path class="st309" d="M105.43436,195.93925c-0.01162,0.3623,0.26804,0.66171,0.62079,0.67459l12.94672,0.53473
			c0.35385,0.01161,0.65467-0.26076,0.66729-0.62764l-0.14944-0.17117c-0.00071-0.05705,0.10576-0.12497,0.14954-0.16583
			c0.29539-0.32002,0.11155-0.80515-0.19234-0.82344c0,0-5.3667-0.67685-7.68946-3.03032
			c-0.37084-0.37703-0.2978-0.00517-0.37527-0.01387c-0.4277-0.01689-1.17844,0.71062-2.74654,0.64653
			c-1.56448-0.06299-2.42566-0.854-2.42566-0.854c-0.35627-0.01884-0.6594,0.25598-0.67227,0.61224l-0.11251,2.81789
			l0.15871,0.14598l-0.17172,0.08516L105.43436,195.93925z"/>
		<path class="st309" d="M99.98641,195.99803c0.02051,0.36185-0.25488,0.66728-0.60486,0.68774l-12.9322,0.81323
			c-0.35476,0.01935-0.6602-0.24648-0.68062-0.6132l0.14558-0.17413c-0.0006-0.05721-0.10843-0.12271-0.15643-0.16273
			c-0.29997-0.31354-0.12785-0.80257,0.17439-0.82715c0,0,5.35339-0.79251,7.62355-3.19531
			c0.36275-0.38503,0.30018-0.01155,0.37623-0.02202c0.42836-0.02603,1.19343,0.6852,2.75735,0.58737
			c1.56634-0.09677,2.41034-0.90608,2.41034-0.90608c0.35576-0.0266,0.66488,0.24165,0.68533,0.59756l0.17198,2.8148
			l-0.15443,0.14946l0.17248,0.08128L99.98641,195.99803z"/>
		<path class="st320" d="M80.7301,12.60175c0,0,6.76443-9.21644,7.37311-9.6556c0,0,1.48842-0.91065,3.62125-0.06812
			c0,0,4.5954,0.66061,7.47626-0.22768c0,0,1.2623-0.77055,4.07504,1.17714c0,0,4.78071,4.89597,7.50663,8.22595
			C110.7824,12.05344,81.66253,12.2595,80.7301,12.60175z"/>
		<path class="st321" d="M86.08138,10.12048c-2.25665,0.61104-6.65499,1.14004-8.04684,6.07622
			c-0.45033,1.59705-0.84817,5.39149-2.78273,6.02575c0,0,1.60157,0.79991,3.99918-0.36637c0,0,13.49664-9.00032,31.42916-1.83533
			c0,0,3.02644,1.46987,4.62335,2.66862h2.80807c0,0,0.40116-0.80308,0-1.50003c0,0-3.16736-4.03473-3.36562-5.43412
			c0,0-1.53648-3.63126-6.8986-5.03381c0,0-5.09882-2.33095-13.16521-2.12962C94.68214,8.5918,89.80634,9.12075,86.08138,10.12048z"
			/>
		<path class="st322" d="M77.1084,22.53911c0,0-1.5876-0.12704-2.39147-0.7241c0,0,0,1.39783,1.03768,1.74329
			c0,0,0,0.47003-0.54825,0.45922c0,0,0.42282,0.69002,1.20966,0.21762C77.20286,23.76582,77.1084,22.53911,77.1084,22.53911z"/>
		<path class="st322" d="M114.88067,22.39046c1.634,0.77211,4.1679-0.50487,4.46841-1.28859c0,0-0.85027,2.68647-2.17144,3.07747
			c0,0,0.36707,0.52508,0.93861,0.24165c0,0-0.3346,1.03316-1.46057,1.10973
			C115.52187,25.60352,114.05975,22.00785,114.88067,22.39046z"/>
		<path class="st322" d="M92.66086,17.47449c0,0,4.03784-0.8728,4.11224-3.32541c0,0,1.16628,1.21354,0.47707,3.1101
			c0,0,1.59369-0.03021,1.77958-1.62555c0,0,1.08263,1.47218,0.58239,2.19628
			C99.10873,18.55094,92.66086,17.47449,92.66086,17.47449z"/>
	</g>
	<g>
		<path class="st312" d="M99.19147,99.17866l0.42474-9.37012l-4.76653-18.61299c-0.06535-0.32836-1.65556-0.56745-1.96603-0.44202
			c-1.93719,0.78241-5.80738-0.39955-7.52206-0.83862c-3.90925-1.00104-8.39767-0.24386-9.43314-0.04453
			c-0.14449,0.02785-0.9178,0.64758-1.03428,0.73746c-2.35563,1.81784-2.11041,4.08963-2.20346,5.84367
			c-0.10648,2.00842-2.59206,7.743-4.72641,9.20452c-3.13297,2.1453-6.04777,10.5366-8.74896,13.52263
			c-1.78205,1.96996,2.34744-0.48235-4.00848,1.39008c-2.76414,0.81429,2.80988,7.05852-6.0338,5.60006
			c-1.74525-0.2878-18.93869,41.26206,12.63424,52.81106c0,0-4.17704,6.37976,1.77456,9.52942
			c9.88383,5.23062,33.21889,0.86873,41.49005,1.46539c7.76129,0.55997,32.71633,3.08397,35.26376-6.20239
			c0,0-3.9001-5.50726-1.76245-6.46326c30.12866-13.47377,15.26591-54.25308,11.46414-51.91328c0,0-5.47493,2.96622-4.46007-0.81092
			c0.44157-1.64365,0.69469-4.15583-1.23792-3.54649c-6.42329,2.02515-4.05659,0.23436-5.1718-1.85966
			c-2.94868-2.74192-5.61595-11.37733-8.74892-13.52263c-2.13435-1.46152-4.61993-7.19611-4.72646-9.20452
			c-0.09306-1.75404,0.15217-4.02583-2.20347-5.84367c-0.11648-0.08988-0.88974-0.70962-1.03427-0.73746
			c-1.03542-0.19933-5.5239-0.9565-9.43315,0.04453c-1.71468,0.43907-5.58483,1.62103-7.52206,0.83862
			c-0.31042-0.12543-3.11236,0.11366-3.17776,0.44202l-2.70527,18.61299L99.19147,99.17866"/>
		<polygon class="st313" points="94.84969,71.19555 95.82012,71.57419 99.61622,89.80854 99.44661,91.1847 		"/>
		<rect x="98.93811" y="91.52267" class="st314" width="1.01693" height="1.01693"/>
		<polygon class="st315" points="98.93811,92.54086 98.40936,96.65597 100.82311,96.58851 99.95504,92.54086 		"/>
		<g>
			<defs>
				<polygon id="SVGID_141_" points="101.40133,75.79784 100.79798,79.06614 134.88867,92.49124 132.98637,88.82067 
					130.41866,85.65603 127.74873,82.48525 				"/>
			</defs>
			<clipPath id="SVGID_2_">
				<use xlink:href="#SVGID_141_"  style="overflow:visible;"/>
			</clipPath>
		</g>
		<g>
			<defs>
				<polygon id="SVGID_143_" points="96.09858,76.62625 96.96398,80.38931 62.83559,93.26225 64.73793,89.59167 67.30566,86.42703 
					69.97554,83.25626 				"/>
			</defs>
			<clipPath id="SVGID_4_">
				<use xlink:href="#SVGID_143_"  style="overflow:visible;"/>
			</clipPath>
		</g>
		<g>
			<defs>
				<path id="SVGID_145_" d="M99.19147,99.17866l-4.34178-12.43729V71.19555c-0.06535-0.32836-1.65556-0.56745-1.96603-0.44202
					c-1.93719,0.78241-5.80738-0.39955-7.52206-0.83862c-3.90925-1.00104-8.39767-0.24386-9.43314-0.04453
					c-0.14449,0.02785-0.9178,0.64758-1.03428,0.73746c-2.35563,1.81784-2.11041,4.08963-2.20346,5.84367
					c-0.10648,2.00842-2.59206,7.743-4.72641,9.20452c-3.13297,2.1453-6.04777,10.5366-8.74896,13.52263
					c-1.78205,1.96996,2.34744-0.48235-4.00848,1.39008c-2.76414,0.81429,2.80988,7.05852-6.0338,5.60006
					c-1.74525-0.2878-18.93869,41.26206,12.63424,52.81106c0,0-4.17704,6.37976,1.77456,9.52942
					c9.88383,5.23062,33.21889,0.86873,41.49005,1.46539c7.76129,0.55997,32.71633,3.08397,35.26376-6.20239
					c0,0-3.9001-5.50726-1.76245-6.46326c30.12866-13.47377,15.26591-54.25308,11.46414-51.91328
					c0,0-5.47493,2.96622-4.46007-0.81092c0.44157-1.64365,0.69469-4.15583-1.23792-3.54649
					c-6.42329,2.02515-4.05659,0.23436-5.1718-1.85966c-2.94868-2.74192-5.61595-11.37733-8.74892-13.52263
					c-2.13435-1.46152-4.61993-7.19611-4.72646-9.20452c-0.09306-1.75404,0.15217-4.02583-2.20347-5.84367
					c-0.11648-0.08988-0.88974-0.70962-1.03427-0.73746c-1.03542-0.19933-5.5239-0.9565-9.43315,0.04453
					c-1.71468,0.43907-5.58483,1.62103-7.52206,0.83862c-0.31042-0.12543-3.11236,0.11366-3.17776,0.44202l-0.95641,15.19383
					L99.19147,99.17866"/>
			</defs>
			<clipPath id="SVGID_6_">
				<use xlink:href="#SVGID_145_"  style="overflow:visible;"/>
			</clipPath>
			<path style="clip-path:url(#SVGID_6_);fill:#AD2824;" d="M167.41554,103.40074c0.46089-1.43985,2.51868-7.20666,0.53635-6.78645
				c-6.32491,1.34087-23.00641,1.0685-28.70564-3.35205c0,0-31.88336,4.02246-46.56548,1.50842
				c-8.85001-1.51541-33.38675-1.50842-33.38675-1.50842c-1.7821,1.96996-1.7821,1.47967-8.13802,3.35205
				c-2.76409,0.81433-5.44376,1.52551-14.28745,0.06706c-1.7453-0.2878-5.65239-3.14866-6.18873-0.26583
				c-0.54438,2.926-0.37924,5.98679-0.16348,9.11533c0,0,31.649,1.86983,38.02941,1.20675
				c11.98831-1.2459,34.59355,3.82138,48.16946,2.01124c14.75048-1.9667,49.72822-1.3073,50.13047-2.31291
				C166.84567,106.43594,167.20546,104.05682,167.41554,103.40074z"/>
		</g>
	</g>
	<path class="st313" d="M84.87282,115.452c0,0,4.7271-6.10774,2.92922-5.33835c-18.1142,7.75185-28.84012,4.37184-33.68033,2.64706
		C54.12171,112.7607,67.964,120.62028,84.87282,115.452z"/>
	<path class="st339" d="M80.75444,114.56271c7.47098-3.06772,5.0234-12.08327,14.09525-12.78722l-1.73077,13.1737
		C93.11893,114.94919,82.30263,116.47596,80.75444,114.56271z"/>
	<g>
		<path class="st312" d="M111.21287,137.17604c0,0,4.78929-11.10958,0.3705-24.88824c0,0,22.16668-7.06731,44.54183,7.2886
			c0,0,2.75629,11.79235-2.23488,23.15043C153.89032,142.72684,137.02538,127.42186,111.21287,137.17604z"/>
		<g>
			<path class="st340" d="M109.08908,167.37683c0,0,12.15758-4.48404,13.18034-8.47845c0,0-11.19344,8.85439-18.93533,7.14211
				c0,0,9.58014-4.04834,11.22404-7.70319c0,0-8.90747,8.20711-19.116,4.77643c0,0,11.53436-2.85818,12.3765-6.87367
				c0,0-8.93959,6.01279-16.43797,4.5851c0,0,14.26718-8.27124,19.86322-23.72713
				c6.46536-2.74268,13.69319-3.92917,21.17086-3.12091c8.12988,0.87874,15.47253,3.99542,21.4938,8.66612
				c-2.99031,7.11778-8.78989,14.50502-19.70692,19.89468c-0.02016,0.00885-0.03786,0.01746-0.05772,0.02841
				c-4.83116,2.53093-9.15982,3.92317-12.80862,4.65356c-0.22486,0.05811-0.44002,0.11617-0.66855,0.1765
				c0,0,0.04092-0.02443,0.11456-0.06686C113.50346,168.67543,109.08908,167.37683,109.08908,167.37683z"/>
		</g>
	</g>
	<g>
		<path class="st341" d="M107.07036,79.13963c-1.08474-0.09536-2.19527,0.56027-2.63584,1.55613
			c-0.44052,0.99582-0.17872,2.25857,0.6215,2.99709c1.28703,1.18785,3.50854,0.91608,4.70232,2.19759
			c1.05261,1.13004,0.85254,3.44179-1.67844,4.1965"/>
		<path class="st342" d="M114.24857,127.84966H93.94894c-1.60283,0-2.90218-1.29935-2.90218-2.90218V91.40765h26.10398v33.53983
			C117.15075,126.55032,115.8514,127.84966,114.24857,127.84966z"/>
	</g>
	<path class="st343" d="M93.4206,99.96534h-4.69242c-2.51806,0-4.5593,2.0413-4.5593,4.5593v15.73726"/>
	<g>
		<path class="st312" d="M78.90563,115.06687c0,0-11.55991,3.56771-24.78392-2.30617c0,0-10.25739,19.50207,1.61092,43.29038
			c0,0,12.27681,5.78436,24.10552,2.0426C79.83815,158.09369,66.43407,139.68173,78.90563,115.06687z"/>
		<g>
			<path class="st340" d="M109.15981,116.20083c0,0-5.7646,11.6053-9.84573,12.19286c0,0,10.00594-10.17711,9.13555-18.05815
				c0,0-5.05442,9.0896-8.86474,10.33129c0,0,9.11674-7.974,6.80299-18.49204c0,0-4.08118,11.16041-8.16386,11.56614
				c0,0,6.93867-8.24163,6.32496-15.85006c0,0-9.75649,13.29575-25.72424,17.19847
				c-3.42158,6.13323-5.37786,13.19165-5.37786,20.71291c0,8.17723,2.30953,15.81226,6.30621,22.3006
				c7.39784-2.2081,15.36555-7.18027,21.89718-17.45496c0.01096-0.01906,0.02142-0.03575,0.03444-0.05429
				c3.03545-4.5312,4.8848-8.68518,6.00303-12.23434c0.08194-0.21732,0.16283-0.42503,0.24738-0.64577
				c0,0-0.02871,0.03811-0.07883,0.10673C109.97646,120.72916,109.15981,116.20083,109.15981,116.20083z"/>
		</g>
	</g>
</g>
</svg>
