<?xml version="1.0" encoding="utf-8"?>
<!-- Generator: Adobe Illustrator 19.1.0, SVG Export Plug-In . SVG Version: 6.00 Build 0)  -->
<svg version="1.1" id="P_Johns" xmlns="http://www.w3.org/2000/svg" xmlns:xlink="http://www.w3.org/1999/xlink" x="0px" y="0px"
	 viewBox="0 0 170 170" style="enable-background:new 0 0 170 170;" xml:space="preserve">
<style type="text/css">
	.st0{fill:#E1E2E3;}
	.st1{fill:#44C2CE;}
	.st2{fill:#3B79A3;}
	.st3{fill:#424750;}
	.st4{fill:none;stroke:#504F4F;stroke-width:2;stroke-miterlimit:10;}
	.st5{fill:#504F4F;}
	.st6{fill:#F16D6D;}
	.st7{fill:#87C6C0;}
	.st8{fill:#89DBD8;}
	.st9{fill:none;stroke:#C7C6C6;stroke-width:0.7565;stroke-miterlimit:10;}
	.st10{fill-rule:evenodd;clip-rule:evenodd;fill:#444751;}
	.st11{fill-rule:evenodd;clip-rule:evenodd;fill:#D6D6D5;}
	.st12{fill:#FFFFFF;}
	.st13{fill:#2B2A34;}
	.st14{fill:#2B2C2D;}
	.st15{fill:none;stroke:#504F4F;stroke-miterlimit:10;}
	.st16{fill-rule:evenodd;clip-rule:evenodd;fill:#89DBD8;}
	.st17{fill-rule:evenodd;clip-rule:evenodd;fill:#87C6C0;}
	.st18{fill:#59473A;}
	.st19{fill:none;stroke:#F2C24E;stroke-miterlimit:10;}
	.st20{fill:none;stroke:#F2C24E;stroke-linecap:round;stroke-miterlimit:10;}
	.st21{fill:#E9676D;}
	.st22{fill:#F6ECC3;}
	.st23{fill:#A6A8AB;}
	.st24{fill:none;stroke:#FFFFFF;stroke-width:5.289;stroke-miterlimit:10;}
	.st25{fill:#E6E6E6;}
	.st26{opacity:0.2;fill:none;stroke:#FFFFFF;stroke-width:3;stroke-miterlimit:10;}
	.st27{fill:none;stroke:#E9676D;stroke-linecap:round;stroke-miterlimit:10;}
	.st28{fill:#FCB856;}
	.st29{fill:none;stroke:#FCB856;stroke-linecap:round;stroke-miterlimit:10;}
	.st30{fill:none;stroke:#CBCACA;stroke-width:3.4513;stroke-miterlimit:10;}
	.st31{fill-rule:evenodd;clip-rule:evenodd;fill:#DADAD9;}
	.st32{fill:#469595;}
	.st33{fill:#2A2D35;}
	.st34{fill:#387D7B;}
	.st35{fill:#BFF7F5;}
	.st36{opacity:0.4;fill:#FFFFFF;}
	.st37{fill:#D3D3D3;}
	.st38{fill:none;stroke:#FFFFFF;stroke-width:5.0355;stroke-miterlimit:10;}
	.st39{fill:#777777;}
	.st40{fill:#70533D;}
	.st41{fill:#EA6A6D;}
	.st42{fill:#C7C6C6;}
	.st43{fill:#9FA0A3;}
	.st44{fill:#3C5777;}
	.st45{fill:#F2C24E;}
	.st46{fill:none;stroke:#E1E2E3;stroke-miterlimit:10;}
	.st47{fill:#314759;}
	.st48{fill:none;stroke:#314759;stroke-miterlimit:10;}
	.st49{fill:none;stroke:#3C5777;stroke-miterlimit:10;}
	.st50{fill:#80BBA8;}
	.st51{fill:#E94C64;}
	.st52{fill:#59C0C1;}
	.st53{fill:#8E8E8E;}
	.st54{fill:#80C0AC;}
	.st55{fill:none;stroke:#504F4F;stroke-linecap:round;stroke-miterlimit:10;}
	.st56{fill:#F9D88F;}
	.st57{fill:#BABABA;}
	.st58{clip-path:url(#XMLID_3_);fill:#F9D88F;}
	.st59{fill-rule:evenodd;clip-rule:evenodd;fill:#F2BC86;}
	.st60{fill:#F2F2F2;}
	.st61{fill:#57C4C6;}
	.st62{fill:#B4E219;}
	.st63{fill:#74777C;}
	.st64{fill:#E03E3E;}
	.st65{fill:#595C62;}
	.st66{fill:none;stroke:#C7C6C6;stroke-width:0.8879;stroke-miterlimit:10;}
	.st67{fill-rule:evenodd;clip-rule:evenodd;fill:#F9F0EB;}
	.st68{fill-rule:evenodd;clip-rule:evenodd;fill:#595C62;}
	.st69{fill:#EC7045;}
	.st70{opacity:0.7;}
	.st71{fill:#90CED2;}
	.st72{fill:#882888;}
	.st73{fill:#C1C0C0;}
	.st74{fill:#768035;}
	.st75{fill:#E3B27C;}
	.st76{fill:#775644;}
	.st77{fill:#DBC7C2;}
	.st78{fill:#D95027;}
	.st79{fill:#57BFC2;}
	.st80{clip-path:url(#SVGID_2_);}
	.st81{fill-rule:evenodd;clip-rule:evenodd;fill:#424750;}
	.st82{fill-rule:evenodd;clip-rule:evenodd;fill:#E1E2E3;}
	.st83{fill:none;stroke:#E6E6E6;stroke-miterlimit:10;}
	.st84{fill:#6BA588;}
	.st85{fill:#F9F0EB;}
	.st86{fill:none;stroke:#6BA588;stroke-miterlimit:10;}
	.st87{fill:#281A12;}
	.st88{fill:#2E465D;}
	.st89{fill:#422E21;}
	.st90{fill-rule:evenodd;clip-rule:evenodd;fill:#3C5F7C;}
	.st91{fill-rule:evenodd;clip-rule:evenodd;fill:#2E465D;}
	.st92{fill:#EDE2A2;}
	.st93{fill:#EFDFA8;}
	.st94{fill:#9AC68F;}
	.st95{font-family:'Georgia';}
	.st96{font-size:1.6789px;}
	.st97{font-size:1.679px;}
	.st98{clip-path:url(#XMLID_5_);fill:#B4D6AA;}
	.st99{fill:#96D696;}
	.st100{clip-path:url(#XMLID_6_);fill:#A7DBA7;}
	.st101{clip-path:url(#XMLID_7_);fill:#B4D6AA;}
	.st102{fill:#4D4D4F;}
	.st103{fill:#69502E;}
	.st104{fill:#3F3F3F;}
	.st105{fill:#4C381B;}
	.st106{fill:#919090;}
	.st107{fill:#74DDE2;}
	.st108{clip-path:url(#XMLID_10_);fill:#F9D88F;}
	.st109{fill-rule:evenodd;clip-rule:evenodd;fill:#504F4F;}
	.st110{fill-rule:evenodd;clip-rule:evenodd;fill:#FFFFFF;}
	.st111{fill-rule:evenodd;clip-rule:evenodd;fill:none;stroke:#4D4D4D;stroke-miterlimit:10;}
	.st112{fill:#4D4D4D;}
	.st113{fill:#42474F;}
	.st114{fill:#E6E7E8;}
	.st115{fill:#3A3A3A;}
	.st116{fill-rule:evenodd;clip-rule:evenodd;fill:#43474F;}
	.st117{fill-rule:evenodd;clip-rule:evenodd;fill:#DBDBDA;}
	.st118{fill:#F3E7A8;}
	.st119{fill:#F4E4AD;}
	.st120{fill:none;stroke:#F4E4AD;stroke-width:0.454;stroke-miterlimit:10;}
	.st121{fill:#57C4C7;}
	.st122{clip-path:url(#SVGID_4_);fill:#E6E7E8;}
	.st123{fill-rule:evenodd;clip-rule:evenodd;fill:#42474F;}
	.st124{fill-rule:evenodd;clip-rule:evenodd;fill:#E6E7E8;}
	.st125{fill:#E5D9BE;}
	.st126{fill:#F7F1E2;}
	.st127{fill:#B5967D;}
	.st128{clip-path:url(#XMLID_11_);fill:#96D696;}
	.st129{fill-rule:evenodd;clip-rule:evenodd;fill:#92BA85;}
	.st130{fill-rule:evenodd;clip-rule:evenodd;fill:#EFEFE4;}
	.st131{fill-rule:evenodd;clip-rule:evenodd;fill:#E0E0C7;}
	.st132{fill:#999999;}
	.st133{fill:#F9C543;}
	.st134{fill:#355B77;}
	.st135{fill:#C49B49;}
	.st136{fill:#444751;}
	.st137{fill:#D6D6D5;}
	.st138{fill:none;}
	.st139{fill:#5DC667;}
	.st140{fill:#EDE9C3;}
	.st141{fill:none;stroke:#FCD98D;stroke-linecap:round;stroke-miterlimit:10;}
	.st142{fill:none;stroke:#CBCACA;stroke-width:0.5;stroke-miterlimit:10;}
	.st143{fill:none;stroke:#80C0AC;stroke-width:0.5;stroke-miterlimit:10;}
	.st144{fill:#E85273;}
	.st145{fill:#FCD224;}
	.st146{fill:#59B5CE;}
	.st147{fill:#52ACC1;}
	.st148{fill:#FAFAFA;}
	.st149{fill:#E7E6E6;}
	.st150{fill:#71D3F4;}
	.st151{fill:#A3E8E3;}
	.st152{fill:#4AAFAF;}
	.st153{fill:#F2BC86;}
	.st154{fill:#585D62;}
	.st155{fill-rule:evenodd;clip-rule:evenodd;fill:#DBDBD9;}
	.st156{fill-rule:evenodd;clip-rule:evenodd;fill:#E7E6E6;}
	.st157{fill:#2A2A34;}
	.st158{fill:none;stroke:#3B79A3;stroke-miterlimit:10;}
	.st159{fill:#EDEFED;}
	.st160{fill:none;stroke:#CCCCCC;stroke-miterlimit:10;stroke-dasharray:1,1;}
	.st161{fill:#2D567F;}
	.st162{fill:#EF89B0;}
	.st163{fill:#3F6B9E;}
	.st164{fill:#D21C5A;}
	.st165{fill:#EDC169;}
	.st166{fill:#DDAC57;}
	.st167{fill:#92BA85;}
	.st168{fill:#29507F;}
	.st169{fill:none;stroke:#EFDFA8;stroke-width:0.3783;stroke-miterlimit:10;}
	.st170{clip-path:url(#SVGID_6_);}
	.st171{fill:#AEAEAF;}
	.st172{fill:#895C4E;}
	.st173{fill-rule:evenodd;clip-rule:evenodd;fill:#F7E9DF;}
	.st174{clip-path:url(#SVGID_8_);}
	.st175{clip-path:url(#SVGID_10_);fill:#F15C60;}
	.st176{fill-rule:evenodd;clip-rule:evenodd;fill:#F4F4F4;}
	.st177{clip-path:url(#SVGID_12_);}
	.st178{clip-path:url(#SVGID_14_);fill:#F15C60;}
</style>
<g>
	<path class="st0" d="M54.3,79.1c-2-1.5-11.3-9-12.3-13.8c-1.6-7.7,6-4.5,6-4.5s-1-2.3-3.3-4.1c-2.2-1.7-7.6-2.4-9.2,3.5
		c-0.8,3.2-0.9,4.8-0.8,5.7c-0.2-1.1-0.4-3,0.3-5.8c1.2-4.6,3-4.3,2-4.9c-0.5-0.3-5,2-6.1,4.3c-1.1,2.2-1,6.3,0.1,9.1
		c1.9,5-2.3-1.8-1-7.7c0.1-0.6-3.9,6.2-3.4,11.7c0.2,2.2,1.1,4.4,1.1,4.4c-0.4-0.7-0.9-1.9-1.3-3.6c-0.7-2.8,0.2-5.9,0.2-5.9
		s-6.3,8.6-3.7,16.5c13.3,40.5,46.6,31.1,46.6,31.1L85.7,96l1.6-27.2C74.4,79.3,63.2,81,54.3,79.1z"/>
	<path id="XMLID_226_" class="st25" d="M124.3,125.5c-5-0.7-10.2-1-15.3-1c0,0,0,0,0,0c-0.7-0.6-1.3-1.2-1.9-1.9
		c-0.1-0.1-0.2-0.3-0.3-0.4c-0.2-0.3-0.5-0.7-0.7-1c-2.2-3.2-4-6.5-6.3-9.6c-2.1-2.7-6.9-1.1-7.6,2c-0.8,3.4-1.5,6.8-2.4,10.1
		c-0.2,0.7-0.4,1.3-0.6,2c-2,0.2-3.9,0.5-5.8,0.7c-2.7,0.4-4.4,0.7-7,0.9c-3.7,0.3-5.7-0.2-9.4,0.1c-2.6-5.7-5.8-11.5-5.8-18.3
		c0-12.9,5.2-24.3,13.4-32c4-5.6,6.1-13.2,7.6-17.8v0c0.1-0.3,0.2-0.6,0.3-0.9c0,0,0-0.1,0-0.1c0.1-0.3,0.2-0.5,0.2-0.8
		c0.2-0.7,0.4-1.5,0.6-2.2v0c0.9-3.5,1.6-7.5-0.5-11.8c-1-3.3-1.2-7.3-1-11.1c-0.2-4.7,0.1-9.8,1.9-13.4c1-2.7,4.1-4.4,7.3-5.5
		c-1.4,0-2.6,0-2.6,0c3.4-2.3,6.3-2.1,8.5-1.3c0.7-0.1,1.2-0.2,1.6-0.2C96.8,11,95,10.4,95,10.4c5.2-1.3,9.7,1.6,11.7,3.1
		c3.1,1,6.1,2.7,7,5.4c1.9,3.5,2.2,8.6,1.9,13.4c0.2,4.4,0,7.8-0.9,11.1c-1.9,4.5-1.8,8.2-1.1,11.7c0.1,0.3,0.1,0.7,0.2,1
		c0,0,0,0,0,0.1c0.1,0.3,0.1,0.6,0.2,0.9c0,0,0,0,0,0.1c0.1,0.3,0.2,0.6,0.2,0.9c0,0,0,0,0,0.1c0.1,0.3,0.2,0.6,0.3,1c0,0,0,0,0,0v0
		c1.4,4.7,3.5,12.2,7.6,17.8c8.2,7.7,13.5,19.2,13.5,32.1c0,6.4-2.6,12.4-4.9,17.8C128.2,126.4,126.9,125.9,124.3,125.5z"/>
	<path id="XMLID_223_" class="st94" d="M58.3,96.6c0-6.1-1-12.5-3.8-17.4c6.2,0.9,17.1,1.4,29.9-9.9l0.5,26.2l-16,18.9
		c0,0-2.4,4.5-15.5,1.2C56.7,110.3,58.3,103.2,58.3,96.6z"/>
	<path id="XMLID_211_" class="st3" d="M83.4,144.7L83.4,144.7c-9.6-5-18.1-14.9-18.1-26.2c0-16.5,15.8-29.9,33-29.9
		c17.2,0,33,13.4,33,29.9c0,11.3-8.5,21.2-18.2,26.3l0.1,0c-4.7,2.7-8.1,7.3-9.1,12.6c-0.2-0.1-1.2-0.6-2.4,0v-9.2
		c-1.1,0.1-2.2,0.2-3.3,0.2c-1.1,0-2.2-0.1-3.3-0.2v9.2c-1.3-0.6-2.3-0.1-2.5,0C91.6,152,88.2,147.4,83.4,144.7z"/>
	<text id="XMLID_199_" transform="matrix(0.9332 0.3594 0.3594 -0.9332 75.4889 117.7169)" class="st32 st95 st96">VI</text>
	<text id="XMLID_198_" transform="matrix(0.2844 -0.9587 -0.9587 -0.2844 72.8338 114.9191)" class="st32 st95 st96">III</text>
	<text id="XMLID_197_" transform="matrix(-0.3183 0.948 0.948 0.3183 81.312 116.9336)" class="st32 st95 st97">IX</text>
	<path id="XMLID_196_" class="st32" d="M77.1,115.7c0-0.1,0-0.2-0.1-0.2c-0.1,0-0.2,0-0.2,0.1c0,0.1,0,0.2,0.1,0.2
		C76.9,115.8,77,115.7,77.1,115.7z"/>
	
		<rect id="XMLID_195_" x="77.2" y="113.6" transform="matrix(0.9342 0.3566 -0.3566 0.9342 45.9649 -20.0274)" class="st32" width="0.2" height="2.1"/>
	<polygon id="XMLID_194_" class="st33" points="75.5,115 75.5,115.1 76.9,115.7 76.9,115.5 	"/>
	<polyline id="XMLID_186_" class="st32" points="77.4,113.6 77.8,113.3 77.9,113.9 77.4,113.6 	"/>
	<polyline id="XMLID_185_" class="st32" points="75.4,115.3 75.2,114.9 75.7,114.7 75.5,115.3 	"/>
	<path id="XMLID_184_" class="st34" d="M86.4,115.2c0,0-12.9,0.9-21-5.3v2.3c0,0,6.4,6.3,21,5.2V115.2z"/>
	<path id="XMLID_183_" class="st25" d="M81.6,32.3c-0.2-4.7,0.1-9.8,1.9-13.4c1-2.7,4.1-4.4,7.3-5.5c-1.4,0-2.6,0-2.6,0
		c3.4-2.3,6.3-2.1,8.5-1.3c0.7-0.1,1.2-0.2,1.6-0.2C96.8,11,95,10.4,95,10.4c5.2-1.3,9.7,1.6,11.7,3.1c3.1,1,6.1,2.7,7,5.4
		c1.9,3.5,2.2,8.6,1.9,13.4c0.2,4.4,0,7.8-0.9,11.1c-2.6,6.2-1.4,10.9-0.1,15.7L98.3,87.9V88L82,59.2c1.1-4.4,3.6-9.9,0.6-15.9
		C81.6,40.1,81.5,36.1,81.6,32.3z"/>
	<path id="XMLID_180_" class="st12" d="M106.2,29.3c0,1.5,1.5,2.7,3.5,2.8c2,0.1,3.6-1.1,3.7-2.6c0.1-1.5-1.5-2.7-3.5-2.8
		C107.9,26.7,106.2,27.8,106.2,29.3z"/>
	<path id="XMLID_179_" class="st13" d="M108.1,29.1c-0.1,0.9,0.5,1.8,1.4,1.9c0.9,0.1,1.8-0.5,1.9-1.4c0.1-0.9-0.5-1.7-1.4-1.9
		C109.1,27.6,108.2,28.2,108.1,29.1z"/>
	<path id="XMLID_178_" class="st12" d="M84.2,29.3c0,1.5,1.5,2.7,3.5,2.8c2,0.1,3.6-1.1,3.7-2.6c0-1.5-1.5-2.7-3.5-2.8
		C85.9,26.7,84.2,27.8,84.2,29.3z"/>
	<path id="XMLID_175_" class="st13" d="M86.1,29.1C86,30,86.6,30.8,87.5,31c0.9,0.1,1.8-0.5,1.9-1.4c0.1-0.9-0.5-1.7-1.4-1.9
		C87.1,27.6,86.2,28.2,86.1,29.1z"/>
	<path id="XMLID_169_" class="st13" d="M74.8,26c-0.1,2,0.4,2,0.4,2c0.1,0.2,0.3,0.4,0.3,0.4c0.5,0.2,1.2,2.4,1.2,2.4
		c0.9,2.7,2.4,3.1,2.4,3.1c3.9,1.4,10.3,0.7,10.3,0.7s3.6-0.1,4.7-1.6c0.8-1,2-4.3,2-4.3s0.3-0.6,0.8-0.9c0.6-0.3,1.4-0.3,1.4-0.3
		s0.8,0,1.4,0.3c0.5,0.3,0.7,0.8,0.7,0.8s1.3,3.3,2.1,4.4c1.1,1.5,4.7,1.6,4.7,1.6s6.4,0.7,10.3-0.7c0,0,1.4-0.3,2.4-3.1
		c0,0,0.7-2.2,1.2-2.4c0,0,0.2-0.3,0.3-0.4c0,0,0.5,0,0.4-2l0-0.7c0,0,0-0.5-1-0.7c-1.1-0.2-1.9-0.9-11.7-0.6c-7,0.6-9,1.4-9,1.4
		s-0.3,0.1-0.8,0.1c-0.3,0.1-0.6,0.1-0.9,0.1c-0.3,0-0.6,0-0.9-0.1c-0.5,0-0.9-0.2-0.9-0.2s-2-0.8-9-1.4c-9.9-0.2-10.7,0.5-11.7,0.6
		c-1.1,0.2-1,0.7-1,0.7L74.8,26z M102.7,25.8c0,0,4.3-1.4,13.2-0.9c0,0,3.7,0,3.7,1.5c0,0-0.2,3.3-1.1,5.2c0,0-0.5,1.7-3.1,1.9
		c0,0-5.8,1.2-11.3-0.6c0,0-1.4-0.4-2.4-3.9C101.8,29.1,100.9,26.5,102.7,25.8z M77.1,26.4c0-1.6,3.7-1.5,3.7-1.5
		c8.9-0.5,13.2,0.9,13.2,0.9c1.9,0.7,0.9,3.3,0.9,3.3c-1,3.5-2.4,3.9-2.4,3.9c-5.5,1.7-11.3,0.6-11.3,0.6c-2.6-0.2-3.1-1.9-3.1-1.9
		C77.3,29.7,77.1,26.4,77.1,26.4z"/>
	<path id="XMLID_168_" class="st3" d="M98.7,33c1.8,3,5.5,3.8,5.5,3.8c-2.9,1.8-5.8,7.4-5.8,7.4s-2.8-5.6-5.7-7.4
		C92.6,36.8,96.9,36,98.7,33z"/>
	<path id="XMLID_166_" class="st34" d="M86.4,115.2c0,0-12.9,0.9-21-5.3v2.3c0,0,6.4,6.3,21,5.2V115.2z"/>
	<path class="st14" d="M96.3,159.3l-0.1-0.1l0.1-0.1v-2.3c0-0.3-0.2-0.5-0.5-0.5c0,0-0.7,0.6-2,0.6c-1.3,0-1.9-0.6-2.2-0.6
		c-0.1,0,0-0.3-0.3,0c-2,1.8-6.3,2.2-6.3,2.2c-0.2,0-0.4,0.4-0.2,0.7c0,0,0.1,0.1,0.1,0.1l-0.1,0.1c0,0.3,0.2,0.5,0.5,0.5h10.5
		c0.3,0,0.5-0.2,0.5-0.5V159.3z"/>
	<path class="st14" d="M100.5,159.4c0,0.3,0.2,0.5,0.5,0.5h10.5c0.3,0,0.5-0.2,0.5-0.5l-0.1-0.1c0,0,0.1-0.1,0.1-0.1
		c0.2-0.3,0.1-0.7-0.2-0.7c0,0-4.4-0.4-6.3-2.2c-0.3-0.3-0.2,0-0.3,0c-0.3,0-0.9,0.6-2.2,0.6c-1.3,0-2-0.6-2-0.6
		c-0.3,0-0.5,0.2-0.5,0.5v2.3l0.1,0.1l-0.1,0.1V159.4z"/>
	<g>
		<defs>
			<path id="XMLID_164_" d="M58.3,96.6c0-6.1-1-12.5-3.8-17.4c6.2,0.9,17.1,1.4,29.9-9.9l0.5,26.2l-16,18.9c0,0-3.1,6.6-15.5,1
				C56.7,110.2,58.3,103.2,58.3,96.6z"/>
		</defs>
		<clipPath id="XMLID_3_">
			<use xlink:href="#XMLID_164_"  style="overflow:visible;"/>
		</clipPath>
		<path style="clip-path:url(#XMLID_3_);fill:#B4D6AA;" d="M63.1,121.7l-1.9-0.6c7.8-26.4,0.2-41.6,0.1-41.7l1.8-0.9
			C63.4,79.1,71.2,94.5,63.1,121.7z"/>
	</g>
	<path id="XMLID_163_" class="st99" d="M98.5,138.2c-11,0-19.5-1.2-26.1-2.2c-6.3-5.9-11.4-16.8-11.4-26.9c0-12.9,5.2-24.3,13.4-32
		c3.2-4.4,5.1-10.1,6.6-14.6c3.6,2.4,9,4.6,17.1,4.6c8.4,0,13.9-2.3,17.5-4.9c1.4,4.5,3.4,10.3,6.7,14.8
		c8.2,7.7,13.5,19.2,13.5,32.1c0,10-5.4,21.1-11.3,26.7C118.9,136.8,110.6,138.2,98.5,138.2z"/>
	<g>
		<defs>
			<path id="XMLID_162_" d="M98.5,138.2c-11,0-19.5-1.2-26.1-2.2c-6.3-5.9-11.4-16.8-11.4-26.9c0-12.9,5.2-24.3,13.4-32
				c3.2-4.4,5.1-10.1,6.6-14.6c3.6,2.4,9,4.6,17.1,4.6c8.4,0,13.9-2.3,17.5-4.9c1.4,4.5,3.4,10.3,6.7,14.8
				c8.2,7.7,13.5,19.2,13.5,32.1c0,10-5.4,21.1-11.3,26.7C118.9,136.8,110.6,138.2,98.5,138.2z"/>
		</defs>
		<clipPath id="XMLID_5_">
			<use xlink:href="#XMLID_162_"  style="overflow:visible;"/>
		</clipPath>
		<rect x="57.8" y="69.9" style="clip-path:url(#XMLID_5_);fill:#A7DBA7;" width="82.5" height="2.2"/>
		<rect x="57.8" y="77.9" style="clip-path:url(#XMLID_5_);fill:#A7DBA7;" width="82.5" height="2.2"/>
		<rect x="57.8" y="86" style="clip-path:url(#XMLID_5_);fill:#A7DBA7;" width="82.5" height="2.2"/>
		<rect x="57.8" y="94" style="clip-path:url(#XMLID_5_);fill:#A7DBA7;" width="82.5" height="2.2"/>
		<rect x="57.8" y="102" style="clip-path:url(#XMLID_5_);fill:#A7DBA7;" width="82.5" height="2.2"/>
		<rect x="57.8" y="110.1" style="clip-path:url(#XMLID_5_);fill:#A7DBA7;" width="82.5" height="2.2"/>
		<rect x="57.8" y="118.1" style="clip-path:url(#XMLID_5_);fill:#A7DBA7;" width="82.5" height="2.2"/>
		<rect x="57.8" y="126.2" style="clip-path:url(#XMLID_5_);fill:#A7DBA7;" width="82.5" height="2.2"/>
		<rect x="57.8" y="134.2" style="clip-path:url(#XMLID_5_);fill:#A7DBA7;" width="82.5" height="2.2"/>
	</g>
	<path id="XMLID_161_" class="st94" d="M113.1,95.1c0,0,9.2,2.9,19.9-1.9c0,0,8.1,19.2-3.7,36.5c0,0-7.4,3-16.9,0
		C112.4,129.8,123.2,115,113.1,95.1z"/>
	<path id="XMLID_58_" class="st25" d="M88.7,96.1c0,0,4.6,9.4,7.9,9.8c0,0-8.1-8.2-7.4-14.6c0,0,4.1,7.3,7.1,8.3
		c0,0-7.3-6.4-5.5-14.9c0,0,3.3,9,6.6,9.3c0,0-5.6-6.6-5.1-12.8c0,0,7.9,10.7,20.7,13.9c2.8,4.9,4.3,10.6,4.3,16.7
		c0,6.6-1.9,12.7-5.1,18c-6-1.8-12.4-5.8-17.6-14.1c0,0,0,0,0,0c-2.4-3.6-3.9-7-4.8-9.9c-0.1-0.2-0.1-0.3-0.2-0.5c0,0,0,0,0.1,0.1
		C88.1,99.7,88.7,96.1,88.7,96.1z"/>
	<g>
		<defs>
			<path id="XMLID_1_" d="M113.1,95.1c0,0,9.2,2.9,19.9-1.9c0,0,8.1,19.2-3.7,36.5c0,0-7.4,3-16.9,0
				C112.4,129.8,123.2,115,113.1,95.1z"/>
		</defs>
		<clipPath id="XMLID_6_">
			<use xlink:href="#XMLID_1_"  style="overflow:visible;"/>
		</clipPath>
		<path style="clip-path:url(#XMLID_6_);fill:#B4D6AA;" d="M128.1,131.8l-1.9-0.8c8.1-19.5,0.5-36.3,0.4-36.5l1.8-0.8
			C128.8,94.5,136.5,111.5,128.1,131.8z"/>
		<path style="clip-path:url(#XMLID_6_);fill:#B4D6AA;" d="M120,131.8l-1.9-0.8c8.1-19.5,0.5-36.3,0.4-36.5l1.8-0.8
			C120.8,94.5,128.4,111.5,120,131.8z"/>
	</g>
	<path class="st102" d="M62.3,73.6V60.7c0-0.5-0.4-0.9-0.9-0.9H33.9c-0.5,0-0.9,0.4-0.9,0.9v12.9H62.3z"/>
	<path class="st103" d="M33,76.5v7.7c0,0.5,0.4,0.9,0.9,0.9h27.6c0.5,0,0.9-0.4,0.9-0.9v-7.7H33z"/>
	<rect x="33" y="73.6" class="st104" width="29.3" height="2.9"/>
	<path class="st105" d="M33,83.4v0.8c0,0.5,0.4,0.9,0.9,0.9h27.6c0.5,0,0.9-0.4,0.9-0.9v-0.8H33z"/>
	<circle class="st12" cx="47.6" cy="66.8" r="5.9"/>
	<circle class="st1" cx="47.6" cy="66.8" r="5"/>
	<rect x="54.8" y="60.9" class="st104" width="6.2" height="6.2"/>
	<circle class="st106" cx="57.9" cy="64" r="2.8"/>
	<path class="st45" d="M53.2,61c0,0,2.8-0.2,4.3-2c1.5-1.8,1.9-4,1.9-4s0.5,2.6,2.3,4.1c1.7,1.3,4.1,1.8,4.1,1.8s-2.6,0.4-4.1,1.9
		c-1.5,1.5-2.2,4.2-2.2,4.2S58.6,61.1,53.2,61z"/>
	<rect x="34.6" y="81.5" class="st12" width="25.8" height="13.2"/>
	<rect x="36" y="81.5" class="st1" width="23.1" height="7.2"/>
	<path class="st107" d="M37.6,82c0,3,2.3,5.2,5.2,5.2c2.5,0,4.6-1.6,5.1-4.2c0.7,1.6,2.1,2.3,3.8,2.3c2,0,3.6-1.3,4.1-3.3H37.6z"/>
	<rect x="33.8" y="81.2" class="st105" width="27.6" height="0.8"/>
	<path class="st106" d="M40.3,63h-4.7c-0.4,0-0.7-0.3-0.7-0.7v-2.5H41v2.5C41,62.7,40.7,63,40.3,63z"/>
	<path class="st0" d="M45.7,57.6c0,0,2,1,2.5,4.8c0,0-3.8-1.9-8.1-2.6l3.7-1.9L45.7,57.6z"/>
	<circle class="st106" cx="37.6" cy="70.4" r="1.4"/>
	<circle class="st106" cx="57.8" cy="70.4" r="1.4"/>
</g>
</svg>
