<?xml version="1.0" encoding="utf-8"?>
<!-- Generator: Adobe Illustrator 19.2.1, SVG Export Plug-In . SVG Version: 6.00 Build 0)  -->
<svg version="1.1" id="Layer_1" xmlns="http://www.w3.org/2000/svg" xmlns:xlink="http://www.w3.org/1999/xlink" x="0px" y="0px"
	 width="200px" height="200px" viewBox="0 0 200 200" style="enable-background:new 0 0 200 200;" xml:space="preserve">
<style type="text/css">
	.st0{fill:#E2E3E4;}
	.st1{fill:#595D62;}
	.st2{fill:#C7702A;}
	.st3{fill:#C9C7C7;}
	.st4{fill:#EA8824;}
	.st5{fill:none;stroke:#C9C7C7;stroke-width:0.75651;stroke-miterlimit:10;}
	.st6{fill-rule:evenodd;clip-rule:evenodd;fill:#444851;}
	.st7{fill-rule:evenodd;clip-rule:evenodd;fill:#D8D7D6;}
	.st8{fill:#FFFFFF;}
	.st9{fill:#2B2B35;}
	.st10{fill:#434850;}
	.st11{fill:#6C4396;}
	.st12{fill:#A4A4A4;}
	.st13{fill:#EA4C65;}
	.st14{fill:#94814F;}
	.st15{fill:#9C2023;}
	.st16{fill:#B7242C;}
	.st17{fill-rule:evenodd;clip-rule:evenodd;fill:#FFFFFF;}
	.st18{fill:#0C4F6E;}
	.st19{fill:#C18E46;}
	.st20{fill:#3180BF;}
	.st21{fill:#D94F4F;}
	.st22{fill:#2C2C2D;}
	.st23{fill:#595E63;}
	.st24{fill:#E3E2E2;}
	.st25{fill:#9D9EA0;}
	.st26{fill:none;stroke:#C8C6C6;stroke-width:0.75651;stroke-miterlimit:10;}
	.st27{fill:#2A2E35;}
	.st28{fill-rule:evenodd;clip-rule:evenodd;fill:#454751;}
	.st29{fill-rule:evenodd;clip-rule:evenodd;fill:#D8D7D5;}
	.st30{fill:#434851;}
	.st31{fill:#EC9424;}
	.st32{fill:#445AA4;}
	.st33{clip-path:url(#SVGID_2_);fill:#58C1C4;}
	.st34{fill:#B7DBDB;}
	.st35{fill:#58C1C4;}
	.st36{fill:none;stroke:#434851;stroke-width:1.51302;stroke-linecap:round;stroke-linejoin:round;stroke-miterlimit:10;}
	.st37{clip-path:url(#SVGID_4_);fill:#58C1C4;}
	.st38{fill:#010101;}
	.st39{fill:#161718;}
	.st40{fill-rule:evenodd;clip-rule:evenodd;fill:#010101;}
	.st41{fill:#272626;}
	.st42{fill:#17191A;}
	.st43{fill:#D4D5D4;}
	.st44{fill-rule:evenodd;clip-rule:evenodd;fill:#272626;}
	.st45{fill-rule:evenodd;clip-rule:evenodd;fill:#E2E3E4;}
	.st46{fill:#19244E;}
	.st47{fill:#E3E1E1;}
	.st48{fill:#8E1B27;}
	.st49{fill:#CA2033;}
	.st50{fill:#EFE0A7;}
	.st51{fill:none;stroke:#EFE0A7;stroke-width:0.09335;stroke-miterlimit:10;}
	.st52{fill:#EECA81;}
	.st53{fill:#F3F3F3;}
	.st54{fill:#A0A1A4;}
	.st55{fill:#EB6B6D;}
	.st56{fill:none;stroke:#CAC8C6;stroke-width:0.02289;stroke-miterlimit:10;}
	.st57{fill:#464951;}
	.st58{fill:#D7D6D6;}
	.st59{fill:#EECC82;}
	.st60{fill:#F0E0A9;}
	.st61{fill:none;stroke:#F0E0A9;stroke-width:0.01145;stroke-miterlimit:10;}
	.st62{fill:#5AC1C2;}
	.st63{clip-path:url(#SVGID_6_);fill:#E2E3E4;}
	.st64{fill:#EE7823;}
	.st65{fill:#D6563D;}
	.st66{fill:#70533D;}
	.st67{fill:#81BCA9;}
	.st68{clip-path:url(#SVGID_8_);fill:#E2E3E4;}
	.st69{fill:none;stroke:#EFE0A7;stroke-width:0.37825;stroke-miterlimit:10;}
	.st70{clip-path:url(#SVGID_10_);}
	.st71{clip-path:url(#SVGID_12_);fill:#E3E2E2;}
	.st72{clip-path:url(#SVGID_12_);}
	.st73{fill-rule:evenodd;clip-rule:evenodd;fill:#1AAEA1;}
	.st74{fill-rule:evenodd;clip-rule:evenodd;fill:#0C8C70;}
	.st75{fill:#1AAEA1;}
	.st76{fill:#6F513B;}
	.st77{fill:#515050;}
	.st78{fill:#D4563A;}
	.st79{fill:none;}
	.st80{clip-path:url(#SVGID_14_);}
	.st81{clip-path:url(#SVGID_16_);fill:#E3E2E2;}
	.st82{clip-path:url(#SVGID_16_);}
	.st83{fill:#EEE3A3;}
	.st84{fill:none;stroke:#F0E0A9;stroke-width:0.37825;stroke-miterlimit:10;}
	.st85{clip-path:url(#SVGID_18_);}
	.st86{fill-rule:evenodd;clip-rule:evenodd;fill:#434850;}
	.st87{clip-path:url(#SVGID_20_);}
	.st88{fill:none;stroke:#E4CC21;stroke-width:1.92135;stroke-miterlimit:10;}
	.st89{fill:none;stroke:#FFFFFF;stroke-width:2.2037;stroke-miterlimit:10;}
	.st90{fill:#E4CC21;}
	.st91{fill:#232244;}
	.st92{fill:#C8C6C6;}
	.st93{fill:#542F19;}
	.st94{fill-rule:evenodd;clip-rule:evenodd;fill:#3D2E21;}
	.st95{fill:#3D2E21;}
	.st96{fill-rule:evenodd;clip-rule:evenodd;fill:#232244;}
	.st97{fill-rule:evenodd;clip-rule:evenodd;fill:#2E3280;}
	.st98{fill:#281911;}
	.st99{fill-rule:evenodd;clip-rule:evenodd;fill:#E4CC21;}
	.st100{fill-rule:evenodd;clip-rule:evenodd;fill:#D85127;}
	.st101{clip-path:url(#SVGID_22_);}
	.st102{fill-rule:evenodd;clip-rule:evenodd;fill:#EE7434;}
	.st103{fill:#17733B;}
	.st104{clip-path:url(#SVGID_24_);}
	.st105{fill:#1D73B6;}
	.st106{fill:#115E8E;}
	.st107{clip-path:url(#SVGID_26_);}
	.st108{fill:none;stroke:#FFFFFF;stroke-width:1.49993;stroke-miterlimit:10;}
	.st109{fill:none;stroke:#CAC8C6;stroke-width:0.024;stroke-miterlimit:10;}
	.st110{clip-path:url(#SVGID_28_);fill:#E2E3E4;}
	.st111{fill:#603A17;}
	.st112{fill:#78471F;}
	.st113{fill:#F8FAFD;}
	.st114{clip-path:url(#SVGID_30_);}
	.st115{clip-path:url(#SVGID_32_);}
	.st116{fill:none;stroke:#FFFFFF;stroke-width:0.49998;stroke-miterlimit:10;}
	.st117{fill:none;stroke:#FFFFFF;stroke-width:0.74997;stroke-miterlimit:10;}
	.st118{clip-path:url(#SVGID_34_);}
	.st119{clip-path:url(#SVGID_36_);}
	.st120{clip-path:url(#SVGID_38_);fill:#E2E3E4;}
	.st121{clip-path:url(#SVGID_40_);}
	.st122{clip-path:url(#SVGID_42_);}
	.st123{clip-path:url(#SVGID_44_);}
	.st124{opacity:0.7;fill:#434850;}
	.st125{fill:#5B3287;}
	.st126{fill:#643E1E;}
	.st127{fill:#C8D6DE;}
	.st128{fill:none;stroke:#CAC7C6;stroke-width:0.75651;stroke-miterlimit:10;}
	.st129{fill:#B6C3CE;}
	.st130{fill:#273980;}
	.st131{fill:#2B2C35;}
	.st132{clip-path:url(#SVGID_46_);fill:#FFFFFF;stroke:#5A3B84;stroke-width:4.53905;stroke-miterlimit:10;}
	.st133{fill:#C8C7C9;}
	.st134{fill:#056F43;}
	.st135{clip-path:url(#SVGID_48_);}
	.st136{fill:#EBEDF1;}
	.st137{fill:#CF2B29;}
	.st138{fill-rule:evenodd;clip-rule:evenodd;fill:#273980;}
	.st139{fill:#D6232A;}
	.st140{clip-path:url(#SVGID_52_);fill:#FFFFFF;stroke:#5A3B84;stroke-width:4.53905;stroke-miterlimit:10;}
	.st141{clip-path:url(#SVGID_54_);}
	.st142{fill:#532D17;}
	.st143{fill:none;stroke:#5E1116;stroke-width:0.95369;stroke-miterlimit:10;}
	.st144{fill-rule:evenodd;clip-rule:evenodd;fill:#5E1116;}
	.st145{fill:none;stroke:#5E1116;stroke-width:0.94639;stroke-miterlimit:10;}
	.st146{fill:#291B13;}
	.st147{fill-rule:evenodd;clip-rule:evenodd;fill:#291B13;}
	.st148{fill-rule:evenodd;clip-rule:evenodd;fill:#454850;}
	.st149{fill-rule:evenodd;clip-rule:evenodd;fill:#74441F;}
	.st150{fill:#7F161B;}
	.st151{fill-rule:evenodd;clip-rule:evenodd;fill:#7F161B;}
	.st152{fill:none;stroke:#5E1116;stroke-width:1.04342;stroke-miterlimit:10;}
	.st153{fill:#E4E0E4;}
	.st154{clip-path:url(#SVGID_58_);fill:#E1244D;}
	.st155{clip-path:url(#SVGID_60_);fill:#E1244D;}
	.st156{fill:#292933;}
	.st157{fill:none;stroke:#CAC8C6;stroke-width:0.02378;stroke-miterlimit:10;}
	.st158{fill:none;stroke:#F0E0A9;stroke-width:0.01189;stroke-miterlimit:10;}
	.st159{clip-path:url(#SVGID_62_);fill:#E2E3E4;}
	.st160{fill:#2F465D;}
	.st161{fill:#432F21;}
	.st162{fill-rule:evenodd;clip-rule:evenodd;fill:#3D5F7C;}
	.st163{fill-rule:evenodd;clip-rule:evenodd;fill:#2F465D;}
	.st164{clip-path:url(#SVGID_64_);fill:#2C2C2D;}
	.st165{clip-path:url(#SVGID_66_);fill:#F8B917;}
	.st166{clip-path:url(#SVGID_66_);fill:#1F4394;}
	.st167{clip-path:url(#SVGID_68_);fill:#E8212F;}
	.st168{clip-path:url(#SVGID_68_);fill:#C9C8C8;}
	.st169{clip-path:url(#SVGID_68_);fill:#2A2E35;}
	.st170{clip-path:url(#SVGID_68_);fill:#444750;}
	.st171{clip-path:url(#SVGID_68_);fill:#D7D7D6;}
	.st172{clip-path:url(#SVGID_68_);fill:#E3E2E2;}
	.st173{clip-path:url(#SVGID_68_);fill:#FFFFFF;}
	.st174{clip-path:url(#SVGID_68_);fill:#2B2D34;}
	.st175{clip-path:url(#SVGID_68_);fill:#B9252D;}
	.st176{clip-path:url(#SVGID_68_);fill:#24345B;}
	.st177{clip-path:url(#SVGID_68_);fill:#F7F6F8;}
	.st178{clip-path:url(#SVGID_70_);fill:#1F4394;}
	.st179{clip-path:url(#SVGID_70_);fill:#F8B917;}
	.st180{clip-path:url(#SVGID_70_);fill:#883D1E;}
	.st181{clip-path:url(#SVGID_70_);fill:#F5D07C;}
	.st182{clip-path:url(#SVGID_72_);fill:#E8212F;}
	.st183{clip-path:url(#SVGID_72_);fill:#E3E2E2;}
	.st184{clip-path:url(#SVGID_72_);fill:#F7F6F8;}
	.st185{clip-path:url(#SVGID_72_);fill:#F8B917;}
	.st186{clip-path:url(#SVGID_72_);fill:#888983;}
	.st187{clip-path:url(#SVGID_74_);fill:#888983;}
	.st188{clip-path:url(#SVGID_74_);fill:#624219;}
	.st189{clip-path:url(#SVGID_76_);fill:#E3E2E2;}
	.st190{clip-path:url(#SVGID_76_);fill:#2C2C2D;}
	.st191{clip-path:url(#SVGID_76_);fill:#888983;}
	.st192{clip-path:url(#SVGID_78_);fill:#F8B917;}
	.st193{clip-path:url(#SVGID_78_);fill:#1F4394;}
	.st194{clip-path:url(#SVGID_80_);fill:#E8212F;}
	.st195{clip-path:url(#SVGID_80_);fill:#C9C8C8;}
	.st196{clip-path:url(#SVGID_80_);fill:#2A2E35;}
	.st197{clip-path:url(#SVGID_80_);fill:#444750;}
	.st198{clip-path:url(#SVGID_80_);fill:#D7D7D6;}
	.st199{clip-path:url(#SVGID_80_);fill:#E3E2E2;}
	.st200{clip-path:url(#SVGID_80_);fill:#FFFFFF;}
	.st201{clip-path:url(#SVGID_80_);fill:#2B2D34;}
	.st202{clip-path:url(#SVGID_80_);fill:#B9252D;}
	.st203{clip-path:url(#SVGID_80_);fill:#24345B;}
	.st204{clip-path:url(#SVGID_80_);fill:#F7F6F8;}
	.st205{clip-path:url(#SVGID_82_);fill:#1F4394;}
	.st206{clip-path:url(#SVGID_82_);fill:#F8B917;}
	.st207{clip-path:url(#SVGID_82_);fill:#883D1E;}
	.st208{clip-path:url(#SVGID_82_);fill:#F5D07C;}
	.st209{clip-path:url(#SVGID_84_);fill:#E8212F;}
	.st210{clip-path:url(#SVGID_84_);fill:#E3E2E2;}
	.st211{clip-path:url(#SVGID_84_);fill:#F7F6F8;}
	.st212{clip-path:url(#SVGID_84_);fill:#F8B917;}
	.st213{clip-path:url(#SVGID_84_);fill:#888983;}
	.st214{clip-path:url(#SVGID_86_);fill:#888983;}
	.st215{clip-path:url(#SVGID_86_);fill:#624219;}
	.st216{clip-path:url(#SVGID_88_);fill:#E3E2E2;}
	.st217{clip-path:url(#SVGID_88_);fill:#2C2C2D;}
	.st218{clip-path:url(#SVGID_90_);fill:#2C2C2D;}
	.st219{clip-path:url(#SVGID_92_);fill:#F8B917;}
	.st220{clip-path:url(#SVGID_92_);fill:#1F4394;}
	.st221{clip-path:url(#SVGID_94_);fill:#E8212F;}
	.st222{clip-path:url(#SVGID_94_);fill:#C9C8C8;}
	.st223{clip-path:url(#SVGID_94_);fill:#2A2E35;}
	.st224{clip-path:url(#SVGID_94_);fill:#444750;}
	.st225{clip-path:url(#SVGID_94_);fill:#D7D7D6;}
	.st226{clip-path:url(#SVGID_94_);fill:#E3E2E2;}
	.st227{clip-path:url(#SVGID_94_);fill:#FFFFFF;}
	.st228{clip-path:url(#SVGID_94_);fill:#2B2D34;}
	.st229{clip-path:url(#SVGID_94_);fill:#B9252D;}
	.st230{clip-path:url(#SVGID_94_);fill:#24345B;}
	.st231{clip-path:url(#SVGID_94_);fill:#F7F6F8;}
	.st232{clip-path:url(#SVGID_96_);fill:#1F4394;}
	.st233{clip-path:url(#SVGID_96_);fill:#F8B917;}
	.st234{clip-path:url(#SVGID_96_);fill:#883D1E;}
	.st235{clip-path:url(#SVGID_96_);fill:#F5D07C;}
	.st236{clip-path:url(#SVGID_98_);fill:#E8212F;}
	.st237{clip-path:url(#SVGID_98_);fill:#E3E2E2;}
	.st238{clip-path:url(#SVGID_98_);fill:#F7F6F8;}
	.st239{clip-path:url(#SVGID_98_);fill:#F8B917;}
	.st240{clip-path:url(#SVGID_98_);fill:#888983;}
	.st241{clip-path:url(#SVGID_100_);fill:#888983;}
	.st242{clip-path:url(#SVGID_100_);fill:#624219;}
	.st243{clip-path:url(#SVGID_102_);fill:#E3E2E2;}
	.st244{clip-path:url(#SVGID_102_);fill:#2C2C2D;}
	.st245{clip-path:url(#SVGID_102_);fill:#888983;}
	.st246{clip-path:url(#SVGID_104_);fill:#F8B917;}
	.st247{clip-path:url(#SVGID_104_);fill:#1F4394;}
	.st248{clip-path:url(#SVGID_106_);fill:#E8212F;}
	.st249{clip-path:url(#SVGID_106_);fill:#C9C8C8;}
	.st250{clip-path:url(#SVGID_106_);fill:#2A2E35;}
	.st251{clip-path:url(#SVGID_106_);fill:#444750;}
	.st252{clip-path:url(#SVGID_106_);fill:#D7D7D6;}
	.st253{clip-path:url(#SVGID_106_);fill:#E3E2E2;}
	.st254{clip-path:url(#SVGID_106_);fill:#FFFFFF;}
	.st255{clip-path:url(#SVGID_106_);fill:#2B2D34;}
	.st256{clip-path:url(#SVGID_106_);fill:#B9252D;}
	.st257{clip-path:url(#SVGID_106_);fill:#24345B;}
	.st258{clip-path:url(#SVGID_106_);fill:#F7F6F8;}
	.st259{clip-path:url(#SVGID_108_);fill:#1F4394;}
	.st260{clip-path:url(#SVGID_108_);fill:#F8B917;}
	.st261{clip-path:url(#SVGID_108_);fill:#883D1E;}
	.st262{clip-path:url(#SVGID_108_);fill:#F5D07C;}
	.st263{clip-path:url(#SVGID_110_);fill:#E8212F;}
	.st264{clip-path:url(#SVGID_110_);fill:#E3E2E2;}
	.st265{clip-path:url(#SVGID_110_);fill:#F7F6F8;}
	.st266{clip-path:url(#SVGID_110_);fill:#F8B917;}
	.st267{clip-path:url(#SVGID_110_);fill:#888983;}
	.st268{clip-path:url(#SVGID_112_);fill:#888983;}
	.st269{clip-path:url(#SVGID_112_);fill:#624219;}
	.st270{clip-path:url(#SVGID_114_);fill:#E3E2E2;}
	.st271{clip-path:url(#SVGID_114_);fill:#2C2C2D;}
	.st272{fill:#EDE2A3;}
	.st273{clip-path:url(#SVGID_116_);}
	.st274{fill-rule:evenodd;clip-rule:evenodd;fill:#434851;}
	.st275{fill-rule:evenodd;clip-rule:evenodd;fill:#E3E2E2;}
	.st276{fill:#2A2B2A;}
	.st277{clip-path:url(#SVGID_118_);}
	.st278{clip-path:url(#SVGID_120_);}
	.st279{clip-path:url(#SVGID_122_);}
	.st280{fill:#1F3566;}
	.st281{fill:#E3E4E5;}
	.st282{fill:#4BB1E4;}
	.st283{fill:#2D2A6C;}
	.st284{fill-rule:evenodd;clip-rule:evenodd;fill:#D8D9D5;}
	.st285{fill:#434852;}
	.st286{fill:#E3E3E3;}
	.st287{fill:#162E54;}
	.st288{fill:none;stroke:#335DAB;stroke-width:1.68786;stroke-miterlimit:10;}
	.st289{fill:#81817F;}
	.st290{fill:#142B49;}
	.st291{fill:#5A5A5A;}
	.st292{fill:none;stroke:#FFFFFF;stroke-width:0.84393;stroke-linecap:round;stroke-linejoin:round;stroke-miterlimit:10;}
	.st293{fill:#AB9D9C;}
	.st294{fill:#EA6689;}
	.st295{fill:#CE1D5B;}
	.st296{fill:#BF742A;}
	.st297{fill:#273449;}
	.st298{fill:#A4464B;}
	.st299{fill:none;stroke:#CAC8C6;stroke-width:0.0662;stroke-miterlimit:10;}
	.st300{fill:#80333A;}
	.st301{fill:none;stroke:#B4B4B4;stroke-width:0.25748;stroke-miterlimit:10;}
	.st302{fill:none;stroke:#B4B4B4;stroke-width:3.08973;stroke-miterlimit:10;}
	.st303{fill:none;stroke:#B4B4B4;stroke-width:1.02991;stroke-miterlimit:10;}
	.st304{fill:none;stroke:#82858B;stroke-width:0.51495;stroke-miterlimit:10;}
	.st305{fill:none;stroke:#E2E3E4;stroke-width:1.02991;stroke-miterlimit:10;}
	.st306{fill:#E5E5E5;}
	.st307{fill:#2D2C2D;}
	.st308{fill:#4CB2E5;}
	.st309{fill:#AD2824;}
	.st310{fill-rule:evenodd;clip-rule:evenodd;fill:#D9D9D6;}
	.st311{fill:#E4E4E3;}
	.st312{fill:#DB4826;}
	.st313{fill:#B33725;}
	.st314{fill:#120C0D;}
	.st315{fill:#F3F0F0;}
	.st316{fill:#C4BFBF;}
	.st317{clip-path:url(#SVGID_124_);fill:none;stroke:#F3F0F0;stroke-width:1.10165;stroke-linecap:round;stroke-miterlimit:10;}
	.st318{clip-path:url(#SVGID_126_);fill:none;stroke:#F3F0F0;stroke-width:1.10165;stroke-linecap:round;stroke-miterlimit:10;}
	.st319{clip-path:url(#SVGID_128_);fill:none;stroke:#F3F0F0;stroke-width:1.10165;stroke-linecap:round;stroke-miterlimit:10;}
	.st320{fill:#DE5B2A;}
	.st321{fill:#7A2716;}
	.st322{fill:#E5E4E4;}
	.st323{fill:#BB4928;}
	.st324{fill:#454545;}
	.st325{fill:#6265AE;}
	.st326{fill:none;stroke:#CAC5C4;stroke-width:0.55083;stroke-linecap:round;stroke-miterlimit:10;}
	.st327{fill:#E1E3E3;}
	.st328{fill:#484848;}
	.st329{fill:#422F90;}
	.st330{fill:#D57A28;}
	.st331{fill:#B4B4B5;}
	.st332{fill:#4B4B4D;}
	.st333{fill:#949393;}
	.st334{fill:#040404;}
	.st335{clip-path:url(#SVGID_130_);fill:none;stroke:#F3F0F0;stroke-width:1.10165;stroke-linecap:round;stroke-miterlimit:10;}
	.st336{clip-path:url(#SVGID_132_);fill:none;stroke:#F3F0F0;stroke-width:1.10165;stroke-linecap:round;stroke-miterlimit:10;}
	.st337{clip-path:url(#SVGID_134_);fill:none;stroke:#F3F0F0;stroke-width:1.10165;stroke-linecap:round;stroke-miterlimit:10;}
	.st338{clip-path:url(#SVGID_140_);fill:#AD2824;}
	.st339{fill:#CDCCCC;}
	.st340{fill:#E4E5E6;}
	.st341{opacity:0.72;fill:none;stroke:#FFFFFF;stroke-width:1.1546;stroke-linecap:round;stroke-miterlimit:10;}
	.st342{fill:#BBD867;}
	.st343{fill:none;stroke:#BBD867;stroke-width:5.799;stroke-miterlimit:10;}
	.st344{clip-path:url(#SVGID_146_);fill:#AD2824;}
	.st345{fill:none;stroke:#AE4E85;stroke-width:1.54066;stroke-linecap:round;stroke-linejoin:round;stroke-miterlimit:10;}
	.st346{fill:none;stroke:#E97625;stroke-width:1.62274;stroke-linecap:round;stroke-linejoin:round;stroke-miterlimit:10;}
	.st347{fill:none;stroke:#C9C7C7;stroke-width:0.23348;stroke-miterlimit:10;}
	.st348{fill:#981E5C;}
	.st349{fill:none;stroke:#AE4E85;stroke-width:1.21706;stroke-linecap:round;stroke-linejoin:round;stroke-miterlimit:10;}
	.st350{fill:#AE4E85;}
	.st351{fill:#F7B456;}
	.st352{fill:#E97625;}
	.st353{fill:none;stroke:#E97625;stroke-width:1.54273;stroke-linecap:round;stroke-linejoin:round;stroke-miterlimit:10;}
</style>
<g>
	<path class="st0" d="M99.36845,12.96154l5.78312,2.25696c0,0-4.32224,1.26579,1.7887,1.40992
		c6.11138,0.14554,11.98612,4.40227,11.98612,4.40227s-1.62808-4.02904-6.5527-6.58616
		c-4.76151-2.4731-8.46238-1.54001-7.94505-1.76113c3.59731-1.57053,7.12058,0.09902,5.04673-1.10171
		c-5.07474-2.96139-12.09171-1.50598-12.09171-1.50598s-11.51278,2.29401-15.51184,8.09568"/>
	<path class="st1" d="M116.98566,171.66902l-0.1071,0.00551c11.66243-6.08534,19.57497-17.96243,19.57497-31.60757
		c0-19.85016-16.74866-35.9449-37.41629-35.9449c-20.65514,0-37.4078,16.09474-37.4078,35.9449
		c0,13.64514,7.9135,25.52223,19.58044,31.60757l-0.09303-0.00148c5.66859,3.24606,9.77318,8.75252,10.98544,15.22768
		c0.24968-0.1391,1.41043-0.68095,2.94838,0.021v-11.11804c1.31685,0.13556,2.6367,0.21611,3.98658,0.21611
		c1.35233,0,2.6852-0.08055,3.99855-0.21611v11.11804c1.56399-0.71497,2.72973-0.1476,2.95334-0.01648
		C107.20244,180.42557,111.31206,174.91911,116.98566,171.66902z"/>
	<g>
		<path class="st0" d="M43.28777,161.97984c0,0-3.52526-12.06361-1.00867-15.16864c0,0-0.43076,13.83482,5.37444,18.87804
			c0,0-2.37955-9.80524-0.47532-13.19342c0,0-1.25829,11.67946,7.30964,17.65477c0,0-4.43131-10.6358-1.78811-13.61421
			c0,0,0.47425,10.4362,5.92223,15.45238c0,0-5.18123-45.77765,45.10123-46.88535l-21.94895-22.6609l-33.0135-4.54193
			c0,0-12.12626,9.6692-14.48076,21.87598C29.12974,146.56154,43.28777,161.97984,43.28777,161.97984z"/>
		<path class="st125" d="M55.84126,124.51603c4.94709,5.35693,8.20519,11.67744,9.7952,18.29865
			c6.1419-9.26288,17.43764-17.25598,38.08676-17.71128l-20.99535-23.59702c0,0,4.9121-36.15598-1.63304-32.83536
			c-33.42129,16.94925-43.02185,41.60693-44.42929,44.09803C43.78604,114.76384,50.46182,118.68484,55.84126,124.51603z"/>
	</g>
	<g>
		<path class="st0" d="M156.7114,162.84239c0,0,3.52927-12.06213,1.01163-15.16261c0,0,0.42633,13.83479-5.37541,18.87697
			c0,0,2.37202-9.80768,0.47632-13.19136c0,0,1.25529,11.6754-7.31212,17.65175c0,0,4.42776-10.63631,1.78812-13.61621
			c0,0-0.4733,10.44316-5.9203,15.45786c0,0,5.17833-45.7801-45.10516-46.88979l21.95294-22.66345l33.01406-4.53139
			c0,0,12.12868,9.66418,14.47719,21.86895C170.87289,147.42662,156.7114,162.84239,156.7114,162.84239z"/>
		<path class="st125" d="M144.15491,125.38258c-4.94513,5.35693-8.19769,11.67544-9.79869,18.30116
			c-6.13695-9.26538-17.43262-17.25951-38.08175-17.71474l20.99335-23.59605c0,0-4.90514-36.15446,1.63703-32.83189
			c33.42277,16.94977,43.02238,41.60147,44.42826,44.09256C156.21356,115.62537,149.53734,119.55238,144.15491,125.38258z"/>
	</g>
	<path class="st3" d="M99.03723,131.18431c-13.6627,0-24.7788-11.12061-24.7788-24.7853
		c0-13.67567,11.1161-24.79525,24.7788-24.79525c13.6767,0,24.79923,11.11958,24.79923,24.79525
		C123.83646,120.0637,112.71393,131.18431,99.03723,131.18431z M99.03723,81.96997c-13.45808,0-24.41808,10.95599-24.41808,24.42904
		c0,13.46754,10.96,24.42455,24.41808,24.42455c13.47504,0,24.42902-10.95702,24.42902-24.42455
		C123.46626,92.92596,112.51228,81.96997,99.03723,81.96997z"/>
	<path class="st11" d="M81.8363,65.90874c-0.29121,2.29594-1.67711,0.2757-2.42007,2.7062
		c-2.06078,6.73279-6.9544,22.64342-14.07742,29.49079c0,0,8.32627,21.09892,33.63839,21.09892
		c25.30356,0,32.49268-23.80463,32.49268-23.80463c-6.82985-6.55869-10.30656-20.43453-12.48195-27.04573
		c-0.90257-2.77174-2.68721-0.32465-3.01743-2.87431"/>
	<path class="st11" d="M98.97719,77.65823c-18.76897,0-42.51707,20.24233-42.51707,49.512
		c0,13.70419,4.28674,23.50495,8.87868,28.51514c8.37282,9.13979,61.21494,7.49474,67.95423-0.38676
		c3.34612-3.90601,8.88867-17.291,8.88867-27.42595C142.1817,96.92651,118.06429,77.65823,98.97719,77.65823z"/>
	<g>
		<circle class="st6" cx="99.3713" cy="75.49947" r="2.15713"/>
		<ellipse class="st7" cx="99.37067" cy="75.49786" rx="0.50532" ry="0.50833"/>
	</g>
	<g>
		<circle class="st6" cx="99.3713" cy="87.77528" r="2.15663"/>
		<circle class="st7" cx="99.37067" cy="87.77378" r="0.50545"/>
	</g>
	<path class="st0" d="M119.47321,35.89368c0.27566-5.69216-0.12159-11.84356-2.34848-16.08526
		c-0.90756-2.59668-6.61224-8.61448-17.46159-8.61448c-9.58215,0-17.69025,5.3899-18.81147,8.61448
		c-2.22895,4.2417-2.63367,10.3931-2.34651,16.08526c-0.26569,5.35139-0.03905,9.40393,1.13171,13.39102
		c3.16751,7.48673,1.65805,13.1188,0.09805,18.94349c0,0,1.22427,2.55268,1.35989,4.06013
		c0.60283,6.75581-2.03229,6.66226-2.27145,12.22426c-0.4193,9.7327,9.21188,11.06656,12.28281,12.62604
		c6.06136,3.08043,7.29515,7.84747,7.29515,7.84747s0.77197-3.94099,3.70786-6.03883
		c5.49146-3.91949,11.98259-2.76926,15.05356-7.83746c4.52139-7.43974,0.031-11.25569,0.36622-17.76584
		c0.08704-1.71008,1.45895-4.98969,1.45895-4.98969c-1.34686-5.31537-4.30875-11.94205-0.73646-19.13864
		C119.48322,45.28911,119.69437,40.44506,119.47321,35.89368z"/>
	<path class="st8" d="M92.22689,32.57554c0.05553,1.78814-1.83669,3.29712-4.23417,3.38317
		c-2.38003,0.07652-4.37179-1.30281-4.42133-3.09698c-0.06107-1.78316,1.82613-3.2921,4.21266-3.37265
		C90.17455,29.40702,92.15983,30.7909,92.22689,32.57554z"/>
	<path class="st9" d="M89.86788,32.35844c0.1496,1.09418-0.6104,2.10833-1.71059,2.2594
		c-1.09618,0.15758-2.11634-0.61587-2.26594-1.7056c-0.14561-1.10267,0.6149-2.11084,1.7076-2.26791
		C88.70162,30.49621,89.71732,31.2622,89.86788,32.35844z"/>
	<path class="st8" d="M113.80862,32.66858c0.05302,1.78869-1.83566,3.29062-4.23172,3.37818
		c-2.3855,0.07855-4.36528-1.29834-4.42532-3.09199c-0.05598-1.78412,1.8242-3.29706,4.21273-3.38012
		C111.74533,29.50157,113.73509,30.88046,113.80862,32.66858z"/>
	<path class="st9" d="M111.44762,32.44146c0.14007,1.10171-0.6169,2.11283-1.7206,2.26645
		c-1.08968,0.1561-2.10134-0.6224-2.25844-1.71159c-0.13962-1.09971,0.60943-2.10486,1.71062-2.26495
		C110.28239,30.58725,111.29451,31.35131,111.44762,32.44146z"/>
	<path class="st10" d="M98.64996,37.14048c-2.13884,3.60574-6.59819,4.59237-6.59819,4.59237
		c3.50575,2.19994,7.00047,8.89066,7.00047,8.89066s3.35461-6.69072,6.85638-8.89066
		C105.90861,41.73285,100.79334,40.74622,98.64996,37.14048z"/>
	<path class="st294" d="M62.84417,152.41626c0,0,2.49463,7.31119,8.94172,15.46385
		c5.51402,6.97696,15.56592,11.50534,15.56592,11.50534s3.61128,1.26427,11.97109,0.96559
		c7.38117-0.26416,10.3791-0.46826,11.36723-1.08818c11.75547-7.27809,24.53211-26.8466,24.53211-26.8466
		s-18.55583,5.67612-36.82091,5.67612C71.24406,158.09238,62.84417,152.41626,62.84417,152.41626z"/>
	<path class="st12" d="M99.0447,90.07013c-8.28825,0-14.17851-4.65144-16.16473-12.77164
		c-0.38978-1.58602-1.87921-6.04182-2.30746-6.38303c-0.13009-0.08057-0.16862-0.24366-0.0866-0.37627
		c0.07205-0.12606,0.24367-0.16962,0.37176-0.08756c0.72249,0.42278,2.37652,6.01186,2.55061,6.71876
		c1.91321,7.85556,7.61788,12.35837,15.63643,12.35837c10.6573,0,14.70488-6.4976,16.22235-11.94608
		c0.1916-0.67693,1.84364-5.82719,2.45056-6.2755c0.11956-0.08553,0.2907-0.06004,0.38122,0.06107
		c0.08756,0.12307,0.06255,0.29317-0.05952,0.38222c-0.36776,0.33119-1.80463,4.40984-2.24543,5.97682
		C114.22638,83.35733,110.04221,90.07013,99.0447,90.07013z"/>
	<path class="st295" d="M119.66086,28.99924c-0.79051-3.89245-7.11903-3.31061-9.75724-2.83378
		c-4.19312,0.74898-7.98957,3.55678-7.5873,7.51275c0.27865,2.69674,3.45318,7.2326,7.7149,7.18963
		C117.09022,40.80426,120.47336,33.02184,119.66086,28.99924L119.66086,28.99924z M78.4306,28.99924
		c-0.81752,4.0226,2.57016,11.80502,9.62461,11.8686c4.26523,0.04298,7.44376-4.49289,7.71893-7.18963
		c0.40279-3.95597-3.39765-6.76377-7.58884-7.51275C85.54866,25.68864,79.21261,25.1068,78.4306,28.99924L78.4306,28.99924z
		 M99.03723,33.59368c-0.85207,0-1.58002,0.19115-1.87272,0.9451c-0.27865,0.71746-1.12019,2.30998-1.12019,2.30998
		c-1.45245,2.68321-4.32977,5.3644-7.99511,5.33343c-3.89245-0.03854-7.28562-2.56417-9.27188-5.69366
		c-1.80118-2.63963-2.86384-5.4615-3.15299-8.33928c-0.20615-2.70073-0.19965-4.98466,0.87553-5.99031
		c2.41254-2.42007,12.41389,1.14572,15.87313,3.3626c0,0,1.32081,0.70546,3.6503,2.79029
		c0.63438,0.55335,1.30784,1.2328,2.09081,1.9783c0.28072,0.26964,0.74599,0.37172,0.92311,0.3582
		c0.17712,0.01352,0.65639-0.08856,0.93859-0.3582c0.786-0.7455,1.46095-1.42495,2.08531-1.9783
		c2.33547-2.08483,3.65535-2.79029,3.65535-2.79029c3.45618-2.21688,13.45705-5.78267,15.87758-3.3626
		c1.07917,1.00565,1.07917,3.28959,0.87205,5.99031c-0.29266,2.87778-1.34785,5.69966-3.15251,8.33928
		c-1.99073,3.12949-5.37891,5.65512-9.26837,5.69366c-3.67135,0.03097-6.54214-2.65022-8.00161-5.33343
		c0,0-0.8395-1.59251-1.1172-2.30998C100.63123,33.78484,99.88678,33.59368,99.03723,33.59368L99.03723,33.59368z"/>
	<polygon class="st12" points="98.97719,92.37859 96.39906,89.79646 98.97719,87.22331 101.55131,89.79646 	"/>
	<polygon class="st12" points="94.97465,91.1363 93.51521,89.22859 95.42543,87.77415 96.88586,89.68089 	"/>
	
		<rect x="101.63998" y="88.40859" transform="matrix(0.63818 -0.76989 0.76989 0.63818 -31.77829 111.5975)" class="st12" width="2.39908" height="2.39822"/>
	<path class="st296" d="M121.42199,150.70866c-0.02707,0-0.04459,0-0.06857,0c-0.78252-0.05251-19.39131-1.59901-42.54109-34.85013
		c-17.96591-25.80341-1.44591-48.63593-1.28228-48.86256c0.36072-0.47831,1.03714-0.57637,1.51892-0.22666
		c0.48282,0.3582,0.5879,1.04063,0.2277,1.52146c-0.65144,0.88103-15.73703,21.82487,1.3203,46.32946
		c22.4598,32.25651,40.71593,33.90809,40.89954,33.92207c0.59939,0.04053,1.04663,0.55537,1.00462,1.15474
		C122.46611,150.27141,121.98983,150.70866,121.42199,150.70866z"/>
	<path class="st296" d="M117.98027,149.62398c0,0-3.87445,4.2587-0.09104,12.75665
		c5.75814,12.94223,24.66367,4.84006,21.45612-8.0116c-1.45193-5.81223-2.89183-6.73929-7.87549-7.00645
		c-3.08498-0.16663-7.59383,0.49132-8.92672,0.88206C121.22285,148.62935,117.98027,149.62398,117.98027,149.62398z"/>
	<g>
		<g>
			<path class="st125" d="M96.38142,186.38336c0-0.35904-0.29255-0.65196-0.65012-0.65196c0,0-0.89244,0.76094-2.4786,0.76094
				c-1.58246,0-2.3109-0.76094-2.73791-0.76094c-0.08053,0,0.01256-0.36792-0.38195,0
				c-2.4328,2.27544-7.86725,2.73605-7.86725,2.73605l0,0c-0.00074,0.00223-0.29699,1.68405,4.32481,1.81444h1.33645
				c0.00591,0,0.01182,0,0.01773,0l0,0h7.78672c0.35757,0,0.65012-0.29256,0.65012-0.65344v-0.1714l-0.16253-0.09492
				l0.16253-0.14111V186.38336z"/>
			<path class="st125" d="M110.13747,190.28189c0.00591,0,0.01183,0,0.01773,0h1.33646
				c4.6218-0.13039,4.32554-1.81221,4.32554-1.81221l-0.00073-0.00223c0,0-5.43076-0.46062-7.86578-2.73605
				c-0.39229-0.36792-0.30142,0-0.38194,0c-0.4248,0-1.15545,0.76094-2.7394,0.76094c-1.58394,0-2.47712-0.76094-2.47712-0.76094
				c-0.35905,0-0.6516,0.29292-0.6516,0.65012v2.83949l0.16253,0.13963l-0.16253,0.09641v0.1714
				c0,0.36089,0.29256,0.65344,0.6516,0.65344H110.13747L110.13747,190.28189z"/>
		</g>
	</g>
</g>
</svg>
