<?xml version="1.0" encoding="utf-8"?>
<!-- Generator: Adobe Illustrator 19.2.1, SVG Export Plug-In . SVG Version: 6.00 Build 0)  -->
<svg version="1.1" id="Layer_1" xmlns="http://www.w3.org/2000/svg" xmlns:xlink="http://www.w3.org/1999/xlink" x="0px" y="0px"
	 width="200px" height="200px" viewBox="0 0 200 200" style="enable-background:new 0 0 200 200;" xml:space="preserve">
<style type="text/css">
	.st0{fill:#E2E3E4;}
	.st1{fill:#595D62;}
	.st2{fill:#C7702A;}
	.st3{fill:#C9C7C7;}
	.st4{fill:#EA8824;}
	.st5{fill:none;stroke:#C9C7C7;stroke-width:0.75651;stroke-miterlimit:10;}
	.st6{fill-rule:evenodd;clip-rule:evenodd;fill:#444851;}
	.st7{fill-rule:evenodd;clip-rule:evenodd;fill:#D8D7D6;}
	.st8{fill:#FFFFFF;}
	.st9{fill:#2B2B35;}
	.st10{fill:#434850;}
	.st11{fill:#6C4396;}
	.st12{fill:#A4A4A4;}
	.st13{fill:#EA4C65;}
	.st14{fill:#94814F;}
	.st15{fill:#9C2023;}
	.st16{fill:#B7242C;}
	.st17{fill-rule:evenodd;clip-rule:evenodd;fill:#FFFFFF;}
	.st18{fill:#0C4F6E;}
	.st19{fill:#C18E46;}
	.st20{fill:#3180BF;}
	.st21{fill:#D94F4F;}
	.st22{fill:#2C2C2D;}
	.st23{fill:#595E63;}
	.st24{fill:#E3E2E2;}
	.st25{fill:#9D9EA0;}
	.st26{fill:none;stroke:#C8C6C6;stroke-width:0.75651;stroke-miterlimit:10;}
	.st27{fill:#2A2E35;}
	.st28{fill-rule:evenodd;clip-rule:evenodd;fill:#454751;}
	.st29{fill-rule:evenodd;clip-rule:evenodd;fill:#D8D7D5;}
	.st30{fill:#434851;}
	.st31{fill:#EC9424;}
	.st32{fill:#445AA4;}
	.st33{clip-path:url(#SVGID_2_);fill:#58C1C4;}
	.st34{fill:#B7DBDB;}
	.st35{fill:#58C1C4;}
	.st36{fill:none;stroke:#434851;stroke-width:1.51302;stroke-linecap:round;stroke-linejoin:round;stroke-miterlimit:10;}
	.st37{clip-path:url(#SVGID_4_);fill:#58C1C4;}
	.st38{fill:#010101;}
	.st39{fill:#161718;}
	.st40{fill-rule:evenodd;clip-rule:evenodd;fill:#010101;}
	.st41{fill:#272626;}
	.st42{fill:#17191A;}
	.st43{fill:#D4D5D4;}
	.st44{fill-rule:evenodd;clip-rule:evenodd;fill:#272626;}
	.st45{fill-rule:evenodd;clip-rule:evenodd;fill:#E2E3E4;}
	.st46{fill:#19244E;}
	.st47{fill:#E3E1E1;}
	.st48{fill:#8E1B27;}
	.st49{fill:#CA2033;}
	.st50{fill:#EFE0A7;}
	.st51{fill:none;stroke:#EFE0A7;stroke-width:0.09335;stroke-miterlimit:10;}
	.st52{fill:#EECA81;}
	.st53{fill:#F3F3F3;}
	.st54{fill:#A0A1A4;}
	.st55{fill:#EB6B6D;}
	.st56{fill:none;stroke:#CAC8C6;stroke-width:0.02289;stroke-miterlimit:10;}
	.st57{fill:#464951;}
	.st58{fill:#D7D6D6;}
	.st59{fill:#EECC82;}
	.st60{fill:#F0E0A9;}
	.st61{fill:none;stroke:#F0E0A9;stroke-width:0.01145;stroke-miterlimit:10;}
	.st62{fill:#5AC1C2;}
	.st63{clip-path:url(#SVGID_6_);fill:#E2E3E4;}
	.st64{fill:#EE7823;}
	.st65{fill:#D6563D;}
	.st66{fill:#70533D;}
	.st67{fill:#81BCA9;}
	.st68{clip-path:url(#SVGID_8_);fill:#E2E3E4;}
	.st69{fill:none;stroke:#EFE0A7;stroke-width:0.37825;stroke-miterlimit:10;}
	.st70{clip-path:url(#SVGID_10_);}
	.st71{clip-path:url(#SVGID_12_);fill:#E3E2E2;}
	.st72{clip-path:url(#SVGID_12_);}
	.st73{fill-rule:evenodd;clip-rule:evenodd;fill:#1AAEA1;}
	.st74{fill-rule:evenodd;clip-rule:evenodd;fill:#0C8C70;}
	.st75{fill:#1AAEA1;}
	.st76{fill:#6F513B;}
	.st77{fill:#515050;}
	.st78{fill:#D4563A;}
	.st79{fill:none;}
	.st80{clip-path:url(#SVGID_14_);}
	.st81{clip-path:url(#SVGID_16_);fill:#E3E2E2;}
	.st82{clip-path:url(#SVGID_16_);}
	.st83{fill:#EEE3A3;}
	.st84{fill:none;stroke:#F0E0A9;stroke-width:0.37825;stroke-miterlimit:10;}
	.st85{clip-path:url(#SVGID_18_);}
	.st86{fill-rule:evenodd;clip-rule:evenodd;fill:#434850;}
	.st87{clip-path:url(#SVGID_20_);}
	.st88{fill:none;stroke:#E4CC21;stroke-width:1.92135;stroke-miterlimit:10;}
	.st89{fill:none;stroke:#FFFFFF;stroke-width:2.2037;stroke-miterlimit:10;}
	.st90{fill:#E4CC21;}
	.st91{fill:#232244;}
	.st92{fill:#C8C6C6;}
	.st93{fill:#542F19;}
	.st94{fill-rule:evenodd;clip-rule:evenodd;fill:#3D2E21;}
	.st95{fill:#3D2E21;}
	.st96{fill-rule:evenodd;clip-rule:evenodd;fill:#232244;}
	.st97{fill-rule:evenodd;clip-rule:evenodd;fill:#2E3280;}
	.st98{fill:#281911;}
	.st99{fill-rule:evenodd;clip-rule:evenodd;fill:#E4CC21;}
	.st100{fill-rule:evenodd;clip-rule:evenodd;fill:#D85127;}
	.st101{clip-path:url(#SVGID_22_);}
	.st102{fill-rule:evenodd;clip-rule:evenodd;fill:#EE7434;}
	.st103{fill:#17733B;}
	.st104{clip-path:url(#SVGID_24_);}
	.st105{fill:#1D73B6;}
	.st106{fill:#115E8E;}
	.st107{clip-path:url(#SVGID_26_);}
	.st108{fill:none;stroke:#FFFFFF;stroke-width:1.49993;stroke-miterlimit:10;}
	.st109{fill:none;stroke:#CAC8C6;stroke-width:0.024;stroke-miterlimit:10;}
	.st110{clip-path:url(#SVGID_28_);fill:#E2E3E4;}
	.st111{fill:#603A17;}
	.st112{fill:#78471F;}
	.st113{fill:#F8FAFD;}
	.st114{clip-path:url(#SVGID_30_);}
	.st115{clip-path:url(#SVGID_32_);}
	.st116{fill:none;stroke:#FFFFFF;stroke-width:0.49998;stroke-miterlimit:10;}
	.st117{fill:none;stroke:#FFFFFF;stroke-width:0.74997;stroke-miterlimit:10;}
	.st118{clip-path:url(#SVGID_34_);}
	.st119{clip-path:url(#SVGID_36_);}
	.st120{clip-path:url(#SVGID_38_);fill:#E2E3E4;}
	.st121{clip-path:url(#SVGID_40_);}
	.st122{clip-path:url(#SVGID_42_);}
	.st123{clip-path:url(#SVGID_44_);}
	.st124{opacity:0.7;fill:#434850;}
	.st125{fill:#5B3287;}
	.st126{fill:#643E1E;}
	.st127{fill:#C8D6DE;}
	.st128{fill:none;stroke:#CAC7C6;stroke-width:0.75651;stroke-miterlimit:10;}
	.st129{fill:#B6C3CE;}
	.st130{fill:#273980;}
	.st131{fill:#2B2C35;}
	.st132{clip-path:url(#SVGID_46_);fill:#FFFFFF;stroke:#5A3B84;stroke-width:4.53905;stroke-miterlimit:10;}
	.st133{fill:#C8C7C9;}
	.st134{fill:#056F43;}
	.st135{clip-path:url(#SVGID_48_);}
	.st136{fill:#EBEDF1;}
	.st137{fill:#CF2B29;}
	.st138{fill-rule:evenodd;clip-rule:evenodd;fill:#273980;}
	.st139{fill:#D6232A;}
	.st140{clip-path:url(#SVGID_52_);fill:#FFFFFF;stroke:#5A3B84;stroke-width:4.53905;stroke-miterlimit:10;}
	.st141{clip-path:url(#SVGID_54_);}
	.st142{fill:#532D17;}
	.st143{fill:none;stroke:#5E1116;stroke-width:0.95369;stroke-miterlimit:10;}
	.st144{fill-rule:evenodd;clip-rule:evenodd;fill:#5E1116;}
	.st145{fill:none;stroke:#5E1116;stroke-width:0.94639;stroke-miterlimit:10;}
	.st146{fill:#291B13;}
	.st147{fill-rule:evenodd;clip-rule:evenodd;fill:#291B13;}
	.st148{fill-rule:evenodd;clip-rule:evenodd;fill:#454850;}
	.st149{fill-rule:evenodd;clip-rule:evenodd;fill:#74441F;}
	.st150{fill:#7F161B;}
	.st151{fill-rule:evenodd;clip-rule:evenodd;fill:#7F161B;}
	.st152{fill:none;stroke:#5E1116;stroke-width:1.04342;stroke-miterlimit:10;}
	.st153{fill:#E4E0E4;}
	.st154{clip-path:url(#SVGID_58_);fill:#E1244D;}
	.st155{clip-path:url(#SVGID_60_);fill:#E1244D;}
	.st156{fill:#292933;}
	.st157{fill:none;stroke:#CAC8C6;stroke-width:0.02378;stroke-miterlimit:10;}
	.st158{fill:none;stroke:#F0E0A9;stroke-width:0.01189;stroke-miterlimit:10;}
	.st159{clip-path:url(#SVGID_62_);fill:#E2E3E4;}
	.st160{fill:#2F465D;}
	.st161{fill:#432F21;}
	.st162{fill-rule:evenodd;clip-rule:evenodd;fill:#3D5F7C;}
	.st163{fill-rule:evenodd;clip-rule:evenodd;fill:#2F465D;}
	.st164{clip-path:url(#SVGID_64_);fill:#2C2C2D;}
	.st165{clip-path:url(#SVGID_66_);fill:#F8B917;}
	.st166{clip-path:url(#SVGID_66_);fill:#1F4394;}
	.st167{clip-path:url(#SVGID_68_);fill:#E8212F;}
	.st168{clip-path:url(#SVGID_68_);fill:#C9C8C8;}
	.st169{clip-path:url(#SVGID_68_);fill:#2A2E35;}
	.st170{clip-path:url(#SVGID_68_);fill:#444750;}
	.st171{clip-path:url(#SVGID_68_);fill:#D7D7D6;}
	.st172{clip-path:url(#SVGID_68_);fill:#E3E2E2;}
	.st173{clip-path:url(#SVGID_68_);fill:#FFFFFF;}
	.st174{clip-path:url(#SVGID_68_);fill:#2B2D34;}
	.st175{clip-path:url(#SVGID_68_);fill:#B9252D;}
	.st176{clip-path:url(#SVGID_68_);fill:#24345B;}
	.st177{clip-path:url(#SVGID_68_);fill:#F7F6F8;}
	.st178{clip-path:url(#SVGID_70_);fill:#1F4394;}
	.st179{clip-path:url(#SVGID_70_);fill:#F8B917;}
	.st180{clip-path:url(#SVGID_70_);fill:#883D1E;}
	.st181{clip-path:url(#SVGID_70_);fill:#F5D07C;}
	.st182{clip-path:url(#SVGID_72_);fill:#E8212F;}
	.st183{clip-path:url(#SVGID_72_);fill:#E3E2E2;}
	.st184{clip-path:url(#SVGID_72_);fill:#F7F6F8;}
	.st185{clip-path:url(#SVGID_72_);fill:#F8B917;}
	.st186{clip-path:url(#SVGID_72_);fill:#888983;}
	.st187{clip-path:url(#SVGID_74_);fill:#888983;}
	.st188{clip-path:url(#SVGID_74_);fill:#624219;}
	.st189{clip-path:url(#SVGID_76_);fill:#E3E2E2;}
	.st190{clip-path:url(#SVGID_76_);fill:#2C2C2D;}
	.st191{clip-path:url(#SVGID_76_);fill:#888983;}
	.st192{clip-path:url(#SVGID_78_);fill:#F8B917;}
	.st193{clip-path:url(#SVGID_78_);fill:#1F4394;}
	.st194{clip-path:url(#SVGID_80_);fill:#E8212F;}
	.st195{clip-path:url(#SVGID_80_);fill:#C9C8C8;}
	.st196{clip-path:url(#SVGID_80_);fill:#2A2E35;}
	.st197{clip-path:url(#SVGID_80_);fill:#444750;}
	.st198{clip-path:url(#SVGID_80_);fill:#D7D7D6;}
	.st199{clip-path:url(#SVGID_80_);fill:#E3E2E2;}
	.st200{clip-path:url(#SVGID_80_);fill:#FFFFFF;}
	.st201{clip-path:url(#SVGID_80_);fill:#2B2D34;}
	.st202{clip-path:url(#SVGID_80_);fill:#B9252D;}
	.st203{clip-path:url(#SVGID_80_);fill:#24345B;}
	.st204{clip-path:url(#SVGID_80_);fill:#F7F6F8;}
	.st205{clip-path:url(#SVGID_82_);fill:#1F4394;}
	.st206{clip-path:url(#SVGID_82_);fill:#F8B917;}
	.st207{clip-path:url(#SVGID_82_);fill:#883D1E;}
	.st208{clip-path:url(#SVGID_82_);fill:#F5D07C;}
	.st209{clip-path:url(#SVGID_84_);fill:#E8212F;}
	.st210{clip-path:url(#SVGID_84_);fill:#E3E2E2;}
	.st211{clip-path:url(#SVGID_84_);fill:#F7F6F8;}
	.st212{clip-path:url(#SVGID_84_);fill:#F8B917;}
	.st213{clip-path:url(#SVGID_84_);fill:#888983;}
	.st214{clip-path:url(#SVGID_86_);fill:#888983;}
	.st215{clip-path:url(#SVGID_86_);fill:#624219;}
	.st216{clip-path:url(#SVGID_88_);fill:#E3E2E2;}
	.st217{clip-path:url(#SVGID_88_);fill:#2C2C2D;}
	.st218{clip-path:url(#SVGID_90_);fill:#2C2C2D;}
	.st219{clip-path:url(#SVGID_92_);fill:#F8B917;}
	.st220{clip-path:url(#SVGID_92_);fill:#1F4394;}
	.st221{clip-path:url(#SVGID_94_);fill:#E8212F;}
	.st222{clip-path:url(#SVGID_94_);fill:#C9C8C8;}
	.st223{clip-path:url(#SVGID_94_);fill:#2A2E35;}
	.st224{clip-path:url(#SVGID_94_);fill:#444750;}
	.st225{clip-path:url(#SVGID_94_);fill:#D7D7D6;}
	.st226{clip-path:url(#SVGID_94_);fill:#E3E2E2;}
	.st227{clip-path:url(#SVGID_94_);fill:#FFFFFF;}
	.st228{clip-path:url(#SVGID_94_);fill:#2B2D34;}
	.st229{clip-path:url(#SVGID_94_);fill:#B9252D;}
	.st230{clip-path:url(#SVGID_94_);fill:#24345B;}
	.st231{clip-path:url(#SVGID_94_);fill:#F7F6F8;}
	.st232{clip-path:url(#SVGID_96_);fill:#1F4394;}
	.st233{clip-path:url(#SVGID_96_);fill:#F8B917;}
	.st234{clip-path:url(#SVGID_96_);fill:#883D1E;}
	.st235{clip-path:url(#SVGID_96_);fill:#F5D07C;}
	.st236{clip-path:url(#SVGID_98_);fill:#E8212F;}
	.st237{clip-path:url(#SVGID_98_);fill:#E3E2E2;}
	.st238{clip-path:url(#SVGID_98_);fill:#F7F6F8;}
	.st239{clip-path:url(#SVGID_98_);fill:#F8B917;}
	.st240{clip-path:url(#SVGID_98_);fill:#888983;}
	.st241{clip-path:url(#SVGID_100_);fill:#888983;}
	.st242{clip-path:url(#SVGID_100_);fill:#624219;}
	.st243{clip-path:url(#SVGID_102_);fill:#E3E2E2;}
	.st244{clip-path:url(#SVGID_102_);fill:#2C2C2D;}
	.st245{clip-path:url(#SVGID_102_);fill:#888983;}
	.st246{clip-path:url(#SVGID_104_);fill:#F8B917;}
	.st247{clip-path:url(#SVGID_104_);fill:#1F4394;}
	.st248{clip-path:url(#SVGID_106_);fill:#E8212F;}
	.st249{clip-path:url(#SVGID_106_);fill:#C9C8C8;}
	.st250{clip-path:url(#SVGID_106_);fill:#2A2E35;}
	.st251{clip-path:url(#SVGID_106_);fill:#444750;}
	.st252{clip-path:url(#SVGID_106_);fill:#D7D7D6;}
	.st253{clip-path:url(#SVGID_106_);fill:#E3E2E2;}
	.st254{clip-path:url(#SVGID_106_);fill:#FFFFFF;}
	.st255{clip-path:url(#SVGID_106_);fill:#2B2D34;}
	.st256{clip-path:url(#SVGID_106_);fill:#B9252D;}
	.st257{clip-path:url(#SVGID_106_);fill:#24345B;}
	.st258{clip-path:url(#SVGID_106_);fill:#F7F6F8;}
	.st259{clip-path:url(#SVGID_108_);fill:#1F4394;}
	.st260{clip-path:url(#SVGID_108_);fill:#F8B917;}
	.st261{clip-path:url(#SVGID_108_);fill:#883D1E;}
	.st262{clip-path:url(#SVGID_108_);fill:#F5D07C;}
	.st263{clip-path:url(#SVGID_110_);fill:#E8212F;}
	.st264{clip-path:url(#SVGID_110_);fill:#E3E2E2;}
	.st265{clip-path:url(#SVGID_110_);fill:#F7F6F8;}
	.st266{clip-path:url(#SVGID_110_);fill:#F8B917;}
	.st267{clip-path:url(#SVGID_110_);fill:#888983;}
	.st268{clip-path:url(#SVGID_112_);fill:#888983;}
	.st269{clip-path:url(#SVGID_112_);fill:#624219;}
	.st270{clip-path:url(#SVGID_114_);fill:#E3E2E2;}
	.st271{clip-path:url(#SVGID_114_);fill:#2C2C2D;}
	.st272{fill:#EDE2A3;}
	.st273{clip-path:url(#SVGID_116_);}
	.st274{fill-rule:evenodd;clip-rule:evenodd;fill:#434851;}
	.st275{fill-rule:evenodd;clip-rule:evenodd;fill:#E3E2E2;}
	.st276{fill:#2A2B2A;}
	.st277{clip-path:url(#SVGID_118_);}
	.st278{clip-path:url(#SVGID_120_);}
	.st279{clip-path:url(#SVGID_122_);}
	.st280{fill:#1F3566;}
	.st281{fill:#E3E4E5;}
	.st282{fill:#4BB1E4;}
	.st283{fill:#2D2A6C;}
	.st284{fill-rule:evenodd;clip-rule:evenodd;fill:#D8D9D5;}
	.st285{fill:#434852;}
	.st286{fill:#E3E3E3;}
	.st287{fill:#162E54;}
	.st288{fill:none;stroke:#335DAB;stroke-width:1.68786;stroke-miterlimit:10;}
	.st289{fill:#81817F;}
	.st290{fill:#142B49;}
	.st291{fill:#5A5A5A;}
	.st292{fill:none;stroke:#FFFFFF;stroke-width:0.84393;stroke-linecap:round;stroke-linejoin:round;stroke-miterlimit:10;}
	.st293{fill:#AB9D9C;}
	.st294{fill:#EA6689;}
	.st295{fill:#CE1D5B;}
	.st296{fill:#BF742A;}
	.st297{fill:#273449;}
	.st298{fill:#A4464B;}
	.st299{fill:none;stroke:#CAC8C6;stroke-width:0.0662;stroke-miterlimit:10;}
	.st300{fill:#80333A;}
	.st301{fill:none;stroke:#B4B4B4;stroke-width:0.25748;stroke-miterlimit:10;}
	.st302{fill:none;stroke:#B4B4B4;stroke-width:3.08973;stroke-miterlimit:10;}
	.st303{fill:none;stroke:#B4B4B4;stroke-width:1.02991;stroke-miterlimit:10;}
	.st304{fill:none;stroke:#82858B;stroke-width:0.51495;stroke-miterlimit:10;}
	.st305{fill:none;stroke:#E2E3E4;stroke-width:1.02991;stroke-miterlimit:10;}
	.st306{fill:#E5E5E5;}
	.st307{fill:#2D2C2D;}
	.st308{fill:#4CB2E5;}
	.st309{fill:#AD2824;}
	.st310{fill-rule:evenodd;clip-rule:evenodd;fill:#D9D9D6;}
	.st311{fill:#E4E4E3;}
	.st312{fill:#DB4826;}
	.st313{fill:#B33725;}
	.st314{fill:#120C0D;}
	.st315{fill:#F3F0F0;}
	.st316{fill:#C4BFBF;}
	.st317{clip-path:url(#SVGID_124_);fill:none;stroke:#F3F0F0;stroke-width:1.10165;stroke-linecap:round;stroke-miterlimit:10;}
	.st318{clip-path:url(#SVGID_126_);fill:none;stroke:#F3F0F0;stroke-width:1.10165;stroke-linecap:round;stroke-miterlimit:10;}
	.st319{clip-path:url(#SVGID_128_);fill:none;stroke:#F3F0F0;stroke-width:1.10165;stroke-linecap:round;stroke-miterlimit:10;}
	.st320{fill:#DE5B2A;}
	.st321{fill:#7A2716;}
	.st322{fill:#E5E4E4;}
	.st323{fill:#BB4928;}
	.st324{fill:#454545;}
	.st325{fill:#6265AE;}
	.st326{fill:none;stroke:#CAC5C4;stroke-width:0.55083;stroke-linecap:round;stroke-miterlimit:10;}
	.st327{fill:#E1E3E3;}
	.st328{fill:#484848;}
	.st329{fill:#422F90;}
	.st330{fill:#D57A28;}
	.st331{fill:#B4B4B5;}
	.st332{fill:#4B4B4D;}
	.st333{fill:#949393;}
	.st334{fill:#040404;}
	.st335{clip-path:url(#SVGID_130_);fill:none;stroke:#F3F0F0;stroke-width:1.10165;stroke-linecap:round;stroke-miterlimit:10;}
	.st336{clip-path:url(#SVGID_132_);fill:none;stroke:#F3F0F0;stroke-width:1.10165;stroke-linecap:round;stroke-miterlimit:10;}
	.st337{clip-path:url(#SVGID_134_);fill:none;stroke:#F3F0F0;stroke-width:1.10165;stroke-linecap:round;stroke-miterlimit:10;}
	.st338{clip-path:url(#SVGID_140_);fill:#AD2824;}
	.st339{fill:#CDCCCC;}
	.st340{fill:#E4E5E6;}
	.st341{opacity:0.72;fill:none;stroke:#FFFFFF;stroke-width:1.1546;stroke-linecap:round;stroke-miterlimit:10;}
	.st342{fill:#BBD867;}
	.st343{fill:none;stroke:#BBD867;stroke-width:5.799;stroke-miterlimit:10;}
	.st344{clip-path:url(#SVGID_146_);fill:#AD2824;}
	.st345{fill:none;stroke:#AE4E85;stroke-width:1.54066;stroke-linecap:round;stroke-linejoin:round;stroke-miterlimit:10;}
	.st346{fill:none;stroke:#E97625;stroke-width:1.62274;stroke-linecap:round;stroke-linejoin:round;stroke-miterlimit:10;}
	.st347{fill:none;stroke:#C9C7C7;stroke-width:0.23348;stroke-miterlimit:10;}
	.st348{fill:#981E5C;}
	.st349{fill:none;stroke:#AE4E85;stroke-width:1.21706;stroke-linecap:round;stroke-linejoin:round;stroke-miterlimit:10;}
	.st350{fill:#AE4E85;}
	.st351{fill:#F7B456;}
	.st352{fill:#E97625;}
	.st353{fill:none;stroke:#E97625;stroke-width:1.54273;stroke-linecap:round;stroke-linejoin:round;stroke-miterlimit:10;}
</style>
<g>
	<line class="st345" x1="37.77497" y1="120.40826" x2="37.77497" y2="113.41019"/>
	<path class="st346" d="M168.03679,113.84968c0,0,1.17494-5.12652,0.59523-7.63433"/>
	<g>
		<g>
			<path class="st0" d="M100.72901,14.65665c0,0-6.5397-1.14848-11.16257,1.72504c-1.88471,1.17117,1.32648-0.47171,4.71744,0.88251
				c0.47293,0.19499-2.97809-0.56756-7.31917,1.8519c-4.50087,2.50902-5.89648,6.29041-5.89648,6.29041
				s5.32664-4.11336,10.98275-4.41195c5.66102-0.30186,1.62785-1.35652,1.62785-1.35652l5.29508-2.2492"/>
			<path class="st1" d="M86.98805,164.95862l0.10362,0.00194c-10.97666-5.32272-18.63736-16.10588-19.01118-28.75363
				c-0.54367-18.39484,14.53795-33.77554,33.68992-34.34158c19.15334-0.56609,35.12158,13.8969,35.66525,32.29175
				c0.37381,12.64774-6.64259,23.8647-17.28438,29.82635l0.08878-0.00716c-5.16661,3.16878-8.82108,8.38332-9.77466,14.41541
				c-0.23156-0.11635-1.32042-0.58969-2.72552,0.10606l-0.3046-10.30574c-1.21927,0.16151-2.44152,0.26926-3.69549,0.30632
				c-1.25261,0.03702-2.49002,0.00197-3.70577-0.08757l0.3046,10.30574c-1.46828-0.62265-2.53387-0.06241-2.7392,0.06093
				C96.29567,172.80658,92.34097,167.81694,86.98805,164.95862z"/>
			<path class="st0" d="M171.3054,62.83285c-3.09454-5.89513-6.47597-8.28433-6.47597-8.28433s3.60043,11.07924,1.35516,14.02119
				c0,0,0.01346-12.83485-5.50652-17.34571c0,0,2.48103,9.01645,0.81032,12.21061c0,0,0.83914-10.86013-7.25986-16.16021
				c0,0,4.39522,9.73866,2.02798,12.56741c0,0-0.72269-9.66336-5.9106-14.16167c0,0,6.0549,42.29041-40.51342,44.69053
				l20.96516,20.40267l26.65497,3.41586c0,0,23.96686-10.75761,17.93991-39.21386c-0.0043-0.02225-0.0121-0.038-0.01268-0.0576
				c-0.89891-4.82171-2.32939-8.65822-3.83971-11.64339c-0.08763-0.18629-0.16386-0.37427-0.25247-0.56146
				C171.28769,62.71289,171.2993,62.74996,171.3054,62.83285z"/>
			<path class="st11" d="M154.22183,89.60479c-4.73235-4.8302-7.92105-10.59206-9.58405-16.69188
				c-5.42947,8.75388-15.68214,16.47238-34.80527,17.45776l20.10093,21.29411c0,0-4.37172,21.8961,2.33847,20.75661
				c23.17604-3.92557,34.49092-22.41447,40.04489-32.4504C165.66408,98.31583,159.36734,94.86079,154.22183,89.60479z"/>
			<path class="st0" d="M30.20612,68.10034c2.73686-6.06747,5.96615-8.65477,5.96615-8.65477s-2.93549,11.27747-0.51039,14.08179
				c0,0-0.78551-12.80805,4.45777-17.64297c0,0-1.93484,9.15336-0.08078,12.23876c0,0-1.48358-10.78736,6.28957-16.55973
				c0,0-3.81198,9.97894-1.28114,12.67022c0,0,0.1534-9.69014,5.06415-14.4915c0,0-3.54399,42.57093,43.08492,42.22066
				l-19.7204,21.60562l-26.40934,4.98782c0,0-24.56108-9.33334-20.22692-38.08945c0.00309-0.01878,0.01063-0.04185,0.01281-0.05966
				c0.60981-4.86816,1.80729-8.77782,3.14736-11.84489c0.06812-0.19594,0.13548-0.38587,0.21275-0.58161
				C30.21262,67.98061,30.20387,68.02422,30.20612,68.10034z"/>
			<path class="st11" d="M48.83979,93.82121c4.43231-5.10517,7.27834-11.04493,8.57547-17.23224
				c5.95067,8.41893,16.63602,15.52355,35.7811,15.37382l-18.81135,22.44737c0,0,5.65842,21.59101-1.10532,20.85699
				c-23.37064-2.55116-35.75407-20.33922-41.88844-30.0324C37.93382,103.19278,44.00736,99.37441,48.83979,93.82121z"/>
			<path class="st3" d="M78.8551,104.65588c-0.37447-12.66969,9.63025-23.28471,22.29853-23.65913
				c12.66647-0.37437,23.27377,9.63145,23.64823,22.30114c0.37428,12.66324-9.62371,23.27354-22.29018,23.64791
				C89.84341,127.32021,79.22937,117.31911,78.8551,104.65588z M79.19425,104.64585
				c0.36882,12.47864,10.8262,22.33561,23.30759,21.96671c12.47868-0.36881,22.33655-10.82623,21.96773-23.30486
				c-0.369-12.48508-10.82719-22.33927-23.30588-21.97046C88.6823,81.70614,78.82525,92.16077,79.19425,104.64585z"/>
			<path class="st13" d="M116.67123,65.98002c0.33408,2.11843,1.56206,0.21391,2.31532,2.43763
				c2.09519,6.1824,7.06647,20.79383,13.85944,26.94553c0,0-7.1455,19.78498-30.6032,20.47829
				c-23.45126,0.69312-30.76796-21.17136-30.76796-21.17136c6.15674-6.26708,9.3054-18.86888,11.13078-25.05905
				c0.76603-2.59209,2.18317-0.72011,2.4174-3.09116"/>
			<path class="st13" d="M101.10468,77.33471c17.39979-0.51426,39.99868,18.7767,40.76556,44.72318
				c0.53056,17.95131-7.23906,36.88655-14.50423,47.62135c-3.01372,4.46423-43.19387,5.74214-45.44643,3.08047
				c-10.16695-12.01021-21.09513-33.9993-21.48511-47.19408C59.66743,99.61369,83.41779,77.85746,101.10468,77.33471z"/>
			<path class="st6" d="M98.68318,75.4094c0.03251,1.09993,0.95469,1.96867,2.06279,1.93591
				c1.10129-0.03255,1.97186-0.95427,1.93935-2.0542c-0.03275-1.1081-0.9562-1.97545-2.05748-1.94289
				C99.51974,73.38097,98.65044,74.3013,98.68318,75.4094z"/>
			<path class="st7" d="M100.20885,75.3643c0.00746,0.25253,0.2284,0.4586,0.49189,0.45081
				c0.25346-0.00749,0.45956-0.22619,0.4521-0.47871c-0.0078-0.26391-0.22636-0.46684-0.47982-0.45934
				C100.40953,74.88485,100.20105,75.1004,100.20885,75.3643z"/>
			
				<ellipse transform="matrix(0.99956 -0.02954 0.02954 0.99956 -2.51793 3.02232)" class="st6" cx="101.02174" cy="86.72238" rx="2.00194" ry="2.00148"/>
			<path class="st7" d="M100.54496,86.73624c0.00772,0.2612,0.22854,0.46317,0.49203,0.45538
				c0.25346-0.00749,0.45968-0.22208,0.45196-0.48328c-0.00761-0.25751-0.22619-0.46096-0.47964-0.45347
				C100.74581,86.26266,100.53735,86.47873,100.54496,86.73624z"/>
			<path class="st0" d="M80.96956,39.18644c-0.41734-5.26069-0.21312-10.97726,1.7269-14.97044
				c0.77694-2.42362,5.89904-8.1624,15.94681-8.45937c8.88815-0.2627,16.54965,4.51293,17.67395,7.46568
				c2.18791,3.87117,2.72534,9.56582,2.62078,14.84193c0.38685,4.95457,0.29406,8.71478-0.67782,12.44618
				c-2.73728,7.0251-1.18928,12.2136,0.42407,17.55848l-17.24436,32.58533l0.00361,0.1222L82.30187,69.26102
				c1.10698-4.96452,3.67284-11.18387,0.16239-17.75237C81.21062,47.89774,80.88744,43.41486,80.96956,39.18644z"/>
			<path class="st8" d="M106.13157,35.37053c-0.00835,1.66319,1.78676,3.00208,4.00498,3.01911
				c2.21049,0.00217,4.01903-1.32185,4.01897-2.9912c0.01318-1.65329-1.78584-3.00117-3.9925-3.01262
				C107.94194,32.37939,106.14417,33.71361,106.13157,35.37053z"/>
			<path class="st9" d="M108.31293,35.0985c-0.11666,1.02403,0.61716,1.94169,1.63841,2.05614
				c1.03108,0.11005,1.95377-0.63989,2.05847-1.65124c0.10676-1.01916-0.63235-1.93119-1.65103-2.05165
				C109.3328,33.34658,108.41846,34.0853,108.31293,35.0985z"/>
			<path class="st8" d="M86.13564,36.04548c-0.00436,1.65943,1.79267,3.00144,4.00754,3.01399
				c2.21024,0.00952,4.01488-1.32448,4.01421-2.98325c0.0103-1.65732-1.77376-3.00928-3.99819-3.0202
				C87.95193,33.05375,86.14142,34.39016,86.13564,36.04548z"/>
			<path class="st9" d="M88.31431,35.77534c-0.10941,1.02153,0.6234,1.93651,1.65057,2.05167
				c1.01619,0.11367,1.92832-0.63778,2.04854-1.64912c0.10495-1.01864-0.62556-1.93187-1.64964-2.05035
				C89.34017,34.02414,88.42709,34.75918,88.31431,35.77534z"/>
			<path class="st10" d="M100.29765,39.779c2.08716,3.28654,6.24331,4.07203,6.24331,4.07203
				c-3.1861,2.13623-6.24591,8.4359-6.24591,8.4359s-3.28661-6.1121-6.59102-8.0565
				C93.70403,44.23043,98.41367,43.18291,100.29765,39.779z"/>
			<path class="st13" d="M118.96075,68.05569c0,0-3.4086,9.19421-18.38096,8.60658
				c-15.32329-0.606-17.81505-8.18049-17.81505-8.18049s-1.62551,14.74161,5.0843,23.9771
				c6.71065,9.23225,14.09312,12.48594,14.09312,12.48594s9.90378-10.38668,13.92856-20.91392
				C119.89783,73.50317,118.96075,68.05569,118.96075,68.05569z"/>
			<path class="st11" d="M116.99213,66.72787c0,0-2.94759,10.54422-16.22042,9.74485
				c-13.57882-0.81173-15.8427-9.53533-15.8427-9.53533s-4.31523,2.16685,0.69315,9.52824
				c6.73604,9.90628,27.17591,9.95821,32.5122-2.81316C120.37,68.30149,116.99213,66.72787,116.99213,66.72787z"/>
			<path class="st11" d="M116.7152,68.28679c0.04837,1.63638,1.11604,2.93566,2.36954,2.89861
				c1.26945-0.03751,2.25303-1.39742,2.20466-3.03381c-0.04835-1.63596-1.1105-2.93494-2.37997-2.89742
				C117.65594,65.29122,116.66685,66.65083,116.7152,68.28679z"/>
			
				<ellipse transform="matrix(0.99956 -0.02954 0.02954 0.99956 -2.12626 3.5304)" class="st11" cx="118.41185" cy="73.72146" rx="2.28763" ry="2.96665"/>
			
				<ellipse transform="matrix(0.99956 -0.02954 0.02954 0.99956 -2.25814 3.44852)" class="st11" cx="115.57493" cy="78.14366" rx="2.28651" ry="2.96507"/>
			
				<ellipse transform="matrix(0.99956 -0.02954 0.02954 0.99956 -2.35171 3.3379)" class="st11" cx="111.78441" cy="81.25479" rx="2.28696" ry="2.96574"/>
			
				<ellipse transform="matrix(0.99956 -0.02954 0.02954 0.99956 -2.40249 3.21309)" class="st11" cx="107.53539" cy="82.91111" rx="2.28719" ry="2.96598"/>
			
				<ellipse transform="matrix(0.99956 -0.02954 0.02954 0.99956 -2.42347 3.07885)" class="st11" cx="102.9819" cy="83.55382" rx="2.2881" ry="2.96621"/>
			
				<ellipse transform="matrix(0.99956 -0.02954 0.02954 0.99956 -2.42945 2.94398)" class="st11" cx="98.41477" cy="83.6888" rx="2.28352" ry="2.96621"/>
			
				<ellipse transform="matrix(0.99956 -0.02954 0.02954 0.99956 -2.40248 2.80761)" class="st11" cx="93.81315" cy="82.70795" rx="2.28607" ry="2.96439"/>
			
				<ellipse transform="matrix(0.99956 -0.02954 0.02954 0.99956 -2.33824 2.68488)" class="st11" cx="89.69194" cy="80.4727" rx="2.28376" ry="2.96301"/>
			
				<ellipse transform="matrix(0.99956 -0.02954 0.02954 0.99956 -2.25679 2.56572)" class="st11" cx="85.70013" cy="77.65646" rx="2.28763" ry="2.96712"/>
			
				<ellipse transform="matrix(0.99956 -0.02954 0.02954 0.99956 -2.13705 2.48536)" class="st11" cx="83.04042" cy="73.56418" rx="2.28698" ry="2.96871"/>
			
				<ellipse transform="matrix(0.99956 -0.02954 0.02954 0.99956 -1.98831 2.4862)" class="st11" cx="83.14315" cy="68.53093" rx="2.2849" ry="2.96483"/>
			<path class="st124" d="M115.34048,21.77393c0,0-3.32168-10.78732-10.04704-14.60563
				c-6.71818-3.80796-11.72598,4.93481-5.61568,11.99269"/>
			<path class="st124" d="M113.65314,18.26161c-0.1124-3.80297,13.74622-7.38654,14.77102,3.67035
				c0.65807,7.07527-11.9788,8.28182-16.66321,4.58068"/>
			<path class="st13" d="M99.56676,15.04955c-1.80057,2.64458,1.61486,8.0986,7.62936,12.19341
				c6.01534,4.09152,12.34425,5.26996,14.14632,2.63034c1.79192-2.64339-1.62451-8.10102-7.63724-12.19584
				C107.6976,13.5852,101.36697,12.40868,99.56676,15.04955z"/>
			<g>
				<g>
					<path class="st125" d="M101.66249,178.1107c0-0.3091-0.25185-0.56126-0.55967-0.56126c0,0-0.76826,0.65506-2.13373,0.65506
						c-1.36228,0-1.98936-0.65506-2.35696-0.65506c-0.06932,0,0.01081-0.31673-0.3288,0
						c-2.09431,1.95883-6.77261,2.35538-6.77261,2.35538l0,0c0,0-0.25567,1.44972,3.72306,1.56198h1.1505
						c0.00509,0,0.01018,0,0.01527,0l0,0h6.70329c0.30782,0,0.55967-0.25186,0.55967-0.56253v-0.14755l-0.13992-0.08173
						l0.13992-0.12148V178.1107z"/>
					<path class="st125" d="M113.50455,181.4668c0.00509,0,0.01018,0,0.01527,0h1.1505
						c3.97873-0.11226,3.72369-1.56007,3.72369-1.56007l-0.00063-0.00191c0,0-4.67513-0.39655-6.77134-2.35538
						c-0.33772-0.31673-0.25948,0-0.3288,0c-0.36569,0-0.99468,0.65506-2.35824,0.65506s-2.13246-0.65506-2.13246-0.65506
						c-0.30909,0-0.56094,0.25217-0.56094,0.55966v2.44441l0.13992,0.12021l-0.13992,0.08299v0.14755
						c0,0.31067,0.25185,0.56253,0.56094,0.56253H113.50455L113.50455,181.4668z"/>
				</g>
			</g>
		</g>
	</g>
	<polygon class="st348" points="29.62762,121.12966 67.07646,115.85761 69.38741,180.51041 24.88518,193.32468 17.5666,184.21817 
		6.16254,184.01544 	"/>
	<path class="st349" d="M60.41634,79.74239c0,0,9.33675-3.84932,0,36.63033"/>
	<polygon class="st350" points="28.63679,121.4951 25.02912,193.75572 17.56838,184.7653 6.16254,184.74176 	"/>
	<polygon class="st351" points="172.17915,114.43285 137.61383,109.56673 135.48082,169.24135 176.55644,181.06894 
		183.31149,172.66362 193.83746,172.4765 	"/>
	<polygon class="st352" points="173.0937,114.77015 176.42358,181.4668 183.30984,173.16862 193.83746,173.1469 	"/>
	<path class="st353" d="M143.06042,110.33888c0,0-2.12752-47.06541,4.14674-43.74731"/>
</g>
</svg>
