<?xml version="1.0" encoding="utf-8"?>
<!-- Generator: Adobe Illustrator 19.2.1, SVG Export Plug-In . SVG Version: 6.00 Build 0)  -->
<svg version="1.1" id="Layer_1" xmlns="http://www.w3.org/2000/svg" xmlns:xlink="http://www.w3.org/1999/xlink" x="0px" y="0px"
	 width="200px" height="200px" viewBox="0 0 200 200" style="enable-background:new 0 0 200 200;" xml:space="preserve">
<style type="text/css">
	.st0{fill:#E2E3E4;}
	.st1{fill:#595D62;}
	.st2{fill:#C7702A;}
	.st3{fill:#C9C7C7;}
	.st4{fill:#EA8824;}
	.st5{fill:none;stroke:#C9C7C7;stroke-width:0.75651;stroke-miterlimit:10;}
	.st6{fill-rule:evenodd;clip-rule:evenodd;fill:#444851;}
	.st7{fill-rule:evenodd;clip-rule:evenodd;fill:#D8D7D6;}
	.st8{fill:#FFFFFF;}
	.st9{fill:#2B2B35;}
	.st10{fill:#434850;}
	.st11{fill:#6C4396;}
	.st12{fill:#A4A4A4;}
	.st13{fill:#EA4C65;}
	.st14{fill:#94814F;}
	.st15{fill:#9C2023;}
	.st16{fill:#B7242C;}
	.st17{fill-rule:evenodd;clip-rule:evenodd;fill:#FFFFFF;}
	.st18{fill:#0C4F6E;}
	.st19{fill:#C18E46;}
	.st20{fill:#3180BF;}
	.st21{fill:#D94F4F;}
	.st22{fill:#2C2C2D;}
	.st23{fill:#595E63;}
	.st24{fill:#E3E2E2;}
	.st25{fill:#9D9EA0;}
	.st26{fill:none;stroke:#C8C6C6;stroke-width:0.75651;stroke-miterlimit:10;}
	.st27{fill:#2A2E35;}
	.st28{fill-rule:evenodd;clip-rule:evenodd;fill:#454751;}
	.st29{fill-rule:evenodd;clip-rule:evenodd;fill:#D8D7D5;}
	.st30{fill:#434851;}
	.st31{fill:#EC9424;}
	.st32{fill:#445AA4;}
	.st33{clip-path:url(#SVGID_2_);fill:#58C1C4;}
	.st34{fill:#B7DBDB;}
	.st35{fill:#58C1C4;}
	.st36{fill:none;stroke:#434851;stroke-width:1.51302;stroke-linecap:round;stroke-linejoin:round;stroke-miterlimit:10;}
	.st37{clip-path:url(#SVGID_4_);fill:#58C1C4;}
	.st38{fill:#010101;}
	.st39{fill:#161718;}
	.st40{fill-rule:evenodd;clip-rule:evenodd;fill:#010101;}
	.st41{fill:#272626;}
	.st42{fill:#17191A;}
	.st43{fill:#D4D5D4;}
	.st44{fill-rule:evenodd;clip-rule:evenodd;fill:#272626;}
	.st45{fill-rule:evenodd;clip-rule:evenodd;fill:#E2E3E4;}
	.st46{fill:#19244E;}
	.st47{fill:#E3E1E1;}
	.st48{fill:#8E1B27;}
	.st49{fill:#CA2033;}
	.st50{fill:#EFE0A7;}
	.st51{fill:none;stroke:#EFE0A7;stroke-width:0.09335;stroke-miterlimit:10;}
	.st52{fill:#EECA81;}
	.st53{fill:#F3F3F3;}
	.st54{fill:#A0A1A4;}
	.st55{fill:#EB6B6D;}
	.st56{fill:none;stroke:#CAC8C6;stroke-width:0.02289;stroke-miterlimit:10;}
	.st57{fill:#464951;}
	.st58{fill:#D7D6D6;}
	.st59{fill:#EECC82;}
	.st60{fill:#F0E0A9;}
	.st61{fill:none;stroke:#F0E0A9;stroke-width:0.01145;stroke-miterlimit:10;}
	.st62{fill:#5AC1C2;}
	.st63{clip-path:url(#SVGID_6_);fill:#E2E3E4;}
	.st64{fill:#EE7823;}
	.st65{fill:#D6563D;}
	.st66{fill:#70533D;}
	.st67{fill:#81BCA9;}
	.st68{clip-path:url(#SVGID_8_);fill:#E2E3E4;}
	.st69{fill:none;stroke:#EFE0A7;stroke-width:0.37825;stroke-miterlimit:10;}
	.st70{clip-path:url(#SVGID_10_);}
	.st71{clip-path:url(#SVGID_12_);fill:#E3E2E2;}
	.st72{clip-path:url(#SVGID_12_);}
	.st73{fill-rule:evenodd;clip-rule:evenodd;fill:#1AAEA1;}
	.st74{fill-rule:evenodd;clip-rule:evenodd;fill:#0C8C70;}
	.st75{fill:#1AAEA1;}
	.st76{fill:#6F513B;}
	.st77{fill:#515050;}
	.st78{fill:#D4563A;}
	.st79{fill:none;}
	.st80{clip-path:url(#SVGID_14_);}
	.st81{clip-path:url(#SVGID_16_);fill:#E3E2E2;}
	.st82{clip-path:url(#SVGID_16_);}
	.st83{fill:#EEE3A3;}
	.st84{fill:none;stroke:#F0E0A9;stroke-width:0.37825;stroke-miterlimit:10;}
	.st85{clip-path:url(#SVGID_18_);}
	.st86{fill-rule:evenodd;clip-rule:evenodd;fill:#434850;}
	.st87{clip-path:url(#SVGID_20_);}
	.st88{fill:none;stroke:#E4CC21;stroke-width:1.92135;stroke-miterlimit:10;}
	.st89{fill:none;stroke:#FFFFFF;stroke-width:2.2037;stroke-miterlimit:10;}
	.st90{fill:#E4CC21;}
	.st91{fill:#232244;}
	.st92{fill:#C8C6C6;}
	.st93{fill:#542F19;}
	.st94{fill-rule:evenodd;clip-rule:evenodd;fill:#3D2E21;}
	.st95{fill:#3D2E21;}
	.st96{fill-rule:evenodd;clip-rule:evenodd;fill:#232244;}
	.st97{fill-rule:evenodd;clip-rule:evenodd;fill:#2E3280;}
	.st98{fill:#281911;}
	.st99{fill-rule:evenodd;clip-rule:evenodd;fill:#E4CC21;}
	.st100{fill-rule:evenodd;clip-rule:evenodd;fill:#D85127;}
	.st101{clip-path:url(#SVGID_22_);}
	.st102{fill-rule:evenodd;clip-rule:evenodd;fill:#EE7434;}
	.st103{fill:#17733B;}
	.st104{clip-path:url(#SVGID_24_);}
	.st105{fill:#1D73B6;}
	.st106{fill:#115E8E;}
	.st107{clip-path:url(#SVGID_26_);}
	.st108{fill:none;stroke:#FFFFFF;stroke-width:1.49993;stroke-miterlimit:10;}
	.st109{fill:none;stroke:#CAC8C6;stroke-width:0.024;stroke-miterlimit:10;}
	.st110{clip-path:url(#SVGID_28_);fill:#E2E3E4;}
	.st111{fill:#603A17;}
	.st112{fill:#78471F;}
	.st113{fill:#F8FAFD;}
	.st114{clip-path:url(#SVGID_30_);}
	.st115{clip-path:url(#SVGID_32_);}
	.st116{fill:none;stroke:#FFFFFF;stroke-width:0.49998;stroke-miterlimit:10;}
	.st117{fill:none;stroke:#FFFFFF;stroke-width:0.74997;stroke-miterlimit:10;}
	.st118{clip-path:url(#SVGID_34_);}
	.st119{clip-path:url(#SVGID_36_);}
	.st120{clip-path:url(#SVGID_38_);fill:#E2E3E4;}
	.st121{clip-path:url(#SVGID_40_);}
	.st122{clip-path:url(#SVGID_42_);}
	.st123{clip-path:url(#SVGID_44_);}
	.st124{opacity:0.7;fill:#434850;}
	.st125{fill:#5B3287;}
	.st126{fill:#643E1E;}
	.st127{fill:#C8D6DE;}
	.st128{fill:none;stroke:#CAC7C6;stroke-width:0.75651;stroke-miterlimit:10;}
	.st129{fill:#B6C3CE;}
	.st130{fill:#273980;}
	.st131{fill:#2B2C35;}
	.st132{clip-path:url(#SVGID_46_);fill:#FFFFFF;stroke:#5A3B84;stroke-width:4.53905;stroke-miterlimit:10;}
	.st133{fill:#C8C7C9;}
	.st134{fill:#056F43;}
	.st135{clip-path:url(#SVGID_48_);}
	.st136{fill:#EBEDF1;}
	.st137{fill:#CF2B29;}
	.st138{fill-rule:evenodd;clip-rule:evenodd;fill:#273980;}
	.st139{fill:#D6232A;}
	.st140{clip-path:url(#SVGID_52_);fill:#FFFFFF;stroke:#5A3B84;stroke-width:4.53905;stroke-miterlimit:10;}
	.st141{clip-path:url(#SVGID_54_);}
	.st142{fill:#532D17;}
	.st143{fill:none;stroke:#5E1116;stroke-width:0.95369;stroke-miterlimit:10;}
	.st144{fill-rule:evenodd;clip-rule:evenodd;fill:#5E1116;}
	.st145{fill:none;stroke:#5E1116;stroke-width:0.94639;stroke-miterlimit:10;}
	.st146{fill:#291B13;}
	.st147{fill-rule:evenodd;clip-rule:evenodd;fill:#291B13;}
	.st148{fill-rule:evenodd;clip-rule:evenodd;fill:#454850;}
	.st149{fill-rule:evenodd;clip-rule:evenodd;fill:#74441F;}
	.st150{fill:#7F161B;}
	.st151{fill-rule:evenodd;clip-rule:evenodd;fill:#7F161B;}
	.st152{fill:none;stroke:#5E1116;stroke-width:1.04342;stroke-miterlimit:10;}
	.st153{fill:#E4E0E4;}
	.st154{clip-path:url(#SVGID_58_);fill:#E1244D;}
	.st155{clip-path:url(#SVGID_60_);fill:#E1244D;}
	.st156{fill:#292933;}
	.st157{fill:none;stroke:#CAC8C6;stroke-width:0.02378;stroke-miterlimit:10;}
	.st158{fill:none;stroke:#F0E0A9;stroke-width:0.01189;stroke-miterlimit:10;}
	.st159{clip-path:url(#SVGID_62_);fill:#E2E3E4;}
	.st160{fill:#2F465D;}
	.st161{fill:#432F21;}
	.st162{fill-rule:evenodd;clip-rule:evenodd;fill:#3D5F7C;}
	.st163{fill-rule:evenodd;clip-rule:evenodd;fill:#2F465D;}
	.st164{clip-path:url(#SVGID_64_);fill:#2C2C2D;}
	.st165{clip-path:url(#SVGID_66_);fill:#F8B917;}
	.st166{clip-path:url(#SVGID_66_);fill:#1F4394;}
	.st167{clip-path:url(#SVGID_68_);fill:#E8212F;}
	.st168{clip-path:url(#SVGID_68_);fill:#C9C8C8;}
	.st169{clip-path:url(#SVGID_68_);fill:#2A2E35;}
	.st170{clip-path:url(#SVGID_68_);fill:#444750;}
	.st171{clip-path:url(#SVGID_68_);fill:#D7D7D6;}
	.st172{clip-path:url(#SVGID_68_);fill:#E3E2E2;}
	.st173{clip-path:url(#SVGID_68_);fill:#FFFFFF;}
	.st174{clip-path:url(#SVGID_68_);fill:#2B2D34;}
	.st175{clip-path:url(#SVGID_68_);fill:#B9252D;}
	.st176{clip-path:url(#SVGID_68_);fill:#24345B;}
	.st177{clip-path:url(#SVGID_68_);fill:#F7F6F8;}
	.st178{clip-path:url(#SVGID_70_);fill:#1F4394;}
	.st179{clip-path:url(#SVGID_70_);fill:#F8B917;}
	.st180{clip-path:url(#SVGID_70_);fill:#883D1E;}
	.st181{clip-path:url(#SVGID_70_);fill:#F5D07C;}
	.st182{clip-path:url(#SVGID_72_);fill:#E8212F;}
	.st183{clip-path:url(#SVGID_72_);fill:#E3E2E2;}
	.st184{clip-path:url(#SVGID_72_);fill:#F7F6F8;}
	.st185{clip-path:url(#SVGID_72_);fill:#F8B917;}
	.st186{clip-path:url(#SVGID_72_);fill:#888983;}
	.st187{clip-path:url(#SVGID_74_);fill:#888983;}
	.st188{clip-path:url(#SVGID_74_);fill:#624219;}
	.st189{clip-path:url(#SVGID_76_);fill:#E3E2E2;}
	.st190{clip-path:url(#SVGID_76_);fill:#2C2C2D;}
	.st191{clip-path:url(#SVGID_76_);fill:#888983;}
	.st192{clip-path:url(#SVGID_78_);fill:#F8B917;}
	.st193{clip-path:url(#SVGID_78_);fill:#1F4394;}
	.st194{clip-path:url(#SVGID_80_);fill:#E8212F;}
	.st195{clip-path:url(#SVGID_80_);fill:#C9C8C8;}
	.st196{clip-path:url(#SVGID_80_);fill:#2A2E35;}
	.st197{clip-path:url(#SVGID_80_);fill:#444750;}
	.st198{clip-path:url(#SVGID_80_);fill:#D7D7D6;}
	.st199{clip-path:url(#SVGID_80_);fill:#E3E2E2;}
	.st200{clip-path:url(#SVGID_80_);fill:#FFFFFF;}
	.st201{clip-path:url(#SVGID_80_);fill:#2B2D34;}
	.st202{clip-path:url(#SVGID_80_);fill:#B9252D;}
	.st203{clip-path:url(#SVGID_80_);fill:#24345B;}
	.st204{clip-path:url(#SVGID_80_);fill:#F7F6F8;}
	.st205{clip-path:url(#SVGID_82_);fill:#1F4394;}
	.st206{clip-path:url(#SVGID_82_);fill:#F8B917;}
	.st207{clip-path:url(#SVGID_82_);fill:#883D1E;}
	.st208{clip-path:url(#SVGID_82_);fill:#F5D07C;}
	.st209{clip-path:url(#SVGID_84_);fill:#E8212F;}
	.st210{clip-path:url(#SVGID_84_);fill:#E3E2E2;}
	.st211{clip-path:url(#SVGID_84_);fill:#F7F6F8;}
	.st212{clip-path:url(#SVGID_84_);fill:#F8B917;}
	.st213{clip-path:url(#SVGID_84_);fill:#888983;}
	.st214{clip-path:url(#SVGID_86_);fill:#888983;}
	.st215{clip-path:url(#SVGID_86_);fill:#624219;}
	.st216{clip-path:url(#SVGID_88_);fill:#E3E2E2;}
	.st217{clip-path:url(#SVGID_88_);fill:#2C2C2D;}
	.st218{clip-path:url(#SVGID_90_);fill:#2C2C2D;}
	.st219{clip-path:url(#SVGID_92_);fill:#F8B917;}
	.st220{clip-path:url(#SVGID_92_);fill:#1F4394;}
	.st221{clip-path:url(#SVGID_94_);fill:#E8212F;}
	.st222{clip-path:url(#SVGID_94_);fill:#C9C8C8;}
	.st223{clip-path:url(#SVGID_94_);fill:#2A2E35;}
	.st224{clip-path:url(#SVGID_94_);fill:#444750;}
	.st225{clip-path:url(#SVGID_94_);fill:#D7D7D6;}
	.st226{clip-path:url(#SVGID_94_);fill:#E3E2E2;}
	.st227{clip-path:url(#SVGID_94_);fill:#FFFFFF;}
	.st228{clip-path:url(#SVGID_94_);fill:#2B2D34;}
	.st229{clip-path:url(#SVGID_94_);fill:#B9252D;}
	.st230{clip-path:url(#SVGID_94_);fill:#24345B;}
	.st231{clip-path:url(#SVGID_94_);fill:#F7F6F8;}
	.st232{clip-path:url(#SVGID_96_);fill:#1F4394;}
	.st233{clip-path:url(#SVGID_96_);fill:#F8B917;}
	.st234{clip-path:url(#SVGID_96_);fill:#883D1E;}
	.st235{clip-path:url(#SVGID_96_);fill:#F5D07C;}
	.st236{clip-path:url(#SVGID_98_);fill:#E8212F;}
	.st237{clip-path:url(#SVGID_98_);fill:#E3E2E2;}
	.st238{clip-path:url(#SVGID_98_);fill:#F7F6F8;}
	.st239{clip-path:url(#SVGID_98_);fill:#F8B917;}
	.st240{clip-path:url(#SVGID_98_);fill:#888983;}
	.st241{clip-path:url(#SVGID_100_);fill:#888983;}
	.st242{clip-path:url(#SVGID_100_);fill:#624219;}
	.st243{clip-path:url(#SVGID_102_);fill:#E3E2E2;}
	.st244{clip-path:url(#SVGID_102_);fill:#2C2C2D;}
	.st245{clip-path:url(#SVGID_102_);fill:#888983;}
	.st246{clip-path:url(#SVGID_104_);fill:#F8B917;}
	.st247{clip-path:url(#SVGID_104_);fill:#1F4394;}
	.st248{clip-path:url(#SVGID_106_);fill:#E8212F;}
	.st249{clip-path:url(#SVGID_106_);fill:#C9C8C8;}
	.st250{clip-path:url(#SVGID_106_);fill:#2A2E35;}
	.st251{clip-path:url(#SVGID_106_);fill:#444750;}
	.st252{clip-path:url(#SVGID_106_);fill:#D7D7D6;}
	.st253{clip-path:url(#SVGID_106_);fill:#E3E2E2;}
	.st254{clip-path:url(#SVGID_106_);fill:#FFFFFF;}
	.st255{clip-path:url(#SVGID_106_);fill:#2B2D34;}
	.st256{clip-path:url(#SVGID_106_);fill:#B9252D;}
	.st257{clip-path:url(#SVGID_106_);fill:#24345B;}
	.st258{clip-path:url(#SVGID_106_);fill:#F7F6F8;}
	.st259{clip-path:url(#SVGID_108_);fill:#1F4394;}
	.st260{clip-path:url(#SVGID_108_);fill:#F8B917;}
	.st261{clip-path:url(#SVGID_108_);fill:#883D1E;}
	.st262{clip-path:url(#SVGID_108_);fill:#F5D07C;}
	.st263{clip-path:url(#SVGID_110_);fill:#E8212F;}
	.st264{clip-path:url(#SVGID_110_);fill:#E3E2E2;}
	.st265{clip-path:url(#SVGID_110_);fill:#F7F6F8;}
	.st266{clip-path:url(#SVGID_110_);fill:#F8B917;}
	.st267{clip-path:url(#SVGID_110_);fill:#888983;}
	.st268{clip-path:url(#SVGID_112_);fill:#888983;}
	.st269{clip-path:url(#SVGID_112_);fill:#624219;}
	.st270{clip-path:url(#SVGID_114_);fill:#E3E2E2;}
	.st271{clip-path:url(#SVGID_114_);fill:#2C2C2D;}
	.st272{fill:#EDE2A3;}
	.st273{clip-path:url(#SVGID_116_);}
	.st274{fill-rule:evenodd;clip-rule:evenodd;fill:#434851;}
	.st275{fill-rule:evenodd;clip-rule:evenodd;fill:#E3E2E2;}
	.st276{fill:#2A2B2A;}
	.st277{clip-path:url(#SVGID_118_);}
	.st278{clip-path:url(#SVGID_120_);}
	.st279{clip-path:url(#SVGID_122_);}
	.st280{fill:#1F3566;}
	.st281{fill:#E3E4E5;}
	.st282{fill:#4BB1E4;}
	.st283{fill:#2D2A6C;}
	.st284{fill-rule:evenodd;clip-rule:evenodd;fill:#D8D9D5;}
	.st285{fill:#434852;}
	.st286{fill:#E3E3E3;}
	.st287{fill:#162E54;}
	.st288{fill:none;stroke:#335DAB;stroke-width:1.68786;stroke-miterlimit:10;}
	.st289{fill:#81817F;}
	.st290{fill:#142B49;}
	.st291{fill:#5A5A5A;}
	.st292{fill:none;stroke:#FFFFFF;stroke-width:0.84393;stroke-linecap:round;stroke-linejoin:round;stroke-miterlimit:10;}
	.st293{fill:#AB9D9C;}
	.st294{fill:#EA6689;}
	.st295{fill:#CE1D5B;}
	.st296{fill:#BF742A;}
	.st297{fill:#273449;}
	.st298{fill:#A4464B;}
	.st299{fill:none;stroke:#CAC8C6;stroke-width:0.0662;stroke-miterlimit:10;}
	.st300{fill:#80333A;}
	.st301{fill:none;stroke:#B4B4B4;stroke-width:0.25748;stroke-miterlimit:10;}
	.st302{fill:none;stroke:#B4B4B4;stroke-width:3.08973;stroke-miterlimit:10;}
	.st303{fill:none;stroke:#B4B4B4;stroke-width:1.02991;stroke-miterlimit:10;}
	.st304{fill:none;stroke:#82858B;stroke-width:0.51495;stroke-miterlimit:10;}
	.st305{fill:none;stroke:#E2E3E4;stroke-width:1.02991;stroke-miterlimit:10;}
	.st306{fill:#E5E5E5;}
	.st307{fill:#2D2C2D;}
	.st308{fill:#4CB2E5;}
	.st309{fill:#AD2824;}
	.st310{fill-rule:evenodd;clip-rule:evenodd;fill:#D9D9D6;}
	.st311{fill:#E4E4E3;}
	.st312{fill:#DB4826;}
	.st313{fill:#B33725;}
	.st314{fill:#120C0D;}
	.st315{fill:#F3F0F0;}
	.st316{fill:#C4BFBF;}
	.st317{clip-path:url(#SVGID_124_);fill:none;stroke:#F3F0F0;stroke-width:1.10165;stroke-linecap:round;stroke-miterlimit:10;}
	.st318{clip-path:url(#SVGID_126_);fill:none;stroke:#F3F0F0;stroke-width:1.10165;stroke-linecap:round;stroke-miterlimit:10;}
	.st319{clip-path:url(#SVGID_128_);fill:none;stroke:#F3F0F0;stroke-width:1.10165;stroke-linecap:round;stroke-miterlimit:10;}
	.st320{fill:#DE5B2A;}
	.st321{fill:#7A2716;}
	.st322{fill:#E5E4E4;}
	.st323{fill:#BB4928;}
	.st324{fill:#454545;}
	.st325{fill:#6265AE;}
	.st326{fill:none;stroke:#CAC5C4;stroke-width:0.55083;stroke-linecap:round;stroke-miterlimit:10;}
	.st327{fill:#E1E3E3;}
	.st328{fill:#484848;}
	.st329{fill:#422F90;}
	.st330{fill:#D57A28;}
	.st331{fill:#B4B4B5;}
	.st332{fill:#4B4B4D;}
	.st333{fill:#949393;}
	.st334{fill:#040404;}
	.st335{clip-path:url(#SVGID_130_);fill:none;stroke:#F3F0F0;stroke-width:1.10165;stroke-linecap:round;stroke-miterlimit:10;}
	.st336{clip-path:url(#SVGID_132_);fill:none;stroke:#F3F0F0;stroke-width:1.10165;stroke-linecap:round;stroke-miterlimit:10;}
	.st337{clip-path:url(#SVGID_134_);fill:none;stroke:#F3F0F0;stroke-width:1.10165;stroke-linecap:round;stroke-miterlimit:10;}
	.st338{clip-path:url(#SVGID_140_);fill:#AD2824;}
	.st339{fill:#CDCCCC;}
	.st340{fill:#E4E5E6;}
	.st341{opacity:0.72;fill:none;stroke:#FFFFFF;stroke-width:1.1546;stroke-linecap:round;stroke-miterlimit:10;}
	.st342{fill:#BBD867;}
	.st343{fill:none;stroke:#BBD867;stroke-width:5.799;stroke-miterlimit:10;}
	.st344{clip-path:url(#SVGID_146_);fill:#AD2824;}
	.st345{fill:none;stroke:#AE4E85;stroke-width:1.54066;stroke-linecap:round;stroke-linejoin:round;stroke-miterlimit:10;}
	.st346{fill:none;stroke:#E97625;stroke-width:1.62274;stroke-linecap:round;stroke-linejoin:round;stroke-miterlimit:10;}
	.st347{fill:none;stroke:#C9C7C7;stroke-width:0.23348;stroke-miterlimit:10;}
	.st348{fill:#981E5C;}
	.st349{fill:none;stroke:#AE4E85;stroke-width:1.21706;stroke-linecap:round;stroke-linejoin:round;stroke-miterlimit:10;}
	.st350{fill:#AE4E85;}
	.st351{fill:#F7B456;}
	.st352{fill:#E97625;}
	.st353{fill:none;stroke:#E97625;stroke-width:1.54273;stroke-linecap:round;stroke-linejoin:round;stroke-miterlimit:10;}
</style>
<g>
	<path class="st0" d="M99.76197,17.45881l5.77965,2.25793c0,0-4.32675,1.2628,1.79165,1.40789
		c6.10836,0.14461,11.9851,4.40082,11.9851,4.40082s-1.62853-4.02756-6.55766-6.58223
		c-4.759-2.47606-8.45584-1.54194-7.94601-1.7676c3.60329-1.56798,7.12199,0.10356,5.0522-1.0972
		c-5.07574-2.9609-12.09269-1.50897-12.09269-1.50897s-11.50781,2.29549-15.51686,8.09416"/>
	<path class="st1" d="M117.37364,176.16478l-0.10356,0.00601c11.66292-6.08839,19.57497-17.96291,19.57497-31.61064
		c0-19.84261-16.75066-35.94286-37.41578-35.94286c-20.65669,0-37.41034,16.10024-37.41034,35.94286
		c0,13.64774,7.91507,25.52225,19.58447,31.61064l-0.10109-0.00453c5.67065,3.24805,9.77827,8.75458,10.98853,15.22719
		c0.25516-0.13507,1.41791-0.67493,2.95337,0.02553v-11.11861c1.31187,0.13562,2.64021,0.21469,3.98507,0.21469
		c1.35181,0,2.6787-0.07907,3.999-0.21469v11.11861c1.558-0.71649,2.72626-0.15062,2.94787-0.0175
		C107.59042,184.92084,111.69952,179.41431,117.37364,176.16478z"/>
	<g>
		<path class="st0" d="M36.96502,157.33728c3.15647,6.44859,6.71228,9.13831,6.71228,9.13831s-3.52526-12.06416-1.00868-15.16864
			c0,0-0.42876,13.83679,5.38047,18.87602c0,0-2.37755-9.80222-0.48584-13.19089c0,0-1.24976,11.67891,7.31315,17.65924
			c0,0-4.42832-10.63979-1.79117-13.61871c0,0,0.48636,10.43666,5.9268,15.45586c0,0-5.17974-45.78113,45.10072-46.8903
			l-21.94998-22.66142l-28.62273-4.53838c0,0-26.18565,10.84286-20.59008,41.7125c0.00348,0.02205,0.00348,0.04355,0.00702,0.06357
			c0.81301,5.22733,2.23095,9.40648,3.7734,12.66754c0.08505,0.20964,0.16157,0.40878,0.24514,0.61989
			C36.97551,157.46185,36.96502,157.41734,36.96502,157.33728z"/>
		<path class="st2" d="M56.22875,129.01425c4.94912,5.35443,8.20522,11.67545,9.80173,18.29466
			c6.1374-9.25639,17.43513-17.25798,38.08226-17.71075l-20.99335-23.59252c0,0,5.40995-23.46397-1.8572-22.45426
			c-25.11047,3.49423-37.89911,23.06962-44.20262,33.71539C44.17708,119.25808,50.84484,123.18307,56.22875,129.01425z"/>
	</g>
	<g>
		<path class="st0" d="M163.03421,157.33728c-3.15048,6.44859-6.71028,9.13831-6.71028,9.13831s3.52075-12.06416,1.00513-15.16864
			c0,0,0.43127,13.83679-5.3744,18.87602c0,0,2.3725-9.80222,0.47931-13.19089c0,0,1.25481,11.67891-7.31316,17.6557
			c0,0,4.42984-10.64377,1.78716-13.61517c0,0-0.47684,10.43666-5.9203,15.45586c0,0,5.17633-45.78513-45.09666-46.8903
			l21.94495-22.66142l28.63023-4.53838c0,0,26.17815,10.84286,20.58406,41.7125c0,0.02205-0.0085,0.04355-0.0085,0.06357
			c-0.8145,5.22379-2.23094,9.40648-3.77193,12.66754c-0.08353,0.20712-0.1561,0.40878-0.25015,0.61989
			C163.01967,157.46185,163.02971,157.41534,163.03421,157.33728z"/>
		<path class="st2" d="M143.76694,129.01425c-4.94965,5.35443-8.20071,11.67545-9.79671,18.29466
			c-6.14342-9.26094-17.43513-17.25798-38.07923-17.71075l20.98434-23.59451c0,0-5.40396-23.46198,1.86222-22.45227
			c25.10596,3.49423,37.89558,23.06962,44.2051,33.71539C155.82411,119.25808,149.14789,123.18307,143.76694,129.01425z"/>
	</g>
	<path class="st3" d="M99.42927,135.6795c-13.66473,0-24.7788-11.12009-24.7788-24.78478
		c0-13.67367,11.11407-24.79473,24.7788-24.79473c13.6727,0,24.79576,11.12106,24.79576,24.79473
		C124.22503,124.55941,113.10197,135.6795,99.42927,135.6795z M99.42927,86.46621c-13.4696,0-24.42059,10.95746-24.42059,24.42851
		c0,13.46761,10.95099,24.42304,24.42059,24.42304c13.47453,0,24.4305-10.95543,24.4305-24.42304
		C123.85977,97.42367,112.90379,86.46621,99.42927,86.46621z"/>
	<path class="st4" d="M82.22627,70.40195c-0.28715,2.29948-1.68007,0.27724-2.42104,2.70874
		c-2.06181,6.73128-6.95692,22.6414-14.08045,29.48876c0,0,8.33531,21.10194,33.63994,21.10194
		c25.30755,0,32.49815-23.80415,32.49815-23.80415c-6.83082-6.5622-10.30454-20.43649-12.48395-27.04821
		c-0.90556-2.77026-2.68972-0.32324-3.01891-2.87334"/>
	<path class="st4" d="M99.36472,82.15395c-18.76994,0-42.51357,20.24441-42.51357,49.51053
		c0,13.7067,4.28522,23.50592,8.87363,28.51514c8.37684,9.14079,61.21796,7.49571,67.96273-0.38277
		c3.33813-3.90747,8.8877-17.29248,8.8877-27.43097C142.57521,101.42074,118.44886,82.15395,99.36472,82.15395z"/>
	<g>
		<ellipse class="st6" cx="99.76046" cy="79.99471" rx="2.1609" ry="2.15711"/>
		<path class="st7" d="M100.26626,79.9926c0,0.28265-0.22763,0.50481-0.50429,0.50481c-0.28722,0-0.50783-0.22216-0.50783-0.50481
			c0-0.2802,0.22061-0.50883,0.50783-0.50883C100.03863,79.48377,100.26626,79.7124,100.26626,79.9926z"/>
	</g>
	<g>
		<ellipse class="st6" cx="99.76046" cy="92.26991" rx="2.1609" ry="2.15639"/>
		<path class="st7" d="M100.26626,92.26942c0,0.28265-0.22763,0.5048-0.50429,0.5048c-0.28722,0-0.50783-0.22215-0.50783-0.5048
			c0-0.27872,0.22061-0.50433,0.50783-0.50433C100.03863,91.7651,100.26626,91.9907,100.26626,92.26942z"/>
	</g>
	<path class="st0" d="M119.86322,40.38836c0.27569-5.69009-0.12504-11.84001-2.34697-16.08422
		c-0.90955-2.59613-6.61674-8.61397-17.46159-8.61397c-9.58414,0-17.6898,5.38993-18.81299,8.61397
		c-2.22843,4.24421-2.6337,10.39413-2.35047,16.08422c-0.26121,5.35043-0.03455,9.40348,1.13068,13.39051
		c3.17504,7.49233,1.66907,13.1219,0.10005,18.94458c0,0,3.76039,4.89114,4.09113,6.36706
		c1.45441,6.45358,1.22626,20.64262,15.22018,20.64262c14.54871,0,13.10033-15.38677,15.27217-21.89341
		c0.53786-1.62306,4.67349-4.99068,4.67349-4.99068c-1.35085-5.31286-4.31275-11.94212-0.73994-19.13117
		C119.87677,49.78689,120.08389,44.9423,119.86322,40.38836z"/>
	<path class="st8" d="M92.61139,37.07376c0.06203,1.78615-1.83215,3.29361-4.21768,3.37766
		c-2.38199,0.08158-4.37926-1.30133-4.43079-3.09147c-0.07053-1.78612,1.82568-3.29609,4.21118-3.37515
		C90.56458,33.90326,92.55087,35.28813,92.61139,37.07376z"/>
	<path class="st9" d="M90.25142,36.85415c0.16009,1.09521-0.59739,2.10884-1.70361,2.26043
		c-1.1002,0.15662-2.11985-0.61793-2.26443-1.7076c-0.1496-1.10271,0.61587-2.10833,1.70811-2.26494
		C89.0927,34.99245,90.10929,35.75894,90.25142,36.85415z"/>
	<path class="st8" d="M114.19215,37.16436c0.06351,1.79011-1.8382,3.29457-4.2247,3.37611
		c-2.38705,0.08209-4.37031-1.29531-4.42583-3.09295c-0.05901-1.78064,1.81866-3.29609,4.21069-3.37618
		C112.14233,33.99733,114.13061,35.3727,114.19215,37.16436z"/>
	<path class="st9" d="M111.83163,36.93869c0.14963,1.1002-0.61191,2.11135-1.71111,2.26597
		c-1.09618,0.15707-2.10083-0.6254-2.25793-1.71159c-0.14309-1.09473,0.60641-2.10537,1.7086-2.26449
		C110.66589,35.08503,111.68555,35.84702,111.83163,36.93869z"/>
	<path class="st10" d="M99.04502,41.63317c-2.14638,3.60928-6.60573,4.59443-6.60573,4.59443
		c3.50472,2.19988,7.00394,8.89317,7.00394,8.89317s3.35313-6.69329,6.85438-8.89317
		C106.29762,46.2276,101.17633,45.24245,99.04502,41.63317z"/>
	<path class="st11" d="M63.23524,156.91353c0,0,2.48955,7.30864,8.93918,15.46333
		c5.51251,6.97844,15.56892,11.50482,15.56892,11.50482s3.6143,1.26826,11.96909,0.96611
		c7.38516-0.26268,10.37659-0.4698,11.37522-1.0867c11.75399-7.28313,24.53111-26.84756,24.53111-26.84756
		s-18.56579,5.67612-36.82494,5.67612C71.63107,162.58965,63.23524,156.91353,63.23524,156.91353z"/>
	<path class="st12" d="M99.65638,92.67066c-9.93282,0-13.7037-7.78744-14.90147-11.31772
		c-0.11306-0.34124-0.22412-0.71393-0.33222-1.08369c-0.19109-0.66393-0.48327-1.67859-0.70343-1.81016
		c-0.12758-0.07504-0.16911-0.24167-0.09658-0.3707c0.07707-0.12661,0.24965-0.16566,0.37478-0.09406
		c0.37974,0.22863,0.61188,0.95508,0.94658,2.12783c0.10456,0.35724,0.21015,0.72294,0.32372,1.05468
		c1.24126,3.66031,5.34586,12.05112,16.57399,10.82139c7.70293-0.84057,10.4777-6.76434,11.43381-10.22506
		c0.10005-0.33766,0.20113-0.78497,0.29919-1.24673c0.34024-1.54001,0.53236-2.29295,0.84752-2.51665
		c0.12307-0.08704,0.29321-0.06699,0.37627,0.06158c0.09052,0.11657,0.06252,0.28516-0.05907,0.37375
		c-0.19161,0.17558-0.46679,1.44093-0.63538,2.19737c-0.10108,0.47232-0.20564,0.93309-0.29971,1.28079
		c-0.81101,2.88635-3.58276,9.70818-11.90606,10.62132C101.11533,92.62711,100.36635,92.67066,99.65638,92.67066z"/>
	<g>
		<ellipse class="st13" cx="94.0258" cy="91.34981" rx="1.23479" ry="1.23679"/>
		<circle class="st13" cx="96.36328" cy="92.26965" r="1.23553"/>
		<circle class="st13" cx="98.7947" cy="92.39785" r="1.23604"/>
		<path class="st13" d="M102.50323,92.39597c0,0.68447-0.55589,1.2403-1.24236,1.2403c-0.67687,0-1.22974-0.55583-1.22974-1.2403
			c0-0.68041,0.55287-1.23277,1.22974-1.23277C101.94733,91.1632,102.50323,91.71555,102.50323,92.39597z"/>
		<circle class="st13" cx="103.73598" cy="91.99021" r="1.23604"/>
		<circle class="st13" cx="105.95829" cy="91.16169" r="1.23541"/>
	</g>
	<path class="st13" d="M76.4501,30.332c-3.30909,0-5.65058-2.09886-6.10787-5.47195
		c-0.31519-2.30302,0.17664-4.20922,1.45245-5.67515c1.65506-1.9002,4.52235-2.85979,8.52142-2.85979
		c1.4789,0,2.88734,0.13157,4.00505,0.27814c0.06351-1.4339,0.42075-3.39212,1.47794-5.83321
		c1.39034-3.21503,4.56635-5.46445,7.71439-5.46445c2.62968,0,4.8961,1.49542,6.36905,4.20716
		c0.73498,1.34434,0.81552,2.89485,0.23916,4.47487c-0.91757,2.50358-3.61981,5.05368-6.56922,6.19341
		c-1.25878,0.49183-2.70266,0.73749-4.2757,0.73749c-0.69043,0-1.31782-0.04954-1.84264-0.11209
		c-0.85606,1.90523-2.62617,5.30288-5.10728,7.30816C80.58473,29.52445,78.43938,30.332,76.4501,30.332z M80.31609,19.94488
		c-2.82631,0-4.88612,0.57585-5.79571,1.62403c-0.56536,0.64639-0.76398,1.56801-0.59034,2.80078
		c0.21407,1.57951,1.04012,2.346,2.52006,2.346c1.16275,0,2.50713-0.53336,3.59982-1.4169
		c1.59901-1.29081,2.88435-3.49822,3.68034-5.11823C82.75561,20.05292,81.55539,19.94488,80.31609,19.94488z M87.92844,17.22014
		c0.38924,0.04404,0.84553,0.07807,1.34834,0.07807c1.13474,0,2.12835-0.1636,2.96989-0.49479
		c1.98428-0.76501,3.91099-2.51314,4.47885-4.06162c0.3197-0.87707,0.06104-1.34135-0.02099-1.49545
		c-0.83757-1.53798-1.91273-2.31951-3.19104-2.31951c-1.69308,0-3.58627,1.40792-4.39684,3.28662
		C88.107,14.55096,87.91843,16.24804,87.92844,17.22014z"/>
	<path class="st13" d="M91.211,19.74825c0,2.72973-2.2199,4.94162-4.94461,4.94162c-2.73379,0-4.94069-2.21189-4.94069-4.94162
		c0-2.72774,2.2069-4.94365,4.94069-4.94365C88.9911,14.8046,91.211,17.02052,91.211,19.74825z"/>
	<g>
		<g>
			<path class="st2" d="M97.05358,190.79588c0-0.35904-0.29256-0.65196-0.65012-0.65196c0,0-0.89244,0.76094-2.4786,0.76094
				c-1.58247,0-2.3109-0.76094-2.73792-0.76094c-0.08053,0,0.01256-0.36792-0.38194,0
				c-2.4328,2.27544-7.86725,2.73607-7.86725,2.73607l0,0c0,0-0.29699,1.68404,4.32481,1.81444h1.33645
				c0.00591,0,0.01182,0,0.01773,0l0,0h7.78672c0.35757,0,0.65012-0.29256,0.65012-0.65346v-0.17139l-0.16253-0.09494
				l0.16253-0.14111V190.79588z"/>
			<path class="st2" d="M110.80963,194.69443c0.00591,0,0.01182,0,0.01773,0h1.33645c4.6218-0.1304,4.32555-1.81223,4.32555-1.81223
				l-0.00074-0.00221c0,0-5.43076-0.46063-7.86577-2.73607c-0.39229-0.36792-0.30142,0-0.38195,0
				c-0.4248,0-1.15545,0.76094-2.73939,0.76094s-2.47712-0.76094-2.47712-0.76094c-0.35905,0-0.6516,0.29292-0.6516,0.65012v2.83949
				l0.16253,0.13963l-0.16253,0.09642v0.17139c0,0.3609,0.29256,0.65346,0.6516,0.65346H110.80963L110.80963,194.69443z"/>
		</g>
	</g>
</g>
</svg>
