<?xml version="1.0" encoding="utf-8"?>
<!-- Generator: Adobe Illustrator 19.2.1, SVG Export Plug-In . SVG Version: 6.00 Build 0)  -->
<svg version="1.1" id="Layer_1" xmlns="http://www.w3.org/2000/svg" xmlns:xlink="http://www.w3.org/1999/xlink" x="0px" y="0px"
	 width="200px" height="200px" viewBox="0 0 200 200" style="enable-background:new 0 0 200 200;" xml:space="preserve">
<style type="text/css">
	.st0{fill:#E2E3E4;}
	.st1{fill:#595D62;}
	.st2{fill:#C7702A;}
	.st3{fill:#C9C7C7;}
	.st4{fill:#EA8824;}
	.st5{fill:none;stroke:#C9C7C7;stroke-width:0.75651;stroke-miterlimit:10;}
	.st6{fill-rule:evenodd;clip-rule:evenodd;fill:#444851;}
	.st7{fill-rule:evenodd;clip-rule:evenodd;fill:#D8D7D6;}
	.st8{fill:#FFFFFF;}
	.st9{fill:#2B2B35;}
	.st10{fill:#434850;}
	.st11{fill:#6C4396;}
	.st12{fill:#A4A4A4;}
	.st13{fill:#EA4C65;}
	.st14{fill:#94814F;}
	.st15{fill:#9C2023;}
	.st16{fill:#B7242C;}
	.st17{fill-rule:evenodd;clip-rule:evenodd;fill:#FFFFFF;}
	.st18{fill:#0C4F6E;}
	.st19{fill:#C18E46;}
	.st20{fill:#3180BF;}
	.st21{fill:#D94F4F;}
	.st22{fill:#2C2C2D;}
	.st23{fill:#595E63;}
	.st24{fill:#E3E2E2;}
	.st25{fill:#9D9EA0;}
	.st26{fill:none;stroke:#C8C6C6;stroke-width:0.75651;stroke-miterlimit:10;}
	.st27{fill:#2A2E35;}
	.st28{fill-rule:evenodd;clip-rule:evenodd;fill:#454751;}
	.st29{fill-rule:evenodd;clip-rule:evenodd;fill:#D8D7D5;}
	.st30{fill:#434851;}
	.st31{fill:#EC9424;}
	.st32{fill:#445AA4;}
	.st33{clip-path:url(#SVGID_2_);fill:#58C1C4;}
	.st34{fill:#B7DBDB;}
	.st35{fill:#58C1C4;}
	.st36{fill:none;stroke:#434851;stroke-width:1.51302;stroke-linecap:round;stroke-linejoin:round;stroke-miterlimit:10;}
	.st37{clip-path:url(#SVGID_4_);fill:#58C1C4;}
	.st38{fill:#010101;}
	.st39{fill:#161718;}
	.st40{fill-rule:evenodd;clip-rule:evenodd;fill:#010101;}
	.st41{fill:#272626;}
	.st42{fill:#17191A;}
	.st43{fill:#D4D5D4;}
	.st44{fill-rule:evenodd;clip-rule:evenodd;fill:#272626;}
	.st45{fill-rule:evenodd;clip-rule:evenodd;fill:#E2E3E4;}
	.st46{fill:#19244E;}
	.st47{fill:#E3E1E1;}
	.st48{fill:#8E1B27;}
	.st49{fill:#CA2033;}
	.st50{fill:#EFE0A7;}
	.st51{fill:none;stroke:#EFE0A7;stroke-width:0.09335;stroke-miterlimit:10;}
	.st52{fill:#EECA81;}
	.st53{fill:#F3F3F3;}
	.st54{fill:#A0A1A4;}
	.st55{fill:#EB6B6D;}
	.st56{fill:none;stroke:#CAC8C6;stroke-width:0.02289;stroke-miterlimit:10;}
	.st57{fill:#464951;}
	.st58{fill:#D7D6D6;}
	.st59{fill:#EECC82;}
	.st60{fill:#F0E0A9;}
	.st61{fill:none;stroke:#F0E0A9;stroke-width:0.01145;stroke-miterlimit:10;}
	.st62{fill:#5AC1C2;}
	.st63{clip-path:url(#SVGID_6_);fill:#E2E3E4;}
	.st64{fill:#EE7823;}
	.st65{fill:#D6563D;}
	.st66{fill:#70533D;}
	.st67{fill:#81BCA9;}
	.st68{clip-path:url(#SVGID_8_);fill:#E2E3E4;}
	.st69{fill:none;stroke:#EFE0A7;stroke-width:0.37825;stroke-miterlimit:10;}
	.st70{clip-path:url(#SVGID_10_);}
	.st71{clip-path:url(#SVGID_12_);fill:#E3E2E2;}
	.st72{clip-path:url(#SVGID_12_);}
	.st73{fill-rule:evenodd;clip-rule:evenodd;fill:#1AAEA1;}
	.st74{fill-rule:evenodd;clip-rule:evenodd;fill:#0C8C70;}
	.st75{fill:#1AAEA1;}
	.st76{fill:#6F513B;}
	.st77{fill:#515050;}
	.st78{fill:#D4563A;}
	.st79{fill:none;}
	.st80{clip-path:url(#SVGID_14_);}
	.st81{clip-path:url(#SVGID_16_);fill:#E3E2E2;}
	.st82{clip-path:url(#SVGID_16_);}
	.st83{fill:#EEE3A3;}
	.st84{fill:none;stroke:#F0E0A9;stroke-width:0.37825;stroke-miterlimit:10;}
	.st85{clip-path:url(#SVGID_18_);}
	.st86{fill-rule:evenodd;clip-rule:evenodd;fill:#434850;}
	.st87{clip-path:url(#SVGID_20_);}
	.st88{fill:none;stroke:#E4CC21;stroke-width:1.92135;stroke-miterlimit:10;}
	.st89{fill:none;stroke:#FFFFFF;stroke-width:2.2037;stroke-miterlimit:10;}
	.st90{fill:#E4CC21;}
	.st91{fill:#232244;}
	.st92{fill:#C8C6C6;}
	.st93{fill:#542F19;}
	.st94{fill-rule:evenodd;clip-rule:evenodd;fill:#3D2E21;}
	.st95{fill:#3D2E21;}
	.st96{fill-rule:evenodd;clip-rule:evenodd;fill:#232244;}
	.st97{fill-rule:evenodd;clip-rule:evenodd;fill:#2E3280;}
	.st98{fill:#281911;}
	.st99{fill-rule:evenodd;clip-rule:evenodd;fill:#E4CC21;}
	.st100{fill-rule:evenodd;clip-rule:evenodd;fill:#D85127;}
	.st101{clip-path:url(#SVGID_22_);}
	.st102{fill-rule:evenodd;clip-rule:evenodd;fill:#EE7434;}
	.st103{fill:#17733B;}
	.st104{clip-path:url(#SVGID_24_);}
	.st105{fill:#1D73B6;}
	.st106{fill:#115E8E;}
	.st107{clip-path:url(#SVGID_26_);}
	.st108{fill:none;stroke:#FFFFFF;stroke-width:1.49993;stroke-miterlimit:10;}
	.st109{fill:none;stroke:#CAC8C6;stroke-width:0.024;stroke-miterlimit:10;}
	.st110{clip-path:url(#SVGID_28_);fill:#E2E3E4;}
	.st111{fill:#603A17;}
	.st112{fill:#78471F;}
	.st113{fill:#F8FAFD;}
	.st114{clip-path:url(#SVGID_30_);}
	.st115{clip-path:url(#SVGID_32_);}
	.st116{fill:none;stroke:#FFFFFF;stroke-width:0.49998;stroke-miterlimit:10;}
	.st117{fill:none;stroke:#FFFFFF;stroke-width:0.74997;stroke-miterlimit:10;}
	.st118{clip-path:url(#SVGID_34_);}
	.st119{clip-path:url(#SVGID_36_);}
	.st120{clip-path:url(#SVGID_38_);fill:#E2E3E4;}
	.st121{clip-path:url(#SVGID_40_);}
	.st122{clip-path:url(#SVGID_42_);}
	.st123{clip-path:url(#SVGID_44_);}
	.st124{opacity:0.7;fill:#434850;}
	.st125{fill:#5B3287;}
	.st126{fill:#643E1E;}
	.st127{fill:#C8D6DE;}
	.st128{fill:none;stroke:#CAC7C6;stroke-width:0.75651;stroke-miterlimit:10;}
	.st129{fill:#B6C3CE;}
	.st130{fill:#273980;}
	.st131{fill:#2B2C35;}
	.st132{clip-path:url(#SVGID_46_);fill:#FFFFFF;stroke:#5A3B84;stroke-width:4.53905;stroke-miterlimit:10;}
	.st133{fill:#C8C7C9;}
	.st134{fill:#056F43;}
	.st135{clip-path:url(#SVGID_48_);}
	.st136{fill:#EBEDF1;}
	.st137{fill:#CF2B29;}
	.st138{fill-rule:evenodd;clip-rule:evenodd;fill:#273980;}
	.st139{fill:#D6232A;}
	.st140{clip-path:url(#SVGID_52_);fill:#FFFFFF;stroke:#5A3B84;stroke-width:4.53905;stroke-miterlimit:10;}
	.st141{clip-path:url(#SVGID_54_);}
	.st142{fill:#532D17;}
	.st143{fill:none;stroke:#5E1116;stroke-width:0.95369;stroke-miterlimit:10;}
	.st144{fill-rule:evenodd;clip-rule:evenodd;fill:#5E1116;}
	.st145{fill:none;stroke:#5E1116;stroke-width:0.94639;stroke-miterlimit:10;}
	.st146{fill:#291B13;}
	.st147{fill-rule:evenodd;clip-rule:evenodd;fill:#291B13;}
	.st148{fill-rule:evenodd;clip-rule:evenodd;fill:#454850;}
	.st149{fill-rule:evenodd;clip-rule:evenodd;fill:#74441F;}
	.st150{fill:#7F161B;}
	.st151{fill-rule:evenodd;clip-rule:evenodd;fill:#7F161B;}
	.st152{fill:none;stroke:#5E1116;stroke-width:1.04342;stroke-miterlimit:10;}
	.st153{fill:#E4E0E4;}
	.st154{clip-path:url(#SVGID_58_);fill:#E1244D;}
	.st155{clip-path:url(#SVGID_60_);fill:#E1244D;}
	.st156{fill:#292933;}
	.st157{fill:none;stroke:#CAC8C6;stroke-width:0.02378;stroke-miterlimit:10;}
	.st158{fill:none;stroke:#F0E0A9;stroke-width:0.01189;stroke-miterlimit:10;}
	.st159{clip-path:url(#SVGID_62_);fill:#E2E3E4;}
	.st160{fill:#2F465D;}
	.st161{fill:#432F21;}
	.st162{fill-rule:evenodd;clip-rule:evenodd;fill:#3D5F7C;}
	.st163{fill-rule:evenodd;clip-rule:evenodd;fill:#2F465D;}
	.st164{clip-path:url(#SVGID_64_);fill:#2C2C2D;}
	.st165{clip-path:url(#SVGID_66_);fill:#F8B917;}
	.st166{clip-path:url(#SVGID_66_);fill:#1F4394;}
	.st167{clip-path:url(#SVGID_68_);fill:#E8212F;}
	.st168{clip-path:url(#SVGID_68_);fill:#C9C8C8;}
	.st169{clip-path:url(#SVGID_68_);fill:#2A2E35;}
	.st170{clip-path:url(#SVGID_68_);fill:#444750;}
	.st171{clip-path:url(#SVGID_68_);fill:#D7D7D6;}
	.st172{clip-path:url(#SVGID_68_);fill:#E3E2E2;}
	.st173{clip-path:url(#SVGID_68_);fill:#FFFFFF;}
	.st174{clip-path:url(#SVGID_68_);fill:#2B2D34;}
	.st175{clip-path:url(#SVGID_68_);fill:#B9252D;}
	.st176{clip-path:url(#SVGID_68_);fill:#24345B;}
	.st177{clip-path:url(#SVGID_68_);fill:#F7F6F8;}
	.st178{clip-path:url(#SVGID_70_);fill:#1F4394;}
	.st179{clip-path:url(#SVGID_70_);fill:#F8B917;}
	.st180{clip-path:url(#SVGID_70_);fill:#883D1E;}
	.st181{clip-path:url(#SVGID_70_);fill:#F5D07C;}
	.st182{clip-path:url(#SVGID_72_);fill:#E8212F;}
	.st183{clip-path:url(#SVGID_72_);fill:#E3E2E2;}
	.st184{clip-path:url(#SVGID_72_);fill:#F7F6F8;}
	.st185{clip-path:url(#SVGID_72_);fill:#F8B917;}
	.st186{clip-path:url(#SVGID_72_);fill:#888983;}
	.st187{clip-path:url(#SVGID_74_);fill:#888983;}
	.st188{clip-path:url(#SVGID_74_);fill:#624219;}
	.st189{clip-path:url(#SVGID_76_);fill:#E3E2E2;}
	.st190{clip-path:url(#SVGID_76_);fill:#2C2C2D;}
	.st191{clip-path:url(#SVGID_76_);fill:#888983;}
	.st192{clip-path:url(#SVGID_78_);fill:#F8B917;}
	.st193{clip-path:url(#SVGID_78_);fill:#1F4394;}
	.st194{clip-path:url(#SVGID_80_);fill:#E8212F;}
	.st195{clip-path:url(#SVGID_80_);fill:#C9C8C8;}
	.st196{clip-path:url(#SVGID_80_);fill:#2A2E35;}
	.st197{clip-path:url(#SVGID_80_);fill:#444750;}
	.st198{clip-path:url(#SVGID_80_);fill:#D7D7D6;}
	.st199{clip-path:url(#SVGID_80_);fill:#E3E2E2;}
	.st200{clip-path:url(#SVGID_80_);fill:#FFFFFF;}
	.st201{clip-path:url(#SVGID_80_);fill:#2B2D34;}
	.st202{clip-path:url(#SVGID_80_);fill:#B9252D;}
	.st203{clip-path:url(#SVGID_80_);fill:#24345B;}
	.st204{clip-path:url(#SVGID_80_);fill:#F7F6F8;}
	.st205{clip-path:url(#SVGID_82_);fill:#1F4394;}
	.st206{clip-path:url(#SVGID_82_);fill:#F8B917;}
	.st207{clip-path:url(#SVGID_82_);fill:#883D1E;}
	.st208{clip-path:url(#SVGID_82_);fill:#F5D07C;}
	.st209{clip-path:url(#SVGID_84_);fill:#E8212F;}
	.st210{clip-path:url(#SVGID_84_);fill:#E3E2E2;}
	.st211{clip-path:url(#SVGID_84_);fill:#F7F6F8;}
	.st212{clip-path:url(#SVGID_84_);fill:#F8B917;}
	.st213{clip-path:url(#SVGID_84_);fill:#888983;}
	.st214{clip-path:url(#SVGID_86_);fill:#888983;}
	.st215{clip-path:url(#SVGID_86_);fill:#624219;}
	.st216{clip-path:url(#SVGID_88_);fill:#E3E2E2;}
	.st217{clip-path:url(#SVGID_88_);fill:#2C2C2D;}
	.st218{clip-path:url(#SVGID_90_);fill:#2C2C2D;}
	.st219{clip-path:url(#SVGID_92_);fill:#F8B917;}
	.st220{clip-path:url(#SVGID_92_);fill:#1F4394;}
	.st221{clip-path:url(#SVGID_94_);fill:#E8212F;}
	.st222{clip-path:url(#SVGID_94_);fill:#C9C8C8;}
	.st223{clip-path:url(#SVGID_94_);fill:#2A2E35;}
	.st224{clip-path:url(#SVGID_94_);fill:#444750;}
	.st225{clip-path:url(#SVGID_94_);fill:#D7D7D6;}
	.st226{clip-path:url(#SVGID_94_);fill:#E3E2E2;}
	.st227{clip-path:url(#SVGID_94_);fill:#FFFFFF;}
	.st228{clip-path:url(#SVGID_94_);fill:#2B2D34;}
	.st229{clip-path:url(#SVGID_94_);fill:#B9252D;}
	.st230{clip-path:url(#SVGID_94_);fill:#24345B;}
	.st231{clip-path:url(#SVGID_94_);fill:#F7F6F8;}
	.st232{clip-path:url(#SVGID_96_);fill:#1F4394;}
	.st233{clip-path:url(#SVGID_96_);fill:#F8B917;}
	.st234{clip-path:url(#SVGID_96_);fill:#883D1E;}
	.st235{clip-path:url(#SVGID_96_);fill:#F5D07C;}
	.st236{clip-path:url(#SVGID_98_);fill:#E8212F;}
	.st237{clip-path:url(#SVGID_98_);fill:#E3E2E2;}
	.st238{clip-path:url(#SVGID_98_);fill:#F7F6F8;}
	.st239{clip-path:url(#SVGID_98_);fill:#F8B917;}
	.st240{clip-path:url(#SVGID_98_);fill:#888983;}
	.st241{clip-path:url(#SVGID_100_);fill:#888983;}
	.st242{clip-path:url(#SVGID_100_);fill:#624219;}
	.st243{clip-path:url(#SVGID_102_);fill:#E3E2E2;}
	.st244{clip-path:url(#SVGID_102_);fill:#2C2C2D;}
	.st245{clip-path:url(#SVGID_102_);fill:#888983;}
	.st246{clip-path:url(#SVGID_104_);fill:#F8B917;}
	.st247{clip-path:url(#SVGID_104_);fill:#1F4394;}
	.st248{clip-path:url(#SVGID_106_);fill:#E8212F;}
	.st249{clip-path:url(#SVGID_106_);fill:#C9C8C8;}
	.st250{clip-path:url(#SVGID_106_);fill:#2A2E35;}
	.st251{clip-path:url(#SVGID_106_);fill:#444750;}
	.st252{clip-path:url(#SVGID_106_);fill:#D7D7D6;}
	.st253{clip-path:url(#SVGID_106_);fill:#E3E2E2;}
	.st254{clip-path:url(#SVGID_106_);fill:#FFFFFF;}
	.st255{clip-path:url(#SVGID_106_);fill:#2B2D34;}
	.st256{clip-path:url(#SVGID_106_);fill:#B9252D;}
	.st257{clip-path:url(#SVGID_106_);fill:#24345B;}
	.st258{clip-path:url(#SVGID_106_);fill:#F7F6F8;}
	.st259{clip-path:url(#SVGID_108_);fill:#1F4394;}
	.st260{clip-path:url(#SVGID_108_);fill:#F8B917;}
	.st261{clip-path:url(#SVGID_108_);fill:#883D1E;}
	.st262{clip-path:url(#SVGID_108_);fill:#F5D07C;}
	.st263{clip-path:url(#SVGID_110_);fill:#E8212F;}
	.st264{clip-path:url(#SVGID_110_);fill:#E3E2E2;}
	.st265{clip-path:url(#SVGID_110_);fill:#F7F6F8;}
	.st266{clip-path:url(#SVGID_110_);fill:#F8B917;}
	.st267{clip-path:url(#SVGID_110_);fill:#888983;}
	.st268{clip-path:url(#SVGID_112_);fill:#888983;}
	.st269{clip-path:url(#SVGID_112_);fill:#624219;}
	.st270{clip-path:url(#SVGID_114_);fill:#E3E2E2;}
	.st271{clip-path:url(#SVGID_114_);fill:#2C2C2D;}
	.st272{fill:#EDE2A3;}
	.st273{clip-path:url(#SVGID_116_);}
	.st274{fill-rule:evenodd;clip-rule:evenodd;fill:#434851;}
	.st275{fill-rule:evenodd;clip-rule:evenodd;fill:#E3E2E2;}
	.st276{fill:#2A2B2A;}
	.st277{clip-path:url(#SVGID_118_);}
	.st278{clip-path:url(#SVGID_120_);}
	.st279{clip-path:url(#SVGID_122_);}
	.st280{fill:#1F3566;}
	.st281{fill:#E3E4E5;}
	.st282{fill:#4BB1E4;}
	.st283{fill:#2D2A6C;}
	.st284{fill-rule:evenodd;clip-rule:evenodd;fill:#D8D9D5;}
	.st285{fill:#434852;}
	.st286{fill:#E3E3E3;}
	.st287{fill:#162E54;}
	.st288{fill:none;stroke:#335DAB;stroke-width:1.68786;stroke-miterlimit:10;}
	.st289{fill:#81817F;}
	.st290{fill:#142B49;}
	.st291{fill:#5A5A5A;}
	.st292{fill:none;stroke:#FFFFFF;stroke-width:0.84393;stroke-linecap:round;stroke-linejoin:round;stroke-miterlimit:10;}
	.st293{fill:#AB9D9C;}
	.st294{fill:#EA6689;}
	.st295{fill:#CE1D5B;}
	.st296{fill:#BF742A;}
	.st297{fill:#273449;}
	.st298{fill:#A4464B;}
	.st299{fill:none;stroke:#CAC8C6;stroke-width:0.0662;stroke-miterlimit:10;}
	.st300{fill:#80333A;}
	.st301{fill:none;stroke:#B4B4B4;stroke-width:0.25748;stroke-miterlimit:10;}
	.st302{fill:none;stroke:#B4B4B4;stroke-width:3.08973;stroke-miterlimit:10;}
	.st303{fill:none;stroke:#B4B4B4;stroke-width:1.02991;stroke-miterlimit:10;}
	.st304{fill:none;stroke:#82858B;stroke-width:0.51495;stroke-miterlimit:10;}
	.st305{fill:none;stroke:#E2E3E4;stroke-width:1.02991;stroke-miterlimit:10;}
	.st306{fill:#E5E5E5;}
	.st307{fill:#2D2C2D;}
	.st308{fill:#4CB2E5;}
	.st309{fill:#AD2824;}
	.st310{fill-rule:evenodd;clip-rule:evenodd;fill:#D9D9D6;}
	.st311{fill:#E4E4E3;}
	.st312{fill:#DB4826;}
	.st313{fill:#B33725;}
	.st314{fill:#120C0D;}
	.st315{fill:#F3F0F0;}
	.st316{fill:#C4BFBF;}
	.st317{clip-path:url(#SVGID_124_);fill:none;stroke:#F3F0F0;stroke-width:1.10165;stroke-linecap:round;stroke-miterlimit:10;}
	.st318{clip-path:url(#SVGID_126_);fill:none;stroke:#F3F0F0;stroke-width:1.10165;stroke-linecap:round;stroke-miterlimit:10;}
	.st319{clip-path:url(#SVGID_128_);fill:none;stroke:#F3F0F0;stroke-width:1.10165;stroke-linecap:round;stroke-miterlimit:10;}
	.st320{fill:#DE5B2A;}
	.st321{fill:#7A2716;}
	.st322{fill:#E5E4E4;}
	.st323{fill:#BB4928;}
	.st324{fill:#454545;}
	.st325{fill:#6265AE;}
	.st326{fill:none;stroke:#CAC5C4;stroke-width:0.55083;stroke-linecap:round;stroke-miterlimit:10;}
	.st327{fill:#E1E3E3;}
	.st328{fill:#484848;}
	.st329{fill:#422F90;}
	.st330{fill:#D57A28;}
	.st331{fill:#B4B4B5;}
	.st332{fill:#4B4B4D;}
	.st333{fill:#949393;}
	.st334{fill:#040404;}
	.st335{clip-path:url(#SVGID_130_);fill:none;stroke:#F3F0F0;stroke-width:1.10165;stroke-linecap:round;stroke-miterlimit:10;}
	.st336{clip-path:url(#SVGID_132_);fill:none;stroke:#F3F0F0;stroke-width:1.10165;stroke-linecap:round;stroke-miterlimit:10;}
	.st337{clip-path:url(#SVGID_134_);fill:none;stroke:#F3F0F0;stroke-width:1.10165;stroke-linecap:round;stroke-miterlimit:10;}
	.st338{clip-path:url(#SVGID_140_);fill:#AD2824;}
	.st339{fill:#CDCCCC;}
	.st340{fill:#E4E5E6;}
	.st341{opacity:0.72;fill:none;stroke:#FFFFFF;stroke-width:1.1546;stroke-linecap:round;stroke-miterlimit:10;}
	.st342{fill:#BBD867;}
	.st343{fill:none;stroke:#BBD867;stroke-width:5.799;stroke-miterlimit:10;}
	.st344{clip-path:url(#SVGID_146_);fill:#AD2824;}
	.st345{fill:none;stroke:#AE4E85;stroke-width:1.54066;stroke-linecap:round;stroke-linejoin:round;stroke-miterlimit:10;}
	.st346{fill:none;stroke:#E97625;stroke-width:1.62274;stroke-linecap:round;stroke-linejoin:round;stroke-miterlimit:10;}
	.st347{fill:none;stroke:#C9C7C7;stroke-width:0.23348;stroke-miterlimit:10;}
	.st348{fill:#981E5C;}
	.st349{fill:none;stroke:#AE4E85;stroke-width:1.21706;stroke-linecap:round;stroke-linejoin:round;stroke-miterlimit:10;}
	.st350{fill:#AE4E85;}
	.st351{fill:#F7B456;}
	.st352{fill:#E97625;}
	.st353{fill:none;stroke:#E97625;stroke-width:1.54273;stroke-linecap:round;stroke-linejoin:round;stroke-miterlimit:10;}
</style>
<g>
	<g>
		<path class="st0" d="M101.61927,10.7243c0,0-7.13455-1.47144-12.29736,1.52996c-2.10481,1.2233,1.46999-0.47432,5.14479,1.12074
			c0.51234,0.22914-3.24751-0.71895-8.0866,1.79365c-5.0172,2.60563-6.67027,6.70726-6.67027,6.70726
			s5.97479-4.33828,12.18726-4.4824c6.21794-0.14754,1.82915-1.43487,1.82915-1.43487l5.87976-2.29498"/>
		<path class="st1" d="M81.6786,175.10789l0.11357,0.00548c-11.86505-6.19296-19.91669-18.26663-19.91669-32.14893
			c0-20.19036,17.03781-36.56882,38.0592-36.56882c21.02291,0,38.06574,16.37846,38.06574,36.56882
			c0,13.88229-8.05814,25.95596-19.92171,32.14893l0.0976-0.00499c-5.7687,3.30757-9.94537,8.90765-11.18663,15.49187
			c-0.25017-0.1351-1.42895-0.68948-2.99239,0.02798v-11.31171c-1.34235,0.13762-2.68623,0.21614-4.06261,0.21614
			c-1.37486,0-2.73073-0.07852-4.0611-0.21614v11.31171c-1.59-0.73044-2.77673-0.15056-3.00591-0.02199
			C91.63144,184.01604,87.45625,178.41595,81.6786,175.10789z"/>
		<path class="st0" d="M177.45552,65.84437c-3.20258-6.5652-6.83336-9.2949-6.83336-9.2949s3.58929,12.26674,1.03166,15.42028
			c0,0,0.43076-14.07494-5.4765-19.2007c0,0,2.42857,9.96832,0.49286,13.41706c0,0,1.27225-11.8826-7.43776-17.95744
			c0,0,4.50438,10.82238,1.81667,13.8478c0,0-0.47934-10.62076-6.02286-15.72199c0,0,5.26938,46.57412-45.87764,47.69682
			l22.33017,23.05416l29.12051,4.60995c0,0,26.63196-11.02052,20.94484-42.42246c-0.004-0.02457-0.01204-0.04208-0.01204-0.06358
			c-0.8295-5.31688-2.2739-9.57056-3.8334-12.8932c-0.09007-0.20712-0.1676-0.41576-0.2587-0.62392
			C177.43997,65.71225,177.45152,65.7533,177.45552,65.84437z"/>
		<path class="st11" d="M157.85306,94.65018c-5.0332-5.45045-8.34334-11.87256-9.96936-18.61584
			c-6.23799,9.42398-17.73174,17.55617-38.73511,18.01697l21.35352,24.00373c0,0-5.50394,23.87073,1.89171,22.83858
			c25.54329-3.55379,38.55104-23.46294,44.96712-34.28883C170.11884,104.57401,163.32552,100.58096,157.85306,94.65018z"/>
		<path class="st0" d="M22.54797,67.04765c3.19806-6.56523,6.82331-9.29792,6.82331-9.29792s-3.58475,12.27232-1.01615,15.42631
			c0,0-0.44628-14.07144,5.46046-19.20374c0,0-2.41853,9.97535-0.48526,13.41907c0,0-1.27732-11.87809,7.43419-17.95642
			c0,0-4.50384,10.81987-1.8156,13.8533c0,0,0.4823-10.62176,6.02331-15.72801c0,0-5.26638,46.57064,45.88067,47.69785
			l-22.32669,23.05469l-29.12354,4.6139c0,0-26.63245-11.03153-20.94732-42.42648c0.00399-0.02051,0.01304-0.04556,0.016-0.06503
			c0.82653-5.31891,2.26649-9.56763,3.83547-12.8877c0.08106-0.21266,0.16109-0.41879,0.25216-0.63094
			C22.55898,66.91653,22.54797,66.96407,22.54797,67.04765z"/>
		<path class="st11" d="M42.14895,95.85844c5.02619-5.45496,8.33979-11.87655,9.96285-18.61983
			c6.25294,9.42554,17.74076,17.56316,38.7411,18.01948l-21.35706,24.00725c0,0,5.50549,23.86122-1.8882,22.83704
			c-25.54677-3.55524-38.55052-23.46394-44.96361-34.29279C29.88513,105.78228,36.66946,101.79174,42.14895,95.85844z"/>
		<path class="st3" d="M74.71412,108.71314c0-13.90636,11.31576-25.22308,25.22057-25.22308
			c13.90285,0,25.21107,11.31672,25.21107,25.22308c0,13.89931-11.30823,25.21107-25.21107,25.21107
			C86.02988,133.92421,74.71412,122.61245,74.71412,108.71314z M75.08639,108.71314c0,13.69669,11.14862,24.8453,24.8483,24.8453
			c13.69675,0,24.84634-11.14861,24.84634-24.8453c0-13.70374-11.14958-24.84933-24.84634-24.84933
			C86.23501,83.86382,75.08639,95.00941,75.08639,108.71314z"/>
		<path class="st13" d="M117.43884,67.52493c0.29771,2.33399,1.70609,0.28519,2.46009,2.74825
			c2.09731,6.84788,7.07548,23.03266,14.32559,29.9991c0,0-8.47741,21.46564-34.2248,21.46564
			c-25.74034,0-33.05552-24.21488-33.05552-24.21488c6.95491-6.67323,10.81636-20.39098,13.01881-27.12029
			c0.92408-2.81777,2.4175-0.71895,2.75124-3.31157"/>
		<path class="st13" d="M99.99972,79.47252c19.09817,0,43.25605,21.88795,43.25605,50.36707
			c0,19.70354-9.13432,40.21707-17.44962,51.75392c-3.44971,4.79805-47.55476,4.89714-49.93877,1.9052
			c-10.76031-13.50056-22.032-37.96913-22.032-52.45189C53.83537,102.56171,80.58642,79.47252,99.99972,79.47252z"/>
		<path class="st6" d="M97.40658,77.28262c0,1.20731,0.98315,2.1899,2.19942,2.1899c1.20879,0,2.19335-0.9826,2.19335-2.1899
			c0-1.21625-0.98457-2.19736-2.19335-2.19736C98.38972,75.08525,97.40658,76.06637,97.40658,77.28262z"/>
		<path class="st7" d="M99.08118,77.28262c0,0.27718,0.23562,0.51035,0.52483,0.51035c0.27818,0,0.51128-0.23317,0.51128-0.51035
			c0-0.28967-0.2331-0.51929-0.51128-0.51929C99.3168,76.76333,99.08118,76.99295,99.08118,77.28262z"/>
		<circle class="st6" cx="99.60448" cy="89.76482" r="2.19614"/>
		<path class="st7" d="M99.08118,89.76457c0,0.2867,0.23562,0.51536,0.52483,0.51536c0.27818,0,0.51128-0.22866,0.51128-0.51536
			c0-0.28265-0.2331-0.51283-0.51128-0.51283C99.3168,89.25175,99.08118,89.48192,99.08118,89.76457z"/>
		<path class="st0" d="M79.15496,36.98451c-0.28716-5.78267,0.1221-12.04517,2.37903-16.36139
			c0.93061-2.6327,6.73376-8.76012,17.7623-8.76012c9.75572,0,18.00293,5.48554,19.14018,8.76012
			c2.27392,4.31622,2.6787,10.57872,2.39304,16.36139c0.26365,5.44598,0.04001,9.5666-1.14675,13.62716
			c-3.22955,7.61534-1.7001,13.35551-0.10404,19.26928l-19.96723,35.17585v0.13412L79.64125,70.00903
			c1.37489-5.40847,4.39034-12.14577,0.75349-19.46291C79.13699,46.54557,78.92784,41.61896,79.15496,36.98451z"/>
		<path class="st8" d="M106.8726,33.61535c-0.06306,1.82368,1.86215,3.35014,4.29424,3.44073
			c2.42407,0.07404,4.45031-1.31933,4.50436-3.15003c0.06805-1.81267-1.86115-3.34914-4.28075-3.43319
			C108.95492,30.39379,106.94015,31.79869,106.8726,33.61535z"/>
		<path class="st9" d="M109.27362,33.38772c-0.16112,1.11922,0.61388,2.14937,1.73013,2.30798
			c1.12718,0.1541,2.16335-0.6384,2.31095-1.74411c0.15011-1.11423-0.63087-2.13836-1.74411-2.30347
			C110.44886,31.49956,109.42223,32.28002,109.27362,33.38772z"/>
		<path class="st8" d="M84.92218,33.70742c-0.05856,1.81966,1.86865,3.34962,4.29716,3.43519
			c2.42358,0.08206,4.44586-1.32235,4.49892-3.1415c0.06499-1.81715-1.84767-3.35761-4.28674-3.44169
			C87.01096,30.48541,84.98215,31.8923,84.92218,33.70742z"/>
		<path class="st9" d="M87.32017,33.48178c-0.1531,1.11671,0.6209,2.14387,1.74359,2.30347
			c1.11073,0.15758,2.13537-0.63692,2.3-1.74214c0.14812-1.11369-0.62341-2.13884-1.74263-2.30196
			C88.50195,31.59459,87.47678,32.37106,87.32017,33.48178z"/>
		<path class="st10" d="M100.33197,38.2608c2.18233,3.67183,6.71473,4.66795,6.71473,4.66795
			c-3.56328,2.23944-7.12302,9.04882-7.12302,9.04882s-3.40615-6.80938-6.96689-9.04882
			C92.95679,42.92876,98.15556,41.93264,100.33197,38.2608z"/>
		<path class="st13" d="M119.88238,69.8754c0,0-4.03606,9.97238-20.43649,8.84266
			c-16.78465-1.16123-19.27175-9.54857-19.27175-9.54857s-2.26044,16.1137,4.79855,26.45932
			c7.05999,10.34207,15.05056,14.14951,15.05056,14.14951s11.19765-11.06956,15.95265-22.48382
			C120.73344,75.87978,119.88238,69.8754,119.88238,69.8754z"/>
		<path class="st11" d="M117.76652,68.35545c0,0-3.57426,11.4678-18.10401,10.16096
			C84.79756,77.1861,82.59765,67.54598,82.59765,67.54598s-4.80255,2.23639,0.4513,10.47161
			c7.06601,11.08208,29.47975,11.80154,35.74575-2.03126C121.41988,70.19066,117.76652,68.35545,117.76652,68.35545z"/>
		<path class="st11" d="M117.41231,70.05607c0,1.79609,1.12875,3.25555,2.50458,3.25555c1.39337,0,2.51611-1.45947,2.51611-3.25555
			c0-1.79565-1.12273-3.25459-2.51611-3.25459C118.54106,66.80148,117.41231,68.26042,117.41231,70.05607z"/>
		<ellipse class="st11" cx="119.09676" cy="76.07099" rx="2.50983" ry="3.2548"/>
		<path class="st11" d="M113.33321,80.8299c0,1.80167,1.12225,3.25056,2.50963,3.25056c1.37886,0,2.50758-1.4489,2.50758-3.25056
			c0-1.79465-1.12872-3.25556-2.50758-3.25556C114.45546,77.57434,113.33321,79.03526,113.33321,80.8299z"/>
		<ellipse class="st11" cx="111.5846" cy="84.11763" rx="2.50909" ry="3.2538"/>
		<ellipse class="st11" cx="106.87124" cy="85.79632" rx="2.50934" ry="3.25406"/>
		<path class="st11" d="M99.3448,86.35191c0,1.79565,1.12074,3.25758,2.51362,3.25758c1.38436,0,2.5071-1.46194,2.5071-3.25758
			c0-1.80112-1.12273-3.25105-2.5071-3.25105C100.46554,83.10086,99.3448,84.5508,99.3448,86.35191z"/>
		<ellipse class="st11" cx="96.84386" cy="86.35355" rx="2.50534" ry="3.25432"/>
		<ellipse class="st11" cx="91.82928" cy="85.12875" rx="2.50812" ry="3.25232"/>
		<ellipse class="st11" cx="87.3822" cy="82.54388" rx="2.50558" ry="3.25081"/>
		<path class="st11" d="M80.58642,79.32592c0,1.80269,1.1272,3.25558,2.50905,3.25558c1.38642,0,2.5106-1.4529,2.5106-3.25558
			c0-1.79411-1.12418-3.25504-2.5106-3.25504C81.71362,76.07088,80.58642,77.53181,80.58642,79.32592z"/>
		<ellipse class="st11" cx="80.31172" cy="74.75204" rx="2.50912" ry="3.25705"/>
		<ellipse class="st11" cx="80.58752" cy="69.23565" rx="2.50683" ry="3.25282"/>
		<path class="st124" d="M117.41231,19.00309c0,0-3.29309-11.93761-10.54469-16.34295
			c-7.24409-4.39374-13.0193,5.03173-6.54717,12.96979"/>
		<path class="st124" d="M115.6757,15.0966c0-4.17416,15.31424-7.6549,16.07971,4.50387
			c0.49234,7.78042-13.405,8.694-18.4222,4.4833"/>
		<path class="st13" d="M100.33197,11.11753c-2.06033,2.84182,1.50843,8.93367,7.97151,13.6192
			c6.46415,4.68196,13.36655,6.17944,15.42837,3.34309c2.05077-2.84079-1.51895-8.93666-7.98011-13.62213
			C109.29613,9.77518,102.39175,8.27976,100.33197,11.11753z"/>
		<g>
			<g>
				<path class="st125" d="M97.27835,190.02768c0-0.35905-0.29256-0.65198-0.65012-0.65198c0,0-0.89244,0.76094-2.4786,0.76094
					c-1.58246,0-2.3109-0.76094-2.73792-0.76094c-0.08052,0,0.01257-0.3679-0.38194,0
					c-2.4328,2.27544-7.86725,2.73607-7.86725,2.73607l0,0c0,0-0.29699,1.68405,4.32481,1.81444h1.33645
					c0.00591,0,0.01182,0,0.01773,0l0,0h7.78672c0.35757,0,0.65012-0.29256,0.65012-0.65344v-0.1714l-0.16253-0.09494
					l0.16253-0.1411V190.02768z"/>
				<path class="st125" d="M111.0344,193.92621c0.00591,0,0.01183,0,0.01773,0h1.33645
					c4.6218-0.13039,4.32555-1.81223,4.32481-1.81444l0,0c0,0-5.43076-0.46063-7.86578-2.73607c-0.39229-0.3679-0.30142,0-0.38195,0
					c-0.4248,0-1.15545,0.76094-2.73939,0.76094s-2.47712-0.76094-2.47712-0.76094c-0.35905,0-0.6516,0.29292-0.6516,0.65013
					v2.83949l0.16253,0.13963l-0.16253,0.09641v0.1714c0,0.36089,0.29256,0.65344,0.6516,0.65344H111.0344L111.0344,193.92621z"/>
			</g>
		</g>
	</g>
	<g>
		<path class="st126" d="M161.71449,198.38219L161.71449,198.38219c1.77014-0.72847,1.25731-2.52364,0.40376-3.04495
			c-1.35587-0.50584-2.34549-0.69641-2.19386-2.45157l0.03296-1.72005c0.06007-3.65787,0.54785-7.32668,1.52501-10.83693
			l0.55234-1.98726c1.36688-4.9111,2.69623-6.67926,2.14035-15.08159c-3.92097-1.71707-6.24547-3.5968-8.87364-6.57817
			l-2.51758,1.35033c-1.26431,0.67642-2.48308,1.47694-3.89899,1.76512l-3.79291,0.77203l-21.25501-1.57256
			c-2.98189,0.4758-1.61256-9.69617-4.08611-9.85374l-0.95965-0.01503c-1.4734-0.09651-0.819,6.16544,0.11106,10.01439
			c0.4383,1.71159,1.26786,2.47557,1.3399,2.81729l-0.23265,0.27469c-3.33366,4.0791-2.73025,8.44487-1.92677,12.95775
			c0.2492,1.39685,1.54149,3.46266,0.19766,6.11385l-0.67443,1.34137c-1.44443,2.13184-2.0168,5.9268-1.54599,8.48289
			l0.3092,1.65556c0.40273,2.21193,1.37086,4.87962,3.922,5.0437c1.09367,0.06953,2.66367-0.29668,2.3395-1.65602l-1.07821-4.19215
			c-0.44126-1.66309,0.61039-9.5461,1.92721-9.04277l-0.3262,4.39529c0.33873,3.17651,1.32239,7.5703,2.82831,8.29825
			l2.12037,1.05719c2.84877,1.44592,2.80827-2.50908,1.82265-4.17168l-1.19629-2.89632
			c-0.61435-1.00366-0.53828-2.8428-0.33722-3.29865l0.23517-0.57333l3.03897-6.57614l0.6544-2.94388
			c0.23213-1.0737-0.03951-2.77631,1.39587-2.89536l3.17302-0.21515c4.24019,2.62769,8.07315,3.96701,13.62767,5.7942
			l0.5974,1.88066c-0.34372,3.38815-0.89961,4.87064-1.2693,7.28467l-0.52235,3.54071
			c-0.61188,2.43806-1.59,5.86528,3.65782,6.03487c1.7011,0.35974,3.62381-1.49394,2.11937-2.98041
			c-2.1899-1.31834-1.67209-2.75073-1.23482-4.32625l2.37851-8.29526l-0.13956,8.73653
			C155.9073,195.23618,154.48293,199.05263,161.71449,198.38219L161.71449,198.38219z"/>
		<path class="st126" d="M169.47444,147.79451L169.47444,147.79451l0.19162-1.16273l0.32671-1.06924
			c0.31567-0.95807-0.1936-2.83377-1.12421-3.32205c-0.98315-0.4778-2.43605,0.48326-2.83931,1.54396l-0.4843,0.93759
			l-0.43327,0.85909l-2.00677,2.56111l-5.93628,6.51462c2.2274,2.70827,5.08273,4.82207,8.61795,6.64825l1.89275-1.30632
			l0.91609-0.52934l0.42171,0.0275l1.20679,0.7475c2.71674,1.69656,6.70479,1.69656,8.25574-1.44942l0.33876-0.69096
			c0.54034-1.1012,1.08916-2.58266-0.28619-3.42418l-0.45581-0.1111c-1.2803-0.33566-2.75426-0.30215-3.64877-1.36534
			l-1.36839-1.69109C171.96703,150.18501,170.58865,148.66653,169.47444,147.79451L169.47444,147.79451z"/>
		<path class="st39" d="M164.47778,163.66907c0.58835,0,1.1557-0.31967,1.4489-0.87505
			c0.42575-0.80052,0.11856-1.7916-0.68195-2.21887c-1.65353-0.8766-6.26498-3.70535-7.73491-6.24303
			c-0.09306-0.58885,0.92358-3.21651,1.74214-5.32787c3.25053-8.37883,8.69046-22.40375-2.91792-33.08806
			c-24.94083-22.96159-6.51212-44.31865-5.7151-45.21426c0.60486-0.67989,0.54282-1.71606-0.13708-2.31899
			c-0.67442-0.60186-1.71107-0.54131-2.313,0.13363c-0.21609,0.24264-21.41758,24.62862,5.94778,49.81371
			c9.95886,9.1708,5.21835,21.39855,2.07681,29.48772c-1.56343,4.02557-2.50705,6.46059-1.52394,8.1572
			c2.20088,3.81091,8.34784,7.13403,9.04178,7.50226C163.95393,163.60806,164.2166,163.66907,164.47778,163.66907z"/>
	</g>
</g>
</svg>
