<?xml version="1.0" encoding="utf-8"?>
<!-- Generator: Adobe Illustrator 19.1.0, SVG Export Plug-In . SVG Version: 6.00 Build 0)  -->
<svg version="1.1" id="P_Johns" xmlns="http://www.w3.org/2000/svg" xmlns:xlink="http://www.w3.org/1999/xlink" x="0px" y="0px"
	 viewBox="0 0 170 170" style="enable-background:new 0 0 170 170;" xml:space="preserve">
<style type="text/css">
	.st0{fill:#E1E2E3;}
	.st1{fill:#44C2CE;}
	.st2{fill:#3B79A3;}
	.st3{fill:#424750;}
	.st4{fill:none;stroke:#504F4F;stroke-width:2;stroke-miterlimit:10;}
	.st5{fill:#504F4F;}
	.st6{fill:#F16D6D;}
	.st7{fill:#87C6C0;}
	.st8{fill:#89DBD8;}
	.st9{fill:none;stroke:#C7C6C6;stroke-width:0.7565;stroke-miterlimit:10;}
	.st10{fill-rule:evenodd;clip-rule:evenodd;fill:#444751;}
	.st11{fill-rule:evenodd;clip-rule:evenodd;fill:#D6D6D5;}
	.st12{fill:#FFFFFF;}
	.st13{fill:#2B2A34;}
	.st14{fill:#2B2C2D;}
	.st15{fill:none;stroke:#504F4F;stroke-miterlimit:10;}
	.st16{fill-rule:evenodd;clip-rule:evenodd;fill:#89DBD8;}
	.st17{fill-rule:evenodd;clip-rule:evenodd;fill:#87C6C0;}
	.st18{fill:#59473A;}
	.st19{fill:none;stroke:#F2C24E;stroke-miterlimit:10;}
	.st20{fill:none;stroke:#F2C24E;stroke-linecap:round;stroke-miterlimit:10;}
	.st21{fill:#E9676D;}
	.st22{fill:#F6ECC3;}
	.st23{fill:#A6A8AB;}
	.st24{fill:none;stroke:#FFFFFF;stroke-width:5.289;stroke-miterlimit:10;}
	.st25{fill:#E6E6E6;}
	.st26{opacity:0.2;fill:none;stroke:#FFFFFF;stroke-width:3;stroke-miterlimit:10;}
	.st27{fill:none;stroke:#E9676D;stroke-linecap:round;stroke-miterlimit:10;}
	.st28{fill:#FCB856;}
	.st29{fill:none;stroke:#FCB856;stroke-linecap:round;stroke-miterlimit:10;}
	.st30{fill:none;stroke:#CBCACA;stroke-width:3.4513;stroke-miterlimit:10;}
	.st31{fill-rule:evenodd;clip-rule:evenodd;fill:#DADAD9;}
	.st32{fill:#469595;}
	.st33{fill:#2A2D35;}
	.st34{fill:#387D7B;}
	.st35{fill:#BFF7F5;}
	.st36{opacity:0.4;fill:#FFFFFF;}
	.st37{fill:#D3D3D3;}
	.st38{fill:none;stroke:#FFFFFF;stroke-width:5.0355;stroke-miterlimit:10;}
	.st39{fill:#777777;}
	.st40{fill:#70533D;}
	.st41{fill:#EA6A6D;}
	.st42{fill:#C7C6C6;}
	.st43{fill:#9FA0A3;}
	.st44{fill:#3C5777;}
	.st45{fill:#F2C24E;}
	.st46{fill:none;stroke:#E1E2E3;stroke-miterlimit:10;}
	.st47{fill:#314759;}
	.st48{fill:none;stroke:#314759;stroke-miterlimit:10;}
	.st49{fill:none;stroke:#3C5777;stroke-miterlimit:10;}
	.st50{fill:#80BBA8;}
	.st51{fill:#E94C64;}
	.st52{fill:#59C0C1;}
	.st53{fill:#8E8E8E;}
	.st54{fill:#80C0AC;}
	.st55{fill:none;stroke:#504F4F;stroke-linecap:round;stroke-miterlimit:10;}
	.st56{fill:#F9D88F;}
	.st57{fill:#BABABA;}
	.st58{clip-path:url(#XMLID_3_);fill:#F9D88F;}
	.st59{fill-rule:evenodd;clip-rule:evenodd;fill:#F2BC86;}
	.st60{fill:#F2F2F2;}
	.st61{fill:#57C4C6;}
	.st62{fill:#B4E219;}
	.st63{fill:#74777C;}
	.st64{fill:#E03E3E;}
	.st65{fill:#595C62;}
	.st66{fill:none;stroke:#C7C6C6;stroke-width:0.8879;stroke-miterlimit:10;}
	.st67{fill-rule:evenodd;clip-rule:evenodd;fill:#F9F0EB;}
	.st68{fill-rule:evenodd;clip-rule:evenodd;fill:#595C62;}
	.st69{fill:#EC7045;}
	.st70{opacity:0.7;}
	.st71{fill:#90CED2;}
	.st72{fill:#882888;}
	.st73{fill:#C1C0C0;}
	.st74{fill:#768035;}
	.st75{fill:#E3B27C;}
	.st76{fill:#775644;}
	.st77{fill:#DBC7C2;}
	.st78{fill:#D95027;}
	.st79{fill:#57BFC2;}
	.st80{clip-path:url(#SVGID_2_);}
	.st81{fill-rule:evenodd;clip-rule:evenodd;fill:#424750;}
	.st82{fill-rule:evenodd;clip-rule:evenodd;fill:#E1E2E3;}
	.st83{fill:none;stroke:#E6E6E6;stroke-miterlimit:10;}
	.st84{fill:#6BA588;}
	.st85{fill:#F9F0EB;}
	.st86{fill:none;stroke:#6BA588;stroke-miterlimit:10;}
	.st87{fill:#281A12;}
	.st88{fill:#2E465D;}
	.st89{fill:#422E21;}
	.st90{fill-rule:evenodd;clip-rule:evenodd;fill:#3C5F7C;}
	.st91{fill-rule:evenodd;clip-rule:evenodd;fill:#2E465D;}
	.st92{fill:#EDE2A2;}
	.st93{fill:#EFDFA8;}
	.st94{fill:#9AC68F;}
	.st95{clip-path:url(#XMLID_5_);fill:#B4D6AA;}
	.st96{fill:#96D696;}
	.st97{clip-path:url(#XMLID_6_);fill:#A7DBA7;}
	.st98{clip-path:url(#XMLID_7_);fill:#B4D6AA;}
	.st99{fill:#4D4D4F;}
	.st100{fill:#69502E;}
	.st101{fill:#3F3F3F;}
	.st102{fill:#4C381B;}
	.st103{fill:#919090;}
	.st104{fill:#74DDE2;}
	.st105{clip-path:url(#XMLID_10_);fill:#F9D88F;}
	.st106{fill-rule:evenodd;clip-rule:evenodd;fill:#504F4F;}
	.st107{fill-rule:evenodd;clip-rule:evenodd;fill:#FFFFFF;}
	.st108{fill-rule:evenodd;clip-rule:evenodd;fill:none;stroke:#4D4D4D;stroke-miterlimit:10;}
	.st109{fill:#4D4D4D;}
	.st110{fill:#42474F;}
	.st111{fill:#E6E7E8;}
	.st112{fill:#3A3A3A;}
	.st113{fill-rule:evenodd;clip-rule:evenodd;fill:#43474F;}
	.st114{fill-rule:evenodd;clip-rule:evenodd;fill:#DBDBDA;}
	.st115{fill:#F3E7A8;}
	.st116{fill:#F4E4AD;}
	.st117{fill:none;stroke:#F4E4AD;stroke-width:0.454;stroke-miterlimit:10;}
	.st118{fill:#57C4C7;}
	.st119{clip-path:url(#SVGID_4_);fill:#E6E7E8;}
	.st120{fill-rule:evenodd;clip-rule:evenodd;fill:#42474F;}
	.st121{fill-rule:evenodd;clip-rule:evenodd;fill:#E6E7E8;}
	.st122{fill:#E5D9BE;}
	.st123{fill:#F7F1E2;}
	.st124{fill:#B5967D;}
	.st125{clip-path:url(#XMLID_11_);fill:#96D696;}
	.st126{fill-rule:evenodd;clip-rule:evenodd;fill:#92BA85;}
	.st127{fill-rule:evenodd;clip-rule:evenodd;fill:#EFEFE4;}
	.st128{fill-rule:evenodd;clip-rule:evenodd;fill:#E0E0C7;}
	.st129{fill:#999999;}
	.st130{fill:#F9C543;}
	.st131{fill:#355B77;}
	.st132{fill:#C49B49;}
	.st133{fill:#444751;}
	.st134{fill:#D6D6D5;}
	.st135{fill:none;}
	.st136{fill:#5DC667;}
	.st137{fill:#EDE9C3;}
	.st138{fill:none;stroke:#FCD98D;stroke-linecap:round;stroke-miterlimit:10;}
	.st139{fill:none;stroke:#CBCACA;stroke-width:0.5;stroke-miterlimit:10;}
	.st140{fill:none;stroke:#80C0AC;stroke-width:0.5;stroke-miterlimit:10;}
	.st141{fill:#E85273;}
	.st142{fill:#FCD224;}
	.st143{fill:#59B5CE;}
	.st144{fill:#52ACC1;}
	.st145{fill:#FAFAFA;}
	.st146{fill:#E7E6E6;}
	.st147{fill:#71D3F4;}
	.st148{fill:#A3E8E3;}
	.st149{fill:#4AAFAF;}
	.st150{fill:#F2BC86;}
	.st151{fill:#585D62;}
	.st152{fill-rule:evenodd;clip-rule:evenodd;fill:#DBDBD9;}
	.st153{fill-rule:evenodd;clip-rule:evenodd;fill:#E7E6E6;}
	.st154{fill:#2A2A34;}
	.st155{fill:none;stroke:#3B79A3;stroke-miterlimit:10;}
	.st156{fill:#EDEFED;}
	.st157{fill:none;stroke:#CCCCCC;stroke-miterlimit:10;stroke-dasharray:1,1;}
	.st158{fill:#2D567F;}
	.st159{fill:#EF89B0;}
	.st160{fill:#3F6B9E;}
	.st161{fill:#D21C5A;}
	.st162{fill:#EDC169;}
	.st163{fill:#DDAC57;}
	.st164{fill:#92BA85;}
	.st165{fill:#29507F;}
	.st166{fill:none;stroke:#EFDFA8;stroke-width:0.3783;stroke-miterlimit:10;}
	.st167{clip-path:url(#SVGID_6_);}
	.st168{fill:#AEAEAF;}
	.st169{fill:#895C4E;}
	.st170{fill-rule:evenodd;clip-rule:evenodd;fill:#F7E9DF;}
	.st171{clip-path:url(#SVGID_8_);}
	.st172{clip-path:url(#SVGID_10_);fill:#F15C60;}
	.st173{fill-rule:evenodd;clip-rule:evenodd;fill:#F4F4F4;}
	.st174{clip-path:url(#SVGID_12_);}
	.st175{clip-path:url(#SVGID_14_);fill:#F15C60;}
</style>
<g>
	<path class="st0" d="M153.6,100.8c0.6-1.3,0.9-5.9,0.9-5.9c-0.8,0.6-1.6,1-2.2,1c0,0,1-0.8,2.2-2.1l-0.3-4
		c-0.4,0.2-0.7,0.4-1.1,0.4c0,0,0.4-0.3,1-0.8l0-0.1l-0.4-4.5c-0.4,0.2-0.7,0.3-1,0.3c0,0,0.4-0.4,1-1l-0.4-4.4l-0.5-0.9
		c-8.6,5.8-25.6,12.3-43.4-7.5l-2.1,23.9l11.6,18.7C118.8,114,143.8,121.3,153.6,100.8z"/>
	<path class="st0" d="M44.6,75.1c-1.9-1.5-10.9-8.8-11.9-13.4c-1.6-7.5,5.8-4.4,5.8-4.4s-0.9-2.2-3.2-4c-2.1-1.7-7.4-2.3-8.9,3.4
		c-0.8,3.1-0.9,4.7-0.8,5.5c-0.2-1-0.4-2.9,0.3-5.6c1.2-4.4,2.9-4.1,1.9-4.7c-0.5-0.3-4.9,1.9-5.9,4.2c-1,2.1-1,6.1,0.1,8.8
		c1.8,4.8-2.3-1.8-1-7.4c0.1-0.6-3.8,6-3.3,11.3c0.2,2.1,1,4.3,1,4.3c-0.4-0.7-0.9-1.9-1.2-3.5c-0.6-2.7,0.2-5.7,0.2-5.7
		s-6.1,8.3-3.6,15.9C27.1,119,59.4,110,59.4,110L75,91.4L76.5,65C64.1,75.3,53.3,77,44.6,75.1z"/>
	<g>
		<defs>
			<path id="XMLID_238_" d="M41.6,87.4C46.5,70.6,30.5,71,27.8,66.2c6,0.9,28.1,17.6,46-0.6L74.3,91l-15.5,18.3c0,0-15.3,7.1-32-8
				C30.9,100.3,38.4,98.5,41.6,87.4z"/>
		</defs>
		<use xlink:href="#XMLID_238_"  style="overflow:visible;fill:#96D696;"/>
		<clipPath id="XMLID_3_">
			<use xlink:href="#XMLID_238_"  style="overflow:visible;"/>
		</clipPath>
		<path style="clip-path:url(#XMLID_3_);fill:#96D696;" d="M53.2,116.3l-1.9-0.6c7.6-25.6,0.1-40.3,0.1-40.4l1.7-0.9
			C53.4,75.1,61,90,53.2,116.3z"/>
	</g>
	<path class="st96" d="M74.7,56.5c-0.4,0.6-0.5,1.3-0.8,2.6c-1.6,5.7-4.3,15.2-10.3,21c0,0,5.5,21.3,26.6,21.3
		c21.2,0,26.6-21.3,26.6-21.3c-5.7-5.5-8.6-15.3-10.2-20.9c-0.6-2.3-0.7-2.6-0.8-2.8"/>
	<path class="st5" d="M127.6,109.3c0-23.2-16.7-42-37.4-42c-20.6,0-37.4,18.8-37.4,42c0,12.6,6.9,23.1,15.3,30.6
		c2.1,2.1,4.6,3.9,7.3,5.3l-0.1,0c4.7,2.7,8.2,7.3,9.2,12.7c0.2-0.1,0.5-0.6,2.5,0v-9.3c1,0.1,2.4,0.2,3.5,0.2
		c1.1,0,2.5-0.1,3.5-0.2v9.3c0-0.6,2-0.1,2.2,0c1-5.4,4.3-10,9-12.7l-0.1,0c1.3-0.7,2.5-1.5,3.7-2.3c0,0,0,0,0,0
		c0.4-0.3,0.7-0.6,1.1-0.9c0.1-0.1,0.3-0.2,0.4-0.3C119.6,134.1,127.6,123,127.6,109.3z"/>
	<path class="st0" d="M107,32c0.2-4.8-0.1-9.9-2-13.4c-1-2.8-4.1-4.5-7.3-5.5c1.4,0,2.6,0,2.6,0c-3.4-2.3-6.4-2.1-8.6-1.3
		c-0.7-0.1-1.2-0.2-1.6-0.2c1.6-0.9,3.4-1.5,3.4-1.5c-5.3-1.3-9.8,1.6-11.7,3.1c-3.1,1.1-6.1,2.7-7.1,5.4c-1.9,3.5-2.2,8.7-2,13.4
		c-0.2,4.5,0,7.9,0.9,11.2c2.3,5.5,1.6,9.9,0.5,14.2c0,0,0.7,1.2,0.5,1.8L90.2,88v0.1l15.6-28.7c-0.1-0.6,0.5-1.4,0.3-2
		c-1.2-4.1-2.7-9-0.1-14.2C107.1,39.9,107.2,35.8,107,32z"/>
	<path class="st12" d="M82.4,29c0,1.5-1.5,2.8-3.5,2.8c-2,0.1-3.7-1.1-3.7-2.6c-0.1-1.5,1.5-2.8,3.5-2.8
		C80.7,26.3,82.3,27.5,82.4,29z"/>
	<path class="st13" d="M80.4,28.8c0.1,0.9-0.5,1.8-1.4,1.9c-0.9,0.1-1.8-0.5-1.9-1.4c-0.1-0.9,0.5-1.8,1.4-1.9
		C79.4,27.3,80.3,27.9,80.4,28.8z"/>
	<path class="st12" d="M104.5,29c0,1.5-1.5,2.8-3.5,2.8c-2,0.1-3.7-1.1-3.7-2.6c0-1.5,1.5-2.8,3.5-2.8
		C102.8,26.3,104.4,27.5,104.5,29z"/>
	<path class="st13" d="M102.5,28.8c0.1,0.9-0.5,1.8-1.4,1.9c-0.9,0.1-1.8-0.5-1.9-1.4c-0.1-0.9,0.5-1.8,1.4-1.9
		C101.6,27.3,102.4,27.9,102.5,28.8z"/>
	<path class="st3" d="M89.9,32.7c-1.8,3-5.5,3.8-5.5,3.8c2.9,1.8,5.9,7.4,5.9,7.4s2.8-5.6,5.7-7.4C96,36.6,91.7,35.8,89.9,32.7z"/>
	<path class="st14" d="M92.3,159.7l0.1-0.1l-0.1-0.1v-2.2c0-0.3,0.2-0.5,0.5-0.5c0,0,0.7,0.6,1.9,0.6c1.2,0,1.8-0.6,2.1-0.6
		c0.1,0,0-0.3,0.3,0c1.9,1.8,6.1,2.1,6.1,2.1c0.2,0,0.4,0.4,0.2,0.6c0,0-0.1,0.1-0.1,0.1l0.1,0.1c0,0.3-0.2,0.5-0.5,0.5H92.8
		c-0.3,0-0.5-0.2-0.5-0.5V159.7z"/>
	<path class="st14" d="M88.1,159.8c0,0.3-0.2,0.5-0.5,0.5H77.4c-0.3,0-0.5-0.2-0.5-0.5l0.1-0.1c0,0-0.1-0.1-0.1-0.1
		c-0.2-0.3-0.1-0.6,0.2-0.6c0,0,4.2-0.4,6.1-2.1c0.3-0.3,0.2,0,0.3,0c0.3,0,0.9,0.6,2.1,0.6c1.2,0,1.9-0.6,1.9-0.6
		c0.3,0,0.5,0.2,0.5,0.5v2.2l-0.1,0.1l0.1,0.1V159.8z"/>
	<path class="st96" d="M86.7,129.2c3.2,0.4,3.4,0.3,7.6,0.1c9.6-0.4,20.3-2.5,31.3-8c1.3-3.7,2.1-7.7,2.1-11.9
		c0-21-13.7-38.3-31.7-41.5c-1.9-0.3-5.8,5.4-5.8,5.4s-3.8-5.8-5.5-5.5c-18.2,3-32.1,20.4-32.1,41.5c0,4.1,0.7,7.9,2,11.5
		C54.6,120.8,67.9,128.1,86.7,129.2z"/>
	<path class="st5" d="M89.3,74.6l-3.8-3.8c-0.7-0.7-0.2-1.9,0.8-1.9h7.6c1,0,1.5,1.2,0.8,1.9l-3.8,3.8C90.5,75,89.8,75,89.3,74.6z"
		/>
	<path class="st5" d="M90.2,122.6l-5.9-5.9l5.2-42.9c0.1-0.8,1.2-0.8,1.3,0l5.2,42.9L90.2,122.6z"/>
	<path class="st126" d="M74.3,57.5c0,0,1.8,3.3,6,6.3c4.8,3.4,8.3,5.1,8.3,5.1s-2.2,1.2-3.1,4.3c-0.3,1.2-0.1,4-0.1,4
		s-7.9-8.4-11-17.6C74.2,59,74.3,57.5,74.3,57.5z"/>
	<path class="st126" d="M106.2,57.3c0,0-1.8,3.3-6,6.3c-4.8,3.5-8.3,5.1-8.3,5.1s2.2,1.2,3.1,4.3c0.3,1.2,0.1,4,0.1,4
		s7.9-8.4,11-17.6C106.3,58.9,106.2,57.3,106.2,57.3z"/>
	<path class="st18" d="M125.6,118.1c-10.9,5.5-21.6,7.6-31.3,8c-4.2,0.2-4.4,0.2-7.6-0.1c-18.9-1.1-32.1-8.3-32.2-8.4
		c-1.1-0.7-1.3-0.5,0,3.1c0,0,13.3,7.3,32.2,8.4c3.2,0.4,3.4,0.3,7.6,0.1c9.6-0.4,20.3-2.5,31.3-8
		C127,117.3,127.1,117.3,125.6,118.1z"/>
	<path class="st19" d="M87,127v1.5c0,0.5,0.4,1,1,1l4.5-0.1c0.5,0,0.9-0.4,0.9-1v-1.4c0-0.5-0.4-1-1-1l-4.5,0.1
		C87.4,126,87,126.5,87,127z"/>
	<line class="st20" x1="93.4" y1="127.6" x2="90.8" y2="127.6"/>
	<polygon class="st127" points="45.1,106.6 39.1,106.6 23.1,104.4 23.1,57 44.4,57 55,60.9 55,105.1 	"/>
	<path class="st0" d="M36.3,54.2c0,0,2.3,1.7,2.7,5.3c0,0-4-2.5-8.2-3.2l3.6-1.9L36.3,54.2z"/>
	<path class="st128" d="M44.4,57L55,60.9c0,0-0.4,1.6-1.7,2.6C53.3,63.6,50.1,59.9,44.4,57z"/>
	<path class="st128" d="M23.1,104.4l16,2.2c0,0-13.2-2.9-14-3.8C25.1,102.8,24.1,104.1,23.1,104.4z"/>
	<path class="st128" d="M45.1,106.6l9.9-1.5c0,0-1.3-0.9-1.3-2C53.7,103.1,47.7,106.1,45.1,106.6z"/>
	<path class="st129" d="M26,60.9C26,60.9,26,60.9,26,60.9l0.5-0.1c0.5,0,0.9,0.4,0.9,0.8v0c0,0.5-0.4,0.8-0.9,0.8H26
		c0,0-0.1,0-0.1-0.1V60.9z M26.5,62.4c0.5,0,0.7-0.3,0.7-0.7v0c0-0.4-0.3-0.7-0.7-0.7h-0.4v1.4H26.5z"/>
	<path class="st129" d="M28.3,62.5c-0.3,0-0.6-0.3-0.6-0.6v0c0-0.3,0.2-0.6,0.6-0.6c0.3,0,0.5,0.3,0.5,0.6c0,0,0,0.1-0.1,0.1h-0.9
		c0,0.3,0.2,0.5,0.5,0.5c0.2,0,0.3-0.1,0.4-0.2c0,0,0,0,0,0c0,0,0.1,0,0.1,0.1c0,0,0,0,0,0C28.6,62.5,28.5,62.5,28.3,62.5z
		 M28.7,61.9c0-0.2-0.2-0.5-0.4-0.5c-0.2,0-0.4,0.2-0.4,0.5H28.7z"/>
	<path class="st129" d="M29.1,62.2L29.1,62.2c0-0.3,0.2-0.4,0.5-0.4c0.2,0,0.3,0,0.4,0.1v-0.1c0-0.2-0.1-0.4-0.4-0.4
		c-0.1,0-0.2,0-0.3,0.1c0,0,0,0,0,0c0,0-0.1,0-0.1-0.1c0,0,0,0,0-0.1c0.1-0.1,0.2-0.1,0.4-0.1c0.2,0,0.3,0,0.4,0.1
		c0.1,0.1,0.1,0.2,0.1,0.3v0.7c0,0,0,0.1-0.1,0.1c0,0-0.1,0-0.1-0.1v-0.1c-0.1,0.1-0.2,0.2-0.5,0.2C29.3,62.5,29.1,62.4,29.1,62.2z
		 M30,62.1v-0.1c-0.1,0-0.2-0.1-0.4-0.1c-0.3,0-0.4,0.1-0.4,0.3v0c0,0.2,0.2,0.3,0.3,0.3C29.8,62.4,30,62.3,30,62.1z"/>
	<path class="st129" d="M30.5,61.4C30.5,61.3,30.5,61.3,30.5,61.4c0.1-0.1,0.1,0,0.1,0v0.3c0.1-0.2,0.3-0.4,0.5-0.4
		c0,0,0.1,0,0.1,0.1c0,0,0,0.1-0.1,0.1c-0.3,0-0.5,0.2-0.5,0.6v0.4c0,0,0,0.1-0.1,0.1s-0.1,0-0.1-0.1V61.4z"/>
	<path class="st129" d="M32.2,60.9C32.2,60.9,32.2,60.9,32.2,60.9c0.1-0.1,0.1,0,0.1,0v0.7h1v-0.7c0,0,0-0.1,0.1-0.1
		c0,0,0.1,0,0.1,0.1v1.5c0,0,0,0.1-0.1,0.1c0,0-0.1,0-0.1-0.1v-0.7h-1v0.7c0,0,0,0.1-0.1,0.1s-0.1,0-0.1-0.1V60.9z"/>
	<path class="st129" d="M33.8,61.9L33.8,61.9c0-0.3,0.3-0.6,0.6-0.6c0.4,0,0.6,0.3,0.6,0.6v0c0,0.3-0.3,0.6-0.6,0.6
		C34.1,62.5,33.8,62.3,33.8,61.9z M34.9,61.9L34.9,61.9c0-0.3-0.2-0.5-0.5-0.5c-0.3,0-0.5,0.2-0.5,0.5v0c0,0.3,0.2,0.5,0.5,0.5
		C34.7,62.4,34.9,62.2,34.9,61.9z"/>
	<path class="st129" d="M35.3,62.4C35.3,62.4,35.3,62.4,35.3,62.4c0-0.1,0-0.1,0-0.1C35.4,62.3,35.4,62.3,35.3,62.4
		c0.2,0,0.3,0,0.5,0c0.2,0,0.3-0.1,0.3-0.2v0c0-0.1-0.1-0.2-0.3-0.2c-0.2-0.1-0.4-0.1-0.4-0.3v0c0-0.2,0.2-0.3,0.4-0.3
		c0.1,0,0.3,0,0.4,0.1c0,0,0,0,0,0.1c0,0,0,0.1-0.1,0.1c0,0,0,0,0,0c-0.1-0.1-0.2-0.1-0.3-0.1c-0.2,0-0.3,0.1-0.3,0.2v0
		c0,0.1,0.2,0.2,0.3,0.2c0.2,0.1,0.4,0.1,0.4,0.3v0c0,0.2-0.2,0.3-0.4,0.3C35.6,62.5,35.4,62.5,35.3,62.4z"/>
	<path class="st129" d="M36.6,62.2v-0.8h-0.1c0,0-0.1,0-0.1-0.1s0-0.1,0.1-0.1h0.1V61c0,0,0-0.1,0.1-0.1s0.1,0,0.1,0.1v0.3h0.4
		c0,0,0.1,0,0.1,0.1c0,0,0,0.1-0.1,0.1h-0.4v0.8c0,0.2,0.1,0.2,0.2,0.2c0.1,0,0.1,0,0.1,0c0,0,0.1,0,0.1,0.1c0,0,0,0,0,0
		c0,0-0.1,0-0.2,0C36.8,62.5,36.6,62.4,36.6,62.2z"/>
	<path class="st129" d="M37.4,62.7c0.1,0,0.1-0.1,0.1-0.2c0,0-0.1,0-0.1-0.1v0c0,0,0-0.1,0.1-0.1c0,0,0.1,0,0.1,0.1v0.1
		c0,0.1,0,0.2-0.1,0.2C37.5,62.7,37.4,62.8,37.4,62.7C37.4,62.8,37.4,62.7,37.4,62.7C37.4,62.7,37.4,62.7,37.4,62.7z"/>
	<path class="st129" d="M25.9,66.6C25.9,66.6,25.9,66.5,25.9,66.6C25.9,66.5,25.9,66.5,25.9,66.6c0.1-0.1,0.1-0.1,0.1,0l0.5,1.4
		l0.5-1.4c0,0,0,0,0.1,0h0c0,0,0,0,0.1,0l0.5,1.4l0.5-1.4c0,0,0,0,0.1,0c0,0,0.1,0,0.1,0.1c0,0,0,0,0,0l-0.5,1.5c0,0,0,0.1-0.1,0.1
		h0c0,0-0.1,0-0.1-0.1L27,66.7l-0.5,1.4c0,0,0,0.1-0.1,0.1h0c0,0-0.1,0-0.1-0.1L25.9,66.6z"/>
	<path class="st129" d="M28.9,68.1c-0.3,0-0.6-0.3-0.6-0.6v0c0-0.3,0.2-0.6,0.6-0.6c0.3,0,0.5,0.3,0.5,0.6c0,0,0,0.1-0.1,0.1h-0.9
		c0,0.3,0.2,0.5,0.5,0.5c0.2,0,0.3-0.1,0.4-0.2c0,0,0,0,0,0c0,0,0.1,0,0.1,0.1c0,0,0,0,0,0C29.2,68.1,29.1,68.1,28.9,68.1z
		 M29.3,67.5c0-0.2-0.2-0.5-0.4-0.5c-0.2,0-0.4,0.2-0.4,0.5H29.3z"/>
	<path class="st129" d="M30.4,67.5L30.4,67.5c0-0.3,0.3-0.6,0.6-0.6c0.2,0,0.3,0.1,0.4,0.2c0,0,0,0,0,0c0,0,0,0.1-0.1,0.1
		c0,0,0,0,0,0C31.3,67.1,31.1,67,31,67c-0.3,0-0.5,0.2-0.5,0.5v0c0,0.3,0.2,0.5,0.5,0.5c0.2,0,0.3-0.1,0.4-0.2c0,0,0,0,0,0
		c0,0,0.1,0,0.1,0.1c0,0,0,0,0,0c-0.1,0.1-0.3,0.2-0.5,0.2C30.6,68.1,30.4,67.9,30.4,67.5z"/>
	<path class="st129" d="M31.7,67.8L31.7,67.8c0-0.3,0.2-0.4,0.5-0.4c0.2,0,0.3,0,0.4,0.1v-0.1c0-0.2-0.1-0.4-0.4-0.4
		c-0.1,0-0.2,0-0.3,0.1c0,0,0,0,0,0c0,0-0.1,0-0.1-0.1c0,0,0,0,0-0.1c0.1-0.1,0.2-0.1,0.4-0.1c0.2,0,0.3,0,0.4,0.1
		c0.1,0.1,0.1,0.2,0.1,0.3v0.7c0,0,0,0.1-0.1,0.1c0,0-0.1,0-0.1-0.1v-0.1c-0.1,0.1-0.2,0.2-0.5,0.2C31.9,68.1,31.7,68,31.7,67.8z
		 M32.6,67.7v-0.1c-0.1,0-0.2-0.1-0.4-0.1c-0.3,0-0.4,0.1-0.4,0.3v0c0,0.2,0.2,0.3,0.3,0.3C32.4,68,32.6,67.9,32.6,67.7z"/>
	<path class="st129" d="M33.1,67C33.1,66.9,33.2,66.9,33.1,67c0.1-0.1,0.1,0,0.1,0v0.2c0.1-0.1,0.2-0.3,0.4-0.3
		c0.3,0,0.5,0.2,0.5,0.5v0.7c0,0,0,0.1-0.1,0.1c0,0-0.1,0-0.1-0.1v-0.7c0-0.2-0.1-0.4-0.4-0.4c-0.2,0-0.4,0.2-0.4,0.4v0.6
		c0,0,0,0.1-0.1,0.1s-0.1,0-0.1-0.1V67z"/>
	<path class="st129" d="M34.5,66.9c0.1,0,0.1-0.1,0.1-0.2c0,0-0.1,0-0.1-0.1v0c0,0,0-0.1,0.1-0.1c0,0,0.1,0,0.1,0.1v0.1
		c0,0.1,0,0.2-0.1,0.2C34.6,66.9,34.5,66.9,34.5,66.9C34.5,66.9,34.5,66.9,34.5,66.9C34.5,66.9,34.5,66.9,34.5,66.9z"/>
	<path class="st129" d="M35.2,67.8V67H35c0,0-0.1,0-0.1-0.1s0-0.1,0.1-0.1h0.1v-0.3c0,0,0-0.1,0.1-0.1c0,0,0.1,0,0.1,0.1v0.3h0.4
		c0,0,0.1,0,0.1,0.1s0,0.1-0.1,0.1h-0.4v0.8c0,0.2,0.1,0.2,0.2,0.2c0.1,0,0.1,0,0.1,0c0,0,0.1,0,0.1,0.1c0,0,0,0,0,0
		c0,0-0.1,0-0.2,0C35.3,68.1,35.2,68,35.2,67.8z"/>
	<path class="st129" d="M37.1,68.1L36.7,67c0,0,0,0,0,0c0,0,0-0.1,0.1-0.1c0,0,0.1,0,0.1,0l0.3,1l0.3-1c0,0,0,0,0.1,0h0
		c0,0,0,0,0.1,0l0.3,1l0.3-1c0,0,0,0,0.1,0s0.1,0,0.1,0.1c0,0,0,0,0,0L38,68.1c0,0,0,0.1-0.1,0.1h0c0,0-0.1,0-0.1-0.1l-0.3-1l-0.3,1
		C37.2,68.1,37.2,68.1,37.1,68.1L37.1,68.1C37.1,68.1,37.1,68.1,37.1,68.1z"/>
	<path class="st129" d="M38.6,67.8L38.6,67.8c0-0.3,0.2-0.4,0.5-0.4c0.2,0,0.3,0,0.4,0.1v-0.1c0-0.2-0.1-0.4-0.4-0.4
		c-0.1,0-0.2,0-0.3,0.1c0,0,0,0,0,0c0,0-0.1,0-0.1-0.1c0,0,0,0,0-0.1c0.1-0.1,0.2-0.1,0.4-0.1c0.2,0,0.3,0,0.4,0.1
		c0.1,0.1,0.1,0.2,0.1,0.3v0.7c0,0,0,0.1-0.1,0.1c0,0-0.1,0-0.1-0.1v-0.1c-0.1,0.1-0.2,0.2-0.5,0.2C38.8,68.1,38.6,68,38.6,67.8z
		 M39.5,67.7v-0.1c-0.1,0-0.2-0.1-0.4-0.1c-0.3,0-0.4,0.1-0.4,0.3v0c0,0.2,0.2,0.3,0.3,0.3C39.3,68,39.5,67.9,39.5,67.7z"/>
	<path class="st129" d="M40,66.5C40,66.5,40.1,66.4,40,66.5c0.1-0.1,0.1,0,0.1,0v0c0,0,0,0.1-0.1,0.1C40.1,66.6,40,66.6,40,66.5
		L40,66.5z M40.1,67C40.1,66.9,40.1,66.9,40.1,67c0.1-0.1,0.1,0,0.1,0v1.1c0,0,0,0.1-0.1,0.1s-0.1,0-0.1-0.1V67z"/>
	<path class="st129" d="M40.7,67.8V67h-0.1c0,0-0.1,0-0.1-0.1s0-0.1,0.1-0.1h0.1v-0.3c0,0,0-0.1,0.1-0.1s0.1,0,0.1,0.1v0.3h0.4
		c0,0,0.1,0,0.1,0.1s0,0.1-0.1,0.1h-0.4v0.8c0,0.2,0.1,0.2,0.2,0.2c0.1,0,0.1,0,0.1,0c0,0,0.1,0,0.1,0.1c0,0,0,0,0,0
		c0,0-0.1,0-0.2,0C40.8,68.1,40.7,68,40.7,67.8z"/>
	<path class="st129" d="M42.3,67.8V67h-0.1c0,0-0.1,0-0.1-0.1s0-0.1,0.1-0.1h0.1v-0.3c0,0,0-0.1,0.1-0.1c0,0,0.1,0,0.1,0.1v0.3h0.4
		c0,0,0.1,0,0.1,0.1s0,0.1-0.1,0.1h-0.4v0.8c0,0.2,0.1,0.2,0.2,0.2c0.1,0,0.1,0,0.1,0c0,0,0.1,0,0.1,0.1c0,0,0,0,0,0
		c0,0-0.1,0-0.2,0C42.5,68.1,42.3,68,42.3,67.8z"/>
	<path class="st129" d="M43.1,67.5L43.1,67.5c0-0.3,0.3-0.6,0.6-0.6c0.4,0,0.6,0.3,0.6,0.6v0c0,0.3-0.3,0.6-0.6,0.6
		C43.3,68.1,43.1,67.9,43.1,67.5z M44.2,67.5L44.2,67.5c0-0.3-0.2-0.5-0.5-0.5c-0.3,0-0.5,0.2-0.5,0.5v0c0,0.3,0.2,0.5,0.5,0.5
		C44,68,44.2,67.8,44.2,67.5z"/>
	<path class="st129" d="M45.4,67C45.4,66.9,45.4,66.9,45.4,67c0.1-0.1,0.1,0,0.1,0v0.2c0.1-0.1,0.2-0.2,0.4-0.2
		c0.2,0,0.3,0.1,0.4,0.3c0.1-0.1,0.2-0.3,0.4-0.3c0.3,0,0.5,0.2,0.5,0.5v0.7c0,0,0,0.1-0.1,0.1s-0.1,0-0.1-0.1v-0.7
		c0-0.3-0.1-0.4-0.4-0.4c-0.2,0-0.4,0.2-0.4,0.4v0.6c0,0,0,0.1-0.1,0.1c0,0-0.1,0-0.1-0.1v-0.7c0-0.2-0.1-0.4-0.3-0.4
		s-0.4,0.2-0.4,0.4v0.6c0,0,0,0.1-0.1,0.1s-0.1,0-0.1-0.1V67z"/>
	<path class="st129" d="M48.1,68.1c-0.3,0-0.6-0.3-0.6-0.6v0c0-0.3,0.2-0.6,0.6-0.6c0.3,0,0.5,0.3,0.5,0.6c0,0,0,0.1-0.1,0.1h-0.9
		c0,0.3,0.2,0.5,0.5,0.5c0.2,0,0.3-0.1,0.4-0.2c0,0,0,0,0,0c0,0,0.1,0,0.1,0.1c0,0,0,0,0,0C48.4,68.1,48.3,68.1,48.1,68.1z
		 M48.5,67.5c0-0.2-0.2-0.5-0.4-0.5c-0.2,0-0.4,0.2-0.4,0.5H48.5z"/>
	<path class="st129" d="M49.4,68.1c-0.3,0-0.6-0.3-0.6-0.6v0c0-0.3,0.2-0.6,0.6-0.6c0.3,0,0.5,0.3,0.5,0.6c0,0,0,0.1-0.1,0.1H49
		c0,0.3,0.2,0.5,0.5,0.5c0.2,0,0.3-0.1,0.4-0.2c0,0,0,0,0,0c0,0,0.1,0,0.1,0.1c0,0,0,0,0,0C49.8,68.1,49.7,68.1,49.4,68.1z
		 M49.9,67.5c0-0.2-0.2-0.5-0.4-0.5c-0.2,0-0.4,0.2-0.4,0.5H49.9z"/>
	<path class="st129" d="M50.4,67.8V67h-0.1c0,0-0.1,0-0.1-0.1s0-0.1,0.1-0.1h0.1v-0.3c0,0,0-0.1,0.1-0.1s0.1,0,0.1,0.1v0.3h0.4
		c0,0,0.1,0,0.1,0.1s0,0.1-0.1,0.1h-0.4v0.8c0,0.2,0.1,0.2,0.2,0.2c0.1,0,0.1,0,0.1,0c0,0,0.1,0,0.1,0.1c0,0,0,0,0,0
		c0,0-0.1,0-0.2,0C50.5,68.1,50.4,68,50.4,67.8z"/>
	<path class="st129" d="M25.9,71.3C25.9,71.3,25.9,71.2,25.9,71.3c0-0.1,0-0.1,0-0.1C25.9,71.2,25.9,71.2,25.9,71.3
		c0.1-0.1,0.1-0.1,0.2-0.1c0.1,0,0.2-0.1,0.3-0.3l0,0l-0.5-1.1c0,0,0,0,0,0c0,0,0-0.1,0.1-0.1c0,0,0,0,0.1,0l0.5,1l0.4-1
		c0,0,0,0,0.1,0c0,0,0.1,0,0.1,0.1c0,0,0,0,0,0L26.5,71c-0.1,0.3-0.2,0.3-0.4,0.3C26,71.3,26,71.3,25.9,71.3z"/>
	<path class="st129" d="M27.2,70.3L27.2,70.3c0-0.3,0.3-0.6,0.6-0.6c0.4,0,0.6,0.3,0.6,0.6v0c0,0.3-0.3,0.6-0.6,0.6
		C27.4,71,27.2,70.7,27.2,70.3z M28.3,70.3L28.3,70.3c0-0.3-0.2-0.5-0.5-0.5c-0.3,0-0.5,0.2-0.5,0.5v0c0,0.3,0.2,0.5,0.5,0.5
		C28.1,70.8,28.3,70.6,28.3,70.3z"/>
	<path class="st129" d="M29.8,70.9C29.8,70.9,29.7,70.9,29.8,70.9c-0.1,0.1-0.1,0-0.1,0v-0.2c-0.1,0.1-0.2,0.3-0.4,0.3
		c-0.3,0-0.5-0.2-0.5-0.5v-0.7c0,0,0-0.1,0.1-0.1c0,0,0.1,0,0.1,0.1v0.7c0,0.2,0.1,0.4,0.4,0.4c0.2,0,0.4-0.2,0.4-0.4v-0.6
		c0,0,0-0.1,0.1-0.1c0,0,0.1,0,0.1,0.1V70.9z"/>
	<path class="st129" d="M30.8,70.6L30.8,70.6c0-0.3,0.2-0.4,0.5-0.4c0.2,0,0.3,0,0.4,0.1v-0.1c0-0.2-0.1-0.4-0.4-0.4
		c-0.1,0-0.2,0-0.3,0.1c0,0,0,0,0,0c0,0-0.1,0-0.1-0.1c0,0,0,0,0-0.1c0.1-0.1,0.2-0.1,0.4-0.1c0.2,0,0.3,0,0.4,0.1
		c0.1,0.1,0.1,0.2,0.1,0.3v0.7c0,0,0,0.1-0.1,0.1c0,0-0.1,0-0.1-0.1v-0.1c-0.1,0.1-0.2,0.2-0.5,0.2C31,71,30.8,70.8,30.8,70.6z
		 M31.7,70.5v-0.1c-0.1,0-0.2-0.1-0.4-0.1c-0.3,0-0.4,0.1-0.4,0.3v0c0,0.2,0.2,0.3,0.3,0.3C31.5,70.8,31.7,70.7,31.7,70.5z"/>
	<path class="st129" d="M32.2,69.8C32.2,69.7,32.3,69.7,32.2,69.8c0.1-0.1,0.1,0,0.1,0V70c0.1-0.1,0.2-0.3,0.4-0.3
		c0.3,0,0.5,0.2,0.5,0.5v0.7c0,0,0,0.1-0.1,0.1c0,0-0.1,0-0.1-0.1v-0.7c0-0.2-0.1-0.4-0.4-0.4c-0.2,0-0.4,0.2-0.4,0.4v0.6
		c0,0,0,0.1-0.1,0.1c0,0-0.1,0-0.1-0.1V69.8z"/>
	<path class="st129" d="M34.8,70.9C34.8,70.9,34.8,70.9,34.8,70.9c-0.1,0.1-0.1,0-0.1,0v-0.2c-0.1,0.2-0.3,0.3-0.5,0.3
		c-0.3,0-0.6-0.2-0.6-0.6v0c0-0.4,0.3-0.6,0.6-0.6c0.2,0,0.4,0.1,0.5,0.3v-0.7c0,0,0-0.1,0.1-0.1c0,0,0.1,0,0.1,0.1V70.9z
		 M33.7,70.3L33.7,70.3c0,0.3,0.2,0.5,0.5,0.5c0.2,0,0.5-0.2,0.5-0.5v0c0-0.3-0.2-0.5-0.5-0.5C33.9,69.8,33.7,70,33.7,70.3z"/>
	<path class="st129" d="M35.9,69.8C35.9,69.7,35.9,69.7,35.9,69.8c0.1-0.1,0.1,0,0.1,0v0.2c0.1-0.1,0.2-0.2,0.4-0.2
		c0.2,0,0.3,0.1,0.4,0.3c0.1-0.1,0.2-0.3,0.4-0.3c0.3,0,0.5,0.2,0.5,0.5v0.7c0,0,0,0.1-0.1,0.1s-0.1,0-0.1-0.1v-0.7
		c0-0.3-0.1-0.4-0.4-0.4c-0.2,0-0.4,0.2-0.4,0.4v0.6c0,0,0,0.1-0.1,0.1c0,0-0.1,0-0.1-0.1v-0.7c0-0.2-0.1-0.4-0.3-0.4S36,70,36,70.2
		v0.6c0,0,0,0.1-0.1,0.1c0,0-0.1,0-0.1-0.1V69.8z"/>
	<path class="st129" d="M38,70.6L38,70.6c0-0.3,0.2-0.4,0.5-0.4c0.2,0,0.3,0,0.4,0.1v-0.1c0-0.2-0.1-0.4-0.4-0.4
		c-0.1,0-0.2,0-0.3,0.1c0,0,0,0,0,0c0,0-0.1,0-0.1-0.1c0,0,0,0,0-0.1c0.1-0.1,0.2-0.1,0.4-0.1c0.2,0,0.3,0,0.4,0.1
		c0.1,0.1,0.1,0.2,0.1,0.3v0.7c0,0,0,0.1-0.1,0.1c0,0-0.1,0-0.1-0.1v-0.1c-0.1,0.1-0.2,0.2-0.5,0.2C38.3,71,38,70.8,38,70.6z
		 M39,70.5v-0.1c-0.1,0-0.2-0.1-0.4-0.1c-0.3,0-0.4,0.1-0.4,0.3v0c0,0.2,0.2,0.3,0.3,0.3C38.8,70.8,39,70.7,39,70.5z"/>
	<path class="st129" d="M39.5,69.3C39.5,69.2,39.5,69.2,39.5,69.3c0.1-0.1,0.1,0,0.1,0v1.2l0.7-0.8c0,0,0,0,0,0c0,0,0.1,0,0.1,0.1
		c0,0,0,0,0,0L40,70.3l0.5,0.6c0,0,0,0,0,0c0,0,0,0.1-0.1,0.1c0,0,0,0,0,0l-0.5-0.6l-0.3,0.3v0.2c0,0,0,0.1-0.1,0.1s-0.1,0-0.1-0.1
		V69.3z"/>
	<path class="st129" d="M41.2,71c-0.3,0-0.6-0.3-0.6-0.6v0c0-0.3,0.2-0.6,0.6-0.6c0.3,0,0.5,0.3,0.5,0.6c0,0,0,0.1-0.1,0.1h-0.9
		c0,0.3,0.2,0.5,0.5,0.5c0.2,0,0.3-0.1,0.4-0.2c0,0,0,0,0,0c0,0,0.1,0,0.1,0.1c0,0,0,0,0,0C41.6,70.9,41.4,71,41.2,71z M41.6,70.3
		c0-0.2-0.2-0.5-0.4-0.5c-0.2,0-0.4,0.2-0.4,0.5H41.6z"/>
	<path class="st129" d="M42.7,71.3C42.7,71.3,42.7,71.2,42.7,71.3c0-0.1,0-0.1,0-0.1C42.8,71.2,42.8,71.2,42.7,71.3
		c0.1-0.1,0.1-0.1,0.2-0.1c0.1,0,0.2-0.1,0.3-0.3l0,0l-0.5-1.1c0,0,0,0,0,0c0,0,0-0.1,0.1-0.1s0,0,0.1,0l0.5,1l0.4-1c0,0,0,0,0.1,0
		c0,0,0.1,0,0.1,0.1c0,0,0,0,0,0L43.3,71c-0.1,0.3-0.2,0.3-0.4,0.3C42.9,71.3,42.8,71.3,42.7,71.3z"/>
	<path class="st129" d="M44,70.3L44,70.3c0-0.3,0.3-0.6,0.6-0.6c0.4,0,0.6,0.3,0.6,0.6v0c0,0.3-0.3,0.6-0.6,0.6
		C44.3,71,44,70.7,44,70.3z M45.1,70.3L45.1,70.3c0-0.3-0.2-0.5-0.5-0.5c-0.3,0-0.5,0.2-0.5,0.5v0c0,0.3,0.2,0.5,0.5,0.5
		C44.9,70.8,45.1,70.6,45.1,70.3z"/>
	<path class="st129" d="M46.6,70.9C46.6,70.9,46.6,70.9,46.6,70.9c-0.1,0.1-0.1,0-0.1,0v-0.2C46.4,70.8,46.3,71,46,71
		c-0.3,0-0.5-0.2-0.5-0.5v-0.7c0,0,0-0.1,0.1-0.1s0.1,0,0.1,0.1v0.7c0,0.2,0.1,0.4,0.4,0.4c0.2,0,0.4-0.2,0.4-0.4v-0.6
		c0,0,0-0.1,0.1-0.1c0,0,0.1,0,0.1,0.1V70.9z"/>
	<path class="st129" d="M47,69.8C47,69.7,47.1,69.7,47,69.8c0.1-0.1,0.1,0,0.1,0v0.3c0.1-0.2,0.3-0.4,0.5-0.4c0,0,0.1,0,0.1,0.1
		c0,0,0,0.1-0.1,0.1c-0.3,0-0.5,0.2-0.5,0.6v0.4c0,0,0,0.1-0.1,0.1s-0.1,0-0.1-0.1V69.8z"/>
	<path class="st129" d="M26,72.1C26,72,26,72,26,72.1c0.1-0.1,0.1,0,0.1,0v0.7c0.1-0.1,0.2-0.3,0.4-0.3c0.3,0,0.5,0.2,0.5,0.5v0.7
		c0,0,0,0.1-0.1,0.1c0,0-0.1,0-0.1-0.1V73c0-0.2-0.1-0.4-0.4-0.4c-0.2,0-0.4,0.2-0.4,0.4v0.6c0,0,0,0.1-0.1,0.1s-0.1,0-0.1-0.1V72.1
		z"/>
	<path class="st129" d="M27.3,73.1L27.3,73.1c0-0.3,0.3-0.6,0.6-0.6c0.4,0,0.6,0.3,0.6,0.6v0c0,0.3-0.3,0.6-0.6,0.6
		C27.6,73.8,27.3,73.5,27.3,73.1z M28.4,73.1L28.4,73.1c0-0.3-0.2-0.5-0.5-0.5c-0.3,0-0.5,0.2-0.5,0.5v0c0,0.3,0.2,0.5,0.5,0.5
		C28.2,73.6,28.4,73.4,28.4,73.1z"/>
	<path class="st129" d="M29.9,73.7C29.9,73.7,29.9,73.7,29.9,73.7c-0.1,0.1-0.1,0-0.1,0v-0.2c-0.1,0.1-0.2,0.3-0.4,0.3
		c-0.3,0-0.5-0.2-0.5-0.5v-0.7c0,0,0-0.1,0.1-0.1c0,0,0.1,0,0.1,0.1v0.7c0,0.2,0.1,0.4,0.4,0.4c0.2,0,0.4-0.2,0.4-0.4v-0.6
		c0,0,0-0.1,0.1-0.1s0.1,0,0.1,0.1V73.7z"/>
	<path class="st129" d="M30.2,73.6C30.2,73.6,30.2,73.6,30.2,73.6c0-0.1,0-0.1,0-0.1C30.3,73.5,30.3,73.5,30.2,73.6
		c0.2,0,0.3,0,0.5,0c0.2,0,0.3-0.1,0.3-0.2v0c0-0.1-0.1-0.2-0.3-0.2c-0.2-0.1-0.4-0.1-0.4-0.3v0c0-0.2,0.2-0.3,0.4-0.3
		c0.1,0,0.3,0,0.4,0.1c0,0,0,0,0,0.1c0,0,0,0.1-0.1,0.1c0,0,0,0,0,0c-0.1-0.1-0.2-0.1-0.3-0.1c-0.2,0-0.3,0.1-0.3,0.2v0
		c0,0.1,0.2,0.2,0.3,0.2c0.2,0.1,0.4,0.1,0.4,0.3v0c0,0.2-0.2,0.3-0.4,0.3C30.5,73.8,30.4,73.7,30.2,73.6z"/>
	<path class="st129" d="M32,73.8c-0.3,0-0.6-0.3-0.6-0.6v0c0-0.3,0.2-0.6,0.6-0.6c0.3,0,0.5,0.3,0.5,0.6c0,0,0,0.1-0.1,0.1h-0.9
		c0,0.3,0.2,0.5,0.5,0.5c0.2,0,0.3-0.1,0.4-0.2c0,0,0,0,0,0c0,0,0.1,0,0.1,0.1c0,0,0,0,0,0C32.3,73.7,32.2,73.8,32,73.8z M32.4,73.1
		c0-0.2-0.2-0.5-0.4-0.5c-0.2,0-0.4,0.2-0.4,0.5H32.4z"/>
	<path class="st129" d="M33.6,73.9C33.5,73.9,33.5,73.9,33.6,73.9c0-0.1,0-0.1,0-0.1C33.6,73.8,33.6,73.8,33.6,73.9
		c0.2,0,0.4,0.1,0.5,0.1c0.3,0,0.5-0.2,0.5-0.5v-0.2c-0.1,0.1-0.3,0.3-0.5,0.3c-0.3,0-0.6-0.2-0.6-0.6v0c0-0.3,0.3-0.6,0.6-0.6
		c0.2,0,0.4,0.1,0.5,0.3v-0.2c0,0,0-0.1,0.1-0.1c0,0,0.1,0,0.1,0.1v1c0,0.2-0.1,0.3-0.2,0.4c-0.1,0.1-0.3,0.2-0.4,0.2
		C33.9,74.1,33.7,74.1,33.6,73.9z M34.6,73.1L34.6,73.1c0-0.3-0.2-0.5-0.5-0.5c-0.3,0-0.5,0.2-0.5,0.5v0c0,0.3,0.2,0.5,0.5,0.5
		C34.3,73.5,34.6,73.3,34.6,73.1z"/>
	<path class="st129" d="M36.1,73.7C36.1,73.7,36.1,73.7,36.1,73.7c-0.1,0.1-0.1,0-0.1,0v-0.2c-0.1,0.1-0.2,0.3-0.4,0.3
		c-0.3,0-0.5-0.2-0.5-0.5v-0.7c0,0,0-0.1,0.1-0.1c0,0,0.1,0,0.1,0.1v0.7c0,0.2,0.1,0.4,0.4,0.4c0.2,0,0.4-0.2,0.4-0.4v-0.6
		c0,0,0-0.1,0.1-0.1c0,0,0.1,0,0.1,0.1V73.7z"/>
	<path class="st129" d="M37,73.8c-0.3,0-0.6-0.3-0.6-0.6v0c0-0.3,0.2-0.6,0.6-0.6c0.3,0,0.5,0.3,0.5,0.6c0,0,0,0.1-0.1,0.1h-0.9
		c0,0.3,0.2,0.5,0.5,0.5c0.2,0,0.3-0.1,0.4-0.2c0,0,0,0,0,0c0,0,0.1,0,0.1,0.1c0,0,0,0,0,0C37.4,73.7,37.2,73.8,37,73.8z M37.4,73.1
		c0-0.2-0.2-0.5-0.4-0.5c-0.2,0-0.4,0.2-0.4,0.5H37.4z"/>
	<path class="st129" d="M37.8,73.6C37.8,73.6,37.8,73.6,37.8,73.6c0-0.1,0-0.1,0-0.1C37.9,73.5,37.9,73.5,37.8,73.6
		c0.2,0,0.3,0,0.5,0c0.2,0,0.3-0.1,0.3-0.2v0c0-0.1-0.1-0.2-0.3-0.2c-0.2-0.1-0.4-0.1-0.4-0.3v0c0-0.2,0.2-0.3,0.4-0.3
		c0.1,0,0.3,0,0.4,0.1c0,0,0,0,0,0.1c0,0,0,0.1-0.1,0.1c0,0,0,0,0,0c-0.1-0.1-0.2-0.1-0.3-0.1c-0.2,0-0.3,0.1-0.3,0.2v0
		c0,0.1,0.2,0.2,0.3,0.2c0.2,0.1,0.4,0.1,0.4,0.3v0c0,0.2-0.2,0.3-0.4,0.3C38.1,73.8,37.9,73.7,37.8,73.6z"/>
	<path class="st129" d="M39.1,73.4v-0.8H39c0,0-0.1,0-0.1-0.1s0-0.1,0.1-0.1h0.1v-0.3c0,0,0-0.1,0.1-0.1s0.1,0,0.1,0.1v0.3h0.4
		c0,0,0.1,0,0.1,0.1s0,0.1-0.1,0.1h-0.4v0.8c0,0.2,0.1,0.2,0.2,0.2c0.1,0,0.1,0,0.1,0c0,0,0.1,0,0.1,0.1c0,0,0,0,0,0
		c0,0-0.1,0-0.2,0C39.2,73.8,39.1,73.6,39.1,73.4z"/>
	<path class="st129" d="M40.7,72.6C40.7,72.6,40.7,72.5,40.7,72.6c0.1-0.1,0.1,0,0.1,0v0.3c0.1-0.2,0.3-0.4,0.5-0.4
		c0,0,0.1,0,0.1,0.1c0,0,0,0.1-0.1,0.1c-0.3,0-0.5,0.2-0.5,0.6v0.4c0,0,0,0.1-0.1,0.1c0,0-0.1,0-0.1-0.1V72.6z"/>
	<path class="st129" d="M42,73.8c-0.3,0-0.6-0.3-0.6-0.6v0c0-0.3,0.2-0.6,0.6-0.6c0.3,0,0.5,0.3,0.5,0.6c0,0,0,0.1-0.1,0.1h-0.9
		c0,0.3,0.2,0.5,0.5,0.5c0.2,0,0.3-0.1,0.4-0.2c0,0,0,0,0,0c0,0,0.1,0,0.1,0.1c0,0,0,0,0,0C42.4,73.7,42.3,73.8,42,73.8z M42.5,73.1
		c0-0.2-0.2-0.5-0.4-0.5c-0.2,0-0.4,0.2-0.4,0.5H42.5z"/>
	<path class="st129" d="M42.8,73.4L42.8,73.4c0-0.3,0.2-0.4,0.5-0.4c0.2,0,0.3,0,0.4,0.1V73c0-0.2-0.1-0.4-0.4-0.4
		c-0.1,0-0.2,0-0.3,0.1c0,0,0,0,0,0c0,0-0.1,0-0.1-0.1c0,0,0,0,0-0.1c0.1-0.1,0.2-0.1,0.4-0.1c0.2,0,0.3,0,0.4,0.1
		c0.1,0.1,0.1,0.2,0.1,0.3v0.7c0,0,0,0.1-0.1,0.1c0,0-0.1,0-0.1-0.1v-0.1c-0.1,0.1-0.2,0.2-0.5,0.2C43,73.8,42.8,73.6,42.8,73.4z
		 M43.7,73.3v-0.1c-0.1,0-0.2-0.1-0.4-0.1c-0.3,0-0.4,0.1-0.4,0.3v0c0,0.2,0.2,0.3,0.3,0.3C43.5,73.6,43.7,73.5,43.7,73.3z"/>
	<path class="st129" d="M45.4,73.7C45.4,73.7,45.3,73.7,45.4,73.7c-0.1,0.1-0.1,0-0.1,0v-0.2c-0.1,0.2-0.3,0.3-0.5,0.3
		c-0.3,0-0.6-0.2-0.6-0.6v0c0-0.4,0.3-0.6,0.6-0.6c0.2,0,0.4,0.1,0.5,0.3v-0.7c0,0,0-0.1,0.1-0.1s0.1,0,0.1,0.1V73.7z M44.3,73.1
		L44.3,73.1c0,0.3,0.2,0.5,0.5,0.5c0.2,0,0.5-0.2,0.5-0.5v0c0-0.3-0.2-0.5-0.5-0.5C44.5,72.6,44.3,72.8,44.3,73.1z"/>
	<path class="st129" d="M45.7,74.1C45.7,74.1,45.7,74,45.7,74.1c0-0.1,0-0.1,0-0.1C45.8,74,45.8,74,45.7,74.1
		c0.1-0.1,0.1-0.1,0.2-0.1c0.1,0,0.2-0.1,0.3-0.3l0,0l-0.5-1.1c0,0,0,0,0,0c0,0,0-0.1,0.1-0.1s0,0,0.1,0l0.5,1l0.4-1c0,0,0,0,0.1,0
		c0,0,0.1,0,0.1,0.1c0,0,0,0,0,0l-0.5,1.2c-0.1,0.3-0.2,0.3-0.4,0.3C45.9,74.1,45.8,74.1,45.7,74.1z"/>
	<path class="st129" d="M47.2,73.5C47.3,73.5,47.3,73.6,47.2,73.5l0.1,0.1c0,0,0,0.1-0.1,0.1c0,0-0.1,0-0.1-0.1L47.2,73.5
		C47.2,73.6,47.2,73.5,47.2,73.5z M47.2,72.1C47.2,72.1,47.2,72.1,47.2,72.1L47.2,72.1c0.1-0.1,0.1,0,0.1,0l0,1.1c0,0,0,0,0,0
		c0,0,0,0,0,0L47.2,72.1z"/>
	<path class="st130" d="M149.3,68.9l-0.3,0.6c0,0-2.7,7.6-2.6,7.7s1.1,1.1,1.2,1.1c0.1,0,3.2-7.7,3.2-7.7l0.9-0.1l0.2-0.7l-2-1
		L149.3,68.9z"/>
	<path class="st130" d="M141.4,97.3c-0.3-0.1-0.6-0.2-1-0.3c-0.5-0.2-0.8-0.3-1.1-0.5c-0.8,2.2-2.4,5.1-2.4,5.1s0.8,1.9,0.2,4.1
		c-0.1,0.4-0.1,0.5-0.1,0.5l0,0l0,0l0,0c0,0,0.1-0.1,0.2-0.5c0.9-2.1,2.8-3,2.8-3S140.6,99.4,141.4,97.3z"/>
	<path class="st131" d="M150.6,69.6c0.8,0.3,1.2,0.4,1.4,0.3c0-0.1,0-0.1,0.1-0.2c0.5-1.6,0.5-2.9-0.3-3.2l-0.2-0.1
		c-0.8-0.3-1.7,0.7-2.3,2.3c0,0,0,0.1-0.1,0.1C149.4,69.1,149.8,69.3,150.6,69.6z"/>
	<path class="st131" d="M151.8,70.6c-0.2,0-0.6,0-1.5-0.3c0,0,0,0,0,0c0,0,0,0,0,0.1l-2.6,7.1c-0.1,0.2-0.3,0.3-0.5,0.2
		c-0.2-0.1-0.3-0.3-0.2-0.5l2.6-7.1c0,0,0-0.1,0-0.1c-0.3-0.2-0.5-0.3-0.6-0.4c-1.2,3.1-4.4,11.5-4.4,11.5s-0.2,0.3,1.4,0.9
		c1.7,0.6,1.7,0.2,1.7,0.2S150.7,73.8,151.8,70.6z"/>
	<path class="st131" d="M145.3,83.6c-1.1-0.4-1.4-0.6-1.4-0.8l-4.9,13.4c0.1,0.2,0.4,0.4,1.4,0.8c1,0.4,1.4,0.4,1.6,0.3l4.9-13.4
		C146.7,83.9,146.3,83.9,145.3,83.6z"/>
	<path class="st42" d="M153.6,100.8c5.7-10.2,1.2-19.3-0.5-22.1C144.5,80.6,137,77,137,77c1.7,4.3,7.5,6.5,7.5,6.5
		c-2.2,1-7.3-3.7-7.3-3.7c1.6,6.3,8.4,7.8,8.4,7.8c-2.3,0.5-7.3-2.8-7.3-2.8c1.6,4.5,9.5,6.9,9.5,6.9c-2.3,0.9-8.3-3.5-8.3-3.5
		s0.8,2.7,3.7,5.8c0,0-0.1,0-0.1,0c0.1,0.1,0.2,0.2,0.3,0.3c1.5,1.6,3.6,3.2,6.3,4.7c0,0,0,0,0,0
		C151.1,99.7,152.3,100.3,153.6,100.8z"/>
	
		<rect x="138.5" y="96.7" transform="matrix(0.9463 0.3232 -0.3232 0.9463 40.25 -39.3394)" class="st132" width="0.1" height="9.7"/>
	<path class="st96" d="M132.7,99.2c0.6-5.5,2.6-10.5,5.7-14.7c-8.4,1.1-18.6-1.5-29.1-13.1l-3.1,23.8l12.6,18.8
		c0,0,7.6,2.3,16.8,0.7C133.2,109.6,132.1,105.2,132.7,99.2z"/>
</g>
</svg>
