<?xml version="1.0" encoding="utf-8"?>
<!-- Generator: Adobe Illustrator 16.0.0, SVG Export Plug-In . SVG Version: 6.00 Build 0)  -->
<!DOCTYPE svg PUBLIC "-//W3C//DTD SVG 1.1//EN" "http://www.w3.org/Graphics/SVG/1.1/DTD/svg11.dtd">
<svg version="1.1" id="Layer_1" xmlns="http://www.w3.org/2000/svg" xmlns:xlink="http://www.w3.org/1999/xlink" x="0px" y="0px"
	 width="125px" height="125px" viewBox="0 0 125 125" enable-background="new 0 0 125 125" xml:space="preserve">
<g>
	<path fill="#2C2C2D" d="M73.357,115.423l-0.061,0.007c6.333-3.308,10.637-9.75,10.637-17.164c0-10.781-9.103-19.522-20.317-19.522
		c-11.225,0-20.325,8.739-20.325,19.522c0,7.414,4.3,13.856,10.636,17.164l-0.049-0.007c3.076,1.771,5.304,4.761,5.967,8.274
		c0.134-0.077,0.765-0.374,1.603,0.013v-6.039c0.71,0.073,1.432,0.113,2.165,0.113c0.729,0,1.451-0.04,2.166-0.113v6.039
		c0.848-0.387,1.482-0.079,1.602-0.007C68.047,120.184,70.273,117.193,73.357,115.423z"/>
	<path fill="#2C2C2D" d="M91.055,81.928c0-3.962,1.033-7.679,2.829-10.91c-5.86,1.438-13.312,0.467-21.725-6.963l-0.31,17.148
		l10.479,12.335c0,0,5.608,2.069,12.051,0.144C92.271,90.262,91.055,86.234,91.055,81.928z"/>
	<path fill="#CDCCCC" d="M63.613,93.441c-7.427,0-13.467-6.043-13.467-13.469c0-7.425,6.041-13.461,13.467-13.461
		c7.42,0,13.461,6.036,13.461,13.461C77.074,87.398,71.033,93.441,63.613,93.441z M63.613,66.712
		c-7.316,0-13.266,5.953-13.266,13.263c0,7.313,5.948,13.262,13.266,13.262c7.312,0,13.26-5.947,13.26-13.262
		C76.873,72.663,70.925,66.712,63.613,66.712z"/>
	<path fill="#BC242C" d="M54.268,57.987c-0.16,1.245-0.915,0.151-1.317,1.463c-1.12,3.659-2.802,9.907-6.67,13.625
		c0,0,3.548,13.856,17.295,13.856c13.742,0,17.301-13.856,17.301-13.856c-3.715-3.558-5.422-9.964-6.604-13.555
		c-0.491-1.5-1.291-0.379-1.465-1.766"/>
	<path fill="#2A2E35" d="M63.575,64.828c-13.488,0-24.424,12.212-24.424,27.279c0,9.295,4.168,17.496,10.519,22.428
		c12.826-4.926,13.906-18.794,13.906-18.794c1.931,12.89,9.806,17.416,13.766,18.901c6.434-4.916,10.66-13.172,10.66-22.535
		C88,77.04,77.066,64.828,63.575,64.828z"/>
	<path fill="#BC242C" d="M63.575,64.828c-13.488,0-24.424,12.212-24.424,27.279c0,9.295,4.168,17.496,10.519,22.428
		c12.826-4.926,13.906-18.794,13.906-18.794c1.931,12.89,9.806,17.416,13.766,18.901c6.434-4.916,10.66-13.172,10.66-22.535
		C88,77.04,77.066,64.828,63.575,64.828z"/>
	<path fill="none" stroke="#CDCCCC" stroke-width="0.5" stroke-miterlimit="10" d="M60.258,122.576"/>
	<g>
		<path fill="#444750" d="M64.958,63.193c0,0.648-0.521,1.174-1.17,1.174s-1.17-0.525-1.17-1.174c0-0.645,0.521-1.169,1.17-1.169
			C64.438,62.023,64.958,62.549,64.958,63.193z"/>
		<path fill="#DCDBDB" d="M64.063,63.193c0,0.156-0.123,0.275-0.274,0.275s-0.276-0.117-0.276-0.275c0-0.15,0.123-0.274,0.276-0.274
			C63.939,62.918,64.063,63.043,64.063,63.193z"/>
	</g>
	<g>
		<path fill="#444750" d="M64.958,69.863c0,0.643-0.521,1.169-1.17,1.169s-1.17-0.523-1.17-1.169c0-0.647,0.521-1.172,1.17-1.172
			C64.438,68.693,64.958,69.216,64.958,69.863z"/>
		<path fill="#DCDBDB" d="M64.063,69.863c0,0.148-0.123,0.271-0.274,0.271s-0.276-0.12-0.276-0.271c0-0.155,0.123-0.278,0.276-0.278
			C63.939,69.585,64.063,69.708,64.063,69.863z"/>
	</g>
	<path fill="#E7E7E7" d="M74.531,41.895c0.15-3.09-0.061-6.433-1.271-8.737c-0.623-1.793-2.67-2.902-4.738-3.583
		c0.92-0.021,1.709-0.014,1.709-0.014c-2.207-1.486-4.148-1.385-5.588-0.859c-0.445-0.064-0.803-0.102-1.027-0.127
		c1.027-0.592,2.18-0.998,2.18-0.998c-3.428-0.839-6.357,1.031-7.637,2.045c-2.019,0.684-3.984,1.782-4.601,3.535
		c-1.208,2.304-1.428,5.646-1.272,8.737c-0.141,2.903-0.018,5.104,0.615,7.27c1.724,4.072,0.907,7.131,0.053,10.285l10.663,18.793
		v0.064l10.659-18.788c-0.732-2.887-2.342-6.485-0.401-10.391C74.548,46.997,74.657,44.365,74.531,41.895z"/>
	<path fill="#FFFFFF" d="M58.506,39.933c0.034,0.969-0.995,1.784-2.292,1.833c-1.294,0.041-2.378-0.71-2.409-1.679
		c-0.033-0.968,0.994-1.794,2.289-1.834C57.395,38.211,58.475,38.961,58.506,39.933z"/>
	<path fill="#2B2C35" d="M57.226,39.811c0.082,0.596-0.33,1.145-0.932,1.23c-0.595,0.086-1.146-0.339-1.226-0.929
		c-0.083-0.6,0.327-1.143,0.927-1.229C56.592,38.804,57.142,39.216,57.226,39.811z"/>
	<path fill="#FFFFFF" d="M72.883,39.933c0.027,0.969-0.996,1.784-2.295,1.833c-1.298,0.041-2.372-0.71-2.402-1.679
		c-0.035-0.968,0.992-1.794,2.287-1.834C71.766,38.211,72.846,38.961,72.883,39.933z"/>
	<path fill="#2B2C35" d="M71.598,39.811c0.082,0.596-0.33,1.145-0.928,1.23c-0.594,0.086-1.146-0.339-1.232-0.929
		c-0.076-0.6,0.336-1.143,0.931-1.229C70.967,38.804,71.518,39.216,71.598,39.811z"/>
	<path fill="#2B2C35" d="M78.986,37.318c0,0,0.018-0.356-0.674-0.454c-0.688-0.098-1.223-0.575-7.676-0.42
		c-4.584,0.387-5.906,0.893-5.906,0.893s-0.256,0.076-0.6,0.108c-0.186,0.036-0.378,0.053-0.574,0.053
		c-0.217,0-0.423-0.02-0.621-0.061c-0.3-0.035-0.513-0.1-0.513-0.1s-1.325-0.506-5.908-0.893c-6.458-0.155-6.991,0.322-7.676,0.42
		c-0.69,0.098-0.676,0.454-0.676,0.454l0.007,0.444c-0.054,1.307,0.282,1.333,0.282,1.333c0.044,0.099,0.181,0.286,0.181,0.286
		c0.348,0.144,0.814,1.599,0.814,1.599c0.61,1.788,1.548,2.005,1.548,2.005c2.532,0.921,6.718,0.428,6.718,0.428
		s2.356-0.062,3.089-1.023c0.554-0.684,1.379-2.854,1.379-2.854s0.148-0.318,0.475-0.537c0.384-0.182,0.917-0.182,0.917-0.182
		s0.53,0,0.918,0.182c0.327,0.218,0.532,0.592,0.532,0.592s0.772,2.113,1.324,2.799c0.73,0.96,3.086,1.024,3.086,1.024
		s4.184,0.491,6.717-0.429c0,0,0.94-0.219,1.555-2.004c0,0,0.463-1.456,0.811-1.599c0,0,0.137-0.188,0.183-0.286
		c0,0,0.338-0.024,0.282-1.333L78.986,37.318z M61.345,39.828c-0.625,2.299-1.551,2.541-1.551,2.541
		c-3.574,1.127-7.37,0.368-7.37,0.368c-1.678-0.126-2.012-1.27-2.012-1.27c-0.583-1.229-0.728-3.405-0.728-3.405
		c0-1.017,2.426-1.008,2.426-1.008c5.833-0.347,8.628,0.594,8.628,0.594C61.967,38.083,61.345,39.828,61.345,39.828z M76.766,41.466
		c0,0-0.33,1.144-2.013,1.27c0,0-3.79,0.759-7.364-0.368c0,0-0.928-0.242-1.559-2.541c0,0-0.615-1.744,0.604-2.181
		c0,0,2.797-0.94,8.629-0.594c0,0,2.43-0.009,2.43,1.008C77.492,38.062,77.35,40.238,76.766,41.466z"/>
	<path fill="#444750" d="M63.396,42.358c-1.165,1.965-3.582,2.493-3.582,2.493c1.901,1.2,3.802,4.833,3.802,4.833
		s1.818-3.633,3.723-4.833C67.341,44.851,64.564,44.323,63.396,42.358z"/>
	<path fill="#BC242C" d="M52.951,59.451c0,0,2.526,1.54,10.349,1.54c7.685,0,10.974-1.47,10.974-1.47l0.375,10.343l-4.674,8.442
		l-8.989,1.557l-7.602-10.205L52.951,59.451z"/>
	<path fill="#FFFFFF" d="M53.481,56.607c0,0,3.417,1.819,10.33,1.819c6.318,0,9.803-2.33,9.803-2.33l0.716,2.749
		c0,0-3.942,2.458-10.528,2.458c-7.828,0-10.958-2.203-10.958-2.203L53.481,56.607z"/>
	<polygon fill="#FFFFFF" points="63.997,93.338 63.589,93.338 63.589,62.008 65.326,61.91 65.326,59.101 65.732,59.101 
		65.732,62.296 63.997,62.393 	"/>
	<path fill="#2C2C2D" d="M53.956,82.993c0,0-6.025,1.878-12.991-1.213c0,0-4.894,11.206,1.359,23.743c0,0,5.894,2.105,12.125,0.141
		C54.447,105.664,47.387,95.961,53.956,82.993z"/>
	<g>
		<path fill="#E7E7E7" d="M69.895,83.592c0,0-3.035,6.111-5.184,6.424c0,0,5.27-5.36,4.811-9.518c0,0-2.662,4.794-4.668,5.445
			c0,0,4.799-4.199,3.578-9.739c0,0-2.146,5.876-4.298,6.088c0,0,3.655-4.339,3.333-8.344c0,0-5.142,7-13.551,9.062
			c-1.804,3.227-2.832,6.947-2.832,10.907c0,4.308,1.217,8.331,3.321,11.749c3.895-1.162,8.096-3.779,11.533-9.193
			c0.006-0.008,0.015-0.017,0.018-0.029c1.6-2.387,2.576-4.571,3.162-6.442c0.044-0.112,0.086-0.229,0.13-0.344
			c0,0-0.017,0.02-0.043,0.06C70.32,85.977,69.895,83.592,69.895,83.592z"/>
	</g>
	<path fill="#E7E7E7" d="M65.784,63.852c0,0.354-0.292,0.65-0.652,0.65s-0.653-0.296-0.653-0.65c0-0.365,0.293-0.66,0.653-0.66
		C65.491,63.193,65.784,63.486,65.784,63.852z"/>
	<path fill="#E7E7E7" d="M64.057,60.604c0,0.359-0.291,0.652-0.652,0.652c-0.359,0-0.655-0.293-0.655-0.652
		c0-0.362,0.295-0.657,0.655-0.657C63.766,59.947,64.057,60.242,64.057,60.604z"/>
	<ellipse fill="#E7E7E7" cx="67.341" cy="60.603" rx="0.652" ry="0.652"/>
	<circle fill="#E7E7E7" cx="65.131" cy="67.688" r="0.656"/>
	<circle fill="#E7E7E7" cx="65.131" cy="71.526" r="0.654"/>
	<path fill="#E7E7E7" d="M65.784,75.365c0,0.367-0.292,0.654-0.652,0.654s-0.653-0.287-0.653-0.654c0-0.36,0.293-0.65,0.653-0.65
		C65.491,74.715,65.784,75.005,65.784,75.365z"/>
	<g>
		<g>
			<path fill="#212123" d="M96.436,29.133H95.27l-0.014,1.315c-0.281,0-0.631,0-0.678,0.001l-0.225,0.882h0.897v35.248h-0.53
				l-0.002,1.485l0.193,0.002l-0.006,5.488l-0.004,2.082c0,0-0.002,1.121,0.293,1.85c0.141,0.337,0.322,0.604,0.525,0.861
				c-0.205,0.614-0.707,0.361-1.166,0.773c-0.221,0.197-0.365,0.434-0.354,0.611c0.01,0.186,0.207,0.164,0.307-0.06
				c0.16-0.364,0.377-0.399,0.593-0.403c0.291-0.006,0.625,0.151,0.891,0.361c0.221,0.942,0.73,1.633,1.354,1.749
				c0.815,2.22,1.61,6.486,1.61,6.486s0.213,0.998-0.106,1.85c-0.313,0.856-0.591,1.117-0.591,1.117s-0.313,0.261-0.25,0.931
				c0.05,0.51,0,14.907,0,14.907s7.459,0,9.688,0c0,0-3.459-17.608-4.141-19.259l0.538-0.225l-0.415-1.092l-0.33,0.135
				c0.016-0.123,0.035-0.242,0.062-0.359c0.131-0.643,0.608-0.583,0.608-0.583s-0.004-0.005-0.009-0.006
				c0.14-0.009,0.28-0.04,0.407-0.097c0.477-0.199,0.783-0.656,0.783-1.162c0-0.17-0.03-0.334-0.104-0.486l-1.238-2.947
				c-0.147-0.361-0.438-0.588-0.59-0.736c-0.394-0.397,0.518-1.9-0.469-3.385c-0.785-1.188-1.972-1.441-2.583-1.492
				c-0.164-0.24-0.389-0.461-0.575-0.705c-0.297-0.381-0.459-0.557-0.453-1.467c0-0.91,0.004-4.67,0.004-4.67
				s0.012-0.227-0.195-0.418c-0.262-0.258-0.256-1.361-0.256-1.361l0,0V49.299c0,0,0.002-1.378-0.889-1.378L97.869,31.3
				c0.117-0.068,0.146-0.225,0.146-0.408c0-0.186-0.023-0.345-0.146-0.411v-1.036l-1.164-0.006v1.007h-0.274L96.436,29.133
				L96.436,29.133z M102.548,78.324c-0.05,2.056-1.487,1.964-2.31,1.748c-0.195-0.529-0.344-0.916-0.418-1.129l0.346,0.014
				c0.229,0.154,0.506,0.249,0.811,0.26c0.394,0.01,0.752-0.119,1.012-0.343c0.003-0.026,0-0.062-0.006-0.095
				c-0.244,0.121-0.541,0.176-0.85,0.143c-0.471-0.057-0.855-0.304-1.068-0.636l-0.405-0.009c-0.019-0.248-0.017-0.563,0.058-0.883
				c0.125-0.483,0.356-1.043,0.461-1.486C101.021,75.827,102.604,75.979,102.548,78.324z"/>
		</g>
		<path fill="#212123" d="M95.234,30.178c0,0,0-12.923,0-15.493c-0.018,0,2.135,1.138,2.135,13.948h-0.592
			c0,0-0.324-0.062-0.324,0.235v1.309"/>
	</g>
	<path fill="#E7E7E7" d="M93.884,71.016c0,0,3.087-0.884,4.771-3.33c1.089-1.58,0.875-2.399,0.229-2.819
		c-0.046-0.028-0.137-0.081-0.137-0.081v-2.284c0,0,0.18-0.028,0.218-0.044c1.762-0.616,5.271,0.058,5.1,4.075
		c-0.168,4.098-0.928,4.342-0.928,4.342s1.186-1.297,1.286-4.29c0.104-3.182-1.131-3.341-0.346-3.536
		c0.379-0.093,2.856,2.229,3.125,3.958c0.252,1.628-0.576,4.234-1.813,5.837c-2.189,2.854,1.866-0.727,2.153-4.753
		c0.028-0.416,1.312,4.76-0.071,8.178c-0.546,1.357-1.552,2.655-1.552,2.655c0.406-0.349,0.949-1.079,1.526-2.08
		c0.962-1.667,1.005-3.837,1.005-3.837s3.504,1.896-0.441,9.93c-3.551,7.228-14.032,10.855-14.032,10.855
		C86.436,82.475,93.884,71.016,93.884,71.016"/>
	<path fill="#212123" d="M107.699,106.951c0,0-3.459-17.605-4.143-19.256l0.539-0.229l-0.414-1.087l-0.33,0.137
		c0.014-0.125,0.035-0.246,0.061-0.361c0.133-0.646,0.611-0.58,0.611-0.58s-0.01-0.01-0.012-0.01
		c0.141-0.01,0.278-0.039,0.408-0.101c0.475-0.196,0.782-0.653,0.782-1.159c0-0.168-0.033-0.334-0.104-0.486l-1.238-2.949
		c-0.147-0.357-0.438-0.586-0.588-0.735c-0.396-0.396,0.516-1.897-0.47-3.385c-0.786-1.188-1.973-1.442-2.585-1.49
		c-0.164-0.237-0.388-0.461-0.572-0.706c-0.299-0.381-0.461-0.556-0.457-1.468c0-0.907,0.004-4.671,0.004-4.671
		s-0.068-0.957-0.273-1.148c0,0-1.361,1.662-1.833,2.059c-0.534,0.443-2.173,1.3-2.173,1.3l-0.004,3.208l-0.004,2.088
		c0,0-0.002,1.122,0.293,1.85c0.143,0.336,0.326,0.603,0.525,0.861c-0.203,0.614-0.705,0.359-1.164,0.771
		c-0.223,0.197-0.365,0.433-0.355,0.609c0.012,0.187,0.207,0.166,0.309-0.061c0.16-0.358,0.379-0.396,0.594-0.401
		c0.289-0.007,0.625,0.152,0.89,0.363c0.222,0.942,0.729,1.632,1.354,1.749c0.814,2.227,1.609,6.488,1.609,6.488
		s0.215,0.992-0.105,1.849c-0.313,0.858-0.59,1.115-0.59,1.115s-0.316,0.259-0.25,0.93c0.051,0.511,0,14.907,0,14.907
		S105.471,106.951,107.699,106.951z M99.723,77.672c0.125-0.484,0.354-1.042,0.459-1.484c0.842-0.082,2.424,0.071,2.366,2.418
		c-0.05,2.054-1.487,1.963-2.31,1.746c-0.195-0.531-0.344-0.916-0.418-1.127l0.346,0.018c0.229,0.152,0.506,0.244,0.811,0.252
		c0.394,0.013,0.752-0.117,1.012-0.336c0.003-0.033,0-0.064-0.006-0.102c-0.244,0.125-0.541,0.18-0.85,0.145
		c-0.471-0.055-0.855-0.303-1.068-0.633l-0.405-0.014C99.645,78.311,99.645,77.995,99.723,77.672z"/>
	<path fill="#212123" d="M95.234,30.457c0,0,0-12.924,0-15.492c-0.018,0,2.135,1.137,2.135,13.946h-0.592
		c0,0-0.324-0.061-0.324,0.236v1.31"/>
	<path fill="#E7E7E7" d="M98.287,62.701c-1.566,0.732-2.282,1.625-2.282,1.625s1.017,0.037,1.37,0.1
		c0.676,0.118,1.369,0.358,1.369,0.358v-2.283C98.746,62.501,98.4,62.648,98.287,62.701z"/>
	<g>
		<path fill="#2B2C35" d="M51.953,41.965c0,0-2.788-4.975-3.053-22.38c-0.11-7.325,0.509-8.647,0.509-8.647
			s2.339-9.105,13.122-9.105c12.87,0,13.565,10.194,13.735,11.446c1.527,11.139-0.709,28.178-0.709,28.178s-1.58-7.12-12.006-7.12
			C52.971,34.336,51.953,41.965,51.953,41.965z"/>
		<path fill="#2B2C35" d="M63.499,54.64c-6.736,0-12.216-6.732-12.216-15.011h0.915c0,7.773,5.069,14.097,11.301,14.097
			c6.228,0,11.296-6.323,11.296-14.097h0.916C75.711,47.908,70.232,54.64,63.499,54.64z"/>
	</g>
	<path fill="#E7E7E7" d="M67.684,92.08v-1.762c14.187,0,18.771-7.782,18.963-8.115c0,0,0.531,1.189,0.672,2.089
		c0.007,0.05-0.063,0.083-0.096,0.123C85.146,86.934,79.471,92.08,67.684,92.08z"/>
	<path fill="#E7E7E7" d="M46.44,106.374c-6.562-12.873-1.399-23.158-1.352-23.276l0.841,0.164
		c-0.045,0.112-4.604,10.812,1.729,23.24L46.44,106.374z"/>
	<path fill="#E7E7E7" d="M43.761,93.402c-0.729,0-1.323-0.594-1.323-1.322s0.594-1.322,1.323-1.322c0.731,0,1.323,0.596,1.323,1.322
		C45.083,92.809,44.492,93.402,43.761,93.402z M43.761,91.802c-0.155,0-0.28,0.12-0.28,0.278c0,0.156,0.125,0.283,0.28,0.283
		c0.154,0,0.281-0.127,0.281-0.283C44.042,91.925,43.916,91.802,43.761,91.802z"/>
	<path fill="#2C2C2D" d="M53.22,57.391c0,0,3.498,1.864,10.579,1.864c6.475,0,10.04-2.391,10.04-2.391l1.3,2.574
		c0,0-3.488,2.762-11.348,2.762c-9.577,0-11.863-2.379-11.863-2.379L53.22,57.391z"/>
	<g>
		<path fill="#2C2C2D" d="M65.047,124.549l0.09-0.053l-0.09-0.077v-1.553c0-0.195,0.159-0.354,0.355-0.354
			c0,0,0.488,0.416,1.354,0.416c0.864,0,1.265-0.416,1.498-0.416c0.043,0-0.008-0.201,0.208,0c1.331,1.244,4.303,1.496,4.303,1.496
			c0.164,0,0.272,0.264,0.121,0.443c-0.023,0.025-0.08,0.066-0.08,0.098l0.09,0.094c0,0.197-0.16,0.357-0.356,0.357h-7.138
			c-0.197,0-0.355-0.16-0.355-0.357V124.549z"/>
		<path fill="#2C2C2D" d="M62.138,124.643c0,0.197-0.16,0.357-0.356,0.357h-7.138c-0.196,0-0.355-0.16-0.355-0.357l0.089-0.094
			c0-0.031-0.057-0.072-0.08-0.098c-0.153-0.182-0.043-0.443,0.122-0.443c0,0,2.971-0.252,4.302-1.496c0.215-0.201,0.165,0,0.208,0
			c0.233,0,0.633,0.416,1.499,0.416c0.866,0,1.354-0.416,1.354-0.416c0.196,0,0.356,0.159,0.356,0.354v1.553l-0.089,0.077
			l0.089,0.053L62.138,124.643L62.138,124.643z"/>
	</g>
</g>
</svg>
