<?xml version="1.0" encoding="utf-8"?>
<!-- Generator: Adobe Illustrator 19.2.1, SVG Export Plug-In . SVG Version: 6.00 Build 0)  -->
<svg version="1.1" id="Layer_1" xmlns="http://www.w3.org/2000/svg" xmlns:xlink="http://www.w3.org/1999/xlink" x="0px" y="0px"
	 width="180px" height="180px" viewBox="0 0 180 180" style="enable-background:new 0 0 180 180;" xml:space="preserve">
<style type="text/css">
	.st0{fill:#729786;}
	.st1{fill:#F2CD8C;}
	.st2{fill:#6F523C;}
	.st3{fill:#FFFFFF;}
	.st4{fill:#F2E9E4;}
	.st5{fill:#E8BA88;}
	.st6{fill:#504F4F;}
	.st7{fill:#80B9A5;}
	.st8{fill:#FFC800;}
	.st9{fill:#4D4D4D;}
	.st10{fill:#FCB856;}
	.st11{fill:#E9676D;}
	.st12{fill:#F6ECC3;}
	.st13{fill:#A6A8AB;}
	.st14{fill:none;stroke:#E9676D;stroke-linecap:round;stroke-miterlimit:10;}
	.st15{fill:none;stroke:#FCB856;stroke-linecap:round;stroke-miterlimit:10;}
	.st16{fill:#E6E6E6;}
	.st17{fill:#424750;}
	.st18{fill:#2B2A34;}
	.st19{fill:#BFF7F5;}
	.st20{fill:#D3D3D3;}
	.st21{fill:#2B2C2D;}
	.st22{opacity:0.33;fill:#FFFFFF;}
	.st23{fill:#E1E2E3;}
	.st24{fill:#F9D88F;}
	.st25{fill:none;}
	.st26{fill:#444751;}
	.st27{fill:#D6D6D5;}
	.st28{fill-rule:evenodd;clip-rule:evenodd;fill:#F2BC86;}
	.st29{fill:#59473A;}
	.st30{fill:none;stroke:#F2C24E;stroke-miterlimit:10;}
	.st31{fill:none;stroke:#F2C24E;stroke-linecap:round;stroke-miterlimit:10;}
	.st32{fill-rule:evenodd;clip-rule:evenodd;fill:#504F4F;}
	.st33{fill:none;stroke:#4D4D4D;stroke-miterlimit:10;}
	.st34{fill:#F2BC86;}
	.st35{fill:#C1C0C0;}
	.st36{fill:#42474F;}
	.st37{fill:#E6E7E8;}
	.st38{fill:#3A3A3A;}
	.st39{fill:#2A2D35;}
	.st40{fill-rule:evenodd;clip-rule:evenodd;fill:#43474F;}
	.st41{fill-rule:evenodd;clip-rule:evenodd;fill:#DBDBDA;}
	.st42{fill:#F3E7A8;}
	.st43{fill:#57C4C7;}
	.st44{clip-path:url(#SVGID_2_);}
	.st45{clip-path:url(#SVGID_4_);fill:#E6E7E8;}
	.st46{clip-path:url(#SVGID_6_);}
	.st47{clip-path:url(#SVGID_8_);fill:#E6E7E8;}
	.st48{clip-path:url(#SVGID_10_);}
	.st49{clip-path:url(#SVGID_12_);fill:#E6E7E8;}
	.st50{clip-path:url(#SVGID_14_);}
	.st51{clip-path:url(#SVGID_16_);fill:#E6E7E8;}
	.st52{clip-path:url(#SVGID_18_);}
	.st53{clip-path:url(#SVGID_20_);fill:#E6E7E8;}
	.st54{clip-path:url(#SVGID_22_);}
	.st55{clip-path:url(#SVGID_24_);fill:#E6E7E8;}
	.st56{clip-path:url(#SVGID_26_);}
	.st57{clip-path:url(#SVGID_28_);fill:#E6E7E8;}
	.st58{clip-path:url(#SVGID_30_);}
	.st59{clip-path:url(#SVGID_32_);fill:#E6E7E8;}
	.st60{clip-path:url(#SVGID_34_);}
	.st61{clip-path:url(#SVGID_36_);fill:#E6E7E8;}
	.st62{clip-path:url(#SVGID_38_);}
	.st63{clip-path:url(#SVGID_40_);fill:#E6E7E8;}
	.st64{clip-path:url(#SVGID_42_);}
	.st65{clip-path:url(#SVGID_44_);fill:#E6E7E8;}
	.st66{clip-path:url(#SVGID_46_);}
	.st67{clip-path:url(#SVGID_48_);fill:#E6E7E8;}
	.st68{clip-path:url(#SVGID_50_);}
	.st69{clip-path:url(#SVGID_52_);fill:#E6E7E8;}
	.st70{clip-path:url(#SVGID_54_);}
	.st71{clip-path:url(#SVGID_56_);fill:#E6E7E8;}
	.st72{clip-path:url(#SVGID_58_);}
	.st73{clip-path:url(#SVGID_60_);fill:#E6E7E8;}
	.st74{clip-path:url(#SVGID_62_);}
	.st75{clip-path:url(#SVGID_64_);fill:#E6E7E8;}
	.st76{clip-path:url(#SVGID_66_);}
	.st77{clip-path:url(#SVGID_68_);fill:#E6E7E8;}
	.st78{clip-path:url(#SVGID_70_);}
	.st79{clip-path:url(#SVGID_72_);fill:#E6E7E8;}
	.st80{clip-path:url(#SVGID_74_);}
	.st81{clip-path:url(#SVGID_76_);fill:#E6E7E8;}
	.st82{clip-path:url(#SVGID_78_);}
	.st83{clip-path:url(#SVGID_80_);fill:#E6E7E8;}
	.st84{clip-path:url(#SVGID_82_);}
	.st85{clip-path:url(#SVGID_84_);fill:#E6E7E8;}
	.st86{clip-path:url(#SVGID_86_);}
	.st87{clip-path:url(#SVGID_88_);fill:#E6E7E8;}
	.st88{clip-path:url(#SVGID_90_);}
	.st89{clip-path:url(#SVGID_92_);fill:#E6E7E8;}
	.st90{clip-path:url(#SVGID_94_);}
	.st91{clip-path:url(#SVGID_96_);fill:#E6E7E8;}
	.st92{clip-path:url(#SVGID_98_);}
	.st93{clip-path:url(#SVGID_100_);fill:#E6E7E8;}
	.st94{clip-path:url(#SVGID_102_);}
	.st95{clip-path:url(#SVGID_104_);fill:#E6E7E8;}
	.st96{clip-path:url(#SVGID_106_);}
	.st97{clip-path:url(#SVGID_108_);fill:#E6E7E8;}
	.st98{clip-path:url(#SVGID_110_);}
	.st99{clip-path:url(#SVGID_112_);fill:#E6E7E8;}
	.st100{clip-path:url(#SVGID_114_);}
	.st101{clip-path:url(#SVGID_116_);fill:#E6E7E8;}
	.st102{clip-path:url(#SVGID_118_);}
	.st103{clip-path:url(#SVGID_120_);fill:#E6E7E8;}
	.st104{clip-path:url(#SVGID_122_);}
	.st105{clip-path:url(#SVGID_124_);fill:#E6E7E8;}
	.st106{clip-path:url(#SVGID_126_);}
	.st107{clip-path:url(#SVGID_128_);fill:#E6E7E8;}
	.st108{clip-path:url(#SVGID_130_);}
	.st109{clip-path:url(#SVGID_132_);fill:#E6E7E8;}
	.st110{clip-path:url(#SVGID_134_);}
	.st111{clip-path:url(#SVGID_136_);fill:#E6E7E8;}
	.st112{clip-path:url(#SVGID_138_);}
	.st113{clip-path:url(#SVGID_140_);fill:#E6E7E8;}
	.st114{clip-path:url(#SVGID_142_);}
	.st115{clip-path:url(#SVGID_144_);fill:#E6E7E8;}
	.st116{clip-path:url(#SVGID_146_);}
	.st117{clip-path:url(#SVGID_148_);fill:#E6E7E8;}
	.st118{clip-path:url(#SVGID_150_);}
	.st119{clip-path:url(#SVGID_152_);fill:#E6E7E8;}
	.st120{clip-path:url(#SVGID_154_);}
	.st121{clip-path:url(#SVGID_156_);fill:#E6E7E8;}
	.st122{clip-path:url(#SVGID_158_);}
	.st123{clip-path:url(#SVGID_160_);fill:#E6E7E8;}
	.st124{clip-path:url(#SVGID_162_);}
	.st125{clip-path:url(#SVGID_164_);fill:#E6E7E8;}
	.st126{clip-path:url(#SVGID_166_);}
	.st127{clip-path:url(#SVGID_168_);fill:#E6E7E8;}
	.st128{clip-path:url(#SVGID_170_);}
	.st129{clip-path:url(#SVGID_172_);fill:#E6E7E8;}
	.st130{clip-path:url(#SVGID_174_);}
	.st131{clip-path:url(#SVGID_176_);fill:#E6E7E8;}
	.st132{clip-path:url(#SVGID_178_);}
	.st133{clip-path:url(#SVGID_180_);fill:#E6E7E8;}
	.st134{clip-path:url(#SVGID_182_);}
	.st135{clip-path:url(#SVGID_184_);fill:#E6E7E8;}
	.st136{clip-path:url(#SVGID_186_);}
	.st137{clip-path:url(#SVGID_188_);fill:#E6E7E8;}
	.st138{clip-path:url(#SVGID_190_);}
	.st139{clip-path:url(#SVGID_192_);fill:#E6E7E8;}
	.st140{clip-path:url(#SVGID_194_);}
	.st141{clip-path:url(#SVGID_196_);fill:#E6E7E8;}
	.st142{clip-path:url(#SVGID_198_);}
	.st143{clip-path:url(#SVGID_200_);fill:#E6E7E8;}
	.st144{clip-path:url(#SVGID_202_);}
	.st145{clip-path:url(#SVGID_204_);fill:#E6E7E8;}
	.st146{clip-path:url(#SVGID_206_);}
	.st147{clip-path:url(#SVGID_208_);fill:#E6E7E8;}
	.st148{clip-path:url(#SVGID_210_);}
	.st149{clip-path:url(#SVGID_212_);fill:#E6E7E8;}
	.st150{clip-path:url(#SVGID_214_);}
	.st151{clip-path:url(#SVGID_216_);fill:#E6E7E8;}
	.st152{clip-path:url(#SVGID_218_);}
	.st153{clip-path:url(#SVGID_220_);fill:#E6E7E8;}
	.st154{clip-path:url(#SVGID_222_);}
	.st155{clip-path:url(#SVGID_224_);fill:#E6E7E8;}
	.st156{clip-path:url(#SVGID_226_);}
	.st157{clip-path:url(#SVGID_228_);fill:#E6E7E8;}
	.st158{clip-path:url(#SVGID_230_);}
	.st159{clip-path:url(#SVGID_232_);fill:#E6E7E8;}
	.st160{clip-path:url(#SVGID_234_);}
	.st161{clip-path:url(#SVGID_236_);fill:#E6E7E8;}
	.st162{clip-path:url(#SVGID_238_);}
	.st163{clip-path:url(#SVGID_240_);fill:#E6E7E8;}
	.st164{clip-path:url(#SVGID_242_);}
	.st165{clip-path:url(#SVGID_244_);fill:#E6E7E8;}
	.st166{clip-path:url(#SVGID_246_);}
	.st167{clip-path:url(#SVGID_248_);fill:#E6E7E8;}
	.st168{clip-path:url(#SVGID_250_);}
	.st169{clip-path:url(#SVGID_252_);fill:#E6E7E8;}
	.st170{clip-path:url(#SVGID_254_);}
	.st171{clip-path:url(#SVGID_256_);fill:#E6E7E8;}
	.st172{clip-path:url(#SVGID_258_);}
	.st173{clip-path:url(#SVGID_260_);fill:#E6E7E8;}
	.st174{fill-rule:evenodd;clip-rule:evenodd;fill:#42474F;}
	.st175{fill-rule:evenodd;clip-rule:evenodd;fill:#E6E7E8;}
	.st176{fill:#E5D9BE;}
	.st177{fill:#F7F1E2;}
	.st178{fill:#B5967D;}
	.st179{fill:#C7C6C6;}
	.st180{fill:#999999;}
	.st181{fill:#CCCCCC;}
	.st182{fill:#808080;}
	.st183{fill:#284D66;}
	.st184{fill:#725644;}
	.st185{fill:#8E6A51;}
	.st186{fill:#365D84;}
	.st187{fill:none;stroke:#C7C6C6;stroke-width:0.75651;stroke-miterlimit:10;}
	.st188{fill-rule:evenodd;clip-rule:evenodd;fill:#444751;}
	.st189{fill-rule:evenodd;clip-rule:evenodd;fill:#D6D6D5;}
	.st190{fill-rule:evenodd;clip-rule:evenodd;fill:#F2F2F2;}
	.st191{fill:#EA6A6D;}
	.st192{fill-rule:evenodd;clip-rule:evenodd;fill:#FFFFFF;}
	.st193{fill:none;stroke:#284D66;stroke-miterlimit:10;}
	.st194{fill:none;stroke:#365D84;stroke-miterlimit:10;}
	.st195{fill:#F2F2F2;}
	.st196{fill:#C7B299;}
	.st197{fill:none;stroke:#ABD4ED;stroke-miterlimit:10;}
	.st198{fill:none;stroke:#E6E6E6;stroke-linecap:round;stroke-linejoin:round;stroke-miterlimit:10;}
	.st199{fill:#BABABA;}
	.st200{fill:none;stroke:#CBCACA;stroke-width:3.45131;stroke-miterlimit:10;}
	.st201{opacity:0.2;fill:#FFFFFF;}
	.st202{fill:#F2C24E;}
	.st203{fill:#44C2CE;}
	.st204{fill:#9AC68F;}
	.st205{fill:#469595;}
	.st206{fill:#387D7B;}
	.st207{clip-path:url(#XMLID_2_);fill:#B4D6AA;}
	.st208{fill:#96D696;}
	.st209{clip-path:url(#XMLID_3_);fill:#A7DBA7;}
	.st210{clip-path:url(#XMLID_4_);fill:#B4D6AA;}
	.st211{fill:#755F54;}
	.st212{fill:#508CD3;}
	.st213{fill:#4668A3;}
	.st214{fill:#23B576;}
	.st215{fill:none;stroke:#755F54;stroke-width:2;stroke-miterlimit:10;}
	.st216{fill:#A2E0FC;}
	.st217{fill:#FFD62C;}
	.st218{fill:#A37666;}
	.st219{fill:#E28686;}
	.st220{fill:#D86464;}
	.st221{fill:#5ED38D;}
	.st222{fill:none;stroke:#A37666;stroke-width:2;stroke-miterlimit:10;}
	.st223{fill:#3D447A;}
	.st224{fill:#57C4C6;}
</style>
<g>
	<path class="st183" d="M101.96198,26.65268c0,8.02439-10.1965,14.52944-22.77451,14.52944s-22.77452-6.50505-22.77452-14.52944
		s10.1965-17.2323,22.77452-17.2323S101.96198,18.62829,101.96198,26.65268z"/>
	<path class="st184" d="M48.42827,161.48674H36.43607c-1.34903,0-2.44264-1.09361-2.44264-2.44264v-19.95848
		c0-1.34903,1.09361-2.44264,2.44264-2.44264h11.99221c1.34903,0,3.64071,3.11154,3.77788,4.45358
		c0.96972,9.4875-1.33524,17.94754-1.33524,17.94754C50.87091,160.39313,49.77731,161.48674,48.42827,161.48674z"/>
	<path class="st185" d="M47.17796,134.24127H35.92591c-1.7312,0-3.15747,1.35165-3.43161,3.00526l-0.00638,0.04027
		c0,0-1.29126,15.47775-3.71664,18.80142c-0.34471,0.47237-0.33419,1.1515,0.05469,1.58824
		c0.41698,0.46831,1.21029,0.71281,2.71561-0.18237c1.9951-1.18652,3.06081-9.1395,3.55282-14.12935
		c0.20967-2.12645,2.00169-3.73985,4.13845-3.73985h7.94511V134.24127z"/>
	<g>
		<path class="st185" d="M46.45191,138.41258c-0.79763,0.29921-1.60653,0.59399-2.42856,0.88335
			c-1.2017,0.4236-1.83335,1.74097-1.4105,2.94266c0.33422,0.94859,1.22499,1.54193,2.17658,1.54193
			c0.25386,0,0.51298-0.0428,0.76609-0.13142c1.02332-0.36023,2.02374-0.73018,3.01139-1.10529
			C47.79331,141.21724,47.08731,139.8389,46.45191,138.41258z"/>
	</g>
	<path class="st37" d="M43.07635,141.88396c0,0-2.7428-1.61188-3.9198-5.50801c0,0,2.29794,4.86372,6.98766,6.17154
		c0,0-3.57186-2.2122-3.72717-5.55887c0,0,1.99103,5.31651,7.06133,5.65251c0,0-3.73431-1.35059-4.48323-5.23132
		c0,0,2.82277,4.23175,6.35056,4.95195c0,0-13.63803-20.4791,13.36443-34.00439l1.81165-14.42159l-7.02084-12.43522
		c0,0-33.70459,6.95918-27.68524,44.70596C33.86047,139.01512,43.07635,141.88396,43.07635,141.88396"/>
	<path class="st183" d="M49.19068,123.32845c1.95118-5.07834,6.43283-10.41833,15.51945-14.97109l1.81145-14.42159
		l-7.02081-12.43522c0,0-29.17826,6.02436-28.38949,37.27515c0,0,5.37854-3.06959,10.85261-1.15909
		C47.43474,119.5217,49.19068,123.32845,49.19068,123.32845"/>
	<path class="st23" d="M151.21359,96.88636c-2.11728-5.2539-3.47606-2.6696-6.73232-2.08639c0,0,2.93341-4.51906-0.08574-3.42223
		c0,0,1.98123-5.94656-1.27681-5.50945c0,0,1.86589-8.8056-3.18233-4.82882c-8.99144,7.08308-25.18549,13.88605-45.71542-3.05884
		l1.50074,26.03095l15.46019,18.30132c0,0,22.23885,7.35069,35.40401-14.98431c0.00896-0.01248,0.01749-0.02807,0.02615-0.04053
		c2.3125-3.71278,3.68152-7.09068,4.48181-9.96639c0.05817-0.17403,0.11974-0.34099,0.18082-0.52137
		C151.2747,96.8003,151.25139,96.83169,151.21359,96.88636"/>
	<path class="st183" d="M123.39761,104.0104c0-6.01788,1.5638-11.66697,4.30309-16.57863
		c-8.90554,2.18195-20.23144,0.70648-33.00259-10.57631l-0.47712,26.05447l15.91795,19.10261c0,0,8.52731,3.13528,18.30983,0.2124
		C125.24651,117.03107,123.39761,110.55759,123.39761,104.0104z"/>
	<path class="st186" d="M64.14364,68.04002c-0.34972,0.54551-0.46442,1.24583-0.83551,2.55077
		c-1.58927,5.58882-4.25885,15.0518-10.13226,20.69916c0,0,5.39009,21.04414,26.27492,21.04414
		c20.88058,0,26.27613-21.04414,26.27613-21.04414c-5.63566-5.41379-8.48316-15.06313-10.02573-20.59294
		c-0.63931-2.29183-0.70659-2.52436-0.78225-2.78707"/>
	<g>
		<path class="st183" d="M94.22347,155.62016l-0.08649,0.00734c9.56819-5.02382,16.06406-14.81789,16.06406-26.07948
			c0-16.37588-13.74777-29.65706-30.69827-29.65706c-16.95281,0-30.69409,13.28118-30.69409,29.65706
			c0,11.2616,6.49394,21.05566,16.06174,26.07948l-0.07652-0.0058c4.65208,2.68353,8.02056,7.22478,9.01875,12.56491
			c0.20357-0.11198,1.15358-0.55833,2.41846,0.02345v-9.1745c1.07512,0.11005,2.16631,0.17157,3.27166,0.17157
			c1.1057,0,2.19805-0.06152,3.27545-0.17157v9.1745c1.28214-0.59103,2.23978-0.1239,2.42419-0.0173
			C86.19833,162.84648,89.56945,158.30524,94.22347,155.62016z"/>
		<path class="st183" d="M79.50483,78.7495c-20.37445,0-36.89148,18.55624-36.89148,41.44621
			c0,14.121,8.79256,25.49733,18.38943,32.97839c19.37203-7.47299,30.90837-2.09189,36.88697,0.16144
			c9.7193-7.46568,18.50661-18.91611,18.50661-33.13983C116.39636,97.30574,99.88008,78.7495,79.50483,78.7495z"/>
	</g>
	<g>
		<circle class="st188" cx="79.7748" cy="76.27293" r="1.7795"/>
		<circle class="st189" cx="79.77354" cy="76.27335" r="0.41769"/>
	</g>
	<g>
		<circle class="st188" cx="79.7748" cy="86.40178" r="1.77897"/>
		<circle class="st189" cx="79.77354" cy="86.40139" r="0.41751"/>
	</g>
	<path class="st21" d="M81.49566,169.94504l0.12501-0.07416l-0.12501-0.10715v-2.18391c0-0.27472,0.22526-0.49997,0.50136-0.49997
		c0,0,0.68676,0.58513,1.90508,0.58513c1.21835,0,1.78011-0.58513,2.10702-0.58513c0.06181,0-0.00823-0.28296,0.29396,0
		c1.87213,1.74989,6.04906,2.10426,6.04906,2.10426c0.23352,0,0.38735,0.37086,0.1717,0.62358
		c-0.03298,0.03572-0.11125,0.0934-0.11125,0.13734l0.1236,0.13187c0,0.27747-0.22388,0.50272-0.49857,0.50272H81.99702
		c-0.2761,0-0.50136-0.22525-0.50136-0.50272V169.94504z"/>
	<path class="st21" d="M77.40526,170.0769c0,0.27747-0.22525,0.50272-0.49998,0.50272H66.86331
		c-0.27332,0-0.4986-0.22525-0.4986-0.50272l0.125-0.13187c0-0.04395-0.08105-0.10162-0.11124-0.13597
		c-0.21703-0.25409-0.06183-0.62495,0.17032-0.62495c0,0,4.17968-0.35437,6.05044-2.10426c0.30357-0.28296,0.23215,0,0.29393,0
		c0.32828,0,0.8887,0.58513,2.10564,0.58513c1.21973,0,1.90649-0.58513,1.90649-0.58513c0.27473,0,0.49998,0.22525,0.49998,0.50134
		v2.18254l-0.125,0.10852l0.125,0.07278V170.0769z"/>
	<path class="st29" d="M114.46033,128.90485c-10.77686,5.38916-21.337,7.54048-30.85959,7.90137
		c-4.1499,0.17978-4.34916,0.17235-7.54748-0.07693c-18.61477-1.06459-31.70407-8.2379-31.74355-8.25954
		c-1.09963-0.7135-1.2447-0.46796,0,3.07635c0.03948,0.02164,13.12877,7.19495,31.74355,8.25954
		c3.15944,0.38361,3.39758,0.25671,7.54748,0.07693c9.52259-0.36089,20.08273-2.51221,30.85959-7.90137
		C115.83857,128.14731,115.87095,128.09961,114.46033,128.90485z"/>
	<g>
		<path class="st30" d="M76.2962,137.6673v1.44093c0,0.53242,0.43855,0.96034,0.97081,0.94727l4.44846-0.10925
			c0.5141-0.01262,0.92429-0.43301,0.92429-0.94727v-1.40845c0-0.52971-0.43427-0.95654-0.9639-0.9474l-4.44846,0.07675
			C76.71053,136.72881,76.2962,137.15034,76.2962,137.6673z"/>
		<line class="st31" x1="82.63975" y1="138.27742" x2="80.1043" y2="138.27742"/>
	</g>
	<path class="st186" d="M79.50124,78.86529c-20.38415,0-36.90545,18.45874-36.90545,41.22986
		c0,14.04446,6.29293,26.44408,15.8956,33.88679c19.56782,6.89928,21.00985-8.41103,21.00985-8.41103
		c2.84816,15.16032,17.24493,10.19652,20.80584,8.57916c9.72121-7.42862,16.10685-19.90485,16.10685-34.05492
		C116.41393,97.32403,99.887,78.86529,79.50124,78.86529z"/>
	<path class="st23" d="M96.09523,43.91474c0.23357-4.69312-0.09502-9.77079-1.93468-13.26967
		c-0.95009-2.72394-4.05418-4.41121-7.20367-5.44033c1.40562-0.03503,2.60042-0.02503,2.60042-0.02503
		c-3.35726-2.2589-6.30131-2.10478-8.48615-1.30748c-0.67837-0.0947-1.22246-0.15256-1.57032-0.187
		c1.56609-0.89812,3.31149-1.5155,3.31149-1.5155c-5.20466-1.27269-9.65398,1.56355-11.59369,3.10448
		c-3.07061,1.03852-6.0589,2.71084-6.98817,5.37086c-1.84159,3.49888-2.16942,8.57655-1.93622,13.26967
		c-0.2159,4.41349-0.03003,7.75962,0.9304,11.04788c2.31924,5.47176,1.61367,9.73925,0.52272,13.97511
		c0,0-0.29018,1.10086-0.43924,1.65307l16.19462,28.53944v0.10411l16.28168-28.18019
		c-0.14552-0.57428-0.39716-1.52411-0.57335-2.13385c-1.17026-4.0498-2.68436-8.85206-0.12088-14.01041
		C96.11296,51.66841,96.28188,47.66985,96.09523,43.91474z"/>
	<path class="st3" d="M71.74696,40.93204c0.04885,1.47873-1.51337,2.71854-3.48428,2.7897
		c-1.96586,0.0637-3.60893-1.07183-3.65474-2.55249c-0.05271-1.47106,1.50763-2.72028,3.47735-2.78569
		C70.05579,38.31952,71.69501,39.45925,71.74696,40.93204z"/>
	<path class="st18" d="M69.80105,40.75039c0.12315,0.90545-0.50213,1.73946-1.40945,1.86722
		c-0.90543,0.12946-1.74467-0.51602-1.8666-1.41159c-0.12585-0.90564,0.50406-1.736,1.40946-1.86702
		C68.84141,39.21934,69.67565,39.84863,69.80105,40.75039z"/>
	<path class="st3" d="M93.58486,40.93204c0.04849,1.47873-1.51105,2.71854-3.48424,2.7897
		c-1.97012,0.0637-3.60666-1.07183-3.6555-2.55249c-0.04809-1.47106,1.50646-2.72028,3.47811-2.78569
		C91.89182,38.31952,93.53254,39.45925,93.58486,40.93204z"/>
	<path class="st18" d="M91.6371,40.75039c0.12312,0.90545-0.50216,1.73946-1.40988,1.86722
		c-0.9031,0.12946-1.74078-0.51602-1.86472-1.41159c-0.11965-0.90564,0.50216-1.736,1.41144-1.86702
		C90.67973,39.21934,91.51741,39.84863,91.6371,40.75039z"/>
	<path class="st17" d="M79.17914,44.62523c-1.76734,2.97903-5.44553,3.78594-5.44553,3.78594
		c2.89055,1.81676,5.77723,7.34063,5.77723,7.34063s2.76472-5.52386,5.65488-7.34063
		C85.16572,48.41117,80.94725,47.60426,79.17914,44.62523z"/>
	<path class="st18" d="M102.21182,37.20207c0,0,0.02505-0.52077-0.98492-0.66642c-1.0142-0.14682-1.79221-0.84563-11.25837-0.61867
		c-6.71757,0.57128-8.65504,1.31594-8.65504,1.31594s-0.37341,0.1104-0.88009,0.15547
		c-0.27013,0.04893-0.55222,0.07686-0.84196,0.07686c-0.3129,0-0.61674-0.02967-0.90479-0.08957
		c-0.44469-0.05047-0.75527-0.14276-0.75527-0.14276s-1.94325-0.74466-8.65755-1.31594
		c-9.46809-0.22696-10.24763,0.47184-11.25623,0.61867c-1.01424,0.14565-0.98879,0.66642-0.98879,0.66642l0.00868,0.64949
		c-0.08171,1.91764,0.41384,1.94846,0.41384,1.94846c0.06704,0.14837,0.26433,0.42292,0.26433,0.42292
		c0.51462,0.21272,1.19437,2.34304,1.19437,2.34304c0.89571,2.61799,2.2706,2.94013,2.2706,2.94013
		c3.71809,1.34944,9.84999,0.63272,9.84999,0.63272s3.44854-0.0979,4.52576-1.50783
		c0.81131-1.00071,2.02146-4.17841,2.02146-4.17841s0.21986-0.47339,0.69999-0.79107
		c0.56201-0.26706,1.34329-0.27147,1.34329-0.27147s0.7795,0.00442,1.34174,0.27147c0.47935,0.31768,0.7803,0.86659,0.7803,0.86659
		s1.13096,3.10218,1.94092,4.10289c1.07549,1.40993,4.52348,1.50783,4.52348,1.50783s6.13686,0.71672,9.84958-0.63272
		c0,0,1.37757-0.32214,2.27119-2.94013c0,0,0.6805-2.13033,1.19607-2.34304c0,0,0.19536-0.27455,0.26472-0.42292
		c0,0,0.4971-0.03082,0.41349-1.94846L102.21182,37.20207z M76.35343,40.88244c-0.92365,3.36766-2.28216,3.72042-2.28216,3.72042
		c-5.235,1.65078-10.80096,0.53908-10.80096,0.53908c-2.45866-0.18186-2.94436-1.85616-2.94436-1.85616
		c-0.85759-1.80724-1.06893-4.99339-1.06893-4.99339c0-1.492,3.56184-1.48103,3.56184-1.48103
		c8.54833-0.50653,12.646,0.87203,12.646,0.87203C77.26224,38.32032,76.35343,40.88244,76.35343,40.88244 M98.95729,43.28577
		c0,0-0.48669,1.6743-2.94747,1.85616c0,0-5.56657,1.11171-10.79789-0.53908c0,0-1.35792-0.35276-2.28583-3.72042
		c0,0-0.90592-2.56212,0.89283-3.19905c0,0,4.0946-1.37856,12.64174-0.87203c0,0,3.56476-0.01097,3.56476,1.48103
		C100.02543,38.29239,99.81236,41.47854,98.95729,43.28577"/>
	<path class="st190" d="M77.84638,81.63825l1.76528,14.6376v9.03632c0,0-6.73313-8.60856-9.131-14.44013
		c-1.96691-4.79266-7.36006-18.8849-7.36006-18.8849s5.20006,5.0872,7.32175,6.48264
		C71.99767,79.48953,77.84638,81.63825,77.84638,81.63825z"/>
	<path class="st190" d="M81.32059,81.51646l-1.771,14.63869v9.03648c0,0,6.73599-8.60575,9.13344-14.44132
		c1.97015-4.79147,7.36288-18.88892,7.36288-18.88892s-5.20045,5.09361-7.32779,6.48503
		C87.16728,79.36355,81.32059,81.51646,81.32059,81.51646z"/>
	<path class="st191" d="M78.90148,87.36497l-3.73323-3.73323c-0.69524-0.69524-0.20284-1.884,0.78038-1.884h7.46645
		c0.98322,0,1.47562,1.18875,0.78038,1.884l-3.73323,3.73323C80.03124,87.79596,79.33247,87.79596,78.90148,87.36497z"/>
	<path class="st192" d="M63.12061,69.90071c0,0,1.89674,3.44059,6.1809,6.50343c4.99848,3.56491,8.54488,5.23412,8.54488,5.23412
		s-2.32529,1.26743-3.16586,4.42318c-0.33942,1.26907-0.14754,4.16621-0.14754,4.16621s-8.19293-8.66238-11.41236-18.24049
		C62.95008,71.49153,63.12061,69.90071,63.12061,69.90071z"/>
	<path class="st192" d="M96.04591,69.77618c0,0-1.89957,3.44295-6.1841,6.50295c-5.00088,3.57057-8.54122,5.23734-8.54122,5.23734
		s2.32046,1.26848,3.16379,4.42041c0.34066,1.27148,0.14677,4.16904,0.14677,4.16904s8.1885-8.66238,11.41477-18.24451
		C96.21444,71.37239,96.04591,69.77618,96.04591,69.77618z"/>
	<path class="st191" d="M82.67381,106l-2.25845-18.95405c-0.092-0.75698-1.18968-0.58501-1.28168,0.17196L76.87486,106H82.67381z"/>
	<path class="st183" d="M63.12061,71.43083l1.30536,8.63416l-3.60042,3.76005c0,0,2.38899,5.94747,6.81461,12.70665
		c5.56411,8.49466,11.96668,12.84371,11.96668,12.84371v-4.06322c0,0-4.71264-6.44234-7.30118-11.91893
		C64.11999,76.0546,63.12061,71.43083,63.12061,71.43083z"/>
	<path class="st183" d="M96.04591,71.30624l-1.30818,8.63681l3.59801,3.76264c0,0-2.38175,5.94646-6.81339,12.70546
		c-5.55762,8.49487-11.96709,12.84008-11.96709,12.84008v-4.0596c0,0,4.71548-6.44612,7.29998-11.92054
		C95.04858,75.92862,96.04591,71.30624,96.04591,71.30624z"/>
	<line class="st193" x1="79.60684" y1="107.89785" x2="79.60684" y2="147.72986"/>
	<g>
		<path class="st183" d="M67.15888,126.89346H53.27526c-1.32788,0-2.40435-1.07647-2.40435-2.40435v-15.52223
			c0-0.4229,0.34283-0.76574,0.76574-0.76574h17.16084c0.4229,0,0.76574,0.34283,0.76574,0.76574v15.52223
			C69.56323,125.81699,68.48677,126.89346,67.15888,126.89346z"/>
		<path class="st194" d="M50.53971,111.28597l8.41674,4.74815c0.76588,0.43205,1.70518,0.4177,2.45751-0.03754l8.48046-5.1317"/>
		<circle class="st181" cx="60.21707" cy="113.60662" r="0.79658"/>
	</g>
	<g>
		<path class="st183" d="M106.08846,126.89346H92.20483c-1.32789,0-2.40435-1.07647-2.40435-2.40435v-15.52223
			c0-0.4229,0.34283-0.76574,0.76574-0.76574h17.16084c0.4229,0,0.76574,0.34283,0.76574,0.76574v15.52223
			C108.49281,125.81699,107.41634,126.89346,106.08846,126.89346z"/>
		<path class="st194" d="M89.46928,111.28597l8.41675,4.74815c0.76588,0.43205,1.70518,0.4177,2.4575-0.03754l8.48046-5.1317"/>
		<circle class="st181" cx="99.14664" cy="113.60662" r="0.79658"/>
	</g>
	<path class="st185" d="M48.56691,142.54376c26.46672-10.05153,40.19314-25.2606,47.08903-36.44708
		c7.82082-12.68809,8.81523-22.94723,8.85429-23.37759c0.11341-1.26742-0.82092-2.38499-2.08796-2.50104
		c-1.27305-0.1198-2.38913,0.81828-2.5078,2.08495c-0.00902,0.09651-0.98915,9.79687-8.32629,21.59757
		c-6.56805,10.56295-19.69476,24.97012-45.13589,34.51196C47.08731,139.83885,47.79331,141.21719,48.56691,142.54376z"/>
	<g>
		<g>
			
				<rect x="106.99467" y="74.94434" transform="matrix(-0.5018 -0.86499 0.86499 -0.5018 111.86169 232.01636)" class="st195" width="31.50634" height="17.69893"/>
		</g>
		
			<rect x="110.53629" y="72.3581" transform="matrix(-0.5018 -0.86499 0.86499 -0.5018 104.19939 211.26794)" class="st3" width="4.81038" height="6.53625"/>
		
			<rect x="111.38547" y="73.28288" transform="matrix(-0.5018 -0.86499 0.86499 -0.5018 104.19939 211.26794)" class="st196" width="3.11201" height="4.68669"/>
		<line class="st197" x1="127.03071" y1="88.54541" x2="121.02753" y2="78.19724"/>
		<line class="st197" x1="128.64427" y1="87.60935" x2="122.6411" y2="77.26118"/>
		<line class="st197" x1="130.25784" y1="86.67329" x2="124.25466" y2="76.32512"/>
	</g>
	<g>
		<g>
			
				<rect x="118.02925" y="73.94851" transform="matrix(0.15735 -0.98754 0.98754 0.15735 30.96568 201.886)" class="st195" width="31.50634" height="17.69893"/>
			<path class="st16" d="M122.37856,96.86676l0.82612,0.13163c0.60939,0.09709,1.22373-0.14236,1.60667-0.62624l9.98417-12.61594
				c0.38246-0.48328,0.48564-1.13087,0.27231-1.70908l-5.56912-15.09406c-0.21359-0.57893-0.7231-0.99744-1.33249-1.09454
				l-0.82613-0.13162L122.37856,96.86676z"/>
		</g>
		<line class="st198" x1="139.68575" y1="99.07589" x2="132.25444" y2="85.10705"/>
		<line class="st198" x1="144.46422" y1="69.14907" x2="133.0477" y2="80.12839"/>
	</g>
	<path class="st199" d="M151.31085,96.3345c1.31622-9.72183-5.54805-15.39409-7.88638-17.02034
		c-6.62343,4.21486-14.21713,3.79818-14.21713,3.79818c2.87328,2.77595,8.50597,2.71127,8.50597,2.71127
		c-1.51692,1.51208-7.38332-0.54592-7.38332-0.54592c3.48132,4.42979,9.73148,3.39626,9.73148,3.39626
		c-1.76607,1.12405-7.12079,0.14833-7.12079,0.14833c2.89658,2.97046,10.33194,2.30705,10.33194,2.30705
		c-1.59332,1.45626-8.19696-0.07143-8.19696-0.07143s1.55586,1.83595,5.12628,3.3336
		c-0.04042-0.00287-0.06586-0.00581-0.06586-0.00581c0.11371,0.04306,0.22581,0.0791,0.33855,0.11659
		c1.80827,0.72748,4.09973,1.36138,6.94069,1.63722c0.01048,0.0045,0.02109,0.00251,0.03035,0.0051
		C148.81102,96.31193,150.09729,96.36863,151.31085,96.3345z"/>
	<path class="st18" d="M94.73765,32.15752c-4.98047,5.78096-25.78201,5.34311-31.10038,0l9.36148-3.32781l19.31467,1.81038
		L94.73765,32.15752z"/>
	<path class="st186" d="M63.63727,32.12877v-9.33763c0-0.51951,0.53408-0.94103,1.19609-0.94103
		c0,0,6.71957-1.52138,13.91368-1.52138c8.89594,0,14.79411,1.52138,14.79411,1.52138c0.65918,0,1.1965,0.42152,1.1965,0.94103
		v9.33763H63.63727z"/>
	<rect x="63.63727" y="31.07364" class="st183" width="31.10037" height="1.09615"/>
	<ellipse class="st196" cx="79.18746" cy="26.22875" rx="2.60096" ry="2.00171"/>
</g>
</svg>
