<svg xmlns="http://www.w3.org/2000/svg" xmlns:xlink="http://www.w3.org/1999/xlink" viewBox="0 0 232.35 198.67"><defs><style>.cls-1,.cls-11,.cls-6{fill:none;}.cls-2{fill:#e3e3e3;}.cls-3{fill:#676767;}.cls-4{fill:#d6573d;}.cls-5{fill:#5a5f64;}.cls-6{stroke:#c9c6c6;stroke-width:0.61px;}.cls-11,.cls-6{stroke-miterlimit:10;}.cls-7{fill:#e3e2e2;}.cls-8{fill:#464852;}.cls-9{fill:#d9d8d5;}.cls-10{fill:#efe0a7;}.cls-11{stroke:#efe0a7;stroke-width:0.31px;}.cls-12{fill:#2c2c36;}.cls-13{fill:#2b2f36;}.cls-14{fill:#fff;}.cls-15{fill:#444952;}.cls-16{fill:#59c2c5;}.cls-17{clip-path:url(#clip-path);}.cls-18{clip-path:url(#clip-path-2);}.cls-19{clip-path:url(#clip-path-3);}.cls-20,.cls-23{fill:#4dc0b3;}.cls-20,.cls-21,.cls-22{fill-rule:evenodd;}.cls-21{fill:#1aaea1;}.cls-22{fill:#118d71;}.cls-24{fill:#70523c;}.cls-25{fill:#525151;}.cls-26{fill:#febb12;}.cls-27{fill:#2d2c2d;}.cls-28{fill:#c9c9c9;}.cls-29{fill:#424244;}</style><clipPath id="clip-path"><path class="cls-1" d="M90.39,45a1.5,1.5,0,0,0,0-.26h0a1.77,1.77,0,0,0-.12-.41l-3.75-5A1.73,1.73,0,0,0,84.14,39L78.38,42.9a2.58,2.58,0,0,0-3.09,0L69.47,39a1.72,1.72,0,0,0-2.35.36l-3.75,5a1.73,1.73,0,0,0-.12.41h0a1.35,1.35,0,0,0,0,.26h0a1.36,1.36,0,0,0,0,.26h0a1.67,1.67,0,0,0,.12.41l3.75,5a1.72,1.72,0,0,0,2.35.37l5.82-3.95h0a2.57,2.57,0,0,0,3.09,0L84.14,51a1.73,1.73,0,0,0,2.35-.37l3.75-5a1.72,1.72,0,0,0,.12-.41h0a1.5,1.5,0,0,0,0-.26h0Z"/></clipPath><clipPath id="clip-path-2"><rect class="cls-1" x="-5.55" y="-5.4" width="161.47" height="161.47"/></clipPath><clipPath id="clip-path-3"><path class="cls-1" d="M76.93,57.52c-20.63,0-37.37,18.76-37.37,41.89,0,14.27,6.37,26.87,16.1,34.43,13.74,9.6,32.61,6,42.34.17,9.84-7.55,16.31-20.23,16.31-34.6C114.3,76.27,97.57,57.52,76.93,57.52Z"/></clipPath></defs><title>Asset 7</title><g id="Layer_2" data-name="Layer 2"><g id="Layer_1-2" data-name="Layer 1"><path class="cls-2" d="M11,110l-3.45,1.42c-.32.13-.16,1-1.66,1.62a2.6,2.6,0,0,1-1.87.08l1.14,2.77A4.26,4.26,0,0,1,6.64,115a2.63,2.63,0,0,1,1.42-.2L9,117a.67.67,0,0,0,.88.37l2.55-1a.67.67,0,0,0,.36-.88l-1.07-2.6c.08-.38.36-.82,1.2-1.16A3.63,3.63,0,0,1,17,112.89l.41-.17C15.82,108.93,11.6,109.78,11,110Z"/><rect class="cls-3" x="11.81" y="116.14" width="2.35" height="10.61" transform="translate(-45.14 14.02) rotate(-22.31)"/><path class="cls-4" d="M23.79,141.94a.67.67,0,0,1-.37.88L20.56,144a.67.67,0,0,1-.88-.37l-6.48-16.38a.67.67,0,0,1,.37-.88l2.45-1a.67.67,0,0,1,.88.37Z"/><rect class="cls-2" x="2.05" y="113.17" width="3.18" height="3.86" rx="0.67" ry="0.67" transform="translate(-43.43 10) rotate(-22.31)"/><path class="cls-5" d="M91.89,135.22H91.8a29.84,29.84,0,0,0,16.27-26.36c0-16.55-13.92-30-31.09-30s-31.09,13.42-31.09,30a29.84,29.84,0,0,0,16.27,26.36h-.08a18.72,18.72,0,0,1,9.14,12.7,2.73,2.73,0,0,1,2.45,0v-9.27a32.21,32.21,0,0,0,6.63,0v9.27a2.72,2.72,0,0,1,2.45,0A18.71,18.71,0,0,1,91.89,135.22Z"/><ellipse class="cls-6" cx="76.98" cy="80.78" rx="20.45" ry="20.52"/><path class="cls-7" d="M62.68,47c-.24,1.91-1.4.23-2,2.25C59,54.88,56.38,64.48,50.46,70.19c0,0,5.43,21.27,26.46,21.27s26.47-21.27,26.47-21.27c-5.68-5.47-8.29-15.3-10.1-20.81-.75-2.31-2-.59-2.25-2.72"/><ellipse class="cls-8" cx="77.25" cy="55.01" rx="1.79" ry="1.8"/><circle class="cls-9" cx="77.25" cy="55.01" r="0.42"/><path class="cls-10" d="M99.67,111.09a.51.51,0,1,1,.95-.36l.67,1.8a.51.51,0,1,1-1,.35Z"/><path class="cls-10" d="M99.85,113.44a.55.55,0,0,1,.41-.65l1.23-.27a.54.54,0,0,1,.23,1.06l-1.23.28A.54.54,0,0,1,99.85,113.44Z"/><ellipse class="cls-11" cx="101" cy="113.29" rx="1.75" ry="1.75" transform="translate(-27.78 32.97) rotate(-16.33)"/><path class="cls-12" d="M96.73,102.28l.51-.2,0,.05-.1.05s0,0,0,0l0,0,.08.06.12.09.13.1.07-.27a.6.6,0,0,0,0-.18,0,0,0,0,0,0,0l-.11,0,0-.05.41-.16,0,.05,0,0,0,0,0,.07,0,.08-.06.22-.06.24.18.12.23.16.08,0h.17l0,.05-.5.19,0-.05.09,0s0,0,0,0l0,0-.07-.06-.1-.07-.13-.09-.07.27a.36.36,0,0,0,0,.15,0,0,0,0,0,0,0l.1,0,0,.05-.41.16,0-.05,0,0,0,0a.18.18,0,0,0,0-.06l0-.08.06-.19.06-.22-.21-.15-.23-.16-.08,0-.07,0H96.8l-.05,0Z"/><path class="cls-12" d="M96.3,102.44l.49-.19,0,.05-.06,0-.05,0a.08.08,0,0,0,0,0,.1.1,0,0,0,0,.05l.3.79,0,0,.05,0h.13l0,.05-.49.19,0-.05.05,0,.05,0a.07.07,0,0,0,0,0,.12.12,0,0,0,0,0l-.3-.79,0,0-.05,0h-.06l-.06,0Z"/><path class="cls-12" d="M95.82,102.63l.49-.19,0,.05-.06,0-.05,0a.08.08,0,0,0,0,0,.1.1,0,0,0,0,.05l.3.79,0,0,.05,0h.12l0,.05-.49.19,0-.05.05,0,.05,0a.06.06,0,0,0,0,0,.11.11,0,0,0,0-.05l-.3-.79,0,0-.05,0H95.9l-.07,0Z"/><path class="cls-12" d="M99.29,109.68l0,0,0,0a.14.14,0,0,0,0-.06.55.55,0,0,0,0-.07c0-.09,0-.24,0-.44s0-.41,0-.62l.06,0,.43.49.28.32,0,0,.05,0h.1l0,.05-.45.17,0-.05.09,0s0,0,0,0v0l-.19-.21-.37-.41c0,.11,0,.24,0,.39s0,.25,0,.3a.61.61,0,0,0,0,.11v0l0,0h.16l0,.05-.4.16Z"/><path class="cls-12" d="M98.53,108.78l.49-.19,0,.05-.06,0-.05,0,0,0a.1.1,0,0,0,0,.05l.3.79,0,0h.18l0,.06-.49.19,0-.05.05,0,.05,0a.07.07,0,0,0,0,0,.12.12,0,0,0,0,0l-.3-.79,0,0-.05,0h-.06l-.06,0Z"/><path class="cls-12" d="M94,107.66l-.17-.5.06,0,0,.06,0,.05,0,0H94l.8-.27,0,0a.07.07,0,0,0,0-.05.32.32,0,0,0,0-.06.39.39,0,0,0,0-.06l.06,0,.17.5-.06,0,0-.06,0-.05,0,0h-.05l-.8.27,0,0a.08.08,0,0,0,0,0,.36.36,0,0,0,0,.06v.07Z"/><path class="cls-12" d="M94.29,108.51l-.17-.52.05,0,0,.1s0,0,0,0l0,0,.07-.07.09-.11.1-.13-.27-.08-.18,0a0,0,0,0,0,0,0,.32.32,0,0,0,0,.11l-.06,0-.14-.41.06,0,0,.05,0,0,.07,0,.08,0,.21.07.23.08.13-.17.17-.22.05-.08a.18.18,0,0,0,0-.06.31.31,0,0,0,0-.06V107l.06,0,.17.51-.05,0,0-.09s0,0,0,0l0,0-.06.07-.08.09-.09.12.27.08.15,0s0,0,0,0a.38.38,0,0,0,0-.1l.06,0,.14.41-.06,0,0,0,0,0-.06,0-.08,0-.19-.06-.21-.07-.15.21-.17.22,0,.08,0,.07a.14.14,0,0,0,0,.05l0,.05Z"/><ellipse class="cls-12" cx="98.44" cy="105.97" rx="0.16" ry="0.18" transform="translate(-25.89 32.07) rotate(-16.38)"/><polygon class="cls-12" points="97.57 104.04 97.73 103.98 98.52 105.93 98.36 105.99 97.57 104.04"/><polygon class="cls-13" points="99.8 105.34 99.86 105.49 98.48 106.06 98.42 105.9 99.8 105.34"/><polyline class="cls-12" points="97.93 103.92 97.51 103.66 97.44 104.25 97.95 103.99"/><polyline class="cls-12" points="99.89 105.62 100.18 105.22 99.6 105.1 99.82 105.63"/><path class="cls-13" d="M88.26,107.67s9.07.86,15.9-1.82c8.06-3.17,1.41,12.47,1.41,12.47l-10.49-.06Z"/><ellipse class="cls-8" cx="77.25" cy="65.25" rx="1.79" ry="1.8"/><circle class="cls-9" cx="77.25" cy="65.25" r="0.42"/><path class="cls-7" d="M93.69,22.3c.23-4.74-.09-9.88-1.95-13.41-1-2.75-4.08-4.46-7.25-5.5,1.42,0,2.62,0,2.62,0A9.06,9.06,0,0,0,78.56,2c-.68-.1-1.23-.16-1.58-.19A23.32,23.32,0,0,1,80.31.32C75.07-1,70.59,1.9,68.64,3.46c-3.1,1-6.1,2.74-7,5.43-1.85,3.54-2.18,8.67-1.95,13.41a32.74,32.74,0,0,0,.94,11.17c2.64,6.25,1.39,10.94.08,15.8L77,78.11v.11L93.29,49.38c-1.12-4.44-3.59-10-.61-16A33.22,33.22,0,0,0,93.69,22.3Z"/><path class="cls-14" d="M69.17,19.29c0,1.49-1.52,2.75-3.51,2.82S62,21,62,19.53s1.52-2.75,3.5-2.82S69.12,17.8,69.17,19.29Z"/><path class="cls-12" d="M67.21,19.1a1.67,1.67,0,1,1-1.88-1.43A1.67,1.67,0,0,1,67.21,19.1Z"/><path class="cls-14" d="M91.16,19.29c.05,1.49-1.52,2.75-3.51,2.82S84,21,84,19.53s1.52-2.75,3.5-2.82S91.11,17.8,91.16,19.29Z"/><path class="cls-12" d="M89.2,19.1a1.67,1.67,0,1,1-1.88-1.43A1.67,1.67,0,0,1,89.2,19.1Z"/><path class="cls-12" d="M97.11,21.65S96.6,23.41,94,23.6A25.57,25.57,0,0,1,82.76,23s-1.42-.37-2.39-3.9c0,0-.95-2.68.93-3.35,0,0,4.27-1.44,13.2-.91,0,0,3.72,0,3.72,1.55A18.36,18.36,0,0,1,97.11,21.65ZM73.52,19.13c-1,3.53-2.39,3.9-2.39,3.9a25.58,25.58,0,0,1-11.27.57c-2.57-.19-3.07-1.95-3.07-1.95a18.41,18.41,0,0,1-1.12-5.23c0-1.56,3.72-1.55,3.72-1.55,8.92-.53,13.2.91,13.2.91C74.46,16.45,73.52,19.13,73.52,19.13Zm27-3.85s0-.55-1-.7-1.87-.88-11.75-.65c-7,.6-9,1.38-9,1.38a5.14,5.14,0,0,1-.92.16,7.17,7.17,0,0,1-2.61-.16s-2-.78-9-1.38c-9.88-.24-10.7.49-11.75.65s-1,.7-1,.7V16c-.09,2,.43,2,.43,2a3.74,3.74,0,0,0,.28.44c.54.22,1.25,2.45,1.25,2.45.93,2.74,2.37,3.08,2.37,3.08,3.88,1.41,10.28.66,10.28.66s3.6-.1,4.73-1.58a24.57,24.57,0,0,0,2.11-4.38,2.24,2.24,0,0,1,.73-.83,3.59,3.59,0,0,1,2.8,0,2.88,2.88,0,0,1,.81.91,22.61,22.61,0,0,0,2,4.3c1.12,1.48,4.72,1.58,4.72,1.58s6.41.75,10.28-.66c0,0,1.43-.34,2.37-3.08,0,0,.71-2.23,1.25-2.45a3.86,3.86,0,0,0,.28-.44s.52,0,.43-2Z"/><path class="cls-15" d="M76.66,23a9.33,9.33,0,0,1-5.48,3.83C74.08,28.69,77,34.27,77,34.27s2.79-5.58,5.7-7.42C82.68,26.85,78.43,26,76.66,23Z"/><path class="cls-16" d="M90.39,45a1.5,1.5,0,0,0,0-.26h0a1.77,1.77,0,0,0-.12-.41l-3.75-5A1.73,1.73,0,0,0,84.14,39L78.38,42.9a2.58,2.58,0,0,0-3.09,0L69.47,39a1.72,1.72,0,0,0-2.35.36l-3.75,5a1.73,1.73,0,0,0-.12.41h0a1.35,1.35,0,0,0,0,.26h0a1.36,1.36,0,0,0,0,.26h0a1.67,1.67,0,0,0,.12.41l3.75,5a1.72,1.72,0,0,0,2.35.37l5.82-3.95h0a2.57,2.57,0,0,0,3.09,0L84.14,51a1.73,1.73,0,0,0,2.35-.37l3.75-5a1.72,1.72,0,0,0,.12-.41h0a1.5,1.5,0,0,0,0-.26h0Z"/><g class="cls-17"><g class="cls-18"><circle class="cls-7" cx="65.68" cy="39.16" r="0.49"/><circle class="cls-7" cx="65.68" cy="41.5" r="0.49"/><circle class="cls-7" cx="65.68" cy="43.83" r="0.49"/><circle class="cls-7" cx="65.68" cy="46.16" r="0.49"/><circle class="cls-7" cx="65.68" cy="48.49" r="0.49"/><circle class="cls-7" cx="70.1" cy="39.65" r="0.49"/><circle class="cls-7" cx="70.1" cy="41.98" r="0.49"/><circle class="cls-7" cx="70.1" cy="44.31" r="0.49"/><circle class="cls-7" cx="70.1" cy="46.65" r="0.49"/><circle class="cls-7" cx="70.1" cy="48.98" r="0.49"/><circle class="cls-7" cx="74.53" cy="39.65" r="0.49"/><circle class="cls-7" cx="74.53" cy="41.98" r="0.49"/><circle class="cls-7" cx="74.53" cy="44.31" r="0.49"/><circle class="cls-7" cx="74.53" cy="46.65" r="0.49"/><circle class="cls-7" cx="74.53" cy="48.98" r="0.49"/><circle class="cls-7" cx="78.95" cy="39.65" r="0.49"/><circle class="cls-7" cx="78.95" cy="41.98" r="0.49"/><circle class="cls-7" cx="78.95" cy="44.31" r="0.49"/><circle class="cls-7" cx="78.95" cy="46.65" r="0.49"/><circle class="cls-7" cx="78.95" cy="48.98" r="0.49"/><circle class="cls-7" cx="83.38" cy="39.65" r="0.49"/><circle class="cls-7" cx="83.38" cy="41.98" r="0.49"/><circle class="cls-7" cx="83.38" cy="44.31" r="0.49"/><circle class="cls-7" cx="83.38" cy="46.65" r="0.49"/><circle class="cls-7" cx="83.38" cy="48.98" r="0.49"/><circle class="cls-7" cx="67.89" cy="40.14" r="0.49"/><circle class="cls-7" cx="67.89" cy="42.47" r="0.49"/><circle class="cls-7" cx="67.89" cy="44.81" r="0.49"/><circle class="cls-7" cx="67.89" cy="47.14" r="0.49"/><circle class="cls-7" cx="67.89" cy="49.47" r="0.49"/><circle class="cls-7" cx="63.47" cy="40.14" r="0.49"/><circle class="cls-7" cx="63.47" cy="42.47" r="0.49"/><circle class="cls-7" cx="63.47" cy="44.81" r="0.49"/><circle class="cls-7" cx="63.47" cy="47.14" r="0.49"/><circle class="cls-7" cx="63.47" cy="49.47" r="0.49"/><circle class="cls-7" cx="72.32" cy="40.14" r="0.49"/><circle class="cls-7" cx="72.32" cy="42.47" r="0.49"/><circle class="cls-7" cx="72.32" cy="44.81" r="0.49"/><circle class="cls-7" cx="72.32" cy="47.14" r="0.49"/><circle class="cls-7" cx="72.32" cy="49.47" r="0.49"/><circle class="cls-7" cx="76.74" cy="40.14" r="0.49"/><circle class="cls-7" cx="76.74" cy="42.47" r="0.49"/><circle class="cls-7" cx="76.74" cy="44.81" r="0.49"/><circle class="cls-7" cx="76.74" cy="47.14" r="0.49"/><circle class="cls-7" cx="76.74" cy="49.47" r="0.49"/><circle class="cls-7" cx="81.17" cy="40.14" r="0.49"/><circle class="cls-7" cx="81.17" cy="42.47" r="0.49"/><circle class="cls-7" cx="81.17" cy="44.81" r="0.49"/><circle class="cls-7" cx="81.17" cy="47.14" r="0.49"/><circle class="cls-7" cx="81.17" cy="49.47" r="0.49"/><circle class="cls-7" cx="85.59" cy="40.14" r="0.49"/><circle class="cls-7" cx="85.59" cy="42.47" r="0.49"/><circle class="cls-7" cx="85.59" cy="44.81" r="0.49"/><circle class="cls-7" cx="85.59" cy="47.14" r="0.49"/><circle class="cls-7" cx="85.59" cy="49.47" r="0.49"/><circle class="cls-7" cx="90.02" cy="40.14" r="0.49"/><circle class="cls-7" cx="90.02" cy="42.47" r="0.49"/><circle class="cls-7" cx="90.02" cy="44.81" r="0.49"/><circle class="cls-7" cx="90.02" cy="47.14" r="0.49"/><circle class="cls-7" cx="90.02" cy="49.47" r="0.49"/><circle class="cls-7" cx="87.8" cy="40.14" r="0.49"/><circle class="cls-7" cx="87.8" cy="42.47" r="0.49"/><circle class="cls-7" cx="87.8" cy="44.81" r="0.49"/><circle class="cls-7" cx="87.8" cy="47.14" r="0.49"/><circle class="cls-7" cx="87.8" cy="49.47" r="0.49"/></g></g><g class="cls-19"><g class="cls-18"><rect class="cls-7" x="43.05" y="63.45" width="70.45" height="30.5"/></g></g><g class="cls-19"><g class="cls-18"><path class="cls-20" d="M138.18,80.78,103.39,79.1l-3.78-.18.08-17.46-9.62-4.65-.49,19.51s.92,2.83-2.88,2.83H66.62c-3.8,0-2.88-2.83-2.88-2.83l-.49-19.51-9.62,4.65L47,73.64l-24.8,5.51,25.38,53.64,5.56,65.88,18.41-3.46V165.78c0-5.21,5-4.41,5.06-4.41s5.06-.81,5.06,4.41V195.2l18.41,3.46,5.56-65.88Z"/><path class="cls-21" d="M232.35,80.78,197.57,79.1l-3.78-.18.08-17.46-9.62-4.65-.49,19.51s.92,2.83-2.88,2.83H160.79c-3.8,0-2.88-2.83-2.88-2.83l-.48-19.51-9.62,4.65.08,17.46-31.47.23,25.39,53.64,5.56,65.88,18.41-3.46V165.78c0-5.21,5-4.41,5.06-4.41s5.06-.81,5.06,4.41V195.2l18.41,3.46,5.56-65.88Z"/><path class="cls-22" d="M61.72,76,61.4,59.79l-5.93,2.94,0,12.63c0,.1,0,.2,0,.3V89.22c0,2.65,1.16,4.81,3.14,4.81s3.14-2.28,3.14-4.93v-13A1.32,1.32,0,0,0,61.72,76Z"/><path class="cls-22" d="M92.28,76l.32-16.17,5.94,2.94,0,12.63c0,.1,0,.2,0,.3V89.22c0,2.65-1.16,4.81-3.14,4.81s-3.14-2.28-3.14-4.93v-13C92.26,76.06,92.28,76,92.28,76Z"/></g></g><path class="cls-21" d="M63.34,60.26,61.63,46l-8,20.37.59,9c0,.1,2.43-.46,2.43-.35V88.51c0,2.66,1.16,4.81,3.14,4.81S63,91,63,88.39v-13C63,75.35,63.34,60.31,63.34,60.26Z"/><path class="cls-21" d="M90,60.26,92.26,46l7.42,19.71,0,9.64c0,.1-2.43-.46-2.43-.35V88.51c0,2.66-1.16,4.81-3.14,4.81S90.92,91,90.92,88.39v-13C90.92,75.35,90,60.31,90,60.26Z"/><path class="cls-22" d="M92.28,76l.32-28.59L98.54,64l0,11.37c0,.1,0,.2,0,.3V89.23c0,2.65-1.16,4.81-3.14,4.81s-3.14-2.28-3.14-4.93v-13A1.15,1.15,0,0,1,92.28,76Z"/><path class="cls-22" d="M61.72,76,61.4,47.41,55.46,64l0,11.37c0,.1,0,.2,0,.3V89.26c0,2.65,1.16,4.81,3.14,4.81s3.14-2.28,3.14-4.93v-13A1.34,1.34,0,0,0,61.72,76Z"/><path class="cls-7" d="M27.33,73.08s-12-4.31-14.33-8.51c-3.41-6,3.84-5.4,3.84-5.4A10.5,10.5,0,0,0,13,56.58c-2.26-.87-7,0-6.74,5.4s1.3,5.67,1.3,5.67S6,66,5.8,62.05c-.21-4.17,1.4-4.41.38-4.65-.5-.12-3.69,3-4,5.25S3,68.2,4.66,70.28c2.92,3.69-2.45-.92-2.91-6.19,0-.55-1.61,6.26.27,10.72A17,17,0,0,0,4.1,78.26a11.17,11.17,0,0,1-2-2.69,12.06,12.06,0,0,1-1.39-5S-1.48,77,1.92,85.4c5.16,12.7,18,15.88,18.46,15.67.12-.06.18-.19.26-.28C32.48,88,26.2,74.1,26.2,74.1"/><path class="cls-23" d="M19.25,100.92a27.65,27.65,0,0,0,19.83,2.18L53,87.05,54.57,64C42,74.08,31.44,74.39,23.47,71.53c0,0,1.72,4.62,1.27,14.67S19.25,100.92,19.25,100.92Z"/><path class="cls-4" d="M32.75,52.43s3.14-6.08,3.3-6.91a2.07,2.07,0,0,0-.52-2.14c-.7-.83-3.9-2.31-5.91-2.78-2.77-.65-7-.76-7.41-.23l-.79,1.72,7.49,3.45A1.09,1.09,0,0,1,29.46,47L28,50.24Z"/><path class="cls-24" d="M3.49,89.91a1,1,0,1,1,1.74.8L4.09,93.2a1,1,0,1,1-1.74-.8ZM26.33,50.84l-6.85-3.15-1.69,4.51L.57,91.71c-.85,1.86-.68,3.77,1.07,4.57s3.3-.31,4.15-2.17l12.5-26.32,6.15,2.84L30,59a2.22,2.22,0,0,0,2.65-1.35l1-2.18a2.19,2.19,0,0,0-.71-2.9l-5.22-2.4c-.18.4-.43,1.16-1.38.72Z"/><path class="cls-25" d="M20.38,66.9l-3.57,7.8s-.83,1.87,1.51,3,3.25-.76,3.25-.76l5.71-12.5-1.81-.83-1.31,2.87Z"/><path class="cls-26" d="M23.25,58A1.37,1.37,0,0,1,25,57.27l4.45,2A1.37,1.37,0,0,1,30,61.17l-1.1,2.4a1.36,1.36,0,0,1-1.77.77l-4.45-2a1.38,1.38,0,0,1-.57-1.85Z"/><path class="cls-4" d="M20.28,45.31l8.24,3.79-.83,1.82a.52.52,0,0,1-.69.26L19.7,47.82a.52.52,0,0,1-.26-.69Z"/><path class="cls-4" d="M7.22,87.15A1.36,1.36,0,0,1,5.51,88,1.37,1.37,0,0,1,5,86.14L14.5,65.65a1.36,1.36,0,0,1,1.71-.85,1.37,1.37,0,0,1,.46,1.86Z"/><path class="cls-7" d="M11.34,56.37s3.39-1.06,7.7,2.81c0,0-5.4.12-7,5.15S8.18,59.71,11.34,56.37Z"/><path class="cls-27" d="M79.13,150l.13-.08-.13-.11v-2.29a.53.53,0,0,1,.53-.52,3.24,3.24,0,0,0,2,.61,6.46,6.46,0,0,0,2.21-.61c.06,0,0-.3.31,0,2,1.84,6.35,2.21,6.35,2.21.25,0,.41.39.18.65,0,0-.12.1-.12.14l.13.14a.53.53,0,0,1-.52.53H79.66a.53.53,0,0,1-.53-.53Z"/><path class="cls-27" d="M74.83,150.14a.53.53,0,0,1-.52.53H63.77a.53.53,0,0,1-.52-.53l.13-.14s-.09-.11-.12-.14c-.23-.27-.06-.66.18-.66,0,0,4.39-.37,6.35-2.21.32-.3.24,0,.31,0a6.47,6.47,0,0,0,2.21.61,3.24,3.24,0,0,0,2-.61.53.53,0,0,1,.52.53v2.29l-.13.11.13.08Z"/><path class="cls-7" d="M149.32,82.88a19.67,19.67,0,0,0,.93-8.32s-4.11,8.31-7,8.73c0,0,7.14-7.28,6.52-12.93,0,0-3.61,6.51-6.32,7.4,0,0,6.5-5.71,4.85-13.24,0,0-2.91,8-5.82,8.28,0,0,5-5.9,4.51-11.35,0,0-20,27.42-47.76,2.85l.56,23.28L113,104.37s19.56,7.23,31.93-12.31l0,0a34.29,34.29,0,0,0,4.28-8.76l.18-.46Z"/><path class="cls-23" d="M124.78,88.59a30.42,30.42,0,0,1,3.84-14.83c-7.94,1.95-18,.63-29.41-9.46l-.42,23.31L113,104.37a28.18,28.18,0,0,0,16.32.19A30.44,30.44,0,0,1,124.78,88.59Z"/><path class="cls-4" d="M27.38,125.26l-.07-.32c-.08-.39.73-.74.63-1.2s-.22-.61-.94-.46l-1.88.4-1.88.4c-.72.15-.77.34-.67.8s1,.45,1.07.84l.07.32c.07.35-.74.71-.66,1.09l1.78,8.33c.25,1.16,1.14,1.25,3,.85s2.63-.84,2.38-2L28.43,126C28.35,125.6,27.45,125.6,27.38,125.26Z"/><path class="cls-26" d="M26.42,135.41a.44.44,0,0,1-.39.47h0a.44.44,0,0,1-.55-.27l-1.69-7.88a.44.44,0,0,1,.39-.47h0a.44.44,0,0,1,.55.27Z"/><path class="cls-26" d="M28,135.07a.44.44,0,0,1-.39.47h0a.44.44,0,0,1-.55-.27l-1.69-7.88a.44.44,0,0,1,.39-.47h0a.44.44,0,0,1,.55.27Z"/><path class="cls-26" d="M29.71,134.7a.44.44,0,0,1-.39.47h0a.44.44,0,0,1-.55-.27L27,127a.44.44,0,0,1,.39-.47h0a.44.44,0,0,1,.55.27Z"/><polygon class="cls-2" points="21.62 110.62 24.66 124.65 26.01 124.36 22.96 110.33 23.17 109.53 22.08 107.13 21.6 107.24 21.11 107.34 21.09 109.97 21.62 110.62"/><path class="cls-26" d="M27.95,123.75a.63.63,0,0,1-.54.69l-4.07.87a.63.63,0,0,1-.78-.41l0-.16a.63.63,0,0,1,.54-.69l4.07-.87a.63.63,0,0,1,.78.41Z"/><path class="cls-23" d="M13.93,129.69h32a0,0,0,0,1,0,0v18.5a2.48,2.48,0,0,1-2.48,2.48h-27a2.48,2.48,0,0,1-2.48-2.48v-18.5A0,0,0,0,1,13.93,129.69Z"/><rect class="cls-26" x="13.93" y="134.46" width="31.96" height="2.87"/><rect class="cls-3" x="145.36" y="123.44" width="1.75" height="1.57" transform="matrix(0.17, -0.99, 0.99, 0.17, -0.64, 247.69)"/><rect class="cls-3" x="142.61" y="122.97" width="1.75" height="1.57" transform="matrix(0.17, -0.99, 0.99, 0.17, -2.47, 244.59)"/><path class="cls-2" d="M143.24,120.66a2.11,2.11,0,0,1-.1-1.07,2.35,2.35,0,0,1,2.78-1.82l.22,0-.07-.07.67-3.93,0-.2,0-.12,0-.21,0-.15,0-.17,0-.17,0-.15,0-.21,0-.12,0-.2.42-2.49.58.1c1,7.12.39,9.61.39,9.61l-.61-.1a2.12,2.12,0,0,1,.14,1.18,2.35,2.35,0,0,1-2.78,1.82l-.32-.08-.05.3-.18,1-.57.27-1.53-1,.35-2.07Z"/><path class="cls-2" d="M146.57,109.47l.58.1-.42,2.49,0,.2,0,.12,0,.21,0,.15,0,.17,0,.17,0,.15,0,.21,0,.12,0,.2-1.34,7.9a2.71,2.71,0,0,0-2.44,1l-.33-.06A48,48,0,0,1,146.57,109.47Z"/><path class="cls-4" d="M138.05,133.22a50.33,50.33,0,0,1,4.13-9.22l2.28.39c-5.85,13.23-5.76,22.07-6,23.25s-1.88,1.77-2.26,0S136.1,138.91,138.05,133.22Z"/><path class="cls-4" d="M148.26,134.95a50.33,50.33,0,0,0-.87-10.06l-2.28-.39c1.17,14.42-1.81,22.74-2,23.91s1.19,2.29,2.13.74S148.23,141,148.26,134.95Z"/><path class="cls-2" d="M147.71,119.15l.5.15-.72,4.27-1.78.47-.45-.45.24-1.45h0C146.47,122.2,147.19,119.85,147.71,119.15Z"/><path class="cls-4" d="M143.72,119.68a1.86,1.86,0,1,0,2.11-1.38A1.79,1.79,0,0,0,143.72,119.68Zm.67.11a1.18,1.18,0,1,1,1,1.27A1.13,1.13,0,0,1,144.38,119.8Z"/><path class="cls-2" d="M140.14,109.89c.1.16.15.32,0,.43l-5.05,3.21-.38-.59,5.05-3.21C139.91,109.62,140,109.73,140.14,109.89Z"/><path class="cls-3" d="M132.76,112h0l1.85.25a5.71,5.71,0,0,1,1.07,1.68l-.59,1.77Z"/><path class="cls-28" d="M130.57,113.06l2.2-1.22a5.79,5.79,0,0,1,2.55,3.88l-2.12,1.48Z"/><path class="cls-3" d="M128.61,114.19l2.1-1.27a7.59,7.59,0,0,1,2.63,4.25l-1.8,1.21Z"/><path class="cls-29" d="M124.8,115.72l3.79-2a7.5,7.5,0,0,1,3.32,4.78l-3,3Z"/><path class="cls-29" d="M112.33,127.78a3.41,3.41,0,0,0,.84,2c.83.94,2.55.7,4.43-.38s2.7-.74,3.05-.09-.53,5.26,1.67,10.06l3.15-1.41-2.13-13.79-1.73-1.66-5.06,2.24Z"/><path class="cls-29" d="M127.78,122.81s-1.08,1-.92,1.25,1,1.61,1.24,2,.48.78,0,1.08l-1.19.75-2.36-3.72,2.5-1.59Z"/><path class="cls-29" d="M131.74,136.93s3.85-1.42,4.39-1.6.74.22,1,.73,2.65,4.95,3.1,5.75.16,1.19-.29,1.47-12.11,6-12.77,6.23-1.72.36-2.15-.48-1.49-3.34-1.49-3.34,7.34-3.25,8.08-3.58.91-1,.42-2.08C131.45,138.7,131.08,137.17,131.74,136.93Z"/><path class="cls-4" d="M131.93,137.13a.56.56,0,0,0-.56-.26,2.23,2.23,0,0,1-1.77-.72,5.66,5.66,0,0,1-1.2-2.72c0-.55.12-.78,0-1a7.68,7.68,0,0,1-.79-1.27c0-.26.27-1,0-1.41s-.57-.81-.55-1,.3-.69.22-.84l-2-3.13c-.27-.42-.1-.62.21-.92a9.86,9.86,0,0,1,1.22-1,.8.8,0,0,1,.89.12l1.52-1.49a15.54,15.54,0,0,0-4.36-6.21s-2.34,1.13-10.52,7.1c-1,.75-2.78,2.38-1.82,5.86a2.31,2.31,0,0,1,.9-.94c.69-.44,5.42-2.61,6.26-3a2.37,2.37,0,0,1,2.88.72c.64,1,.44,1.42.28,2.77a17.64,17.64,0,0,0,.78,7.07c.91,2.26.86,3-.21,3.59s-1.33.71-1.33.71a8.08,8.08,0,0,1,.53,2.5c0,1.07.29,3.36,1.27,4.25l9.09-3.77-1-5.1"/><rect class="cls-26" x="114.49" y="119.82" width="11.59" height="1.83" rx="0.85" ry="0.85" transform="translate(-45.98 83.33) rotate(-32.43)"/><rect class="cls-26" x="120.78" y="120.67" width="6.08" height="0.96" rx="0.44" ry="0.44" transform="translate(-45.66 85.29) rotate(-32.43)"/><path class="cls-23" d="M123.13,129.69h27a2.48,2.48,0,0,1,2.48,2.48v18.5a0,0,0,0,1,0,0h-32a0,0,0,0,1,0,0v-18.5A2.48,2.48,0,0,1,123.13,129.69Z" transform="translate(273.26 280.36) rotate(-180)"/><rect class="cls-26" x="120.65" y="134.46" width="31.96" height="2.87" transform="translate(273.26 271.8) rotate(-180)"/></g></g></svg>