<svg xmlns="http://www.w3.org/2000/svg" xmlns:xlink="http://www.w3.org/1999/xlink" viewBox="0 0 98.67 113.17"><defs><style>.cls-1,.cls-15,.cls-16,.cls-18,.cls-22{fill:none;}.cls-2{fill:#e1e2e2;}.cls-13,.cls-3{fill:#3eaaaa;}.cls-4{clip-path:url(#clip-path);}.cls-5{fill:#57c0c3;}.cls-6{fill:#515050;}.cls-7{fill:#454751;}.cls-8{fill:#d7d6d5;}.cls-9{fill:#fff;}.cls-10{fill:#2b2b35;}.cls-11{fill:#434851;}.cls-12{fill:#2c2c2d;}.cls-13,.cls-17,.cls-19{fill-rule:evenodd;}.cls-14{fill:#5a483b;}.cls-15,.cls-16{stroke:#f2c24e;}.cls-15,.cls-16,.cls-18,.cls-22{stroke-miterlimit:10;}.cls-15,.cls-16,.cls-18{stroke-width:0.94px;}.cls-16{stroke-linecap:round;}.cls-17,.cls-21{fill:#fd4f57;}.cls-18{stroke:#4e4e4e;}.cls-19,.cls-20{fill:#f1bc86;}.cls-22{stroke:#ff585d;stroke-width:0.5px;}.cls-23{fill:#c2c0c0;}</style><clipPath id="clip-path"><path class="cls-1" d="M20.94,58.44c3.68-12.65-8.36-12.42-10.35-16C15,43.1,31.67,55.6,45.16,42l.38,19.17L33.89,74.84s-11.5,5.37-24.07-6C12.89,68.1,18.56,66.79,20.94,58.44Z"/></clipPath></defs><title>Asset 8</title><g id="Layer_2" data-name="Layer 2"><g id="Layer_1-2" data-name="Layer 1"><path class="cls-2" d="M23.24,48.85c-1.46-1.15-8.2-6.59-8.89-10-1.23-5.6,4.37-3.3,4.37-3.3a8.81,8.81,0,0,0-2.38-3,4.14,4.14,0,0,0-6.67,2.53,14.71,14.71,0,0,0-.61,4.14A9.2,9.2,0,0,1,9.28,35c.84-3.3,2.22-3.14,1.46-3.53-.38-.23-3.68,1.46-4.45,3.14a9.75,9.75,0,0,0,.08,6.59c1.38,3.6-1.69-1.3-.77-5.6.08-.46-2.84,4.52-2.45,8.51a14.23,14.23,0,0,0,.77,3.22A7.57,7.57,0,0,1,3,44.71a10.34,10.34,0,0,1,.15-4.29s-4.6,6.29-2.68,12C10,81.82,34.35,75,34.35,75L46.16,61l1.07-19.78C37.88,48.93,29.75,50.23,23.24,48.85Z"/><path class="cls-3" d="M20.94,58.44c3.68-12.65-8.36-12.42-10.35-16C15,43.1,31.67,55.6,45.16,42l.38,19.17L33.89,74.84s-11.5,5.37-24.07-6C12.89,68.1,18.56,66.79,20.94,58.44Z"/><path class="cls-5" d="M45.85,35.13A6.92,6.92,0,0,0,45.24,37C44,41.26,42,48.47,37.5,52.84c0,0,4.14,16,20,16s20-16,20-16c-4.29-4.14-6.44-11.5-7.67-15.64-.46-1.76-.54-1.92-.61-2.15"/><path class="cls-6" d="M68.7,101.83h0A22.59,22.59,0,0,0,80.89,82c0-12.5-10.5-22.54-23.38-22.54S34.12,69.55,34.12,82a22.44,22.44,0,0,0,12.19,19.86h-.08a14.29,14.29,0,0,1,6.9,9.58,2,2,0,0,1,1.84,0v-7c.84.08,1.69.15,2.45.15s1.69-.08,2.53-.15v7a2,2,0,0,1,1.84,0A14.53,14.53,0,0,1,68.7,101.83Z"/><path class="cls-6" d="M57.5,43.33C42,43.33,29.45,57.44,29.45,74.84c0,10.73,6.67,19.4,14,25.07,14.72-5.67,23.54-1.61,28.06.15C79,94.39,85.64,85.65,85.64,74.84,85.56,57.44,73,43.33,57.5,43.33Z"/><circle class="cls-7" cx="57.73" cy="41.42" r="1.38"/><circle class="cls-8" cx="57.73" cy="41.42" r="0.31"/><circle class="cls-7" cx="57.73" cy="49.16" r="1.38"/><circle class="cls-8" cx="57.73" cy="49.16" r="0.31"/><path class="cls-2" d="M70.15,16.81c.15-3.6-.08-7.44-1.46-10.12C68,4.62,65.63,3.32,63.18,2.55h2a6.91,6.91,0,0,0-6.44-1A10.5,10.5,0,0,0,57.5,1.4,18.33,18.33,0,0,1,60,.25c-4-1-7.36,1.23-8.82,2.38-2.3.77-4.6,2.07-5.29,4.06-1.38,2.68-1.69,6.52-1.46,10.12a26.29,26.29,0,0,0,.69,8.43c1.76,4.14,1.23,7.44.38,10.66,0,0,.54.92.38,1.3L57.5,58.82v.08L69.23,37.36c-.08-.46.38-1.07.23-1.53-.92-3.07-2.07-6.75-.08-10.66A24.84,24.84,0,0,0,70.15,16.81Z"/><path class="cls-9" d="M51.6,14.51c0,1.15-1.15,2.07-2.68,2.15s-2.76-.84-2.76-1.92,1.15-2.07,2.68-2.15S51.6,13.36,51.6,14.51Z"/><path class="cls-10" d="M50.14,14.36a1.28,1.28,0,1,1-1.46-1.07A1.34,1.34,0,0,1,50.14,14.36Z"/><path class="cls-9" d="M68.24,14.51c0,1.15-1.15,2.07-2.68,2.15s-2.76-.84-2.76-1.92,1.15-2.07,2.68-2.15A2.42,2.42,0,0,1,68.24,14.51Z"/><path class="cls-10" d="M66.78,14.36a1.28,1.28,0,1,1-1.46-1.07A1.34,1.34,0,0,1,66.78,14.36Z"/><path class="cls-11" d="M57.27,17.35a7.09,7.09,0,0,1-4.14,2.91c2.22,1.38,4.37,5.6,4.37,5.6s2.07-4.22,4.29-5.6C61.8,20.18,58.58,19.57,57.27,17.35Z"/><path class="cls-12" d="M59,112.71l.08-.08-.08-.08v-1.69a.36.36,0,0,1,.38-.38,2.36,2.36,0,0,0,1.46.46,4.54,4.54,0,0,0,1.61-.46c.08,0,0-.23.23,0,1.46,1.3,4.6,1.61,4.6,1.61a.29.29,0,0,1,.15.46l-.08.08.08.08a.36.36,0,0,1-.38.38H59.42a.36.36,0,0,1-.38-.38Z"/><path class="cls-12" d="M55.89,112.79a.36.36,0,0,1-.38.38H47.84a.36.36,0,0,1-.38-.38l.08-.08-.08-.08c-.15-.23-.08-.46.15-.46,0,0,3.22-.31,4.6-1.61.23-.23.15,0,.23,0a4.54,4.54,0,0,0,1.61.46,2.36,2.36,0,0,0,1.46-.46.36.36,0,0,1,.38.38v1.69l-.08.08.08.08Z"/><path class="cls-2" d="M80.89,23.84c4.55,5,.29,13.11-1.84,16C78,41.35,80.58,46.18,71.28,47c-6.78.6,5.53,19.54,8.18,19.73,5,.35,17.53-7.64,18.4-21.84C98.9,27.94,79.33,21.89,80.89,23.84Z"/><path class="cls-3" d="M80.43,73.88c5,.35,23.41-12.27,16.85-35.16-10.33,7.92-18.53,2.7-18.53,2.7s.53,5.17-7.46,5.58C64.48,47.34,77.78,73.69,80.43,73.88Z"/><path class="cls-5" d="M54.9,89.41a23.3,23.3,0,0,0,5.75.08,57.7,57.7,0,0,0,23.46-6,26.59,26.59,0,0,0,1.61-9c0-15.72-10.35-28.83-23.84-31.2-1.46-.23-4.37,4.06-4.37,4.06S54.67,43,53.36,43.26c-13.65,2.22-24.15,15.33-24.15,31.2a26.67,26.67,0,0,0,1.46,8.66A62.45,62.45,0,0,0,54.9,89.41Z"/><path class="cls-6" d="M56.81,48.78,54,45.94a.86.86,0,0,1,.61-1.46h5.67a.86.86,0,0,1,.61,1.46L58,48.78A.93.93,0,0,1,56.81,48.78Z"/><path class="cls-6" d="M57.5,84.89l-4.37-4.37L57,48.32a.5.5,0,0,1,1,0L62,80.52Z"/><path class="cls-13" d="M45.54,35.9a15.89,15.89,0,0,0,4.52,4.75,43.31,43.31,0,0,0,6.21,3.83A5.34,5.34,0,0,0,54,47.7a13.72,13.72,0,0,0-.08,3s-6-6.29-8.36-13.26A5,5,0,0,1,45.54,35.9Z"/><path class="cls-13" d="M69.46,35.82a15.89,15.89,0,0,1-4.52,4.75,43.31,43.31,0,0,1-6.21,3.83A5.34,5.34,0,0,1,61,47.63a14.42,14.42,0,0,1,.08,3.07s6-6.29,8.28-13.26A4,4,0,0,0,69.46,35.82Z"/><path class="cls-14" d="M84.11,81.13a55.62,55.62,0,0,1-23.46,6A27.93,27.93,0,0,1,54.9,87a62.81,62.81,0,0,1-24.15-6.29c-.84-.54-.92-.38,0,2.38A62.81,62.81,0,0,0,54.9,89.41a23.3,23.3,0,0,0,5.75.08,57.7,57.7,0,0,0,23.46-6C85.18,80.52,85.18,80.52,84.11,81.13Z"/><path class="cls-15" d="M55.05,88.18v1.07a.67.67,0,0,0,.77.69l3.37-.08a.69.69,0,0,0,.69-.69V88.11a.71.71,0,0,0-.77-.69l-3.37.08C55.36,87.42,55.05,87.72,55.05,88.18Z"/><line class="cls-16" x1="59.88" y1="88.64" x2="57.96" y2="88.64"/><path class="cls-17" d="M28.91,56H4.68a1.73,1.73,0,0,1-1.76-1.76V44.64H30.6V54.3A1.7,1.7,0,0,1,28.91,56Z"/><polygon class="cls-17" points="30.6 44.64 2.92 44.64 10.2 35.13 23.47 35.13 30.6 44.64"/><path class="cls-17" d="M12,33.14H10.82a.69.69,0,0,0-.69.69v1.3h2.45V33.75C12.66,33.45,12.35,33.14,12,33.14Z"/><path class="cls-17" d="M22.78,33.14H21.63a.69.69,0,0,0-.69.69v1.3h2.45V33.75A.6.6,0,0,0,22.78,33.14Z"/><circle class="cls-9" cx="16.87" cy="46.02" r="8.13"/><circle class="cls-18" cx="22.85" cy="47.24" r="0.92"/><circle class="cls-18" cx="22.85" cy="43.64" r="0.92"/><circle class="cls-18" cx="20.71" cy="40.88" r="0.92"/><circle class="cls-18" cx="17.26" cy="39.42" r="0.92"/><circle class="cls-18" cx="13.73" cy="40.57" r="0.92"/><circle class="cls-18" cx="11.43" cy="43.33" r="0.92"/><circle class="cls-18" cx="10.59" cy="47.01" r="0.92"/><circle class="cls-18" cx="12.58" cy="50" r="0.92"/><circle class="cls-18" cx="16.11" cy="51.61" r="0.92"/><circle class="cls-18" cx="19.71" cy="51" r="0.92"/><path class="cls-19" d="M24.54,50.92h0a.37.37,0,0,1-.46.15l-4.45-2.61a.34.34,0,1,1,.31-.61l4.45,2.61A.37.37,0,0,1,24.54,50.92Z"/><circle class="cls-20" cx="16.87" cy="46.02" r="4.06"/><path class="cls-2" d="M17,33.14s1.3.77,1.69,3.53A21.54,21.54,0,0,0,13,34.75l2.68-1.38Z"/><path class="cls-21" d="M75.53,32.44c-.31,2.91-.23,3.14-.92,4.22h-.15c-.23.31.23.31-2.07-.46h0c-.15-.08-.23-.08-.38-.15-1.53-.54-2.53-.69-2.76.84a1,1,0,0,1-.08.46c0,.08-.15,1.38-.54,4.52l-.08.77a1,1,0,0,1-.08.46c-.15,1.69,1.07,2.07,3.07,1.84a13.5,13.5,0,0,0,3-.61c1.53-.61,2.38-2.68,2.68-3.45a27.27,27.27,0,0,0,1.84-7.82Z"/><path class="cls-21" d="M70.52,23.07c-.15,1.53.92,1.61,2.53,1.46a1,1,0,0,0,.46-.08h.15c1.92-.23,1.84-.31,2,.08v.15c.38,1.23-.23,9.74-.69,13.19L78.45,39c.54-4.68,1-15,.73-17.72-.08-.84-.54-3.14-1.84-4.06a10.5,10.5,0,0,0-2.76-1.3c-1.84-.69-3.14-.61-3.37,1.07a.57.57,0,0,1-.08.38l-.08.77c-.31,3.14-.46,4.45-.46,4.52A.57.57,0,0,0,70.52,23.07Z"/><path class="cls-2" d="M81.83,23.49s-6.36-.87-9.58,2.65c0,0,6.39,0,10,2.35,0,0-6.8-1.41-10.58,1,0,0,7.1.94,9.66,3.49a14.66,14.66,0,0,0-8.69-.21s6.13,2.46,7.36,4.66c0,0-4-2.06-6.13-1.57,0,0,4.4,2.78,4.86,5.6l5.78-7.1Z"/><path class="cls-22" d="M29.31,49.44c.2.59.17,3-1.19,3.5a1.08,1.08,0,1,1-.71-2,2.48,2.48,0,0,1,2.94,1.53"/><path class="cls-22" d="M30.35,52.44c.2.58.2,3-1.13,3.51a1.08,1.08,0,1,1-.75-2,2.53,2.53,0,0,1,3,1.45"/><path class="cls-22" d="M31.43,55.38c.2.56.33,2.9-.95,3.54a1.09,1.09,0,1,1-.88-2,2.58,2.58,0,0,1,3,1.24"/><path class="cls-22" d="M32.65,58.16c.22.52.58,2.77-.57,3.6s-2.64-1.13-1.11-1.9a2.66,2.66,0,0,1,3.15.84"/><path class="cls-22" d="M34.12,60.71a4.88,4.88,0,0,1,.46,1.59,2.43,2.43,0,0,1-.43,2c-1,1.08-2.85-.68-1.45-1.68a2.37,2.37,0,0,1,2-.37,3.27,3.27,0,0,1,1.27.61"/><path class="cls-22" d="M35.94,62.88a5.17,5.17,0,0,1,.77,1.44,2.44,2.44,0,0,1,0,2.07c-.75,1.27-2.95,0-1.78-1.34a2.41,2.41,0,0,1,1.84-.78,3.22,3.22,0,0,1,1.37.32"/><path class="cls-22" d="M38.16,64.6a4.76,4.76,0,0,1,1.07,1.25,2.32,2.32,0,0,1,.44,2c-.49,1.37-2.86.58-2-.94a2.66,2.66,0,0,1,3.06-1.08"/><path class="cls-22" d="M40.72,65.85a3.76,3.76,0,0,1,1.31,1,2.25,2.25,0,0,1,.76,1.91,1.15,1.15,0,0,1-1.38.88,1.06,1.06,0,0,1-.74-1.46,2.19,2.19,0,0,1,1.42-1.39,2.89,2.89,0,0,1,1.46-.18"/><path class="cls-22" d="M43.55,66.65c.52.18,2.58,1.26,2.44,2.71A1.09,1.09,0,1,1,43.83,69a2.55,2.55,0,0,1,2.69-1.89"/><path class="cls-22" d="M46.51,67.14c.6.09,2.74,1.09,2.68,2.52A1.09,1.09,0,1,1,47,69.48a2.54,2.54,0,0,1,2.55-2.07"/><path class="cls-22" d="M49.58,67.41a4,4,0,0,1,1.59.62,2.26,2.26,0,0,1,1.29,1.61,1.13,1.13,0,0,1-1.07,1.22,1,1,0,0,1-1.13-1.17,2.2,2.2,0,0,1,.95-1.75,2.58,2.58,0,0,1,1.32-.58"/><path class="cls-22" d="M52.53,67.36a3.92,3.92,0,0,1,1.62.37,2.32,2.32,0,0,1,1.55,1.34,1.15,1.15,0,0,1-.85,1.42,1.06,1.06,0,0,1-1.32-1,2.22,2.22,0,0,1,.65-1.87,2.72,2.72,0,0,1,1.16-.82"/><path class="cls-22" d="M55.32,66.83a5.51,5.51,0,0,1,1.63,0,2.51,2.51,0,0,1,1.8,1c.76,1.34-1.51,2.49-2,.9a2.35,2.35,0,0,1,.23-2,3.67,3.67,0,0,1,.5-.64,1.85,1.85,0,0,1,.44-.4"/><path class="cls-22" d="M57.9,65.74a5.23,5.23,0,0,1,1.61-.31,2.31,2.31,0,0,1,2,.58c1,1.08-.88,2.82-1.79,1.31a2.39,2.39,0,0,1-.2-2,2.49,2.49,0,0,1,.72-1.22"/><path class="cls-22" d="M60.21,64.13a5.11,5.11,0,0,1,1.51-.67,2.44,2.44,0,0,1,2.07.23c1.18.92-.39,2.83-1.51,1.61a2.3,2.3,0,0,1-.59-1.92A3.49,3.49,0,0,1,62.2,62"/><path class="cls-22" d="M62.2,62a3.78,3.78,0,0,1,1.41-.92,2.34,2.34,0,0,1,2.06-.1A1.11,1.11,0,0,1,66,62.6a1.05,1.05,0,0,1-1.62.23,2.67,2.67,0,0,1-.56-3.23"/><path class="cls-22" d="M63.87,59.6a3.91,3.91,0,0,1,1.31-1.1,2.26,2.26,0,0,1,2-.34,1.13,1.13,0,0,1,.56,1.52,1.06,1.06,0,0,1-1.58.41,2.64,2.64,0,0,1-.92-3.15"/><path class="cls-22" d="M65.27,56.95c.23-.52,1.91-2.21,3.22-1.75a1.09,1.09,0,1,1-.85,2,2.58,2.58,0,0,1-1.19-3.06"/><path class="cls-22" d="M66.46,54.14c.19-.55,1.7-2.39,3.09-2a1.09,1.09,0,1,1-.71,2.05,2.47,2.47,0,0,1-1.37-3"/><path class="cls-22" d="M67.46,51.23c.15-.57,1.52-2.52,2.92-2.18a1.09,1.09,0,1,1-.55,2.09,2.52,2.52,0,0,1-1.58-2.91"/><path class="cls-22" d="M68.26,48.23a4.7,4.7,0,0,1,1-1.47,2.1,2.1,0,0,1,1.87-.84A1.08,1.08,0,1,1,70.66,48a2.57,2.57,0,0,1-1.72-2.84"/><path class="cls-22" d="M68.94,45.19c.12-.59,1.36-2.65,2.79-2.42a1.08,1.08,0,1,1-.42,2.12,2.45,2.45,0,0,1-1.77-2.77"/><path class="cls-23" d="M87.89,13.15"/></g></g></svg>