<?xml version="1.0" encoding="utf-8"?>
<!-- Generator: Adobe Illustrator 19.1.0, SVG Export Plug-In . SVG Version: 6.00 Build 0)  -->
<svg version="1.1" id="P_Johns" xmlns="http://www.w3.org/2000/svg" xmlns:xlink="http://www.w3.org/1999/xlink" x="0px" y="0px"
	 viewBox="0 0 170 170" style="enable-background:new 0 0 170 170;" xml:space="preserve">
<style type="text/css">
	.st0{fill:#E1E2E3;}
	.st1{fill:#44C2CE;}
	.st2{fill:#3B79A3;}
	.st3{fill:#424750;}
	.st4{fill:none;stroke:#504F4F;stroke-width:2;stroke-miterlimit:10;}
	.st5{fill:#504F4F;}
	.st6{fill:#F16D6D;}
	.st7{fill:#87C6C0;}
	.st8{fill:#89DBD8;}
	.st9{fill:none;stroke:#C7C6C6;stroke-width:0.7565;stroke-miterlimit:10;}
	.st10{fill-rule:evenodd;clip-rule:evenodd;fill:#444751;}
	.st11{fill-rule:evenodd;clip-rule:evenodd;fill:#D6D6D5;}
	.st12{fill:#FFFFFF;}
	.st13{fill:#2B2A34;}
	.st14{fill:#2B2C2D;}
	.st15{fill:none;stroke:#504F4F;stroke-miterlimit:10;}
	.st16{fill-rule:evenodd;clip-rule:evenodd;fill:#89DBD8;}
	.st17{fill-rule:evenodd;clip-rule:evenodd;fill:#87C6C0;}
	.st18{fill:#59473A;}
	.st19{fill:none;stroke:#F2C24E;stroke-miterlimit:10;}
	.st20{fill:none;stroke:#F2C24E;stroke-linecap:round;stroke-miterlimit:10;}
	.st21{fill:#E9676D;}
	.st22{fill:#F6ECC3;}
	.st23{fill:#A6A8AB;}
	.st24{fill:none;stroke:#FFFFFF;stroke-width:5.289;stroke-miterlimit:10;}
	.st25{fill:#E6E6E6;}
	.st26{opacity:0.2;fill:none;stroke:#FFFFFF;stroke-width:3;stroke-miterlimit:10;}
	.st27{fill:none;stroke:#E9676D;stroke-linecap:round;stroke-miterlimit:10;}
	.st28{fill:#FCB856;}
	.st29{fill:none;stroke:#FCB856;stroke-linecap:round;stroke-miterlimit:10;}
	.st30{fill:none;stroke:#CBCACA;stroke-width:3.4513;stroke-miterlimit:10;}
	.st31{fill-rule:evenodd;clip-rule:evenodd;fill:#DADAD9;}
	.st32{fill:#469595;}
	.st33{fill:#2A2D35;}
	.st34{fill:#387D7B;}
	.st35{fill:#BFF7F5;}
	.st36{opacity:0.4;fill:#FFFFFF;}
	.st37{fill:#D3D3D3;}
	.st38{fill:none;stroke:#FFFFFF;stroke-width:5.0355;stroke-miterlimit:10;}
	.st39{fill:#777777;}
	.st40{fill:#70533D;}
	.st41{fill:#EA6A6D;}
	.st42{fill:#C7C6C6;}
	.st43{fill:#9FA0A3;}
	.st44{fill:#3C5777;}
	.st45{fill:#F2C24E;}
	.st46{fill:none;stroke:#E1E2E3;stroke-miterlimit:10;}
	.st47{fill:#314759;}
	.st48{fill:none;stroke:#314759;stroke-miterlimit:10;}
	.st49{fill:none;stroke:#3C5777;stroke-miterlimit:10;}
	.st50{fill:#80BBA8;}
	.st51{fill:#E94C64;}
	.st52{fill:#59C0C1;}
	.st53{fill:#8E8E8E;}
	.st54{fill:#80C0AC;}
	.st55{fill:none;stroke:#504F4F;stroke-linecap:round;stroke-miterlimit:10;}
	.st56{fill:#F9D88F;}
	.st57{fill:#BABABA;}
	.st58{clip-path:url(#XMLID_3_);fill:#F9D88F;}
	.st59{fill-rule:evenodd;clip-rule:evenodd;fill:#F2BC86;}
	.st60{fill:#F2F2F2;}
	.st61{fill:#57C4C6;}
	.st62{fill:#B4E219;}
	.st63{fill:#74777C;}
	.st64{fill:#E03E3E;}
	.st65{fill:#595C62;}
	.st66{fill:none;stroke:#C7C6C6;stroke-width:0.8879;stroke-miterlimit:10;}
	.st67{fill-rule:evenodd;clip-rule:evenodd;fill:#F9F0EB;}
	.st68{fill-rule:evenodd;clip-rule:evenodd;fill:#595C62;}
	.st69{fill:#EC7045;}
	.st70{opacity:0.7;}
	.st71{fill:#90CED2;}
	.st72{fill:#882888;}
	.st73{fill:#C1C0C0;}
	.st74{fill:#768035;}
	.st75{fill:#E3B27C;}
	.st76{fill:#775644;}
	.st77{fill:#DBC7C2;}
	.st78{fill:#D95027;}
	.st79{fill:#57BFC2;}
	.st80{clip-path:url(#SVGID_2_);}
	.st81{fill-rule:evenodd;clip-rule:evenodd;fill:#424750;}
	.st82{fill-rule:evenodd;clip-rule:evenodd;fill:#E1E2E3;}
	.st83{fill:none;stroke:#E6E6E6;stroke-miterlimit:10;}
	.st84{fill:#6BA588;}
	.st85{fill:#F9F0EB;}
	.st86{fill:none;stroke:#6BA588;stroke-miterlimit:10;}
	.st87{fill:#281A12;}
	.st88{fill:#2E465D;}
	.st89{fill:#422E21;}
	.st90{fill-rule:evenodd;clip-rule:evenodd;fill:#3C5F7C;}
	.st91{fill-rule:evenodd;clip-rule:evenodd;fill:#2E465D;}
	.st92{fill:#EDE2A2;}
	.st93{fill:#EFDFA8;}
	.st94{font-family:'Georgia';}
	.st95{font-size:1.2933px;}
	.st96{font-size:1.2934px;}
	.st97{fill:#9AC68F;}
	.st98{clip-path:url(#XMLID_5_);fill:#B4D6AA;}
	.st99{fill:#96D696;}
	.st100{clip-path:url(#XMLID_6_);fill:#A7DBA7;}
	.st101{clip-path:url(#XMLID_7_);fill:#B4D6AA;}
	.st102{fill:#4D4D4F;}
	.st103{fill:#69502E;}
	.st104{fill:#3F3F3F;}
	.st105{fill:#4C381B;}
	.st106{fill:#919090;}
	.st107{fill:#74DDE2;}
	.st108{clip-path:url(#XMLID_10_);fill:#F9D88F;}
	.st109{fill-rule:evenodd;clip-rule:evenodd;fill:#504F4F;}
	.st110{fill-rule:evenodd;clip-rule:evenodd;fill:#FFFFFF;}
	.st111{fill-rule:evenodd;clip-rule:evenodd;fill:none;stroke:#4D4D4D;stroke-miterlimit:10;}
	.st112{fill:#4D4D4D;}
	.st113{fill:#42474F;}
	.st114{fill:#E6E7E8;}
	.st115{fill:#3A3A3A;}
	.st116{fill-rule:evenodd;clip-rule:evenodd;fill:#43474F;}
	.st117{fill-rule:evenodd;clip-rule:evenodd;fill:#DBDBDA;}
	.st118{fill:#F3E7A8;}
	.st119{fill:#F4E4AD;}
	.st120{fill:none;stroke:#F4E4AD;stroke-width:0.454;stroke-miterlimit:10;}
	.st121{fill:#57C4C7;}
	.st122{clip-path:url(#SVGID_4_);fill:#E6E7E8;}
	.st123{fill-rule:evenodd;clip-rule:evenodd;fill:#42474F;}
	.st124{fill-rule:evenodd;clip-rule:evenodd;fill:#E6E7E8;}
	.st125{fill:#E5D9BE;}
	.st126{fill:#F7F1E2;}
	.st127{fill:#B5967D;}
	.st128{clip-path:url(#XMLID_11_);fill:#96D696;}
	.st129{fill-rule:evenodd;clip-rule:evenodd;fill:#92BA85;}
	.st130{fill-rule:evenodd;clip-rule:evenodd;fill:#EFEFE4;}
	.st131{fill-rule:evenodd;clip-rule:evenodd;fill:#E0E0C7;}
	.st132{fill:#999999;}
	.st133{fill:#F9C543;}
	.st134{fill:#355B77;}
	.st135{fill:#C49B49;}
	.st136{fill:#444751;}
	.st137{fill:#D6D6D5;}
	.st138{fill:none;}
	.st139{fill:#5DC667;}
	.st140{fill:#EDE9C3;}
	.st141{fill:none;stroke:#FCD98D;stroke-linecap:round;stroke-miterlimit:10;}
	.st142{fill:none;stroke:#CBCACA;stroke-width:0.5;stroke-miterlimit:10;}
	.st143{fill:none;stroke:#80C0AC;stroke-width:0.5;stroke-miterlimit:10;}
	.st144{fill:#E85273;}
	.st145{fill:#FCD224;}
	.st146{fill:#59B5CE;}
	.st147{fill:#52ACC1;}
	.st148{fill:#FAFAFA;}
	.st149{fill:#E7E6E6;}
	.st150{fill:#71D3F4;}
	.st151{fill:#A3E8E3;}
	.st152{fill:#4AAFAF;}
	.st153{fill:#F2BC86;}
	.st154{fill:#585D62;}
	.st155{fill-rule:evenodd;clip-rule:evenodd;fill:#DBDBD9;}
	.st156{fill-rule:evenodd;clip-rule:evenodd;fill:#E7E6E6;}
	.st157{fill:#2A2A34;}
	.st158{fill:none;stroke:#3B79A3;stroke-miterlimit:10;}
	.st159{fill:#EDEFED;}
	.st160{fill:none;stroke:#CCCCCC;stroke-miterlimit:10;stroke-dasharray:1,1;}
	.st161{fill:#2D567F;}
	.st162{fill:#EF89B0;}
	.st163{fill:#3F6B9E;}
	.st164{fill:#D21C5A;}
	.st165{fill:#EDC169;}
	.st166{fill:#DDAC57;}
	.st167{fill:#92BA85;}
	.st168{fill:#29507F;}
	.st169{fill:none;stroke:#EFDFA8;stroke-width:0.3783;stroke-miterlimit:10;}
	.st170{clip-path:url(#SVGID_6_);}
	.st171{fill:#AEAEAF;}
	.st172{fill:#895C4E;}
	.st173{fill-rule:evenodd;clip-rule:evenodd;fill:#F7E9DF;}
	.st174{clip-path:url(#SVGID_8_);}
	.st175{clip-path:url(#SVGID_10_);fill:#F15C60;}
	.st176{fill-rule:evenodd;clip-rule:evenodd;fill:#F4F4F4;}
	.st177{clip-path:url(#SVGID_12_);}
	.st178{clip-path:url(#SVGID_14_);fill:#F15C60;}
</style>
<g>
	<g>
		<g>
			<rect x="28.5" y="144" class="st54" width="14.2" height="1.1"/>
			<rect x="28.5" y="142.9" class="st84" width="14.2" height="1.1"/>
			<rect x="28.5" y="141.8" class="st54" width="14.2" height="1.1"/>
			<rect x="28.5" y="140.7" class="st84" width="14.2" height="1.1"/>
		</g>
		<g>
			<rect x="27.9" y="101.7" class="st54" width="14.2" height="1.1"/>
			<rect x="27.9" y="102.8" class="st84" width="14.2" height="1.1"/>
			<rect x="27.9" y="103.9" class="st54" width="14.2" height="1.1"/>
			<rect x="27.9" y="105" class="st84" width="14.2" height="1.1"/>
			<rect x="33" y="101.7" class="st45" width="3.9" height="4.4"/>
			<g>
				<path class="st85" d="M34,105l0.2-0.1v-0.7h-0.1c-0.1,0-0.2-0.1-0.2-0.2c0-0.1,0.1-0.2,0.2-0.2h0.1v-0.4c0-0.3,0.1-0.5,0.3-0.7
					c0.2-0.2,0.4-0.3,0.7-0.3c0.4,0,0.6,0.1,0.8,0.3c0,0,0.1,0.1,0.1,0.2c0,0.1-0.1,0.2-0.2,0.2c-0.1,0-0.1,0-0.2-0.1
					c-0.1-0.1-0.2-0.2-0.4-0.2c-0.1,0-0.2,0-0.3,0.1c-0.1,0.1-0.1,0.2-0.1,0.4v0.4h0.8c0.1,0,0.2,0.1,0.2,0.2c0,0.1-0.1,0.2-0.2,0.2
					h-0.8v0.7h1.1c0.1,0,0.2,0.1,0.2,0.2c0,0.1-0.1,0.2-0.2,0.2h-1.8c-0.1,0-0.2-0.1-0.2-0.2C33.9,105.1,33.9,105,34,105z"/>
			</g>
		</g>
		<g>
			<rect x="25.9" y="97.5" class="st54" width="14.2" height="1.1"/>
			<rect x="25.9" y="98.6" class="st84" width="14.2" height="1.1"/>
			<rect x="25.9" y="99.7" class="st54" width="14.2" height="1.1"/>
			<rect x="25.9" y="100.8" class="st84" width="14.2" height="1.1"/>
			<rect x="31.1" y="97.5" class="st45" width="3.9" height="4.4"/>
			<g>
				<path class="st85" d="M32.1,100.8l0.2-0.1V100h-0.1c-0.1,0-0.2-0.1-0.2-0.2c0-0.1,0.1-0.2,0.2-0.2h0.1v-0.4
					c0-0.3,0.1-0.5,0.3-0.7c0.2-0.2,0.4-0.3,0.7-0.3c0.4,0,0.6,0.1,0.8,0.3c0,0,0.1,0.1,0.1,0.2c0,0.1-0.1,0.2-0.2,0.2
					c-0.1,0-0.1,0-0.2-0.1c-0.1-0.1-0.2-0.2-0.4-0.2c-0.1,0-0.2,0-0.3,0.1c-0.1,0.1-0.1,0.2-0.1,0.4v0.4h0.8c0.1,0,0.2,0.1,0.2,0.2
					c0,0.1-0.1,0.2-0.2,0.2h-0.8v0.7h1.1c0.1,0,0.2,0.1,0.2,0.2c0,0.1-0.1,0.2-0.2,0.2h-1.8c-0.1,0-0.2-0.1-0.2-0.2
					C31.9,100.9,32,100.8,32.1,100.8z"/>
			</g>
		</g>
		<g>
			<rect x="29.2" y="149.6" class="st54" width="14.2" height="1.1"/>
			<rect x="29.2" y="150.7" class="st84" width="14.2" height="1.1"/>
			<rect x="29.2" y="151.8" class="st54" width="14.2" height="1.1"/>
			<rect x="29.2" y="152.9" class="st84" width="14.2" height="1.1"/>
			<rect x="34.3" y="149.6" class="st45" width="3.9" height="4.4"/>
			<g>
				<path class="st85" d="M35.3,152.9l0.2-0.1v-0.7h-0.1c-0.1,0-0.2-0.1-0.2-0.2c0-0.1,0.1-0.2,0.2-0.2h0.1v-0.4
					c0-0.3,0.1-0.5,0.3-0.7c0.2-0.2,0.4-0.3,0.7-0.3c0.4,0,0.6,0.1,0.8,0.3c0,0,0.1,0.1,0.1,0.2c0,0.1-0.1,0.2-0.2,0.2
					c-0.1,0-0.1,0-0.2-0.1c-0.1-0.1-0.2-0.2-0.4-0.2c-0.1,0-0.2,0-0.3,0.1c-0.1,0.1-0.1,0.2-0.1,0.4v0.4h0.8c0.1,0,0.2,0.1,0.2,0.2
					c0,0.1-0.1,0.2-0.2,0.2H36v0.7h1.1c0.1,0,0.2,0.1,0.2,0.2c0,0.1-0.1,0.2-0.2,0.2h-1.8c-0.1,0-0.2-0.1-0.2-0.2
					C35.2,153,35.2,152.9,35.3,152.9z"/>
			</g>
		</g>
		<g>
			<rect x="27.2" y="136.4" class="st54" width="14.2" height="1.1"/>
			<rect x="27.2" y="137.5" class="st84" width="14.2" height="1.1"/>
			<rect x="27.2" y="138.6" class="st54" width="14.2" height="1.1"/>
			<rect x="27.2" y="139.7" class="st84" width="14.2" height="1.1"/>
			<rect x="32.4" y="136.4" class="st45" width="3.9" height="4.4"/>
			<g>
				<path class="st85" d="M33.4,139.7l0.2-0.1v-0.7h-0.1c-0.1,0-0.2-0.1-0.2-0.2c0-0.1,0.1-0.2,0.2-0.2h0.1v-0.4
					c0-0.3,0.1-0.5,0.3-0.7c0.2-0.2,0.4-0.3,0.7-0.3c0.4,0,0.6,0.1,0.8,0.3c0,0,0.1,0.1,0.1,0.2c0,0.1-0.1,0.2-0.2,0.2
					c-0.1,0-0.1,0-0.2-0.1c-0.1-0.1-0.2-0.2-0.4-0.2c-0.1,0-0.2,0-0.3,0.1c-0.1,0.1-0.1,0.2-0.1,0.4v0.4h0.8c0.1,0,0.2,0.1,0.2,0.2
					c0,0.1-0.1,0.2-0.2,0.2h-0.8v0.7h1.1c0.1,0,0.2,0.1,0.2,0.2c0,0.1-0.1,0.2-0.2,0.2h-1.8c-0.1,0-0.2-0.1-0.2-0.2
					C33.2,139.8,33.3,139.7,33.4,139.7z"/>
			</g>
		</g>
		<g>
			<rect x="28.1" y="145.2" class="st54" width="14.2" height="1.1"/>
			<rect x="28.1" y="146.3" class="st84" width="14.2" height="1.1"/>
			<rect x="28.1" y="147.4" class="st54" width="14.2" height="1.1"/>
			<rect x="28.1" y="148.5" class="st84" width="14.2" height="1.1"/>
		</g>
		<g>
			<rect x="26.6" y="132" class="st54" width="14.2" height="1.1"/>
			<rect x="26.6" y="133.1" class="st84" width="14.2" height="1.1"/>
			<rect x="26.6" y="134.2" class="st54" width="14.2" height="1.1"/>
			<rect x="26.6" y="135.3" class="st84" width="14.2" height="1.1"/>
			<rect x="31.7" y="132" class="st45" width="3.9" height="4.4"/>
			<g>
				<path class="st85" d="M32.7,135.3l0.2-0.1v-0.7h-0.1c-0.1,0-0.2-0.1-0.2-0.2c0-0.1,0.1-0.2,0.2-0.2h0.1v-0.4
					c0-0.3,0.1-0.5,0.3-0.7c0.2-0.2,0.4-0.3,0.7-0.3c0.4,0,0.6,0.1,0.8,0.3c0,0,0.1,0.1,0.1,0.2c0,0.1-0.1,0.2-0.2,0.2
					c-0.1,0-0.1,0-0.2-0.1c-0.1-0.1-0.2-0.2-0.4-0.2c-0.1,0-0.2,0-0.3,0.1c-0.1,0.1-0.1,0.2-0.1,0.4v0.4h0.8c0.1,0,0.2,0.1,0.2,0.2
					c0,0.1-0.1,0.2-0.2,0.2h-0.8v0.7h1.1c0.1,0,0.2,0.1,0.2,0.2c0,0.1-0.1,0.2-0.2,0.2h-1.8c-0.1,0-0.2-0.1-0.2-0.2
					C32.6,135.4,32.6,135.4,32.7,135.3z"/>
			</g>
		</g>
		<g>
			<rect x="25.8" y="118.9" class="st54" width="14.2" height="1.1"/>
			<rect x="25.8" y="120" class="st84" width="14.2" height="1.1"/>
			<rect x="25.8" y="121.1" class="st54" width="14.2" height="1.1"/>
			<rect x="25.8" y="122.2" class="st84" width="14.2" height="1.1"/>
			<rect x="31" y="118.9" class="st45" width="3.9" height="4.4"/>
			<g>
				<path class="st85" d="M31.9,122.2l0.2-0.1v-0.7H32c-0.1,0-0.2-0.1-0.2-0.2c0-0.1,0.1-0.2,0.2-0.2h0.1v-0.4
					c0-0.3,0.1-0.5,0.3-0.7c0.2-0.2,0.4-0.3,0.7-0.3c0.4,0,0.6,0.1,0.8,0.3c0,0,0.1,0.1,0.1,0.2c0,0.1-0.1,0.2-0.2,0.2
					c-0.1,0-0.1,0-0.2-0.1c-0.1-0.1-0.2-0.2-0.4-0.2c-0.1,0-0.2,0-0.3,0.1c-0.1,0.1-0.1,0.2-0.1,0.4v0.4h0.8c0.1,0,0.2,0.1,0.2,0.2
					c0,0.1-0.1,0.2-0.2,0.2h-0.8v0.7h1.1c0.1,0,0.2,0.1,0.2,0.2c0,0.1-0.1,0.2-0.2,0.2H32c-0.1,0-0.2-0.1-0.2-0.2
					C31.8,122.3,31.9,122.2,31.9,122.2z"/>
			</g>
		</g>
		<g>
			<rect x="25.5" y="127.7" class="st54" width="14.2" height="1.1"/>
			<rect x="25.5" y="128.8" class="st84" width="14.2" height="1.1"/>
			<rect x="25.5" y="129.9" class="st54" width="14.2" height="1.1"/>
			<rect x="25.5" y="130.9" class="st84" width="14.2" height="1.1"/>
		</g>
		<g>
			<rect x="27.6" y="126.6" class="st54" width="14.2" height="1.1"/>
			<rect x="27.6" y="125.5" class="st84" width="14.2" height="1.1"/>
			<rect x="27.6" y="124.4" class="st54" width="14.2" height="1.1"/>
			<rect x="27.6" y="123.3" class="st84" width="14.2" height="1.1"/>
		</g>
		<g>
			<rect x="27" y="117.9" class="st54" width="14.2" height="1.1"/>
			<rect x="27" y="116.8" class="st84" width="14.2" height="1.1"/>
			<rect x="27" y="115.7" class="st54" width="14.2" height="1.1"/>
			<rect x="27" y="114.6" class="st84" width="14.2" height="1.1"/>
		</g>
		<g>
			<rect x="24.7" y="113.6" class="st54" width="14.2" height="1.1"/>
			<rect x="24.7" y="112.5" class="st84" width="14.2" height="1.1"/>
			<rect x="24.7" y="111.4" class="st54" width="14.2" height="1.1"/>
			<rect x="24.7" y="110.3" class="st84" width="14.2" height="1.1"/>
		</g>
		<g>
			<rect x="26.7" y="109.3" class="st54" width="14.2" height="1.1"/>
			<rect x="26.7" y="108.2" class="st84" width="14.2" height="1.1"/>
			<rect x="26.7" y="107.1" class="st54" width="14.2" height="1.1"/>
			<rect x="26.7" y="106" class="st84" width="14.2" height="1.1"/>
		</g>
		<g>
			<rect x="24.1" y="71.4" class="st54" width="14.2" height="1.1"/>
			<rect x="24.1" y="72.5" class="st84" width="14.2" height="1.1"/>
			<rect x="24.1" y="73.6" class="st54" width="14.2" height="1.1"/>
			<rect x="24.1" y="74.7" class="st84" width="14.2" height="1.1"/>
			<rect x="29.2" y="71.4" class="st45" width="3.9" height="4.4"/>
			<g>
				<path class="st85" d="M30.2,74.7l0.2-0.1v-0.7h-0.1c-0.1,0-0.2-0.1-0.2-0.2c0-0.1,0.1-0.2,0.2-0.2h0.1v-0.4
					c0-0.3,0.1-0.5,0.3-0.7c0.2-0.2,0.4-0.3,0.7-0.3c0.4,0,0.6,0.1,0.8,0.3c0,0,0.1,0.1,0.1,0.2c0,0.1-0.1,0.2-0.2,0.2
					c-0.1,0-0.1,0-0.2-0.1c-0.1-0.1-0.2-0.2-0.4-0.2c-0.1,0-0.2,0-0.3,0.1c-0.1,0.1-0.1,0.2-0.1,0.4v0.4h0.8c0.1,0,0.2,0.1,0.2,0.2
					c0,0.1-0.1,0.2-0.2,0.2h-0.8v0.7h1.1c0.1,0,0.2,0.1,0.2,0.2c0,0.1-0.1,0.2-0.2,0.2h-1.8c-0.1,0-0.2-0.1-0.2-0.2
					C30.1,74.8,30.1,74.7,30.2,74.7z"/>
			</g>
		</g>
		<g>
			<rect x="25.2" y="80.1" class="st54" width="14.2" height="1.1"/>
			<rect x="25.2" y="81.2" class="st84" width="14.2" height="1.1"/>
			<rect x="25.2" y="82.3" class="st54" width="14.2" height="1.1"/>
			<rect x="25.2" y="83.4" class="st84" width="14.2" height="1.1"/>
			<rect x="30.3" y="80.1" class="st45" width="3.9" height="4.4"/>
			<g>
				<path class="st85" d="M31.3,83.4l0.2-0.1v-0.7h-0.1c-0.1,0-0.2-0.1-0.2-0.2c0-0.1,0.1-0.2,0.2-0.2h0.1v-0.4
					c0-0.3,0.1-0.5,0.3-0.7c0.2-0.2,0.4-0.3,0.7-0.3c0.4,0,0.6,0.1,0.8,0.3c0,0,0.1,0.1,0.1,0.2c0,0.1-0.1,0.2-0.2,0.2
					c-0.1,0-0.1,0-0.2-0.1c-0.1-0.1-0.2-0.2-0.4-0.2c-0.1,0-0.2,0-0.3,0.1c-0.1,0.1-0.1,0.2-0.1,0.4v0.4h0.8c0.1,0,0.2,0.1,0.2,0.2
					c0,0.1-0.1,0.2-0.2,0.2H32v0.7h1.1c0.1,0,0.2,0.1,0.2,0.2c0,0.1-0.1,0.2-0.2,0.2h-1.8c-0.1,0-0.2-0.1-0.2-0.2
					C31.2,83.5,31.2,83.4,31.3,83.4z"/>
			</g>
		</g>
		<g>
			<rect x="26.9" y="96.4" class="st54" width="14.2" height="1.1"/>
			<rect x="26.9" y="95.3" class="st84" width="14.2" height="1.1"/>
			<rect x="26.9" y="94.2" class="st54" width="14.2" height="1.1"/>
			<rect x="26.9" y="93.1" class="st84" width="14.2" height="1.1"/>
		</g>
		<g>
			<rect x="22.8" y="92.2" class="st54" width="14.2" height="1.1"/>
			<rect x="22.8" y="91.1" class="st84" width="14.2" height="1.1"/>
			<rect x="22.8" y="90" class="st54" width="14.2" height="1.1"/>
			<rect x="22.8" y="88.9" class="st84" width="14.2" height="1.1"/>
		</g>
		<g>
			<rect x="25.4" y="87.8" class="st54" width="14.2" height="1.1"/>
			<rect x="25.4" y="86.7" class="st84" width="14.2" height="1.1"/>
			<rect x="25.4" y="85.6" class="st54" width="14.2" height="1.1"/>
			<rect x="25.4" y="84.5" class="st84" width="14.2" height="1.1"/>
		</g>
		<g>
			<rect x="26" y="79" class="st54" width="14.2" height="1.1"/>
			<rect x="26" y="77.9" class="st84" width="14.2" height="1.1"/>
			<rect x="26" y="76.8" class="st54" width="14.2" height="1.1"/>
			<rect x="26" y="75.7" class="st84" width="14.2" height="1.1"/>
		</g>
		<g>
			<rect x="25" y="66.5" class="st84" width="5.5" height="0.8"/>
			<rect x="25" y="70.2" class="st54" width="14.2" height="1.1"/>
			<rect x="25" y="69.1" class="st84" width="14.2" height="1.1"/>
			<rect x="25" y="68" class="st54" width="14.2" height="1.1"/>
			<rect x="25" y="67" class="st84" width="14.2" height="1.1"/>
			<rect x="30.1" y="66.5" class="st45" width="3.9" height="4.9"/>
			<path class="st86" d="M34,66.8c0,0,3.2,0.5,4.6-2.2"/>
			<g>
				<path class="st85" d="M31.1,70l0.2-0.1v-0.7h-0.1c-0.1,0-0.2-0.1-0.2-0.2c0-0.1,0.1-0.2,0.2-0.2h0.1v-0.4c0-0.3,0.1-0.5,0.3-0.7
					c0.2-0.2,0.4-0.3,0.7-0.3c0.4,0,0.6,0.1,0.8,0.3c0,0,0.1,0.1,0.1,0.2c0,0.1-0.1,0.2-0.2,0.2c-0.1,0-0.1,0-0.2-0.1
					c-0.1-0.1-0.2-0.2-0.4-0.2c-0.1,0-0.2,0-0.3,0.1c-0.1,0.1-0.1,0.2-0.1,0.4v0.4h0.8c0.1,0,0.2,0.1,0.2,0.2c0,0.1-0.1,0.2-0.2,0.2
					h-0.8v0.7h1.1c0.1,0,0.2,0.1,0.2,0.2c0,0.1-0.1,0.2-0.2,0.2h-1.8c-0.1,0-0.2-0.1-0.2-0.2C31,70.1,31,70,31.1,70z"/>
			</g>
		</g>
	</g>
	<g>
		<g>
			<rect x="126.6" y="149.6" class="st54" width="14.2" height="1.1"/>
			<rect x="126.6" y="150.7" class="st84" width="14.2" height="1.1"/>
			<rect x="126.6" y="151.8" class="st54" width="14.2" height="1.1"/>
			<rect x="126.6" y="152.9" class="st84" width="14.2" height="1.1"/>
			<rect x="131.7" y="149.6" class="st45" width="3.9" height="4.4"/>
			<g>
				<path class="st85" d="M132.7,152.9l0.2-0.1v-0.7h-0.1c-0.1,0-0.2-0.1-0.2-0.2c0-0.1,0.1-0.2,0.2-0.2h0.1v-0.4
					c0-0.3,0.1-0.5,0.3-0.7c0.2-0.2,0.4-0.3,0.7-0.3c0.4,0,0.6,0.1,0.8,0.3c0,0,0.1,0.1,0.1,0.2c0,0.1-0.1,0.2-0.2,0.2
					c-0.1,0-0.1,0-0.2-0.1c-0.1-0.1-0.2-0.2-0.4-0.2c-0.1,0-0.2,0-0.3,0.1c-0.1,0.1-0.1,0.2-0.1,0.4v0.4h0.8c0.1,0,0.2,0.1,0.2,0.2
					c0,0.1-0.1,0.2-0.2,0.2h-0.8v0.7h1.1c0.1,0,0.2,0.1,0.2,0.2c0,0.1-0.1,0.2-0.2,0.2h-1.8c-0.1,0-0.2-0.1-0.2-0.2
					C132.6,153,132.6,152.9,132.7,152.9z"/>
			</g>
		</g>
		<g>
			<rect x="124.6" y="136.4" class="st54" width="14.2" height="1.1"/>
			<rect x="124.6" y="137.5" class="st84" width="14.2" height="1.1"/>
			<rect x="124.6" y="138.6" class="st54" width="14.2" height="1.1"/>
			<rect x="124.6" y="139.7" class="st84" width="14.2" height="1.1"/>
			<rect x="129.8" y="136.4" class="st45" width="3.9" height="4.4"/>
			<g>
				<path class="st85" d="M130.8,139.7l0.2-0.1v-0.7h-0.1c-0.1,0-0.2-0.1-0.2-0.2c0-0.1,0.1-0.2,0.2-0.2h0.1v-0.4
					c0-0.3,0.1-0.5,0.3-0.7c0.2-0.2,0.4-0.3,0.7-0.3c0.4,0,0.6,0.1,0.8,0.3c0,0,0.1,0.1,0.1,0.2c0,0.1-0.1,0.2-0.2,0.2
					c-0.1,0-0.1,0-0.2-0.1c-0.1-0.1-0.2-0.2-0.4-0.2c-0.1,0-0.2,0-0.3,0.1c-0.1,0.1-0.1,0.2-0.1,0.4v0.4h0.8c0.1,0,0.2,0.1,0.2,0.2
					c0,0.1-0.1,0.2-0.2,0.2h-0.8v0.7h1.1c0.1,0,0.2,0.1,0.2,0.2c0,0.1-0.1,0.2-0.2,0.2h-1.8c-0.1,0-0.2-0.1-0.2-0.2
					C130.6,139.8,130.7,139.7,130.8,139.7z"/>
			</g>
		</g>
		<g>
			<rect x="125.5" y="145.2" class="st54" width="14.2" height="1.1"/>
			<rect x="125.5" y="146.3" class="st84" width="14.2" height="1.1"/>
			<rect x="125.5" y="147.4" class="st54" width="14.2" height="1.1"/>
			<rect x="125.5" y="148.5" class="st84" width="14.2" height="1.1"/>
		</g>
		<g>
			<rect x="127" y="144.1" class="st54" width="14.2" height="1.1"/>
			<rect x="127" y="143" class="st84" width="14.2" height="1.1"/>
			<rect x="127" y="141.9" class="st54" width="14.2" height="1.1"/>
			<rect x="127" y="140.8" class="st84" width="14.2" height="1.1"/>
		</g>
		<g>
			<rect x="123.9" y="132" class="st54" width="14.2" height="1.1"/>
			<rect x="123.9" y="133.1" class="st84" width="14.2" height="1.1"/>
			<rect x="123.9" y="134.2" class="st54" width="14.2" height="1.1"/>
			<rect x="123.9" y="135.3" class="st84" width="14.2" height="1.1"/>
			<rect x="129.1" y="132" class="st45" width="3.9" height="4.4"/>
			<g>
				<path class="st85" d="M130.1,135.3l0.2-0.1v-0.7h-0.1c-0.1,0-0.2-0.1-0.2-0.2c0-0.1,0.1-0.2,0.2-0.2h0.1v-0.4
					c0-0.3,0.1-0.5,0.3-0.7c0.2-0.2,0.4-0.3,0.7-0.3c0.4,0,0.6,0.1,0.8,0.3c0,0,0.1,0.1,0.1,0.2c0,0.1-0.1,0.2-0.2,0.2
					c-0.1,0-0.1,0-0.2-0.1c-0.1-0.1-0.2-0.2-0.4-0.2c-0.1,0-0.2,0-0.3,0.1c-0.1,0.1-0.1,0.2-0.1,0.4v0.4h0.8c0.1,0,0.2,0.1,0.2,0.2
					c0,0.1-0.1,0.2-0.2,0.2h-0.8v0.7h1.1c0.1,0,0.2,0.1,0.2,0.2c0,0.1-0.1,0.2-0.2,0.2h-1.8c-0.1,0-0.2-0.1-0.2-0.2
					C130,135.4,130,135.4,130.1,135.3z"/>
			</g>
		</g>
		<g>
			<rect x="125" y="118.9" class="st54" width="14.2" height="1.1"/>
			<rect x="125" y="120" class="st84" width="14.2" height="1.1"/>
			<rect x="125" y="121.1" class="st54" width="14.2" height="1.1"/>
			<rect x="125" y="122.2" class="st84" width="14.2" height="1.1"/>
			<rect x="130.1" y="118.9" class="st45" width="3.9" height="4.4"/>
			<g>
				<path class="st85" d="M131.1,122.2l0.2-0.1v-0.7h-0.1c-0.1,0-0.2-0.1-0.2-0.2c0-0.1,0.1-0.2,0.2-0.2h0.1v-0.4
					c0-0.3,0.1-0.5,0.3-0.7c0.2-0.2,0.4-0.3,0.7-0.3c0.4,0,0.6,0.1,0.8,0.3c0,0,0.1,0.1,0.1,0.2c0,0.1-0.1,0.2-0.2,0.2
					c-0.1,0-0.1,0-0.2-0.1c-0.1-0.1-0.2-0.2-0.4-0.2c-0.1,0-0.2,0-0.3,0.1c-0.1,0.1-0.1,0.2-0.1,0.4v0.4h0.8c0.1,0,0.2,0.1,0.2,0.2
					c0,0.1-0.1,0.2-0.2,0.2h-0.8v0.7h1.1c0.1,0,0.2,0.1,0.2,0.2c0,0.1-0.1,0.2-0.2,0.2h-1.8c-0.1,0-0.2-0.1-0.2-0.2
					C131,122.3,131,122.2,131.1,122.2z"/>
			</g>
		</g>
		<g>
			<rect x="125.2" y="127.7" class="st54" width="14.2" height="1.1"/>
			<rect x="125.2" y="128.8" class="st84" width="14.2" height="1.1"/>
			<rect x="125.2" y="129.9" class="st54" width="14.2" height="1.1"/>
			<rect x="125.2" y="130.9" class="st84" width="14.2" height="1.1"/>
		</g>
		<g>
			<rect x="126.8" y="126.6" class="st54" width="14.2" height="1.1"/>
			<rect x="126.8" y="125.5" class="st84" width="14.2" height="1.1"/>
			<rect x="126.8" y="124.4" class="st54" width="14.2" height="1.1"/>
			<rect x="126.8" y="123.3" class="st84" width="14.2" height="1.1"/>
		</g>
		<g>
			<rect x="126.2" y="117.9" class="st54" width="14.2" height="1.1"/>
			<rect x="126.2" y="116.8" class="st84" width="14.2" height="1.1"/>
			<rect x="126.2" y="115.7" class="st54" width="14.2" height="1.1"/>
			<rect x="126.2" y="114.6" class="st84" width="14.2" height="1.1"/>
		</g>
		<g>
			<rect x="123.9" y="113.6" class="st54" width="14.2" height="1.1"/>
			<rect x="123.9" y="112.5" class="st84" width="14.2" height="1.1"/>
			<rect x="123.9" y="111.4" class="st54" width="14.2" height="1.1"/>
			<rect x="123.9" y="110.3" class="st84" width="14.2" height="1.1"/>
		</g>
		<g>
			<rect x="125.9" y="109.3" class="st54" width="14.2" height="1.1"/>
			<rect x="125.9" y="108.2" class="st84" width="14.2" height="1.1"/>
			<rect x="125.9" y="107.1" class="st54" width="14.2" height="1.1"/>
			<rect x="125.9" y="106" class="st84" width="14.2" height="1.1"/>
		</g>
		<g>
			<rect x="126.4" y="101.6" class="st54" width="14.2" height="1.1"/>
			<rect x="126.4" y="102.7" class="st84" width="14.2" height="1.1"/>
			<rect x="126.4" y="103.8" class="st54" width="14.2" height="1.1"/>
			<rect x="126.4" y="104.9" class="st84" width="14.2" height="1.1"/>
			<rect x="131.5" y="101.6" class="st45" width="3.9" height="4.4"/>
			<g>
				<path class="st85" d="M132.5,104.9l0.2-0.1v-0.7h-0.1c-0.1,0-0.2-0.1-0.2-0.2c0-0.1,0.1-0.2,0.2-0.2h0.1v-0.4
					c0-0.3,0.1-0.5,0.3-0.7c0.2-0.2,0.4-0.3,0.7-0.3c0.4,0,0.6,0.1,0.8,0.3c0,0,0.1,0.1,0.1,0.2c0,0.1-0.1,0.2-0.2,0.2
					c-0.1,0-0.1,0-0.2-0.1c-0.1-0.1-0.2-0.2-0.4-0.2c-0.1,0-0.2,0-0.3,0.1c-0.1,0.1-0.1,0.2-0.1,0.4v0.4h0.8c0.1,0,0.2,0.1,0.2,0.2
					c0,0.1-0.1,0.2-0.2,0.2h-0.8v0.7h1.1c0.1,0,0.2,0.1,0.2,0.2c0,0.1-0.1,0.2-0.2,0.2h-1.8c-0.1,0-0.2-0.1-0.2-0.2
					C132.4,104.9,132.4,104.9,132.5,104.9z"/>
			</g>
		</g>
		<g>
			<rect x="124.4" y="88.4" class="st54" width="14.2" height="1.1"/>
			<rect x="124.4" y="89.5" class="st84" width="14.2" height="1.1"/>
			<rect x="124.4" y="90.6" class="st54" width="14.2" height="1.1"/>
			<rect x="124.4" y="91.7" class="st84" width="14.2" height="1.1"/>
			<rect x="129.6" y="88.4" class="st45" width="3.9" height="4.4"/>
			<g>
				<path class="st85" d="M130.6,91.7l0.2-0.1v-0.7h-0.1c-0.1,0-0.2-0.1-0.2-0.2c0-0.1,0.1-0.2,0.2-0.2h0.1v-0.4
					c0-0.3,0.1-0.5,0.3-0.7c0.2-0.2,0.4-0.3,0.7-0.3c0.4,0,0.6,0.1,0.8,0.3c0,0,0.1,0.1,0.1,0.2c0,0.1-0.1,0.2-0.2,0.2
					c-0.1,0-0.1,0-0.2-0.1c-0.1-0.1-0.2-0.2-0.4-0.2c-0.1,0-0.2,0-0.3,0.1c-0.1,0.1-0.1,0.2-0.1,0.4v0.4h0.8c0.1,0,0.2,0.1,0.2,0.2
					c0,0.1-0.1,0.2-0.2,0.2h-0.8v0.7h1.1c0.1,0,0.2,0.1,0.2,0.2c0,0.1-0.1,0.2-0.2,0.2h-1.8c-0.1,0-0.2-0.1-0.2-0.2
					C130.4,91.8,130.5,91.7,130.6,91.7z"/>
			</g>
		</g>
		<g>
			<rect x="125.3" y="97.2" class="st54" width="14.2" height="1.1"/>
			<rect x="125.3" y="98.3" class="st84" width="14.2" height="1.1"/>
			<rect x="125.3" y="99.4" class="st54" width="14.2" height="1.1"/>
			<rect x="125.3" y="100.5" class="st84" width="14.2" height="1.1"/>
		</g>
		<g>
			<rect x="127.5" y="96.1" class="st54" width="14.2" height="1.1"/>
			<rect x="127.5" y="95" class="st84" width="14.2" height="1.1"/>
			<rect x="127.5" y="93.9" class="st54" width="14.2" height="1.1"/>
			<rect x="127.5" y="92.8" class="st84" width="14.2" height="1.1"/>
		</g>
		<g>
			<rect x="126.1" y="83.8" class="st84" width="5.5" height="0.8"/>
			<rect x="126.1" y="87.6" class="st54" width="14.2" height="1.1"/>
			<rect x="126.1" y="86.5" class="st84" width="14.2" height="1.1"/>
			<rect x="126.1" y="85.4" class="st54" width="14.2" height="1.1"/>
			<rect x="126.1" y="84.3" class="st84" width="14.2" height="1.1"/>
			<rect x="131.2" y="83.8" class="st45" width="3.9" height="4.9"/>
			<path class="st86" d="M135.1,84.3c0,0,3.2,0,4.9-2.4"/>
			<g>
				<path class="st85" d="M132.2,87.3l0.2-0.1v-0.7h-0.1c-0.1,0-0.2-0.1-0.2-0.2c0-0.1,0.1-0.2,0.2-0.2h0.1v-0.4
					c0-0.3,0.1-0.5,0.3-0.7c0.2-0.2,0.4-0.3,0.7-0.3c0.4,0,0.6,0.1,0.8,0.3c0,0,0.1,0.1,0.1,0.2c0,0.1-0.1,0.2-0.2,0.2
					c-0.1,0-0.1,0-0.2-0.1c-0.1-0.1-0.2-0.2-0.4-0.2c-0.1,0-0.2,0-0.3,0.1c-0.1,0.1-0.1,0.2-0.1,0.4v0.4h0.8c0.1,0,0.2,0.1,0.2,0.2
					c0,0.1-0.1,0.2-0.2,0.2h-0.8v0.7h1.1c0.1,0,0.2,0.1,0.2,0.2c0,0.1-0.1,0.2-0.2,0.2h-1.8c-0.1,0-0.2-0.1-0.2-0.2
					C132.1,87.4,132.1,87.4,132.2,87.3z"/>
			</g>
		</g>
	</g>
	<g>
		<g>
			<rect x="43.6" y="132.2" class="st54" width="14.2" height="1.1"/>
			<rect x="43.6" y="133.3" class="st84" width="14.2" height="1.1"/>
			<rect x="43.6" y="134.4" class="st54" width="14.2" height="1.1"/>
			<rect x="43.6" y="135.5" class="st84" width="14.2" height="1.1"/>
		</g>
		<g>
			<rect x="44.7" y="145.1" class="st54" width="14.2" height="1.1"/>
			<rect x="44.7" y="146.2" class="st84" width="14.2" height="1.1"/>
			<rect x="44.7" y="147.3" class="st54" width="14.2" height="1.1"/>
			<rect x="44.7" y="148.4" class="st84" width="14.2" height="1.1"/>
			<rect x="49.9" y="145.1" class="st45" width="3.9" height="4.4"/>
			<g>
				<path class="st85" d="M50.9,148.4l0.2-0.1v-0.7H51c-0.1,0-0.2-0.1-0.2-0.2c0-0.1,0.1-0.2,0.2-0.2h0.1v-0.4
					c0-0.3,0.1-0.5,0.3-0.7c0.2-0.2,0.4-0.3,0.7-0.3c0.4,0,0.6,0.1,0.8,0.3c0,0,0.1,0.1,0.1,0.2c0,0.1-0.1,0.2-0.2,0.2
					c-0.1,0-0.1,0-0.2-0.1c-0.1-0.1-0.2-0.2-0.4-0.2c-0.1,0-0.2,0-0.3,0.1c-0.1,0.1-0.1,0.2-0.1,0.4v0.4h0.8c0.1,0,0.2,0.1,0.2,0.2
					c0,0.1-0.1,0.2-0.2,0.2h-0.8v0.7h1.1c0.1,0,0.2,0.1,0.2,0.2c0,0.1-0.1,0.2-0.2,0.2h-1.8c-0.1,0-0.2-0.1-0.2-0.2
					C50.7,148.5,50.8,148.4,50.9,148.4z"/>
			</g>
		</g>
		<g>
			<rect x="47" y="149.6" class="st54" width="14.2" height="1.1"/>
			<rect x="47" y="150.7" class="st84" width="14.2" height="1.1"/>
			<rect x="47" y="151.8" class="st54" width="14.2" height="1.1"/>
			<rect x="47" y="152.9" class="st84" width="14.2" height="1.1"/>
		</g>
		<g>
			<rect x="45.8" y="140.7" class="st54" width="14.2" height="1.1"/>
			<rect x="45.8" y="141.8" class="st84" width="14.2" height="1.1"/>
			<rect x="45.8" y="142.9" class="st54" width="14.2" height="1.1"/>
			<rect x="45.8" y="144" class="st84" width="14.2" height="1.1"/>
		</g>
		<g>
			<rect x="46.7" y="136.4" class="st54" width="14.2" height="1.1"/>
			<rect x="46.7" y="137.4" class="st84" width="14.2" height="1.1"/>
			<rect x="46.7" y="138.5" class="st54" width="14.2" height="1.1"/>
			<rect x="46.7" y="139.6" class="st84" width="14.2" height="1.1"/>
		</g>
		<g>
			<rect x="45.3" y="131.1" class="st54" width="14.2" height="1.1"/>
			<rect x="45.3" y="130" class="st84" width="14.2" height="1.1"/>
			<rect x="45.3" y="129" class="st54" width="14.2" height="1.1"/>
			<rect x="45.3" y="127.9" class="st84" width="14.2" height="1.1"/>
			<path class="st86" d="M50.5,127.7c0,0-2.8,0.3-4.4-2.1"/>
			<path class="st86" d="M54.5,127.7c0,0,2.9,0,4.4-2.8"/>
			<rect x="50.5" y="127.4" class="st45" width="4.1" height="4.9"/>
			<g>
				<path class="st85" d="M51.6,130.9l0.2-0.1v-0.7h-0.1c-0.1,0-0.2-0.1-0.2-0.2c0-0.1,0.1-0.2,0.2-0.2h0.1v-0.4
					c0-0.3,0.1-0.5,0.3-0.7c0.2-0.2,0.4-0.3,0.7-0.3c0.4,0,0.6,0.1,0.8,0.3c0,0,0.1,0.1,0.1,0.2c0,0.1-0.1,0.2-0.2,0.2
					c-0.1,0-0.1,0-0.2-0.1c-0.1-0.1-0.2-0.2-0.4-0.2c-0.1,0-0.2,0-0.3,0.1c-0.1,0.1-0.1,0.2-0.1,0.4v0.4h0.8c0.1,0,0.2,0.1,0.2,0.2
					c0,0.1-0.1,0.2-0.2,0.2h-0.8v0.7h1.1c0.1,0,0.2,0.1,0.2,0.2c0,0.1-0.1,0.2-0.2,0.2h-1.8c-0.1,0-0.2-0.1-0.2-0.2
					C51.4,131,51.5,130.9,51.6,130.9z"/>
			</g>
		</g>
	</g>
	<g>
		<g>
			<rect x="106.3" y="122.9" class="st84" width="5.5" height="0.8"/>
			<rect x="106.3" y="126.7" class="st54" width="14.2" height="1.1"/>
			<rect x="106.3" y="125.6" class="st84" width="14.2" height="1.1"/>
			<rect x="106.3" y="124.5" class="st54" width="14.2" height="1.1"/>
			<rect x="106.3" y="123.4" class="st84" width="14.2" height="1.1"/>
			<rect x="111.5" y="122.9" class="st45" width="3.9" height="4.9"/>
			<path class="st86" d="M115.4,123.3c0,0,3.1,0.2,4.6-2"/>
			<g>
				<path class="st85" d="M112.5,126.5l0.2-0.1v-0.7h-0.1c-0.1,0-0.2-0.1-0.2-0.2c0-0.1,0.1-0.2,0.2-0.2h0.1v-0.4
					c0-0.3,0.1-0.5,0.3-0.7c0.2-0.2,0.4-0.3,0.7-0.3c0.4,0,0.6,0.1,0.8,0.3c0,0,0.1,0.1,0.1,0.2c0,0.1-0.1,0.2-0.2,0.2
					c-0.1,0-0.1,0-0.2-0.1c-0.1-0.1-0.2-0.2-0.4-0.2c-0.1,0-0.2,0-0.3,0.1c-0.1,0.1-0.1,0.2-0.1,0.4v0.4h0.8c0.1,0,0.2,0.1,0.2,0.2
					c0,0.1-0.1,0.2-0.2,0.2h-0.8v0.7h1.1c0.1,0,0.2,0.1,0.2,0.2c0,0.1-0.1,0.2-0.2,0.2h-1.8c-0.1,0-0.2-0.1-0.2-0.2
					C112.4,126.6,112.4,126.5,112.5,126.5z"/>
			</g>
		</g>
		<g>
			<rect x="104.3" y="132.2" class="st54" width="14.2" height="1.1"/>
			<rect x="104.3" y="133.3" class="st84" width="14.2" height="1.1"/>
			<rect x="104.3" y="134.4" class="st54" width="14.2" height="1.1"/>
			<rect x="104.3" y="135.5" class="st84" width="14.2" height="1.1"/>
		</g>
		<g>
			<rect x="107.4" y="127.8" class="st54" width="14.2" height="1.1"/>
			<rect x="107.4" y="128.9" class="st84" width="14.2" height="1.1"/>
			<rect x="107.4" y="130" class="st54" width="14.2" height="1.1"/>
			<rect x="107.4" y="131.1" class="st84" width="14.2" height="1.1"/>
			<rect x="112.5" y="127.8" class="st45" width="3.9" height="4.4"/>
			<g>
				<path class="st85" d="M113.5,131.1l0.2-0.1v-0.7h-0.1c-0.1,0-0.2-0.1-0.2-0.2c0-0.1,0.1-0.2,0.2-0.2h0.1v-0.4
					c0-0.3,0.1-0.5,0.3-0.7c0.2-0.2,0.4-0.3,0.7-0.3c0.4,0,0.6,0.1,0.8,0.3c0,0,0.1,0.1,0.1,0.2c0,0.1-0.1,0.2-0.2,0.2
					c-0.1,0-0.1,0-0.2-0.1c-0.1-0.1-0.2-0.2-0.4-0.2c-0.1,0-0.2,0-0.3,0.1c-0.1,0.1-0.1,0.2-0.1,0.4v0.4h0.8c0.1,0,0.2,0.1,0.2,0.2
					c0,0.1-0.1,0.2-0.2,0.2h-0.8v0.7h1.1c0.1,0,0.2,0.1,0.2,0.2c0,0.1-0.1,0.2-0.2,0.2h-1.8c-0.1,0-0.2-0.1-0.2-0.2
					C113.4,131.2,113.4,131.1,113.5,131.1z"/>
			</g>
		</g>
		<g>
			<rect x="105.4" y="145.1" class="st54" width="14.2" height="1.1"/>
			<rect x="105.4" y="146.2" class="st84" width="14.2" height="1.1"/>
			<rect x="105.4" y="147.3" class="st54" width="14.2" height="1.1"/>
			<rect x="105.4" y="148.4" class="st84" width="14.2" height="1.1"/>
			<rect x="110.6" y="145.1" class="st45" width="3.9" height="4.4"/>
			<g>
				<path class="st85" d="M111.6,148.4l0.2-0.1v-0.7h-0.1c-0.1,0-0.2-0.1-0.2-0.2c0-0.1,0.1-0.2,0.2-0.2h0.1v-0.4
					c0-0.3,0.1-0.5,0.3-0.7c0.2-0.2,0.4-0.3,0.7-0.3c0.4,0,0.6,0.1,0.8,0.3c0,0,0.1,0.1,0.1,0.2c0,0.1-0.1,0.2-0.2,0.2
					c-0.1,0-0.1,0-0.2-0.1c-0.1-0.1-0.2-0.2-0.4-0.2c-0.1,0-0.2,0-0.3,0.1c-0.1,0.1-0.1,0.2-0.1,0.4v0.4h0.8c0.1,0,0.2,0.1,0.2,0.2
					c0,0.1-0.1,0.2-0.2,0.2h-0.8v0.7h1.1c0.1,0,0.2,0.1,0.2,0.2c0,0.1-0.1,0.2-0.2,0.2h-1.8c-0.1,0-0.2-0.1-0.2-0.2
					C111.4,148.5,111.5,148.4,111.6,148.4z"/>
			</g>
		</g>
		<g>
			<rect x="107.7" y="149.6" class="st54" width="14.2" height="1.1"/>
			<rect x="107.7" y="150.7" class="st84" width="14.2" height="1.1"/>
			<rect x="107.7" y="151.8" class="st54" width="14.2" height="1.1"/>
			<rect x="107.7" y="152.9" class="st84" width="14.2" height="1.1"/>
		</g>
		<g>
			<rect x="106.5" y="140.7" class="st54" width="14.2" height="1.1"/>
			<rect x="106.5" y="141.8" class="st84" width="14.2" height="1.1"/>
			<rect x="106.5" y="142.9" class="st54" width="14.2" height="1.1"/>
			<rect x="106.5" y="144" class="st84" width="14.2" height="1.1"/>
		</g>
		<g>
			<rect x="107.4" y="136.4" class="st54" width="14.2" height="1.1"/>
			<rect x="107.4" y="137.4" class="st84" width="14.2" height="1.1"/>
			<rect x="107.4" y="138.5" class="st54" width="14.2" height="1.1"/>
			<rect x="107.4" y="139.6" class="st84" width="14.2" height="1.1"/>
		</g>
	</g>
	<g>
		<path class="st0" d="M29,99.9c-1.3-4.4-0.8-7.2-0.8-7.2s3.6,7.2,6.1,7.6c0,0-6.2-6.3-5.7-11.2c0,0,3.1,5.7,5.5,6.4
			c0,0-5.7-5-4.2-11.5c0,0,2.5,6.9,5.1,7.2c0,0-4.3-5.1-3.9-9.9c0,0,17.5,23.8,41.7,2.5L72.2,104l-11.5,14.6c0,0-17.1,6.3-27.9-10.7
			c0,0,0,0,0,0c-1.9-2.8-3-5.4-3.7-7.6C29,100.1,29,99.9,29,99.9C28.9,99.8,28.9,99.8,29,99.9z"/>
		<path class="st87" d="M50.4,104.8c0-4.7-1.2-9.1-3.3-12.9c6.9,1.7,15.7,0.5,25.7-8.2l0.4,20.3l-12.4,14.6c0,0-6.6,2.4-14.2,0.2
			C49,114.7,50.4,109.9,50.4,104.8z"/>
	</g>
	<g>
		<path class="st0" d="M138.1,99.9c1.3-4.4,0.8-7.2,0.8-7.2s-3.6,7.2-6.1,7.6c0,0,6.2-6.3,5.7-11.2c0,0-3.1,5.7-5.5,6.4
			c0,0,5.7-5,4.2-11.5c0,0-2.5,6.9-5.1,7.2c0,0,4.3-5.1,3.9-9.9c0,0-17.5,23.8-41.7,2.5l0.5,20.2l11.5,14.6c0,0,17.1,6.3,27.9-10.7
			c0,0,0,0,0,0c1.9-2.8,3-5.4,3.7-7.6C138.1,100.1,138.1,99.9,138.1,99.9C138.2,99.8,138.2,99.8,138.1,99.9z"/>
		<path class="st87" d="M116.7,104.8c0-4.7,1.2-9.1,3.3-12.9c-6.9,1.7-15.7,0.5-25.7-8.2L94,104l12.4,14.6c0,0,6.6,2.4,14.2,0.2
			C118.2,114.7,116.7,109.9,116.7,104.8z"/>
	</g>
	<path class="st88" d="M96.1,142.1L96.1,142.1c7.4-3.9,12.4-11.5,12.4-20.2c0-12.7-10.7-23-23.9-23c-13.2,0-23.9,10.3-23.9,23
		c0,8.7,5.1,16.3,12.5,20.2l-0.1,0c3.6,2.1,6.2,5.6,7,9.7c0.2-0.1,0.9-0.4,1.9,0v-7.1c0.8,0.1,1.7,0.1,2.5,0.1c0.9,0,1.7,0,2.6-0.1
		v7.1c1-0.5,1.7-0.1,1.9,0C89.8,147.7,92.5,144.2,96.1,142.1z"/>
	<path class="st42" d="M84.6,116.3c-8.7,0-15.8-7.1-15.8-15.8c0-8.7,7.1-15.8,15.8-15.8c8.7,0,15.8,7.1,15.8,15.8
		C100.5,109.2,93.4,116.3,84.6,116.3z M84.6,84.9c-8.6,0-15.6,7-15.6,15.6c0,8.6,7,15.6,15.6,15.6c8.6,0,15.6-7,15.6-15.6
		C100.2,91.9,93.2,84.9,84.6,84.9z"/>
	<path class="st89" d="M73.6,74.6c-0.2,1.5-1.1,0.2-1.6,1.7c-1.3,4.3-3.3,11.7-7.8,16c0,0,4.2,16.3,20.3,16.3
		c16.2,0,20.3-16.3,20.3-16.3c-4.4-4.2-6.4-11.7-7.8-15.9c-0.6-1.8-1.5-0.5-1.7-2.1"/>
	<path class="st33" d="M84.6,82.7c-15.9,0-28.7,14.4-28.7,32.1c0,10.9,4.9,20.6,12.4,26.4c15.1-5.8,16.3-22.1,16.3-22.1
		c2.3,15.2,11.5,20.5,16.2,22.2c7.6-5.8,12.5-15.5,12.5-26.5C113.3,97,100.4,82.7,84.6,82.7z"/>
	<path class="st89" d="M84.6,82.7c-15.9,0-28.7,14.4-28.7,32.1c0,10.9,4.9,20.6,12.4,26.4c15.2,5.4,16.3-6.5,16.3-6.5
		c2.2,11.8,13.4,7.9,16.2,6.7c7.6-5.8,12.5-15.5,12.5-26.5C113.3,97,100.4,82.7,84.6,82.7z"/>
	<g>
		<path class="st10" d="M86.2,80.7c0,0.8-0.6,1.4-1.4,1.4c-0.8,0-1.4-0.6-1.4-1.4c0-0.8,0.6-1.4,1.4-1.4
			C85.6,79.4,86.2,80,86.2,80.7z"/>
		<path class="st11" d="M85.2,80.7c0,0.2-0.1,0.3-0.3,0.3c-0.2,0-0.3-0.1-0.3-0.3c0-0.2,0.1-0.3,0.3-0.3
			C85,80.4,85.2,80.6,85.2,80.7z"/>
	</g>
	<g>
		<circle class="st10" cx="84.8" cy="88.6" r="1.4"/>
		<path class="st11" d="M85.2,88.6c0,0.2-0.1,0.3-0.3,0.3c-0.2,0-0.3-0.1-0.3-0.3c0-0.2,0.1-0.3,0.3-0.3
			C85,88.3,85.2,88.4,85.2,88.6z"/>
	</g>
	<path class="st0" d="M97.5,55.7c0.2-3.6-0.1-7.6-1.5-10.3c-0.7-2.1-3.1-3.4-5.6-4.2c1.1,0,2,0,2,0c-2.6-1.7-4.9-1.6-6.6-1
		c-0.5-0.1-0.9-0.1-1.2-0.1c1.2-0.7,2.6-1.2,2.6-1.2c-4-1-7.5,1.2-9,2.4c-2.4,0.8-4.7,2.1-5.4,4.2c-1.4,2.7-1.7,6.6-1.5,10.3
		c-0.2,3.4,0,6,0.7,8.5c2,4.8,1.1,8.4,0.1,12.1l12.5,22.1v0.1l12.5-22.1c-0.9-3.4-2.8-7.6-0.5-12.2C97.5,61.7,97.6,58.6,97.5,55.7z"
		/>
	<path class="st12" d="M78.6,53.4c0,1.1-1.2,2.1-2.7,2.2c-1.5,0-2.8-0.8-2.8-2c0-1.1,1.2-2.1,2.7-2.2C77.3,51.4,78.6,52.2,78.6,53.4
		z"/>
	<path class="st13" d="M77.1,53.2c0.1,0.7-0.4,1.3-1.1,1.4c-0.7,0.1-1.4-0.4-1.4-1.1c-0.1-0.7,0.4-1.3,1.1-1.4
		C76.4,52.1,77,52.5,77.1,53.2z"/>
	<g>
		<path class="st12" d="M95.5,53.4c0,1.1-1.2,2.1-2.7,2.2c-1.5,0-2.8-0.8-2.8-2c0-1.1,1.2-2.1,2.7-2.2
			C94.2,51.4,95.5,52.2,95.5,53.4z"/>
		<path class="st13" d="M94,53.2c0.1,0.7-0.4,1.3-1.1,1.4c-0.7,0.1-1.3-0.4-1.4-1.1c-0.1-0.7,0.4-1.3,1.1-1.4
			C93.3,52.1,93.9,52.5,94,53.2z"/>
	</g>
	<path class="st3" d="M84.4,56.2c-1.4,2.3-4.2,2.9-4.2,2.9c2.2,1.4,4.5,5.7,4.5,5.7s2.1-4.3,4.4-5.7C89,59.2,85.7,58.5,84.4,56.2z"
		/>
	<g>
		<circle class="st0" cx="84.8" cy="116.5" r="0.5"/>
		<circle class="st0" cx="84.8" cy="109.1" r="0.5"/>
		<circle class="st0" cx="84.8" cy="123.3" r="0.5"/>
		<circle class="st0" cx="84.8" cy="130" r="0.5"/>
	</g>
	<path class="st13" d="M102.2,50.1c0,0,0-0.4-0.8-0.5c-0.8-0.1-1.4-0.7-9-0.5c-5.4,0.4-6.9,1-6.9,1s-0.3,0.1-0.7,0.1
		c-0.2,0-0.4,0.1-0.7,0.1c-0.3,0-0.5,0-0.7-0.1c-0.4,0-0.6-0.1-0.6-0.1s-1.6-0.6-6.9-1c-7.5-0.2-8.2,0.4-9,0.5
		c-0.8,0.1-0.8,0.5-0.8,0.5l0,0.5c-0.1,1.5,0.3,1.6,0.3,1.6c0.1,0.1,0.2,0.3,0.2,0.3c0.4,0.2,1,1.9,1,1.9c0.7,2.1,1.8,2.3,1.8,2.3
		c3,1.1,7.8,0.5,7.8,0.5s2.7-0.1,3.6-1.2c0.6-0.8,1.6-3.3,1.6-3.3s0.2-0.4,0.6-0.6c0.5-0.2,1.1-0.2,1.1-0.2s0.6,0,1.1,0.2
		c0.4,0.3,0.6,0.7,0.6,0.7s0.9,2.5,1.5,3.3c0.9,1.1,3.6,1.2,3.6,1.2s4.9,0.6,7.8-0.5c0,0,1.1-0.3,1.8-2.3c0,0,0.5-1.7,1-1.9
		c0,0,0.2-0.2,0.2-0.3c0,0,0.4,0,0.3-1.6L102.2,50.1z M81.6,53c-0.7,2.7-1.8,3-1.8,3c-4.2,1.3-8.6,0.4-8.6,0.4
		c-2-0.1-2.3-1.5-2.3-1.5c-0.7-1.4-0.9-4-0.9-4c0-1.2,2.8-1.2,2.8-1.2c6.8-0.4,10.1,0.7,10.1,0.7C82.3,51,81.6,53,81.6,53z
		 M99.6,54.9c0,0-0.4,1.3-2.3,1.5c0,0-4.4,0.9-8.6-0.4c0,0-1.1-0.3-1.8-3c0,0-0.7-2,0.7-2.5c0,0,3.3-1.1,10.1-0.7c0,0,2.8,0,2.8,1.2
		C100.5,51,100.3,53.5,99.6,54.9z"/>
	<g>
		<path class="st90" d="M83.3,84.8l1.4,11.4v7c0,0-5.2-6.7-7.1-11.2c-1.5-3.7-5.7-14.7-5.7-14.7s4,4,5.7,5
			C78.7,83.1,83.3,84.8,83.3,84.8z"/>
		<path class="st91" d="M71.8,75.7c0,0,1.5,2.7,4.8,5.1c3.9,2.8,6.6,4.1,6.6,4.1s-1.8,1-2.5,3.4c-0.3,1-0.1,3.2-0.1,3.2
			s-6.4-6.7-8.9-14.2C71.7,76.9,71.8,75.7,71.8,75.7z"/>
		<path class="st87" d="M71.8,76.9l1,6.7l-2.8,2.9c0,0,1.9,4.6,5.3,9.9c4.3,6.6,9.3,10,9.3,10v-3.2c0,0-3.7-5-5.7-9.3
			C72.6,80.5,71.8,76.9,71.8,76.9z"/>
	</g>
	<g>
		<path class="st90" d="M86,84.7l-1.4,11.4v7c0,0,5.2-6.7,7.1-11.2c1.5-3.7,5.7-14.7,5.7-14.7s-4,4-5.7,5C90.5,83,86,84.7,86,84.7z"
			/>
		<path class="st91" d="M97.5,75.6c0,0-1.5,2.7-4.8,5.1c-3.9,2.8-6.6,4.1-6.6,4.1s1.8,1,2.5,3.4c0.3,1,0.1,3.2,0.1,3.2
			s6.4-6.7,8.9-14.2C97.6,76.8,97.5,75.6,97.5,75.6z"/>
		<path class="st87" d="M97.5,76.8l-1,6.7l2.8,2.9c0,0-1.9,4.6-5.3,9.9c-4.3,6.6-9.3,10-9.3,10v-3.2c0,0,3.7-5,5.7-9.3
			C96.7,80.4,97.5,76.8,97.5,76.8z"/>
	</g>
	<path class="st92" d="M97.2,123c-1.7-1.8-1.5-4.8,0.6-6.5c2.1-1.8,5.2-1.7,6.9,0.1c1.7,1.8,1.5,4.8-0.6,6.5
		C102.1,124.9,99,124.9,97.2,123z"/>
	<g>
		<path class="st13" d="M100.7,123.9c-1.2,0-2.3-0.4-3-1.3c-0.7-0.7-1.1-1.7-1-2.8c0.1-1.2,0.6-2.3,1.6-3.1c0.9-0.8,2-1.2,3.2-1.2
			c1.2,0,2.3,0.4,3,1.3c0.7,0.7,1.1,1.7,1,2.8c-0.1,1.2-0.6,2.3-1.6,3.1C102.9,123.5,101.8,123.9,100.7,123.9z M101.3,115.9
			c-1.1,0-2.2,0.4-3,1.1c-0.9,0.8-1.5,1.8-1.5,2.9c-0.1,1,0.3,1.9,1,2.6c0.7,0.8,1.8,1.2,2.9,1.2c1.1,0,2.2-0.4,3-1.1
			c0.9-0.8,1.5-1.8,1.5-2.9c0-1-0.3-1.9-1-2.6C103.5,116.3,102.5,115.9,101.3,115.9z"/>
	</g>
	<path class="st0" d="M98.2,122.2c-1.3-1.3-1.1-3.5,0.5-4.8c1.5-1.3,3.8-1.3,5.1,0.1c1.3,1.3,1.1,3.5-0.5,4.8
		C101.8,123.6,99.5,123.5,98.2,122.2z"/>
	<path class="st93" d="M102.1,123.7c-0.1-0.2,0-0.4,0.2-0.5l0,0c0.2-0.1,0.4,0,0.5,0.2l0.5,1.4c0.1,0.2,0,0.4-0.2,0.5l0,0
		c-0.2,0.1-0.4,0-0.5-0.2L102.1,123.7z"/>
	<path class="st93" d="M102.3,125.5c0-0.2,0.1-0.4,0.3-0.5l0.9-0.2c0.2,0,0.5,0.1,0.5,0.3l0,0c0.1,0.2-0.1,0.4-0.3,0.5l-0.9,0.2
		C102.5,125.8,102.3,125.7,102.3,125.5L102.3,125.5z"/>
	<path class="st93" d="M103.2,126.8c-0.6,0-1.2-0.4-1.3-1c-0.2-0.7,0.2-1.5,1-1.7c0.1,0,0.3-0.1,0.4-0.1c0.6,0,1.2,0.4,1.3,1
		c0.1,0.4,0.1,0.7-0.1,1.1c-0.2,0.3-0.5,0.6-0.8,0.7C103.4,126.7,103.3,126.8,103.2,126.8z M103.2,124.1c-0.1,0-0.2,0-0.4,0
		c-0.7,0.2-1.1,0.9-0.9,1.6c0.2,0.5,0.7,0.9,1.2,0.9c0.1,0,0.2,0,0.4-0.1c0.3-0.1,0.6-0.3,0.8-0.6c0.2-0.3,0.2-0.6,0.1-1
		C104.2,124.5,103.7,124.1,103.2,124.1z"/>
	<text transform="matrix(-0.9332 0.3594 -0.3594 -0.9332 100.5826 116.4517)" class="st13 st94 st95">XII</text>
	<text transform="matrix(-0.9332 0.3594 -0.3594 -0.9332 102.2191 121.3363)" class="st13 st94 st95">VI</text>
	<text transform="matrix(-0.2844 -0.9587 0.9587 -0.2844 104.2923 119.2258)" class="st13 st94 st95">III</text>
	<text transform="matrix(0.3183 0.948 -0.948 0.3183 97.8432 120.8468)" class="st13 st94 st96">IX</text>
	<path class="st13" d="M101.1,119.8c0-0.1,0-0.2,0.1-0.2c0.1,0,0.1,0,0.2,0.1c0,0.1,0,0.1-0.1,0.2
		C101.2,119.9,101.1,119.9,101.1,119.8z"/>
	
		<rect x="100.8" y="118.2" transform="matrix(-0.9178 0.3971 -0.3971 -0.9178 240.7435 188.1742)" class="st13" width="0.1" height="1.6"/>
	<polygon class="st33" points="102.2,119.3 102.3,119.4 101.2,119.8 101.2,119.7 	"/>
	<polyline class="st13" points="100.8,118.2 100.5,118 100.4,118.5 100.8,118.3 	"/>
	<polyline class="st13" points="102.3,119.5 102.5,119.2 102.1,119.1 102.2,119.5 	"/>
	<path class="st87" d="M93.9,119.5c0,0,9.9,0.7,16.1-4.1v1.8c0,0-4.9,4.8-16.1,4V119.5z"/>
	<path class="st89" d="M93.4,121.1c0,0,7,0.7,12.2-1.4c6.2-2.4,1.1,9.5,1.1,9.5l-8.1,0L93.4,121.1z"/>
	<path class="st89" d="M92.7,39.5c-0.6-1.2-1.8-0.5-2.4-0.5c-0.1,0-0.2,0-0.3,0v-2.7c0-1.8-1.2-3.3-3.3-3.6c0,0-0.7-0.2-2.3-0.2
		c-1.5,0-2.3,0.2-2.3,0.2c-2.1,0.3-3.3,1.7-3.3,3.6v2.3c0.4,0.1,0.8,0.2,1.1,0.3c0.5,0.1,1.2,0.3,1.2,0.5c0,0.1-0.2,0.2-0.3,0.2
		c0,0,0,0-0.1,0c-0.1,0-2.1-0.4-3.3-0.7c-0.5-0.1-1,0-1.4,0.7c-0.3,0.6,0.2,1.5,0.5,1.9c0.5,0.4,1.1,0.8,1.7,0.9
		c0,0,1.5,0.7,6.3,0.7c3.7,0,5.8-0.7,5.8-0.7c0.7-0.2,1.3-0.5,1.7-0.9C92.5,41,93,40.1,92.7,39.5z"/>
	<g>
		<path class="st14" d="M86.3,153.5l0.1-0.1l-0.1-0.1v-1.8c0-0.2,0.2-0.4,0.4-0.4c0,0,0.6,0.5,1.6,0.5c1,0,1.5-0.5,1.7-0.5
			c0.1,0,0-0.2,0.2,0c1.5,1.4,4.9,1.7,4.9,1.7c0.2,0,0.3,0.3,0.1,0.5c0,0-0.1,0.1-0.1,0.1l0.1,0.1c0,0.2-0.2,0.4-0.4,0.4h-8.2
			c-0.2,0-0.4-0.2-0.4-0.4V153.5z"/>
		<path class="st14" d="M82.9,153.6c0,0.2-0.2,0.4-0.4,0.4h-8.2c-0.2,0-0.4-0.2-0.4-0.4l0.1-0.1c0,0-0.1-0.1-0.1-0.1
			c-0.2-0.2-0.1-0.5,0.1-0.5c0,0,3.4-0.3,4.9-1.7c0.2-0.2,0.2,0,0.2,0c0.3,0,0.7,0.5,1.7,0.5c1,0,1.6-0.5,1.6-0.5
			c0.2,0,0.4,0.2,0.4,0.4v1.8l-0.1,0.1l0.1,0.1V153.6z"/>
	</g>
	<g>
		<g>
			<rect x="144.6" y="149.6" class="st54" width="14.2" height="1.1"/>
			<rect x="144.6" y="150.7" class="st84" width="14.2" height="1.1"/>
			<rect x="144.6" y="151.8" class="st54" width="14.2" height="1.1"/>
			<rect x="144.6" y="152.9" class="st84" width="14.2" height="1.1"/>
			<rect x="149.8" y="149.6" class="st45" width="3.9" height="4.4"/>
			<g>
				<path class="st85" d="M150.8,152.9l0.2-0.1v-0.7h-0.1c-0.1,0-0.2-0.1-0.2-0.2c0-0.1,0.1-0.2,0.2-0.2h0.1v-0.4
					c0-0.3,0.1-0.5,0.3-0.7c0.2-0.2,0.4-0.3,0.7-0.3c0.4,0,0.6,0.1,0.8,0.3c0,0,0.1,0.1,0.1,0.2c0,0.1-0.1,0.2-0.2,0.2
					c-0.1,0-0.1,0-0.2-0.1c-0.1-0.1-0.2-0.2-0.4-0.2c-0.1,0-0.2,0-0.3,0.1c-0.1,0.1-0.1,0.2-0.1,0.4v0.4h0.8c0.1,0,0.2,0.1,0.2,0.2
					c0,0.1-0.1,0.2-0.2,0.2h-0.8v0.7h1.1c0.1,0,0.2,0.1,0.2,0.2c0,0.1-0.1,0.2-0.2,0.2h-1.8c-0.1,0-0.2-0.1-0.2-0.2
					C150.7,153,150.7,152.9,150.8,152.9z"/>
			</g>
		</g>
		<g>
			<rect x="145.8" y="145.4" class="st54" width="14.2" height="1.1"/>
			<rect x="145.8" y="146.5" class="st84" width="14.2" height="1.1"/>
			<rect x="145.8" y="147.6" class="st54" width="14.2" height="1.1"/>
			<rect x="145.8" y="148.7" class="st84" width="14.2" height="1.1"/>
		</g>
		<g>
			<rect x="153.4" y="141" class="st84" width="5.5" height="0.8"/>
			<rect x="144.6" y="144.8" class="st54" width="14.2" height="1.1"/>
			<rect x="144.6" y="143.7" class="st84" width="14.2" height="1.1"/>
			<rect x="144.6" y="142.6" class="st54" width="14.2" height="1.1"/>
			<rect x="144.6" y="141.5" class="st84" width="14.2" height="1.1"/>
			<rect x="149.8" y="141" class="st45" width="3.9" height="4.9"/>
			<path class="st86" d="M149.8,141.3c0,0-2.9,0.4-4.6-1.9"/>
			<g>
				<path class="st85" d="M150.8,144.5l0.2-0.1v-0.7h-0.1c-0.1,0-0.2-0.1-0.2-0.2c0-0.1,0.1-0.2,0.2-0.2h0.1v-0.4
					c0-0.3,0.1-0.5,0.3-0.7c0.2-0.2,0.4-0.3,0.7-0.3c0.4,0,0.6,0.1,0.8,0.3c0,0,0.1,0.1,0.1,0.2c0,0.1-0.1,0.2-0.2,0.2
					c-0.1,0-0.1,0-0.2-0.1c-0.1-0.1-0.2-0.2-0.4-0.2c-0.1,0-0.2,0-0.3,0.1c-0.1,0.1-0.1,0.2-0.1,0.4v0.4h0.8c0.1,0,0.2,0.1,0.2,0.2
					c0,0.1-0.1,0.2-0.2,0.2h-0.8v0.7h1.1c0.1,0,0.2,0.1,0.2,0.2c0,0.1-0.1,0.2-0.2,0.2h-1.8c-0.1,0-0.2-0.1-0.2-0.2
					C150.7,144.6,150.7,144.5,150.8,144.5z"/>
			</g>
		</g>
	</g>
	<g>
		<g>
			<rect x="10" y="149.6" class="st54" width="14.2" height="1.1"/>
			<rect x="10" y="150.7" class="st84" width="14.2" height="1.1"/>
			<rect x="10" y="151.8" class="st54" width="14.2" height="1.1"/>
			<rect x="10" y="152.9" class="st84" width="14.2" height="1.1"/>
			<rect x="15.2" y="149.6" class="st45" width="3.9" height="4.4"/>
			<g>
				<path class="st85" d="M16.1,152.9l0.2-0.1v-0.7h-0.1c-0.1,0-0.2-0.1-0.2-0.2c0-0.1,0.1-0.2,0.2-0.2h0.1v-0.4
					c0-0.3,0.1-0.5,0.3-0.7c0.2-0.2,0.4-0.3,0.7-0.3c0.4,0,0.6,0.1,0.8,0.3c0,0,0.1,0.1,0.1,0.2c0,0.1-0.1,0.2-0.2,0.2
					c-0.1,0-0.1,0-0.2-0.1c-0.1-0.1-0.2-0.2-0.4-0.2c-0.1,0-0.2,0-0.3,0.1c-0.1,0.1-0.1,0.2-0.1,0.4v0.4h0.8c0.1,0,0.2,0.1,0.2,0.2
					c0,0.1-0.1,0.2-0.2,0.2h-0.8v0.7H18c0.1,0,0.2,0.1,0.2,0.2c0,0.1-0.1,0.2-0.2,0.2h-1.8c-0.1,0-0.2-0.1-0.2-0.2
					C16,153,16.1,152.9,16.1,152.9z"/>
			</g>
		</g>
		<g>
			<rect x="11.2" y="145.4" class="st54" width="14.2" height="1.1"/>
			<rect x="11.2" y="146.5" class="st84" width="14.2" height="1.1"/>
			<rect x="11.2" y="147.6" class="st54" width="14.2" height="1.1"/>
			<rect x="11.2" y="148.7" class="st84" width="14.2" height="1.1"/>
		</g>
		<g>
			<rect x="18.7" y="141" class="st84" width="5.5" height="0.8"/>
			<rect x="10" y="144.8" class="st54" width="14.2" height="1.1"/>
			<rect x="10" y="143.7" class="st84" width="14.2" height="1.1"/>
			<rect x="10" y="142.6" class="st54" width="14.2" height="1.1"/>
			<rect x="10" y="141.5" class="st84" width="14.2" height="1.1"/>
			<rect x="15.2" y="141" class="st45" width="3.9" height="4.9"/>
			<path class="st86" d="M15.2,141.3c0,0-2.7,0.5-4-2.1"/>
			<g>
				<path class="st85" d="M16.1,144.5l0.2-0.1v-0.7h-0.1c-0.1,0-0.2-0.1-0.2-0.2c0-0.1,0.1-0.2,0.2-0.2h0.1v-0.4
					c0-0.3,0.1-0.5,0.3-0.7c0.2-0.2,0.4-0.3,0.7-0.3c0.4,0,0.6,0.1,0.8,0.3c0,0,0.1,0.1,0.1,0.2c0,0.1-0.1,0.2-0.2,0.2
					c-0.1,0-0.1,0-0.2-0.1c-0.1-0.1-0.2-0.2-0.4-0.2c-0.1,0-0.2,0-0.3,0.1c-0.1,0.1-0.1,0.2-0.1,0.4v0.4h0.8c0.1,0,0.2,0.1,0.2,0.2
					c0,0.1-0.1,0.2-0.2,0.2h-0.8v0.7H18c0.1,0,0.2,0.1,0.2,0.2c0,0.1-0.1,0.2-0.2,0.2h-1.8c-0.1,0-0.2-0.1-0.2-0.2
					C16,144.6,16.1,144.5,16.1,144.5z"/>
			</g>
		</g>
	</g>
</g>
</svg>
