<svg xmlns="http://www.w3.org/2000/svg" viewBox="0 0 87.72 122.04"><defs><style>.cls-1{fill:#5a483b;}.cls-2{fill:#e2e3e4;}.cls-20,.cls-3{fill:#232244;}.cls-4,.cls-8,.cls-9{fill:#2c2c36;}.cls-5{fill:#e3e2e2;}.cls-6{fill:#efe0a7;}.cls-15,.cls-16,.cls-7{fill:none;}.cls-7{stroke:#efe0a7;stroke-width:0.07px;}.cls-15,.cls-16,.cls-27,.cls-30,.cls-31,.cls-32,.cls-7{stroke-miterlimit:10;}.cls-8{font-size:1.32px;}.cls-8,.cls-9{font-family:Georgia, Georgia;}.cls-9{font-size:1.32px;}.cls-10{fill:#2b2f36;}.cls-11{fill:#efcb81;}.cls-12{fill:#444952;}.cls-13,.cls-21{fill:#2d357f;}.cls-14{fill:#18254e;}.cls-15,.cls-16{stroke:#f2c24e;stroke-width:0.94px;}.cls-16{stroke-linecap:round;}.cls-17{fill:#e3e1e1;}.cls-18{fill:#fff;}.cls-19{fill:#2c2c2d;}.cls-20,.cls-21{fill-rule:evenodd;}.cls-22{fill:#281a13;}.cls-23,.cls-31,.cls-32{fill:#6590e7;}.cls-24{fill:#4873b9;}.cls-25{fill:#ff674c;}.cls-26,.cls-27{fill:#d94646;}.cls-27{stroke:#444952;}.cls-28{fill:#fac348;}.cls-29,.cls-30{fill:#e1a141;}.cls-30{stroke:#e1a141;}.cls-31{stroke:#d94646;}.cls-32{stroke:#4873b9;}</style></defs><title>Asset 14</title><g id="Layer_2" data-name="Layer 2"><g id="Layer_1-2" data-name="Layer 1"><path class="cls-1" d="M54.23,110.19h-.07A24.31,24.31,0,0,0,67.47,88.72c0-13.49-11.39-24.43-25.43-24.43S16.61,75.23,16.61,88.72A24.3,24.3,0,0,0,29.91,110.2h-.06a15.23,15.23,0,0,1,7.47,10.35,2.25,2.25,0,0,1,2,0V113a26.51,26.51,0,0,0,5.43,0v7.56a2.24,2.24,0,0,1,2,0,15.25,15.25,0,0,1,7.47-10.35"/><path class="cls-2" d="M12.86,105.8a9.47,9.47,0,0,1-3.75-5.26s2.2,4.65,6.68,5.9c0,0-3.41-2.11-3.56-5.32,0,0,1.91,5.08,6.75,5.4a7.08,7.08,0,0,1-4.28-5s2.7,4,6.07,4.73c0,0-13-19.58,12.78-32.52L35.28,60,28.57,48.06S-3.66,54.71,2.09,90.81C4,103.06,12.86,105.8,12.86,105.8Z"/><path class="cls-3" d="M18.7,88.06c1.87-4.86,6.16-10,14.84-14.31L35.28,60,28.57,48.06S.66,53.82,1.42,83.7c0,0,5.15-2.93,10.38-1.11S18.7,88.06,18.7,88.06Z"/><path class="cls-2" d="M70.93,105.8a9.47,9.47,0,0,0,3.75-5.26s-2.2,4.65-6.68,5.9c0,0,3.41-2.11,3.56-5.32,0,0-1.91,5.08-6.75,5.4a7.08,7.08,0,0,0,4.28-5s-2.7,4-6.07,4.73c0,0,13-19.58-12.78-32.52L48.51,60l6.72-11.89s32.23,6.65,26.48,42.75C79.75,103.06,70.93,105.8,70.93,105.8Z"/><path class="cls-3" d="M65.09,88.06c-1.87-4.86-6.16-10-14.84-14.31L48.51,60l6.72-11.89S83.14,53.82,82.38,83.7c0,0-5.15-2.93-10.38-1.11S65.09,88.06,65.09,88.06Z"/><path class="cls-4" d="M52.84,90.81a4.41,4.41,0,0,1-3.24-1.33,3.92,3.92,0,0,1-1.08-2.95,4.68,4.68,0,0,1,1.69-3.27A5.17,5.17,0,0,1,53.56,82a4.41,4.41,0,0,1,3.24,1.33,3.92,3.92,0,0,1,1.08,2.95,4.67,4.67,0,0,1-1.68,3.27,5.18,5.18,0,0,1-3.35,1.24m.71-8.59a5,5,0,0,0-3.22,1.19,4.46,4.46,0,0,0-1.62,3.13,3.72,3.72,0,0,0,1,2.79,4.22,4.22,0,0,0,3.1,1.27,5,5,0,0,0,3.22-1.19,4.48,4.48,0,0,0,1.62-3.13,3.73,3.73,0,0,0-1-2.79,4.2,4.2,0,0,0-3.09-1.27"/><path class="cls-5" d="M50.23,88.94a3.5,3.5,0,0,1,.5-5.12,4,4,0,0,1,5.44.07,3.49,3.49,0,0,1-.5,5.12,4,4,0,0,1-5.44-.07"/><path class="cls-6" d="M54.4,90.53a.41.41,0,1,1,.78-.29l.54,1.46a.41.41,0,1,1-.78.29Z"/><circle class="cls-7" cx="55.49" cy="92.32" r="1.43" transform="translate(-23.63 19.23) rotate(-16.26)"/><text class="cls-8" transform="matrix(-0.93, 0.36, -0.36, -0.93, 52.61, 82.77)">X</text><text class="cls-8" transform="matrix(-0.93, 0.36, -0.36, -0.93, 51.8, 83.09)">I</text><text class="cls-8" transform="matrix(-0.93, 0.36, -0.36, -0.93, 51.41, 83.24)">I</text><text class="cls-8" transform="matrix(-0.93, 0.36, -0.36, -0.93, 54.35, 87.98)">V</text><text class="cls-8" transform="matrix(-0.93, 0.36, -0.36, -0.93, 53.63, 88.26)">I</text><text class="cls-9" transform="translate(49.75 87.43) rotate(71.45)">I</text><polygon class="cls-4" points="52.68 84.79 53.33 86.38 53.46 86.32 52.81 84.74 52.68 84.79"/><polygon class="cls-10" points="53.38 86.31 53.42 86.43 54.55 85.97 54.5 85.85 53.38 86.31"/><polygon class="cls-4" points="52.58 84.96 53 84.75 52.98 84.69 52.63 84.48 52.58 84.96"/><polygon class="cls-4" points="54.52 86.08 54.58 86.07 54.82 85.75 54.34 85.65 54.52 86.08"/><path class="cls-11" d="M55.36,89.84a4.76,4.76,0,0,1,.68-7,5.45,5.45,0,0,1,7.39.09,4.76,4.76,0,0,1-.68,7,5.45,5.45,0,0,1-7.39-.1"/><path class="cls-12" d="M51.78,86s10.58.76,17.16-4.35v1.88s-5.21,5.15-17.16,4.24Z"/><path class="cls-10" d="M51.26,87.74s7.42.7,13-1.48c6.59-2.58,1.15,10.16,1.15,10.16l-8.58,0Z"/><path class="cls-13" d="M29.09,39a7.21,7.21,0,0,0-.68,2c-1.36,4.51-3.58,12.21-8.6,16.89,0,0,4.6,17.13,22.22,17.13S64.25,57.94,64.25,57.94c-4.77-4.43-7.15-12.3-8.51-16.72a23.57,23.57,0,0,0-.68-2.3"/><path class="cls-14" d="M54,110.32h0A24.15,24.15,0,0,0,67,89.09C67,75.73,55.8,65,42,65S17,75.81,17,89.09a24,24,0,0,0,13,21.23H30a15.28,15.28,0,0,1,7.38,10.25,2.12,2.12,0,0,1,2,0v-7.46c.9.08,1.8.16,2.62.16s1.8-.08,2.7-.16v7.46a2.12,2.12,0,0,1,2,0A15.54,15.54,0,0,1,54,110.32Z"/><path class="cls-1" d="M70.47,88.19a59.47,59.47,0,0,1-25.08,6.39,29.87,29.87,0,0,1-6.15-.08,67.16,67.16,0,0,1-25.82-6.72c-.9-.57-1-.41,0,2.54A67.16,67.16,0,0,0,39.24,97a24.91,24.91,0,0,0,6.15.08,61.7,61.7,0,0,0,25.08-6.39C71.62,87.53,71.62,87.53,70.47,88.19Z"/><path class="cls-15" d="M39.41,95.73v1.15a.71.71,0,0,0,.82.74l3.61-.08a.73.73,0,0,0,.74-.74V95.65a.76.76,0,0,0-.82-.74L40.14,95C39.73,94.91,39.41,95.24,39.41,95.73Z"/><line class="cls-16" x1="44.57" y1="96.22" x2="42.52" y2="96.22"/><path class="cls-13" d="M42.07,44.44c-16.58,0-30,15-30,33.55,0,11.43,3.86,21.52,11.67,27.58,15.77-6,31.58-1.69,36.45.14,7.91-6,11.94-16.2,11.94-27.71,0-18.53-13.45-33.55-30-33.55"/><path class="cls-17" d="M55.7,18.18c.19-3.86-.07-8-1.59-10.93C53.33,5,50.77,3.61,48.18,2.76c1.16,0,2.14,0,2.14,0a7.43,7.43,0,0,0-7-1.08L42,1.51A19.14,19.14,0,0,1,44.76.26c-4.29-1-8,1.29-9.55,2.56-2.53.86-5,2.23-5.75,4.42-1.52,2.88-1.79,7.07-1.59,10.93a26.5,26.5,0,0,0,.76,9.1c2.16,5.09,1.14,8.92.07,12.88,0,0,4,20.71,13.34,20.71,8.4.11,13.34-20.62,13.34-20.62-.91-3.62-2.93-8.12-.5-13a27,27,0,0,0,.82-9.06"/><path class="cls-18" d="M37,15.72c0,1.22-1.25,2.24-2.87,2.3s-3-.88-3-2.1,1.24-2.24,2.86-2.3,3,.89,3,2.1"/><path class="cls-4" d="M35.44,15.57a1.36,1.36,0,1,1-1.54-1.16,1.37,1.37,0,0,1,1.54,1.16"/><path class="cls-18" d="M53.37,15.72c0,1.22-1.25,2.24-2.87,2.3s-3-.88-3-2.1,1.24-2.24,2.86-2.3,3,.89,3,2.1"/><path class="cls-4" d="M51.77,15.57a1.36,1.36,0,1,1-1.53-1.16,1.36,1.36,0,0,1,1.53,1.16"/><path class="cls-12" d="M42,27.93s2.38-4.55,4.75-6c0,0-3.29-.66-4.75-3.12-1.46,2.45-4.75,3.12-4.75,3.12C39.66,23.38,42,27.93,42,27.93Z"/><path class="cls-19" d="M43.73,121.53l.1-.05-.1-.1v-1.77a.44.44,0,0,1,.4-.4,2.6,2.6,0,0,0,1.57.46,5,5,0,0,0,1.72-.46c.05,0,0-.25.25,0,1.52,1.42,5,1.72,5,1.72.2,0,.3.3.15.51l-.1.1.1.1a.44.44,0,0,1-.4.4H44.13a.44.44,0,0,1-.4-.4Z"/><path class="cls-19" d="M40.34,121.63a.44.44,0,0,1-.4.4h-8.2a.44.44,0,0,1-.4-.4l.1-.1a.11.11,0,0,0-.1-.1.29.29,0,0,1,.15-.51s3.44-.3,5-1.72c.25-.25.2,0,.25,0a5,5,0,0,0,1.72.46,2.6,2.6,0,0,0,1.57-.46.44.44,0,0,1,.4.4v1.77l-.1.1.1.05v.1Z"/><path class="cls-20" d="M40.87,48.1,42,59.88l0,3.73s-5.18-4.09-7.38-8.08c-2-3.65-5.92-15.18-5.92-15.18a68.15,68.15,0,0,0,5.9,5.21,51.3,51.3,0,0,0,5.95,2.55"/><path class="cls-21" d="M29.06,38.73A17.57,17.57,0,0,0,34,43.89a49.58,49.58,0,0,0,6.87,4.21,5.91,5.91,0,0,0-2.55,3.56A15.34,15.34,0,0,0,38.2,55s-6.9-7.14-9.49-14.84c-.14-.4.35-1.44.35-1.44"/><path class="cls-20" d="M43.18,48,42,59.78l.08,3.83s5.29-3.89,7.27-8.18c1.75-3.78,5.92-15.19,5.92-15.19a67.5,67.5,0,0,1-5.89,5.22,52.88,52.88,0,0,1-6,2.55"/><path class="cls-21" d="M55,38.57a17.48,17.48,0,0,1-4.95,5.22A49.32,49.32,0,0,1,43.18,48a5.89,5.89,0,0,1,2.54,3.56,15.05,15.05,0,0,1,.12,3.35s7-7.12,9.57-14.82c.13-.39-.42-1.52-.42-1.52"/><path class="cls-22" d="M28.72,40S40.51,61.06,42.07,63.61L26.5,50.83l2.05-3.6-3.08,0A71.21,71.21,0,0,0,28.72,40Z"/><path class="cls-22" d="M55.42,40.09s-11.8,21-13.35,23.52L57.64,50.88l-2.05-3.6,3.08,0A69.84,69.84,0,0,1,55.42,40.09Z"/><polygon class="cls-23" points="28.83 61.45 25.89 62.33 17.02 57.54 23.87 44.86 36.55 51.7 31.77 60.57 28.83 61.45"/><polygon class="cls-24" points="25.89 62.33 31.77 60.57 27.95 58.51 25.89 62.33"/><polygon class="cls-25" points="56.24 42.74 54.8 45.45 45.16 48.39 40.95 34.61 54.73 30.4 57.68 40.03 56.24 42.74"/><polygon class="cls-26" points="54.8 45.45 57.68 40.03 53.53 41.3 54.8 45.45"/><line class="cls-27" x1="43.82" y1="36.64" x2="53.51" y2="33.73"/><line class="cls-27" x1="44.39" y1="38.51" x2="54.08" y2="35.6"/><line class="cls-27" x1="44.95" y1="40.39" x2="54.64" y2="37.47"/><line class="cls-27" x1="45.52" y1="42.26" x2="55.21" y2="39.35"/><polygon class="cls-25" points="23.95 71.4 22.51 74.11 12.87 77.06 8.66 63.27 22.44 59.06 25.39 68.69 23.95 71.4"/><polygon class="cls-26" points="22.51 74.11 25.39 68.69 21.24 69.96 22.51 74.11"/><line class="cls-27" x1="11.54" y1="65.3" x2="21.23" y2="62.39"/><line class="cls-27" x1="12.1" y1="67.17" x2="21.79" y2="64.26"/><line class="cls-27" x1="12.66" y1="69.05" x2="22.35" y2="66.13"/><line class="cls-27" x1="13.23" y1="70.92" x2="22.92" y2="68.01"/><polygon class="cls-28" points="68.78 76.31 71.5 77.75 81.12 74.78 76.87 61.01 63.1 65.25 66.07 74.88 68.78 76.31"/><polygon class="cls-29" points="71.5 77.75 66.07 74.88 70.22 73.6 71.5 77.75"/><line class="cls-30" x1="66.07" y1="67.13" x2="75.06" y2="64.29"/><line class="cls-30" x1="67" y1="69.48" x2="74.42" y2="67.13"/><polygon class="cls-25" points="54.44 101.49 57.13 102.97 66.81 100.18 62.81 86.33 48.97 90.33 51.76 100.01 54.44 101.49"/><polygon class="cls-26" points="57.13 102.97 51.76 100.01 55.92 98.8 57.13 102.97"/><line class="cls-31" x1="52.16" y1="92.13" x2="61.35" y2="89.84"/><line class="cls-31" x1="52.77" y1="94.6" x2="61.97" y2="92.31"/><line class="cls-31" x1="53.56" y1="97.4" x2="58.16" y2="96.25"/><polygon class="cls-23" points="10.18 104.09 11.13 107.01 20.11 111.58 26.64 98.73 13.8 92.2 9.23 101.18 10.18 104.09"/><polygon class="cls-24" points="11.13 107.01 9.23 101.18 13.1 103.14 11.13 107.01"/><line class="cls-32" x1="14.9" y1="95.7" x2="23.18" y2="100.3"/><line class="cls-32" x1="13.67" y1="97.92" x2="21.95" y2="102.52"/><line class="cls-32" x1="12.33" y1="100.5" x2="16.47" y2="102.8"/><polygon class="cls-28" points="45.75 68.85 50.02 68.03 59.91 66.14 57.2 51.99 43.05 54.69 44.94 64.59 45.75 68.85"/><line class="cls-27" x1="45.33" y1="57" x2="55.85" y2="54.96"/><line class="cls-27" x1="45.78" y1="59.69" x2="56.23" y2="57.58"/><line class="cls-27" x1="46.37" y1="62.59" x2="52.03" y2="61.49"/><polygon class="cls-28" points="87.72 91.41 86.1 87.37 82.35 78.02 68.98 83.39 74.34 96.76 83.69 93.01 87.72 91.41"/><line class="cls-27" x1="76.17" y1="94.08" x2="72.16" y2="84.15"/><line class="cls-27" x1="78.72" y1="93.13" x2="74.65" y2="83.27"/><line class="cls-27" x1="81.45" y1="91.99" x2="79.3" y2="86.65"/><polygon class="cls-28" points="26.05 77.2 30.18 78.56 39.75 81.71 44.25 68.02 30.56 63.52 27.41 73.08 26.05 77.2"/><line class="cls-27" x1="31.44" y1="66.64" x2="41.62" y2="69.96"/><line class="cls-27" x1="30.52" y1="69.2" x2="40.68" y2="72.43"/><line class="cls-27" x1="29.64" y1="72.03" x2="35.11" y2="73.82"/><polygon class="cls-23" points="46.71 78.26 47.68 81.17 56.7 85.65 63.12 72.75 50.22 66.33 45.73 75.35 46.71 78.26"/><polygon class="cls-24" points="47.68 81.17 45.73 75.35 49.61 77.28 47.68 81.17"/><line class="cls-32" x1="51.35" y1="69.82" x2="59.67" y2="74.35"/><line class="cls-32" x1="50.14" y1="72.05" x2="58.46" y2="76.58"/><line class="cls-32" x1="48.83" y1="74.65" x2="52.99" y2="76.91"/><polygon class="cls-23" points="11.8 87.99 8.87 88.87 0 84.08 6.84 71.4 19.53 78.25 14.74 87.11 11.8 87.99"/><polygon class="cls-24" points="8.87 88.87 14.74 87.11 10.93 85.05 8.87 88.87"/><line class="cls-27" x1="7.37" y1="75.35" x2="15.75" y2="79.66"/><line class="cls-27" x1="6.28" y1="78.02" x2="14" y2="81.68"/><polygon class="cls-23" points="70.79 44.87 73.82 45.35 79.73 53.51 68.07 61.97 59.61 50.31 67.76 44.39 70.79 44.87"/><polygon class="cls-24" points="73.82 45.35 67.76 44.39 70.31 47.9 73.82 45.35"/><line class="cls-27" x1="69.3" y1="58.18" x2="63.62" y2="50.66"/><line class="cls-27" x1="71.45" y1="56.25" x2="66.07" y2="49.6"/><line class="cls-27" x1="25.21" y1="48.39" x2="20.9" y2="56.83"/><line class="cls-27" x1="27.26" y1="49.48" x2="23" y2="57.75"/><line class="cls-27" x1="29.16" y1="50.52" x2="25.13" y2="59.06"/><polygon class="cls-25" points="39.75 89 38.31 91.71 28.67 94.65 24.46 80.87 38.24 76.66 41.19 86.29 39.75 89"/><polygon class="cls-26" points="38.31 91.71 41.19 86.29 37.04 87.56 38.31 91.71"/><line class="cls-27" x1="27.34" y1="82.9" x2="37.03" y2="79.98"/><line class="cls-27" x1="27.9" y1="84.77" x2="37.59" y2="81.86"/><line class="cls-27" x1="28.46" y1="86.65" x2="38.15" y2="83.73"/><line class="cls-27" x1="29.03" y1="88.52" x2="38.72" y2="85.61"/><polygon class="cls-28" points="27.59 101.23 31.21 103.64 39.59 109.23 47.59 97.24 35.6 89.25 30.01 97.63 27.59 101.23"/><line class="cls-27" x1="35.61" y1="92.49" x2="44.53" y2="98.42"/><line class="cls-27" x1="34.04" y1="94.72" x2="42.97" y2="100.55"/><line class="cls-27" x1="32.43" y1="97.2" x2="37.23" y2="100.39"/></g></g></svg>