<?xml version="1.0" encoding="utf-8"?>
<!-- Generator: Adobe Illustrator 19.2.1, SVG Export Plug-In . SVG Version: 6.00 Build 0)  -->
<svg version="1.1" id="Layer_1" xmlns="http://www.w3.org/2000/svg" xmlns:xlink="http://www.w3.org/1999/xlink" x="0px" y="0px"
	 width="200px" height="200px" viewBox="0 0 200 200" style="enable-background:new 0 0 200 200;" xml:space="preserve">
<style type="text/css">
	.st0{fill:#E2E3E4;}
	.st1{fill:#595D62;}
	.st2{fill:#C7702A;}
	.st3{fill:#C9C7C7;}
	.st4{fill:#EA8824;}
	.st5{fill:none;stroke:#C9C7C7;stroke-width:0.75651;stroke-miterlimit:10;}
	.st6{fill-rule:evenodd;clip-rule:evenodd;fill:#444851;}
	.st7{fill-rule:evenodd;clip-rule:evenodd;fill:#D8D7D6;}
	.st8{fill:#FFFFFF;}
	.st9{fill:#2B2B35;}
	.st10{fill:#434850;}
	.st11{fill:#6C4396;}
	.st12{fill:#A4A4A4;}
	.st13{fill:#EA4C65;}
	.st14{fill:#94814F;}
	.st15{fill:#9C2023;}
	.st16{fill:#B7242C;}
	.st17{fill-rule:evenodd;clip-rule:evenodd;fill:#FFFFFF;}
	.st18{fill:#0C4F6E;}
	.st19{fill:#C18E46;}
	.st20{fill:#3180BF;}
	.st21{fill:#D94F4F;}
	.st22{fill:#2C2C2D;}
	.st23{fill:#595E63;}
	.st24{fill:#E3E2E2;}
	.st25{fill:#9D9EA0;}
	.st26{fill:none;stroke:#C8C6C6;stroke-width:0.75651;stroke-miterlimit:10;}
	.st27{fill:#2A2E35;}
	.st28{fill-rule:evenodd;clip-rule:evenodd;fill:#454751;}
	.st29{fill-rule:evenodd;clip-rule:evenodd;fill:#D8D7D5;}
	.st30{fill:#434851;}
	.st31{fill:#EC9424;}
	.st32{fill:#445AA4;}
	.st33{clip-path:url(#SVGID_2_);fill:#58C1C4;}
	.st34{fill:#B7DBDB;}
	.st35{fill:#58C1C4;}
	.st36{fill:none;stroke:#434851;stroke-width:1.51302;stroke-linecap:round;stroke-linejoin:round;stroke-miterlimit:10;}
	.st37{clip-path:url(#SVGID_4_);fill:#58C1C4;}
	.st38{fill:#010101;}
	.st39{fill:#161718;}
	.st40{fill-rule:evenodd;clip-rule:evenodd;fill:#010101;}
	.st41{fill:#272626;}
	.st42{fill:#17191A;}
	.st43{fill:#D4D5D4;}
	.st44{fill-rule:evenodd;clip-rule:evenodd;fill:#272626;}
	.st45{fill-rule:evenodd;clip-rule:evenodd;fill:#E2E3E4;}
	.st46{fill:#19244E;}
	.st47{fill:#E3E1E1;}
	.st48{fill:#8E1B27;}
	.st49{fill:#CA2033;}
	.st50{fill:#EFE0A7;}
	.st51{fill:none;stroke:#EFE0A7;stroke-width:0.09335;stroke-miterlimit:10;}
	.st52{fill:#EECA81;}
	.st53{fill:#F3F3F3;}
	.st54{fill:#A0A1A4;}
	.st55{fill:#EB6B6D;}
	.st56{fill:none;stroke:#CAC8C6;stroke-width:0.02289;stroke-miterlimit:10;}
	.st57{fill:#464951;}
	.st58{fill:#D7D6D6;}
	.st59{fill:#EECC82;}
	.st60{fill:#F0E0A9;}
	.st61{fill:none;stroke:#F0E0A9;stroke-width:0.01145;stroke-miterlimit:10;}
	.st62{fill:#5AC1C2;}
	.st63{clip-path:url(#SVGID_6_);fill:#E2E3E4;}
	.st64{fill:#EE7823;}
	.st65{fill:#D6563D;}
	.st66{fill:#70533D;}
	.st67{fill:#81BCA9;}
	.st68{font-family:'Georgia';}
	.st69{font-size:2.17199px;}
	.st70{font-size:2.17208px;}
	.st71{font-size:2.17222px;}
	.st72{clip-path:url(#SVGID_8_);fill:#E2E3E4;}
	.st73{fill:none;stroke:#EFE0A7;stroke-width:0.37825;stroke-miterlimit:10;}
	.st74{clip-path:url(#SVGID_10_);}
	.st75{clip-path:url(#SVGID_12_);fill:#E3E2E2;}
	.st76{clip-path:url(#SVGID_12_);}
	.st77{fill-rule:evenodd;clip-rule:evenodd;fill:#1AAEA1;}
	.st78{fill-rule:evenodd;clip-rule:evenodd;fill:#0C8C70;}
	.st79{fill:#1AAEA1;}
	.st80{fill:#6F513B;}
	.st81{fill:#515050;}
	.st82{fill:#D4563A;}
	.st83{fill:none;}
	.st84{clip-path:url(#SVGID_14_);}
	.st85{clip-path:url(#SVGID_16_);fill:#E3E2E2;}
	.st86{clip-path:url(#SVGID_16_);}
	.st87{fill:#EEE3A3;}
	.st88{fill:none;stroke:#F0E0A9;stroke-width:0.37825;stroke-miterlimit:10;}
	.st89{clip-path:url(#SVGID_18_);}
	.st90{fill-rule:evenodd;clip-rule:evenodd;fill:#434850;}
	.st91{clip-path:url(#SVGID_20_);}
	.st92{fill:none;stroke:#E4CC21;stroke-width:1.92135;stroke-miterlimit:10;}
	.st93{fill:none;stroke:#FFFFFF;stroke-width:2.2037;stroke-miterlimit:10;}
	.st94{fill:#E4CC21;}
	.st95{fill:#232244;}
	.st96{fill:#C8C6C6;}
	.st97{fill:#542F19;}
	.st98{fill-rule:evenodd;clip-rule:evenodd;fill:#3D2E21;}
	.st99{fill:#3D2E21;}
	.st100{fill-rule:evenodd;clip-rule:evenodd;fill:#232244;}
	.st101{fill-rule:evenodd;clip-rule:evenodd;fill:#2E3280;}
	.st102{fill:#281911;}
	.st103{fill-rule:evenodd;clip-rule:evenodd;fill:#E4CC21;}
	.st104{fill-rule:evenodd;clip-rule:evenodd;fill:#D85127;}
	.st105{clip-path:url(#SVGID_22_);}
	.st106{fill-rule:evenodd;clip-rule:evenodd;fill:#EE7434;}
	.st107{fill:#17733B;}
	.st108{clip-path:url(#SVGID_24_);}
	.st109{fill:#1D73B6;}
	.st110{fill:#115E8E;}
	.st111{clip-path:url(#SVGID_26_);}
	.st112{fill:none;stroke:#FFFFFF;stroke-width:1.49993;stroke-miterlimit:10;}
	.st113{fill:none;stroke:#CAC8C6;stroke-width:0.024;stroke-miterlimit:10;}
	.st114{clip-path:url(#SVGID_28_);fill:#E2E3E4;}
	.st115{fill:#603A17;}
	.st116{fill:#78471F;}
	.st117{fill:#F8FAFD;}
	.st118{clip-path:url(#SVGID_30_);}
	.st119{clip-path:url(#SVGID_32_);}
	.st120{fill:none;stroke:#FFFFFF;stroke-width:0.49998;stroke-miterlimit:10;}
	.st121{fill:none;stroke:#FFFFFF;stroke-width:0.74997;stroke-miterlimit:10;}
	.st122{clip-path:url(#SVGID_34_);}
	.st123{clip-path:url(#SVGID_36_);}
	.st124{clip-path:url(#SVGID_38_);fill:#E2E3E4;}
	.st125{clip-path:url(#SVGID_40_);}
	.st126{clip-path:url(#SVGID_42_);}
	.st127{clip-path:url(#SVGID_44_);}
	.st128{opacity:0.7;fill:#434850;}
	.st129{fill:#5B3287;}
	.st130{fill:#643E1E;}
	.st131{fill:#C8D6DE;}
	.st132{fill:none;stroke:#CAC7C6;stroke-width:0.75651;stroke-miterlimit:10;}
	.st133{fill:#B6C3CE;}
	.st134{fill:#273980;}
	.st135{fill:#2B2C35;}
	.st136{clip-path:url(#SVGID_46_);fill:#FFFFFF;stroke:#5A3B84;stroke-width:4.53905;stroke-miterlimit:10;}
	.st137{fill:#C8C7C9;}
	.st138{fill:#056F43;}
	.st139{clip-path:url(#SVGID_48_);}
	.st140{fill:#EBEDF1;}
	.st141{fill:#CF2B29;}
	.st142{fill-rule:evenodd;clip-rule:evenodd;fill:#273980;}
	.st143{fill:#D6232A;}
	.st144{clip-path:url(#SVGID_52_);fill:#FFFFFF;stroke:#5A3B84;stroke-width:4.53905;stroke-miterlimit:10;}
	.st145{clip-path:url(#SVGID_54_);}
	.st146{fill:#532D17;}
	.st147{fill:none;stroke:#5E1116;stroke-width:0.95369;stroke-miterlimit:10;}
	.st148{fill-rule:evenodd;clip-rule:evenodd;fill:#5E1116;}
	.st149{fill:none;stroke:#5E1116;stroke-width:0.94639;stroke-miterlimit:10;}
	.st150{fill:#291B13;}
	.st151{fill-rule:evenodd;clip-rule:evenodd;fill:#291B13;}
	.st152{fill-rule:evenodd;clip-rule:evenodd;fill:#454850;}
	.st153{fill-rule:evenodd;clip-rule:evenodd;fill:#74441F;}
	.st154{fill:#7F161B;}
	.st155{fill-rule:evenodd;clip-rule:evenodd;fill:#7F161B;}
	.st156{fill:none;stroke:#5E1116;stroke-width:1.04342;stroke-miterlimit:10;}
	.st157{fill:#E4E0E4;}
	.st158{clip-path:url(#SVGID_58_);fill:#E1244D;}
	.st159{clip-path:url(#SVGID_60_);fill:#E1244D;}
	.st160{fill:#292933;}
	.st161{fill:none;stroke:#CAC8C6;stroke-width:0.02378;stroke-miterlimit:10;}
	.st162{fill:none;stroke:#F0E0A9;stroke-width:0.01189;stroke-miterlimit:10;}
	.st163{clip-path:url(#SVGID_62_);fill:#E2E3E4;}
	.st164{fill:#2F465D;}
	.st165{fill:#432F21;}
	.st166{fill-rule:evenodd;clip-rule:evenodd;fill:#3D5F7C;}
	.st167{fill-rule:evenodd;clip-rule:evenodd;fill:#2F465D;}
	.st168{clip-path:url(#SVGID_64_);fill:#2C2C2D;}
	.st169{clip-path:url(#SVGID_66_);fill:#F8B917;}
	.st170{clip-path:url(#SVGID_66_);fill:#1F4394;}
	.st171{clip-path:url(#SVGID_68_);fill:#E8212F;}
	.st172{clip-path:url(#SVGID_68_);fill:#C9C8C8;}
	.st173{clip-path:url(#SVGID_68_);fill:#2A2E35;}
	.st174{clip-path:url(#SVGID_68_);fill:#444750;}
	.st175{clip-path:url(#SVGID_68_);fill:#D7D7D6;}
	.st176{clip-path:url(#SVGID_68_);fill:#E3E2E2;}
	.st177{clip-path:url(#SVGID_68_);fill:#FFFFFF;}
	.st178{clip-path:url(#SVGID_68_);fill:#2B2D34;}
	.st179{clip-path:url(#SVGID_68_);fill:#B9252D;}
	.st180{clip-path:url(#SVGID_68_);fill:#24345B;}
	.st181{clip-path:url(#SVGID_68_);fill:#F7F6F8;}
	.st182{clip-path:url(#SVGID_70_);fill:#1F4394;}
	.st183{clip-path:url(#SVGID_70_);fill:#F8B917;}
	.st184{clip-path:url(#SVGID_70_);fill:#883D1E;}
	.st185{clip-path:url(#SVGID_70_);fill:#F5D07C;}
	.st186{clip-path:url(#SVGID_72_);fill:#E8212F;}
	.st187{clip-path:url(#SVGID_72_);fill:#E3E2E2;}
	.st188{clip-path:url(#SVGID_72_);fill:#F7F6F8;}
	.st189{clip-path:url(#SVGID_72_);fill:#F8B917;}
	.st190{clip-path:url(#SVGID_72_);fill:#888983;}
	.st191{clip-path:url(#SVGID_74_);fill:#888983;}
	.st192{clip-path:url(#SVGID_74_);fill:#624219;}
	.st193{clip-path:url(#SVGID_76_);fill:#E3E2E2;}
	.st194{clip-path:url(#SVGID_76_);fill:#2C2C2D;}
	.st195{clip-path:url(#SVGID_76_);fill:#888983;}
	.st196{clip-path:url(#SVGID_78_);fill:#F8B917;}
	.st197{clip-path:url(#SVGID_78_);fill:#1F4394;}
	.st198{clip-path:url(#SVGID_80_);fill:#E8212F;}
	.st199{clip-path:url(#SVGID_80_);fill:#C9C8C8;}
	.st200{clip-path:url(#SVGID_80_);fill:#2A2E35;}
	.st201{clip-path:url(#SVGID_80_);fill:#444750;}
	.st202{clip-path:url(#SVGID_80_);fill:#D7D7D6;}
	.st203{clip-path:url(#SVGID_80_);fill:#E3E2E2;}
	.st204{clip-path:url(#SVGID_80_);fill:#FFFFFF;}
	.st205{clip-path:url(#SVGID_80_);fill:#2B2D34;}
	.st206{clip-path:url(#SVGID_80_);fill:#B9252D;}
	.st207{clip-path:url(#SVGID_80_);fill:#24345B;}
	.st208{clip-path:url(#SVGID_80_);fill:#F7F6F8;}
	.st209{clip-path:url(#SVGID_82_);fill:#1F4394;}
	.st210{clip-path:url(#SVGID_82_);fill:#F8B917;}
	.st211{clip-path:url(#SVGID_82_);fill:#883D1E;}
	.st212{clip-path:url(#SVGID_82_);fill:#F5D07C;}
	.st213{clip-path:url(#SVGID_84_);fill:#E8212F;}
	.st214{clip-path:url(#SVGID_84_);fill:#E3E2E2;}
	.st215{clip-path:url(#SVGID_84_);fill:#F7F6F8;}
	.st216{clip-path:url(#SVGID_84_);fill:#F8B917;}
	.st217{clip-path:url(#SVGID_84_);fill:#888983;}
	.st218{clip-path:url(#SVGID_86_);fill:#888983;}
	.st219{clip-path:url(#SVGID_86_);fill:#624219;}
	.st220{clip-path:url(#SVGID_88_);fill:#E3E2E2;}
	.st221{clip-path:url(#SVGID_88_);fill:#2C2C2D;}
	.st222{clip-path:url(#SVGID_90_);fill:#2C2C2D;}
	.st223{clip-path:url(#SVGID_92_);fill:#F8B917;}
	.st224{clip-path:url(#SVGID_92_);fill:#1F4394;}
	.st225{clip-path:url(#SVGID_94_);fill:#E8212F;}
	.st226{clip-path:url(#SVGID_94_);fill:#C9C8C8;}
	.st227{clip-path:url(#SVGID_94_);fill:#2A2E35;}
	.st228{clip-path:url(#SVGID_94_);fill:#444750;}
	.st229{clip-path:url(#SVGID_94_);fill:#D7D7D6;}
	.st230{clip-path:url(#SVGID_94_);fill:#E3E2E2;}
	.st231{clip-path:url(#SVGID_94_);fill:#FFFFFF;}
	.st232{clip-path:url(#SVGID_94_);fill:#2B2D34;}
	.st233{clip-path:url(#SVGID_94_);fill:#B9252D;}
	.st234{clip-path:url(#SVGID_94_);fill:#24345B;}
	.st235{clip-path:url(#SVGID_94_);fill:#F7F6F8;}
	.st236{clip-path:url(#SVGID_96_);fill:#1F4394;}
	.st237{clip-path:url(#SVGID_96_);fill:#F8B917;}
	.st238{clip-path:url(#SVGID_96_);fill:#883D1E;}
	.st239{clip-path:url(#SVGID_96_);fill:#F5D07C;}
	.st240{clip-path:url(#SVGID_98_);fill:#E8212F;}
	.st241{clip-path:url(#SVGID_98_);fill:#E3E2E2;}
	.st242{clip-path:url(#SVGID_98_);fill:#F7F6F8;}
	.st243{clip-path:url(#SVGID_98_);fill:#F8B917;}
	.st244{clip-path:url(#SVGID_98_);fill:#888983;}
	.st245{clip-path:url(#SVGID_100_);fill:#888983;}
	.st246{clip-path:url(#SVGID_100_);fill:#624219;}
	.st247{clip-path:url(#SVGID_102_);fill:#E3E2E2;}
	.st248{clip-path:url(#SVGID_102_);fill:#2C2C2D;}
	.st249{clip-path:url(#SVGID_102_);fill:#888983;}
	.st250{clip-path:url(#SVGID_104_);fill:#F8B917;}
	.st251{clip-path:url(#SVGID_104_);fill:#1F4394;}
	.st252{clip-path:url(#SVGID_106_);fill:#E8212F;}
	.st253{clip-path:url(#SVGID_106_);fill:#C9C8C8;}
	.st254{clip-path:url(#SVGID_106_);fill:#2A2E35;}
	.st255{clip-path:url(#SVGID_106_);fill:#444750;}
	.st256{clip-path:url(#SVGID_106_);fill:#D7D7D6;}
	.st257{clip-path:url(#SVGID_106_);fill:#E3E2E2;}
	.st258{clip-path:url(#SVGID_106_);fill:#FFFFFF;}
	.st259{clip-path:url(#SVGID_106_);fill:#2B2D34;}
	.st260{clip-path:url(#SVGID_106_);fill:#B9252D;}
	.st261{clip-path:url(#SVGID_106_);fill:#24345B;}
	.st262{clip-path:url(#SVGID_106_);fill:#F7F6F8;}
	.st263{clip-path:url(#SVGID_108_);fill:#1F4394;}
	.st264{clip-path:url(#SVGID_108_);fill:#F8B917;}
	.st265{clip-path:url(#SVGID_108_);fill:#883D1E;}
	.st266{clip-path:url(#SVGID_108_);fill:#F5D07C;}
	.st267{clip-path:url(#SVGID_110_);fill:#E8212F;}
	.st268{clip-path:url(#SVGID_110_);fill:#E3E2E2;}
	.st269{clip-path:url(#SVGID_110_);fill:#F7F6F8;}
	.st270{clip-path:url(#SVGID_110_);fill:#F8B917;}
	.st271{clip-path:url(#SVGID_110_);fill:#888983;}
	.st272{clip-path:url(#SVGID_112_);fill:#888983;}
	.st273{clip-path:url(#SVGID_112_);fill:#624219;}
	.st274{clip-path:url(#SVGID_114_);fill:#E3E2E2;}
	.st275{clip-path:url(#SVGID_114_);fill:#2C2C2D;}
	.st276{fill:#EDE2A3;}
	.st277{clip-path:url(#SVGID_116_);}
	.st278{fill-rule:evenodd;clip-rule:evenodd;fill:#434851;}
	.st279{fill-rule:evenodd;clip-rule:evenodd;fill:#E3E2E2;}
	.st280{fill:#2A2B2A;}
	.st281{clip-path:url(#SVGID_118_);}
	.st282{clip-path:url(#SVGID_120_);}
	.st283{clip-path:url(#SVGID_122_);}
	.st284{fill:#1F3566;}
	.st285{fill:#E3E4E5;}
	.st286{fill:#4BB1E4;}
	.st287{fill:#2D2A6C;}
	.st288{fill-rule:evenodd;clip-rule:evenodd;fill:#D8D9D5;}
	.st289{fill:#434852;}
	.st290{fill:#E3E3E3;}
	.st291{fill:#162E54;}
	.st292{fill:none;stroke:#335DAB;stroke-width:1.68786;stroke-miterlimit:10;}
	.st293{fill:#81817F;}
	.st294{fill:#142B49;}
	.st295{fill:#5A5A5A;}
	.st296{fill:none;stroke:#FFFFFF;stroke-width:0.84393;stroke-linecap:round;stroke-linejoin:round;stroke-miterlimit:10;}
	.st297{fill:#AB9D9C;}
	.st298{fill:#EA6689;}
	.st299{fill:#CE1D5B;}
	.st300{fill:#BF742A;}
	.st301{fill:#273449;}
	.st302{fill:#A4464B;}
	.st303{fill:none;stroke:#CAC8C6;stroke-width:0.0662;stroke-miterlimit:10;}
	.st304{fill:#80333A;}
	.st305{fill:none;stroke:#B4B4B4;stroke-width:0.25748;stroke-miterlimit:10;}
	.st306{fill:none;stroke:#B4B4B4;stroke-width:3.08973;stroke-miterlimit:10;}
	.st307{fill:none;stroke:#B4B4B4;stroke-width:1.02991;stroke-miterlimit:10;}
	.st308{fill:none;stroke:#82858B;stroke-width:0.51495;stroke-miterlimit:10;}
	.st309{fill:none;stroke:#E2E3E4;stroke-width:1.02991;stroke-miterlimit:10;}
	.st310{fill:#E5E5E5;}
	.st311{fill:#2D2C2D;}
	.st312{fill:#4CB2E5;}
	.st313{fill:#AD2824;}
	.st314{fill-rule:evenodd;clip-rule:evenodd;fill:#D9D9D6;}
	.st315{fill:#E4E4E3;}
	.st316{fill:#DB4826;}
	.st317{fill:#B33725;}
	.st318{fill:#120C0D;}
	.st319{fill:#F3F0F0;}
	.st320{fill:#C4BFBF;}
	.st321{clip-path:url(#SVGID_124_);fill:none;stroke:#F3F0F0;stroke-width:1.10165;stroke-linecap:round;stroke-miterlimit:10;}
	.st322{clip-path:url(#SVGID_126_);fill:none;stroke:#F3F0F0;stroke-width:1.10165;stroke-linecap:round;stroke-miterlimit:10;}
	.st323{clip-path:url(#SVGID_128_);fill:none;stroke:#F3F0F0;stroke-width:1.10165;stroke-linecap:round;stroke-miterlimit:10;}
	.st324{fill:#DE5B2A;}
	.st325{fill:#7A2716;}
	.st326{fill:#E5E4E4;}
	.st327{fill:#BB4928;}
	.st328{fill:#454545;}
	.st329{fill:#6265AE;}
	.st330{fill:none;stroke:#CAC5C4;stroke-width:0.55083;stroke-linecap:round;stroke-miterlimit:10;}
	.st331{fill:#E1E3E3;}
	.st332{fill:#484848;}
	.st333{fill:#422F90;}
	.st334{fill:#D57A28;}
	.st335{fill:#B4B4B5;}
	.st336{fill:#4B4B4D;}
	.st337{fill:#949393;}
	.st338{fill:#040404;}
	.st339{clip-path:url(#SVGID_130_);fill:none;stroke:#F3F0F0;stroke-width:1.10165;stroke-linecap:round;stroke-miterlimit:10;}
	.st340{clip-path:url(#SVGID_132_);fill:none;stroke:#F3F0F0;stroke-width:1.10165;stroke-linecap:round;stroke-miterlimit:10;}
	.st341{clip-path:url(#SVGID_134_);fill:none;stroke:#F3F0F0;stroke-width:1.10165;stroke-linecap:round;stroke-miterlimit:10;}
	.st342{clip-path:url(#SVGID_140_);fill:#AD2824;}
	.st343{fill:#CDCCCC;}
	.st344{fill:#E4E5E6;}
	.st345{opacity:0.72;fill:none;stroke:#FFFFFF;stroke-width:1.1546;stroke-linecap:round;stroke-miterlimit:10;}
	.st346{fill:#BBD867;}
	.st347{fill:none;stroke:#BBD867;stroke-width:5.799;stroke-miterlimit:10;}
	.st348{clip-path:url(#SVGID_146_);fill:#AD2824;}
	.st349{fill:none;stroke:#AE4E85;stroke-width:1.54066;stroke-linecap:round;stroke-linejoin:round;stroke-miterlimit:10;}
	.st350{fill:none;stroke:#E97625;stroke-width:1.62274;stroke-linecap:round;stroke-linejoin:round;stroke-miterlimit:10;}
	.st351{fill:none;stroke:#C9C7C7;stroke-width:0.23348;stroke-miterlimit:10;}
	.st352{fill:#981E5C;}
	.st353{fill:none;stroke:#AE4E85;stroke-width:1.21706;stroke-linecap:round;stroke-linejoin:round;stroke-miterlimit:10;}
	.st354{fill:#AE4E85;}
	.st355{fill:#F7B456;}
	.st356{fill:#E97625;}
	.st357{fill:none;stroke:#E97625;stroke-width:1.54273;stroke-linecap:round;stroke-linejoin:round;stroke-miterlimit:10;}
</style>
<g>
	<g>
		<path class="st54" d="M68.80528,198.30595H43.08604c-1.77761,0-3.21865-1.44104-3.21865-3.21866v-35.40875h32.15656v35.40875
			C72.02394,196.86491,70.5829,198.30595,68.80528,198.30595z"/>
		<rect x="39.86738" y="159.67854" class="st54" width="32.15656" height="28.23783"/>
		<rect x="38.69883" y="159.67854" class="st55" width="34.49367" height="4.23318"/>
		<path class="st55" d="M54.16547,173.03003h-0.65126c-0.92203,0-1.66949-0.74745-1.66949-1.66948v-11.68201h3.99023v11.68201
			C55.83495,172.28258,55.0875,173.03003,54.16547,173.03003z"/>
		<path class="st55" d="M65.22374,159.67854H61.2335h-3.9902v19.34236c0,1.10185,0.89323,1.99509,1.99509,1.99509h0
			c1.10186,0,1.9951-0.89323,1.9951-1.9951v-7.88678c0-1.10187,0.89325-1.99512,1.99512-1.99512h0
			c1.10188,0,1.99512,0.89325,1.99512,1.99512v11.77202c0,1.04201,0.76182,1.97253,1.79912,2.07144
			c1.18996,0.11348,2.19113-0.8192,2.19113-1.98569v-23.31334H65.22374z"/>
	</g>
	<g>
		<g>
			<path class="st1" d="M105.20001,175.91928l0.1112,0.01015c-12.53221-6.53944-21.04165-19.29974-21.04165-33.96225
				c0-21.33062,18.00143-38.62872,40.21233-38.62872c22.20278,0,40.2026,17.2981,40.2026,38.62872
				c0,14.66251-8.50742,27.42281-21.03596,33.96225l0.0994-0.00406c-6.09785,3.4976-10.50496,9.41124-11.81505,16.36302
				c-0.2634-0.14285-1.50975-0.72566-3.16643,0.03166v-11.9478c-1.40708,0.14287-2.83607,0.21997-4.28455,0.21997
				c-1.4505,0-2.88152-0.0771-4.29632-0.21997v11.9478c-1.6725-0.77112-2.93307-0.15666-3.17093-0.028
				C115.70703,185.33661,111.29586,179.42297,105.20001,175.91928"/>
			<path class="st0" d="M27.22461,111.37022c2.52261-6.91972,4.4009-3.62057,8.65785-3.00449c0,0-4.00882-5.74481-0.03762-4.45097
				c0,0-2.8336-7.64133,1.41929-7.21518c0,0-2.80824-11.3617,3.92517-6.4137c11.99294,8.81295,33.33356,16.94823,59.27445-5.96592
				l-0.81657,33.89286l-19.29366,24.45605c0,0-28.57948,10.52083-46.66046-17.93041
				c-0.01218-0.01582-0.02394-0.03571-0.03575-0.05154c-3.16681-4.72408-5.09297-9.05409-6.25819-12.75624
				c-0.08316-0.22363-0.17046-0.43791-0.25768-0.66965C27.14144,111.26104,27.1731,111.30081,27.22461,111.37022"/>
			<path class="st10" d="M63.08912,119.69134c0-7.84182-2.03699-15.1958-5.61208-21.59077
				c11.60485,2.83607,26.35259,0.91763,42.99078-13.77857l0.6181,33.93629l-20.72833,24.40857
				c0,0-11.10931,4.08203-23.84769,0.27922C60.67553,136.18057,63.08912,128.21823,63.08912,119.69134"/>
			<circle class="st56" cx="124.47885" cy="105.78025" r="26.44309"/>
			<path class="st9" d="M142.9671,62.27588c0.31291,2.46309,1.81131,0.29505,2.60596,2.901
				c2.21147,7.23711,5.54471,19.60292,13.1978,26.9569c0,0-7.02484,27.41064-34.2196,27.41064
				c-27.2028,0-34.22562-27.41064-34.22562-27.41064c7.33612-7.04879,10.7209-19.71169,13.05535-26.8181
				c0.9789-2.97446,2.55644-0.76299,2.90507-3.50369"/>
			<path class="st27" d="M124.54927,75.80485c26.68538,0,48.32526,24.16466,48.32526,53.97707
				c0,18.39394-8.24361,34.62383-20.8156,44.36786c-25.37328-9.73186-27.50966-37.17621-27.50966-37.17621
				c-3.81299,25.504-19.40852,34.46513-27.24018,37.40024c-12.72662-9.72414-21.08508-26.06525-21.08508-44.59189
				C76.22401,99.96951,97.85983,75.80485,124.54927,75.80485"/>
			<path class="st9" d="M124.54927,75.80485c26.68538,0,48.32526,24.16466,48.32526,53.97707
				c0,18.39394-8.24361,34.62383-20.8156,44.36786c-25.37328-9.73186-27.50966-37.17621-27.50966-37.17621
				c-3.81299,25.504-19.40852,34.46513-27.24018,37.40024c-12.72662-9.72414-21.08508-26.06525-21.08508-44.59189
				C76.22401,99.96951,97.85983,75.80485,124.54927,75.80485"/>
			<polygon class="st10" points="103.381,65.31568 105.75115,78.06786 101.97794,80.20222 124.12512,115.12148 124.12512,101.25768 
							"/>
			<path class="st57" d="M121.8106,72.57876c0,1.27802,1.03451,2.31821,2.31252,2.31821c1.28817,0,2.32268-1.04019,2.32268-2.31821
				c0-1.28249-1.03451-2.31659-2.32268-2.31659C122.84511,70.26217,121.8106,71.29627,121.8106,72.57876"/>
			<path class="st58" d="M123.58416,72.57876c0,0.30114,0.24391,0.54258,0.54302,0.54258c0.30114,0,0.54303-0.24144,0.54303-0.54258
				c0-0.29951-0.24189-0.54303-0.54303-0.54303C123.82807,72.03573,123.58416,72.27924,123.58416,72.57876"/>
			<path class="st59" d="M103.42036,143.74683c2.93307-3.07553,2.45335-8.00417-1.07388-10.99852
				c-3.52763-2.99435-8.76309-2.93063-11.6921,0.15099c-2.94078,3.07552-2.45336,8.00171,1.07428,11.00212
				C95.2559,146.8958,100.49175,146.8264,103.42036,143.74683"/>
			<path class="st9" d="M96.47263,131.69229c-1.9221,0-3.66604,0.70943-4.89454,2.00529
				c-1.1376,1.19321-1.71228,2.75856-1.62908,4.4193c0.09903,1.85474,1.03448,3.66035,2.56047,4.95419
				c1.42659,1.21471,3.2379,1.88477,5.09263,1.88477c1.92656,0,3.66238-0.71552,4.899-2.00977
				c1.12948-1.18872,1.70822-2.76018,1.61691-4.41522c-0.09497-1.85474-1.0264-3.66199-2.55239-4.95583
				C100.13501,132.35788,98.32371,131.69229,96.47263,131.69229 M97.60211,145.27078c-1.92982,0-3.81255-0.69359-5.30283-1.95984
				c-1.5893-1.35149-2.5605-3.23422-2.66322-5.17418c-0.09534-1.75002,0.51911-3.40466,1.71191-4.65915
				c1.29222-1.35553,3.11124-2.10229,5.12466-2.10229c1.92616,0,3.81292,0.6936,5.29917,1.95985
				c1.5893,1.35147,2.56006,3.23988,2.66318,5.17416c0.09538,1.74962-0.51502,3.40263-1.70821,4.65671
				C101.43494,144.52565,99.61552,145.27078,97.60211,145.27078"/>
			<path class="st0" d="M101.73608,142.31215c2.15588-2.26302,1.80319-5.88765-0.78856-8.09142
				c-2.60393-2.20741-6.4526-2.15587-8.60481,0.10918c-2.16399,2.26505-1.8109,5.88968,0.79303,8.09303
				C95.72381,144.63075,99.57981,144.58125,101.73608,142.31215"/>
			<path class="st60" d="M95.13699,144.83487c0.12703-0.34093-0.04343-0.71751-0.38435-0.84251
				c-0.34497-0.12662-0.71348,0.04384-0.84416,0.38475l-0.85999,2.31248c-0.11891,0.34091,0.05154,0.71921,0.3884,0.84416
				c0.34091,0.12302,0.72119-0.04744,0.84416-0.38835L95.13699,144.83487z"/>
			<path class="st60" d="M94.91133,147.85889c0.0832-0.37257-0.15463-0.74515-0.53126-0.83443l-1.5816-0.35066
				c-0.38028-0.08522-0.75285,0.15463-0.83604,0.53288c-0.0832,0.37257,0.15868,0.74718,0.53126,0.82834l1.58524,0.35309
				C94.45556,148.47699,94.82773,148.23714,94.91133,147.85889"/>
			
				<ellipse transform="matrix(0.28032 -0.95991 0.95991 0.28032 -74.51642 195.93785)" class="st61" cx="93.41203" cy="147.66365" rx="2.25715" ry="2.2586"/>
			<text transform="matrix(0.93314 0.3595 0.3595 -0.93314 97.71885 132.69153)" class="st9 st68 st69">X</text>
			<text transform="matrix(0.93314 0.3595 0.3595 -0.93314 98.99666 133.1859)" class="st9 st68 st69">I</text>
			<text transform="matrix(0.93314 0.3595 0.3595 -0.93314 99.62459 133.43304)" class="st9 st68 st69">I</text>
			<text transform="matrix(0.93314 0.3595 0.3595 -0.93314 94.96252 140.92171)" class="st9 st68 st69">V</text>
			<text transform="matrix(0.93314 0.3595 0.3595 -0.93314 96.1143 141.36021)" class="st9 st68 st69">I</text>
			<text transform="matrix(0.28438 -0.95871 -0.95871 -0.28438 91.49674 137.29784)" class="st9 st68 st70">I</text>
			<text transform="matrix(0.28438 -0.95871 -0.95871 -0.28438 91.67372 136.69435)" class="st9 st68 st70">I</text>
			<text transform="matrix(0.28438 -0.95871 -0.95871 -0.28438 91.85385 136.08363)" class="st9 st68 st70">I</text>
			<text transform="matrix(-0.31819 0.94803 0.94803 0.31819 102.64951 139.86722)" class="st9 st68 st71">I</text>
			<polygon class="st9" points="97.85577,135.75484 96.83344,138.2634 96.62726,138.18222 97.65366,135.67326 			"/>
			<polygon class="st27" points="96.75794,138.15053 96.6788,138.35065 94.89915,137.62337 94.9787,137.42937 			"/>
			<polygon class="st9" points="98.02257,136.02635 97.35657,135.6895 97.38417,135.60022 97.93125,135.25929 			"/>
			<polygon class="st9" points="94.94664,137.79991 94.85573,137.78003 94.47504,137.2646 95.2283,137.11403 			"/>
			<path class="st10" d="M109.0803,137.71063c0,0-16.72947,1.21065-27.13747-6.87062v2.97853c0,0,8.23224,8.14661,27.13747,6.70215
				V137.71063z"/>
			<path class="st27" d="M109.89285,140.42535c0,0-11.73553,1.11203-20.56194-2.34825
				c-10.41977-4.08405-1.81943,16.06757-1.81943,16.06757l13.56673-0.07346L109.89285,140.42535z"/>
			<polygon class="st10" points="145.57509,65.17887 142.85225,78.42055 146.62704,80.55491 124.47987,115.47822 124.47987,101.616 
							"/>
			<path class="st57" d="M121.8106,85.76885c0,1.28207,1.03451,2.31821,2.31252,2.31821c1.28817,0,2.32268-1.03613,2.32268-2.31821
				c0-1.27843-1.03451-2.31659-2.32268-2.31659C122.84511,83.45226,121.8106,84.49043,121.8106,85.76885"/>
			<path class="st58" d="M123.58416,85.77048c0,0.29951,0.24391,0.54302,0.54302,0.54302c0.30114,0,0.54303-0.24351,0.54303-0.54302
				c0-0.30114-0.24189-0.54465-0.54303-0.54465C123.82807,85.22582,123.58416,85.46934,123.58416,85.77048"/>
			<path class="st0" d="M102.86962,30.43413c-0.3052-6.11164,0.11888-12.7286,2.52073-17.28629
				c1.23663-3.54712,5.27929-5.74276,9.3812-7.0845c-1.83485-0.04545-3.38844-0.03369-3.38844-0.03369
				c4.3714-2.94281,8.21195-2.73871,11.05367-1.7001c0.8856-0.12094,1.59705-0.1985,2.04713-0.24392
				c-2.04308-1.17331-4.31417-1.97572-4.31417-1.97572c6.78133-1.65663,12.57361,2.037,15.10245,4.04631
				c4.00087,1.35193,7.8889,3.52565,9.09792,6.9916c2.3998,4.55768,2.82593,11.17465,2.52074,17.28629
				c0.28937,5.74682,0.04546,10.10447-1.20903,14.38698c-3.4144,8.05164-1.79912,14.10362-0.11079,20.35775l-21.09116,37.16648
				v0.13879l-21.09522-37.16846c1.44279-5.71318,4.63318-12.83132,0.78894-20.56396
				C102.84974,40.53089,102.62368,35.321,102.86962,30.43413"/>
			<path class="st8" d="M134.58429,26.54817c-0.06537,1.92413,1.96793,3.54306,4.53821,3.63433
				c2.5605,0.07918,4.69485-1.39729,4.76021-3.32548c0.06534-1.91403-1.96391-3.54306-4.53012-3.62829
				C136.784,23.14756,134.65004,24.62972,134.58429,26.54817"/>
			<path class="st9" d="M137.11922,26.31034c-0.16273,1.17696,0.65382,2.2687,1.83485,2.4314
				c1.17696,0.17046,2.27316-0.67001,2.43144-1.83318c0.16071-1.18102-0.65788-2.26504-1.83891-2.4355
				C138.36964,24.31844,137.27751,25.13906,137.11922,26.31034"/>
			<path class="st8" d="M106.13955,26.54817c-0.06372,1.92413,1.96959,3.54306,4.53374,3.63433
				c2.56862,0.07918,4.70055-1.39729,4.76427-3.32548c0.06734-1.91403-1.96191-3.54306-4.52644-3.62829
				C108.33925,23.14756,106.20689,24.62972,106.13955,26.54817"/>
			<path class="st9" d="M108.67611,26.31034c-0.16275,1.17696,0.65382,2.2687,1.83484,2.4314
				c1.17696,0.17046,2.27113-0.67001,2.42941-1.83318c0.15869-1.18102-0.65791-2.26504-1.83894-2.4355
				C109.92041,24.31844,108.83439,25.13906,108.67611,26.31034"/>
			<path class="st9" d="M98.45033,29.59204c-1.15342-2.43956-1.44238-6.74196-1.44238-6.74196
				c0-2.00733,4.81134-1.99556,4.81134-1.99556c11.53748-0.68142,17.06632,1.17737,17.06632,1.17737
				c2.42538,0.86405,1.20094,4.31783,1.20094,4.31783c-1.25246,4.54592-3.0877,5.01954-3.0877,5.01954
				c-7.05853,2.23339-14.57323,0.73134-14.57323,0.73134C99.10822,31.85302,98.45033,29.59204,98.45033,29.59204
				 M128.95638,26.34971c0,0-1.22079-3.45377,1.20294-4.31783c0,0,5.52686-1.85879,17.06433-1.17737
				c0,0,4.80972-0.01177,4.80972,1.99556c0,0-0.28735,4.30241-1.44077,6.74196c0,0-0.65788,2.26098-3.97733,2.50855
				c0,0-7.51266,1.50204-14.57323-0.73134C132.04205,31.36925,130.2068,30.89563,128.95638,26.34971 M94.06676,22.25754
				c-0.11079,2.59013,0.55885,2.6299,0.55885,2.6299c0.09132,0.20008,0.35674,0.57265,0.35674,0.57265
				c0.69765,0.28531,1.61325,3.16278,1.61325,3.16278c1.20862,3.53332,3.06781,3.9692,3.06781,3.9692
				c5.01342,1.81739,13.2968,0.85634,13.2968,0.85634s4.64904-0.13474,6.1036-2.03736
				c1.09417-1.35148,2.61976-5.54065,2.61976-5.54065s0.40419-0.73946,1.05236-1.16925
				c0.763-0.3608,1.81334-0.36486,1.81334-0.36486s1.05236,0.00406,1.81536,0.36486
				c0.64368,0.42979,0.94116,1.06414,0.94116,1.06414s1.6307,4.29429,2.72691,5.64577
				c1.45253,1.90262,6.11127,2.03736,6.11127,2.03736s8.27972,0.96105,13.29318-0.85634c0,0,1.85878-0.43588,3.06375-3.9692
				c0,0,0.92128-2.87747,1.61122-3.16278c0,0,0.27151-0.37257,0.3604-0.57265c0,0,0.67006-0.03977,0.56088-2.6299l0.01218-0.87582
				c0,0,0.02759-0.70131-1.33565-0.9018c-1.36366-0.19806-2.414-1.13922-15.1958-0.82996
				c-9.06221,0.76665-11.68399,1.77356-11.68399,1.77356s-0.42208,0.1246-1.01463,0.194
				c-0.39246,0.07752-0.80642,0.11688-1.2285,0.11688c-0.39043,0-0.76706-0.03572-1.13354-0.10106
				c-0.68588-0.06128-1.18714-0.20982-1.18714-0.20982s-2.61972-1.00691-11.67989-1.77356
				c-12.78222-0.30926-13.83215,0.63191-15.1958,0.82996c-1.36734,0.20049-1.33565,0.9018-1.33565,0.9018L94.06676,22.25754z"/>
			<path class="st10" d="M124.90195,31.35947c2.30482,3.88036,7.08853,4.9307,7.08853,4.9307
				c-3.76138,2.3661-7.52039,9.55734-7.52039,9.55734s-3.60268-7.19124-7.3641-9.55734
				C117.106,36.29017,122.59913,35.23983,124.90195,31.35947"/>
			<path class="st62" d="M107.13834,59.66789c0-0.10917,0.00771-0.21388,0.0276-0.33077H107.17
				c0.0552-0.31332,0.16234-0.53328,0.16234-0.53328l4.84341-6.39862c1.32753-1.64491,3.03981-0.472,3.03981-0.472l7.45301,5.0378
				c0.54708-0.4026,1.23054-0.64205,1.95981-0.64205c0.76706,0,1.47449,0.25528,2.03331,0.68954l7.52444-5.08529
				c0,0,1.71231-1.1729,3.03618,0.472l4.85315,6.39862c0,0,0.10674,0.21997,0.15828,0.53328h0.00406
				c0.02191,0.11689,0.03369,0.2216,0.02963,0.33077v0.00974v0.00812c0.00406,0.10917-0.00772,0.21794-0.02963,0.33279h-0.00406
				c-0.05154,0.31129-0.15828,0.5272-0.15828,0.5272l-4.85315,6.4047c-1.32387,1.64694-3.03618,0.46998-3.03618,0.46998
				l-7.52444-5.08894c-0.55882,0.43385-1.26625,0.68954-2.03331,0.68954c-0.72927,0-1.40704-0.2358-1.95981-0.63637
				l-7.45301,5.03578c0,0-1.71228,1.17696-3.03981-0.46998l-4.84341-6.4047c0,0-0.10714-0.21591-0.16234-0.5272h-0.00406
				c-0.01988-0.11485-0.0276-0.22362-0.0276-0.33279v-0.00812V59.66789z"/>
			<g>
				<defs>
					<path id="SVGID_7_" d="M115.21555,51.93525l7.45301,5.03374c0.55114-0.4026,1.22851-0.64205,1.96387-0.64205
						c0.763,0,1.4684,0.25568,2.02925,0.68954l7.52444-5.08123c0,0,1.70825-1.17696,3.03618,0.46795l4.85315,6.4047
						c0,0,0.10674,0.21794,0.15828,0.5272h0.00812c0.01582,0.11689,0.02963,0.22363,0.02963,0.3328v0.01173v0.00406
						c0,0.10921-0.01381,0.22001-0.02963,0.3328h-0.00812c-0.05154,0.31741-0.15828,0.5313-0.15828,0.5313l-4.85315,6.40466
						c-1.32793,1.64292-3.03618,0.46961-3.03618,0.46961l-7.52444-5.08894c-0.56085,0.4302-1.26625,0.68588-2.02925,0.68588
						c-0.73536,0-1.41273-0.23377-1.95981-0.63235l-7.45707,5.03542c0,0-1.71228,1.17331-3.03981-0.46961l-4.84341-6.40466
						c0,0-0.10714-0.21388-0.15868-0.5313h-0.00771c-0.01988-0.11279-0.0276-0.22358-0.0276-0.3328v-0.00406v-0.01173
						c0-0.10917,0.00771-0.21591,0.0276-0.3328h0.00771c0.05154-0.30926,0.15868-0.5272,0.15868-0.5272l4.84341-6.4047
						c0.55074-0.67777,1.15707-0.87785,1.68833-0.87785C114.62504,51.52534,115.21555,51.93525,115.21555,51.93525"/>
				</defs>
				<clipPath id="SVGID_2_">
					<use xlink:href="#SVGID_7_"  style="overflow:visible;"/>
				</clipPath>
				<path style="clip-path:url(#SVGID_2_);fill:#E2E3E4;" d="M138.46664,52.15923c0,0.34867,0.28328,0.63235,0.63231,0.63235
					c0.34863,0,0.62988-0.28369,0.62988-0.63235c0-0.35061-0.28125-0.6339-0.62988-0.6339
					C138.74992,51.52534,138.46664,51.80862,138.46664,52.15923"/>
				<path style="clip-path:url(#SVGID_2_);fill:#E2E3E4;" d="M138.46664,55.16175c0,0.34862,0.28328,0.62983,0.63231,0.62983
					c0.34863,0,0.62988-0.28121,0.62988-0.62983c0-0.34903-0.28125-0.63235-0.62988-0.63235
					C138.74992,54.52939,138.46664,54.81272,138.46664,55.16175"/>
				<path style="clip-path:url(#SVGID_2_);fill:#E2E3E4;" d="M138.46664,58.1658c0,0.34867,0.28328,0.63033,0.63231,0.63033
					c0.34863,0,0.62988-0.28166,0.62988-0.63033c0-0.35264-0.28125-0.63227-0.62988-0.63227
					C138.74992,57.53353,138.46664,57.81316,138.46664,58.1658"/>
				<path style="clip-path:url(#SVGID_2_);fill:#E2E3E4;" d="M138.46664,61.16993c0,0.34903,0.28328,0.63028,0.63231,0.63028
					c0.34863,0,0.62988-0.28125,0.62988-0.63028c0-0.34862-0.28125-0.6319-0.62988-0.6319
					C138.74992,60.53803,138.46664,60.82131,138.46664,61.16993"/>
				<path style="clip-path:url(#SVGID_2_);fill:#E2E3E4;" d="M138.46664,64.17236c0,0.34867,0.28328,0.62992,0.63231,0.62992
					c0.34863,0,0.62988-0.28125,0.62988-0.62992c0-0.34903-0.28125-0.62821-0.62988-0.62821
					C138.74992,63.54415,138.46664,63.82333,138.46664,64.17236"/>
				<path style="clip-path:url(#SVGID_2_);fill:#E2E3E4;" d="M132.74336,52.78753c0,0.34497,0.28531,0.62825,0.63028,0.62825
					c0.34863,0,0.63231-0.28328,0.63231-0.62825c0-0.34863-0.28368-0.63235-0.63231-0.63235
					C133.02867,52.15517,132.74336,52.4389,132.74336,52.78753"/>
				<path style="clip-path:url(#SVGID_2_);fill:#E2E3E4;" d="M132.74336,55.78959c0,0.34903,0.28531,0.63231,0.63028,0.63231
					c0.34863,0,0.63231-0.28328,0.63231-0.63231c0-0.34862-0.28368-0.63393-0.63231-0.63393
					C133.02867,55.15566,132.74336,55.44097,132.74336,55.78959"/>
				<path style="clip-path:url(#SVGID_2_);fill:#E2E3E4;" d="M132.74336,58.79409c0,0.35065,0.28531,0.62984,0.63028,0.62984
					c0.34863,0,0.63231-0.27918,0.63231-0.62984c0-0.34903-0.28368-0.6283-0.63231-0.6283
					C133.02867,58.1658,132.74336,58.44506,132.74336,58.79409"/>
				<path style="clip-path:url(#SVGID_2_);fill:#E2E3E4;" d="M132.74336,61.79815c0,0.35069,0.28531,0.63033,0.63028,0.63033
					c0.34863,0,0.63231-0.27963,0.63231-0.63033c0-0.34858-0.28368-0.62822-0.63231-0.62822
					C133.02867,61.16993,132.74336,61.44957,132.74336,61.79815"/>
				<path style="clip-path:url(#SVGID_2_);fill:#E2E3E4;" d="M132.74336,64.80066c0,0.35268,0.28531,0.6339,0.63028,0.6339
					c0.34863,0,0.63231-0.28121,0.63231-0.6339c0-0.34497-0.28368-0.6283-0.63231-0.6283
					C133.02867,64.17236,132.74336,64.45569,132.74336,64.80066"/>
				<path style="clip-path:url(#SVGID_2_);fill:#E2E3E4;" d="M127.02048,52.78753c0,0.34497,0.28328,0.62825,0.63393,0.62825
					c0.34903,0,0.62825-0.28328,0.62825-0.62825c0-0.34863-0.27922-0.63235-0.62825-0.63235
					C127.30376,52.15517,127.02048,52.4389,127.02048,52.78753"/>
				<path style="clip-path:url(#SVGID_2_);fill:#E2E3E4;" d="M127.02048,55.78959c0,0.34903,0.28328,0.63231,0.63393,0.63231
					c0.34903,0,0.62825-0.28328,0.62825-0.63231c0-0.34862-0.27922-0.63393-0.62825-0.63393
					C127.30376,55.15566,127.02048,55.44097,127.02048,55.78959"/>
				<path style="clip-path:url(#SVGID_2_);fill:#E2E3E4;" d="M127.02048,58.79409c0,0.35065,0.28328,0.62984,0.63393,0.62984
					c0.34903,0,0.62825-0.27918,0.62825-0.62984c0-0.34903-0.27922-0.6283-0.62825-0.6283
					C127.30376,58.1658,127.02048,58.44506,127.02048,58.79409"/>
				<path style="clip-path:url(#SVGID_2_);fill:#E2E3E4;" d="M127.02048,61.79815c0,0.35069,0.28328,0.63033,0.63393,0.63033
					c0.34903,0,0.62825-0.27963,0.62825-0.63033c0-0.34858-0.27922-0.62822-0.62825-0.62822
					C127.30376,61.16993,127.02048,61.44957,127.02048,61.79815"/>
				<path style="clip-path:url(#SVGID_2_);fill:#E2E3E4;" d="M127.02048,64.80066c0,0.35268,0.28328,0.6339,0.63393,0.6339
					c0.34903,0,0.62825-0.28121,0.62825-0.6339c0-0.34497-0.27922-0.6283-0.62825-0.6283
					C127.30376,64.17236,127.02048,64.45569,127.02048,64.80066"/>
				<path style="clip-path:url(#SVGID_2_);fill:#E2E3E4;" d="M121.29922,52.78753c0,0.34497,0.28529,0.62825,0.63432,0.62825
					c0.34866,0,0.62991-0.28328,0.62991-0.62825c0-0.34863-0.28125-0.63235-0.62991-0.63235
					C121.58451,52.15517,121.29922,52.4389,121.29922,52.78753"/>
				<path style="clip-path:url(#SVGID_2_);fill:#E2E3E4;" d="M121.29922,55.78959c0,0.34903,0.28529,0.63231,0.63432,0.63231
					c0.34866,0,0.62991-0.28328,0.62991-0.63231c0-0.34862-0.28125-0.63393-0.62991-0.63393
					C121.58451,55.15566,121.29922,55.44097,121.29922,55.78959"/>
				<path style="clip-path:url(#SVGID_2_);fill:#E2E3E4;" d="M121.29922,58.79409c0,0.35065,0.28529,0.62984,0.63432,0.62984
					c0.34866,0,0.62991-0.27918,0.62991-0.62984c0-0.34903-0.28125-0.6283-0.62991-0.6283
					C121.58451,58.1658,121.29922,58.44506,121.29922,58.79409"/>
				<path style="clip-path:url(#SVGID_2_);fill:#E2E3E4;" d="M121.29922,61.79815c0,0.35069,0.28529,0.63033,0.63432,0.63033
					c0.34866,0,0.62991-0.27963,0.62991-0.63033c0-0.34858-0.28125-0.62822-0.62991-0.62822
					C121.58451,61.16993,121.29922,61.44957,121.29922,61.79815"/>
				<path style="clip-path:url(#SVGID_2_);fill:#E2E3E4;" d="M121.29922,64.80066c0,0.35268,0.28529,0.6339,0.63432,0.6339
					c0.34866,0,0.62991-0.28121,0.62991-0.6339c0-0.34497-0.28125-0.6283-0.62991-0.6283
					C121.58451,64.17236,121.29922,64.45569,121.29922,64.80066"/>
				<path style="clip-path:url(#SVGID_2_);fill:#E2E3E4;" d="M115.57635,52.78753c0,0.34497,0.28125,0.62825,0.62988,0.62825
					c0.35268,0,0.63434-0.28328,0.63434-0.62825c0-0.34863-0.28165-0.63235-0.63434-0.63235
					C115.8576,52.15517,115.57635,52.4389,115.57635,52.78753"/>
				<path style="clip-path:url(#SVGID_2_);fill:#E2E3E4;" d="M115.57635,55.78959c0,0.34903,0.28125,0.63231,0.62988,0.63231
					c0.35268,0,0.63434-0.28328,0.63434-0.63231c0-0.34862-0.28165-0.63393-0.63434-0.63393
					C115.8576,55.15566,115.57635,55.44097,115.57635,55.78959"/>
				<path style="clip-path:url(#SVGID_2_);fill:#E2E3E4;" d="M115.57635,58.79409c0,0.35065,0.28125,0.62984,0.62988,0.62984
					c0.35268,0,0.63434-0.27918,0.63434-0.62984c0-0.34903-0.28165-0.6283-0.63434-0.6283
					C115.8576,58.1658,115.57635,58.44506,115.57635,58.79409"/>
				<path style="clip-path:url(#SVGID_2_);fill:#E2E3E4;" d="M115.57635,61.79815c0,0.35069,0.28125,0.63033,0.62988,0.63033
					c0.35268,0,0.63434-0.27963,0.63434-0.63033c0-0.34858-0.28165-0.62822-0.63434-0.62822
					C115.8576,61.16993,115.57635,61.44957,115.57635,61.79815"/>
				<path style="clip-path:url(#SVGID_2_);fill:#E2E3E4;" d="M115.57635,64.80066c0,0.35268,0.28125,0.6339,0.62988,0.6339
					c0.35268,0,0.63434-0.28121,0.63434-0.6339c0-0.34497-0.28165-0.6283-0.63434-0.6283
					C115.8576,64.17236,115.57635,64.45569,115.57635,64.80066"/>
				<path style="clip-path:url(#SVGID_2_);fill:#E2E3E4;" d="M135.60703,53.41984c0,0.34863,0.27924,0.62785,0.63029,0.62785
					c0.34862,0,0.6319-0.27922,0.6319-0.62785c0-0.34903-0.28328-0.63028-0.6319-0.63028
					C135.88626,52.78956,135.60703,53.07081,135.60703,53.41984"/>
				<path style="clip-path:url(#SVGID_2_);fill:#E2E3E4;" d="M135.60703,56.42191c0,0.34863,0.27924,0.62826,0.63029,0.62826
					c0.34862,0,0.6319-0.27963,0.6319-0.62826c0-0.34862-0.28328-0.62825-0.6319-0.62825
					C135.88626,55.79365,135.60703,56.07328,135.60703,56.42191"/>
				<path style="clip-path:url(#SVGID_2_);fill:#E2E3E4;" d="M135.60703,59.42799c0,0.34903,0.27924,0.6283,0.63029,0.6283
					c0.34862,0,0.6319-0.27927,0.6319-0.6283c0-0.35061-0.28328-0.6339-0.6319-0.6339
					C135.88626,58.79409,135.60703,59.07738,135.60703,59.42799"/>
				<path style="clip-path:url(#SVGID_2_);fill:#E2E3E4;" d="M135.60703,62.43253c0,0.34456,0.27924,0.62988,0.63029,0.62988
					c0.34862,0,0.6319-0.28531,0.6319-0.62988c0-0.35309-0.28328-0.63232-0.6319-0.63232
					C135.88626,61.80022,135.60703,62.07944,135.60703,62.43253"/>
				<path style="clip-path:url(#SVGID_2_);fill:#E2E3E4;" d="M135.60703,65.43456c0,0.34866,0.27924,0.6283,0.63029,0.6283
					c0.34862,0,0.6319-0.27963,0.6319-0.6283c0-0.34858-0.28328-0.63227-0.6319-0.63227
					C135.88626,64.80228,135.60703,65.08598,135.60703,65.43456"/>
				<path style="clip-path:url(#SVGID_2_);fill:#E2E3E4;" d="M141.32828,53.41984c0,0.34863,0.27924,0.62785,0.62985,0.62785
					c0.34903,0,0.62828-0.27922,0.62828-0.62785c0-0.34903-0.27925-0.63028-0.62828-0.63028
					C141.60751,52.78956,141.32828,53.07081,141.32828,53.41984"/>
				<path style="clip-path:url(#SVGID_2_);fill:#E2E3E4;" d="M141.32828,56.42191c0,0.34863,0.27924,0.62826,0.62985,0.62826
					c0.34903,0,0.62828-0.27963,0.62828-0.62826c0-0.34862-0.27925-0.62825-0.62828-0.62825
					C141.60751,55.79365,141.32828,56.07328,141.32828,56.42191"/>
				<path style="clip-path:url(#SVGID_2_);fill:#E2E3E4;" d="M141.32828,59.42799c0,0.34903,0.27924,0.6283,0.62985,0.6283
					c0.34903,0,0.62828-0.27927,0.62828-0.6283c0-0.35061-0.27925-0.6339-0.62828-0.6339
					C141.60751,58.79409,141.32828,59.07738,141.32828,59.42799"/>
				<path style="clip-path:url(#SVGID_2_);fill:#E2E3E4;" d="M141.32828,62.43253c0,0.34456,0.27924,0.62988,0.62985,0.62988
					c0.34903,0,0.62828-0.28531,0.62828-0.62988c0-0.35309-0.27925-0.63232-0.62828-0.63232
					C141.60751,61.80022,141.32828,62.07944,141.32828,62.43253"/>
				<path style="clip-path:url(#SVGID_2_);fill:#E2E3E4;" d="M141.32828,65.43456c0,0.34866,0.27924,0.6283,0.62985,0.6283
					c0.34903,0,0.62828-0.27963,0.62828-0.6283c0-0.34858-0.27925-0.63227-0.62828-0.63227
					C141.60751,64.80228,141.32828,65.08598,141.32828,65.43456"/>
				<path style="clip-path:url(#SVGID_2_);fill:#E2E3E4;" d="M129.88213,53.41984c0,0.34863,0.28531,0.62785,0.63394,0.62785
					c0.34497,0,0.62419-0.27922,0.62419-0.62785c0-0.34903-0.27922-0.63028-0.62419-0.63028
					C130.16743,52.78956,129.88213,53.07081,129.88213,53.41984"/>
				<path style="clip-path:url(#SVGID_2_);fill:#E2E3E4;" d="M129.88213,56.42191c0,0.34863,0.28531,0.62826,0.63394,0.62826
					c0.34497,0,0.62419-0.27963,0.62419-0.62826c0-0.34862-0.27922-0.62825-0.62419-0.62825
					C130.16743,55.79365,129.88213,56.07328,129.88213,56.42191"/>
				<path style="clip-path:url(#SVGID_2_);fill:#E2E3E4;" d="M129.88213,59.42799c0,0.34903,0.28531,0.6283,0.63394,0.6283
					c0.34497,0,0.62419-0.27927,0.62419-0.6283c0-0.35061-0.27922-0.6339-0.62419-0.6339
					C130.16743,58.79409,129.88213,59.07738,129.88213,59.42799"/>
				<path style="clip-path:url(#SVGID_2_);fill:#E2E3E4;" d="M129.88213,62.43253c0,0.34456,0.28531,0.62988,0.63394,0.62988
					c0.34497,0,0.62419-0.28531,0.62419-0.62988c0-0.35309-0.27922-0.63232-0.62419-0.63232
					C130.16743,61.80022,129.88213,62.07944,129.88213,62.43253"/>
				<path style="clip-path:url(#SVGID_2_);fill:#E2E3E4;" d="M129.88213,65.43456c0,0.34866,0.28531,0.6283,0.63394,0.6283
					c0.34497,0,0.62419-0.27963,0.62419-0.6283c0-0.34858-0.27922-0.63227-0.62419-0.63227
					C130.16743,64.80228,129.88213,65.08598,129.88213,65.43456"/>
				<path style="clip-path:url(#SVGID_2_);fill:#E2E3E4;" d="M124.1629,53.41984c0,0.34863,0.28125,0.62785,0.62622,0.62785
					c0.34863,0,0.6319-0.27922,0.6319-0.62785c0-0.34903-0.28328-0.63028-0.6319-0.63028
					C124.44415,52.78956,124.1629,53.07081,124.1629,53.41984"/>
				<path style="clip-path:url(#SVGID_2_);fill:#E2E3E4;" d="M124.1629,56.42191c0,0.34863,0.28125,0.62826,0.62622,0.62826
					c0.34863,0,0.6319-0.27963,0.6319-0.62826c0-0.34862-0.28328-0.62825-0.6319-0.62825
					C124.44415,55.79365,124.1629,56.07328,124.1629,56.42191"/>
				<path style="clip-path:url(#SVGID_2_);fill:#E2E3E4;" d="M124.1629,59.42799c0,0.34903,0.28125,0.6283,0.62622,0.6283
					c0.34863,0,0.6319-0.27927,0.6319-0.6283c0-0.35061-0.28328-0.6339-0.6319-0.6339
					C124.44415,58.79409,124.1629,59.07738,124.1629,59.42799"/>
				<path style="clip-path:url(#SVGID_2_);fill:#E2E3E4;" d="M124.1629,62.43253c0,0.34456,0.28125,0.62988,0.62622,0.62988
					c0.34863,0,0.6319-0.28531,0.6319-0.62988c0-0.35309-0.28328-0.63232-0.6319-0.63232
					C124.44415,61.80022,124.1629,62.07944,124.1629,62.43253"/>
				<path style="clip-path:url(#SVGID_2_);fill:#E2E3E4;" d="M124.1629,65.43456c0,0.34866,0.28125,0.6283,0.62622,0.6283
					c0.34863,0,0.6319-0.27963,0.6319-0.6283c0-0.34858-0.28328-0.63227-0.6319-0.63227
					C124.44415,64.80228,124.1629,65.08598,124.1629,65.43456"/>
				<path style="clip-path:url(#SVGID_2_);fill:#E2E3E4;" d="M118.43758,53.41984c0,0.34863,0.28163,0.62785,0.63029,0.62785
					c0.34863,0,0.63434-0.27922,0.63434-0.62785c0-0.34903-0.28571-0.63028-0.63434-0.63028
					C118.71922,52.78956,118.43758,53.07081,118.43758,53.41984"/>
				<path style="clip-path:url(#SVGID_2_);fill:#E2E3E4;" d="M118.43758,56.42191c0,0.34863,0.28163,0.62826,0.63029,0.62826
					c0.34863,0,0.63434-0.27963,0.63434-0.62826c0-0.34862-0.28571-0.62825-0.63434-0.62825
					C118.71922,55.79365,118.43758,56.07328,118.43758,56.42191"/>
				<path style="clip-path:url(#SVGID_2_);fill:#E2E3E4;" d="M118.43758,59.42799c0,0.34903,0.28163,0.6283,0.63029,0.6283
					c0.34863,0,0.63434-0.27927,0.63434-0.6283c0-0.35061-0.28571-0.6339-0.63434-0.6339
					C118.71922,58.79409,118.43758,59.07738,118.43758,59.42799"/>
				<path style="clip-path:url(#SVGID_2_);fill:#E2E3E4;" d="M118.43758,62.43253c0,0.34456,0.28163,0.62988,0.63029,0.62988
					c0.34863,0,0.63434-0.28531,0.63434-0.62988c0-0.35309-0.28571-0.63232-0.63434-0.63232
					C118.71922,61.80022,118.43758,62.07944,118.43758,62.43253"/>
				<path style="clip-path:url(#SVGID_2_);fill:#E2E3E4;" d="M118.43758,65.43456c0,0.34866,0.28163,0.6283,0.63029,0.6283
					c0.34863,0,0.63434-0.27963,0.63434-0.6283c0-0.34858-0.28571-0.63227-0.63434-0.63227
					C118.71922,64.80228,118.43758,65.08598,118.43758,65.43456"/>
				<path style="clip-path:url(#SVGID_2_);fill:#E2E3E4;" d="M112.71877,53.41984c0,0.34863,0.2772,0.62785,0.62582,0.62785
					c0.34903,0,0.63025-0.27922,0.63025-0.62785c0-0.34903-0.28122-0.63028-0.63025-0.63028
					C112.99596,52.78956,112.71877,53.07081,112.71877,53.41984"/>
				<path style="clip-path:url(#SVGID_2_);fill:#E2E3E4;" d="M112.71877,56.42191c0,0.34863,0.2772,0.62826,0.62582,0.62826
					c0.34903,0,0.63025-0.27963,0.63025-0.62826c0-0.34862-0.28122-0.62825-0.63025-0.62825
					C112.99596,55.79365,112.71877,56.07328,112.71877,56.42191"/>
				<path style="clip-path:url(#SVGID_2_);fill:#E2E3E4;" d="M112.71877,59.42799c0,0.34903,0.2772,0.6283,0.62582,0.6283
					c0.34903,0,0.63025-0.27927,0.63025-0.6283c0-0.35061-0.28122-0.6339-0.63025-0.6339
					C112.99596,58.79409,112.71877,59.07738,112.71877,59.42799"/>
				<path style="clip-path:url(#SVGID_2_);fill:#E2E3E4;" d="M112.71877,62.43253c0,0.34456,0.2772,0.62988,0.62582,0.62988
					c0.34903,0,0.63025-0.28531,0.63025-0.62988c0-0.35309-0.28122-0.63232-0.63025-0.63232
					C112.99596,61.80022,112.71877,62.07944,112.71877,62.43253"/>
				<path style="clip-path:url(#SVGID_2_);fill:#E2E3E4;" d="M112.71877,65.43456c0,0.34866,0.2772,0.6283,0.62582,0.6283
					c0.34903,0,0.63025-0.27963,0.63025-0.6283c0-0.34858-0.28122-0.63227-0.63025-0.63227
					C112.99596,64.80228,112.71877,65.08598,112.71877,65.43456"/>
				<path style="clip-path:url(#SVGID_2_);fill:#E2E3E4;" d="M106.99548,53.41984c0,0.34863,0.28126,0.62785,0.63029,0.62785
					c0.34457,0,0.62622-0.27922,0.62622-0.62785c0-0.34903-0.28165-0.63028-0.62622-0.63028
					C107.27674,52.78956,106.99548,53.07081,106.99548,53.41984"/>
				<path style="clip-path:url(#SVGID_2_);fill:#E2E3E4;" d="M106.99548,56.42191c0,0.34863,0.28126,0.62826,0.63029,0.62826
					c0.34457,0,0.62622-0.27963,0.62622-0.62826c0-0.34862-0.28165-0.62825-0.62622-0.62825
					C107.27674,55.79365,106.99548,56.07328,106.99548,56.42191"/>
				<path style="clip-path:url(#SVGID_2_);fill:#E2E3E4;" d="M106.99548,59.42799c0,0.34903,0.28126,0.6283,0.63029,0.6283
					c0.34457,0,0.62622-0.27927,0.62622-0.6283c0-0.35061-0.28165-0.6339-0.62622-0.6339
					C107.27674,58.79409,106.99548,59.07738,106.99548,59.42799"/>
				<path style="clip-path:url(#SVGID_2_);fill:#E2E3E4;" d="M106.99548,62.43253c0,0.34456,0.28126,0.62988,0.63029,0.62988
					c0.34457,0,0.62622-0.28531,0.62622-0.62988c0-0.35309-0.28165-0.63232-0.62622-0.63232
					C107.27674,61.80022,106.99548,62.07944,106.99548,62.43253"/>
				<path style="clip-path:url(#SVGID_2_);fill:#E2E3E4;" d="M106.99548,65.43456c0,0.34866,0.28126,0.6283,0.63029,0.6283
					c0.34457,0,0.62622-0.27963,0.62622-0.6283c0-0.34858-0.28165-0.63227-0.62622-0.63227
					C107.27674,64.80228,106.99548,65.08598,106.99548,65.43456"/>
				<path style="clip-path:url(#SVGID_2_);fill:#E2E3E4;" d="M109.85307,53.41984c0,0.34863,0.28532,0.62785,0.63029,0.62785
					c0.34863,0,0.63393-0.27922,0.63393-0.62785c0-0.34903-0.28531-0.63028-0.63393-0.63028
					C110.13838,52.78956,109.85307,53.07081,109.85307,53.41984"/>
				<path style="clip-path:url(#SVGID_2_);fill:#E2E3E4;" d="M109.85307,56.42191c0,0.34863,0.28532,0.62826,0.63029,0.62826
					c0.34863,0,0.63393-0.27963,0.63393-0.62826c0-0.34862-0.28531-0.62825-0.63393-0.62825
					C110.13838,55.79365,109.85307,56.07328,109.85307,56.42191"/>
				<path style="clip-path:url(#SVGID_2_);fill:#E2E3E4;" d="M109.85307,59.42799c0,0.34903,0.28532,0.6283,0.63029,0.6283
					c0.34863,0,0.63393-0.27927,0.63393-0.6283c0-0.35061-0.28531-0.6339-0.63393-0.6339
					C110.13838,58.79409,109.85307,59.07738,109.85307,59.42799"/>
				<path style="clip-path:url(#SVGID_2_);fill:#E2E3E4;" d="M109.85307,62.43253c0,0.34456,0.28532,0.62988,0.63029,0.62988
					c0.34863,0,0.63393-0.28531,0.63393-0.62988c0-0.35309-0.28531-0.63232-0.63393-0.63232
					C110.13838,61.80022,109.85307,62.07944,109.85307,62.43253"/>
				<path style="clip-path:url(#SVGID_2_);fill:#E2E3E4;" d="M109.85307,65.43456c0,0.34866,0.28532,0.6283,0.63029,0.6283
					c0.34863,0,0.63393-0.27963,0.63393-0.6283c0-0.34858-0.28531-0.63227-0.63393-0.63227
					C110.13838,64.80228,109.85307,65.08598,109.85307,65.43456"/>
			</g>
			<path class="st10" d="M121.8106,72.57876c0,1.27802,1.03451,2.31821,2.31252,2.31821c1.28411,0,2.31862-1.04019,2.31862-2.31821
				c0-1.28249-1.03451-2.31659-2.31862-2.31659C122.84511,70.26217,121.8106,71.29627,121.8106,72.57876"/>
			<path class="st0" d="M123.58213,72.57876c0,0.30114,0.24188,0.54258,0.54299,0.54258c0.30117,0,0.54306-0.24144,0.54306-0.54258
				c0-0.29951-0.24189-0.54303-0.54306-0.54303C123.82401,72.03573,123.58213,72.27924,123.58213,72.57876"/>
			<path class="st10" d="M121.8106,88.08706c0,1.28249,1.03451,2.31659,2.31252,2.31659c1.28411,0,2.31862-1.0341,2.31862-2.31659
				c0-1.28004-1.03451-2.31821-2.31862-2.31821C122.84511,85.76885,121.8106,86.80701,121.8106,88.08706"/>
			<path class="st0" d="M123.58213,88.08543c0,0.30114,0.24188,0.54465,0.54299,0.54465c0.30117,0,0.54306-0.24352,0.54306-0.54465
				c0-0.29951-0.24189-0.54302-0.54306-0.54302C123.82401,87.54241,123.58213,87.78592,123.58213,88.08543"/>
			<g>
				<path class="st64" d="M119.85689,118.04063l1.92932,1.07034c1.79937,0.99824,4.06728,0.34879,5.06551-1.45057l18.55483-33.44585
					c0.38322-0.69077,0.13391-1.5614-0.55687-1.94463l-5.94391-3.29752c-0.69077-0.38322-1.5614-0.1339-1.94463,0.55686
					l-18.55483,33.44585C117.40808,114.77448,118.05753,117.04239,119.85689,118.04063z"/>
				<path class="st65" d="M120.62017,118.75269l2.15223,0.48557c2.00727,0.45287,4.00159-0.80722,4.45446-2.81449l8.41769-37.31018
					c0.17386-0.77058-0.30989-1.53619-1.08046-1.71004l-6.63068-1.49597c-0.77058-0.17385-1.53619,0.30989-1.71004,1.08047
					l-8.41768,37.31018C117.35281,116.30549,118.6129,118.29982,120.62017,118.75269z"/>
				<path class="st55" d="M121.55267,119.22179l2.20199-0.13825c2.05368-0.12894,3.61398-1.8983,3.48504-3.95197l-2.3967-38.17281
					c-0.0495-0.78839-0.72874-1.38738-1.51714-1.33788l-6.78398,0.42593c-0.78839,0.0495-1.38738,0.72874-1.33788,1.51714
					l2.3967,38.17281C117.72964,117.79043,119.49899,119.35073,121.55267,119.22179z"/>
				<path class="st66" d="M122.57938,119.4102l2.0746-0.75095c1.93485-0.70037,2.9356-2.83665,2.23523-4.77151l-13.01826-35.96432
					c-0.26887-0.74278-1.08897-1.12696-1.83176-0.85809l-6.39149,2.31358c-0.74277,0.26887-1.12696,1.08897-0.85809,1.83175
					l13.01825,35.96432C118.50824,119.10983,120.64452,120.11058,122.57938,119.4102z"/>
				<path class="st67" d="M123.61768,119.30276l1.78029-1.30325c1.66039-1.21545,2.02106-3.54678,0.8056-5.20716l-22.59245-30.8624
					c-0.46661-0.63741-1.3616-0.77587-1.99901-0.30927l-5.48479,4.01508c-0.63741,0.46661-0.77587,1.3616-0.30927,1.99901
					l22.59246,30.8624C119.62598,120.15755,121.95731,120.51823,123.61768,119.30276z"/>
				<path class="st13" d="M124.58405,118.90812l1.34276-1.75068c1.25232-1.63277,0.94391-3.97158-0.68885-5.2239L94.88892,88.65602
					c-0.62681-0.48075-1.52467-0.36236-2.00542,0.26445l-4.13683,5.39355c-0.48075,0.62681-0.36236,1.52467,0.26445,2.00542
					l30.34904,23.27752C120.99292,120.84929,123.33173,120.54088,124.58405,118.90812z"/>
				<path class="st62" d="M125.40074,118.25801l0.7972-2.05727c0.7435-1.91869-0.20918-4.07684-2.12788-4.82034L88.40611,97.5605
					c-0.73658-0.28542-1.56508,0.08031-1.8505,0.81688l-2.45604,6.33811c-0.28543,0.73658,0.08031,1.56508,0.81688,1.8505
					l35.66396,13.8199C122.4991,121.12939,124.65724,120.17671,125.40074,118.25801z"/>
			</g>
			<path class="st10" d="M143.58115,111.75861c0,0,11.92384,3.71758,25.70648-2.40385c0,0,9.68275,22.1768-2.68712,46.96968
				c0,0-11.66411,4.17542-23.9942,0.27966C142.60631,156.60411,156.58131,137.41151,143.58115,111.75861"/>
			<path class="st0" d="M112.04871,112.93963c0,0,6.00859,12.09431,10.26108,12.70632c0,0-10.42747-10.60402-9.52365-18.818
				c0,0,5.27116,9.47252,9.2424,10.76677c0,0-9.50011-8.31138-7.09059-19.27422c0,0,4.25289,11.63248,8.50741,12.05295
				c0,0-7.23101-8.587-6.59305-16.51765c0,0,10.17223,13.85606,26.81245,17.92635c3.567,6.39294,5.60396,13.74692,5.60396,21.5867
				c0,8.52324-2.40587,16.48154-6.57111,23.24298c-7.71072-2.30077-16.01399-7.48264-22.82536-18.1938
				c-0.00771-0.01993-0.01948-0.03572-0.03165-0.0556c-3.16644-4.72003-5.09259-9.05206-6.25819-12.75179
				c-0.0832-0.22407-0.17005-0.44399-0.25365-0.67005c0,0,0.02801,0.03571,0.07954,0.10913
				C111.19683,117.66006,112.04871,112.93963,112.04871,112.93963"/>
			<g>
				<path class="st22" d="M127.2109,194.45819l0.16712-0.09915l-0.16712-0.14323v-2.91982c0-0.36729,0.30116-0.66844,0.6703-0.66844
					c0,0,0.91817,0.7823,2.547,0.7823c1.62889,0,2.37993-0.7823,2.817-0.7823c0.08264,0-0.011-0.37831,0.39301,0
					c2.50296,2.33954,8.08736,2.81332,8.08736,2.81332c0.31219,0,0.51787,0.49582,0.22955,0.83369
					c-0.0441,0.04776-0.14874,0.12486-0.14874,0.18362l0.16525,0.17628c0,0.37097-0.29933,0.67212-0.66658,0.67212H127.8812
					c-0.36914,0-0.6703-0.30115-0.6703-0.67212V194.45819z"/>
				<path class="st22" d="M121.7422,194.63448c0,0.37097-0.30116,0.67212-0.66845,0.67212h-13.4257
					c-0.36542,0-0.66661-0.30115-0.66661-0.67212l0.16712-0.17628c0-0.05876-0.10836-0.13586-0.14874-0.18179
					c-0.29016-0.33971-0.08266-0.83553,0.22771-0.83553c0,0,5.58806-0.47379,8.08919-2.81332c0.40585-0.37831,0.31036,0,0.39297,0
					c0.43889,0,1.18816,0.7823,2.81516,0.7823c1.63072,0,2.5489-0.7823,2.5489-0.7823c0.36729,0,0.66845,0.30115,0.66845,0.67027
					v2.91798l-0.16713,0.14507l0.16713,0.09732V194.63448z"/>
			</g>
		</g>
		<g>
			<g>
				<path class="st66" d="M62.84006,76.89077L37.82162,64.98285l-2.61813,5.50067c-1.0879,2.28567-0.11691,5.02048,2.16875,6.10838
					l16.74131,7.96829c2.28567,1.0879,5.02048,0.11691,6.10838-2.16875L62.84006,76.89077z"/>
				<path class="st55" d="M71.71324,58.24829c-6.85306,2.72496-20.3111-20.16755-26.73045-8.31102l-5.01856,10.54395
					l25.01844,11.90792C64.98267,72.38915,67.96021,65.31568,71.71324,58.24829z"/>
				<path class="st66" d="M50.10694,78.76537l-5.71073-2.71812l-12.22645,25.68768c-0.5943,1.24863-0.06387,2.74261,1.18476,3.33692
					l1.18906,0.56595c1.24863,0.5943,2.74261,0.06387,3.33692-1.18476L50.10694,78.76537z"/>
				
					<rect x="37.54826" y="66.19324" transform="matrix(0.90294 0.42977 -0.42977 0.90294 34.50819 -15.42429)" class="st3" width="27.70778" height="4.98552"/>
			</g>
			<path class="st3" d="M27.4649,111.88548c-2.28746-13.48183,7.01018-21.7042,10.19174-24.07887
				c9.42374,5.56241,19.98291,4.62742,19.98291,4.62742c-3.8731,4.00126-11.72289,4.17413-11.72289,4.17413
				c2.18378,2.03563,10.26005-1.1052,10.26005-1.1052c-4.64294,6.33357-13.39816,5.18558-13.39816,5.18558
				c2.51275,1.48343,9.92675-0.12581,9.92675-0.12581c-3.89648,4.27331-14.2855,3.69626-14.2855,3.69626
				c2.28761,1.95431,11.4157-0.48219,11.4157-0.48219s-2.08173,2.63025-6.98569,4.8833
				c0.05618-0.00588,0.09147-0.01118,0.09147-0.01118c-0.15639,0.06529-0.31087,0.12074-0.46617,0.17823
				c-2.48511,1.09785-5.6477,2.08791-9.59249,2.60481c-0.01441,0.00677-0.02927,0.00449-0.04206,0.00853
				C30.94631,111.73732,29.15708,111.87636,27.4649,111.88548z"/>
		</g>
	</g>
</g>
</svg>
