<?xml version="1.0" encoding="utf-8"?>
<!-- Generator: Adobe Illustrator 19.1.0, SVG Export Plug-In . SVG Version: 6.00 Build 0)  -->
<svg version="1.1" id="P_Johns" xmlns="http://www.w3.org/2000/svg" xmlns:xlink="http://www.w3.org/1999/xlink" x="0px" y="0px"
	 viewBox="0 0 170 170" style="enable-background:new 0 0 170 170;" xml:space="preserve">
<style type="text/css">
	.st0{fill:#E1E2E3;}
	.st1{fill:#44C2CE;}
	.st2{fill:#3B79A3;}
	.st3{fill:#424750;}
	.st4{fill:none;stroke:#504F4F;stroke-width:2;stroke-miterlimit:10;}
	.st5{fill:#504F4F;}
	.st6{fill:#F16D6D;}
	.st7{fill:#87C6C0;}
	.st8{fill:#89DBD8;}
	.st9{fill:none;stroke:#C7C6C6;stroke-width:0.7565;stroke-miterlimit:10;}
	.st10{fill-rule:evenodd;clip-rule:evenodd;fill:#444751;}
	.st11{fill-rule:evenodd;clip-rule:evenodd;fill:#D6D6D5;}
	.st12{fill:#FFFFFF;}
	.st13{fill:#2B2A34;}
	.st14{fill:#2B2C2D;}
	.st15{fill:none;stroke:#504F4F;stroke-miterlimit:10;}
	.st16{fill-rule:evenodd;clip-rule:evenodd;fill:#89DBD8;}
	.st17{fill-rule:evenodd;clip-rule:evenodd;fill:#87C6C0;}
	.st18{fill:#59473A;}
	.st19{fill:none;stroke:#F2C24E;stroke-miterlimit:10;}
	.st20{fill:none;stroke:#F2C24E;stroke-linecap:round;stroke-miterlimit:10;}
	.st21{fill:#E9676D;}
	.st22{fill:#F6ECC3;}
	.st23{fill:#A6A8AB;}
	.st24{fill:none;stroke:#FFFFFF;stroke-width:5.289;stroke-miterlimit:10;}
	.st25{fill:#E6E6E6;}
	.st26{opacity:0.2;fill:none;stroke:#FFFFFF;stroke-width:3;stroke-miterlimit:10;}
	.st27{fill:none;stroke:#E9676D;stroke-linecap:round;stroke-miterlimit:10;}
	.st28{fill:#FCB856;}
	.st29{fill:none;stroke:#FCB856;stroke-linecap:round;stroke-miterlimit:10;}
	.st30{fill:none;stroke:#CBCACA;stroke-width:3.4513;stroke-miterlimit:10;}
	.st31{fill-rule:evenodd;clip-rule:evenodd;fill:#DADAD9;}
	.st32{fill:#469595;}
	.st33{fill:#2A2D35;}
	.st34{fill:#387D7B;}
	.st35{fill:#BFF7F5;}
	.st36{opacity:0.4;fill:#FFFFFF;}
	.st37{fill:#D3D3D3;}
	.st38{fill:none;stroke:#FFFFFF;stroke-width:5.0355;stroke-miterlimit:10;}
	.st39{fill:#777777;}
	.st40{fill:#70533D;}
	.st41{fill:#EA6A6D;}
	.st42{fill:#C7C6C6;}
	.st43{fill:#9FA0A3;}
	.st44{fill:#3C5777;}
	.st45{fill:#F2C24E;}
	.st46{fill:none;stroke:#E1E2E3;stroke-miterlimit:10;}
	.st47{fill:#314759;}
	.st48{fill:none;stroke:#314759;stroke-miterlimit:10;}
	.st49{fill:none;stroke:#3C5777;stroke-miterlimit:10;}
	.st50{fill:#80BBA8;}
	.st51{fill:#E94C64;}
	.st52{fill:#59C0C1;}
	.st53{fill:#8E8E8E;}
	.st54{fill:#80C0AC;}
	.st55{fill:none;stroke:#504F4F;stroke-linecap:round;stroke-miterlimit:10;}
	.st56{fill:#F9D88F;}
	.st57{fill:#BABABA;}
	.st58{clip-path:url(#XMLID_3_);fill:#F9D88F;}
	.st59{fill-rule:evenodd;clip-rule:evenodd;fill:#F2BC86;}
	.st60{fill:#F2F2F2;}
	.st61{fill:#57C4C6;}
	.st62{fill:#B4E219;}
	.st63{fill:#74777C;}
	.st64{fill:#E03E3E;}
	.st65{fill:#595C62;}
	.st66{fill:none;stroke:#C7C6C6;stroke-width:0.8879;stroke-miterlimit:10;}
	.st67{fill-rule:evenodd;clip-rule:evenodd;fill:#F9F0EB;}
	.st68{fill-rule:evenodd;clip-rule:evenodd;fill:#595C62;}
	.st69{fill:#EC7045;}
	.st70{opacity:0.7;}
	.st71{fill:#90CED2;}
	.st72{fill:#882888;}
	.st73{fill:#C1C0C0;}
	.st74{fill:#768035;}
	.st75{fill:#E3B27C;}
	.st76{fill:#775644;}
	.st77{fill:#DBC7C2;}
	.st78{fill:#D95027;}
	.st79{fill:#57BFC2;}
	.st80{clip-path:url(#SVGID_2_);}
	.st81{fill-rule:evenodd;clip-rule:evenodd;fill:#424750;}
	.st82{fill-rule:evenodd;clip-rule:evenodd;fill:#E1E2E3;}
	.st83{fill:none;stroke:#E6E6E6;stroke-miterlimit:10;}
	.st84{fill:#6BA588;}
	.st85{fill:#F9F0EB;}
	.st86{fill:none;stroke:#6BA588;stroke-miterlimit:10;}
	.st87{fill:#281A12;}
	.st88{fill:#2E465D;}
	.st89{fill:#422E21;}
	.st90{fill-rule:evenodd;clip-rule:evenodd;fill:#3C5F7C;}
	.st91{fill-rule:evenodd;clip-rule:evenodd;fill:#2E465D;}
	.st92{fill:#EDE2A2;}
	.st93{fill:#EFDFA8;}
	.st94{fill:#9AC68F;}
	.st95{clip-path:url(#XMLID_5_);fill:#B4D6AA;}
	.st96{fill:#96D696;}
	.st97{clip-path:url(#XMLID_6_);fill:#A7DBA7;}
	.st98{clip-path:url(#XMLID_7_);fill:#B4D6AA;}
	.st99{fill:#4D4D4F;}
	.st100{fill:#69502E;}
	.st101{fill:#3F3F3F;}
	.st102{fill:#4C381B;}
	.st103{fill:#919090;}
	.st104{fill:#74DDE2;}
	.st105{clip-path:url(#XMLID_10_);fill:#F9D88F;}
	.st106{fill-rule:evenodd;clip-rule:evenodd;fill:#504F4F;}
	.st107{fill-rule:evenodd;clip-rule:evenodd;fill:#FFFFFF;}
	.st108{fill-rule:evenodd;clip-rule:evenodd;fill:none;stroke:#4D4D4D;stroke-miterlimit:10;}
	.st109{fill:#4D4D4D;}
	.st110{fill:#42474F;}
	.st111{fill:#E6E7E8;}
	.st112{fill:#3A3A3A;}
	.st113{fill-rule:evenodd;clip-rule:evenodd;fill:#43474F;}
	.st114{fill-rule:evenodd;clip-rule:evenodd;fill:#DBDBDA;}
	.st115{fill:#F3E7A8;}
	.st116{fill:#F4E4AD;}
	.st117{fill:none;stroke:#F4E4AD;stroke-width:0.454;stroke-miterlimit:10;}
	.st118{fill:#57C4C7;}
	.st119{clip-path:url(#SVGID_4_);fill:#E6E7E8;}
	.st120{fill-rule:evenodd;clip-rule:evenodd;fill:#42474F;}
	.st121{fill-rule:evenodd;clip-rule:evenodd;fill:#E6E7E8;}
	.st122{fill:#E5D9BE;}
	.st123{fill:#F7F1E2;}
	.st124{fill:#B5967D;}
	.st125{clip-path:url(#XMLID_11_);fill:#96D696;}
	.st126{fill-rule:evenodd;clip-rule:evenodd;fill:#92BA85;}
	.st127{fill-rule:evenodd;clip-rule:evenodd;fill:#EFEFE4;}
	.st128{fill-rule:evenodd;clip-rule:evenodd;fill:#E0E0C7;}
	.st129{fill:#999999;}
	.st130{fill:#F9C543;}
	.st131{fill:#355B77;}
	.st132{fill:#C49B49;}
	.st133{fill:#444751;}
	.st134{fill:#D6D6D5;}
	.st135{fill:none;}
	.st136{fill:#5DC667;}
	.st137{fill:#EDE9C3;}
	.st138{fill:none;stroke:#FCD98D;stroke-linecap:round;stroke-miterlimit:10;}
	.st139{fill:none;stroke:#CBCACA;stroke-width:0.5;stroke-miterlimit:10;}
	.st140{fill:none;stroke:#80C0AC;stroke-width:0.5;stroke-miterlimit:10;}
	.st141{fill:#E85273;}
	.st142{fill:#FCD224;}
	.st143{fill:#59B5CE;}
	.st144{fill:#52ACC1;}
	.st145{fill:#FAFAFA;}
	.st146{fill:#E7E6E6;}
	.st147{fill:#71D3F4;}
	.st148{fill:#A3E8E3;}
	.st149{fill:#4AAFAF;}
	.st150{fill:#F2BC86;}
	.st151{fill:#585D62;}
	.st152{fill-rule:evenodd;clip-rule:evenodd;fill:#DBDBD9;}
	.st153{fill-rule:evenodd;clip-rule:evenodd;fill:#E7E6E6;}
	.st154{fill:#2A2A34;}
	.st155{fill:none;stroke:#3B79A3;stroke-miterlimit:10;}
	.st156{fill:#EDEFED;}
	.st157{fill:none;stroke:#CCCCCC;stroke-miterlimit:10;stroke-dasharray:1,1;}
	.st158{fill:#2D567F;}
	.st159{fill:#EF89B0;}
	.st160{fill:#3F6B9E;}
	.st161{fill:#D21C5A;}
	.st162{fill:#EDC169;}
	.st163{fill:#DDAC57;}
	.st164{fill:#92BA85;}
	.st165{fill:#29507F;}
	.st166{fill:none;stroke:#EFDFA8;stroke-width:0.3783;stroke-miterlimit:10;}
	.st167{clip-path:url(#SVGID_6_);}
	.st168{fill:#AEAEAF;}
	.st169{fill:#895C4E;}
	.st170{fill-rule:evenodd;clip-rule:evenodd;fill:#F7E9DF;}
	.st171{clip-path:url(#SVGID_8_);}
	.st172{clip-path:url(#SVGID_10_);fill:#F15C60;}
	.st173{fill-rule:evenodd;clip-rule:evenodd;fill:#F4F4F4;}
	.st174{clip-path:url(#SVGID_12_);}
	.st175{clip-path:url(#SVGID_14_);fill:#F15C60;}
</style>
<g>
	<path class="st0" d="M32.4,96.6c1.8-5,3.2-2.6,6.2-2.2c0,0-2.9-4.1,0-3.2c0,0-2-5.5,1-5.2c0,0-2-8.1,2.8-4.6
		c8.6,6.3,23.9,12.1,42.4-4.3l-0.6,24.3L70.4,119c0,0-20.5,7.5-33.4-12.8c0,0,0,0,0,0c-2.3-3.4-3.6-6.5-4.5-9.1
		C32.5,96.8,32.4,96.7,32.4,96.6C32.3,96.5,32.4,96.5,32.4,96.6"/>
	<path class="st39" d="M58.1,102.5c0-5.6-1.5-10.9-4-15.5c8.3,2,18.9,0.7,30.8-9.9l0.4,24.3L70.4,119c0,0-8,2.9-17.1,0.2
		C56.3,114.3,58.1,108.6,58.1,102.5"/>
	<path class="st0" d="M113.9,41.5c0.2-4.4-0.1-9.1-1.8-12.4c-0.9-2.5-3.8-4.1-6.7-5.1c1.3,0,2.4,0,2.4,0c-3.1-2.1-5.9-2-7.9-1.2
		c-0.6-0.1-1.1-0.1-1.5-0.2c1.5-0.8,3.1-1.4,3.1-1.4c-4.9-1.2-9,1.5-10.8,2.9c-2.9,1-5.6,2.5-6.5,5c-1.7,3.3-2,8-1.8,12.4
		c-0.2,4.1,0,7.2,0.9,10.3c2.4,5.8,1.3,10.1,0.1,14.6L98.5,93v0.1l15.1-26.6c-1-4.1-3.3-9.2-0.6-14.7C114,48.7,114.1,45,113.9,41.5"
		/>
	<path class="st12" d="M105.7,38.7c0,1.4,1.4,2.5,3.2,2.6c1.8,0.1,3.4-1,3.4-2.4c0-1.4-1.4-2.5-3.2-2.6
		C107.3,36.3,105.7,37.3,105.7,38.7"/>
	<path class="st13" d="M107.5,38.5c-0.1,0.8,0.5,1.6,1.3,1.7c0.8,0.1,1.6-0.5,1.7-1.3c0.1-0.8-0.5-1.6-1.3-1.7
		C108.4,37.1,107.6,37.7,107.5,38.5"/>
	<path class="st12" d="M85.3,38.7c0,1.4,1.4,2.5,3.2,2.6c1.8,0.1,3.4-1,3.4-2.4c0-1.4-1.4-2.5-3.2-2.6
		C86.9,36.3,85.4,37.3,85.3,38.7"/>
	<path class="st13" d="M87.1,38.5c-0.1,0.8,0.5,1.6,1.3,1.7c0.8,0.1,1.6-0.5,1.7-1.3c0.1-0.8-0.5-1.6-1.3-1.7
		C88,37.1,87.2,37.7,87.1,38.5"/>
	<path class="st3" d="M98.7,42.2c1.6,2.8,5.1,3.5,5.1,3.5c-2.7,1.7-5.4,6.8-5.4,6.8s-2.6-5.1-5.3-6.8C93.2,45.7,97.1,44.9,98.7,42.2
		"/>
	<path class="st14" d="M100.4,158.9l0.1-0.1l-0.1-0.1v-2.1c0-0.3,0.2-0.5,0.5-0.5c0,0,0.7,0.6,1.8,0.6c1.2,0,1.7-0.6,2-0.6
		c0.1,0,0-0.3,0.3,0c1.8,1.7,5.8,2,5.8,2c0.2,0,0.4,0.4,0.2,0.6c0,0-0.1,0.1-0.1,0.1l0.1,0.1c0,0.3-0.2,0.5-0.5,0.5h-9.6
		c-0.3,0-0.5-0.2-0.5-0.5V158.9z"/>
	<path class="st14" d="M96.5,159c0,0.3-0.2,0.5-0.5,0.5h-9.6c-0.3,0-0.5-0.2-0.5-0.5l0.1-0.1c0,0-0.1-0.1-0.1-0.1
		c-0.2-0.2-0.1-0.6,0.2-0.6c0,0,4-0.3,5.8-2c0.3-0.3,0.2,0,0.3,0c0.3,0,0.9,0.6,2,0.6c1.2,0,1.8-0.6,1.8-0.6c0.3,0,0.5,0.2,0.5,0.5
		v2.1l-0.1,0.1l0.1,0.1V159z"/>
	<path class="st40" d="M54.2,73l-14.3-6.8l-1.5,3.1c-0.6,1.3-0.1,2.9,1.2,3.5l9.6,4.6c1.3,0.6,2.9,0.1,3.5-1.2L54.2,73z"/>
	<path class="st41" d="M59.3,62.3c-3.9,1.6-11.6-11.5-15.3-4.8l-2.9,6l14.3,6.8C55.5,70.4,57.2,66.3,59.3,62.3z"/>
	<path class="st40" d="M47,74l-3.3-1.6l-7,14.7c-0.3,0.7,0,1.6,0.7,1.9l0.7,0.3c0.7,0.3,1.6,0,1.9-0.7L47,74z"/>
	
		<rect x="39.8" y="66.8" transform="matrix(0.9029 0.4298 -0.4298 0.9029 33.9653 -13.8741)" class="st42" width="15.8" height="2.9"/>
	<path class="st42" d="M32.6,96.9c-1.6-9.7,5-15.5,7.3-17.2c6.7,4,14.3,3.3,14.3,3.3c-2.8,2.9-8.4,3-8.4,3c1.6,1.5,7.3-0.8,7.3-0.8
		c-3.3,4.5-9.6,3.7-9.6,3.7c1.8,1.1,7.1-0.1,7.1-0.1c-2.8,3.1-10.2,2.6-10.2,2.6c1.6,1.4,8.2-0.3,8.2-0.3s-1.5,1.9-5,3.5
		c0,0,0.1,0,0.1,0c-0.1,0-0.2,0.1-0.3,0.1c-1.8,0.8-4,1.5-6.9,1.9c0,0,0,0,0,0C35.1,96.8,33.8,96.9,32.6,96.9z"/>
	<path class="st43" d="M120.6,82.9c-3.8-5.2-5.7-12.2-7.1-16.6c-0.1-0.4-0.3-0.6-0.4-0.8c-16,12-27.9,1.4-29.4,0
		c-0.1,0.2-0.3,0.4-0.4,0.8C81.9,70.8,80,77.9,76.2,83c-7.5,7.1-12.3,17.7-12.3,29.6c0,13.3,9.1,24.5,18.2,31.5
		c5.6-2.1,13.6-8.1,16.4-26.4c0,0-1.1,18.8,17.1,25.8c9-7,17.5-17.8,17.5-31C133.1,100.7,128.2,90,120.6,82.9z"/>
	<path class="st44" d="M133.1,111c-10-4-16.3-17.3-18.4-22.2c-0.5-1.1-1.5-1.8-2.7-1.8H85.5c-1.2,0-2.3,0.7-2.7,1.8
		c-1.9,4.6-9.3,18.2-18.8,22.2h0c0,1,0,1,0,1.5c0,10.6,5.8,19.9,12.8,26.8c1.5,1.7,3.2,3.2,5.1,4.5c0.1,0.1,0.2,0.2,0.3,0.3
		c0,0,0,0,0,0c0.8,0.5,1.7,1.1,2.5,1.5l-0.1,0c4.4,2.5,7.3,6.7,8.3,11.7c0.2-0.1,1.1-0.5,2.1,0v-8.6c2,0.1,2.5,0.2,3.5,0.2
		c1,0,2.5-0.1,3.5-0.2v8.6c1-0.5,1.8-0.1,2,0c0.9-5,4-9.2,8.3-11.7l-0.1,0c1.2-0.6,2.3-1.3,3.3-2.1c0,0,0,0,0,0
		c0.1-0.1,0.2-0.1,0.3-0.2c1-0.8,2-1.6,2.9-2.5c7.7-6.9,14.3-16.8,14.3-28.4C133.1,112,133.1,112,133.1,111L133.1,111z"/>
	<path class="st44" d="M84.1,90.8l2.6-1.8c0.3-0.2,0.3-0.8-0.1-1.4l-7-10.2c-0.5-0.7-1.2-0.8-1.4-0.3l-1.4,3.6
		c-0.1,0.3,0,0.7,0.2,1.1l5.8,8.4C83.2,90.8,83.8,91.1,84.1,90.8z"/>
	<circle class="st45" cx="85.8" cy="90.2" r="1.7"/>
	<g>
		<path class="st46" d="M117,85.5c0,0,2,1.6,1.2,1.9c-1.4,0.6-3.4-0.1-3.4-0.1s1.6,3.2-2.2,3.2"/>
		<path class="st46" d="M113.6,83.5c0,0-2.2-1.2-2.2-0.4c0,1.5,1.4,3.2,1.4,3.2s-3.6-0.3-2.2,3.2"/>
	</g>
	<path class="st44" d="M116,86.3l-2.6-1.8c-0.3-0.2-0.4-0.7-0.2-1l4.4-6.4c0.3-0.4,0.9-0.4,1.2,0l1.9,3c0.2,0.2,0.1,0.6,0,0.8
		l-3.6,5.2C116.7,86.4,116.3,86.5,116,86.3z"/>
	<circle class="st45" cx="111.6" cy="90.2" r="1.7"/>
	<path class="st47" d="M105.1,117.8H91.9c-5.1,0-9.2-4.1-9.2-9.2V97.8h31.7v10.7C114.3,113.6,110.2,117.8,105.1,117.8z"/>
	<path class="st48" d="M65.2,121.4c0,0,32.9,21.2,66.6,0"/>
	<line class="st49" x1="98.5" y1="98" x2="98.5" y2="117"/>
	<path class="st49" d="M89.5,98v9c0,0,0.6,4.6-6.5,4.6"/>
	<path class="st49" d="M107.5,98v9c0,0-0.6,4.6,6.5,4.6"/>
	<path class="st48" d="M121.3,126.7c0,0-3.6,8.1,4.1,6.9"/>
	<path class="st48" d="M76.6,126.7c0,0,3.1,8-4.7,6.9"/>
	<g>
		<path class="st41" d="M93.7,111.3l1.6,0.1c1.5,0.1,2.8-1,2.9-2.4l2.2-27.2c0-0.6-0.4-1.1-0.9-1.1l-4.9-0.4c-0.6,0-1.1,0.4-1.1,0.9
			l-2.2,27.2C91.1,109.9,92.2,111.2,93.7,111.3z"/>
		<path class="st40" d="M94.7,111.7l1.5-0.4c1.4-0.4,2.3-1.8,1.9-3.2l-6.6-26.6c-0.1-0.5-0.7-0.9-1.2-0.7L85.6,82
			c-0.5,0.1-0.9,0.7-0.7,1.2l6.6,26.6C91.9,111.2,93.3,112.1,94.7,111.7z"/>
		<path class="st50" d="M99,110.3l1.2-1c1.1-1,1.3-2.6,0.3-3.8L82.8,84.6c-0.4-0.4-1-0.5-1.4-0.1l-3.7,3.1c-0.4,0.4-0.5,1-0.1,1.4
			l17.7,20.9C96.2,111.1,97.9,111.2,99,110.3z"/>
		<path class="st51" d="M101.3,108.2l0.7-1.4c0.7-1.3,0.1-2.9-1.2-3.6L76.4,91c-0.5-0.3-1.1,0-1.4,0.5l-2.2,4.4
			c-0.3,0.5,0,1.1,0.5,1.4l24.5,12.2C99.1,110.1,100.7,109.6,101.3,108.2z"/>
		<path class="st52" d="M103.9,103.3l0-1.6c0-1.5-1.2-2.6-2.7-2.6l-27.4,0.6c-0.6,0-1,0.5-1,1l0.1,4.9c0,0.6,0.5,1,1,1l27.4-0.6
			C102.8,106,104,104.8,103.9,103.3z"/>
		<path class="st39" d="M112.1,99.3c0,0,8.5,2.7,18.4-1.7c0,0,7.7,18.3-3.5,33.8c0,0-6.8,2.8-15.6,0
			C111.4,131.4,121.4,117.7,112.1,99.3"/>
		<path class="st0" d="M89.5,100.2c0,0,4.3,8.7,7.3,9.1c0,0-7.5-7.6-6.8-13.5c0,0,3.8,6.8,6.6,7.7c0,0-6.8-5.9-5.1-13.8
			c0,0,3,8.3,6.1,8.6c0,0-5.2-6.1-4.7-11.8c0,0,7.3,9.9,19.2,12.8c2.6,4.6,4,9.8,4,15.5c0,6.1-1.7,11.8-4.7,16.6
			c-5.5-1.6-11.5-5.4-16.3-13c0,0,0,0,0,0c-2.3-3.4-3.6-6.5-4.5-9.1c-0.1-0.2-0.1-0.3-0.2-0.5c0,0,0,0,0.1,0.1
			C88.9,103.6,89.5,100.2,89.5,100.2"/>
	</g>
	<line class="st48" x1="98.5" y1="130" x2="98.5" y2="149"/>
	<rect x="45.2" y="136.8" class="st43" width="18.9" height="21.6"/>
	<path class="st53" d="M63.8,138.2H45.5c-0.5,0-0.9-0.4-0.9-0.9v0c0-0.5,0.4-0.9,0.9-0.9h18.3c0.5,0,0.9,0.4,0.9,0.9v0
		C64.7,137.8,64.3,138.2,63.8,138.2z"/>
	<path class="st54" d="M51.6,156c0,0-5.9,0.3-6.4-0.8v-13.8h6.4c0.8,0,1.4,0.7,1.4,1.7v11.3C52.9,155.3,52.3,156,51.6,156z"/>
	<path class="st41" d="M61.4,138.2h-1.5h-1.5v7.1c0,0.4,0.3,0.7,0.7,0.7h0c0.4,0,0.7-0.3,0.7-0.7v-2.9c0-0.4,0.3-0.7,0.7-0.7h0
		c0.4,0,0.7,0.3,0.7,0.7v4.3c0,0.4,0.3,0.7,0.7,0.8c0.4,0,0.8-0.3,0.8-0.7v-8.5H61.4z"/>
	<path class="st41" d="M56.5,149.8h-0.3c-0.4,0-0.7-0.3-0.7-0.7v-4.9h1.7v4.9C57.2,149.5,56.9,149.8,56.5,149.8z"/>
	<rect x="55.5" y="138.2" class="st41" width="1.7" height="6.2"/>
	<path class="st41" d="M55.5,136.4h1.7c0,0,0.1,0.3,0.1,0.9c0,0.6-0.1,0.9-0.1,0.9h-1.7c0,0,0.1-0.3,0.1-0.9
		C55.6,136.7,55.5,136.4,55.5,136.4z"/>
	<path class="st41" d="M58.5,136.4h4.4c0,0,0.1,0.3,0.1,0.9c0,0.6-0.1,0.9-0.1,0.9h-4.4c0,0,0.1-0.3,0.1-0.9
		C58.6,136.7,58.5,136.4,58.5,136.4z"/>
	<path class="st41" d="M55.6,137.6l-2.2-0.3c-0.5,0-1-0.3-1.3-0.8l-0.1-0.1h4.5L55.6,137.6z"/>
	<path class="st55" d="M45.3,139.6c-1.7,2.8-1.9,11,0.5,12.8c3.6,2.7,10.1-1.5,13.9-8.2c0.9-1.5,1.5-3.1,2-4.6"/>
	<ellipse class="st43" cx="54.7" cy="158.4" rx="9.5" ry="1.3"/>
</g>
</svg>
