<?xml version="1.0" encoding="utf-8"?>
<!-- Generator: Adobe Illustrator 16.0.0, SVG Export Plug-In . SVG Version: 6.00 Build 0)  -->
<!DOCTYPE svg PUBLIC "-//W3C//DTD SVG 1.1//EN" "http://www.w3.org/Graphics/SVG/1.1/DTD/svg11.dtd">
<svg version="1.1" id="Layer_1" xmlns="http://www.w3.org/2000/svg" xmlns:xlink="http://www.w3.org/1999/xlink" x="0px" y="0px"
	 width="125px" height="125px" viewBox="0 0 125 125" enable-background="new 0 0 125 125" xml:space="preserve">
<g>
	<path fill="#14224F" d="M67.8,121.3c0.1-0.1,0.8-0.4,1.7,0v-6.5c0.8,0.1,1.6-5.9,2.3-5.9c0.8,0,1.6,5.9,2.3,5.9v6.5
		c0.9-0.4,1.6-0.1,1.7,0c0.7-3.8,3.1-7,6.4-8.9l-0.1,0c6.8-3.6,11.5-10.5,11.5-18.5c0-11.6-9.8-21.1-21.9-21.1
		c-12.1,0-21.9,9.4-21.9,21.1c0,8,4.6,15,11.5,18.5l-0.1,0C64.7,114.3,67.1,117.5,67.8,121.3z"/>
	<g>
		<path d="M73.4,122.4L73.4,122.4v-0.1v-1.7c0-0.2,0.2-0.4,0.4-0.4c0,0,0.5,0.4,1.5,0.4s1.4-0.4,1.6-0.4c0,0,0-0.2,0.2,0
			c1.4,1.3,4.6,1.6,4.6,1.6c0.2,0,0.3,0.3,0.1,0.5c0,0-0.1,0.1-0.1,0.1l0.1,0.1c0,0.2-0.2,0.4-0.4,0.4h-7.7c-0.2,0-0.4-0.2-0.4-0.4
			V122.4z"/>
		<path d="M70.3,122.5c0,0.2-0.2,0.4-0.4,0.4h-7.7c-0.2,0-0.4-0.2-0.4-0.4l0.1-0.1c0,0-0.1-0.1-0.1-0.1c-0.2-0.2,0-0.5,0.1-0.5
			c0,0,3.2-0.3,4.6-1.6c0.2-0.2,0.2,0,0.2,0c0.3,0,0.7,0.4,1.6,0.4c0.9,0,1.5-0.4,1.5-0.4c0.2,0,0.4,0.2,0.4,0.4v1.7l-0.1,0.1
			l0.1,0.1V122.5z"/>
	</g>
	<path d="M70.3,104.5c-0.2,0-10.6-0.7-12.1-3.1c-0.2-0.3-0.4-1.3-0.3-2.3c0.4-2.2,1.4-2.5,1.6-2.2c1.7,3.8,10.7,4.2,11,4.2
		c0.2,0,9.4,0,11-3.1c0.5-0.9,1.8,2.9,1.3,3.8C81.1,104.4,70.3,104.5,70.3,104.5z"/>
	<path fill="#14224F" d="M39.5,90.9c6.8,2.8,13.2,0.1,13.2,0.1l11.3-13.3l-0.3-18.5c-9.1,8-17.1,9.1-23.5,7.5
		c1.9,3.5,3.1,7.5,3.1,11.8C43.3,83.2,41.8,87.2,39.5,90.9z"/>
	<path fill="#CDCCCB" d="M57.3,74.1c0-8,6.5-14.5,14.5-14.5c8,0,14.5,6.5,14.5,14.5c0,8-6.5,14.5-14.5,14.5
		C63.9,88.7,57.3,82.1,57.3,74.1z M57.5,74.1c0,7.9,6.4,14.3,14.3,14.3c7.9,0,14.3-6.4,14.3-14.3c0-7.9-6.4-14.3-14.3-14.3
		C64,59.8,57.5,66.2,57.5,74.1z"/>
	<path fill="#27387D" d="M45.5,86.7c0,9.9,4.6,18.7,11.5,23.9c4.3-1.6,12.8-6.4,14.9-20.1c0,0,1.2,14.7,15,19.9
		c6.9-5.2,11.4-13.9,11.4-23.8c0-16-11.8-28.9-26.4-28.9C57.3,57.8,45.5,70.7,45.5,86.7z"/>
	<path fill="#27387D" d="M45.5,86.7c0,9.9,4.6,18.7,11.5,23.9c4.3-1.6,12.8-6.4,14.9-20.1c0,0,1.2,14.7,15,19.9
		c6.9-5.2,11.4-13.9,11.4-23.8c0-16-11.8-28.9-26.4-28.9C57.3,57.8,45.5,70.7,45.5,86.7z"/>
	<g>
		<path fill="#44474F" d="M71.7,58.1c0.7,0,1.3,0.6,1.3,1.3c0,0.7-0.6,1.3-1.3,1.3c-0.7,0-1.3-0.6-1.3-1.3
			C70.4,58.7,71,58.1,71.7,58.1z"/>
		<path fill="#DBDBDA" d="M71.7,59.1c0.2,0,0.3,0.1,0.3,0.3c0,0.2-0.1,0.3-0.3,0.3c-0.2,0-0.3-0.1-0.3-0.3
			C71.4,59.2,71.5,59.1,71.7,59.1z"/>
	</g>
	<g>
		<path fill="#44474F" d="M71.7,61.9c0.7,0,1.3,0.6,1.3,1.3c0,0.7-0.6,1.3-1.3,1.3c-0.7,0-1.3-0.6-1.3-1.3
			C70.4,62.5,71,61.9,71.7,61.9z"/>
		<path fill="#DBDBDA" d="M71.7,62.9c0.2,0,0.3,0.1,0.3,0.3c0,0.2-0.1,0.3-0.3,0.3c-0.2,0-0.3-0.1-0.3-0.3
			C71.4,63,71.5,62.9,71.7,62.9z"/>
	</g>
	<path fill="#E7E6E6" d="M60.7,44.2c2.1,4.2,0.9,9.7,0.1,12.8v2.4l11,16.3v-0.1L83,60.4l0.3-5.1c-0.9-3.4-1.8-6.7,0.1-11.1
		c0.7-2.3,0.8-4.7,0.7-7.9c0.2-3.3-0.1-6.9-1.4-9.4c-0.7-1.9-2.8-3.1-5-3.8c-1.4-1.1-4.5-3.1-8.2-2.2c0,0,1.2,0.4,2.4,1.1
		c-0.2,0-0.6,0.1-1.1,0.1c-1.6-0.6-3.7-0.7-6,0.9c0,0,0.9,0,1.8,0c-2.2,0.7-4.4,1.9-5.1,3.9c-1.3,2.5-1.5,6.1-1.4,9.4
		C59.9,39,60,41.9,60.7,44.2z"/>
	<path fill="#FFFFFF" d="M66.8,34.2c0,1-1.1,1.9-2.5,2c-1.4,0-2.6-0.8-2.6-1.8c0-1,1.1-1.9,2.5-2C65.6,32.4,66.8,33.2,66.8,34.2z"/>
	<path fill="#2B2B34" d="M65.4,34.1c0.1,0.6-0.4,1.2-1,1.3c-0.6,0.1-1.2-0.4-1.3-1c-0.1-0.6,0.4-1.2,1-1.3
		C64.8,33,65.3,33.5,65.4,34.1z"/>
	<path fill="#FFFFFF" d="M82.3,34.2c0,1-1.1,1.9-2.5,2c-1.4,0-2.6-0.8-2.6-1.8c0-1,1.1-1.9,2.5-2C81.1,32.4,82.3,33.2,82.3,34.2z"/>
	<path fill="#2B2B34" d="M81,34.1c0.1,0.6-0.4,1.2-1,1.3c-0.6,0.1-1.2-0.4-1.3-1c-0.1-0.6,0.4-1.2,1-1.3C80.3,33,80.9,33.5,81,34.1z
		"/>
	<path fill="#44474F" d="M72.1,38.1c-1.3,2.1-3.9,2.2-3.9,2.2c2.1,1.3,4.1,5.3,4.1,5.3s2-4.3,4-5.6C76.4,40,73.4,40.2,72.1,38.1z"/>
	<path fill="#E7E6E6" d="M40.9,66.8c0,0,8,12.4-0.1,24.6c0,0-11.3-3.9-15.2-11.7c-4.3-8.7-0.5-10.7-0.5-10.7s0,2.3,1.1,4.1
		c0.6,1.1,1.2,1.9,1.6,2.2c0,0-1.1-1.4-1.7-2.9c-1.5-3.7-0.1-9.3-0.1-8.8c0.3,4.3,4.7,8.2,2.3,5.1c-1.3-1.7-2.2-4.5-2-6.3
		c0.3-1.9,3-4.4,3.4-4.3c0.8,0.2-0.5,0.4-0.4,3.8c0.1,3.2,1.4,4.6,1.4,4.6s-0.8-0.3-1-4.7c-0.2-4.3,3.6-5.1,5.5-4.4c0,0,0.2,0,0.2,0
		V60c0,0-0.1,0.1-0.1,0.1c-0.7,0.5-0.9,1.3,0.2,3C37.6,65.8,40.9,66.8,40.9,66.8"/>
	<path fill="#14224F" d="M38.9,65.9c0,0,7.6,14,0,24.8c0,0,1.1,0.8,4.1,1.2c0,0,5.5-14.5,0-24.7C43,67.2,40.3,66.8,38.9,65.9z"/>
	<path fill="#BF7B2A" d="M66.4,24.1"/>
	<path fill="#CDCAC9" d="M98.2,88.9"/>
	<path fill="#A91E23" d="M85.7,56.9c-0.3-0.5-0.1-1.9-1.1-2c0,0-1.7-0.1-1.9,1.3c0,0,0,1.2,0.5,2c0,0,0.7,1.2,1.8,1.1
		c0,0,1.7-0.5,1.4-1.2C86.3,57.7,85.9,57.1,85.7,56.9z"/>
	<path fill="#A91E23" d="M72.3,62.3c-0.2,0-10.6-0.5-12.1-2.8c-0.2-0.3-0.5-1.3-0.3-2.3c0.3-2.2,1.4-2.5,1.5-2.2
		c1.8,3.8,10.8,3.9,11,3.9c0.2,0,9.4-0.2,11-3.4c0.5-0.9,1.9,2.9,1.3,3.8C83.1,61.9,72.3,62.3,72.3,62.3z"/>
	<path fill="#BBBDBF" d="M30.8,54.6c-0.8-2.9,0.5-8,1.6-10.1h2.9h2.9c1.2,2.2,2.4,7.2,1.6,10.1c-0.8,2.9-4,4.8-4,4.8v9.2
		c0,0.8,1.5,1.7,2.6,2c1.1,0.3,1.1,0.3,1.1,0.3v0.4h-4.2h-4.2V71c0,0,0,0.1,1.1-0.3c1.1-0.3,2.6-1.2,2.6-2v-9.2
		C34.9,59.5,31.6,57.5,30.8,54.6"/>
	<path fill="#BE202E" d="M39.8,52c0,0.9,0,1.8-0.2,2.5c-0.7,2.7-3.8,4.6-3.9,4.6l0,0h-0.5l0,0c0,0-3.1-1.9-3.9-4.6
		C31,53.8,30.9,53,31,52c0,0,1.8-0.7,4.4,0C38,52.7,39.8,52,39.8,52"/>
	<path fill="#E7E6E6" d="M38.6,57l-0.9,1c0,0-1.5,1.3-1.9,1.5V60c-0.3,0.2-0.6,0.3-1,0.6c-0.6,0.4,1.2,0.3,3-0.1
		c1-0.2,1.6-0.6,1.6-0.6C39.4,59.9,39.8,58,38.6,57z"/>
	<path d="M86.1,33.1c0.2,0,0.5,0,0.7,0c0.1,0,0.2,0,0.2-0.1c0.5-0.1,0.6-0.2,0.7-0.7c0-0.1,0-0.1,0-0.2c0-0.2,0-0.4,0-0.5
		c-0.1-0.2-0.2-0.4-0.3-0.6c-0.6-1.1-7-9.2-8-10.2c-0.2-0.2-0.2-0.4,0-0.6c0.2-0.2,0.6-0.7,0.8-0.9c0.2-0.2,0.2-0.6,0.1-0.7
		c-0.2-0.3-0.7-0.3-0.9,0c-0.2,0.3-0.4,0.5-0.7,0.8c-0.1,0.1-0.4,0.4-0.5,0.4c-0.8-0.3-1.6-0.7-2.4-0.9c-1.7-0.4-11.5-1.9-13-1.9
		c-0.4,0-0.8,0.1-1.1,0.4c-0.4,0.3-0.7,0.6-0.7,1.1c0,0.1,0,0.2-0.1,0.3c0,0.2,0,0.5,0,0.7c0,0.1,0,0.3,0.1,0.4c0.2,0.7,1.1,5,1.4,5
		c0.3,0,0.5,0,0.8,0c2.3,0.4,4.7,0.9,6.9,1.6c1.3,0.4,2.7,0.8,4,1.4c1.3,0.6,5.3,2.6,6.1,3c1.5,0.7,3,1.3,4.5,1.6
		C85.2,32.9,85.7,33,86.1,33.1z"/>
	<path fill="#14224F" d="M86,102.2c7.5,1,9.5-2.6,9.5-2.6c5.7-12.6,0.8-23.9,0.8-23.9c-3.4,3.2-10,1.8-10,1.8
		C93,88.6,86,102.2,86,102.2z"/>
	<path fill="#14224F" d="M81.7,76.7c0,0,2.7,0.7,4.6,0.7c0,0,6.8,9.4-0.3,24.8c0,0-2.5-0.1-5-1.1C81,101.1,87.1,89.4,81.7,76.7z"/>
	<g>
		<path fill="#E7E6E6" d="M65.8,84.1C65.8,84.1,65.8,84.1,65.8,84.1c0,0.1,0,0.2,0.1,0.3c0.6,2,1.7,4.4,3.4,7c0,0,0,0,0,0
			c3.7,5.8,8.2,8.7,12.5,9.9c2.3-3.7,3.6-8,3.6-12.7c0-4.3-1.1-8.3-3.1-11.8c-9.1-2.2-14.6-9.8-14.6-9.8c-0.3,4.3,3.6,9,3.6,9
			c-2.3-0.2-4.6-6.6-4.6-6.6c-1.3,6,3.9,10.5,3.9,10.5c-2.2-0.7-5-5.9-5-5.9c-0.5,4.5,5.2,10.3,5.2,10.3c-2.3-0.3-5.6-6.9-5.6-6.9
			S64.6,80.1,65.8,84.1z"/>
	</g>
	<path fill="#A91E23" d="M83.1,58.5c5.2,0.8,3.1,5.7,1.4,6.4c-1.2,0.5-2.8,0.8-3.2,1.6c-0.6,1.1-0.8,0.7-0.8,0.7
		c-0.1-2.2,0.7-4.6,0.7-4.6c0.4-1.6,1.8-2.4,1.8-2.4C84.1,59.4,83.1,58.5,83.1,58.5"/>
	<path fill="#A91E23" d="M87.4,58.9c0,0,2.9,0.8,3.6,2.2c0,0,0.9,1.8,1.5,3.7c0.1,0.4,0.7,1.1,1.4,1.1c0,0,0.5,0.8-1.7,0.4
		c0,0-6.4-0.7-7.5-5.6c0,0-0.2-1.5,0.2-2.6L87.4,58.9z"/>
	<circle fill="none" stroke="#231F20" stroke-width="0.7213" stroke-miterlimit="10" cx="64.4" cy="34.3" r="3.4"/>
	<circle fill="none" stroke="#231F20" stroke-width="0.7213" stroke-miterlimit="10" cx="79.8" cy="34.3" r="3.4"/>
	<path fill="none" stroke="#231F20" stroke-width="0.7213" stroke-miterlimit="10" d="M67.8,34c0,0,3.6-2.2,8.6,0"/>
	<path fill="#231F20" d="M68.5,33.9c0,0.5-0.2,0.8-0.4,0.8c-0.2,0-0.4-0.4-0.4-0.8c0-0.5,0.2-0.8,0.4-0.8
		C68.3,33.1,68.5,33.4,68.5,33.9z"/>
	<path fill="#231F20" d="M76.4,33.9c0,0.5-0.2,0.8-0.4,0.8c-0.2,0-0.4-0.4-0.4-0.8c0-0.5,0.2-0.8,0.4-0.8
		C76.2,33.1,76.4,33.4,76.4,33.9z"/>
	<g>
		<path fill-rule="evenodd" clip-rule="evenodd" fill="#FFBF31" d="M62.1,91c-0.5,0-0.9-0.4-1-0.9c0-0.3,0.1-0.5,0.3-0.7
			c-0.3-0.5-0.7-0.9-1-1.1c-0.7-0.4-3.2,1.2-5.4,2.8c0.1,0.1,0.1,0.2,0.1,0.3c0,0.4-0.3,0.8-0.8,0.8c-0.2,0-0.5-0.1-0.6-0.2
			c-1.2,0.9-2,1.5-2,1.5c7.1,1.9,11.4-0.8,11.4-0.8c-0.1-0.2-0.4-1-0.8-1.8C62.2,91,62.2,91,62.1,91z"/>
		<path fill-rule="evenodd" clip-rule="evenodd" fill="#ED8803" d="M56,92.5c0.2,0.3,0.6,0.2,1,0c0.4-0.3,0.6-0.7,0.5-0.9
			c-0.2-0.3-0.6-0.2-1,0S55.8,92.3,56,92.5z"/>
		
			<ellipse transform="matrix(-0.7851 0.6194 -0.6194 -0.7851 164.017 126.8217)" fill-rule="evenodd" clip-rule="evenodd" fill="#ED8803" cx="60" cy="91.9" rx="1.2" ry="0.7"/>
		
			<ellipse transform="matrix(-0.8346 0.5509 -0.5509 -0.8346 149.9286 141.1195)" fill-rule="evenodd" clip-rule="evenodd" fill="#ED8803" cx="53.8" cy="93.1" rx="0.3" ry="0.2"/>
		<path fill-rule="evenodd" clip-rule="evenodd" fill="#ED8803" d="M59.1,89.9c0.1,0.1,0.3,0.2,0.5,0.1c0.2-0.1,0.2-0.3,0.1-0.5
			c-0.1-0.1-0.3-0.2-0.5-0.1C59.1,89.5,59,89.7,59.1,89.9z"/>
	</g>
	<path fill-rule="evenodd" clip-rule="evenodd" d="M72.2,38c0.2-0.1,0.3-0.2,0.5-0.3c0.3-0.2,0.6-0.3,0.9-0.3c0.2,0,0.4,0.1,0.5,0.1
		c0.3,0.1,0.5,0.2,0.7,0.4c0.3,0.2,0.6,0.4,0.9,0.5c0.2,0.1,0.4,0.2,0.6,0.2c0.3,0.1,0.5-0.1,0.6-0.3c0-0.1,0-0.2,0-0.3
		c0-0.1-0.1-0.1-0.1-0.2c-0.1-0.1-0.1-0.1-0.2-0.1c-0.1,0-0.3,0-0.4,0.1c0,0,0,0-0.1,0c0,0-0.1,0-0.1,0c0,0,0-0.1,0-0.1
		c0-0.1,0-0.1,0.1-0.2c0.1-0.2,0.2-0.2,0.4-0.3c0.2,0,0.4,0,0.6,0.1c0.3,0.1,0.5,0.4,0.6,0.7c0.1,0.4,0.1,0.7-0.1,1
		c-0.1,0.2-0.3,0.4-0.5,0.5c-0.2,0.1-0.3,0.2-0.5,0.2c-0.2,0-0.3,0.1-0.5,0.1c-0.3,0.1-0.7,0.1-1,0c-0.2,0-0.4,0-0.6-0.1
		c-0.2,0-0.5-0.1-0.7-0.2c-0.4-0.1-0.7-0.3-1-0.5c-0.1-0.1-0.3-0.2-0.4-0.3c0,0,0,0-0.1,0c-0.1,0.1-0.3,0.2-0.5,0.3
		c-0.2,0.1-0.3,0.2-0.5,0.3c-0.3,0.1-0.6,0.3-0.9,0.3c-0.2,0.1-0.5,0.1-0.7,0.1c-0.2,0-0.4,0-0.7,0c-0.2,0-0.5,0-0.7-0.1
		c-0.2,0-0.5-0.1-0.7-0.2c-0.2-0.1-0.5-0.3-0.6-0.5c-0.2-0.2-0.3-0.5-0.2-0.8c0-0.2,0.1-0.4,0.3-0.6c0.1-0.2,0.3-0.3,0.5-0.4
		c0.3-0.1,0.5,0,0.7,0.2c0.1,0.1,0.1,0.1,0.2,0.2c0,0,0,0.1,0,0.1c0,0-0.1,0-0.1,0c-0.2-0.1-0.4-0.2-0.6-0.1c-0.1,0-0.2,0.1-0.2,0.2
		c0,0.2,0,0.3,0,0.5c0.1,0.1,0.2,0.2,0.3,0.2c0.2,0,0.4-0.1,0.6-0.2c0.2-0.1,0.4-0.3,0.6-0.4c0.3-0.2,0.7-0.5,1-0.6
		c0.3-0.1,0.7-0.2,1-0.2C71.5,37.6,71.8,37.7,72.2,38C72.2,38,72.2,38,72.2,38z"/>
	<path fill-rule="evenodd" clip-rule="evenodd" fill="#14224F" d="M64.6,94.3c-7.9,2.5-14.2,0.1-14.2,0.1v-1.9c0,0,6.3,2.5,14.2-0.1
		V94.3z"/>
</g>
</svg>
