<?xml version="1.0" encoding="utf-8"?>
<!-- Generator: Adobe Illustrator 19.1.0, SVG Export Plug-In . SVG Version: 6.00 Build 0)  -->
<svg version="1.1" id="P_Johns" xmlns="http://www.w3.org/2000/svg" xmlns:xlink="http://www.w3.org/1999/xlink" x="0px" y="0px"
	 viewBox="0 0 170 170" style="enable-background:new 0 0 170 170;" xml:space="preserve">
<style type="text/css">
	.st0{fill:#E1E2E3;}
	.st1{fill:#44C2CE;}
	.st2{fill:#3B79A3;}
	.st3{fill:#424750;}
	.st4{fill:none;stroke:#504F4F;stroke-width:2;stroke-miterlimit:10;}
	.st5{fill:#504F4F;}
	.st6{fill:#F16D6D;}
	.st7{fill:#87C6C0;}
	.st8{fill:#89DBD8;}
	.st9{fill:none;stroke:#C7C6C6;stroke-width:0.7565;stroke-miterlimit:10;}
	.st10{fill-rule:evenodd;clip-rule:evenodd;fill:#444751;}
	.st11{fill-rule:evenodd;clip-rule:evenodd;fill:#D6D6D5;}
	.st12{fill:#FFFFFF;}
	.st13{fill:#2B2A34;}
	.st14{fill:#2B2C2D;}
	.st15{fill:none;stroke:#504F4F;stroke-miterlimit:10;}
	.st16{fill-rule:evenodd;clip-rule:evenodd;fill:#89DBD8;}
	.st17{fill-rule:evenodd;clip-rule:evenodd;fill:#87C6C0;}
	.st18{fill:#59473A;}
	.st19{fill:none;stroke:#F2C24E;stroke-miterlimit:10;}
	.st20{fill:none;stroke:#F2C24E;stroke-linecap:round;stroke-miterlimit:10;}
	.st21{fill:#E9676D;}
	.st22{fill:#F6ECC3;}
	.st23{fill:#A6A8AB;}
	.st24{fill:none;stroke:#FFFFFF;stroke-width:5.289;stroke-miterlimit:10;}
	.st25{fill:#E6E6E6;}
	.st26{opacity:0.2;fill:none;stroke:#FFFFFF;stroke-width:3;stroke-miterlimit:10;}
	.st27{fill:none;stroke:#E9676D;stroke-linecap:round;stroke-miterlimit:10;}
	.st28{fill:#FCB856;}
	.st29{fill:none;stroke:#FCB856;stroke-linecap:round;stroke-miterlimit:10;}
	.st30{fill:none;stroke:#CBCACA;stroke-width:3.4513;stroke-miterlimit:10;}
	.st31{fill-rule:evenodd;clip-rule:evenodd;fill:#DADAD9;}
	.st32{fill:#469595;}
	.st33{font-family:'Georgia';}
	.st34{font-size:1.5503px;}
	.st35{font-size:1.5504px;}
	.st36{font-size:1.5505px;}
	.st37{fill:#2A2D35;}
	.st38{fill:#387D7B;}
	.st39{fill:#BFF7F5;}
	.st40{opacity:0.4;fill:#FFFFFF;}
	.st41{fill:#D3D3D3;}
	.st42{fill:none;stroke:#FFFFFF;stroke-width:5.0355;stroke-miterlimit:10;}
	.st43{fill:#777777;}
	.st44{fill:#70533D;}
	.st45{fill:#EA6A6D;}
	.st46{fill:#C7C6C6;}
	.st47{fill:#9FA0A3;}
	.st48{fill:#3C5777;}
	.st49{fill:#F2C24E;}
	.st50{fill:none;stroke:#E1E2E3;stroke-miterlimit:10;}
	.st51{fill:#314759;}
	.st52{fill:none;stroke:#314759;stroke-miterlimit:10;}
	.st53{fill:none;stroke:#3C5777;stroke-miterlimit:10;}
	.st54{fill:#80BBA8;}
	.st55{fill:#E94C64;}
	.st56{fill:#59C0C1;}
	.st57{fill:#8E8E8E;}
	.st58{fill:#80C0AC;}
	.st59{fill:none;stroke:#504F4F;stroke-linecap:round;stroke-miterlimit:10;}
	.st60{fill:#F9D88F;}
	.st61{fill:#BABABA;}
	.st62{clip-path:url(#XMLID_3_);fill:#F9D88F;}
	.st63{fill-rule:evenodd;clip-rule:evenodd;fill:#F2BC86;}
	.st64{fill:#F2F2F2;}
	.st65{fill:#57C4C6;}
	.st66{fill:#B4E219;}
	.st67{fill:#74777C;}
	.st68{fill:#E03E3E;}
	.st69{fill:#595C62;}
	.st70{fill:none;stroke:#C7C6C6;stroke-width:0.8879;stroke-miterlimit:10;}
	.st71{fill-rule:evenodd;clip-rule:evenodd;fill:#F9F0EB;}
	.st72{fill-rule:evenodd;clip-rule:evenodd;fill:#595C62;}
	.st73{fill:#EC7045;}
	.st74{opacity:0.7;}
	.st75{fill:#90CED2;}
	.st76{fill:#882888;}
	.st77{fill:#C1C0C0;}
	.st78{fill:#768035;}
	.st79{fill:#E3B27C;}
	.st80{fill:#775644;}
	.st81{fill:#DBC7C2;}
	.st82{fill:#D95027;}
	.st83{fill:#57BFC2;}
	.st84{clip-path:url(#SVGID_2_);}
	.st85{fill-rule:evenodd;clip-rule:evenodd;fill:#424750;}
	.st86{fill-rule:evenodd;clip-rule:evenodd;fill:#E1E2E3;}
	.st87{fill:none;stroke:#E6E6E6;stroke-miterlimit:10;}
	.st88{fill:#6BA588;}
	.st89{fill:#F9F0EB;}
	.st90{fill:none;stroke:#6BA588;stroke-miterlimit:10;}
	.st91{fill:#281A12;}
	.st92{fill:#2E465D;}
	.st93{fill:#422E21;}
	.st94{fill-rule:evenodd;clip-rule:evenodd;fill:#3C5F7C;}
	.st95{fill-rule:evenodd;clip-rule:evenodd;fill:#2E465D;}
	.st96{fill:#EDE2A2;}
	.st97{fill:#EFDFA8;}
	.st98{fill:#9AC68F;}
	.st99{clip-path:url(#XMLID_5_);fill:#B4D6AA;}
	.st100{fill:#96D696;}
	.st101{clip-path:url(#XMLID_6_);fill:#A7DBA7;}
	.st102{clip-path:url(#XMLID_7_);fill:#B4D6AA;}
	.st103{fill:#4D4D4F;}
	.st104{fill:#69502E;}
	.st105{fill:#3F3F3F;}
	.st106{fill:#4C381B;}
	.st107{fill:#919090;}
	.st108{fill:#74DDE2;}
	.st109{clip-path:url(#XMLID_10_);fill:#F9D88F;}
	.st110{fill-rule:evenodd;clip-rule:evenodd;fill:#504F4F;}
	.st111{fill-rule:evenodd;clip-rule:evenodd;fill:#FFFFFF;}
	.st112{fill-rule:evenodd;clip-rule:evenodd;fill:none;stroke:#4D4D4D;stroke-miterlimit:10;}
	.st113{fill:#4D4D4D;}
	.st114{fill:#42474F;}
	.st115{fill:#E6E7E8;}
	.st116{fill:#3A3A3A;}
	.st117{fill-rule:evenodd;clip-rule:evenodd;fill:#43474F;}
	.st118{fill-rule:evenodd;clip-rule:evenodd;fill:#DBDBDA;}
	.st119{fill:#F3E7A8;}
	.st120{fill:#F4E4AD;}
	.st121{fill:none;stroke:#F4E4AD;stroke-width:0.454;stroke-miterlimit:10;}
	.st122{fill:#57C4C7;}
	.st123{clip-path:url(#SVGID_4_);fill:#E6E7E8;}
	.st124{fill-rule:evenodd;clip-rule:evenodd;fill:#42474F;}
	.st125{fill-rule:evenodd;clip-rule:evenodd;fill:#E6E7E8;}
	.st126{fill:#E5D9BE;}
	.st127{fill:#F7F1E2;}
	.st128{fill:#B5967D;}
	.st129{clip-path:url(#XMLID_11_);fill:#96D696;}
	.st130{fill-rule:evenodd;clip-rule:evenodd;fill:#92BA85;}
	.st131{fill-rule:evenodd;clip-rule:evenodd;fill:#EFEFE4;}
	.st132{fill-rule:evenodd;clip-rule:evenodd;fill:#E0E0C7;}
	.st133{fill:#999999;}
	.st134{fill:#F9C543;}
	.st135{fill:#355B77;}
	.st136{fill:#C49B49;}
	.st137{fill:#444751;}
	.st138{fill:#D6D6D5;}
	.st139{fill:none;}
	.st140{fill:#5DC667;}
	.st141{fill:#EDE9C3;}
	.st142{fill:none;stroke:#FCD98D;stroke-linecap:round;stroke-miterlimit:10;}
	.st143{fill:none;stroke:#CBCACA;stroke-width:0.5;stroke-miterlimit:10;}
	.st144{fill:none;stroke:#80C0AC;stroke-width:0.5;stroke-miterlimit:10;}
	.st145{fill:#E85273;}
	.st146{fill:#FCD224;}
	.st147{fill:#59B5CE;}
	.st148{fill:#52ACC1;}
	.st149{fill:#FAFAFA;}
	.st150{fill:#E7E6E6;}
	.st151{fill:#71D3F4;}
	.st152{fill:#A3E8E3;}
	.st153{fill:#4AAFAF;}
	.st154{fill:#F2BC86;}
	.st155{fill:#585D62;}
	.st156{fill-rule:evenodd;clip-rule:evenodd;fill:#DBDBD9;}
	.st157{fill-rule:evenodd;clip-rule:evenodd;fill:#E7E6E6;}
	.st158{fill:#2A2A34;}
	.st159{fill:none;stroke:#3B79A3;stroke-miterlimit:10;}
	.st160{fill:#EDEFED;}
	.st161{fill:none;stroke:#CCCCCC;stroke-miterlimit:10;stroke-dasharray:1,1;}
	.st162{fill:#2D567F;}
	.st163{fill:#EF89B0;}
	.st164{fill:#3F6B9E;}
	.st165{fill:#D21C5A;}
	.st166{fill:#EDC169;}
	.st167{fill:#DDAC57;}
	.st168{fill:#92BA85;}
	.st169{fill:#29507F;}
	.st170{fill:none;stroke:#EFDFA8;stroke-width:0.3783;stroke-miterlimit:10;}
	.st171{clip-path:url(#SVGID_6_);}
	.st172{fill:#AEAEAF;}
	.st173{fill:#895C4E;}
	.st174{fill-rule:evenodd;clip-rule:evenodd;fill:#F7E9DF;}
	.st175{clip-path:url(#SVGID_8_);}
	.st176{clip-path:url(#SVGID_10_);fill:#F15C60;}
	.st177{fill-rule:evenodd;clip-rule:evenodd;fill:#F4F4F4;}
	.st178{clip-path:url(#SVGID_12_);}
	.st179{clip-path:url(#SVGID_14_);fill:#F15C60;}
</style>
<g>
	
		<rect id="XMLID_123_" x="36.8" y="48.7" transform="matrix(0.9726 0.2324 -0.2324 0.9726 13.1189 -7.3599)" class="st21" width="2.1" height="6.5"/>
	
		<rect id="XMLID_122_" x="17" y="91.6" transform="matrix(-0.5033 0.8641 -0.8641 -0.5033 108.9884 127.0033)" class="st21" width="2.1" height="6.5"/>
	
		<rect id="XMLID_121_" x="8.1" y="64.1" transform="matrix(-0.9246 -0.381 0.381 -0.9246 -8.1256 133.1799)" class="st22" width="2.1" height="6.5"/>
	
		<rect id="XMLID_120_" x="10.3" y="122.1" transform="matrix(-0.9246 -0.381 0.381 -0.9246 -25.9991 245.6319)" class="st22" width="2.1" height="6.5"/>
	
		<rect id="XMLID_119_" x="38.9" y="67.5" transform="matrix(-0.9246 -0.381 0.381 -0.9246 49.7689 151.4659)" class="st22" width="2.1" height="6.5"/>
	
		<rect id="XMLID_118_" x="36.8" y="116.5" transform="matrix(-0.8506 -0.5258 0.5258 -0.8506 6.9972 241.4448)" class="st23" width="2.1" height="6.5"/>
	<path id="XMLID_117_" class="st24" d="M59.3,139.9c0,0,5.3-0.7,4.3-4.1S59.3,139.9,59.3,139.9z"/>
	<path id="XMLID_116_" class="st24" d="M58.6,139.9c0,0-5.3-0.7-4.3-4.1C55.4,132.5,58.6,139.9,58.6,139.9z"/>
	<g id="XMLID_113_">
		<path id="XMLID_115_" class="st24" d="M112.8,148.1c0,0,5.3-0.7,4.3-4.1S112.8,148.1,112.8,148.1z"/>
		<path id="XMLID_114_" class="st24" d="M112.2,148.1c0,0-5.3-0.7-4.3-4.1C108.9,140.7,112.2,148.1,112.2,148.1z"/>
	</g>
	<path id="XMLID_112_" class="st25" d="M62.5,127.7c4.7-0.7,9.4-1,14.1-1c0,0,0,0,0,0c0.6-0.5,1.2-1.1,1.7-1.7
		c0.1-0.1,0.2-0.2,0.3-0.4c0.2-0.3,0.4-0.6,0.7-0.9c2-2.9,3.7-6,5.9-8.8c2-2.5,6.3-1,7,1.8c0.7,3.1,1.4,6.2,2.2,9.3
		c0.2,0.6,0.3,1.2,0.5,1.8c1.8,0.2,3.6,0.4,5.4,0.7c2.5,0.3,4,0.6,6.5,0.8c3.4,0.3,6.9,0.4,10.3,0.7c2.4-5.3,3.8-11.2,3.8-17.6
		c0-11.9-4.8-22.5-12.4-29.6c-3.7-5.1-5.6-12.2-7-16.5v0c-0.1-0.3-0.2-0.6-0.2-0.9c0,0,0-0.1,0-0.1c-0.1-0.3-0.1-0.5-0.2-0.8
		c-0.2-0.7-0.4-1.3-0.6-2v0c-0.9-3.3-1.5-7,0.5-10.9c0.9-3,1.1-6.7,0.9-10.2c0.2-4.4-0.1-9.1-1.8-12.3c-0.9-2.5-3.8-4.1-6.7-5.1
		c1.3,0,2.4,0,2.4,0c-3.1-2.1-5.9-2-7.9-1.2c-0.6-0.1-1.1-0.1-1.5-0.2c1.5-0.8,3.1-1.4,3.1-1.4c-4.8-1.2-9,1.5-10.8,2.9
		c-2.9,1-5.6,2.5-6.5,5c-1.7,3.3-2,8-1.8,12.3c-0.2,4.1,0,7.2,0.9,10.3c1.8,4.1,1.6,7.6,1,10.8c-0.1,0.3-0.1,0.6-0.2,0.9
		c0,0,0,0,0,0.1c-0.1,0.3-0.1,0.6-0.2,0.9c0,0,0,0,0,0.1c-0.1,0.3-0.1,0.6-0.2,0.9c0,0,0,0,0,0.1c-0.1,0.3-0.2,0.6-0.2,0.9
		c0,0,0,0,0,0v0c-1.3,4.3-3.2,11.2-7,16.5c-7.6,7.1-12.5,17.7-12.5,29.7c0,5.9,1.2,11.5,3.3,16.5C57.6,128.6,60,128.1,62.5,127.7z"
		/>
	<path id="XMLID_111_" class="st21" d="M55,42.3c-0.2-0.3-0.7-0.4-0.9,0c0,0-1,2.2-2,3.8s-2.7,3.7-2.7,3.7c-0.2,0.3,0,0.8,0.4,0.8
		c1.2,0,2.8-0.2,4.4-0.1c1.6,0.1,3.2,0.4,4.4,0.5c0.4,0,0.7-0.4,0.5-0.7c0,0-1.6-2.3-2.4-3.7C55.9,45,55,42.3,55,42.3z"/>
	<path id="XMLID_110_" class="st21" d="M41,30.1c-0.4,9.3,7.2,17.1,13.3,17.4c6.1,0.3,14.4-6.9,14.8-16.1s-5.6-16.2-13.3-16.6
		S41.4,20.9,41,30.1z"/>
	<path id="XMLID_109_" class="st26" d="M53.7,19.9c0,0-5.8,2.1-6.6,11"/>
	<path id="XMLID_108_" class="st27" d="M51.6,47.7c3.5,1.9,5,6.8,3.1,10.3c-0.9,1.7-2.5,3.1-3.4,4.8c-1,1.7-1.2,4.2,0.4,5.4"/>
	<path id="XMLID_107_" class="st28" d="M37.5,71.9c-0.2-0.3-0.7-0.2-0.8,0.1c0,0-0.4,2.1-1,3.7c-0.6,1.6-1.6,3.8-1.6,3.8
		c-0.1,0.3,0.2,0.7,0.5,0.6c1-0.3,1.9-0.9,3.8-1.3s2.9-0.1,4-0.3c0.4-0.1,0.5-0.5,0.3-0.7c0,0-1.9-1.6-2.9-2.8
		C38.8,74.1,37.5,71.9,37.5,71.9z"/>
	<path id="XMLID_106_" class="st28" d="M22.7,64.4c1.6,8.1,9.9,13.3,15.3,12.2s11.2-9,9.6-17.1c-1.6-8.1-8.3-12.8-15.2-11.5
		C25.5,49.4,21.1,56.4,22.7,64.4z"/>
	<path id="XMLID_105_" class="st26" d="M32.1,53.3c0,0-4.8,2.9-3.9,10.9"/>
	<path id="XMLID_104_" class="st29" d="M37.1,77.9c2.3,1.4,2.6,4.6,2.1,7.2c-0.6,2.6-1.9,5.1-2,7.7c-0.1,2.7,1.6,5.7,4.2,5.8"/>
	<path id="XMLID_103_" class="st25" d="M151.5,95.8c1.6-5.3,1-8.6,1-8.6s-4.3,8.6-7.3,9.1c0,0,7.4-7.6,6.8-13.4c0,0-3.8,6.8-6.6,7.7
		c0,0,6.8-5.9,5.1-13.8c0,0-3,8.3-6.1,8.6c0,0,5.2-6.1,4.7-11.8c0,0-20.9,28.5-49.8,3l0.6,24.2l13.8,17.5c0,0,20.4,7.5,33.3-12.8
		c0,0,0,0,0,0c2.3-3.4,3.6-6.5,4.5-9.1C151.4,96,151.5,95.9,151.5,95.8C151.6,95.7,151.5,95.8,151.5,95.8z"/>
	<path id="XMLID_102_" class="st28" d="M123.4,101.7c0-5.6,1.2-10.3,3.7-14.9c-5.7,0.8-16,0.1-27.9-10.4l-0.4,24.2l14.8,17.4
		c0,0,5.4,3.5,14.5,0.8C125.1,114.1,123.4,107.8,123.4,101.7z"/>
	<path id="XMLID_101_" class="st3" d="M100.2,145.4L100.2,145.4c8.9-4.7,16.7-13.8,16.7-24.2c0-15.2-14.6-27.6-30.5-27.6
		c-15.8,0-30.5,12.3-30.5,27.6c0,10.5,7.8,19.6,16.8,24.2l-0.1,0c4.3,2.5,7.5,6.7,8.4,11.7c0.2-0.1,1.1-0.5,2.3,0v-8.5
		c1,0.1,2,0.2,3.1,0.2c1,0,2.1-0.1,3.1-0.2v8.5c1.2-0.5,2.1-0.1,2.3,0C92.7,152.2,95.8,147.9,100.2,145.4z"/>
	<path id="XMLID_100_" class="st30" d="M105.3,95.4c0,10.4-8.4,18.9-18.9,18.9c-10.4,0-18.9-8.5-18.9-18.9
		c0-10.4,8.4-18.9,18.9-18.9C96.8,76.5,105.3,85,105.3,95.4z"/>
	<circle id="XMLID_98_" class="st10" cx="86.7" cy="71.7" r="1.7"/>
	<circle id="XMLID_97_" class="st31" cx="86.7" cy="71.7" r="0.4"/>
	<text id="XMLID_96_" transform="matrix(-0.9332 0.3594 -0.3594 -0.9332 107.4883 120.4718)" class="st32 st33 st34">VI</text>
	<text id="XMLID_95_" transform="matrix(-0.2844 -0.9587 0.9587 -0.2844 109.9546 117.9029)" class="st32 st33 st35">III</text>
	<text id="XMLID_94_" transform="matrix(0.3183 0.948 -0.948 0.3183 102.1563 119.7936)" class="st32 st33 st36">IX</text>
	<path id="XMLID_93_" class="st32" d="M106.1,118.6c0-0.1,0-0.2,0.1-0.2c0.1,0,0.2,0,0.2,0.1c0,0.1,0,0.2-0.1,0.2
		C106.2,118.7,106.1,118.7,106.1,118.6z"/>
	
		<rect id="XMLID_92_" x="105.8" y="116.7" transform="matrix(-0.9342 0.3566 -0.3566 -0.9342 246.6813 189.7916)" class="st32" width="0.2" height="1.9"/>
	<polygon id="XMLID_91_" class="st37" points="107.5,118 107.5,118.1 106.2,118.6 106.2,118.5 	"/>
	<polyline id="XMLID_90_" class="st32" points="105.7,116.7 105.4,116.4 105.3,117 105.8,116.7 	"/>
	<polyline id="XMLID_89_" class="st32" points="107.5,118.2 107.8,117.8 107.3,117.7 107.5,118.2 	"/>
	<path id="XMLID_88_" class="st38" d="M97.4,118.2c0,0,11.9,0.9,19.4-4.9v2.1c0,0-5.9,5.8-19.4,4.8V118.2z"/>
	<circle id="XMLID_87_" class="st10" cx="86.7" cy="81.1" r="1.7"/>
	<circle id="XMLID_86_" class="st31" cx="86.7" cy="81.1" r="0.4"/>
	<path id="XMLID_85_" class="st25" d="M101.8,41.6c0.2-4.4-0.1-9.1-1.8-12.3c-0.9-2.5-3.8-4.1-6.7-5.1c1.3,0,2.4,0,2.4,0
		c-3.1-2.1-5.9-2-7.9-1.2c-0.6-0.1-1.1-0.1-1.5-0.2c1.5-0.8,3.1-1.4,3.1-1.4c-4.8-1.2-9,1.5-10.8,2.9c-2.9,1-5.6,2.5-6.5,5
		c-1.7,3.3-2,8-1.8,12.3c-0.2,4.1,0,7.2,0.9,10.3c2.4,5.7,1.3,10.1,0.1,14.5l15.1,26.5V93l15.1-26.5c-1-4.1-3.3-9.2-0.6-14.7
		C101.8,48.8,102,45.1,101.8,41.6z"/>
	<path id="XMLID_84_" class="st12" d="M79.2,38.8c0,1.4-1.4,2.5-3.2,2.6c-1.8,0.1-3.4-1-3.4-2.4c0-1.4,1.4-2.5,3.2-2.6
		C77.6,36.4,79.1,37.5,79.2,38.8z"/>
	<path id="XMLID_83_" class="st13" d="M77.4,38.7c0.1,0.8-0.5,1.6-1.3,1.7c-0.8,0.1-1.6-0.5-1.7-1.3c-0.1-0.8,0.5-1.6,1.3-1.7
		C76.5,37.2,77.3,37.8,77.4,38.7z"/>
	<path id="XMLID_82_" class="st12" d="M99.5,38.8c0,1.4-1.4,2.5-3.2,2.6c-1.8,0.1-3.4-1-3.4-2.4c0-1.4,1.4-2.5,3.2-2.6
		C97.9,36.4,99.4,37.5,99.5,38.8z"/>
	<path id="XMLID_81_" class="st13" d="M97.7,38.7c0.1,0.8-0.5,1.6-1.3,1.7c-0.8,0.1-1.6-0.5-1.7-1.3c-0.1-0.8,0.5-1.6,1.3-1.7
		C96.8,37.2,97.6,37.8,97.7,38.7z"/>
	<path id="XMLID_77_" class="st13" d="M108.1,35.1c0,0,0-0.5-1-0.6c-1-0.1-1.7-0.8-10.8-0.6c-6.5,0.5-8.3,1.3-8.3,1.3
		s-0.4,0.1-0.8,0.1c-0.3,0-0.5,0.1-0.8,0.1c-0.3,0-0.6,0-0.9-0.1c-0.4,0-0.7-0.1-0.7-0.1s-1.9-0.7-8.3-1.3
		c-9.1-0.2-9.9,0.5-10.8,0.6c-1,0.1-1,0.6-1,0.6l0,0.6c-0.1,1.8,0.4,1.9,0.4,1.9c0.1,0.1,0.3,0.4,0.3,0.4c0.5,0.2,1.2,2.3,1.2,2.3
		c0.9,2.5,2.2,2.8,2.2,2.8c3.6,1.3,9.5,0.6,9.5,0.6s3.3-0.1,4.4-1.5c0.8-1,1.9-4,1.9-4s0.2-0.5,0.7-0.8c0.5-0.3,1.3-0.3,1.3-0.3
		s0.8,0,1.3,0.3c0.5,0.3,0.8,0.8,0.8,0.8s1.1,3,1.9,4c1,1.4,4.4,1.5,4.4,1.5s5.9,0.7,9.5-0.6c0,0,1.3-0.3,2.2-2.8
		c0,0,0.7-2.1,1.2-2.3c0,0,0.2-0.3,0.3-0.4c0,0,0.5,0,0.4-1.9L108.1,35.1z M83.2,38.7c-0.9,3.2-2.2,3.6-2.2,3.6
		c-5,1.6-10.4,0.5-10.4,0.5c-2.4-0.2-2.8-1.8-2.8-1.8c-0.8-1.7-1-4.8-1-4.8c0-1.4,3.4-1.4,3.4-1.4c8.2-0.5,12.2,0.8,12.2,0.8
		C84.1,36.2,83.2,38.7,83.2,38.7z M105,41c0,0-0.5,1.6-2.8,1.8c0,0-5.4,1.1-10.4-0.5c0,0-1.3-0.3-2.2-3.6c0,0-0.9-2.5,0.9-3.1
		c0,0,3.9-1.3,12.2-0.8c0,0,3.4,0,3.4,1.4C106,36.2,105.8,39.3,105,41z"/>
	<path id="XMLID_76_" class="st3" d="M86.1,42.3C84.5,45,81,45.8,81,45.8c2.7,1.7,5.4,6.8,5.4,6.8s2.6-5.1,5.3-6.8
		C91.7,45.8,87.7,45,86.1,42.3z"/>
	<g>
		<path id="XMLID_75_" class="st39" d="M148.2,121.5c-0.1-0.1-0.3-0.2-0.4-0.3c-0.8-0.3-3.1-1.4-4.8-1.8l1.9-18.9
			c3.7,0,5.3-3.7,5.5-6.5l2.4-24l-10.8-1.1l-2.4,24c-0.3,2.7,0.4,6.4,3.7,7.4l-1.9,19c-1.7,0.1-4.2,0.7-5,0.8
			c-0.2,0-0.3,0.1-0.5,0.2c-0.8,0.6-0.5,1.8,0.5,1.9l10.9,1.1C148.3,123.3,148.9,122.2,148.2,121.5z"/>
		<path id="XMLID_74_" class="st28" d="M144.5,99.2L144.5,99.2c-3.8-0.4-4-4.1-3.7-6.8l1.7-16.7c0,0,1.9,0.7,4.5-0.8
			c3.2-1.8,4.5-0.7,4.5-0.7l-1.9,19.1C149.2,96,148.2,99.6,144.5,99.2z"/>
		<circle id="XMLID_73_" class="st40" cx="145.3" cy="96.3" r="0.7"/>
		<circle id="XMLID_72_" class="st40" cx="142.4" cy="94" r="0.7"/>
		<circle id="XMLID_71_" class="st40" cx="143.5" cy="90.6" r="0.7"/>
		<circle id="XMLID_69_" class="st40" cx="143.4" cy="87.9" r="0.3"/>
		<circle id="XMLID_68_" class="st40" cx="145.3" cy="92.8" r="0.4"/>
	</g>
	<path id="XMLID_67_" class="st41" d="M151.9,79.8c0,0-4.4,2.3-5.2,8.6c0,0,2.8-2.5,4.2-2c0,0-3.2,1.8-4.5,7.3c0,0,3.2-0.6,4.5,1.3
		c0,0-3.6,0.7-4.9,3.8c0,0,3.6,0.7,5.2-0.5C153.1,96.9,154.1,81.8,151.9,79.8z"/>
	<path id="XMLID_66_" class="st38" d="M97.4,118.2c0,0,11.9,0.9,19.4-4.9v2.1c0,0-5.9,5.8-19.4,4.8V118.2z"/>
	<path id="XMLID_65_" class="st42" d="M127.3,134.8c0,0,5-0.7,4.1-3.9C130.4,127.7,127.3,134.8,127.3,134.8z"/>
	<path id="XMLID_64_" class="st42" d="M126.7,134.8c0,0-5-0.7-4.1-3.9C123.6,127.7,126.7,134.8,126.7,134.8z"/>
	<path id="XMLID_63_" class="st28" d="M86.2,139.4c10.2,0,19.5-1.3,25.6-2.3c5.8-5.5,9-15.3,9-24.6c0-11.9-4.8-22.5-12.4-29.6
		c-2.9-4.1-4.7-9.4-6.1-13.5c-3.3,2.3-8.3,4.2-15.8,4.2c-7.8,0-12.9-2.2-16.1-4.5c-1.3,4.2-3.1,9.5-6.2,13.7
		c-7.6,7.1-12.5,17.7-12.5,29.7c0,9.2,3.3,19.2,8.8,24.3C65.8,137.8,75.1,139.4,86.2,139.4z"/>
	<path id="XMLID_62_" class="st25" d="M72.8,99.6c0,0-8.5,2.7-18.4-1.7c0,0-6.9,15.8,1.9,33.5c0,0,8.3,3,17.1,0.2
		C73.5,131.7,63.5,118,72.8,99.6z"/>
	<path id="XMLID_61_" class="st25" d="M95.3,100.5c0,0-4.3,8.6-7.3,9.1c0,0,7.4-7.6,6.8-13.4c0,0-3.8,6.8-6.6,7.7
		c0,0,6.8-5.9,5.1-13.8c0,0-3,8.3-6.1,8.6c0,0,5.2-6.1,4.7-11.8c0,0-7.3,9.9-19.1,12.8c-2.5,4.6-4,9.8-4,15.4
		c0,6.1,1.7,11.8,4.7,16.6c5.5-1.6,11.4-5.3,16.3-13c0,0,0,0,0,0c2.3-3.4,3.6-6.5,4.5-9.1c0.1-0.2,0.1-0.3,0.2-0.5c0,0,0,0-0.1,0.1
		C95.9,103.9,95.3,100.5,95.3,100.5z"/>
	
		<rect id="XMLID_33_" x="144.3" y="46.2" transform="matrix(-0.8468 -0.5319 0.5319 -0.8468 242.0192 168.5974)" class="st23" width="2.1" height="6.5"/>
	
		<rect id="XMLID_32_" x="114" y="46.2" transform="matrix(-0.8437 -0.5368 0.5368 -0.8437 185.5121 152.9064)" class="st21" width="2.1" height="6.5"/>
	
		<rect id="XMLID_31_" x="26.4" y="27.7" transform="matrix(0.4533 -0.8914 0.8914 0.4533 -12.5938 41.38)" class="st23" width="2.1" height="6.5"/>
	
		<rect id="XMLID_30_" x="124.7" y="67.5" transform="matrix(0.9246 -0.381 0.381 0.9246 -17.491 53.2583)" class="st22" width="2.1" height="6.5"/>
	
		<rect id="XMLID_29_" x="121.5" y="20.1" transform="matrix(0.9246 -0.381 0.381 0.9246 0.3427 48.4265)" class="st22" width="2.1" height="6.5"/>
	
		<rect id="XMLID_28_" x="159.6" y="82.2" transform="matrix(-0.9726 -0.2324 0.2324 -0.9726 296.9251 205.9277)" class="st21" width="2.1" height="6.5"/>
	
		<rect id="XMLID_27_" x="156.7" y="110" transform="matrix(-0.9443 0.3292 -0.3292 -0.9443 343.9427 168.2894)" class="st22" width="2.1" height="6.5"/>
	<g>
		<path class="st14" d="M88.3,158.9l0.1-0.1l-0.1-0.1v-2.1c0-0.3,0.2-0.5,0.5-0.5c0,0,0.7,0.6,1.8,0.6c1.2,0,1.7-0.6,2-0.6
			c0.1,0,0-0.3,0.3,0c1.8,1.7,5.8,2,5.8,2c0.2,0,0.4,0.4,0.2,0.6c0,0-0.1,0.1-0.1,0.1L99,159c0,0.3-0.2,0.5-0.5,0.5h-9.7
			c-0.3,0-0.5-0.2-0.5-0.5V158.9z"/>
		<path class="st14" d="M84.4,159c0,0.3-0.2,0.5-0.5,0.5h-9.7c-0.3,0-0.5-0.2-0.5-0.5l0.1-0.1c0,0-0.1-0.1-0.1-0.1
			c-0.2-0.2-0.1-0.6,0.2-0.6c0,0,4-0.3,5.8-2c0.3-0.3,0.2,0,0.3,0c0.3,0,0.9,0.6,2,0.6c1.2,0,1.8-0.6,1.8-0.6c0.3,0,0.5,0.2,0.5,0.5
			v2.1l-0.1,0.1l0.1,0.1V159z"/>
	</g>
</g>
</svg>
