<?xml version="1.0" encoding="utf-8"?>
<!-- Generator: Adobe Illustrator 19.1.0, SVG Export Plug-In . SVG Version: 6.00 Build 0)  -->
<svg version="1.1" id="P_Johns" xmlns="http://www.w3.org/2000/svg" xmlns:xlink="http://www.w3.org/1999/xlink" x="0px" y="0px"
	 viewBox="0 0 170 170" style="enable-background:new 0 0 170 170;" xml:space="preserve">
<style type="text/css">
	.st0{fill:#E1E2E3;}
	.st1{fill:#44C2CE;}
	.st2{fill:#3B79A3;}
	.st3{fill:#424750;}
	.st4{fill:none;stroke:#504F4F;stroke-width:2;stroke-miterlimit:10;}
	.st5{fill:#504F4F;}
	.st6{fill:#F16D6D;}
	.st7{fill:#87C6C0;}
	.st8{fill:#89DBD8;}
	.st9{fill:none;stroke:#C7C6C6;stroke-width:0.7565;stroke-miterlimit:10;}
	.st10{fill-rule:evenodd;clip-rule:evenodd;fill:#444751;}
	.st11{fill-rule:evenodd;clip-rule:evenodd;fill:#D6D6D5;}
	.st12{fill:#FFFFFF;}
	.st13{fill:#2B2A34;}
	.st14{fill:#2B2C2D;}
	.st15{fill:none;stroke:#504F4F;stroke-miterlimit:10;}
	.st16{fill-rule:evenodd;clip-rule:evenodd;fill:#89DBD8;}
	.st17{fill-rule:evenodd;clip-rule:evenodd;fill:#87C6C0;}
	.st18{fill:#59473A;}
	.st19{fill:none;stroke:#F2C24E;stroke-miterlimit:10;}
	.st20{fill:none;stroke:#F2C24E;stroke-linecap:round;stroke-miterlimit:10;}
	.st21{fill:#E9676D;}
	.st22{fill:#F6ECC3;}
	.st23{fill:#A6A8AB;}
	.st24{fill:none;stroke:#FFFFFF;stroke-width:5.289;stroke-miterlimit:10;}
	.st25{fill:#E6E6E6;}
	.st26{opacity:0.2;fill:none;stroke:#FFFFFF;stroke-width:3;stroke-miterlimit:10;}
	.st27{fill:none;stroke:#E9676D;stroke-linecap:round;stroke-miterlimit:10;}
	.st28{fill:#FCB856;}
	.st29{fill:none;stroke:#FCB856;stroke-linecap:round;stroke-miterlimit:10;}
	.st30{fill:none;stroke:#CBCACA;stroke-width:3.4513;stroke-miterlimit:10;}
	.st31{fill-rule:evenodd;clip-rule:evenodd;fill:#DADAD9;}
	.st32{fill:#469595;}
	.st33{fill:#2A2D35;}
	.st34{fill:#387D7B;}
	.st35{fill:#BFF7F5;}
	.st36{opacity:0.4;fill:#FFFFFF;}
	.st37{fill:#D3D3D3;}
	.st38{fill:none;stroke:#FFFFFF;stroke-width:5.0355;stroke-miterlimit:10;}
	.st39{fill:#777777;}
	.st40{fill:#70533D;}
	.st41{fill:#EA6A6D;}
	.st42{fill:#C7C6C6;}
	.st43{fill:#9FA0A3;}
	.st44{fill:#3C5777;}
	.st45{fill:#F2C24E;}
	.st46{fill:none;stroke:#E1E2E3;stroke-miterlimit:10;}
	.st47{fill:#314759;}
	.st48{fill:none;stroke:#314759;stroke-miterlimit:10;}
	.st49{fill:none;stroke:#3C5777;stroke-miterlimit:10;}
	.st50{fill:#80BBA8;}
	.st51{fill:#E94C64;}
	.st52{fill:#59C0C1;}
	.st53{fill:#8E8E8E;}
	.st54{fill:#80C0AC;}
	.st55{fill:none;stroke:#504F4F;stroke-linecap:round;stroke-miterlimit:10;}
	.st56{fill:#F9D88F;}
	.st57{fill:#BABABA;}
	.st58{clip-path:url(#XMLID_3_);fill:#F9D88F;}
	.st59{fill-rule:evenodd;clip-rule:evenodd;fill:#F2BC86;}
	.st60{fill:#F2F2F2;}
	.st61{fill:#57C4C6;}
	.st62{fill:#B4E219;}
	.st63{fill:#74777C;}
	.st64{fill:#E03E3E;}
	.st65{fill:#595C62;}
	.st66{fill:none;stroke:#C7C6C6;stroke-width:0.8879;stroke-miterlimit:10;}
	.st67{fill-rule:evenodd;clip-rule:evenodd;fill:#F9F0EB;}
	.st68{fill-rule:evenodd;clip-rule:evenodd;fill:#595C62;}
	.st69{fill:#EC7045;}
	.st70{opacity:0.7;}
	.st71{fill:#90CED2;}
	.st72{fill:#882888;}
	.st73{fill:#C1C0C0;}
	.st74{fill:#768035;}
	.st75{fill:#E3B27C;}
	.st76{fill:#775644;}
	.st77{fill:#DBC7C2;}
	.st78{fill:#D95027;}
	.st79{fill:#57BFC2;}
	.st80{clip-path:url(#SVGID_2_);}
	.st81{fill-rule:evenodd;clip-rule:evenodd;fill:#424750;}
	.st82{fill-rule:evenodd;clip-rule:evenodd;fill:#E1E2E3;}
	.st83{fill:none;stroke:#E6E6E6;stroke-miterlimit:10;}
	.st84{fill:#6BA588;}
	.st85{fill:#F9F0EB;}
	.st86{fill:none;stroke:#6BA588;stroke-miterlimit:10;}
	.st87{fill:#281A12;}
	.st88{fill:#2E465D;}
	.st89{fill:#422E21;}
	.st90{fill-rule:evenodd;clip-rule:evenodd;fill:#3C5F7C;}
	.st91{fill-rule:evenodd;clip-rule:evenodd;fill:#2E465D;}
	.st92{fill:#EDE2A2;}
	.st93{fill:#EFDFA8;}
	.st94{fill:#9AC68F;}
	.st95{clip-path:url(#XMLID_5_);fill:#B4D6AA;}
	.st96{fill:#96D696;}
	.st97{clip-path:url(#XMLID_6_);fill:#A7DBA7;}
	.st98{clip-path:url(#XMLID_7_);fill:#B4D6AA;}
	.st99{fill:#4D4D4F;}
	.st100{fill:#69502E;}
	.st101{fill:#3F3F3F;}
	.st102{fill:#4C381B;}
	.st103{fill:#919090;}
	.st104{fill:#74DDE2;}
	.st105{clip-path:url(#XMLID_10_);fill:#F9D88F;}
	.st106{fill-rule:evenodd;clip-rule:evenodd;fill:#504F4F;}
	.st107{fill-rule:evenodd;clip-rule:evenodd;fill:#FFFFFF;}
	.st108{fill-rule:evenodd;clip-rule:evenodd;fill:none;stroke:#4D4D4D;stroke-miterlimit:10;}
	.st109{fill:#4D4D4D;}
	.st110{fill:#42474F;}
	.st111{fill:#E6E7E8;}
	.st112{fill:#3A3A3A;}
	.st113{fill-rule:evenodd;clip-rule:evenodd;fill:#43474F;}
	.st114{fill-rule:evenodd;clip-rule:evenodd;fill:#DBDBDA;}
	.st115{fill:#F3E7A8;}
	.st116{fill:#F4E4AD;}
	.st117{fill:none;stroke:#F4E4AD;stroke-width:0.454;stroke-miterlimit:10;}
	.st118{fill:#57C4C7;}
	.st119{clip-path:url(#SVGID_4_);fill:#E6E7E8;}
	.st120{fill-rule:evenodd;clip-rule:evenodd;fill:#42474F;}
	.st121{fill-rule:evenodd;clip-rule:evenodd;fill:#E6E7E8;}
	.st122{fill:#E5D9BE;}
	.st123{fill:#F7F1E2;}
	.st124{fill:#B5967D;}
	.st125{clip-path:url(#XMLID_11_);fill:#96D696;}
	.st126{fill-rule:evenodd;clip-rule:evenodd;fill:#92BA85;}
	.st127{fill-rule:evenodd;clip-rule:evenodd;fill:#EFEFE4;}
	.st128{fill-rule:evenodd;clip-rule:evenodd;fill:#E0E0C7;}
	.st129{fill:#999999;}
	.st130{fill:#F9C543;}
	.st131{fill:#355B77;}
	.st132{fill:#C49B49;}
	.st133{fill:#444751;}
	.st134{fill:#D6D6D5;}
	.st135{fill:none;}
	.st136{fill:#5DC667;}
	.st137{fill:#EDE9C3;}
	.st138{fill:none;stroke:#FCD98D;stroke-linecap:round;stroke-miterlimit:10;}
	.st139{fill:none;stroke:#CBCACA;stroke-width:0.5;stroke-miterlimit:10;}
	.st140{fill:none;stroke:#80C0AC;stroke-width:0.5;stroke-miterlimit:10;}
	.st141{fill:#E85273;}
	.st142{fill:#FCD224;}
	.st143{fill:#59B5CE;}
	.st144{fill:#52ACC1;}
	.st145{fill:#FAFAFA;}
	.st146{fill:#E7E6E6;}
	.st147{fill:#71D3F4;}
	.st148{fill:#A3E8E3;}
	.st149{fill:#4AAFAF;}
	.st150{fill:#F2BC86;}
	.st151{fill:#585D62;}
	.st152{fill-rule:evenodd;clip-rule:evenodd;fill:#DBDBD9;}
	.st153{fill-rule:evenodd;clip-rule:evenodd;fill:#E7E6E6;}
	.st154{fill:#2A2A34;}
	.st155{fill:none;stroke:#3B79A3;stroke-miterlimit:10;}
	.st156{fill:#EDEFED;}
	.st157{fill:none;stroke:#CCCCCC;stroke-miterlimit:10;stroke-dasharray:1,1;}
	.st158{fill:#2D567F;}
	.st159{fill:#EF89B0;}
	.st160{fill:#3F6B9E;}
	.st161{fill:#D21C5A;}
	.st162{fill:#EDC169;}
	.st163{fill:#DDAC57;}
	.st164{fill:#92BA85;}
	.st165{fill:#29507F;}
	.st166{fill:none;stroke:#EFDFA8;stroke-width:0.3783;stroke-miterlimit:10;}
	.st167{clip-path:url(#SVGID_6_);}
	.st168{fill:#AEAEAF;}
	.st169{fill:#895C4E;}
	.st170{fill-rule:evenodd;clip-rule:evenodd;fill:#F7E9DF;}
	.st171{clip-path:url(#SVGID_8_);}
	.st172{clip-path:url(#SVGID_10_);fill:#F15C60;}
	.st173{fill-rule:evenodd;clip-rule:evenodd;fill:#F4F4F4;}
	.st174{clip-path:url(#SVGID_12_);}
	.st175{clip-path:url(#SVGID_14_);fill:#F15C60;}
</style>
<g>
	<path class="st0" d="M40.9,74.9c-1.9-1.5-10.7-8.6-11.6-13.1c-1.6-7.3,5.7-4.3,5.7-4.3s-0.9-2.1-3.1-3.9c-2-1.6-7.3-2.3-8.7,3.3
		c-0.8,3-0.8,4.6-0.8,5.4c-0.2-1-0.4-2.8,0.3-5.5c1.1-4.3,2.9-4.1,1.9-4.6c-0.5-0.3-4.8,1.9-5.8,4.1c-1,2.1-0.9,6,0.1,8.6
		c1.8,4.7-2.2-1.7-1-7.3c0.1-0.6-3.7,5.9-3.2,11.1c0.2,2.1,1,4.2,1,4.2c-0.4-0.6-0.9-1.8-1.2-3.4c-0.6-2.6,0.2-5.6,0.2-5.6
		s-6,8.2-3.5,15.6C23.7,117.9,55.4,109,55.4,109l15.4-18.2L72.2,65C60,75,49.4,76.7,40.9,74.9z"/>
	<g>
		<defs>
			<path id="XMLID_227_" d="M37.9,87.4C42.7,70.9,27,71.2,24.4,66.5c5.8,0.9,27.5,17.2,45.1-0.6L70,90.9l-15.2,17.9
				c0,0-15,7-31.4-7.8C27.4,100,34.8,98.3,37.9,87.4z"/>
		</defs>
		<use xlink:href="#XMLID_227_"  style="overflow:visible;fill:#F9D88F;"/>
		<clipPath id="XMLID_3_">
			<use xlink:href="#XMLID_227_"  style="overflow:visible;"/>
		</clipPath>
		<path class="st58" d="M49.3,115.3l-1.8-0.5c7.4-25.1,0.1-39.5,0.1-39.6l1.7-0.9C49.5,74.8,56.9,89.5,49.3,115.3z"/>
	</g>
	<g>
		<path class="st56" d="M132.4,101.1c0-6,1.6-11.6,4.3-16.5c-8.8,2.2-20.1,0.7-32.8-10.5l-0.5,25.9l15.8,18.6c0,0,8.5,3.1,18.2,0.2
			C134.2,113.7,132.4,107.6,132.4,101.1z"/>
	</g>
	<path class="st56" d="M70.4,57c-0.3,0.5-0.5,1.2-0.8,2.5c-1.6,5.5-4.2,14.9-10.1,20.6c0,0,5.4,20.9,26.1,20.9
		c20.7,0,26.1-20.9,26.1-20.9c-5.6-5.4-8.4-15-10-20.4c-0.6-2.3-0.7-2.5-0.8-2.8"/>
	<g>
		<path class="st5" d="M100.2,144L100.2,144c9.4-5,15.9-14.7,15.9-25.9c0-16.3-13.7-29.4-30.5-29.4c-16.8,0-30.5,13.2-30.5,29.4
			c0,11.2,6.4,20.9,15.9,25.9l-0.1,0c4.6,2.7,8,7.2,9,12.5c0.2-0.1,1.1-0.6,2.4,0v-9.1c1.1,0.1,2.2,0.2,3.2,0.2
			c1.1,0,2.2-0.1,3.3-0.2v9.1c1.3-0.6,2.2-0.1,2.4,0C92.3,151.2,95.6,146.7,100.2,144z"/>
		<path class="st5" d="M85.6,67.7C65.4,67.7,49,86.1,49,108.8c0,14,8.7,25.3,18.3,32.7c19.2-7.4,30.7-2.1,36.6,0.2
			c9.7-7.4,18.4-18.8,18.4-32.9C122.2,86.1,105.8,67.7,85.6,67.7z"/>
	</g>
	<g>
		<circle class="st10" cx="85.9" cy="65.2" r="1.8"/>
		<circle class="st11" cx="85.9" cy="65.2" r="0.4"/>
	</g>
	<g>
		<circle class="st10" cx="85.9" cy="75.3" r="1.8"/>
		<circle class="st11" cx="85.9" cy="75.3" r="0.4"/>
	</g>
	<path class="st0" d="M102.1,33.1c0.2-4.7-0.1-9.7-1.9-13.2c-0.9-2.7-4-4.4-7.2-5.4c1.4,0,2.6,0,2.6,0c-3.3-2.2-6.3-2.1-8.4-1.3
		c-0.7-0.1-1.2-0.2-1.6-0.2c1.6-0.9,3.3-1.5,3.3-1.5c-5.2-1.3-9.6,1.6-11.5,3.1c-3,1-6,2.7-6.9,5.3c-1.8,3.5-2.2,8.5-1.9,13.2
		c-0.2,4.4,0,7.7,0.9,11c2.3,5.4,1.6,9.7,0.5,13.9c0,0,0.7,1.2,0.5,1.7l15.1,28.2V88l15.3-28.1c-0.1-0.6,0.5-1.4,0.3-2
		c-1.2-4-2.7-8.8-0.1-13.9C102.1,40.8,102.3,36.8,102.1,33.1z"/>
	<path class="st12" d="M77.9,30.1c0,1.5-1.5,2.7-3.5,2.8c-2,0.1-3.6-1.1-3.6-2.5c-0.1-1.5,1.5-2.7,3.5-2.8
		C76.2,27.5,77.9,28.6,77.9,30.1z"/>
	<path class="st13" d="M76,29.9c0.1,0.9-0.5,1.7-1.4,1.9c-0.9,0.1-1.7-0.5-1.9-1.4c-0.1-0.9,0.5-1.7,1.4-1.9
		C75,28.4,75.8,29,76,29.9z"/>
	<path class="st12" d="M99.6,30.1c0,1.5-1.5,2.7-3.5,2.8c-2,0.1-3.6-1.1-3.6-2.5c0-1.5,1.5-2.7,3.5-2.8
		C97.9,27.5,99.5,28.6,99.6,30.1z"/>
	<path class="st13" d="M97.7,29.9c0.1,0.9-0.5,1.7-1.4,1.9c-0.9,0.1-1.7-0.5-1.9-1.4c-0.1-0.9,0.5-1.7,1.4-1.9
		C96.7,28.4,97.5,29,97.7,29.9z"/>
	<path class="st3" d="M85.3,33.8c-1.8,3-5.4,3.8-5.4,3.8c2.9,1.8,5.7,7.3,5.7,7.3s2.7-5.5,5.6-7.3C91.2,37.5,87,36.7,85.3,33.8z"/>
	<path class="st14" d="M87.6,158.2l0.1-0.1l-0.1-0.1v-2.2c0-0.3,0.2-0.5,0.5-0.5c0,0,0.7,0.6,1.9,0.6c1.2,0,1.8-0.6,2.1-0.6
		c0.1,0,0-0.3,0.3,0c1.9,1.7,6,2.1,6,2.1c0.2,0,0.4,0.4,0.2,0.6c0,0-0.1,0.1-0.1,0.1l0.1,0.1c0,0.3-0.2,0.5-0.5,0.5h-10
		c-0.3,0-0.5-0.2-0.5-0.5V158.2z"/>
	<path class="st14" d="M83.5,158.3c0,0.3-0.2,0.5-0.5,0.5h-10c-0.3,0-0.5-0.2-0.5-0.5l0.1-0.1c0,0-0.1-0.1-0.1-0.1
		c-0.2-0.3-0.1-0.6,0.2-0.6c0,0,4.2-0.4,6-2.1c0.3-0.3,0.2,0,0.3,0c0.3,0,0.9,0.6,2.1,0.6c1.2,0,1.9-0.6,1.9-0.6
		c0.3,0,0.5,0.2,0.5,0.5v2.2l-0.1,0.1l0.1,0.1V158.3z"/>
	<path class="st56" d="M82.2,127.8c3.1,0.4,3.4,0.3,7.5,0.1c9.5-0.4,19.9-2.5,30.6-7.8c1.3-3.6,2.1-7.6,2.1-11.7
		c0-20.5-13.5-37.6-31.1-40.7c-1.9-0.3-5.7,5.3-5.7,5.3s-3.7-5.7-5.4-5.4c-17.8,2.9-31.5,20-31.5,40.7c0,4,0.7,7.8,1.9,11.3
		C50.7,119.6,63.7,126.8,82.2,127.8z"/>
	<g>
		<path class="st5" d="M84.7,74.8L81,71.1c-0.7-0.7-0.2-1.9,0.8-1.9h7.4c1,0,1.5,1.2,0.8,1.9l-3.7,3.7
			C85.8,75.2,85.1,75.2,84.7,74.8z"/>
		<path class="st5" d="M85.6,121.9l-5.7-5.7l5.1-42c0.1-0.8,1.2-0.8,1.3,0l5.1,42L85.6,121.9z"/>
	</g>
	<path class="st59" d="M70,58c0,0,1.8,3.3,5.9,6.2c4.7,3.4,8.1,5,8.1,5s-2.2,1.2-3,4.2c-0.3,1.2-0.1,3.9-0.1,3.9S73.1,69.1,70,60
		C69.8,59.5,70,58,70,58z"/>
	<path class="st59" d="M101.2,57.9c0,0-1.8,3.3-5.9,6.2c-4.7,3.4-8.1,5-8.1,5s2.2,1.2,3,4.2c0.3,1.2,0.1,4,0.1,4s7.8-8.2,10.8-17.3
		C101.4,59.4,101.2,57.9,101.2,57.9z"/>
	<path class="st18" d="M120.3,117c-10.7,5.4-21.2,7.5-30.6,7.8c-4.1,0.2-4.3,0.2-7.5-0.1c-18.5-1.1-31.5-8.2-31.5-8.2
		c-1.1-0.7-1.2-0.5,0,3.1c0,0,13,7.1,31.5,8.2c3.1,0.4,3.4,0.3,7.5,0.1c9.5-0.4,19.9-2.5,30.6-7.8
		C121.7,116.2,121.7,116.2,120.3,117z"/>
	<g>
		<path class="st19" d="M82.4,126.2v1.4c0,0.5,0.4,1,1,0.9l4.4-0.1c0.5,0,0.9-0.4,0.9-0.9v-1.4c0-0.5-0.4-0.9-1-0.9l-4.4,0.1
			C82.8,125.2,82.4,125.6,82.4,126.2z"/>
		<line class="st20" x1="88.7" y1="126.8" x2="86.2" y2="126.8"/>
	</g>
	<g>
		<path class="st106" d="M48.3,84.2H16.7c-1.3,0-2.3-1-2.3-2.3V69.4h36.1V82C50.5,83.2,49.5,84.2,48.3,84.2z"/>
		<polygon class="st106" points="50.5,69.4 14.4,69.4 23.9,57 41.2,57 		"/>
		<path class="st106" d="M26.2,54.4h-1.5c-0.5,0-0.9,0.4-0.9,0.9V57h3.2v-1.8C27.1,54.8,26.7,54.4,26.2,54.4z"/>
		<path class="st106" d="M40.3,54.4h-1.5c-0.5,0-0.9,0.4-0.9,0.9V57h3.2v-1.8C41.1,54.8,40.8,54.4,40.3,54.4z"/>
		<circle class="st107" cx="32.6" cy="71.2" r="10.6"/>
		<circle class="st108" cx="40.4" cy="72.8" r="1.2"/>
		<circle class="st108" cx="40.4" cy="68.1" r="1.2"/>
		<circle class="st108" cx="37.6" cy="64.5" r="1.2"/>
		<circle class="st108" cx="33.1" cy="62.6" r="1.2"/>
		<circle class="st108" cx="28.5" cy="64.1" r="1.2"/>
		<circle class="st108" cx="25.5" cy="67.7" r="1.2"/>
		<circle class="st108" cx="24.4" cy="72.5" r="1.2"/>
		<circle class="st108" cx="27" cy="76.4" r="1.2"/>
		<circle class="st108" cx="31.6" cy="78.5" r="1.2"/>
		<circle class="st108" cx="36.3" cy="77.7" r="1.2"/>
		<path class="st59" d="M42.6,77.6L42.6,77.6c-0.1,0.2-0.4,0.3-0.6,0.2l-5.8-3.4c-0.2-0.1-0.3-0.4-0.2-0.6v0
			c0.1-0.2,0.4-0.3,0.6-0.2l5.8,3.4C42.6,77.1,42.7,77.4,42.6,77.6z"/>
		<circle class="st59" cx="32.6" cy="71.2" r="5.3"/>
	</g>
	<path class="st0" d="M32.8,54.4c0,0,1.7,1,2.2,4.6c0,0-3.4-1.8-7.5-2.5l3.5-1.8L32.8,54.4z"/>
	<g>
		<g>
			<path class="st0" d="M152.1,75.5c-3.5,3.3-9.5,7.8-17.2,9.6c-2.8,4.8-4.4,10.4-4.4,16.4c0,6.5,1.9,12.5,5.1,17.6
				c6-1.7,12.5-5.7,17.8-13.8c0,0,0,0,0,0c2.5-3.6,4-6.9,4.9-9.7c0.1-0.2,0.1-0.3,0.2-0.5c0,0,0,0-0.1,0.1
				C160.2,89.6,154.5,73.3,152.1,75.5z"/>
		</g>
	</g>
	<g>
		<path class="st5" d="M146,91.5c-0.4,3.8-0.3,4.1-1.2,5.5c0,0-0.2,0-0.2,0c-0.3,0.4,0.3,0.4-2.7-0.6v0c0,0,0,0,0,0c0,0,0.1,0,0,0
			c-0.2-0.1-0.3-0.1-0.5-0.2c-2-0.7-3.3-0.9-3.6,1.1c0,0.2,0,0.4-0.1,0.6c0,0.1-0.2,1.8-0.7,5.9l-0.1,1c0,0.2,0,0.4-0.1,0.6
			c-0.2,2.2,1.4,2.7,4,2.4c2.6-0.3,3.9-0.8,3.9-0.8c2-0.8,3.1-3.5,3.5-4.5c1.2-3.4,1.8-4.9,2.4-10.2L146,91.5z"/>
		<path class="st5" d="M140.2,72.2c-0.2,2,1.2,2.1,3.3,1.9c0.2,0,0.4,0,0.6-0.1c0,0,0,0,0,0c0.1,0,0.1,0,0.2,0
			c2.5-0.3,2.4-0.4,2.6,0.1c0,0,0,0.2,0,0.2c0.5,1.6,0.4,1.3-0.2,5.8l4.7,0.6c0.7-6.1,0.5-7.2,0.1-10.8c-0.1-1.1-0.7-4.1-2.4-5.3
			c0,0-1.2-0.9-3.6-1.7c-2.4-0.9-4.1-0.8-4.4,1.4c0,0.2,0,0.4-0.1,0.5l-0.1,1c-0.4,4.1-0.6,5.8-0.6,5.9
			C140.2,71.8,140.2,72,140.2,72.2z"/>
	</g>
	<g>
		<path class="st73" d="M151.9,75.6c0,0-1.1,1.7-4.2,3c-2.6,1.1-4.9,1.9-4.9,1.9s3.1,2.1,7.9,1.2c0.4-0.1-2.8,2.4-7.2,2.4
			c-4.5,0-4.5,0-4.5,0s1.2,2.6,6.1,3.2c3.9,0.5,6.2-0.7,6.2-0.7s-2.4,3-9.1,2.4c-5-0.5-6.2-2.1-6.2-2.1s0.2,4,6.7,6.3
			c2.9,1,7.2,0.8,7.2,0.8s-2.9,1.2-7.4,0.5c-2.8-0.4-5-1.3-5-1.3s3.7,6.9,11.6,6.1c6.7-0.7,9.3-4.3,10-6.1
			c1.3-3.2-1.6-14.5-6.2-17.7C152.4,74.9,151.9,75.6,151.9,75.6z"/>
	</g>
	<g>
		<g>
			<g>
				<path class="st109" d="M40.2,52.5c0.5-0.1,1.8-0.4,2.9,0c0.9,0.3,1.4,0.9,1.3,1.4c-0.1,0.5-0.8,0.7-1.8,0.6
					c-1.1-0.1-2.2-1-2.6-1.3c-0.3,0.1-1.3,0.5-1.4,1.4l-0.5,0l0,0c0.1-1.1,0.9-1.5,1.5-1.8l0,0l0,0c-0.6-0.8-0.8-1.5-0.6-2.2
					l0.5,0.2C39.4,51.2,39.6,51.8,40.2,52.5z M42.9,52.9c-0.8-0.2-1.7-0.1-2.3,0c0.5,0.4,1.3,0.9,2,1c0.6,0.1,1.1,0,1.2-0.3
					C43.9,53.5,43.6,53.1,42.9,52.9z"/>
			</g>
			<g>
				<path class="st109" d="M41.5,49c0.5,0,1.8,0.1,2.8,0.7c0.8,0.5,1.2,1.2,1,1.6c-0.2,0.4-1,0.5-1.9,0.2c-1-0.3-2-1.4-2.2-1.8
					c-0.4,0-1.4,0.3-1.7,1.1l-0.5-0.2l0,0c0.3-0.9,1.3-1.3,1.8-1.4l0,0l0,0c-0.4-0.9-0.4-1.8,0.1-2.4l0.4,0.3
					C41.1,47.4,41.1,48.2,41.5,49z M44.1,50.1c-0.7-0.4-1.6-0.5-2.2-0.5c0.3,0.5,1,1.2,1.7,1.4c0.6,0.2,1.1,0.2,1.2,0
					C44.9,50.8,44.6,50.4,44.1,50.1z"/>
			</g>
			<g>
				<path class="st109" d="M44.1,45.9c0.2,0.1,0.7,0.3,1.1,0.6c0.4,0.3,0.8,0.8,1.1,1.2c0.4,0.8,0.6,1.5,0.4,1.7
					c-0.2,0.2-0.9,0-1.7-0.6c-0.9-0.6-1.4-2-1.4-2.5c-0.4-0.1-1.5-0.2-2,0.6l-0.4-0.3l0,0c0.6-0.9,1.8-1,2.4-0.9l0,0l0,0
					c0-1,0.6-1.9,1.4-2.2l0.2,0.5C44.5,44.2,44.1,45,44.1,45.9z M45.9,47.9c-0.4-0.7-1.2-1.2-1.8-1.4c0.1,0.6,0.5,1.5,1.1,2
					c0.5,0.4,0.9,0.7,1.1,0.5C46.4,49,46.3,48.5,45.9,47.9z"/>
			</g>
			<g>
				<path class="st109" d="M48,44.4c0.3,0.4,0.9,1.6,0.8,2.7c-0.1,0.9-0.4,1.6-0.7,1.7c-0.2,0-0.3-0.1-0.5-0.4
					c-0.2-0.3-0.4-0.6-0.5-1.1c-0.2-0.5-0.2-1.1-0.2-1.6c0.1-0.5,0.2-1,0.3-1.2c-0.2-0.3-1.2-1-2.1-0.5l-0.2-0.5l0,0
					c1.2-0.5,2.2,0,2.6,0.5l0,0l0,0c0.6-0.9,1.5-1.2,2.3-1.1l-0.1,0.5c-0.3,0-0.6,0-0.9,0.2C48.5,43.8,48.2,44,48,44.4z M48.4,47.2
					c0-0.8-0.4-1.7-0.7-2.1c-0.2,0.5-0.4,1.5-0.2,2.2c0.2,0.6,0.4,1,0.6,1C48.2,48.3,48.4,47.8,48.4,47.2z"/>
			</g>
			<g>
				<path class="st109" d="M51.9,45c0.1,0.5,0.2,1.8-0.2,2.8c-0.4,0.8-1,1.4-1.4,1.2c-0.4-0.1-0.6-0.9-0.5-1.8
					c0.1-0.5,0.3-1.1,0.6-1.5c0.3-0.4,0.6-0.8,0.8-1c-0.1-0.2-0.2-0.5-0.4-0.8c-0.2-0.3-0.6-0.6-1-0.6l0.1-0.5l0,0
					c1.1,0.2,1.6,1,1.8,1.6l0,0l0,0c0.8-0.5,1.6-0.7,2.3-0.4l-0.2,0.5C53.3,44.3,52.6,44.5,51.9,45z M51.2,47.7
					c0.3-0.7,0.3-1.7,0.2-2.3c-0.4,0.4-1,1.2-1.1,1.9c-0.1,0.6-0.1,1.1,0.2,1.2C50.6,48.6,51,48.3,51.2,47.7z"/>
			</g>
			<g>
				<path class="st109" d="M55.3,46.7c0,0.5-0.3,1.9-1,2.7c-0.6,0.7-1.3,1-1.7,0.8c-0.4-0.2-0.3-1,0.1-1.9c0.4-1,1.6-1.8,2.1-2
					c0-0.2,0-0.5-0.2-0.9c-0.1-0.4-0.4-0.7-0.7-0.9l0.2-0.5l0,0c0.4,0.2,0.7,0.6,0.9,0.9c0.2,0.4,0.1,0.8,0.2,1.1l-0.1,0v0
					c1-0.3,1.9-0.1,2.5,0.4l-0.3,0.4C56.8,46.5,56.1,46.4,55.3,46.7z M53.9,49.1c0.5-0.6,0.7-1.5,0.8-2.1c-0.5,0.3-1.3,0.9-1.6,1.5
					c-0.3,0.5-0.4,1.1-0.2,1.2C53,49.9,53.5,49.6,53.9,49.1z"/>
			</g>
			<g>
				<path class="st109" d="M58,49.4c-0.1,0.4-0.8,1.7-1.8,2.3c-0.8,0.5-1.5,0.5-1.9,0.2c-0.3-0.3,0-1.1,0.6-1.8
					c0.7-0.8,2.1-1.2,2.6-1.2c0.1-0.2,0.1-0.5,0.1-0.9c0-0.4-0.1-0.8-0.4-1.1l0.3-0.4l0,0c0.4,0.3,0.6,0.8,0.6,1.2
					c0.1,0.4,0,0.8,0,1.1l0,0l0,0c1,0,1.7,0.4,2.1,0.9l-0.4,0.3C59.6,49.6,58.9,49.3,58,49.4z M56,51.3c0.6-0.5,1.1-1.3,1.4-1.8
					c-0.6,0.1-1.5,0.4-2,1c-0.4,0.4-0.7,0.9-0.5,1.1C55,51.7,55.5,51.6,56,51.3z"/>
			</g>
			<g>
				<path class="st109" d="M59.9,52.6c-0.2,0.4-1.1,1.4-2.1,1.9c-0.8,0.4-1.7,0.2-1.9-0.2c-0.2-0.5,0.2-1.1,1-1.7
					c0.9-0.6,2.3-0.6,2.8-0.6c0.2-0.3,0.7-1.3,0.2-1.9l0.4-0.3l0,0c0.6,0.8,0.2,1.7,0,2.2l0,0l0,0c0.5,0.1,0.9,0.2,1.2,0.5
					c0.3,0.2,0.5,0.5,0.6,0.8l-0.5,0.2C61.4,53,60.9,52.7,59.9,52.6z M57.6,54c0.7-0.3,1.3-1,1.7-1.5c-0.6,0-1.6,0.1-2.2,0.5
					c-0.5,0.3-0.9,0.8-0.7,1C56.5,54.2,57,54.3,57.6,54z"/>
			</g>
			<g>
				<path class="st109" d="M61.3,55.9c-0.3,0.4-1.3,1.3-2.4,1.6C58,57.8,57.2,57.6,57,57c-0.2-0.5,0.3-1.2,1.2-1.5
					c1-0.4,2.4-0.3,2.9-0.2c0.3-0.3,0.8-1.1,0.5-1.8l0.5-0.2c0,0,0-0.2,0-0.2c0.3,0.8-0.1,1.9-0.4,1.9h0l0,0.2
					c0.9,0.3,1.5,0.9,1.7,1.5l-0.5,0.2C62.7,56.5,62.1,56.1,61.3,55.9z M58.8,57c0.7-0.2,1.5-0.8,1.9-1.3c-0.6-0.1-1.5-0.1-2.2,0.2
					c-0.6,0.2-1,0.6-0.9,0.9C57.6,57.1,58.1,57.2,58.8,57z"/>
			</g>
			<g>
				<path class="st109" d="M62.3,59.3c-0.3,0.3-1.4,1.2-2.5,1.4c-0.9,0.2-1.7-0.1-1.8-0.7c-0.2-0.6,0.4-1.2,1.3-1.5
					c1-0.3,2.4-0.1,2.9,0.1c0.3-0.3,0.9-1,0.7-1.7l0.5-0.1l0,0c0.2,0.8-0.3,1.6-0.6,2l0,0l0,0c0.9,0.3,1.4,0.8,1.5,1.4l-0.5,0.1
					C63.6,60,63.1,59.6,62.3,59.3z M59.7,60.3c0.8-0.2,1.5-0.7,2-1.1c-0.6-0.1-1.5-0.2-2.2,0c-0.6,0.2-1,0.6-0.9,0.8
					C58.5,60.2,59,60.4,59.7,60.3z"/>
			</g>
			<g>
				<path class="st109" d="M63,62.7c-0.4,0.3-1.4,1.1-2.5,1.3c-0.9,0.2-1.7-0.2-1.8-0.8c-0.1-0.6,0.5-1.2,1.4-1.4
					c1-0.3,2.4,0.1,2.9,0.2c0.3-0.2,1-1,0.8-1.7l0.5-0.1l0,0c0.2,0.8-0.3,1.5-0.7,1.9l0,0l0,0c0.9,0.4,1.4,0.9,1.5,1.5l-0.5,0.1
					C64.3,63.5,63.8,63.1,63,62.7z M60.4,63.6c0.8-0.2,1.6-0.7,2-1c-0.6-0.1-1.5-0.3-2.2-0.1c-0.6,0.2-1,0.5-1,0.8
					C59.2,63.5,59.8,63.7,60.4,63.6z"/>
			</g>
			<g>
				<path class="st109" d="M63.7,66.1c-0.4,0.3-1.5,1.1-2.6,1.3c-0.9,0.2-1.7-0.2-1.8-0.8c-0.1-0.6,0.5-1.2,1.4-1.4
					c1-0.2,2.4,0.2,2.9,0.3c0.3-0.2,1-0.9,0.9-1.6l0.5-0.1l0,0c0.1,0.8-0.4,1.5-0.8,1.9l0,0l0,0c0.9,0.4,1.3,0.9,1.4,1.5L65,67.4
					C65,66.9,64.5,66.5,63.7,66.1z M61,66.9c0.8-0.1,1.6-0.6,2-1c-0.6-0.2-1.5-0.4-2.2-0.2c-0.6,0.1-1,0.5-1,0.8
					C59.9,66.8,60.4,67,61,66.9z"/>
			</g>
			<g>
				<path class="st109" d="M64.2,69.6c-0.4,0.3-1.5,1.1-2.6,1.2c-0.9,0.1-1.7-0.2-1.8-0.8c-0.1-0.6,0.5-1.2,1.4-1.4
					c1-0.2,2.4,0.2,2.9,0.4c0.3-0.2,1-0.9,0.9-1.6l0.5-0.1l0,0c0.1,0.8-0.4,1.5-0.8,1.9l0,0l0,0c0.8,0.4,1.3,0.9,1.4,1.5l-0.5,0.1
					C65.5,70.3,65,69.9,64.2,69.6z M61.6,70.3c0.8-0.1,1.6-0.6,2.1-0.9c-0.6-0.2-1.5-0.4-2.2-0.2c-0.6,0.1-1.1,0.5-1,0.8
					C60.4,70.2,60.9,70.4,61.6,70.3z"/>
			</g>
			<g>
				<path class="st109" d="M64.8,72.9c-0.4,0.3-1.5,1.1-2.6,1.3c-0.9,0.2-1.7-0.2-1.8-0.8c-0.1-0.6,0.5-1.2,1.4-1.4
					c1.1-0.2,2.4,0.2,2.9,0.4c0.3-0.2,1-0.9,0.9-1.6l0.5-0.1l0,0c0.1,0.8-0.4,1.5-0.8,1.9l0,0l0,0c0.8,0.4,1.3,0.9,1.4,1.5l-0.5,0.1
					C66.1,73.7,65.6,73.3,64.8,72.9z M62.1,73.7c0.8-0.1,1.6-0.6,2-0.9c-0.6-0.2-1.5-0.4-2.2-0.2c-0.6,0.1-1.1,0.5-1,0.8
					C61,73.5,61.5,73.8,62.1,73.7z"/>
			</g>
			<g>
				<path class="st109" d="M65.4,76.3c-0.4,0.3-1.5,1.1-2.6,1.3c-0.9,0.2-1.7-0.2-1.8-0.8c-0.1-0.6,0.5-1.2,1.4-1.4
					c1-0.2,2.4,0.2,2.9,0.3c0.3-0.2,1-0.9,0.9-1.6l0.5-0.1l0,0c0.1,0.8-0.4,1.5-0.8,1.8l0,0l0,0c0.8,0.4,1.3,0.9,1.4,1.4l-0.5,0.1
					C66.7,77,66.2,76.6,65.4,76.3z M62.7,77.1c0.8-0.1,1.6-0.6,2-1c-0.6-0.2-1.5-0.4-2.2-0.2c-0.6,0.1-1,0.5-1,0.8
					C61.6,77,62.1,77.2,62.7,77.1z"/>
			</g>
			<g>
				<path class="st109" d="M66,79.7c-0.4,0.3-1.4,1.1-2.5,1.3c-0.9,0.2-1.7-0.2-1.8-0.8c-0.1-0.6,0.5-1.2,1.4-1.4
					c1-0.2,2.4,0.1,2.9,0.3c0.3-0.2,1-0.9,0.8-1.6l0.5-0.1l0,0c0.1,0.8-0.4,1.5-0.8,1.9l0,0l0,0c0.8,0.4,1.4,0.8,1.5,1.4l-0.5,0.1
					C67.3,80.4,66.8,80,66,79.7z M63.4,80.5c0.8-0.2,1.6-0.7,2-1c-0.6-0.1-1.5-0.3-2.2-0.2c-0.6,0.1-1,0.5-1,0.8
					C62.2,80.4,62.7,80.6,63.4,80.5z"/>
			</g>
			<g>
				<path class="st109" d="M66.7,83c-0.3,0.3-1.4,1.2-2.5,1.4c-0.9,0.2-1.7-0.1-1.9-0.7c-0.1-0.6,0.4-1.2,1.3-1.5
					c1-0.3,2.4,0.1,2.9,0.2c0.3-0.2,1-0.9,0.8-1.6l0.5-0.1l0,0c0.2,0.8-0.4,1.5-0.8,1.9l0,0l0,0c0.9,0.3,1.4,0.8,1.5,1.3l-0.5,0.1
					C68.1,83.6,67.6,83.3,66.7,83z M64.1,83.9c0.8-0.2,1.5-0.7,2-1.1c-0.6-0.1-1.5-0.3-2.2-0.1c-0.6,0.2-1,0.5-1,0.8
					C63,83.8,63.5,84,64.1,83.9z"/>
			</g>
			<g>
				<path class="st109" d="M67.5,86.3c-0.3,0.3-1.3,1.2-2.4,1.5c-0.9,0.3-1.7,0-1.9-0.7c-0.2-0.6,0.4-1.3,1.3-1.5
					c1-0.3,2.4,0,2.9,0.1c0.2-0.2,0.9-1,0.8-1.6l0.5-0.1l0,0c0.2,0.7-0.3,1.5-0.7,1.9l0,0l0,0c0.9,0.3,1.4,0.7,1.6,1.3L69,87.3
					C68.9,86.9,68.4,86.5,67.5,86.3z M65,87.3c0.8-0.2,1.5-0.8,1.9-1.1c-0.6-0.1-1.5-0.2-2.3,0c-0.6,0.2-1,0.6-0.9,0.9
					C63.8,87.3,64.4,87.4,65,87.3z"/>
			</g>
			<g>
				<path class="st109" d="M68.5,89.5c-0.3,0.3-1.3,1.3-2.3,1.6c-0.9,0.3-1.7,0-1.9-0.6c-0.2-0.6,0.3-1.3,1.2-1.6
					c1-0.3,2.4-0.1,2.9,0c0.3-0.3,0.9-1,0.7-1.6l0.5-0.1l0,0c0.2,0.7-0.2,1.9-0.6,1.9h0l0,0c0.9,0.3,1.4,0.7,1.6,1.2L70,90.4
					C69.9,90,69.4,89.7,68.5,89.5z M66,90.6c0.7-0.2,1.5-0.9,1.9-1.2c-0.6-0.1-1.6-0.2-2.2,0.1c-0.6,0.2-1,0.6-0.9,0.9
					C64.9,90.7,65.4,90.8,66,90.6z"/>
			</g>
			<g>
				<path class="st109" d="M69.7,92.7c-0.3,0.3-1.2,1.4-2.2,1.8c-0.9,0.4-1.7,0.1-1.9-0.5c-0.2-0.6,0.2-1.3,1.1-1.7
					c1-0.4,2.4-0.3,2.9-0.2c0.2-0.3,0.8-1.1,0.6-1.7l0.5-0.2l0-0.1c0.3,0.7-0.2,1.8-0.5,1.8h0l0,0.1c0.9,0.2,1.4,0.6,1.7,1.1
					l-0.5,0.2C71.1,93.1,70.5,92.8,69.7,92.7z M67.2,93.9c0.7-0.3,1.4-0.9,1.8-1.4c-0.6,0-1.6-0.1-2.2,0.2c-0.6,0.2-0.9,0.7-0.8,1
					C66.1,94,66.6,94.2,67.2,93.9z"/>
			</g>
			<g>
				<path class="st109" d="M71,95.7c-0.3,0.4-1.1,1.4-2.1,1.9c-0.8,0.4-1.7,0.3-2-0.3c-0.3-0.6,0.2-1.3,1-1.7c1-0.5,2.4-0.4,2.8-0.4
					c0.2-0.3,0.8-1.1,0.5-1.7l0.5-0.2l0,0c0.3,0.7-0.1,1.5-0.4,1.9l0,0l0,0c0.9,0.1,1.5,0.4,1.8,0.9l-0.5,0.2
					C72.4,96,71.9,95.8,71,95.7z M68.6,97.2c0.7-0.3,1.3-1,1.7-1.5c-0.6,0-1.5,0-2.2,0.4c-0.6,0.3-0.9,0.7-0.8,1
					C67.5,97.4,68.1,97.5,68.6,97.2z"/>
			</g>
			<g>
				<path class="st109" d="M72.6,98.7c-0.2,0.4-1,1.5-1.9,2.1c-0.8,0.5-1.7,0.4-2-0.2c-0.3-0.6,0-1.4,0.9-1.8
					c0.9-0.5,2.3-0.6,2.8-0.6c0.2-0.3,0.7-1.2,0.4-1.7l0.5-0.2l0,0c0.3,0.6,0,1.5-0.2,2l0,0l0,0c0.9,0.1,1.5,0.3,1.8,0.8l-0.4,0.3
					C74,98.8,73.4,98.7,72.6,98.7z M70.3,100.3c0.7-0.4,1.2-1.2,1.6-1.6c-0.6,0.1-1.5,0.2-2.2,0.6c-0.5,0.3-0.8,0.8-0.7,1.1
					C69.2,100.6,69.8,100.6,70.3,100.3z"/>
			</g>
			<g>
				<path class="st109" d="M74.4,101.4c-0.2,0.4-0.8,1.6-1.7,2.3c-0.7,0.6-1.6,0.6-2,0c-0.4-0.5-0.1-1.3,0.7-1.9
					c0.9-0.6,2.3-0.8,2.8-0.9c0.1-0.3,0.5-1.2,0.2-1.7l0.4-0.3l0,0c0.4,0.6,0.1,1.4-0.1,1.9l0,0l0,0c0.9,0,1.5,0.1,1.9,0.6l-0.4,0.3
					C75.8,101.5,75.2,101.4,74.4,101.4z M72.3,103.3c0.6-0.5,1.1-1.3,1.4-1.8c-0.6,0.1-1.5,0.3-2.1,0.8c-0.5,0.4-0.7,0.9-0.6,1.1
					C71.2,103.6,71.8,103.6,72.3,103.3z"/>
			</g>
			<g>
				<path class="st109" d="M76.4,104c-0.2,0.4-0.7,1.7-1.5,2.5c-0.7,0.6-1.5,0.7-2,0.2c-0.4-0.5-0.2-1.3,0.5-1.9
					c0.8-0.7,2.2-1,2.7-1.1c0.1-0.3,0.4-1.2,0-1.7l0.4-0.3l0,0c0.4,0.6,0.3,1.4,0.1,1.9l0,0l0,0c0.9-0.1,1.5,0,1.9,0.4l-0.4,0.4
					C77.8,103.9,77.3,103.8,76.4,104z M74.6,106c0.6-0.5,1-1.4,1.2-1.9c-0.6,0.2-1.5,0.5-2,1c-0.5,0.4-0.7,1-0.4,1.2
					C73.5,106.5,74.1,106.5,74.6,106z"/>
			</g>
			<g>
				<path class="st109" d="M78.7,106.4c-0.1,0.5-0.5,1.8-1.2,2.6c-0.6,0.7-1.5,0.9-2,0.4c-0.5-0.5-0.4-1.3,0.3-2
					c0.7-0.8,2.1-1.3,2.5-1.4c0.1-0.4,0.3-1.3-0.2-1.7l0.4-0.4l0,0c0.5,0.5,0.4,1.4,0.3,1.9l0,0l0,0c0.4-0.1,0.8-0.1,1.1-0.1
					c0.3,0,0.6,0.1,0.8,0.3l-0.3,0.4C80.2,106.1,79.5,106.1,78.7,106.4z M77.1,108.6c0.5-0.6,0.9-1.5,1-2c-0.5,0.2-1.4,0.6-1.9,1.2
					c-0.4,0.5-0.6,1-0.3,1.2C76.1,109.2,76.7,109.1,77.1,108.6z"/>
			</g>
			<g>
				<path class="st109" d="M81.3,108.5c-0.1,0.4-0.3,1.8-0.9,2.7c-0.5,0.7-1.4,1.1-1.9,0.6c-0.5-0.4-0.5-1.3,0.1-2
					c0.6-0.9,1.9-1.5,2.3-1.7c0.1-0.4,0.2-1.3-0.3-1.7l0.3-0.4l0,0c0.6,0.4,0.6,1.3,0.5,1.9l0,0l0,0c0.8-0.3,1.5-0.4,2-0.1l-0.3,0.4
					C82.7,108,82.1,108.1,81.3,108.5z M79.9,110.8c0.5-0.6,0.7-1.5,0.8-2.1c-0.5,0.3-1.3,0.7-1.8,1.3c-0.4,0.5-0.4,1.1-0.2,1.3
					C79,111.5,79.5,111.4,79.9,110.8z"/>
			</g>
			<g>
				<path class="st109" d="M84,110.3c0,0.4-0.1,1.8-0.6,2.8c-0.4,0.8-1.3,1.2-1.9,0.9c-0.6-0.4-0.6-1.2-0.1-2
					c0.6-0.9,1.8-1.7,2.1-1.9c0-0.4,0-1.4-0.5-1.7l0.3-0.4l0,0c0.6,0.4,0.7,1.3,0.7,1.8l0,0l0,0c0.8-0.4,1.5-0.5,2-0.3l-0.2,0.5
					C85.4,109.7,84.8,109.8,84,110.3z M82.9,112.8c0.4-0.7,0.5-1.6,0.6-2.2c-0.5,0.3-1.3,0.9-1.6,1.5c-0.3,0.5-0.3,1.1-0.1,1.3
					C82.1,113.6,82.6,113.3,82.9,112.8z"/>
			</g>
			<g>
				<path class="st109" d="M87,111.8c0,0.4,0.1,1.8-0.4,2.8c-0.4,0.8-1.1,1.3-1.8,1c-0.6-0.3-0.7-1.2-0.3-2c0.5-1,1.6-1.8,1.9-2.1
					c0-0.4-0.1-1.4-0.7-1.6l0.2-0.5l0,0c0.6,0.3,0.8,1.2,0.9,1.7l0,0l0,0c0.8-0.5,1.4-0.7,1.9-0.4l-0.2,0.5
					C88.3,111.1,87.7,111.3,87,111.8z M86.1,114.4c0.3-0.7,0.4-1.7,0.4-2.2c-0.5,0.4-1.2,1-1.5,1.7c-0.2,0.6-0.2,1.2,0.1,1.3
					C85.3,115.3,85.8,115,86.1,114.4z"/>
			</g>
			<g>
				<path class="st109" d="M90,113c0.1,0.4,0.2,1.8-0.1,2.8c-0.3,0.9-1,1.4-1.7,1.2c-0.6-0.2-0.8-1.1-0.5-2c0.4-1,1.4-2,1.8-2.3
					c-0.1-0.4-0.2-1.3-0.8-1.6l0.2-0.5l0,0c0.7,0.3,0.9,1.1,1.1,1.7l0,0l0,0c0.8-0.6,1.4-0.8,1.9-0.6l-0.2,0.5
					C91.3,112.2,90.7,112.5,90,113z M89.4,115.7c0.3-0.7,0.2-1.7,0.2-2.2c-0.4,0.4-1.1,1.1-1.3,1.8c-0.2,0.6-0.1,1.2,0.2,1.3
					C88.7,116.6,89.2,116.3,89.4,115.7z"/>
			</g>
			<g>
				<path class="st109" d="M93.2,114c0.1,0.4,0.4,1.8,0.1,2.9c-0.2,0.9-0.9,1.5-1.6,1.3c-0.6-0.2-0.9-1-0.7-1.9
					c0.3-1,1.3-2.1,1.6-2.4c-0.1-0.4-0.3-1.3-1-1.5l0.2-0.5l0,0c0.7,0.2,1,1,1.2,1.6l0,0l0,0c0.7-0.6,1.3-0.9,1.9-0.7l-0.1,0.5
					C94.4,113.2,93.8,113.4,93.2,114z M92.8,116.8c0.2-0.8,0.1-1.7,0-2.2c-0.4,0.4-1,1.2-1.2,1.9c-0.2,0.6,0,1.2,0.3,1.3
					C92.2,117.7,92.6,117.4,92.8,116.8z"/>
			</g>
			<g>
				<path class="st109" d="M96.5,114.8c0.1,0.5,0.5,1.7,0.3,2.8c-0.2,0.9-0.8,1.5-1.5,1.4c-0.6-0.1-1-0.9-0.8-1.8
					c0.2-1.1,1.1-2.2,1.4-2.5c-0.1-0.3-0.4-1.3-1.1-1.4l0.1-0.5l0,0c0.7,0.2,1.1,0.9,1.3,1.5l0,0l0,0c0.7-0.6,1.3-0.9,1.8-0.8
					l-0.1,0.5C97.6,113.8,97.1,114.2,96.5,114.8z M96.2,117.6c0.1-0.8,0-1.7-0.2-2.3c-0.3,0.5-0.9,1.3-1,2c-0.1,0.6,0.1,1.2,0.4,1.2
					C95.7,118.6,96.1,118.2,96.2,117.6z"/>
			</g>
			<g>
				<path class="st109" d="M99.8,115.4c0.1,0.4,0.6,1.7,0.4,2.8c-0.1,0.9-0.7,1.5-1.4,1.5c-0.6-0.1-1-0.8-0.9-1.8
					c0.1-1.1,1-2.2,1.2-2.6c-0.1-0.3-0.5-1.2-1.2-1.3l0.1-0.5l0,0c0.7,0.1,1.2,0.9,1.4,1.4l0,0l0,0c0.6-0.7,1.2-1,1.8-0.9l-0.1,0.5
					C100.8,114.4,100.3,114.7,99.8,115.4z M99.7,118.1c0.1-0.8-0.1-1.7-0.3-2.2c-0.3,0.5-0.8,1.3-0.9,2.1c-0.1,0.6,0.1,1.1,0.4,1.2
					C99.2,119.2,99.6,118.8,99.7,118.1z"/>
			</g>
			<g>
				<path class="st109" d="M103.1,115.7c0.2,0.4,0.7,1.7,0.6,2.8c-0.1,0.9-0.6,1.6-1.3,1.5c-0.6-0.1-1.1-0.8-1-1.7
					c0.1-1.1,0.8-2.3,1.1-2.7c-0.1-0.3-0.6-1.2-1.2-1.3l0.1-0.5l0,0c0.7,0.1,1.2,0.8,1.5,1.3l0,0l0,0c0.6-0.7,1.2-1.1,1.7-1l0,0.5
					C104.1,114.7,103.6,115,103.1,115.7z M103.2,118.5c0.1-0.8-0.2-1.7-0.4-2.2c-0.3,0.5-0.7,1.4-0.8,2.1c0,0.6,0.2,1.1,0.5,1.2
					C102.8,119.6,103.1,119.1,103.2,118.5z"/>
			</g>
			<g>
				<path class="st109" d="M106.5,115.9c0.2,0.4,0.7,1.6,0.7,2.8c0,0.9-0.6,1.6-1.2,1.6c-0.6,0-1.1-0.7-1.1-1.7
					c0-1.1,0.7-2.3,0.9-2.7c-0.2-0.3-0.7-1.3-1.3-1.3l0-0.6h0c0.8,0,1.3,0.8,1.6,1.3l0,0l0.1,0c0.5-0.7,0.7-1.1,1.7-1.1v0.5
					C107,114.8,107,115.2,106.5,115.9z M106.7,118.7c0-0.8-0.3-1.7-0.5-2.2c-0.3,0.5-0.7,1.4-0.7,2.1c0,0.6,0.3,1.1,0.6,1.1
					C106.3,119.8,106.7,119.3,106.7,118.7z"/>
			</g>
			<g>
				<path class="st109" d="M109.8,115.9c0.2,0.4,0.8,1.6,0.9,2.7c0,0.9-0.5,1.6-1.1,1.7c-0.6,0-1.1-0.7-1.2-1.6
					c0-1.1,0.7-2.4,0.9-2.8c-0.2-0.3-0.3-1.1-1.3-1.1V114h-0.1c0.8,0,1.3,0.8,1.6,1.3l0,0.1l0,0.1c0.5-0.8,1-1.1,1.6-1.2l0,0.5
					C110.7,114.8,110.3,115.2,109.8,115.9z M110.2,118.7c0-0.8-0.4-1.7-0.6-2.2c-0.2,0.5-0.6,1.4-0.6,2.2c0,0.6,0.3,1.1,0.6,1.1
					C109.9,119.8,110.2,119.3,110.2,118.7z"/>
			</g>
			<g>
				<path class="st109" d="M113.2,115.8c0.2,0.4,0.9,1.6,1,2.7c0.1,0.9-0.4,1.7-1,1.7c-0.6,0-1.2-0.6-1.2-1.6
					c-0.1-1.1,0.5-2.4,0.7-2.8c-0.2-0.3-0.8-1.2-1.4-1.2l0-0.6h0c0.8,0,1.4,0.7,1.7,1.2l0,0l0,0.1c0.5-0.8,1-1.2,1.6-1.3l0,0.5
					C114.1,114.6,113.6,115,113.2,115.8z M113.7,118.5c-0.1-0.8-0.5-1.6-0.7-2.1c-0.2,0.5-0.5,1.5-0.5,2.2c0.1,0.6,0.4,1.1,0.7,1.1
					C113.4,119.6,113.7,119.2,113.7,118.5z"/>
			</g>
			<g>
				<path class="st109" d="M116.6,115.5c0.3,0.4,1,1.5,1.1,2.6c0.1,0.9-0.3,1.7-1,1.8c-0.6,0.1-1.2-0.6-1.3-1.5
					c-0.1-1.1,0.4-2.4,0.6-2.8c-0.2-0.3-0.8-1.1-1.5-1l0-0.5l0,0c0.8-0.1,1.4,0.5,1.7,1l0,0l0,0c0.4-0.8,0.9-1.3,1.5-1.3l0.1,0.5
					C117.4,114.3,117,114.7,116.6,115.5z M117.2,118.2c-0.1-0.8-0.5-1.6-0.8-2.1c-0.2,0.5-0.5,1.5-0.4,2.2c0.1,0.6,0.4,1.1,0.7,1.1
					C117,119.3,117.2,118.9,117.2,118.2z"/>
			</g>
			<g>
				<path class="st109" d="M119.9,115.1c0.3,0.4,1.1,1.5,1.2,2.6c0.2,0.9-0.2,1.7-0.9,1.8c-0.6,0.1-1.2-0.5-1.4-1.4
					c-0.2-1.1,0.3-2.4,0.4-2.9c-0.2-0.3-0.9-1-1.5-0.9l-0.1-0.5l0,0c0.8-0.1,1.4,0.5,1.8,0.9l0,0l0,0c0.4-0.8,0.9-1.3,1.4-1.4
					l0.1,0.5C120.7,113.8,120.3,114.3,119.9,115.1z M120.6,117.7c-0.1-0.8-0.6-1.6-0.9-2.1c-0.2,0.6-0.4,1.5-0.3,2.2
					c0.1,0.6,0.5,1.1,0.8,1C120.5,118.9,120.7,118.4,120.6,117.7z"/>
			</g>
			<g>
				<path class="st109" d="M123.2,114.5c0.3,0.4,1.1,1.4,1.4,2.5c0.2,0.9-0.2,1.7-0.8,1.8c-0.6,0.1-1.2-0.5-1.4-1.4
					c-0.2-1,0.2-2.4,0.3-2.9c-0.2-0.3-0.9-1-1.6-0.9l-0.1-0.5l0,0c0.7-0.1,1.4,0.4,1.8,0.8l0,0l0,0c0.4-0.9,0.8-1.3,1.4-1.5l0.1,0.5
					C123.9,113.2,123.6,113.7,123.2,114.5z M124.1,117.1c-0.2-0.8-0.7-1.6-1-2c-0.1,0.6-0.3,1.5-0.2,2.2c0.1,0.6,0.5,1,0.8,1
					C124,118.3,124.2,117.7,124.1,117.1z"/>
			</g>
			<g>
				<path class="st109" d="M126.5,113.7c0.3,0.3,1.2,1.4,1.5,2.5c0.2,0.9-0.1,1.7-0.7,1.9c-0.6,0.2-1.3-0.4-1.5-1.3
					c-0.3-1,0.1-2.4,0.2-2.9c-0.2-0.3-1-1-1.6-0.8l-0.1-0.5l0,0c0.7-0.2,1.5,0.4,1.9,0.7l0,0l0,0c0.3-0.9,0.7-1.4,1.3-1.5l0.1,0.5
					C127.1,112.4,126.8,112.9,126.5,113.7z M127.5,116.3c-0.2-0.8-0.8-1.5-1.1-2c-0.1,0.6-0.3,1.5-0.1,2.2c0.2,0.6,0.6,1,0.9,0.9
					C127.5,117.5,127.7,116.9,127.5,116.3z"/>
			</g>
			<g>
				<path class="st109" d="M129.8,112.8c0.3,0.3,1.3,1.3,1.6,2.4c0.3,0.9,0,1.7-0.6,1.9c-0.6,0.2-1.3-0.3-1.6-1.2
					c-0.3-1-0.1-2.4,0-2.9c-0.3-0.2-1-0.9-1.6-0.7l-0.1-0.5l-0.2,0c0.7-0.2,1.7,0.3,1.7,0.6v0l0.2,0c0.3-0.9,0.7-1.4,1.3-1.6
					l0.2,0.5C130.3,111.4,130,112,129.8,112.8z M130.9,115.3c-0.2-0.7-0.8-1.5-1.2-1.9c-0.1,0.6-0.2,1.6,0.1,2.2
					c0.2,0.6,0.6,1,0.9,0.9C130.9,116.5,131.1,116,130.9,115.3z"/>
			</g>
			<g>
				<path class="st109" d="M132.9,111.7c0.3,0.3,1.3,1.2,1.8,2.3c0.4,0.9,0.1,1.7-0.5,1.9c-0.6,0.2-1.3-0.2-1.7-1.1
					c-0.4-1-0.2-2.4-0.2-2.9c-0.3-0.2-1-0.8-1.7-0.6l-0.2-0.5l-0.2,0c0.7-0.2,1.7,0.2,1.7,0.5v0l0.3,0c0.2-0.9,0.7-1.5,1.2-1.7
					l0.3,0.5C133.3,110.3,133.1,110.9,132.9,111.7z M134.2,114.2c-0.3-0.7-0.9-1.4-1.3-1.8c0,0.6-0.1,1.6,0.2,2.2
					c0.2,0.6,0.7,0.9,1,0.8C134.3,115.3,134.4,114.8,134.2,114.2z"/>
			</g>
			<g>
				<path class="st109" d="M136,110.4c0.4,0.3,1.4,1.1,2,2.1c0.4,0.8,0.3,1.7-0.3,2c-0.6,0.3-1.3-0.1-1.8-1c-0.5-1-0.4-2.4-0.4-2.9
					c-0.3-0.2-1.1-0.7-1.7-0.5l-0.2-0.5l0,0c0.7-0.3,1.4,0.1,1.9,0.4l0,0l0,0c0.1-0.9,0.4-1.5,0.9-1.7l0.3,0.5
					C136.3,109,136.1,109.5,136,110.4z M137.5,112.7c-0.4-0.7-1.1-1.3-1.5-1.7c0,0.6,0,1.6,0.4,2.2c0.3,0.5,0.7,0.9,1,0.7
					C137.7,113.9,137.7,113.3,137.5,112.7z"/>
			</g>
			<g>
				<path class="st109" d="M138.8,108.8c0.4,0.2,1.6,0.9,2.2,1.8c0.6,0.7,0.5,1.7-0.1,2.1c-0.6,0.4-1.4,0.1-1.9-0.7
					c-0.6-0.9-0.7-2.3-0.7-2.8c-0.3-0.2-1.2-0.6-1.7-0.3l-0.2-0.4l0,0c0.6-0.3,1.4,0,1.9,0.2l0,0l0,0c0-0.9,0.1-1.5,0.5-1.8l0.3,0.4
					C138.8,107.4,138.8,107.9,138.8,108.8z M140.6,110.9c-0.4-0.6-1.2-1.2-1.7-1.5c0.1,0.6,0.2,1.5,0.6,2.2c0.3,0.5,0.9,0.8,1.1,0.6
					C140.9,112,141,111.4,140.6,110.9z"/>
			</g>
			<g>
				<path class="st109" d="M141.1,106.8c0.4,0.1,1.7,0.4,2.7,1c0.8,0.5,1,1.5,0.4,2.2c-0.3,0.3-0.7,0.4-1,0.4
					c-0.4-0.1-0.8-0.3-1.1-0.6c-0.4-0.4-0.6-0.9-0.8-1.4c-0.2-0.5-0.4-0.9-0.5-1.1c-0.3-0.1-1.2-0.4-1.6,0l-0.3-0.4l0,0
					c0.5-0.4,1.2-0.2,1.7-0.1l0,0l0,0c-0.1-0.4-0.3-0.7-0.3-1c-0.1-0.2-0.1-0.4,0-0.5l0.5,0.2c-0.1,0.1,0,0.2,0.1,0.5
					C140.8,106.1,141,106.4,141.1,106.8z M143.4,108.3c-0.6-0.5-1.5-0.7-2.1-0.9c0.2,0.5,0.6,1.4,1.1,1.9c0.4,0.4,1,0.5,1.3,0.3
					C144.1,109.3,144,108.7,143.4,108.3z"/>
			</g>
		</g>
	</g>
</g>
</svg>
