<?xml version="1.0" encoding="utf-8"?>
<!-- Generator: Adobe Illustrator 19.2.1, SVG Export Plug-In . SVG Version: 6.00 Build 0)  -->
<svg version="1.1" id="Layer_1" xmlns="http://www.w3.org/2000/svg" xmlns:xlink="http://www.w3.org/1999/xlink" x="0px" y="0px"
	 width="200px" height="200px" viewBox="0 0 200 200" style="enable-background:new 0 0 200 200;" xml:space="preserve">
<style type="text/css">
	.st0{fill:#E2E3E4;}
	.st1{fill:#595D62;}
	.st2{fill:#C7702A;}
	.st3{fill:#C9C7C7;}
	.st4{fill:#EA8824;}
	.st5{fill:none;stroke:#C9C7C7;stroke-width:0.75651;stroke-miterlimit:10;}
	.st6{fill-rule:evenodd;clip-rule:evenodd;fill:#444851;}
	.st7{fill-rule:evenodd;clip-rule:evenodd;fill:#D8D7D6;}
	.st8{fill:#FFFFFF;}
	.st9{fill:#2B2B35;}
	.st10{fill:#434850;}
	.st11{fill:#6C4396;}
	.st12{fill:#A4A4A4;}
	.st13{fill:#EA4C65;}
	.st14{fill:#94814F;}
	.st15{fill:#9C2023;}
	.st16{fill:#B7242C;}
	.st17{fill-rule:evenodd;clip-rule:evenodd;fill:#FFFFFF;}
	.st18{fill:#0C4F6E;}
	.st19{fill:#C18E46;}
	.st20{fill:#3180BF;}
	.st21{fill:#D94F4F;}
	.st22{fill:#2C2C2D;}
	.st23{fill:#595E63;}
	.st24{fill:#E3E2E2;}
	.st25{fill:#9D9EA0;}
	.st26{fill:none;stroke:#C8C6C6;stroke-width:0.75651;stroke-miterlimit:10;}
	.st27{fill:#2A2E35;}
	.st28{fill-rule:evenodd;clip-rule:evenodd;fill:#454751;}
	.st29{fill-rule:evenodd;clip-rule:evenodd;fill:#D8D7D5;}
	.st30{fill:#434851;}
	.st31{fill:#EC9424;}
	.st32{fill:#445AA4;}
	.st33{clip-path:url(#SVGID_2_);fill:#58C1C4;}
	.st34{fill:#B7DBDB;}
	.st35{fill:#58C1C4;}
	.st36{fill:none;stroke:#434851;stroke-width:1.51302;stroke-linecap:round;stroke-linejoin:round;stroke-miterlimit:10;}
	.st37{clip-path:url(#SVGID_4_);fill:#58C1C4;}
	.st38{fill:#010101;}
	.st39{fill:#161718;}
	.st40{fill-rule:evenodd;clip-rule:evenodd;fill:#010101;}
	.st41{fill:#272626;}
	.st42{fill:#17191A;}
	.st43{fill:#D4D5D4;}
	.st44{fill-rule:evenodd;clip-rule:evenodd;fill:#272626;}
	.st45{fill-rule:evenodd;clip-rule:evenodd;fill:#E2E3E4;}
	.st46{fill:#19244E;}
	.st47{fill:#E3E1E1;}
	.st48{fill:#8E1B27;}
	.st49{fill:#CA2033;}
	.st50{fill:#EFE0A7;}
	.st51{fill:none;stroke:#EFE0A7;stroke-width:0.09335;stroke-miterlimit:10;}
	.st52{fill:#EECA81;}
	.st53{fill:#F3F3F3;}
	.st54{fill:#A0A1A4;}
	.st55{fill:#EB6B6D;}
	.st56{fill:none;stroke:#CAC8C6;stroke-width:0.02289;stroke-miterlimit:10;}
	.st57{fill:#464951;}
	.st58{fill:#D7D6D6;}
	.st59{fill:#EECC82;}
	.st60{fill:#F0E0A9;}
	.st61{fill:none;stroke:#F0E0A9;stroke-width:0.01145;stroke-miterlimit:10;}
	.st62{fill:#5AC1C2;}
	.st63{clip-path:url(#SVGID_6_);fill:#E2E3E4;}
	.st64{fill:#EE7823;}
	.st65{fill:#D6563D;}
	.st66{fill:#70533D;}
	.st67{fill:#81BCA9;}
	.st68{clip-path:url(#SVGID_8_);fill:#E2E3E4;}
	.st69{fill:none;stroke:#EFE0A7;stroke-width:0.37825;stroke-miterlimit:10;}
	.st70{clip-path:url(#SVGID_10_);}
	.st71{clip-path:url(#SVGID_12_);fill:#E3E2E2;}
	.st72{clip-path:url(#SVGID_12_);}
	.st73{fill-rule:evenodd;clip-rule:evenodd;fill:#1AAEA1;}
	.st74{fill-rule:evenodd;clip-rule:evenodd;fill:#0C8C70;}
	.st75{fill:#1AAEA1;}
	.st76{fill:#6F513B;}
	.st77{fill:#515050;}
	.st78{fill:#D4563A;}
	.st79{fill:none;}
	.st80{clip-path:url(#SVGID_14_);}
	.st81{clip-path:url(#SVGID_16_);fill:#E3E2E2;}
	.st82{clip-path:url(#SVGID_16_);}
	.st83{fill:#EEE3A3;}
	.st84{fill:none;stroke:#F0E0A9;stroke-width:0.37825;stroke-miterlimit:10;}
	.st85{clip-path:url(#SVGID_18_);}
	.st86{fill-rule:evenodd;clip-rule:evenodd;fill:#434850;}
	.st87{clip-path:url(#SVGID_20_);}
	.st88{fill:none;stroke:#E4CC21;stroke-width:1.92135;stroke-miterlimit:10;}
	.st89{fill:none;stroke:#FFFFFF;stroke-width:2.2037;stroke-miterlimit:10;}
	.st90{fill:#E4CC21;}
	.st91{fill:#232244;}
	.st92{fill:#C8C6C6;}
	.st93{fill:#542F19;}
	.st94{fill-rule:evenodd;clip-rule:evenodd;fill:#3D2E21;}
	.st95{fill:#3D2E21;}
	.st96{fill-rule:evenodd;clip-rule:evenodd;fill:#232244;}
	.st97{fill-rule:evenodd;clip-rule:evenodd;fill:#2E3280;}
	.st98{fill:#281911;}
	.st99{fill-rule:evenodd;clip-rule:evenodd;fill:#E4CC21;}
	.st100{fill-rule:evenodd;clip-rule:evenodd;fill:#D85127;}
	.st101{clip-path:url(#SVGID_22_);}
	.st102{fill-rule:evenodd;clip-rule:evenodd;fill:#EE7434;}
	.st103{fill:#17733B;}
	.st104{clip-path:url(#SVGID_24_);}
	.st105{fill:#1D73B6;}
	.st106{fill:#115E8E;}
	.st107{clip-path:url(#SVGID_26_);}
	.st108{fill:none;stroke:#FFFFFF;stroke-width:1.49993;stroke-miterlimit:10;}
	.st109{fill:none;stroke:#CAC8C6;stroke-width:0.024;stroke-miterlimit:10;}
	.st110{clip-path:url(#SVGID_28_);fill:#E2E3E4;}
	.st111{fill:#603A17;}
	.st112{fill:#78471F;}
	.st113{fill:#F8FAFD;}
	.st114{clip-path:url(#SVGID_30_);}
	.st115{clip-path:url(#SVGID_32_);}
	.st116{fill:none;stroke:#FFFFFF;stroke-width:0.49998;stroke-miterlimit:10;}
	.st117{fill:none;stroke:#FFFFFF;stroke-width:0.74997;stroke-miterlimit:10;}
	.st118{clip-path:url(#SVGID_34_);}
	.st119{clip-path:url(#SVGID_36_);}
	.st120{clip-path:url(#SVGID_38_);fill:#E2E3E4;}
	.st121{clip-path:url(#SVGID_40_);}
	.st122{clip-path:url(#SVGID_42_);}
	.st123{clip-path:url(#SVGID_44_);}
	.st124{opacity:0.7;fill:#434850;}
	.st125{fill:#5B3287;}
	.st126{fill:#643E1E;}
	.st127{fill:#C8D6DE;}
	.st128{fill:none;stroke:#CAC7C6;stroke-width:0.75651;stroke-miterlimit:10;}
	.st129{fill:#B6C3CE;}
	.st130{fill:#273980;}
	.st131{fill:#2B2C35;}
	.st132{clip-path:url(#SVGID_46_);fill:#FFFFFF;stroke:#5A3B84;stroke-width:4.53905;stroke-miterlimit:10;}
	.st133{fill:#C8C7C9;}
	.st134{fill:#056F43;}
	.st135{clip-path:url(#SVGID_48_);}
	.st136{fill:#EBEDF1;}
	.st137{fill:#CF2B29;}
	.st138{fill-rule:evenodd;clip-rule:evenodd;fill:#273980;}
	.st139{fill:#D6232A;}
	.st140{clip-path:url(#SVGID_52_);fill:#FFFFFF;stroke:#5A3B84;stroke-width:4.53905;stroke-miterlimit:10;}
	.st141{clip-path:url(#SVGID_54_);}
	.st142{fill:#532D17;}
	.st143{fill:none;stroke:#5E1116;stroke-width:0.95369;stroke-miterlimit:10;}
	.st144{fill-rule:evenodd;clip-rule:evenodd;fill:#5E1116;}
	.st145{fill:none;stroke:#5E1116;stroke-width:0.94639;stroke-miterlimit:10;}
	.st146{fill:#291B13;}
	.st147{fill-rule:evenodd;clip-rule:evenodd;fill:#291B13;}
	.st148{fill-rule:evenodd;clip-rule:evenodd;fill:#454850;}
	.st149{fill-rule:evenodd;clip-rule:evenodd;fill:#74441F;}
	.st150{fill:#7F161B;}
	.st151{fill-rule:evenodd;clip-rule:evenodd;fill:#7F161B;}
	.st152{fill:none;stroke:#5E1116;stroke-width:1.04342;stroke-miterlimit:10;}
	.st153{fill:#E4E0E4;}
	.st154{clip-path:url(#SVGID_58_);fill:#E1244D;}
	.st155{clip-path:url(#SVGID_60_);fill:#E1244D;}
	.st156{fill:#292933;}
	.st157{fill:none;stroke:#CAC8C6;stroke-width:0.02378;stroke-miterlimit:10;}
	.st158{fill:none;stroke:#F0E0A9;stroke-width:0.01189;stroke-miterlimit:10;}
	.st159{clip-path:url(#SVGID_62_);fill:#E2E3E4;}
	.st160{fill:#2F465D;}
	.st161{fill:#432F21;}
	.st162{fill-rule:evenodd;clip-rule:evenodd;fill:#3D5F7C;}
	.st163{fill-rule:evenodd;clip-rule:evenodd;fill:#2F465D;}
	.st164{clip-path:url(#SVGID_64_);fill:#2C2C2D;}
	.st165{clip-path:url(#SVGID_66_);fill:#F8B917;}
	.st166{clip-path:url(#SVGID_66_);fill:#1F4394;}
	.st167{clip-path:url(#SVGID_68_);fill:#E8212F;}
	.st168{clip-path:url(#SVGID_68_);fill:#C9C8C8;}
	.st169{clip-path:url(#SVGID_68_);fill:#2A2E35;}
	.st170{clip-path:url(#SVGID_68_);fill:#444750;}
	.st171{clip-path:url(#SVGID_68_);fill:#D7D7D6;}
	.st172{clip-path:url(#SVGID_68_);fill:#E3E2E2;}
	.st173{clip-path:url(#SVGID_68_);fill:#FFFFFF;}
	.st174{clip-path:url(#SVGID_68_);fill:#2B2D34;}
	.st175{clip-path:url(#SVGID_68_);fill:#B9252D;}
	.st176{clip-path:url(#SVGID_68_);fill:#24345B;}
	.st177{clip-path:url(#SVGID_68_);fill:#F7F6F8;}
	.st178{clip-path:url(#SVGID_70_);fill:#1F4394;}
	.st179{clip-path:url(#SVGID_70_);fill:#F8B917;}
	.st180{clip-path:url(#SVGID_70_);fill:#883D1E;}
	.st181{clip-path:url(#SVGID_70_);fill:#F5D07C;}
	.st182{clip-path:url(#SVGID_72_);fill:#E8212F;}
	.st183{clip-path:url(#SVGID_72_);fill:#E3E2E2;}
	.st184{clip-path:url(#SVGID_72_);fill:#F7F6F8;}
	.st185{clip-path:url(#SVGID_72_);fill:#F8B917;}
	.st186{clip-path:url(#SVGID_72_);fill:#888983;}
	.st187{clip-path:url(#SVGID_74_);fill:#888983;}
	.st188{clip-path:url(#SVGID_74_);fill:#624219;}
	.st189{clip-path:url(#SVGID_76_);fill:#E3E2E2;}
	.st190{clip-path:url(#SVGID_76_);fill:#2C2C2D;}
	.st191{clip-path:url(#SVGID_76_);fill:#888983;}
	.st192{clip-path:url(#SVGID_78_);fill:#F8B917;}
	.st193{clip-path:url(#SVGID_78_);fill:#1F4394;}
	.st194{clip-path:url(#SVGID_80_);fill:#E8212F;}
	.st195{clip-path:url(#SVGID_80_);fill:#C9C8C8;}
	.st196{clip-path:url(#SVGID_80_);fill:#2A2E35;}
	.st197{clip-path:url(#SVGID_80_);fill:#444750;}
	.st198{clip-path:url(#SVGID_80_);fill:#D7D7D6;}
	.st199{clip-path:url(#SVGID_80_);fill:#E3E2E2;}
	.st200{clip-path:url(#SVGID_80_);fill:#FFFFFF;}
	.st201{clip-path:url(#SVGID_80_);fill:#2B2D34;}
	.st202{clip-path:url(#SVGID_80_);fill:#B9252D;}
	.st203{clip-path:url(#SVGID_80_);fill:#24345B;}
	.st204{clip-path:url(#SVGID_80_);fill:#F7F6F8;}
	.st205{clip-path:url(#SVGID_82_);fill:#1F4394;}
	.st206{clip-path:url(#SVGID_82_);fill:#F8B917;}
	.st207{clip-path:url(#SVGID_82_);fill:#883D1E;}
	.st208{clip-path:url(#SVGID_82_);fill:#F5D07C;}
	.st209{clip-path:url(#SVGID_84_);fill:#E8212F;}
	.st210{clip-path:url(#SVGID_84_);fill:#E3E2E2;}
	.st211{clip-path:url(#SVGID_84_);fill:#F7F6F8;}
	.st212{clip-path:url(#SVGID_84_);fill:#F8B917;}
	.st213{clip-path:url(#SVGID_84_);fill:#888983;}
	.st214{clip-path:url(#SVGID_86_);fill:#888983;}
	.st215{clip-path:url(#SVGID_86_);fill:#624219;}
	.st216{clip-path:url(#SVGID_88_);fill:#E3E2E2;}
	.st217{clip-path:url(#SVGID_88_);fill:#2C2C2D;}
	.st218{clip-path:url(#SVGID_90_);fill:#2C2C2D;}
	.st219{clip-path:url(#SVGID_92_);fill:#F8B917;}
	.st220{clip-path:url(#SVGID_92_);fill:#1F4394;}
	.st221{clip-path:url(#SVGID_94_);fill:#E8212F;}
	.st222{clip-path:url(#SVGID_94_);fill:#C9C8C8;}
	.st223{clip-path:url(#SVGID_94_);fill:#2A2E35;}
	.st224{clip-path:url(#SVGID_94_);fill:#444750;}
	.st225{clip-path:url(#SVGID_94_);fill:#D7D7D6;}
	.st226{clip-path:url(#SVGID_94_);fill:#E3E2E2;}
	.st227{clip-path:url(#SVGID_94_);fill:#FFFFFF;}
	.st228{clip-path:url(#SVGID_94_);fill:#2B2D34;}
	.st229{clip-path:url(#SVGID_94_);fill:#B9252D;}
	.st230{clip-path:url(#SVGID_94_);fill:#24345B;}
	.st231{clip-path:url(#SVGID_94_);fill:#F7F6F8;}
	.st232{clip-path:url(#SVGID_96_);fill:#1F4394;}
	.st233{clip-path:url(#SVGID_96_);fill:#F8B917;}
	.st234{clip-path:url(#SVGID_96_);fill:#883D1E;}
	.st235{clip-path:url(#SVGID_96_);fill:#F5D07C;}
	.st236{clip-path:url(#SVGID_98_);fill:#E8212F;}
	.st237{clip-path:url(#SVGID_98_);fill:#E3E2E2;}
	.st238{clip-path:url(#SVGID_98_);fill:#F7F6F8;}
	.st239{clip-path:url(#SVGID_98_);fill:#F8B917;}
	.st240{clip-path:url(#SVGID_98_);fill:#888983;}
	.st241{clip-path:url(#SVGID_100_);fill:#888983;}
	.st242{clip-path:url(#SVGID_100_);fill:#624219;}
	.st243{clip-path:url(#SVGID_102_);fill:#E3E2E2;}
	.st244{clip-path:url(#SVGID_102_);fill:#2C2C2D;}
	.st245{clip-path:url(#SVGID_102_);fill:#888983;}
	.st246{clip-path:url(#SVGID_104_);fill:#F8B917;}
	.st247{clip-path:url(#SVGID_104_);fill:#1F4394;}
	.st248{clip-path:url(#SVGID_106_);fill:#E8212F;}
	.st249{clip-path:url(#SVGID_106_);fill:#C9C8C8;}
	.st250{clip-path:url(#SVGID_106_);fill:#2A2E35;}
	.st251{clip-path:url(#SVGID_106_);fill:#444750;}
	.st252{clip-path:url(#SVGID_106_);fill:#D7D7D6;}
	.st253{clip-path:url(#SVGID_106_);fill:#E3E2E2;}
	.st254{clip-path:url(#SVGID_106_);fill:#FFFFFF;}
	.st255{clip-path:url(#SVGID_106_);fill:#2B2D34;}
	.st256{clip-path:url(#SVGID_106_);fill:#B9252D;}
	.st257{clip-path:url(#SVGID_106_);fill:#24345B;}
	.st258{clip-path:url(#SVGID_106_);fill:#F7F6F8;}
	.st259{clip-path:url(#SVGID_108_);fill:#1F4394;}
	.st260{clip-path:url(#SVGID_108_);fill:#F8B917;}
	.st261{clip-path:url(#SVGID_108_);fill:#883D1E;}
	.st262{clip-path:url(#SVGID_108_);fill:#F5D07C;}
	.st263{clip-path:url(#SVGID_110_);fill:#E8212F;}
	.st264{clip-path:url(#SVGID_110_);fill:#E3E2E2;}
	.st265{clip-path:url(#SVGID_110_);fill:#F7F6F8;}
	.st266{clip-path:url(#SVGID_110_);fill:#F8B917;}
	.st267{clip-path:url(#SVGID_110_);fill:#888983;}
	.st268{clip-path:url(#SVGID_112_);fill:#888983;}
	.st269{clip-path:url(#SVGID_112_);fill:#624219;}
	.st270{clip-path:url(#SVGID_114_);fill:#E3E2E2;}
	.st271{clip-path:url(#SVGID_114_);fill:#2C2C2D;}
	.st272{fill:#EDE2A3;}
	.st273{clip-path:url(#SVGID_116_);}
	.st274{fill-rule:evenodd;clip-rule:evenodd;fill:#434851;}
	.st275{fill-rule:evenodd;clip-rule:evenodd;fill:#E3E2E2;}
	.st276{fill:#2A2B2A;}
	.st277{clip-path:url(#SVGID_118_);}
	.st278{clip-path:url(#SVGID_120_);}
	.st279{clip-path:url(#SVGID_122_);}
	.st280{fill:#1F3566;}
	.st281{fill:#E3E4E5;}
	.st282{fill:#4BB1E4;}
	.st283{fill:#2D2A6C;}
	.st284{fill-rule:evenodd;clip-rule:evenodd;fill:#D8D9D5;}
	.st285{fill:#434852;}
	.st286{fill:#E3E3E3;}
	.st287{fill:#162E54;}
	.st288{fill:none;stroke:#335DAB;stroke-width:1.68786;stroke-miterlimit:10;}
	.st289{fill:#81817F;}
	.st290{fill:#142B49;}
	.st291{fill:#5A5A5A;}
	.st292{fill:none;stroke:#FFFFFF;stroke-width:0.84393;stroke-linecap:round;stroke-linejoin:round;stroke-miterlimit:10;}
	.st293{fill:#AB9D9C;}
	.st294{fill:#EA6689;}
	.st295{fill:#CE1D5B;}
	.st296{fill:#BF742A;}
	.st297{fill:#273449;}
	.st298{fill:#A4464B;}
	.st299{fill:none;stroke:#CAC8C6;stroke-width:0.0662;stroke-miterlimit:10;}
	.st300{fill:#80333A;}
	.st301{fill:none;stroke:#B4B4B4;stroke-width:0.25748;stroke-miterlimit:10;}
	.st302{fill:none;stroke:#B4B4B4;stroke-width:3.08973;stroke-miterlimit:10;}
	.st303{fill:none;stroke:#B4B4B4;stroke-width:1.02991;stroke-miterlimit:10;}
	.st304{fill:none;stroke:#82858B;stroke-width:0.51495;stroke-miterlimit:10;}
	.st305{fill:none;stroke:#E2E3E4;stroke-width:1.02991;stroke-miterlimit:10;}
	.st306{fill:#E5E5E5;}
	.st307{fill:#2D2C2D;}
	.st308{fill:#4CB2E5;}
	.st309{fill:#AD2824;}
	.st310{fill-rule:evenodd;clip-rule:evenodd;fill:#D9D9D6;}
	.st311{fill:#E4E4E3;}
	.st312{fill:#DB4826;}
	.st313{fill:#B33725;}
	.st314{fill:#120C0D;}
	.st315{fill:#F3F0F0;}
	.st316{fill:#C4BFBF;}
	.st317{clip-path:url(#SVGID_124_);fill:none;stroke:#F3F0F0;stroke-width:1.10165;stroke-linecap:round;stroke-miterlimit:10;}
	.st318{clip-path:url(#SVGID_126_);fill:none;stroke:#F3F0F0;stroke-width:1.10165;stroke-linecap:round;stroke-miterlimit:10;}
	.st319{clip-path:url(#SVGID_128_);fill:none;stroke:#F3F0F0;stroke-width:1.10165;stroke-linecap:round;stroke-miterlimit:10;}
	.st320{fill:#DE5B2A;}
	.st321{fill:#7A2716;}
	.st322{fill:#E5E4E4;}
	.st323{fill:#BB4928;}
	.st324{fill:#454545;}
	.st325{fill:#6265AE;}
	.st326{fill:none;stroke:#CAC5C4;stroke-width:0.55083;stroke-linecap:round;stroke-miterlimit:10;}
	.st327{fill:#E1E3E3;}
	.st328{fill:#484848;}
	.st329{fill:#422F90;}
	.st330{fill:#D57A28;}
	.st331{fill:#B4B4B5;}
	.st332{fill:#4B4B4D;}
	.st333{fill:#949393;}
	.st334{fill:#040404;}
	.st335{clip-path:url(#SVGID_130_);fill:none;stroke:#F3F0F0;stroke-width:1.10165;stroke-linecap:round;stroke-miterlimit:10;}
	.st336{clip-path:url(#SVGID_132_);fill:none;stroke:#F3F0F0;stroke-width:1.10165;stroke-linecap:round;stroke-miterlimit:10;}
	.st337{clip-path:url(#SVGID_134_);fill:none;stroke:#F3F0F0;stroke-width:1.10165;stroke-linecap:round;stroke-miterlimit:10;}
	.st338{clip-path:url(#SVGID_140_);fill:#AD2824;}
	.st339{fill:#CDCCCC;}
	.st340{fill:#E4E5E6;}
	.st341{opacity:0.72;fill:none;stroke:#FFFFFF;stroke-width:1.1546;stroke-linecap:round;stroke-miterlimit:10;}
	.st342{fill:#BBD867;}
	.st343{fill:none;stroke:#BBD867;stroke-width:5.799;stroke-miterlimit:10;}
	.st344{clip-path:url(#SVGID_146_);fill:#AD2824;}
	.st345{fill:none;stroke:#AE4E85;stroke-width:1.54066;stroke-linecap:round;stroke-linejoin:round;stroke-miterlimit:10;}
	.st346{fill:none;stroke:#E97625;stroke-width:1.62274;stroke-linecap:round;stroke-linejoin:round;stroke-miterlimit:10;}
	.st347{fill:none;stroke:#C9C7C7;stroke-width:0.23348;stroke-miterlimit:10;}
	.st348{fill:#981E5C;}
	.st349{fill:none;stroke:#AE4E85;stroke-width:1.21706;stroke-linecap:round;stroke-linejoin:round;stroke-miterlimit:10;}
	.st350{fill:#AE4E85;}
	.st351{fill:#F7B456;}
	.st352{fill:#E97625;}
	.st353{fill:none;stroke:#E97625;stroke-width:1.54273;stroke-linecap:round;stroke-linejoin:round;stroke-miterlimit:10;}
</style>
<g>
	<g>
		<path class="st0" d="M138.24185,173.73792c0,0,3.55527-2.08485,5.07776-7.12907c0,0-2.97545,6.29401-9.04779,7.98909
			c0,0,4.62396-2.86385,4.82607-7.20006c0,0-2.58011,6.88638-9.1438,7.31766c0,0,4.8416-1.74359,5.80067-6.76881
			c0,0-3.65181,5.47549-8.2172,6.41158c0,0,17.6587-26.52235-17.30852-44.03503l-2.35251-18.67909l9.09483-16.10327
			c0,0,43.64777,9.00948,35.85629,57.89507C150.17847,170.02452,138.24185,173.73792,138.24185,173.73792z"/>
		<path class="st38" d="M130.33131,149.70615c-2.52908-6.57573-8.3383-13.49063-20.10227-19.38289l-2.35251-18.67909
			l9.09483-16.10327c0,0,37.79601,7.80247,36.76936,48.27045c0,0-6.96796-3.97102-14.05997-1.50192
			C132.60327,144.77747,130.33131,149.70615,130.33131,149.70615z"/>
	</g>
	<g>
		<path class="st0" d="M61.75323,173.73792c0,0-3.5488-2.08485-5.07528-7.12907c0,0,2.97694,6.29401,9.05275,7.98909
			c0,0-4.62691-2.86385-4.83403-7.20006c0,0,2.58265,6.88638,9.14378,7.31766c0,0-4.83658-1.74359-5.79967-6.76881
			c0,0,3.65333,5.47549,8.22322,6.41158c0,0-17.66523-26.52235,17.30453-44.03503l2.35398-18.67909L83.0237,95.54089
			c0,0-43.64524,9.00948-35.85276,57.89507C49.82013,170.02452,61.75323,173.73792,61.75323,173.73792z"/>
		<path class="st38" d="M69.66773,149.70615c2.52859-6.57573,8.33329-13.49063,20.1008-19.38289l2.35398-18.67909L83.0237,95.54089
			c0,0-37.79298,7.80247-36.76434,48.27045c0,0,6.97343-3.97102,14.05444-1.50192
			C67.40079,144.77747,69.66773,149.70615,69.66773,149.70615z"/>
	</g>
	<path class="st1" d="M117.49117,179.76721l-0.10205,0.01204c11.22762-5.85774,18.85799-17.29254,18.85799-30.42938
		c0-19.10612-16.12977-34.60477-36.02447-34.60477c-19.89464,0-36.02238,15.49864-36.02238,34.60477
		c0,13.13684,7.62335,24.57164,18.85252,30.42938l-0.09606-0.00754c5.46046,3.13548,9.41294,8.42839,10.58869,14.66237
		c0.2362-0.13161,1.3484-0.65141,2.83684,0.02397v-10.69777c1.25778,0.12357,2.5396,0.19212,3.84039,0.19212
		c1.29486,0,2.57466-0.06856,3.83897-0.19212v10.69777c1.50096-0.68591,2.62518-0.13658,2.8453-0.01799
		C108.08067,188.2001,112.03618,182.9072,117.49117,179.76721z"/>
	<path class="st3" d="M100.22263,140.80396c-13.15882,0-23.86715-10.70885-23.86715-23.87169
		c0-13.16014,10.70833-23.86894,23.86715-23.86894c13.15792,0,23.86724,10.7088,23.86724,23.86894
		C124.08987,130.09511,113.38055,140.80396,100.22263,140.80396z M100.22263,93.4248
		c-12.96174,0-23.51242,10.54347-23.51242,23.50746c0,12.96326,10.55068,23.51146,23.51242,23.51146
		c12.96078,0,23.50701-10.5482,23.50701-23.51146C123.72964,103.96828,113.18341,93.4248,100.22263,93.4248z"/>
	<path class="st39" d="M83.65814,77.9552c-0.28471,2.21041-1.62152,0.27245-2.33699,2.60319
		c-1.98177,6.48433-4.96567,17.56164-11.81902,24.15308c0,0,6.29102,24.55213,30.65749,24.55213
		c24.36249,0,30.66201-24.55213,30.66201-24.55213c-6.57521-6.316-9.60961-17.66495-11.69994-24.03004
		c-0.87856-2.66619-2.28944-0.68293-2.60666-3.13297"/>
	<path class="st27" d="M100.15963,90.07792c-23.91122,0-43.28804,21.65252-43.28804,48.36001
		c0,16.472,7.3792,31.01474,18.63937,39.74579c22.72894-8.72005,24.64867-33.30717,24.64867-33.30717
		c3.4182,22.8465,17.38159,30.87715,24.39751,33.50882c11.41376-8.71405,18.89453-23.35036,18.89453-39.94743
		C143.45168,111.73044,124.06384,90.07792,100.15963,90.07792z"/>
	<path class="st39" d="M100.15963,90.07792c-23.91122,0-43.28804,21.65252-43.28804,48.36001
		c0,16.472,7.3792,31.01474,18.63937,39.74579c22.95058,8.09715,24.64867-9.85925,24.64867-9.85925
		c3.33913,17.7798,20.21988,11.95708,24.39751,10.0609c11.41376-8.71405,18.89453-23.35036,18.89453-39.94743
		C143.45168,111.73044,124.06384,90.07792,100.15963,90.07792z"/>
	<polygon class="st38" points="119.1217,80.68143 116.99934,92.10548 120.37951,94.01942 100.36173,125.62431 100.36173,113.20889 	
		"/>
	<g>
		<path class="st6" d="M102.60369,87.19482c0,1.1425-0.91908,2.07108-2.06181,2.07108c-1.15422,0-2.08035-0.92858-2.08035-2.07108
			c0-1.14897,0.92613-2.08183,2.08035-2.08183C101.68461,85.11299,102.60369,86.04585,102.60369,87.19482z"/>
		<path class="st7" d="M101.02219,87.19482c0,0.26572-0.21665,0.48057-0.4803,0.48057c-0.27872,0-0.4928-0.21485-0.4928-0.48057
			c0-0.27692,0.21407-0.49183,0.4928-0.49183C100.80553,86.703,101.02219,86.91791,101.02219,87.19482z"/>
	</g>
	<polygon class="st38" points="81.32115,80.55839 83.76321,92.43116 80.37854,94.33813 100.43584,125.61729 100.43584,113.19988 	
		"/>
	<g>
		<path class="st6" d="M102.60369,99.00859c0,1.14701-0.91908,2.07156-2.06181,2.07156c-1.15422,0-2.08035-0.92455-2.08035-2.07156
			c0-1.15321,0.92613-2.07755,2.08035-2.07755C101.68461,96.93105,102.60369,97.85538,102.60369,99.00859z"/>
		<path class="st7" d="M101.02219,99.00859c0,0.26991-0.21665,0.48208-0.4803,0.48208c-0.27872,0-0.4928-0.21217-0.4928-0.48208
			c0-0.27669,0.21407-0.49254,0.4928-0.49254C100.80553,98.51605,101.02219,98.7319,101.02219,99.00859z"/>
	</g>
	<path class="st0" d="M119.57847,49.43382c0.2757-5.47595-0.10353-11.40499-2.25541-15.48383
		c-1.10674-3.17904-4.7325-5.14604-8.40285-6.34529c1.64006-0.04352,3.03195-0.03029,3.03195-0.03029
		c-3.91701-2.63766-7.3567-2.45552-9.90333-1.52546c-0.78851-0.10984-1.42991-0.17912-1.82967-0.21788
		c1.82265-1.05069,3.86296-1.77111,3.86296-1.77111c-6.07784-1.48744-11.26715,1.82613-13.52758,3.62281
		c-3.58427,1.21-7.07249,3.16249-8.15421,6.26723c-2.14937,4.07884-2.5331,10.00788-2.26043,15.48383
		c-0.2502,5.149-0.03699,9.05252,1.08616,12.89143c3.05648,7.21084,1.60954,12.63406,0.09509,18.23314l18.90148,33.30015v0.12085
		l18.89906-33.29796c-1.29982-5.11745-4.14815-11.49555-0.71644-18.42221C119.60001,58.48257,119.79812,53.81436,119.57847,49.43382
		z"/>
	<path class="st8" d="M91.16589,45.95536c0.06207,1.71732-1.75808,3.16899-4.06155,3.25533
		c-2.29398,0.07127-4.21169-1.25607-4.26671-2.98067c-0.05708-1.71558,1.7621-3.17253,4.05759-3.24732
		C89.19667,42.90319,91.11139,44.23501,91.16589,45.95536z"/>
	<path class="st9" d="M88.89896,45.738c0.14458,1.05539-0.58583,2.03274-1.64251,2.18485
		c-1.05873,0.14857-2.04182-0.60386-2.17944-1.64927c-0.14606-1.0597,0.58738-2.02605,1.64605-2.17764
		C87.77876,43.95632,88.75734,44.69027,88.89896,45.738z"/>
	<g>
		<path class="st8" d="M116.64561,45.95536c0.05605,1.71732-1.75859,3.16899-4.05505,3.25533
			c-2.30547,0.07127-4.2162-1.25607-4.26775-2.98067c-0.06152-1.71558,1.7556-3.17253,4.04958-3.24732
			C114.67484,42.90319,116.59458,44.23501,116.64561,45.95536z"/>
		<path class="st9" d="M114.37365,45.738c0.1476,1.05539-0.57785,2.03274-1.64,2.18485
			c-1.05571,0.14857-2.03831-0.60386-2.17339-1.64927c-0.14612-1.0597,0.58435-2.02605,1.64103-2.17764
			C113.25945,43.95632,114.24311,44.69027,114.37365,45.738z"/>
	</g>
	<path class="st10" d="M99.84341,50.26086c-2.06229,3.47945-6.35752,4.41827-6.35752,4.41827
		c3.37463,2.11734,6.74779,8.56369,6.74779,8.56369s3.21555-6.44635,6.59269-8.56369
		C106.82636,54.67913,101.90425,53.74031,99.84341,50.26086z"/>
	<polygon class="st17" points="81.64935,79.56175 99.65682,96.3164 94.32594,103.40842 80.93839,82.01154 	"/>
	<polygon class="st17" points="118.60839,78.81702 100.53686,96.3164 105.85925,103.40842 119.1217,80.68143 	"/>
	<polygon class="st40" points="95.97198,101.22377 100.15963,104.69624 104.11263,101.08015 100.53686,96.3164 99.65682,96.3164 	
		"/>
	<polygon class="st40" points="99.07196,102.29171 97.1112,109.05927 100.04909,115.26317 103.01247,109.05927 100.54189,102.29171 
			"/>
	<rect x="117.84686" y="131.45999" class="st41" width="12.11776" height="11.22961"/>
	<rect x="122.62491" y="132.25949" class="st42" width="2.63567" height="10.43012"/>
	<g>
		<rect x="73.0284" y="131.45999" class="st41" width="12.11766" height="11.22961"/>
		<rect x="77.8049" y="132.25949" class="st42" width="2.62469" height="10.43012"/>
		<path class="st38" d="M85.14606,133.99812c0,0-0.8125-1.29132-3.0239-1.29132c-2.25043,0-3.03244,1.29132-3.03244,1.29132
			s-1.05068-1.29132-3.10149-1.29132c-2.27492,0-2.95984,1.29132-2.95984,1.29132v-5.07573h12.11767V133.99812z"/>
		<path class="st43" d="M79.64958,132.25949c0,0.31367-0.25217,0.56587-0.55986,0.56587c-0.31667,0-0.56535-0.2522-0.56535-0.56587
			c0-0.31068,0.24868-0.56381,0.56535-0.56381C79.39742,131.69568,79.64958,131.94881,79.64958,132.25949z"/>
	</g>
	<g>
		<circle class="st0" cx="100.46458" cy="131.46114" r="0.74409"/>
		<circle class="st0" cx="100.46458" cy="120.35467" r="0.74473"/>
		<circle class="st0" cx="100.46246" cy="141.64835" r="0.74573"/>
		<circle class="st0" cx="100.46458" cy="151.83859" r="0.7436"/>
	</g>
	<path class="st38" d="M59.43173,155.42375c0,0,8.44138,4.78004,41.00411,4.78004c31.51699,0,40.9045-5.51602,40.9045-5.51602
		l-2.84233,6.21646c0,0-14.02338,4.81807-38.13628,4.81807c-29.97904,0-38.42243-4.5764-38.42243-4.5764L59.43173,155.42375z"/>
	<path class="st0" d="M101.35593,166.25615H99.131c-0.77953,0-1.4104-0.63693-1.4104-1.41243v-3.7654
		c0-0.77647,0.63087-1.41438,1.4104-1.41438h2.22493c0.77596,0,1.41436,0.63791,1.41436,1.41438v3.7654
		C102.77029,165.61922,102.13188,166.25615,101.35593,166.25615z M99.131,160.38339c-0.38128,0-0.69544,0.31268-0.69544,0.69493
		v3.7654c0,0.38225,0.31416,0.69296,0.69544,0.69296h2.22493c0.38173,0,0.69593-0.31071,0.69593-0.69296v-3.7654
		c0-0.38225-0.3142-0.69493-0.69593-0.69493H99.131z"/>
	<path class="st0" d="M114.18256,141.18318c-0.63789,0-1.31785-0.07054-2.02927-0.20662
		c-10.9185-2.13289-11.96964-19.02963-11.97563-19.2007l0.71695-0.03957c0.0085,0.16914,1.02616,16.50854,11.39727,18.53279
		c8.62849,1.68811,11.24262-8.55243,11.26763-8.66052l0.70044,0.17467C124.23297,131.88374,121.85992,141.18318,114.18256,141.18318
		z"/>
	<path class="st38" d="M129.96461,133.99812c0,0-0.8065-1.29132-3.02197-1.29132c-2.2464,0-3.03343,1.29132-3.03343,1.29132
		s-1.05364-1.29132-3.10644-1.29132c-2.26446,0-2.95592,1.29132-2.95592,1.29132v-5.07573h12.11776V133.99812z"/>
	<circle class="st43" cx="123.90973" cy="132.26001" r="0.56462"/>
	<path class="st38" d="M119.37186,36.91835c0,0,0.15159-5.6821-3.22054-19.03581
		c-4.36081-17.23773-22.40176-18.58387-30.13219-7.8383c-5.98834,8.33709-6.18896,24.33928-6.18896,24.33928
		s10.05193-4.60946,19.7706-2.83906C109.30793,33.31081,119.37186,36.91835,119.37186,36.91835z"/>
	<path class="st44" d="M80.08884,44.8409c0,0-12.02611-9.33594,0.94066-14.50522c15.29721-6.10817,33.88398-2.33547,39.62967,1.9745
		c8.58946,6.44235-0.94262,13.37654-0.94262,13.37654s0.3102-4.76833-2.06876-7.36095
		c-1.89473-2.06509-4.37179-3.2073-10.11799-1.33514c-5.77713,1.87419-13.12383,1.11176-17.14887-0.83001
		c-4.02608-1.94923-7.61936-0.82428-8.9197,2.0723C79.77915,41.99882,80.08884,44.8409,80.08884,44.8409z"/>
	<polygon class="st45" points="103.96503,22.34205 100.25969,20.50169 98.80827,24.37112 97.48492,20.45562 93.73254,22.16122 
		95.56572,18.46212 91.69874,17.00495 95.61375,15.69135 93.90464,11.93143 97.60999,13.76909 99.06294,9.90095 100.38227,13.81815 
		104.14167,12.11107 102.30251,15.81094 106.16949,17.26087 102.25296,18.57943 	"/>
	<path class="st9" d="M126.72854,41.00344c0,0,0.03048-0.62611-1.17978-0.80477c-1.21973-0.1721-2.15588-1.01286-13.51757-0.73318
		c-8.07015,0.6752-10.39812,1.576-10.39812,1.576s-0.44982,0.13105-1.05014,0.18208
		c-0.32774,0.05981-0.66695,0.09259-1.01266,0.09259c-0.37723,0-0.74148-0.03277-1.09418-0.1043
		c-0.52335-0.0603-0.90811-0.17036-0.90811-0.17036s-2.32897-0.9008-10.39361-1.576
		c-11.36971-0.27969-12.3123,0.56108-13.51909,0.73318c-1.21828,0.17867-1.18328,0.80477-1.18328,0.80477l0.00553,0.77879
		c-0.10056,2.30344,0.50082,2.34121,0.50082,2.34121c0.07603,0.17989,0.31619,0.50706,0.31619,0.50706
		c0.6129,0.2512,1.43641,2.81533,1.43641,2.81533c1.07371,3.14324,2.72825,3.52848,2.72825,3.52848
		c4.46083,1.62029,11.82851,0.76472,11.82851,0.76472s4.14011-0.12107,5.43246-1.81364
		c0.97465-1.2055,2.42854-5.0192,2.42854-5.0192s0.26021-0.57013,0.83902-0.94832c0.67494-0.32324,1.61305-0.32524,1.61305-0.32524
		s0.94111,0.002,1.60902,0.32524c0.57888,0.37819,0.93612,1.03688,0.93612,1.03688s1.36333,3.72515,2.33544,4.93064
		c1.28286,1.69257,5.43397,1.81364,5.43397,1.81364s7.3727,0.85557,11.83002-0.76472c0,0,1.64753-0.38524,2.72075-3.52848
		c0,0,0.82151-2.56413,1.4369-2.81533c0,0,0.23616-0.32717,0.31922-0.50706c0,0,0.59285-0.03776,0.49782-2.34121L126.72854,41.00344
		z M95.67427,45.4275c-1.10719,4.03632-2.73823,4.46264-2.73823,4.46264c-6.28699,1.98449-12.96426,0.64536-12.96426,0.64536
		c-2.95739-0.21788-3.53775-2.22866-3.53775-2.22866c-1.02963-2.16785-1.2863-5.99302-1.2863-5.99302
		c0-1.79667,4.27772-1.78013,4.27772-1.78013c10.26302-0.61342,15.18712,1.0439,15.18712,1.0439
		C96.76848,42.35006,95.67427,45.4275,95.67427,45.4275z M122.82353,48.30683c0,0-0.58184,2.01078-3.54174,2.22866
		c0,0-6.68022,1.33913-12.96922-0.64536c0,0-1.63104-0.42632-2.74229-4.46264c0,0-1.0842-3.07744,1.0702-3.84992
		c0,0,4.92159-1.65731,15.18512-1.0439c0,0,4.27979-0.01654,4.27979,1.78013
		C124.10539,42.31382,123.8502,46.13898,122.82353,48.30683z"/>
	<g>
		<path class="st22" d="M102.88247,195.98997l0.16254-0.09642l-0.16254-0.1393v-2.83963c0-0.35721,0.29288-0.65009,0.65189-0.65009
			c0,0,0.89294,0.76082,2.47705,0.76082c1.58414,0,2.31457-0.76082,2.73962-0.76082c0.08038,0-0.0107-0.3679,0.38223,0
			c2.43422,2.2753,7.86524,2.73607,7.86524,2.73607c0.30363,0,0.50365,0.48221,0.22325,0.81079
			c-0.04288,0.04645-0.14466,0.12143-0.14466,0.17857l0.16071,0.17146c0,0.36076-0.2911,0.65366-0.64826,0.65366h-13.05518
			c-0.359,0-0.65189-0.29289-0.65189-0.65366V195.98997z"/>
		<path class="st22" d="M97.56396,196.16144c0,0.36076-0.29288,0.65366-0.65009,0.65366H83.8569
			c-0.35538,0-0.64831-0.29289-0.64831-0.65366l0.16253-0.17146c0-0.05714-0.10538-0.13213-0.14465-0.17679
			c-0.2822-0.33037-0.08038-0.81258,0.22146-0.81258c0,0,5.43459-0.46077,7.86703-2.73607c0.3947-0.3679,0.30184,0,0.38217,0
			c0.42684,0,1.15553,0.76082,2.73785,0.76082c1.58593,0,2.47889-0.76082,2.47889-0.76082
			c0.35721,0,0.65009,0.29288,0.65009,0.65187v2.83784l-0.16254,0.14108l0.16254,0.09464V196.16144z"/>
	</g>
</g>
</svg>
