<?xml version="1.0" encoding="utf-8"?>
<!-- Generator: Adobe Illustrator 19.1.0, SVG Export Plug-In . SVG Version: 6.00 Build 0)  -->
<svg version="1.1" id="P_Johns" xmlns="http://www.w3.org/2000/svg" xmlns:xlink="http://www.w3.org/1999/xlink" x="0px" y="0px"
	 viewBox="0 0 170 170" style="enable-background:new 0 0 170 170;" xml:space="preserve">
<style type="text/css">
	.st0{fill:#E1E2E3;}
	.st1{fill:#44C2CE;}
	.st2{fill:#3B79A3;}
	.st3{fill:#424750;}
	.st4{fill:none;stroke:#504F4F;stroke-width:2;stroke-miterlimit:10;}
	.st5{fill:#504F4F;}
	.st6{fill:#F16D6D;}
	.st7{fill:#87C6C0;}
	.st8{fill:#89DBD8;}
	.st9{fill:none;stroke:#C7C6C6;stroke-width:0.7565;stroke-miterlimit:10;}
	.st10{fill-rule:evenodd;clip-rule:evenodd;fill:#444751;}
	.st11{fill-rule:evenodd;clip-rule:evenodd;fill:#D6D6D5;}
	.st12{fill:#FFFFFF;}
	.st13{fill:#2B2A34;}
	.st14{fill:#2B2C2D;}
	.st15{fill:none;stroke:#504F4F;stroke-miterlimit:10;}
	.st16{fill-rule:evenodd;clip-rule:evenodd;fill:#89DBD8;}
	.st17{fill-rule:evenodd;clip-rule:evenodd;fill:#87C6C0;}
	.st18{fill:#59473A;}
	.st19{fill:none;stroke:#F2C24E;stroke-miterlimit:10;}
	.st20{fill:none;stroke:#F2C24E;stroke-linecap:round;stroke-miterlimit:10;}
	.st21{fill:#E9676D;}
	.st22{fill:#F6ECC3;}
	.st23{fill:#A6A8AB;}
	.st24{fill:none;stroke:#FFFFFF;stroke-width:5.289;stroke-miterlimit:10;}
	.st25{fill:#E6E6E6;}
	.st26{opacity:0.2;fill:none;stroke:#FFFFFF;stroke-width:3;stroke-miterlimit:10;}
	.st27{fill:none;stroke:#E9676D;stroke-linecap:round;stroke-miterlimit:10;}
	.st28{fill:#FCB856;}
	.st29{fill:none;stroke:#FCB856;stroke-linecap:round;stroke-miterlimit:10;}
	.st30{fill:none;stroke:#CBCACA;stroke-width:3.4513;stroke-miterlimit:10;}
	.st31{fill-rule:evenodd;clip-rule:evenodd;fill:#DADAD9;}
	.st32{fill:#469595;}
	.st33{fill:#2A2D35;}
	.st34{fill:#387D7B;}
	.st35{fill:#BFF7F5;}
	.st36{opacity:0.4;fill:#FFFFFF;}
	.st37{fill:#D3D3D3;}
	.st38{fill:none;stroke:#FFFFFF;stroke-width:5.0355;stroke-miterlimit:10;}
	.st39{fill:#777777;}
	.st40{fill:#70533D;}
	.st41{fill:#EA6A6D;}
	.st42{fill:#C7C6C6;}
	.st43{fill:#9FA0A3;}
	.st44{fill:#3C5777;}
	.st45{fill:#F2C24E;}
	.st46{fill:none;stroke:#E1E2E3;stroke-miterlimit:10;}
	.st47{fill:#314759;}
	.st48{fill:none;stroke:#314759;stroke-miterlimit:10;}
	.st49{fill:none;stroke:#3C5777;stroke-miterlimit:10;}
	.st50{fill:#80BBA8;}
	.st51{fill:#E94C64;}
	.st52{fill:#59C0C1;}
	.st53{fill:#8E8E8E;}
	.st54{fill:#80C0AC;}
	.st55{fill:none;stroke:#504F4F;stroke-linecap:round;stroke-miterlimit:10;}
	.st56{fill:#F9D88F;}
	.st57{fill:#BABABA;}
	.st58{clip-path:url(#XMLID_3_);fill:#F9D88F;}
	.st59{fill-rule:evenodd;clip-rule:evenodd;fill:#F2BC86;}
	.st60{fill:#F2F2F2;}
	.st61{fill:#57C4C6;}
	.st62{fill:#B4E219;}
	.st63{fill:#74777C;}
	.st64{fill:#E03E3E;}
	.st65{fill:#595C62;}
	.st66{fill:none;stroke:#C7C6C6;stroke-width:0.8879;stroke-miterlimit:10;}
	.st67{fill-rule:evenodd;clip-rule:evenodd;fill:#F9F0EB;}
	.st68{fill-rule:evenodd;clip-rule:evenodd;fill:#595C62;}
	.st69{fill:#EC7045;}
	.st70{opacity:0.7;}
	.st71{fill:#90CED2;}
	.st72{fill:#882888;}
	.st73{fill:#C1C0C0;}
	.st74{fill:#768035;}
	.st75{fill:#E3B27C;}
	.st76{fill:#775644;}
	.st77{fill:#DBC7C2;}
	.st78{fill:#D95027;}
	.st79{fill:#57BFC2;}
	.st80{clip-path:url(#SVGID_2_);}
	.st81{fill-rule:evenodd;clip-rule:evenodd;fill:#424750;}
	.st82{fill-rule:evenodd;clip-rule:evenodd;fill:#E1E2E3;}
	.st83{fill:none;stroke:#E6E6E6;stroke-miterlimit:10;}
	.st84{fill:#6BA588;}
	.st85{fill:#F9F0EB;}
	.st86{fill:none;stroke:#6BA588;stroke-miterlimit:10;}
	.st87{fill:#281A12;}
	.st88{fill:#2E465D;}
	.st89{fill:#422E21;}
	.st90{fill-rule:evenodd;clip-rule:evenodd;fill:#3C5F7C;}
	.st91{fill-rule:evenodd;clip-rule:evenodd;fill:#2E465D;}
	.st92{fill:#EDE2A2;}
	.st93{fill:#EFDFA8;}
	.st94{fill:#9AC68F;}
	.st95{clip-path:url(#XMLID_5_);fill:#B4D6AA;}
	.st96{fill:#96D696;}
	.st97{clip-path:url(#XMLID_6_);fill:#A7DBA7;}
	.st98{clip-path:url(#XMLID_7_);fill:#B4D6AA;}
	.st99{fill:#4D4D4F;}
	.st100{fill:#69502E;}
	.st101{fill:#3F3F3F;}
	.st102{fill:#4C381B;}
	.st103{fill:#919090;}
	.st104{fill:#74DDE2;}
	.st105{clip-path:url(#XMLID_10_);fill:#F9D88F;}
	.st106{fill-rule:evenodd;clip-rule:evenodd;fill:#504F4F;}
	.st107{fill-rule:evenodd;clip-rule:evenodd;fill:#FFFFFF;}
	.st108{fill-rule:evenodd;clip-rule:evenodd;fill:none;stroke:#4D4D4D;stroke-miterlimit:10;}
	.st109{fill:#4D4D4D;}
	.st110{fill:#42474F;}
	.st111{fill:#E6E7E8;}
	.st112{fill:#3A3A3A;}
	.st113{fill-rule:evenodd;clip-rule:evenodd;fill:#43474F;}
	.st114{fill-rule:evenodd;clip-rule:evenodd;fill:#DBDBDA;}
	.st115{fill:#F3E7A8;}
	.st116{fill:#F4E4AD;}
	.st117{fill:none;stroke:#F4E4AD;stroke-width:0.454;stroke-miterlimit:10;}
	.st118{fill:#57C4C7;}
	.st119{clip-path:url(#SVGID_4_);fill:#E6E7E8;}
	.st120{fill-rule:evenodd;clip-rule:evenodd;fill:#42474F;}
	.st121{fill-rule:evenodd;clip-rule:evenodd;fill:#E6E7E8;}
	.st122{fill:#E5D9BE;}
	.st123{fill:#F7F1E2;}
	.st124{fill:#B5967D;}
	.st125{clip-path:url(#XMLID_11_);fill:#96D696;}
	.st126{fill-rule:evenodd;clip-rule:evenodd;fill:#92BA85;}
	.st127{fill-rule:evenodd;clip-rule:evenodd;fill:#EFEFE4;}
	.st128{fill-rule:evenodd;clip-rule:evenodd;fill:#E0E0C7;}
	.st129{fill:#999999;}
	.st130{fill:#F9C543;}
	.st131{fill:#355B77;}
	.st132{fill:#C49B49;}
	.st133{fill:#444751;}
	.st134{fill:#D6D6D5;}
	.st135{fill:none;}
	.st136{fill:#5DC667;}
	.st137{fill:#EDE9C3;}
	.st138{fill:none;stroke:#FCD98D;stroke-linecap:round;stroke-miterlimit:10;}
	.st139{fill:none;stroke:#CBCACA;stroke-width:0.5;stroke-miterlimit:10;}
	.st140{fill:none;stroke:#80C0AC;stroke-width:0.5;stroke-miterlimit:10;}
	.st141{fill:#E85273;}
	.st142{fill:#FCD224;}
	.st143{fill:#59B5CE;}
	.st144{fill:#52ACC1;}
	.st145{fill:#FAFAFA;}
	.st146{fill:#E7E6E6;}
	.st147{fill:#71D3F4;}
	.st148{fill:#A3E8E3;}
	.st149{fill:#4AAFAF;}
	.st150{fill:#F2BC86;}
	.st151{fill:#585D62;}
	.st152{fill-rule:evenodd;clip-rule:evenodd;fill:#DBDBD9;}
	.st153{fill-rule:evenodd;clip-rule:evenodd;fill:#E7E6E6;}
	.st154{fill:#2A2A34;}
	.st155{fill:none;stroke:#3B79A3;stroke-miterlimit:10;}
	.st156{fill:#EDEFED;}
	.st157{fill:none;stroke:#CCCCCC;stroke-miterlimit:10;stroke-dasharray:1,1;}
	.st158{fill:#2D567F;}
	.st159{fill:#EF89B0;}
	.st160{fill:#3F6B9E;}
	.st161{fill:#D21C5A;}
	.st162{fill:#EDC169;}
	.st163{fill:#DDAC57;}
	.st164{fill:#92BA85;}
	.st165{fill:#29507F;}
	.st166{fill:none;stroke:#EFDFA8;stroke-width:0.3783;stroke-miterlimit:10;}
	.st167{clip-path:url(#SVGID_6_);}
	.st168{fill:#AEAEAF;}
	.st169{fill:#895C4E;}
	.st170{fill-rule:evenodd;clip-rule:evenodd;fill:#F7E9DF;}
	.st171{clip-path:url(#SVGID_8_);}
	.st172{clip-path:url(#SVGID_10_);fill:#F15C60;}
	.st173{fill-rule:evenodd;clip-rule:evenodd;fill:#F4F4F4;}
	.st174{clip-path:url(#SVGID_12_);}
	.st175{clip-path:url(#SVGID_14_);fill:#F15C60;}
</style>
<g>
	<g>
		<ellipse class="st4" cx="70.2" cy="32" rx="24.5" ry="22"/>
		<path class="st5" d="M46,47.1L46,47.1c-0.5,0-1-0.4-1-1V33.2c0-0.5,0.4-1,1-1l0,0c0.5,0,1,0.4,1,1v12.9C47,46.6,46.5,47.1,46,47.1
			z"/>
		<g>
			<rect x="49.3" y="33.7" class="st6" width="1.5" height="17.2"/>
			<ellipse class="st6" cx="49.3" cy="42.3" rx="3.2" ry="8.6"/>
		</g>
		<path class="st5" d="M54,51.7h-2.4c-0.5,0-0.9-0.4-0.9-0.9v-17c0-0.5,0.4-0.9,0.9-0.9H54c0.5,0,0.9,0.4,0.9,0.9v17
			C54.9,51.3,54.5,51.7,54,51.7z"/>
		<path class="st5" d="M94.7,47.1L94.7,47.1c0.5,0,1-0.4,1-1V33.2c0-0.5-0.4-1-1-1l0,0c-0.5,0-1,0.4-1,1v12.9
			C93.7,46.6,94.2,47.1,94.7,47.1z"/>
		<g>
			<rect x="89.9" y="33.7" class="st6" width="1.5" height="17.2"/>
			<ellipse class="st6" cx="91.4" cy="42.3" rx="3.2" ry="8.6"/>
		</g>
		<path class="st5" d="M86.8,51.7h2.4c0.5,0,0.9-0.4,0.9-0.9v-17c0-0.5-0.4-0.9-0.9-0.9h-2.4c-0.5,0-0.9,0.4-0.9,0.9v17
			C85.9,51.3,86.3,51.7,86.8,51.7z"/>
	</g>
	<g>
		<path class="st0" d="M140.4,99.4c1.6-5.3,1-8.7,1-8.7s-4.3,8.7-7.3,9.1c0,0,7.5-7.6,6.8-13.5c0,0-3.8,6.8-6.6,7.7
			c0,0,6.8-5.9,5.1-13.8c0,0-3,8.3-6.1,8.6c0,0,5.2-6.1,4.7-11.8c0,0-20.9,28.6-49.9,3l0.6,24.2l13.8,17.5c0,0,20.4,7.5,33.4-12.8
			c0,0,0,0,0,0c2.3-3.4,3.6-6.5,4.5-9.1C140.3,99.6,140.4,99.5,140.4,99.4C140.4,99.3,140.4,99.3,140.4,99.4z"/>
		<path class="st7" d="M114.7,105.3c0-5.6,1.5-10.9,4-15.4c-8.3,2-18.9,0.7-30.7-9.9l-0.4,24.3l14.8,17.5c0,0,7.9,2.9,17.1,0.2
			C116.5,117.1,114.7,111.4,114.7,105.3z"/>
	</g>
	<path class="st8" d="M56.5,64c-0.3,0.5-0.4,1.2-0.8,2.4c-1.5,5.2-4,14-9.4,19.3c0,0,5,19.6,24.5,19.6c19.5,0,24.5-19.6,24.5-19.6
		c-5.3-5-7.9-14-9.3-19.2c-0.6-2.1-0.7-2.4-0.7-2.6"/>
	<g>
		<path class="st5" d="M84.5,145.6L84.5,145.6c8.8-4.7,14.9-13.8,14.9-24.3c0-15.3-12.8-27.6-28.6-27.6c-15.8,0-28.6,12.4-28.6,27.6
			c0,10.5,6.1,19.6,15,24.3l-0.1,0c4.3,2.5,7.5,6.7,8.4,11.7c0.2-0.1,1.1-0.5,2.3,0v-8.5c1,0.1,2,0.2,3,0.2c1,0,2-0.1,3.1-0.2v8.5
			c1.2-0.6,2.1-0.1,2.3,0C77,152.3,80.2,148.1,84.5,145.6z"/>
		<path class="st5" d="M70.8,73.9c-19,0-34.4,17.3-34.4,38.6c0,13.2,8.2,23.8,17.1,30.7c18-7,28.8-1.9,34.4,0.2
			c9.1-7,17.2-17.6,17.2-30.9C105.2,91.2,89.8,73.9,70.8,73.9z"/>
	</g>
	<g>
		<circle class="st10" cx="71.1" cy="71.6" r="1.7"/>
		<circle class="st11" cx="71.1" cy="71.6" r="0.4"/>
	</g>
	<g>
		<circle class="st10" cx="71.1" cy="81.1" r="1.7"/>
		<circle class="st11" cx="71.1" cy="81.1" r="0.4"/>
	</g>
	<path class="st0" d="M86.3,41.5c0.2-4.4-0.1-9.1-1.8-12.4c-0.9-2.5-3.8-4.1-6.7-5.1c1.3,0,2.4,0,2.4,0c-3.1-2.1-5.9-2-7.9-1.2
		c-0.6-0.1-1.1-0.1-1.5-0.2c1.5-0.8,3.1-1.4,3.1-1.4c-4.8-1.2-9,1.5-10.8,2.9c-2.9,1-5.6,2.5-6.5,5c-1.7,3.3-2,8-1.8,12.4
		c-0.2,4.1,0,7.2,0.9,10.3c2.2,5.1,1.5,9.1,0.5,13c0,0,0.6,1.1,0.5,1.6l14.2,26.5V93l14.3-26.4c-0.1-0.5,0.5-1.3,0.3-1.9
		c-1.1-3.8-2.5-8.2-0.1-13.1C86.3,48.7,86.4,45,86.3,41.5z"/>
	<path class="st12" d="M63.6,38.7c0,1.4-1.4,2.5-3.2,2.6c-1.8,0.1-3.4-1-3.4-2.4c0-1.4,1.4-2.5,3.2-2.6C62,36.3,63.5,37.3,63.6,38.7
		z"/>
	<path class="st13" d="M61.8,38.5c0.1,0.8-0.5,1.6-1.3,1.7c-0.8,0.1-1.6-0.5-1.7-1.3c-0.1-0.8,0.5-1.6,1.3-1.7
		C60.9,37.1,61.7,37.7,61.8,38.5z"/>
	<path class="st12" d="M83.9,38.7c0,1.4-1.4,2.5-3.2,2.6c-1.8,0.1-3.4-1-3.4-2.4c0-1.4,1.4-2.5,3.2-2.6
		C82.4,36.3,83.9,37.3,83.9,38.7z"/>
	<path class="st13" d="M82.1,38.5c0.1,0.8-0.5,1.6-1.3,1.7c-0.8,0.1-1.6-0.5-1.7-1.3c-0.1-0.8,0.5-1.6,1.3-1.7
		C81.2,37.1,82,37.7,82.1,38.5z"/>
	<path class="st3" d="M70.5,42.1c-1.6,2.8-5.1,3.5-5.1,3.5c2.7,1.7,5.4,6.8,5.4,6.8s2.6-5.1,5.3-6.8C76.1,45.7,72.2,44.9,70.5,42.1z
		"/>
	<path class="st14" d="M72.7,158.9l0.1-0.1l-0.1-0.1v-2c0-0.3,0.2-0.5,0.5-0.5c0,0,0.6,0.5,1.8,0.5c1.1,0,1.7-0.5,2-0.5
		c0.1,0,0-0.3,0.3,0c1.7,1.6,5.6,2,5.6,2c0.2,0,0.4,0.3,0.2,0.6c0,0-0.1,0.1-0.1,0.1L83,159c0,0.3-0.2,0.5-0.5,0.5h-9.4
		c-0.3,0-0.5-0.2-0.5-0.5V158.9z"/>
	<path class="st14" d="M68.9,159c0,0.3-0.2,0.5-0.5,0.5H59c-0.3,0-0.5-0.2-0.5-0.5l0.1-0.1c0,0-0.1-0.1-0.1-0.1
		c-0.2-0.2-0.1-0.6,0.2-0.6c0,0,3.9-0.3,5.6-2c0.3-0.3,0.2,0,0.3,0c0.3,0,0.8,0.5,2,0.5c1.1,0,1.8-0.5,1.8-0.5
		c0.3,0,0.5,0.2,0.5,0.5v2l-0.1,0.1l0.1,0.1V159z"/>
	<g>
		<path class="st5" d="M55.1,60.3h7.5c0.6,0,1.1,0.5,1.1,1.1v0.9c0,0.6-0.5,1.1-1.1,1.1h-7.5c-0.6,0-1.1-0.5-1.1-1.1v-0.9
			C54,60.8,54.5,60.3,55.1,60.3z"/>
		<rect x="60.5" y="60.3" class="st6" width="1.1" height="3.2"/>
		<path class="st15" d="M54.7,61.9c-5.1,0-9.2-5.5-9.2-12.2c0-1.2,0.1-2.3,0.4-3.4"/>
	</g>
	<path class="st16" d="M69.3,75.3l1.5,5.1l0.1,16c0,0-6-7.7-8.1-12.8c-1.7-4.3-6.5-16.8-6.5-16.8s4.6,4.5,6.5,5.8
		C64.1,73.4,69.3,75.3,69.3,75.3z"/>
	<path class="st16" d="M72.4,75.2L70.8,80l-0.1,16.2c0,0,6-7.7,8.1-12.8c1.8-4.3,6.5-16.8,6.5-16.8s-4.6,4.5-6.5,5.8
		C77.6,73.3,72.4,75.2,72.4,75.2z"/>
	<path class="st8" d="M67.6,130.8c2.9,0.4,3.2,0.2,7,0.1c8.9-0.3,18.7-2.3,28.8-7.4c1.2-3.4,1.9-7.1,1.9-11
		c0-19.3-12.6-35.2-29.2-38.1c-1.8-0.3-5.3,5-5.3,5s-3.5-5.3-5.1-5.1C49,77.1,36.2,93.1,36.2,112.6c0,3.7,0.7,7.3,1.8,10.6
		C38.1,123.2,50.3,129.8,67.6,130.8z"/>
	<g>
		<path class="st5" d="M70,80.6l-3.5-3.5c-0.6-0.6-0.2-1.8,0.7-1.8h7c0.9,0,1.4,1.1,0.7,1.8l-3.5,3.5C71,81,70.4,81,70,80.6z"/>
		<path class="st5" d="M70.8,124.8l-5.4-5.4L70.2,80c0.1-0.7,1.1-0.7,1.2,0l4.8,39.4L70.8,124.8z"/>
	</g>
	<path class="st17" d="M56.2,64.9c0,0,1.7,3.1,5.5,5.8c4.4,3.2,7.6,4.7,7.6,4.7s-2.1,1.1-2.8,3.9c-0.3,1.1-0.1,3.7-0.1,3.7
		S59,75.3,56.2,66.7C56,66.3,56.2,64.9,56.2,64.9z"/>
	<path class="st17" d="M85.5,64.8c0,0-1.7,3.1-5.5,5.8c-4.4,3.2-7.6,4.7-7.6,4.7s2.1,1.1,2.8,3.9c0.3,1.1,0.1,3.7,0.1,3.7
		s7.3-7.7,10.2-16.2C85.6,66.2,85.5,64.8,85.5,64.8z"/>
	<path class="st18" d="M103.4,120.7c-10,5-19.9,7-28.8,7.4c-3.9,0.2-4.1,0.2-7-0.1c-17.3-1-29.5-7.7-29.6-7.7c-1-0.7-1.2-0.4,0,2.9
		c0,0,12.2,6.7,29.6,7.7c2.9,0.4,3.2,0.2,7,0.1c8.9-0.3,18.7-2.3,28.8-7.4C104.7,120,104.7,119.9,103.4,120.7z"/>
	<g>
		<path class="st7" d="M57.3,99.7c0,0-8.5,2.7-18.4-1.7c0,0-8,18.7,3.6,33.6c0,0,6.7,3,15.5,0.2C58,131.7,48,118,57.3,99.7z"/>
		<g>
			<path class="st0" d="M79.9,100.5c0,0-4.3,8.7-7.3,9.1c0,0,7.5-7.6,6.8-13.5c0,0-3.8,6.8-6.6,7.7c0,0,6.8-5.9,5.1-13.8
				c0,0-3,8.3-6.1,8.6c0,0,5.2-6.1,4.7-11.8c0,0-7.3,9.9-19.2,12.8c-2.6,4.6-4,9.8-4,15.4c0,6.1,1.7,11.8,4.7,16.6
				c5.5-1.6,11.5-5.4,16.3-13c0,0,0,0,0,0c2.3-3.4,3.6-6.5,4.5-9.1c0.1-0.2,0.1-0.3,0.2-0.5c0,0,0,0-0.1,0.1
				C80.5,103.9,79.9,100.5,79.9,100.5z"/>
		</g>
	</g>
	<g>
		<path class="st19" d="M67.8,128.8v1.3c0,0.5,0.4,0.9,0.9,0.9l4.1-0.1c0.5,0,0.9-0.4,0.9-0.9v-1.3c0-0.5-0.4-0.9-0.9-0.9l-4.1,0.1
			C68.2,128,67.8,128.4,67.8,128.8z"/>
		<line class="st20" x1="73.7" y1="129.4" x2="71.4" y2="129.4"/>
	</g>
</g>
</svg>
