<?xml version="1.0" encoding="utf-8"?>
<!-- Generator: Adobe Illustrator 19.1.0, SVG Export Plug-In . SVG Version: 6.00 Build 0)  -->
<svg version="1.1" id="P_Johns" xmlns="http://www.w3.org/2000/svg" xmlns:xlink="http://www.w3.org/1999/xlink" x="0px" y="0px"
	 viewBox="0 0 170 170" style="enable-background:new 0 0 170 170;" xml:space="preserve">
<style type="text/css">
	.st0{fill:#E1E2E3;}
	.st1{fill:#44C2CE;}
	.st2{fill:#3B79A3;}
	.st3{fill:#424750;}
	.st4{fill:none;stroke:#504F4F;stroke-width:2;stroke-miterlimit:10;}
	.st5{fill:#504F4F;}
	.st6{fill:#F16D6D;}
	.st7{fill:#87C6C0;}
	.st8{fill:#89DBD8;}
	.st9{fill:none;stroke:#C7C6C6;stroke-width:0.7565;stroke-miterlimit:10;}
	.st10{fill-rule:evenodd;clip-rule:evenodd;fill:#444751;}
	.st11{fill-rule:evenodd;clip-rule:evenodd;fill:#D6D6D5;}
	.st12{fill:#FFFFFF;}
	.st13{fill:#2B2A34;}
	.st14{fill:#2B2C2D;}
	.st15{fill:none;stroke:#504F4F;stroke-miterlimit:10;}
	.st16{fill-rule:evenodd;clip-rule:evenodd;fill:#89DBD8;}
	.st17{fill-rule:evenodd;clip-rule:evenodd;fill:#87C6C0;}
	.st18{fill:#59473A;}
	.st19{fill:none;stroke:#F2C24E;stroke-miterlimit:10;}
	.st20{fill:none;stroke:#F2C24E;stroke-linecap:round;stroke-miterlimit:10;}
	.st21{fill:#E9676D;}
	.st22{fill:#F6ECC3;}
	.st23{fill:#A6A8AB;}
	.st24{fill:none;stroke:#FFFFFF;stroke-width:5.289;stroke-miterlimit:10;}
	.st25{fill:#E6E6E6;}
	.st26{opacity:0.2;fill:none;stroke:#FFFFFF;stroke-width:3;stroke-miterlimit:10;}
	.st27{fill:none;stroke:#E9676D;stroke-linecap:round;stroke-miterlimit:10;}
	.st28{fill:#FCB856;}
	.st29{fill:none;stroke:#FCB856;stroke-linecap:round;stroke-miterlimit:10;}
	.st30{fill:none;stroke:#CBCACA;stroke-width:3.4513;stroke-miterlimit:10;}
	.st31{fill-rule:evenodd;clip-rule:evenodd;fill:#DADAD9;}
	.st32{fill:#469595;}
	.st33{fill:#2A2D35;}
	.st34{fill:#387D7B;}
	.st35{fill:#BFF7F5;}
	.st36{opacity:0.4;fill:#FFFFFF;}
	.st37{fill:#D3D3D3;}
	.st38{fill:none;stroke:#FFFFFF;stroke-width:5.0355;stroke-miterlimit:10;}
	.st39{fill:#777777;}
	.st40{fill:#70533D;}
	.st41{fill:#EA6A6D;}
	.st42{fill:#C7C6C6;}
	.st43{fill:#9FA0A3;}
	.st44{fill:#3C5777;}
	.st45{fill:#F2C24E;}
	.st46{fill:none;stroke:#E1E2E3;stroke-miterlimit:10;}
	.st47{fill:#314759;}
	.st48{fill:none;stroke:#314759;stroke-miterlimit:10;}
	.st49{fill:none;stroke:#3C5777;stroke-miterlimit:10;}
	.st50{fill:#80BBA8;}
	.st51{fill:#E94C64;}
	.st52{fill:#59C0C1;}
	.st53{fill:#8E8E8E;}
	.st54{fill:#80C0AC;}
	.st55{fill:none;stroke:#504F4F;stroke-linecap:round;stroke-miterlimit:10;}
	.st56{fill:#F9D88F;}
	.st57{fill:#BABABA;}
	.st58{clip-path:url(#XMLID_3_);fill:#F9D88F;}
	.st59{fill-rule:evenodd;clip-rule:evenodd;fill:#F2BC86;}
	.st60{fill:#F2F2F2;}
	.st61{fill:#57C4C6;}
	.st62{fill:#B4E219;}
	.st63{fill:#74777C;}
	.st64{fill:#E03E3E;}
	.st65{fill:#595C62;}
	.st66{fill:none;stroke:#C7C6C6;stroke-width:0.8879;stroke-miterlimit:10;}
	.st67{fill-rule:evenodd;clip-rule:evenodd;fill:#F9F0EB;}
	.st68{fill-rule:evenodd;clip-rule:evenodd;fill:#595C62;}
	.st69{fill:#EC7045;}
	.st70{opacity:0.7;}
	.st71{fill:#90CED2;}
	.st72{fill:#882888;}
	.st73{fill:#C1C0C0;}
	.st74{fill:#768035;}
	.st75{fill:#E3B27C;}
	.st76{fill:#775644;}
	.st77{fill:#DBC7C2;}
	.st78{fill:#D95027;}
	.st79{fill:#57BFC2;}
	.st80{clip-path:url(#SVGID_2_);}
	.st81{fill-rule:evenodd;clip-rule:evenodd;fill:#424750;}
	.st82{fill-rule:evenodd;clip-rule:evenodd;fill:#E1E2E3;}
	.st83{fill:none;stroke:#E6E6E6;stroke-miterlimit:10;}
	.st84{fill:#6BA588;}
	.st85{fill:#F9F0EB;}
	.st86{fill:none;stroke:#6BA588;stroke-miterlimit:10;}
	.st87{fill:#281A12;}
	.st88{fill:#2E465D;}
	.st89{fill:#422E21;}
	.st90{fill-rule:evenodd;clip-rule:evenodd;fill:#3C5F7C;}
	.st91{fill-rule:evenodd;clip-rule:evenodd;fill:#2E465D;}
	.st92{fill:#EDE2A2;}
	.st93{fill:#EFDFA8;}
	.st94{fill:#9AC68F;}
	.st95{clip-path:url(#XMLID_5_);fill:#B4D6AA;}
	.st96{fill:#96D696;}
	.st97{clip-path:url(#XMLID_6_);fill:#A7DBA7;}
	.st98{clip-path:url(#XMLID_7_);fill:#B4D6AA;}
	.st99{fill:#4D4D4F;}
	.st100{fill:#69502E;}
	.st101{fill:#3F3F3F;}
	.st102{fill:#4C381B;}
	.st103{fill:#919090;}
	.st104{fill:#74DDE2;}
	.st105{clip-path:url(#XMLID_10_);fill:#F9D88F;}
	.st106{fill-rule:evenodd;clip-rule:evenodd;fill:#504F4F;}
	.st107{fill-rule:evenodd;clip-rule:evenodd;fill:#FFFFFF;}
	.st108{fill-rule:evenodd;clip-rule:evenodd;fill:none;stroke:#4D4D4D;stroke-miterlimit:10;}
	.st109{fill:#4D4D4D;}
	.st110{fill:#42474F;}
	.st111{fill:#E6E7E8;}
	.st112{fill:#3A3A3A;}
	.st113{fill-rule:evenodd;clip-rule:evenodd;fill:#43474F;}
	.st114{fill-rule:evenodd;clip-rule:evenodd;fill:#DBDBDA;}
	.st115{fill:#F3E7A8;}
	.st116{fill:#F4E4AD;}
	.st117{fill:none;stroke:#F4E4AD;stroke-width:0.454;stroke-miterlimit:10;}
	.st118{fill:#57C4C7;}
	.st119{clip-path:url(#SVGID_4_);fill:#E6E7E8;}
	.st120{fill-rule:evenodd;clip-rule:evenodd;fill:#42474F;}
	.st121{fill-rule:evenodd;clip-rule:evenodd;fill:#E6E7E8;}
	.st122{fill:#E5D9BE;}
	.st123{fill:#F7F1E2;}
	.st124{fill:#B5967D;}
	.st125{clip-path:url(#XMLID_11_);fill:#96D696;}
	.st126{fill-rule:evenodd;clip-rule:evenodd;fill:#92BA85;}
	.st127{fill-rule:evenodd;clip-rule:evenodd;fill:#EFEFE4;}
	.st128{fill-rule:evenodd;clip-rule:evenodd;fill:#E0E0C7;}
	.st129{fill:#999999;}
	.st130{fill:#F9C543;}
	.st131{fill:#355B77;}
	.st132{fill:#C49B49;}
	.st133{fill:#444751;}
	.st134{fill:#D6D6D5;}
	.st135{fill:none;}
	.st136{fill:#5DC667;}
	.st137{fill:#EDE9C3;}
	.st138{fill:none;stroke:#FCD98D;stroke-linecap:round;stroke-miterlimit:10;}
	.st139{fill:none;stroke:#CBCACA;stroke-width:0.5;stroke-miterlimit:10;}
	.st140{fill:none;stroke:#80C0AC;stroke-width:0.5;stroke-miterlimit:10;}
	.st141{fill:#E85273;}
	.st142{fill:#FCD224;}
	.st143{fill:#59B5CE;}
	.st144{fill:#52ACC1;}
	.st145{fill:#FAFAFA;}
	.st146{fill:#E7E6E6;}
	.st147{fill:#71D3F4;}
	.st148{fill:#A3E8E3;}
	.st149{fill:#4AAFAF;}
	.st150{fill:#F2BC86;}
	.st151{fill:#585D62;}
	.st152{fill-rule:evenodd;clip-rule:evenodd;fill:#DBDBD9;}
	.st153{fill-rule:evenodd;clip-rule:evenodd;fill:#E7E6E6;}
	.st154{fill:#2A2A34;}
	.st155{fill:none;stroke:#3B79A3;stroke-miterlimit:10;}
	.st156{fill:#EDEFED;}
	.st157{fill:none;stroke:#CCCCCC;stroke-miterlimit:10;stroke-dasharray:1,1;}
	.st158{fill:#2D567F;}
	.st159{fill:#EF89B0;}
	.st160{fill:#3F6B9E;}
	.st161{fill:#D21C5A;}
	.st162{fill:#EDC169;}
	.st163{fill:#DDAC57;}
	.st164{fill:#92BA85;}
	.st165{fill:#29507F;}
	.st166{fill:none;stroke:#EFDFA8;stroke-width:0.3783;stroke-miterlimit:10;}
	.st167{clip-path:url(#SVGID_6_);}
	.st168{fill:#AEAEAF;}
	.st169{fill:#895C4E;}
	.st170{fill-rule:evenodd;clip-rule:evenodd;fill:#F7E9DF;}
	.st171{clip-path:url(#SVGID_8_);}
	.st172{clip-path:url(#SVGID_10_);fill:#F15C60;}
	.st173{fill-rule:evenodd;clip-rule:evenodd;fill:#F4F4F4;}
	.st174{clip-path:url(#SVGID_12_);}
	.st175{clip-path:url(#SVGID_14_);fill:#F15C60;}
</style>
<g>
	<path class="st0" d="M153.6,91.1c-2-4.9-3.2-2.5-6.3-1.9c0,0,2.7-4.2-0.1-3.2c0,0,1.8-5.5-1.2-5.1c0,0,1.7-8.2-3-4.5
		c-8.4,6.6-23.5,13-42.6-2.9l1.4,24.3l14.4,17.1c0,0,20.7,6.9,33-14c0,0,0,0,0,0c2.2-3.5,3.4-6.6,4.2-9.3
		C153.5,91.3,153.6,91.2,153.6,91.1C153.6,91,153.6,91,153.6,91.1"/>
	<path class="st56" d="M127.6,97.7c0-5.6,1.5-10.9,4-15.5c-8.3,2-18.9,0.7-30.8-9.9l-0.4,24.3l14.8,17.8c0,0,8,2.9,17.1,0.2
		C129.4,109.9,127.6,103.8,127.6,97.7z"/>
	<g>
		<path class="st5" d="M146.5,91.6l-16.5,3.3c-0.8,0.2-1.6-0.4-1.7-1.2l-4.8-23.6c-0.2-0.8,0.4-1.6,1.2-1.7l16.5-3.3
			c0.8-0.2,1.6,0.4,1.7,1.2l4.8,23.6C147.8,90.7,147.3,91.4,146.5,91.6z"/>
		<path class="st54" d="M141.7,72.7l-14.6,2.9c-0.5,0.1-0.9-0.2-1-0.7l-0.9-4.3c-0.1-0.5,0.2-0.9,0.7-1l14.6-2.9
			c0.5-0.1,0.9,0.2,1,0.7l0.9,4.3C142.5,72.2,142.2,72.7,141.7,72.7z"/>
		<path class="st0" d="M132.1,81.1L128,82c-0.2,0-0.5-0.1-0.5-0.3l-0.8-4.1c0-0.2,0.1-0.5,0.3-0.5l4.1-0.8c0.2,0,0.5,0.1,0.5,0.3
			l0.8,4.1C132.4,80.9,132.3,81.1,132.1,81.1z"/>
		<path class="st0" d="M137.7,80l-4.1,0.8c-0.2,0-0.5-0.1-0.5-0.3l-0.8-4.1c0-0.2,0.1-0.5,0.3-0.5l4.1-0.8c0.2,0,0.5,0.1,0.5,0.3
			l0.8,4.1C138.1,79.7,138,79.9,137.7,80z"/>
		<path class="st0" d="M143.4,78.9l-4.1,0.8c-0.2,0-0.5-0.1-0.5-0.3l-0.8-4.1c0-0.2,0.1-0.5,0.3-0.5l4.1-0.8c0.2,0,0.5,0.1,0.5,0.3
			l0.8,4.1C143.8,78.6,143.6,78.8,143.4,78.9z"/>
		<path class="st0" d="M133.2,86.8l-4.1,0.8c-0.2,0-0.5-0.1-0.5-0.3l-0.8-4.1c0-0.2,0.1-0.5,0.3-0.5l4.1-0.8c0.2,0,0.5,0.1,0.5,0.3
			l0.8,4.1C133.6,86.5,133.4,86.8,133.2,86.8z"/>
		<path class="st0" d="M138.9,85.7l-4.1,0.8c-0.2,0-0.5-0.1-0.5-0.3l-0.8-4.1c0-0.2,0.1-0.5,0.3-0.5l4.1-0.8c0.2,0,0.5,0.1,0.5,0.3
			l0.8,4.1C139.2,85.4,139.1,85.6,138.9,85.7z"/>
		<path class="st0" d="M134.3,92.5l-4.1,0.8c-0.2,0-0.5-0.1-0.5-0.3l-0.8-4.1c0-0.2,0.1-0.5,0.3-0.5l4.1-0.8c0.2,0,0.5,0.1,0.5,0.3
			l0.8,4.1C134.7,92.2,134.6,92.4,134.3,92.5z"/>
		<path class="st0" d="M140,91.3l-4.1,0.8c-0.2,0-0.5-0.1-0.5-0.3l-0.8-4.1c0-0.2,0.1-0.5,0.3-0.5l4.1-0.8c0.2,0,0.5,0.1,0.5,0.3
			l0.8,4.1C140.4,91.1,140.2,91.3,140,91.3z"/>
		<path class="st6" d="M145.5,90.2l-3.7,0.7c-0.3,0.1-0.7-0.2-0.7-0.5l-1.9-9.3c-0.1-0.3,0.2-0.7,0.5-0.7l3.7-0.7
			c0.3-0.1,0.7,0.2,0.7,0.5l1.9,9.3C146,89.8,145.8,90.2,145.5,90.2z"/>
		<g>
			<path class="st5" d="M127.3,73.5l0.2-0.1l-0.1-0.6l-0.1,0c-0.1,0-0.2,0-0.2-0.1c0-0.1,0-0.2,0.1-0.2l0.1,0l-0.1-0.3
				c0-0.2,0-0.5,0.1-0.6c0.1-0.2,0.3-0.3,0.5-0.3c0.3-0.1,0.5,0,0.7,0.1c0,0,0.1,0.1,0.1,0.1c0,0.1,0,0.2-0.2,0.2
				c-0.1,0-0.1,0-0.2,0c-0.1-0.1-0.2-0.1-0.4-0.1c-0.1,0-0.2,0.1-0.2,0.1c-0.1,0.1-0.1,0.2,0,0.3l0.1,0.3l0.7-0.1
				c0.1,0,0.2,0,0.2,0.1c0,0.1,0,0.2-0.1,0.2l-0.7,0.1l0.1,0.6l0.9-0.2c0.1,0,0.2,0,0.2,0.1c0,0.1,0,0.2-0.1,0.2l-1.4,0.3
				c-0.1,0-0.2,0-0.2-0.1C127.2,73.6,127.3,73.5,127.3,73.5z"/>
			<path class="st5" d="M129.4,71.3l-0.2,0.1c0,0-0.1,0-0.1,0c-0.1,0-0.2,0-0.2-0.1c0-0.1,0-0.2,0.1-0.2l0.3-0.2
				c0.1,0,0.1-0.1,0.2-0.1l0,0c0.1,0,0.2,0,0.2,0.2l0.4,1.9c0,0.1,0,0.2-0.2,0.2c-0.1,0-0.2,0-0.2-0.2L129.4,71.3z"/>
			<path class="st5" d="M130.9,72.8c-0.2-0.1-0.4-0.4-0.5-0.8l0,0c-0.1-0.7,0.1-1.3,0.7-1.5c0.2,0,0.4,0,0.6,0
				c0.1,0,0.1,0.1,0.1,0.2c0,0.1-0.1,0.2-0.2,0.2c0,0-0.1,0-0.1,0c-0.1-0.1-0.3-0.1-0.4,0c-0.3,0.1-0.5,0.4-0.4,0.8
				c0.1-0.1,0.2-0.3,0.5-0.3c0.4-0.1,0.9,0.1,0.9,0.6l0,0c0.1,0.5-0.2,0.9-0.7,1C131.3,73,131.1,72.9,130.9,72.8z M131.9,72.1
				L131.9,72.1c0-0.2-0.3-0.4-0.6-0.3c-0.3,0.1-0.4,0.3-0.4,0.5l0,0c0,0.2,0.3,0.4,0.6,0.3C131.8,72.5,132,72.3,131.9,72.1z"/>
			<path class="st5" d="M132.8,72.2l0.6-0.7c0.3-0.3,0.3-0.5,0.3-0.7c0-0.2-0.2-0.3-0.4-0.3c-0.2,0-0.3,0.1-0.4,0.3
				c0,0-0.1,0.1-0.1,0.1c-0.1,0-0.2,0-0.2-0.1c0,0,0-0.1,0-0.1c0.1-0.3,0.3-0.5,0.7-0.5c0.5-0.1,0.8,0.1,0.9,0.5l0,0
				c0.1,0.4-0.1,0.6-0.4,1l-0.4,0.5l0.9-0.2c0.1,0,0.2,0,0.2,0.1s0,0.2-0.1,0.2l-1.3,0.3c-0.1,0-0.2,0-0.3-0.1
				C132.8,72.4,132.8,72.3,132.8,72.2z"/>
			<path class="st5" d="M134.9,72c-0.1,0-0.1-0.1-0.1-0.1c0-0.1,0-0.2,0.2-0.2c0,0,0.1,0,0.1,0c0.2,0.1,0.4,0.1,0.5,0.1
				c0.3-0.1,0.4-0.2,0.4-0.5l0,0c0-0.2-0.3-0.3-0.6-0.3c-0.2,0-0.3,0.1-0.4,0.2c-0.1,0-0.1,0-0.2,0c-0.1,0-0.1-0.1-0.1-0.2l-0.1-0.8
				c0-0.1,0-0.2,0.1-0.2l1-0.2c0.1,0,0.2,0,0.2,0.1c0,0.1,0,0.2-0.1,0.2l-0.9,0.2l0.1,0.5c0.1-0.1,0.2-0.1,0.4-0.1
				c0.5-0.1,0.8,0.1,0.9,0.6l0,0c0.1,0.5-0.2,0.8-0.7,0.9C135.4,72.2,135.1,72.1,134.9,72z"/>
			<path class="st5" d="M138,71.1l-1,0.2c-0.1,0-0.2,0-0.2-0.2c0-0.1,0-0.2,0-0.2l0.8-1.5c0.1-0.1,0.1-0.2,0.2-0.2
				c0.1,0,0.2,0,0.2,0.2l0.3,1.3l0.2,0c0.1,0,0.2,0,0.2,0.1c0,0.1,0,0.2-0.1,0.2l-0.2,0l0.1,0.3c0,0.1,0,0.2-0.2,0.2
				c-0.1,0-0.2,0-0.2-0.2L138,71.1z M137.9,70.7l-0.2-0.9l-0.6,1.1L137.9,70.7z"/>
			<path class="st5" d="M139,70.8L139,70.8c-0.1-0.3,0.1-0.5,0.3-0.6c-0.2-0.1-0.4-0.2-0.4-0.4l0,0c-0.1-0.4,0.2-0.7,0.7-0.8
				c0.5-0.1,0.9,0.1,0.9,0.5l0,0c0.1,0.3-0.1,0.4-0.2,0.6c0.3,0.1,0.5,0.2,0.5,0.5l0,0c0.1,0.4-0.2,0.7-0.7,0.8
				C139.5,71.3,139.1,71.2,139,70.8z M140.4,70.5L140.4,70.5c0-0.2-0.3-0.3-0.6-0.3c-0.3,0.1-0.5,0.2-0.4,0.4l0,0
				c0,0.2,0.2,0.3,0.5,0.2C140.2,70.8,140.4,70.7,140.4,70.5z M140.1,69.5L140.1,69.5c0-0.2-0.2-0.3-0.5-0.2s-0.4,0.2-0.3,0.4l0,0
				c0,0.2,0.2,0.3,0.5,0.3C140,69.8,140.1,69.7,140.1,69.5z"/>
		</g>
	</g>
	<path class="st57" d="M153.7,90.6c1.2-9.1-5.2-14.4-7.4-15.9c-6.2,3.9-13.3,3.5-13.3,3.5c2.7,2.6,7.9,2.5,7.9,2.5
		c-1.4,1.4-6.9-0.5-6.9-0.5c3.2,4.1,9.1,3.2,9.1,3.2c-1.6,1-6.6,0.1-6.6,0.1c2.7,2.8,9.6,2.2,9.6,2.2c-1.5,1.4-7.6-0.1-7.6-0.1
		s1.5,1.7,4.8,3.1c0,0-0.1,0-0.1,0c0.1,0,0.2,0.1,0.3,0.1c1.7,0.7,3.8,1.3,6.5,1.5c0,0,0,0,0,0C151.4,90.5,152.6,90.6,153.7,90.6z"
		/>
	<path class="st0" d="M45.2,81.4c-1.8-1.4-10-8.1-10.9-12.3c-1.5-6.9,5.4-4,5.4-4s-0.9-2-2.9-3.7c-1.9-1.5-6.8-2.1-8.2,3.1
		c-0.7,2.8-0.8,4.3-0.7,5.1c-0.2-0.9-0.4-2.7,0.2-5.1c1.1-4.1,2.7-3.8,1.8-4.4c-0.4-0.3-4.5,1.7-5.5,3.8c-0.9,2-0.9,5.6,0.1,8.1
		c1.7,4.5-2.1-1.6-0.9-6.9c0.1-0.5-3.5,5.5-3,10.4c0.2,1.9,1,4,1,4c-0.4-0.6-0.8-1.7-1.1-3.2c-0.6-2.5,0.2-5.2,0.2-5.2
		s-5.6,7.7-3.3,14.7c11.9,36.1,41.6,27.7,41.6,27.7l14.4-17.1l1.4-24.3C63.2,81.5,53.2,83,45.2,81.4z"/>
	<g>
		<defs>
			<path id="XMLID_241_" d="M41.9,92.7c4.5-15.5-10.2-15.1-12.7-19.6c5.5,0.8,25.8,16.2,42.4-0.5L72.1,96l-14.3,16.8
				c0,0-14.1,6.6-29.5-7.4C32.1,104.5,38.9,102.9,41.9,92.7z"/>
		</defs>
		<use xlink:href="#XMLID_241_"  style="overflow:visible;fill:#F9D88F;"/>
		<clipPath id="XMLID_3_">
			<use xlink:href="#XMLID_241_"  style="overflow:visible;"/>
		</clipPath>
		<path class="st58" d="M53.1,119.3l-1.7-0.5c7-23.5,0.1-37.1,0.1-37.2l1.6-0.8C53.3,81.3,60.2,95.1,53.1,119.3z"/>
	</g>
	<path class="st56" d="M72.4,64.2c-0.3,0.5-0.4,1.2-0.8,2.4c-1.5,5.2-4,14-9.5,19.3c0,0,5,19.6,24.5,19.6
		c19.5,0,24.5-19.6,24.5-19.6c-5.3-5-7.9-14.1-9.4-19.2c-0.6-2.1-0.7-2.4-0.7-2.6"/>
	<g>
		<path class="st5" d="M100.4,145.9L100.4,145.9c8.8-4.7,14.9-13.8,14.9-24.3c0-15.3-12.8-27.7-28.6-27.7
			c-15.8,0-28.6,12.4-28.6,27.7c0,10.5,6.1,19.6,15,24.3l-0.1,0c4.3,2.5,7.5,6.7,8.4,11.7c0.2-0.1,1.1-0.5,2.3,0V149
			c1,0.1,2,0.2,3.1,0.2c1,0,2.1-0.1,3.1-0.2v8.6c1.2-0.6,2.1-0.1,2.3,0C92.9,152.6,96.1,148.4,100.4,145.9z"/>
		<path class="st5" d="M86.7,74.2c-19,0-34.4,17.3-34.4,38.7c0,13.2,8.2,23.8,17.2,30.8c18.1-7,28.8-2,34.4,0.2
			c9.1-7,17.3-17.6,17.3-30.9C121.1,91.5,105.7,74.2,86.7,74.2z"/>
	</g>
	<g>
		<circle class="st10" cx="87" cy="71.8" r="1.7"/>
		<circle class="st11" cx="87" cy="71.8" r="0.4"/>
	</g>
	<g>
		<circle class="st10" cx="87" cy="81.3" r="1.7"/>
		<circle class="st11" cx="87" cy="81.3" r="0.4"/>
	</g>
	<path class="st0" d="M102.2,41.7c0.2-4.4-0.1-9.1-1.8-12.4c-0.9-2.5-3.8-4.1-6.7-5.1c1.3,0,2.4,0,2.4,0c-3.1-2.1-5.9-2-7.9-1.2
		c-0.6-0.1-1.1-0.1-1.5-0.2c1.5-0.8,3.1-1.4,3.1-1.4c-4.9-1.2-9,1.5-10.8,2.9c-2.9,1-5.7,2.5-6.5,5c-1.7,3.3-2,8-1.8,12.4
		c-0.2,4.1,0,7.2,0.9,10.3c2.2,5.1,1.5,9.1,0.5,13c0,0,0.6,1.1,0.5,1.6l14.2,26.5v0.1L101,66.8c-0.1-0.5,0.5-1.3,0.3-1.9
		c-1.1-3.8-2.5-8.3-0.1-13.1C102.2,48.9,102.4,45.2,102.2,41.7z"/>
	<path class="st12" d="M79.5,38.9c0,1.4-1.4,2.5-3.3,2.6c-1.8,0.1-3.4-1-3.4-2.4c0-1.4,1.4-2.5,3.2-2.6
		C77.9,36.4,79.4,37.5,79.5,38.9z"/>
	<path class="st13" d="M77.7,38.7c0.1,0.8-0.5,1.6-1.3,1.7c-0.8,0.1-1.6-0.5-1.7-1.3c-0.1-0.8,0.5-1.6,1.3-1.7
		C76.8,37.3,77.5,37.9,77.7,38.7z"/>
	<path class="st12" d="M99.8,38.9c0,1.4-1.4,2.5-3.2,2.6c-1.8,0.1-3.4-1-3.4-2.4c0-1.4,1.4-2.5,3.2-2.6
		C98.3,36.4,99.8,37.5,99.8,38.9z"/>
	<path class="st13" d="M98,38.7c0.1,0.8-0.5,1.6-1.3,1.7c-0.8,0.1-1.6-0.5-1.7-1.3c-0.1-0.8,0.5-1.6,1.3-1.7
		C97.1,37.3,97.9,37.9,98,38.7z"/>
	<path class="st3" d="M86.4,42.3c-1.6,2.8-5.1,3.5-5.1,3.5c2.7,1.7,5.4,6.8,5.4,6.8s2.6-5.2,5.3-6.8C92,45.9,88,45.1,86.4,42.3z"/>
	<path class="st14" d="M88.6,159.2l0.1-0.1l-0.1-0.1v-2c0-0.3,0.2-0.5,0.5-0.5c0,0,0.6,0.5,1.8,0.5c1.1,0,1.7-0.5,2-0.5
		c0.1,0,0-0.3,0.3,0c1.7,1.6,5.6,2,5.6,2c0.2,0,0.4,0.3,0.2,0.6c0,0-0.1,0.1-0.1,0.1l0.1,0.1c0,0.3-0.2,0.5-0.5,0.5H89
		c-0.3,0-0.5-0.2-0.5-0.5V159.2z"/>
	<path class="st14" d="M84.7,159.3c0,0.3-0.2,0.5-0.5,0.5h-9.4c-0.3,0-0.5-0.2-0.5-0.5l0.1-0.1c0,0-0.1-0.1-0.1-0.1
		c-0.2-0.2-0.1-0.6,0.2-0.6c0,0,3.9-0.3,5.6-2c0.3-0.3,0.2,0,0.3,0c0.3,0,0.8,0.5,2,0.5c1.1,0,1.8-0.5,1.8-0.5
		c0.3,0,0.5,0.2,0.5,0.5v2l-0.1,0.1l0.1,0.1V159.3z"/>
	<path class="st56" d="M84,131.1c2.9,0.4,3.2,0.2,7,0.1c8.9-0.3,18-2,28-7c1.2-3.4,2.7-7.5,2.7-11.4c0-19.3-12.7-35.3-29.2-38.2
		c-1.8-0.3-5.3,5-5.3,5s-4.8-5.4-6.4-5.1C64,77.3,52.4,93.6,52.4,113.1c0,3.7,0.6,7,1.7,10.3C54.1,123.4,66.6,130.1,84,131.1z"/>
	<g>
		<path class="st5" d="M85.9,80.8l-3.5-3.5c-0.6-0.6-0.2-1.8,0.7-1.8h7c0.9,0,1.4,1.1,0.7,1.8l-3.5,3.5
			C86.9,81.2,86.3,81.2,85.9,80.8z"/>
		<path class="st5" d="M86.7,125.1l-5.4-5.4l4.8-39.5c0.1-0.7,1.1-0.7,1.2,0l4.8,39.5L86.7,125.1z"/>
	</g>
	<path class="st59" d="M72,65.1c0,0,1.7,3.1,5.5,5.8c4.5,3.2,7.6,4.7,7.6,4.7s-2.1,1.1-2.8,3.9c-0.3,1.1-0.1,3.7-0.1,3.7
		S74.9,75.5,72,67C71.9,66.5,72,65.1,72,65.1z"/>
	<path class="st59" d="M101.4,65c0,0-1.7,3.1-5.5,5.8c-4.5,3.2-7.6,4.7-7.6,4.7s2.1,1.1,2.8,3.9c0.3,1.1,0.1,3.7,0.1,3.7
		s7.3-7.7,10.2-16.2C101.5,66.4,101.4,65,101.4,65z"/>
	<path class="st18" d="M119.4,121.1c-10.1,5-19.6,6.9-28.4,7.2c-3.9,0.2-4.1,0.2-7-0.1c-17.4-1-29.6-7.7-29.6-7.7
		c-1.4-0.7-1.4-0.4-0.2,2.9c0,0,12.5,6.6,29.8,7.6c2.9,0.4,3.2,0.2,7,0.1c8.9-0.3,17.9-1.8,28-7
		C120.1,120.7,120.8,120.4,119.4,121.1z"/>
	<g>
		<path class="st19" d="M83.7,129.1v1.3c0,0.5,0.4,0.9,0.9,0.9l4.1-0.1c0.5,0,0.9-0.4,0.9-0.9V129c0-0.5-0.4-0.9-0.9-0.9l-4.1,0.1
			C84.1,128.2,83.7,128.6,83.7,129.1z"/>
		<line class="st20" x1="89.6" y1="129.7" x2="87.3" y2="129.7"/>
	</g>
	
		<rect x="17.9" y="74.8" transform="matrix(-5.507611e-04 1 -1 -5.507611e-04 130.0901 51.6952)" class="st60" width="42.7" height="32.1"/>
	<g>
		<rect x="26.6" y="96.2" class="st61" width="3.8" height="2.2"/>
		<rect x="32.1" y="90" class="st61" width="3.8" height="3"/>
		<rect x="37.7" y="84.4" class="st61" width="3.8" height="5.6"/>
		<rect x="43.2" y="75.9" class="st61" width="3.8" height="6.1"/>
		<rect x="48.8" y="72.5" class="st61" width="3.8" height="7.8"/>
		<rect x="26.6" y="98.4" class="st62" width="3.8" height="10.6"/>
		<rect x="32.1" y="92.8" class="st62" width="3.8" height="16.1"/>
		<rect x="37.7" y="89.6" class="st62" width="3.8" height="19.4"/>
		<rect x="43.2" y="82.1" class="st62" width="3.8" height="26.8"/>
		<rect x="48.8" y="80.4" class="st62" width="3.8" height="28.6"/>
	</g>
	<g>
		<circle class="st63" cx="39.6" cy="113.5" r="2"/>
		<path class="st3" d="M24.8,116l29.8,0c1.4,0,2.5-1.1,2.5-2.5L57,67c0-1.4-1.1-2.5-2.5-2.5l-29.8,0c-1.4,0-2.5,1.1-2.5,2.5l0,46.5
			C22.3,114.9,23.4,116,24.8,116z M24.2,69.7l30.9,0l0,41.2l-30.9,0L24.2,69.7z M38.3,113.5c0-0.7,0.6-1.3,1.3-1.3
			c0.7,0,1.3,0.6,1.3,1.3c0,0.7-0.6,1.3-1.3,1.3C38.9,114.8,38.3,114.2,38.3,113.5z"/>
	</g>
	<path class="st0" d="M37.5,62.1c0,0,2.1,1.4,2.5,4.7c0,0-3.7-2.2-7.5-2.8l3.3-1.7L37.5,62.1z"/>
</g>
</svg>
