<svg xmlns="http://www.w3.org/2000/svg" xmlns:xlink="http://www.w3.org/1999/xlink" viewBox="0 0 71.28 124.62"><defs><style>.cls-1{fill:#8e6b52;}.cls-2{fill:#735745;}.cls-3{fill:#e7e7e7;}.cls-4{fill:#294e67;}.cls-5{fill:#365e84;}.cls-6{fill:#454751;}.cls-7{fill:#d7d6d5;}.cls-8{fill:#2c2c2d;}.cls-9{fill:#5a483b;}.cls-10,.cls-11,.cls-16,.cls-18,.cls-19,.cls-20,.cls-29{fill:none;}.cls-10,.cls-11{stroke:#f2c24e;}.cls-10,.cls-11,.cls-16,.cls-18,.cls-19,.cls-20,.cls-21,.cls-29{stroke-miterlimit:10;}.cls-10,.cls-11,.cls-16{stroke-width:0.88px;}.cls-11{stroke-linecap:round;}.cls-12{fill:#e1e2e2;}.cls-13{fill:#fff;}.cls-14{fill:#2b2b35;}.cls-15{fill:#434851;}.cls-16{stroke:#294e67;}.cls-17{clip-path:url(#clip-path);}.cls-18,.cls-19{stroke:#735745;}.cls-18{stroke-width:1.75px;}.cls-19,.cls-29{stroke-width:2px;}.cls-20{stroke:#676767;stroke-width:0.9px;}.cls-21{fill:#57c0c3;stroke:#cdcccc;}.cls-22{fill:#d6573d;}.cls-23{fill:#d45639;}.cls-24{fill:#4787c7;}.cls-25{fill:#88c3eb;}.cls-26{fill:#e3e3e3;}.cls-27{fill:#676767;}.cls-28{clip-path:url(#clip-path-2);}.cls-29{stroke:#8e6b52;}</style><clipPath id="clip-path"><path class="cls-1" d="M38.25,9.64H34.14A14.67,14.67,0,0,0,19.47,24.31h0A14.65,14.65,0,0,0,26.78,37L26,31c-1-.55-1.5-1.19-1.5-1.87,0-2.1,5.22-3.81,11.67-3.81S47.86,27,47.86,29.11c0,.68-.55,1.32-1.5,1.87l-.75,6a14.65,14.65,0,0,0,7.31-12.68h0A14.67,14.67,0,0,0,38.25,9.64Z"/></clipPath><clipPath id="clip-path-2"><path class="cls-2" d="M15.75,118,5,118a1.77,1.77,0,0,1-1.77-1.77V101.81A1.77,1.77,0,0,1,5,100h8.68c1,0,2.64,2.25,2.74,3.22.7,6.87,1.06,12.93,1.06,12.93A1.77,1.77,0,0,1,15.75,118Z"/></clipPath></defs><title>Asset 7 1</title><g id="Layer_2" data-name="Layer 2"><g id="Layer_1-2" data-name="Layer 1"><path class="cls-1" d="M12.3,101.33l-1.76.64a1.67,1.67,0,1,0,1.11,3.15c.74-.26,1.47-.53,2.18-.8A30.88,30.88,0,0,1,12.3,101.33Z"/><path class="cls-3" d="M9.85,103.84a7.18,7.18,0,0,1-2.84-4s1.66,3.52,5.06,4.47c0,0-2.59-1.6-2.7-4,0,0,1.44,3.85,5.11,4.09a5.38,5.38,0,0,1-3.25-3.79s2,3.06,4.6,3.59c0,0-9.87-14.83,9.68-24.62l1.31-10.44-5.08-9s-24.4,5-20,32.37c1.48,9.27,8.15,11.35,8.15,11.35"/><path class="cls-4" d="M14.28,90.4c1.41-3.68,4.66-7.54,11.24-10.84l1.31-10.44-5.08-9S.62,64.48,1.19,87.11c0,0,3.89-2.22,7.86-.84a9,9,0,0,1,5.23,4.14"/><path class="cls-3" d="M62.61,104a7.18,7.18,0,0,0,2.84-4s-1.66,3.52-5.06,4.47c0,0,2.59-1.6,2.7-4,0,0-1.44,3.85-5.11,4.09a5.38,5.38,0,0,0,3.25-3.79s-2,3.06-4.6,3.59c0,0,9.87-14.83-9.68-24.62L45.63,69.31l5.08-9s24.4,5,20,32.37C69.28,102,62.61,104,62.61,104"/><path class="cls-4" d="M58.18,90.59c-1.41-3.68-4.66-7.54-11.24-10.84L45.63,69.31l5.08-9s21.13,4.36,20.56,27c0,0-3.89-2.22-7.86-.84a9,9,0,0,0-5.23,4.14"/><path class="cls-5" d="M25.11,50.37a7.75,7.75,0,0,0-.6,1.85c-1.15,4-3.08,10.9-7.34,15,0,0,3.9,15.24,19,15.24s19-15.24,19-15.24C51.14,63.28,49.08,56.3,48,52.29c-.46-1.66-.51-1.83-.57-2"/><path class="cls-4" d="M46.89,113.78h-.06A21.38,21.38,0,0,0,58.46,94.91c0-11.86-10-21.47-22.23-21.47S14,83,14,94.91a21.38,21.38,0,0,0,11.63,18.88h-.06a13.39,13.39,0,0,1,6.53,9.1,2,2,0,0,1,1.75,0v-6.64a22.67,22.67,0,0,0,4.74,0v6.64a1.93,1.93,0,0,1,1.76,0A13.39,13.39,0,0,1,46.89,113.78Z"/><path class="cls-4" d="M36.23,58.12c-14.75,0-26.71,13.44-26.71,30,0,10.22,6.37,18.46,13.32,23.88,14-5.41,22.38-1.51,26.71.12,7-5.41,13.4-13.7,13.4-24C62.94,71.56,51,58.12,36.23,58.12Z"/><circle class="cls-6" cx="36.43" cy="56.33" r="1.29"/><circle class="cls-7" cx="36.43" cy="56.33" r="0.3"/><circle class="cls-6" cx="36.43" cy="63.67" r="1.29"/><circle class="cls-7" cx="36.43" cy="63.67" r="0.3"/><path class="cls-8" d="M37.67,124.16l.09-.05-.09-.08v-1.58a.36.36,0,0,1,.36-.36,2.24,2.24,0,0,0,1.38.42,4.46,4.46,0,0,0,1.53-.42s0-.2.21,0c1.36,1.27,4.38,1.52,4.38,1.52.17,0,.28.27.12.45,0,0-.08.07-.08.1l.09.1a.36.36,0,0,1-.36.36H38a.36.36,0,0,1-.36-.36Z"/><path class="cls-8" d="M34.71,124.25a.36.36,0,0,1-.36.36H27.08a.36.36,0,0,1-.36-.36l.09-.1s-.06-.07-.08-.1c-.16-.18,0-.45.12-.45,0,0,3-.26,4.38-1.52.22-.2.17,0,.21,0a4.46,4.46,0,0,0,1.52.42,2.24,2.24,0,0,0,1.38-.42.36.36,0,0,1,.36.36V124l-.09.08.09.05v.1Z"/><path class="cls-9" d="M61.54,94.44a54.15,54.15,0,0,1-22.34,5.72,31.12,31.12,0,0,1-5.46-.06,59.18,59.18,0,0,1-23-6c-.8-.52-.9-.34,0,2.23a59.18,59.18,0,0,0,23,6,23.83,23.83,0,0,0,5.46.06,54.15,54.15,0,0,0,22.34-5.72C62.54,93.89,62.56,93.86,61.54,94.44Z"/><path class="cls-10" d="M33.91,100.79v1a.69.69,0,0,0,.7.69l3.22-.08a.69.69,0,0,0,.67-.69v-1a.69.69,0,0,0-.7-.69l-3.22.06A.69.69,0,0,0,33.91,100.79Z"/><line class="cls-11" x1="38.5" y1="101.23" x2="36.66" y2="101.23"/><path class="cls-5" d="M36.23,56.63c-14.76,0-26.72,14.94-26.72,31.43A30.93,30.93,0,0,0,21,112.6c5.32-5.79,15.21-6.09,15.21-6.09,9.89,0,12.49,3.63,15.07,6.21A30.92,30.92,0,0,0,63,88.06C63,71.57,51,56.63,36.23,56.63Z"/><path class="cls-12" d="M48.24,32.9c.17-3.4-.07-7.07-1.4-9.61-.69-2-2.94-3.19-5.22-3.94,1,0,1.88,0,1.88,0a6.54,6.54,0,0,0-6.14-.95c-.49-.07-.89-.11-1.14-.14a16.78,16.78,0,0,1,2.4-1.1c-3.77-.92-7,1.13-8.39,2.25-2.22.75-4.39,2-5.06,3.89-1.33,2.53-1.57,6.21-1.4,9.61a23.48,23.48,0,0,0,.67,8c1.68,4,1.17,7.05.38,10.12l-.32,1.2s4,7.08,11.73,7.08c5.95,0,11.79-6.74,11.79-6.74-.11-.42-.29-1.1-.42-1.55-.85-2.93-1.94-6.41-.09-10.14A23.67,23.67,0,0,0,48.24,32.9Z"/><ellipse class="cls-13" cx="28.03" cy="30.83" rx="2.59" ry="1.93" transform="matrix(1, -0.03, 0.03, 1, -1.01, 0.95)"/><path class="cls-14" d="M29.2,30.61a1.2,1.2,0,1,1-1.35-1A1.2,1.2,0,0,1,29.2,30.61Z"/><ellipse class="cls-13" cx="43.84" cy="30.83" rx="2.59" ry="1.93" transform="translate(-1 1.47) rotate(-1.9)"/><path class="cls-14" d="M45,30.61a1.2,1.2,0,1,1-1.35-1A1.2,1.2,0,0,1,45,30.61Z"/><path class="cls-15" d="M36,33.42a6.7,6.7,0,0,1-3.94,2.74c2.09,1.32,4.18,5.32,4.18,5.32s2-4,4.09-5.32C40.33,36.16,37.28,35.57,36,33.42Z"/><line class="cls-16" x1="36.3" y1="59.29" x2="36.3" y2="108.07"/><path class="cls-1" d="M38.25,9.64H34.14A14.67,14.67,0,0,0,19.47,24.31h0A14.65,14.65,0,0,0,26.78,37L26,31c-1-.55-1.5-1.19-1.5-1.87,0-2.1,5.22-3.81,11.67-3.81S47.86,27,47.86,29.11c0,.68-.55,1.32-1.5,1.87l-.75,6a14.65,14.65,0,0,0,7.31-12.68h0A14.67,14.67,0,0,0,38.25,9.64Z"/><g class="cls-17"><path class="cls-18" d="M44.36,0V16.51A5.34,5.34,0,0,1,39,21.85H33.29a5.34,5.34,0,0,1-5.34-5.34V0"/><path class="cls-19" d="M26,31c-1-.55-1.5-1.19-1.5-1.87,0-2.1,5.22-3.81,11.67-3.81S47.86,27,47.86,29.11c0,.68-.55,1.32-1.5,1.87"/></g><path class="cls-19" d="M46.89,30.55V41.67A10.73,10.73,0,0,1,36.15,52.4h0A10.73,10.73,0,0,1,25.42,41.67V30.55"/><g id="Glasses"><path class="cls-15" d="M32.8,29.2a29.17,29.17,0,0,0-3.38-.3H28.16A5.33,5.33,0,0,0,23,34.22a4.71,4.71,0,0,0,4.71,4.71h.12a5.32,5.32,0,0,0,2.46-.68,7.17,7.17,0,0,0,.85-.55,8.6,8.6,0,0,0,.81-.69c1.8-1.72,2.93-4.17,2.93-5.52h0A2.42,2.42,0,0,0,32.8,29.2Z"/><path class="cls-15" d="M44.79,29a5.35,5.35,0,0,0-.71-.06h-.56l-1.08,0c-.93,0-1.77.13-2.49.22l-.45.06a2.42,2.42,0,0,0-2.06,2.29c0,2,2.34,6.17,5.64,7.21a5,5,0,0,0,1.49.23h0a4.71,4.71,0,0,0,4.71-4.71A5.34,5.34,0,0,0,44.79,29Z"/><path class="cls-20" d="M23,34.29h0A4.71,4.71,0,0,0,27.69,39h0c4.06,0,7.13-5.21,7.13-7.44h0a2.42,2.42,0,0,0-2.06-2.29A28.68,28.68,0,0,0,28.23,29,5.33,5.33,0,0,0,23,34.29Z"/><path class="cls-20" d="M49.33,34.29h0A4.71,4.71,0,0,1,44.62,39h0c-4.06,0-7.13-5.21-7.13-7.44h0a2.42,2.42,0,0,1,2.06-2.29A28.68,28.68,0,0,1,44.08,29,5.33,5.33,0,0,1,49.33,34.29Z"/><line class="cls-20" x1="32.8" y1="29.27" x2="39.51" y2="29.27"/><path class="cls-20" d="M34.86,32a1.31,1.31,0,0,1,2.59,0"/></g><rect class="cls-15" x="29.42" y="49.14" width="0.94" height="2.51" transform="translate(29.2 -8.19) rotate(30)"/><path class="cls-21" d="M37.28,22.9l-1.09.42L35.1,22.9a3.42,3.42,0,0,1-2.19-3.19V17.33a.71.71,0,0,1,.71-.71h5.14a.71.71,0,0,1,.71.71V19.7A3.42,3.42,0,0,1,37.28,22.9Z"/><path class="cls-22" d="M5.81,91.59s-.86-2.33-1-2.57a.75.75,0,0,0-.7-.38,5.83,5.83,0,0,0-2.19.91C1,90.12,0,91.23,0,91.46l.27.63L3,90.93a.39.39,0,0,1,.53.22l.5,1.18Z"/><path class="cls-15" d="M8.65,108.58a.35.35,0,0,1,.64-.27l.39.91a.35.35,0,1,1-.64.27ZM3.8,92.92,1.28,94l.79,1.56,6.34,14.26c.29.68.84,1.1,1.48.83s.73-1,.44-1.64l-4-9.78,2.27-1L6.87,93.92a.81.81,0,0,0,.29-1l-.34-.8a.79.79,0,0,0-.95-.52l-1.92.81c.06.15.21.4-.15.55Z"/><path class="cls-15" d="M6.64,98.43l1.21,2.86a.81.81,0,0,0,1.16.32c.86-.37.59-1.06.59-1.06L7.66,96,7,96.25l.45,1.05Z"/><path class="cls-23" d="M5,95.5a.5.5,0,0,1,.23-.66l1.64-.69a.5.5,0,0,1,.63.3l.37.88a.5.5,0,0,1-.23.66L6,96.68a.5.5,0,0,1-.63-.3Z"/><path class="cls-22" d="M.84,93.19l3-1.28.28.67a.19.19,0,0,1-.1.25L1.37,94a.19.19,0,0,1-.25-.1Z"/><path class="cls-22" d="M8.83,106.91a.5.5,0,0,1-.19.67.5.5,0,0,1-.61-.33L4.87,99.71A.5.5,0,0,1,5.06,99a.5.5,0,0,1,.61.33Z"/><path class="cls-24" d="M52.81,90.81l0-.14c0-.17.43-.16.48-.37s0-.29-.3-.36l-.83-.18-.83-.18c-.32-.07-.37,0-.42.2s.32.36.28.53l0,.14c0,.15-.43.15-.46.32l-.81,3.68c-.11.51.23.71,1.05.89s1.22.14,1.33-.37l.81-3.68C53.14,91.13,52.78,91,52.81,90.81Z"/><path class="cls-25" d="M50.56,94.73a.19.19,0,0,1-.24.12h0a.19.19,0,0,1-.17-.21l.76-3.49a.19.19,0,0,1,.24-.12h0a.19.19,0,0,1,.17.21Z"/><path class="cls-25" d="M51.27,94.88A.19.19,0,0,1,51,95h0a.19.19,0,0,1-.17-.21l.76-3.49a.19.19,0,0,1,.24-.12h0a.19.19,0,0,1,.17.21Z"/><path class="cls-25" d="M52,95a.19.19,0,0,1-.24.12h0a.19.19,0,0,1-.17-.21l.76-3.49a.19.19,0,0,1,.24-.12h0a.19.19,0,0,1,.17.21Z"/><polygon class="cls-26" points="53.72 81.52 51.83 90.07 52.42 90.2 54.32 81.65 54.55 81.36 54.55 80.2 54.34 80.15 54.12 80.1 53.63 81.16 53.72 81.52"/><path class="cls-25" d="M53.31,90.31a.28.28,0,0,1-.34.18l-1.8-.39a.28.28,0,0,1-.24-.31l0-.07a.28.28,0,0,1,.34-.18l1.8.39a.28.28,0,0,1,.24.31Z"/><path class="cls-26" d="M16.89,87l-2.11-.42c-.19,0-.4.43-1.32.25a1.5,1.5,0,0,1-.93-.55L12.19,88a2.46,2.46,0,0,1,1,0,1.52,1.52,0,0,1,.75.36l-.27,1.37a.39.39,0,0,0,.31.46l1.56.31a.39.39,0,0,0,.45-.31l.31-1.59a1,1,0,0,1,1-.18,2.1,2.1,0,0,1,1.58,1.86l.25.05C19.58,88,17.28,87.11,16.89,87Z"/><rect class="cls-27" x="11.15" y="92.5" width="6.13" height="1.36" transform="translate(-79.94 89.04) rotate(-78.81)"/><path class="cls-22" d="M12.89,106.49a.39.39,0,0,1-.46.31l-1.75-.35a.39.39,0,0,1-.31-.46l2.1-10a.39.39,0,0,1,.46-.31l1.5.3a.39.39,0,0,1,.31.46Z"/><rect class="cls-26" x="10.62" y="86.22" width="2.23" height="1.84" rx="0.39" ry="0.39" transform="translate(-76.02 81.74) rotate(-78.81)"/><path class="cls-2" d="M15.75,118,5,118a1.77,1.77,0,0,1-1.77-1.77V101.81A1.77,1.77,0,0,1,5,100h8.68c1,0,2.64,2.25,2.74,3.22.7,6.87,1.06,12.93,1.06,12.93A1.77,1.77,0,0,1,15.75,118Z"/><g class="cls-28"><line class="cls-29" x1="2.58" y1="106.94" x2="17.52" y2="106.94"/></g><rect class="cls-4" x="18.82" y="92.33" width="11.3" height="3"/><rect class="cls-5" x="18.82" y="95.32" width="11.3" height="9.03"/><rect class="cls-4" x="42.34" y="92.33" width="11.3" height="3"/><rect class="cls-5" x="42.34" y="95.32" width="11.3" height="9.03"/><path class="cls-1" d="M51.08,60.34a42,42,0,0,1-6.1,16c-4.61,7.42-14.21,17.87-31.58,24.8a1.65,1.65,0,0,0-.87,2.28l0,0a1.66,1.66,0,0,0,2.08.78c18.3-7.3,28.42-18.4,33.29-26.31A69.12,69.12,0,0,0,54.65,61.6Z"/><circle class="cls-2" cx="14.21" cy="102.58" r="0.57"/><rect class="cls-1" x="5.61" y="108.49" width="1.13" height="2.51"/><rect class="cls-1" x="13.08" y="108.49" width="1.13" height="2.51"/></g></g></svg>