<?xml version="1.0" encoding="utf-8"?>
<!-- Generator: Adobe Illustrator 16.0.0, SVG Export Plug-In . SVG Version: 6.00 Build 0)  -->
<!DOCTYPE svg PUBLIC "-//W3C//DTD SVG 1.1//EN" "http://www.w3.org/Graphics/SVG/1.1/DTD/svg11.dtd">
<svg version="1.1" id="Layer_1" xmlns="http://www.w3.org/2000/svg" xmlns:xlink="http://www.w3.org/1999/xlink" x="0px" y="0px"
	 width="125px" height="125px" viewBox="0 0 125 125" enable-background="new 0 0 125 125" xml:space="preserve">
<path fill="#2C2C2D" d="M60.87,123.613c0.118-0.072,0.754-0.382,1.601,0.008v-6.041c0.714,0.074,1.437-5.435,2.166-5.435
	c0.733,0,1.455,5.509,2.165,5.435v6.041c0.839-0.39,1.47-0.09,1.603-0.015c0.662-3.514,2.891-6.504,5.968-8.274l-0.049,0.009
	c6.336-3.31,10.637-9.75,10.637-17.164c0-10.783-9.101-19.525-20.325-19.525c-11.217,0-20.318,8.742-20.318,19.525
	c0,7.414,4.303,13.854,10.636,17.164l-0.061-0.009C57.977,117.103,60.204,120.095,60.87,123.613z"/>
<path fill="#513125" d="M34.87,95.722c6.442,1.928,12.051-0.141,12.051-0.141l10.48-12.336l-0.311-17.15
	c-8.411,7.43-15.862,8.402-21.723,6.967c1.796,3.229,2.829,6.947,2.829,10.91C38.196,88.278,36.98,92.304,34.87,95.722z"/>
<path fill="#CDCCCC" d="M51.175,79.886c0-7.425,6.041-13.463,13.462-13.463c7.426,0,13.467,6.039,13.467,13.463
	c0,7.426-6.039,13.467-13.467,13.467C57.216,93.353,51.175,87.312,51.175,79.886z M51.376,79.886c0,7.312,5.95,13.262,13.261,13.262
	c7.316,0,13.266-5.949,13.266-13.262c0-7.31-5.948-13.263-13.266-13.263C57.326,66.623,51.376,72.574,51.376,79.886z"/>
<path fill="#704531" d="M40.25,91.538c0,9.201,4.226,17.313,10.659,22.143c3.959-1.461,11.836-5.91,13.765-18.571
	c0,0,1.081,13.626,13.907,18.463c6.351-4.845,10.519-12.9,10.519-22.034c0-14.802-10.937-26.8-24.425-26.8
	C51.184,64.739,40.25,76.737,40.25,91.538z"/>
<g>
	<path fill="#444750" d="M64.462,61.933c0.649,0,1.171,0.526,1.171,1.17c0,0.648-0.521,1.174-1.171,1.174
		c-0.647,0-1.17-0.525-1.17-1.174C63.291,62.459,63.814,61.933,64.462,61.933z"/>
	<path fill="#DCDBDB" d="M64.462,62.829c0.154,0,0.276,0.124,0.276,0.274c0,0.158-0.123,0.276-0.276,0.276
		c-0.151,0-0.274-0.12-0.274-0.276C64.188,62.953,64.311,62.829,64.462,62.829z"/>
</g>
<g>
	<path fill="#444750" d="M64.462,68.603c0.649,0,1.171,0.524,1.171,1.172c0,0.646-0.521,1.17-1.171,1.17
		c-0.647,0-1.17-0.527-1.17-1.17C63.291,69.127,63.814,68.603,64.462,68.603z"/>
	<path fill="#DCDBDB" d="M64.462,69.496c0.154,0,0.276,0.123,0.276,0.276c0,0.148-0.123,0.271-0.276,0.271
		c-0.151,0-0.274-0.121-0.274-0.271C64.188,69.619,64.311,69.496,64.462,69.496z"/>
</g>
<path fill="#E7E7E7" d="M54.332,49.04c1.942,3.906,0.332,7.504-0.401,10.392l10.66,18.788v-0.065l10.663-18.793
	c-0.855-3.153-1.671-6.212,0.053-10.285c0.633-2.167,0.756-4.367,0.615-7.27c0.156-3.091-0.064-6.433-1.273-8.736
	c-0.616-1.753-2.582-2.852-4.601-3.536c-1.278-1.014-4.209-2.884-7.637-2.045c0,0,1.151,0.406,2.179,0.998
	c-0.225,0.025-0.582,0.063-1.027,0.127c-1.44-0.525-3.382-0.626-5.587,0.859c0,0,0.789-0.006,1.708,0.014
	c-2.067,0.68-4.114,1.789-4.738,3.583c-1.211,2.304-1.422,5.646-1.272,8.736C53.546,44.275,53.656,46.906,54.332,49.04z"/>
<path fill="#FFFFFF" d="M59.961,39.843c0.034,0.969-0.995,1.785-2.292,1.833c-1.295,0.041-2.379-0.709-2.408-1.679
	c-0.034-0.968,0.994-1.793,2.288-1.834C58.851,38.121,59.93,38.872,59.961,39.843z"/>
<path fill="#2B2C35" d="M58.681,39.72c0.082,0.597-0.33,1.145-0.932,1.231c-0.595,0.086-1.147-0.339-1.226-0.929
	c-0.083-0.601,0.326-1.143,0.926-1.229C58.047,38.715,58.597,39.125,58.681,39.72z"/>
<path fill="#FFFFFF" d="M74.338,39.843c0.028,0.969-0.996,1.785-2.296,1.833c-1.297,0.041-2.372-0.709-2.401-1.679
	c-0.035-0.968,0.991-1.793,2.285-1.834C73.221,38.121,74.3,38.872,74.338,39.843z"/>
<path fill="#2B2C35" d="M73.052,39.72c0.082,0.597-0.329,1.145-0.927,1.231c-0.593,0.086-1.146-0.339-1.232-0.929
	c-0.076-0.601,0.336-1.143,0.931-1.229C72.423,38.715,72.973,39.125,73.052,39.72z"/>
<path fill="#444750" d="M64.854,42.268c-1.166,1.965-3.583,2.494-3.583,2.494c1.9,1.2,3.803,4.833,3.803,4.833
	s1.818-3.633,3.722-4.833C68.796,44.762,66.02,44.232,64.854,42.268z"/>
<path fill="#E7E7E7" d="M37.367,73.058c0,0,7.449,11.459-0.089,22.773c0,0-10.482-3.631-14.033-10.855
	c-3.947-8.032-0.442-9.93-0.442-9.93s0.043,2.17,1.004,3.838c0.579,1,1.121,1.73,1.527,2.078c0,0-1.005-1.295-1.551-2.656
	c-1.384-3.416-0.101-8.592-0.072-8.176c0.288,4.027,4.343,7.607,2.154,4.754c-1.237-1.602-2.067-4.211-1.815-5.838
	c0.268-1.73,2.746-4.051,3.126-3.958c0.784,0.195-0.451,0.355-0.346,3.538c0.101,2.995,1.287,4.29,1.287,4.29
	s-0.76-0.246-0.929-4.343c-0.17-4.018,3.339-4.69,5.1-4.075c0.038,0.017,0.216,0.044,0.216,0.044v2.285c0,0-0.09,0.053-0.137,0.081
	c-0.646,0.42-0.859,1.241,0.229,2.821C34.28,72.175,37.367,73.058,37.367,73.058"/>
<path fill="#0F0C0A" d="M34.218,72.61c0,0,6.973,12.754-0.096,22.771c0,0,0.997,0.58,3.824,0.992c0,0,6.745-11.83,0-22.86
	C37.946,73.513,35.206,73.126,34.218,72.61z"/>
<g>
	<path fill="#E7E7E7" d="M59.033,89.136c-0.028-0.039-0.044-0.059-0.044-0.059c0.045,0.117,0.086,0.229,0.131,0.344
		c0.587,1.871,1.565,4.057,3.162,6.443c0.003,0.014,0.011,0.021,0.018,0.029c3.437,5.414,7.638,8.031,11.533,9.192
		c2.103-3.416,3.319-7.438,3.319-11.75c0-3.959-1.026-7.68-2.83-10.905c-8.41-2.059-13.552-9.061-13.552-9.061
		c-0.322,4.006,3.333,8.344,3.333,8.344c-2.152-0.211-4.297-6.088-4.297-6.088c-1.222,5.541,3.578,9.738,3.578,9.738
		c-2.006-0.648-4.668-5.445-4.668-5.445c-0.459,4.156,4.81,9.518,4.81,9.518c-2.146-0.31-5.182-6.422-5.182-6.422
		S57.915,85.397,59.033,89.136z"/>
</g>
<path fill="#2D2217" d="M73.789,82.29c0,0,2.516,0.637,4.247,0.676c0,0,6.332,8.719-0.315,22.959c0,0-2.273-0.096-4.59-1.062
	C73.13,104.863,78.73,94.032,73.789,82.29z"/>
<g>
	<path fill="#2C2C2D" d="M66.092,124.55l0.09-0.054l-0.09-0.076v-1.553c0-0.195,0.16-0.354,0.357-0.354c0,0,0.488,0.416,1.354,0.416
		c0.866,0,1.266-0.416,1.498-0.416c0.045,0-0.007-0.201,0.209,0c1.331,1.243,4.301,1.496,4.301,1.496
		c0.166,0,0.275,0.264,0.123,0.442c-0.023,0.024-0.08,0.065-0.08,0.099l0.088,0.094c0,0.197-0.158,0.356-0.354,0.356h-7.138
		c-0.197,0-0.357-0.159-0.357-0.356V124.55z"/>
	<path fill="#2C2C2D" d="M63.184,124.644c0,0.197-0.16,0.356-0.355,0.356H55.69c-0.196,0-0.355-0.159-0.355-0.356l0.089-0.094
		c0-0.031-0.058-0.072-0.08-0.099c-0.153-0.181-0.044-0.442,0.122-0.442c0,0,2.971-0.253,4.302-1.496c0.215-0.201,0.165,0,0.208,0
		c0.233,0,0.632,0.416,1.498,0.416c0.867,0,1.354-0.416,1.354-0.416c0.197,0,0.355,0.159,0.355,0.354v1.553l-0.088,0.076
		l0.088,0.054V124.644z"/>
</g>
<path fill="#BF202C" d="M60.915,25.992L58.052,6.768c0,0,7.362-1.454,13.406,0l-2.545,18.996L60.915,25.992z"/>
<path fill="#C07B2A" d="M59.529,30.485"/>
<line fill="none" stroke="#000000" stroke-width="0.0504" stroke-miterlimit="10" x1="62.631" y1="16.989" x2="63.1" y2="25.335"/>
<line fill="none" stroke="#000000" stroke-width="0.05" stroke-miterlimit="10" x1="63.318" y1="17.146" x2="63.85" y2="25.355"/>
<line fill="none" stroke="#000000" stroke-width="0.05" stroke-miterlimit="10" x1="64.381" y1="17.146" x2="64.755" y2="25.355"/>
<line fill="none" stroke="#000000" stroke-width="0.05" stroke-miterlimit="10" x1="67.443" y1="17.302" x2="66.881" y2="25.355"/>
<path fill="none" stroke="#000000" stroke-width="0.05" stroke-miterlimit="10" d="M68.1,17.302
	c-0.094,0.156-0.732,8.054-0.732,8.054"/>
<line fill="none" stroke="#000000" stroke-width="0.05" stroke-miterlimit="10" x1="68.788" y1="17.583" x2="68.1" y2="22.771"/>
<line fill="none" stroke="#000000" stroke-width="0.05" stroke-miterlimit="10" x1="69.539" y1="17.708" x2="69.018" y2="20.177"/>
<path fill="#A01D25" d="M58.052,6.768c0,0,1.861-0.28,2.626-0.378c0.098-0.013,0.179-0.022,0.234-0.028
	c0.489-0.049,1.953,18.931,1.953,18.931l-1.95,0.699L58.052,6.768z"/>
<polygon fill="#8D3E1F" points="59.336,30.308 64.21,25.412 65.982,25.412 71.605,30.748 65.13,33.456 "/>
<line fill="none" stroke="#000000" stroke-width="0.05" stroke-miterlimit="10" x1="60.154" y1="16.989" x2="60.674" y2="20.176"/>
<line fill="none" stroke="#000000" stroke-width="0.05" stroke-miterlimit="10" x1="60.913" y1="16.989" x2="62.324" y2="25.355"/>
<line fill="none" stroke="#000000" stroke-width="0.05" stroke-miterlimit="10" x1="61.618" y1="16.989" x2="62.631" y2="25.355"/>
<path fill="#A01D25" d="M64.848,6.125c0,0,3.273,0.078,3.252,0.237l-1.406,18.931h-1.223L64.848,6.125z"/>
<line fill="none" stroke="#000000" stroke-width="0.0503" stroke-miterlimit="10" x1="65.318" y1="25.293" x2="65.068" y2="17.302"/>
<line fill="none" stroke="#000000" stroke-width="0.05" stroke-miterlimit="10" x1="65.756" y1="17.302" x2="65.756" y2="25.355"/>
<line fill="none" stroke="#000000" stroke-width="0.0503" stroke-miterlimit="10" x1="66.256" y1="25.293" x2="66.693" y2="17.302"/>
<path fill="#8D3E1F" d="M54.179,43.455c-0.413,0.031-0.826,0.064-1.239,0.095l-0.323,5.695c-0.422,12.071,10.38,17.366,10.38,17.366
	l-1.898-21.943C55.996,44.636,54.314,44.337,54.179,43.455z"/>
<path fill="#8D3E1F" d="M76.548,43.733c-0.036-0.005-0.073-0.009-0.11-0.015c-0.295-0.044-0.59-0.092-0.885-0.14
	c-0.263,1.302-1.214,1.058-6.877,0.965l-1.898,21.943c0,0,10.803-5.295,10.381-17.366L76.548,43.733z"/>
<polygon fill="#D2983C" points="59.352,44.643 62.026,66.056 62.999,66.611 61.101,44.636 "/>
<polygon fill="#D2983C" points="70.348,44.626 67.75,65.931 66.777,66.487 68.675,44.512 "/>
<path fill="#282320" d="M40.25,91.068v18.702h50.58L88.861,90.46h-9.064c0,0-3.949,8.693-15.333,9.256c0,0-7.079,1.825-15.336-8.695
	L40.25,91.068z"/>
<path fill="#CDCACA" d="M49.493,92.394l-5.833,17.731l3.966,7.233l6.066-3.733l3.733,5.833l6.066-3.966l6.3,3.966l5.366-4.666
	l6.766,2.801l4.433-8.166l-5.832-17.033C80.525,92.394,62.093,102.192,49.493,92.394z"/>
<polygon fill="#CDCACA" points="40.25,93.563 38.644,109.542 42.144,114.208 45.098,112.746 49.127,95.609 48.2,93.563 "/>
<path fill="#CDCACA" d="M89.021,93.563"/>
<polygon fill="#CDCACA" points="89.229,93.041 90.936,109.828 87.217,114.731 84.078,113.195 79.796,95.19 80.782,93.041 "/>
<polygon fill="#E7E7E7" points="40.25,93.563 89.021,93.563 89.021,90.46 40.25,90.729 "/>
<line fill="none" stroke="#2C2C2D" stroke-width="0.3259" stroke-miterlimit="10" x1="49.579" y1="95.271" x2="45.098" y2="112.746"/>
<line fill="none" stroke="#2C2C2D" stroke-width="0.25" stroke-miterlimit="10" x1="54.829" y1="101.894" x2="53.693" y2="113.625"/>
<line fill="none" stroke="#2C2C2D" stroke-width="0.25" stroke-miterlimit="10" x1="63.492" y1="115.491" x2="63.184" y2="104.759"/>
<line fill="none" stroke="#2C2C2D" stroke-width="0.25" stroke-miterlimit="10" x1="75.158" y1="114.791" x2="72.654" y2="102.761"/>
<line fill="none" stroke="#2C2C2D" stroke-width="0.25" stroke-miterlimit="10" x1="84.078" y1="113.195" x2="79.68" y2="95.831"/>
<path fill="#513125" d="M73.789,101.358c6.23,1.66,12.125-0.119,12.125-0.119c6.253-10.579,1.359-20.037,1.359-20.037
	c-3.041,1.137-5.902,1.477-8.162,1.498c-2.916,0.027-4.829-0.477-4.829-0.477C80.852,93.169,73.79,101.358,73.789,101.358z"/>
<g>
	<circle fill="#95969A" cx="64.463" cy="87.425" r="17.382"/>
	<circle fill="#2A2E35" cx="64.462" cy="87.425" r="15.334"/>
	<circle fill="#95969A" cx="64.462" cy="87.751" r="1.896"/>
	<circle fill="#95969A" cx="64.188" cy="77.934" r="0.536"/>
	<circle fill="#95969A" cx="73.143" cy="82.779" r="0.536"/>
	<circle fill="#95969A" cx="73.143" cy="92.307" r="0.536"/>
	<circle fill="#95969A" cx="64.463" cy="97.188" r="0.536"/>
	<circle fill="#95969A" cx="54.829" cy="91.771" r="0.536"/>
	<circle fill="#95969A" cx="55.365" cy="82.779" r="0.536"/>
</g>
<path fill="#8D3E1F" d="M63.034,25.412l-9.175,10.095c0,0,6.858-0.335,8.868,0l1.091,7.025l1.261,1.367l0.911-1.282l1.242-7.111
	c0,0,7.34-0.01,8.975-0.237L63.034,25.412z"/>
<g>
	<path fill="#8D3E1F" d="M64.846,25.355h2.521l1.409-5.272l0.591,0.227l-0.591,4.59l1.091,0.364v0.5
		c4.817,1.863,5.452,6.817,5.452,6.817l0.365,0.409l0.408,1.5c0.545,1.091-0.408,1.681-0.408,1.681"/>
	<path fill="#8D3E1F" d="M54.008,36.171c0,0-0.954-0.591-0.409-1.681l0.409-1.5l0.364-0.409c0,0,0.636-4.953,5.453-6.817v-0.5
		l1.091-0.364l-0.591-4.59l0.591-0.227l1.409,5.272h2.521"/>
	<path fill="#72311C" d="M54.371,32.581l4.454-2c0,0,1.041-0.375,2.206,0.35c0.052,0.033,0.105,0.067,0.158,0.104
		c1.227,0.863,3.657,1.863,3.657,1.863l3.75-1.863c0,0,1.409-0.954,3.09,0.091l3.998,1.863l0.408,1.5l-4.861-2.363
		c0,0-1.408-0.5-3.453,0.818l-2.932,1.227l-4.362-1.954c0,0-1.705-0.324-2.613,0.27l-4.272,2.003"/>
	<path fill="none" stroke="#513318" stroke-width="0.09" stroke-miterlimit="10" d="M59.825,25.764c0,0,1.318,3.454,0.227,4.817"/>
	<path fill="none" stroke="#513318" stroke-width="0.09" stroke-miterlimit="10" d="M69.869,25.764c0,0-1.318,3.454-0.227,4.817"/>
</g>
<g>
	<polygon fill="#515251" points="31.014,12.023 34.048,5.94 36.726,12.023 36.726,57.648 31.014,57.648 	"/>
	<polyline fill="#515251" points="33.975,75.897 32.495,75.897 32.495,63.898 28.62,63.898 28.62,61.523 32.87,61.523 
		32.182,59.273 32.182,57.648 35.557,57.648 35.557,59.273 34.87,61.523 39.12,61.523 39.12,63.898 35.245,63.898 35.245,75.897 
		33.764,75.897 	"/>
</g>
<path fill="#E7E7E7" d="M31.487,64.323l0.218,3.451c0,0,0.279-1.098,2.171-1.307c0.353-0.062,1.37-0.101,1.37-0.101
	s-0.715-0.894-2.282-1.625C32.084,64.323,31.484,64.323,31.487,64.323z"/>
<line fill="none" stroke="#A09E9E" stroke-width="0.25" stroke-miterlimit="10" x1="33.87" y1="55.624" x2="33.87" y2="12.464"/>
</svg>
