<svg xmlns="http://www.w3.org/2000/svg" viewBox="0 0 183.64 148.94"><defs><style>.cls-1{fill:#4787c7;}.cls-2{fill:#88c3eb;}.cls-3{fill:#e3e3e3;}.cls-4{fill:#676767;}.cls-5{fill:#d6573d;}.cls-19,.cls-28,.cls-35,.cls-6,.cls-9{fill:none;}.cls-19,.cls-6{stroke:#fff;}.cls-19,.cls-28,.cls-6,.cls-9{stroke-miterlimit:10;}.cls-6{stroke-width:5.29px;}.cls-7{fill:#e6e6e5;}.cls-8{fill:#434851;}.cls-9{stroke:#cbcaca;stroke-width:3.45px;}.cls-10{font-size:2px;}.cls-10,.cls-11,.cls-12{fill:#479595;}.cls-10,.cls-11{font-family:Georgia, Georgia;}.cls-11{font-size:2px;}.cls-13{fill:#2a2e35;}.cls-14{fill:#397e7c;}.cls-15{fill:#454751;}.cls-16{fill:#dadbd9;}.cls-17{fill:#fff;}.cls-18{fill:#2b2b35;}.cls-19{stroke-width:5.04px;}.cls-20{fill:#df584c;}.cls-21{fill:#e57c2b;}.cls-22{fill:#fac348;}.cls-23{fill:#f6b45c;}.cls-24{fill:#d6d6d6;}.cls-25{fill:#fbb856;}.cls-26{fill:#2c2c2d;}.cls-27{fill:#94d6db;}.cls-28{stroke:#57c0c3;}.cls-29{fill:#f9f7e4;}.cls-30{fill:#ede7c0;}.cls-31{fill:#57c0c3;}.cls-32{fill:#3d9b9b;}.cls-33{fill:#932142;}.cls-34{fill:#c2c0c0;}.cls-35{stroke:#ede7c0;stroke-linecap:round;stroke-linejoin:round;stroke-width:3px;}</style></defs><title>Asset 3</title><g id="Layer_2" data-name="Layer 2"><g id="Layer_1-2" data-name="Layer 1"><path class="cls-1" d="M67.06,94l0-.14c0-.17.43-.16.48-.37s0-.29-.3-.36l-.83-.18-.83-.18c-.32-.07-.37,0-.42.2s.32.36.28.53l0,.14c0,.15-.43.15-.46.32l-.81,3.68c-.11.51.23.71,1.05.89s1.22.14,1.33-.37l.81-3.68C67.38,94.31,67,94.15,67.06,94Z"/><path class="cls-2" d="M64.81,97.91a.19.19,0,0,1-.24.12h0a.19.19,0,0,1-.17-.21l.76-3.49a.19.19,0,0,1,.24-.12h0a.19.19,0,0,1,.17.21Z"/><path class="cls-2" d="M65.52,98.07a.19.19,0,0,1-.24.12h0a.19.19,0,0,1-.17-.21l.76-3.49a.19.19,0,0,1,.24-.12h0a.19.19,0,0,1,.17.21Z"/><path class="cls-2" d="M66.27,98.23a.19.19,0,0,1-.24.12h0a.19.19,0,0,1-.17-.21l.76-3.49a.19.19,0,0,1,.24-.12h0a.19.19,0,0,1,.17.21Z"/><polygon class="cls-3" points="67.97 84.7 66.07 93.25 66.67 93.38 68.57 84.83 68.8 84.55 68.8 83.38 68.58 83.33 68.37 83.29 67.88 84.35 67.97 84.7"/><path class="cls-2" d="M67.56,93.49a.28.28,0,0,1-.34.18l-1.8-.39a.28.28,0,0,1-.24-.31l0-.07a.28.28,0,0,1,.34-.18l1.8.39a.28.28,0,0,1,.24.31Z"/><path class="cls-3" d="M31.14,90.22,29,89.8c-.19,0-.4.43-1.32.25a1.5,1.5,0,0,1-.93-.55l-.34,1.7a2.46,2.46,0,0,1,1,0,1.52,1.52,0,0,1,.75.36L28,93a.39.39,0,0,0,.31.46l1.56.31a.39.39,0,0,0,.45-.31l.31-1.59a1,1,0,0,1,1-.18,2.1,2.1,0,0,1,1.58,1.86l.25.05C33.83,91.23,31.53,90.29,31.14,90.22Z"/><rect class="cls-4" x="25.4" y="95.68" width="6.13" height="1.36" transform="translate(-71.58 105.59) rotate(-78.81)"/><path class="cls-5" d="M27.14,109.68a.39.39,0,0,1-.46.31l-1.75-.35a.39.39,0,0,1-.31-.46l2.1-10a.39.39,0,0,1,.46-.31l1.5.3a.39.39,0,0,1,.31.46Z"/><rect class="cls-3" x="24.87" y="89.4" width="2.23" height="1.84" rx="0.39" ry="0.39" transform="translate(-67.66 98.28) rotate(-78.81)"/><path class="cls-6" d="M77.23,122.47s5.3-.7,4.3-4.1S77.23,122.47,77.23,122.47Z"/><path class="cls-6" d="M76.53,122.47s-5.3-.7-4.3-4.1S76.53,122.47,76.53,122.47Z"/><path class="cls-6" d="M130.73,130.67s5.3-.7,4.3-4.1S130.73,130.67,130.73,130.67Z"/><path class="cls-6" d="M130.13,130.67s-5.3-.7-4.3-4.1S130.13,130.67,130.13,130.67Z"/><path class="cls-7" d="M80.43,110.27a95.52,95.52,0,0,1,14.1-1h0a13.65,13.65,0,0,0,1.7-1.7,1.38,1.38,0,0,0,.3-.4,5.5,5.5,0,0,1,.7-.9c2-2.9,3.7-6,5.9-8.8,2-2.5,6.3-1,7,1.8.7,3.1,1.4,6.2,2.2,9.3.2.6.3,1.2.5,1.8,1.8.2,3.6.4,5.4.7,2.5.3,4,.6,6.5.8,3.4.3,6.9.4,10.3.7a42.38,42.38,0,0,0,3.8-17.6,40.35,40.35,0,0,0-12.4-29.6c-3.7-5.1-5.6-12.2-7-16.5a2.92,2.92,0,0,1-.2-.9v-.1c-.1-.3-.1-.5-.2-.8-.2-.7-.4-1.3-.6-2-.9-3.3-1.5-7,.5-10.9a30.85,30.85,0,0,0,.9-10.2c.2-4.4-.1-9.1-1.8-12.3-.9-2.5-3.8-4.1-6.7-5.1h2.4c-3.1-2.1-5.9-2-7.9-1.2a4.29,4.29,0,0,0-1.5-.2c2.22-.59,1.52-5.17,1.52-5.17-1.41,5.35-7,6-9.22,6.67-2.95.85-5.6,2.5-6.5,5-1.7,3.3-2,8-1.8,12.3a30.22,30.22,0,0,0,.9,10.3,17.34,17.34,0,0,1,1,10.8c-.1.3-.1.6-.2.9v.1c-.1.3-.1.6-.2.9v.1c-.1.3-.1.6-.2.9v.1a2.92,2.92,0,0,0-.2.9h0c-1.3,4.3-3.2,11.2-7,16.5a40.49,40.49,0,0,0-12.5,29.7,42.62,42.62,0,0,0,3.3,16.5C75.53,111.17,77.93,110.67,80.43,110.27Z"/><path class="cls-8" d="M118.13,128h0c8.9-4.7,16.7-13.8,16.7-24.2,0-15.2-14.6-27.6-30.5-27.6s-30.5,12.3-30.5,27.6c0,10.5,7.8,19.6,16.8,24.2h-.1a17.18,17.18,0,0,1,8.4,11.7,2.76,2.76,0,0,1,2.3,0v-8.5a30.28,30.28,0,0,0,3.1.2c1,0,2.1-.1,3.1-.2v8.5a2.76,2.76,0,0,1,2.3,0A17.09,17.09,0,0,1,118.13,128Z"/><path class="cls-9" d="M123.23,78a18.9,18.9,0,1,1-18.9-18.9A18.88,18.88,0,0,1,123.23,78Z"/><text class="cls-10" transform="matrix(-0.93, 0.36, -0.36, -0.93, 125.38, 103.11)">VI</text><text class="cls-10" transform="matrix(-0.28, -0.96, 0.96, -0.28, 127.89, 100.53)">III</text><text class="cls-11" transform="translate(120.11 102.34) rotate(71.44)">IX</text><path class="cls-12" d="M124,101.17c0-.1,0-.2.1-.2s.2,0,.2.1,0,.2-.1.2S124,101.27,124,101.17Z"/><rect class="cls-12" x="123.62" y="99.27" width="0.2" height="1.9" transform="translate(-27.61 50.72) rotate(-20.9)"/><polygon class="cls-13" points="125.43 100.57 125.43 100.67 124.13 101.17 124.13 101.07 125.43 100.57"/><polyline class="cls-12" points="123.63 99.27 123.33 98.97 123.23 99.57 123.73 99.27"/><polyline class="cls-12" points="125.43 100.77 125.73 100.37 125.23 100.27 125.43 100.77"/><path class="cls-14" d="M115.33,100.77s11.9.9,19.4-4.9V98s-5.9,5.8-19.4,4.8Z"/><circle class="cls-15" cx="104.63" cy="63.67" r="1.7"/><circle class="cls-16" cx="104.63" cy="63.67" r="0.4"/><path class="cls-17" d="M97.13,21.37c0,1.4-1.4,2.5-3.2,2.6s-3.4-1-3.4-2.4,1.4-2.5,3.2-2.6S97,20.07,97.13,21.37Z"/><path class="cls-18" d="M95.33,21.27a1.51,1.51,0,1,1-1.7-1.3A1.42,1.42,0,0,1,95.33,21.27Z"/><path class="cls-17" d="M117.43,21.37c0,1.4-1.4,2.5-3.2,2.6s-3.4-1-3.4-2.4,1.4-2.5,3.2-2.6S117.33,20.07,117.43,21.37Z"/><path class="cls-18" d="M115.63,21.27a1.51,1.51,0,1,1-1.7-1.3A1.42,1.42,0,0,1,115.63,21.27Z"/><path class="cls-8" d="M104,24.87c-1.6,2.7-5.1,3.5-5.1,3.5,2.7,1.7,5.4,6.8,5.4,6.8s2.6-5.1,5.3-6.8C109.63,28.37,105.63,27.57,104,24.87Z"/><path class="cls-14" d="M115.33,100.77s11.9.9,19.4-4.9V98s-5.9,5.8-19.4,4.8Z"/><path class="cls-19" d="M145.23,117.37s5-.7,4.1-3.9S145.23,117.37,145.23,117.37Z"/><path class="cls-19" d="M144.63,117.37s-5-.7-4.1-3.9S144.63,117.37,144.63,117.37Z"/><path class="cls-7" d="M169.43,75.34c1.6-5.3,1-8.6,1-8.6s-4.3,8.6-7.3,9.1c0,0,7.4-7.6,6.8-13.4,0,0-3.8,6.8-6.6,7.7,0,0,6.8-5.9,5.1-13.8,0,0-3,8.3-6.1,8.6,0,0,5.2-6.1,4.7-11.8,0,0-20.9,28.5-49.8,3l.6,24.2,13.8,17.5s20.4,7.5,33.3-12.8h0a38,38,0,0,0,4.5-9.1,1.06,1.06,0,0,1,0-.6Z"/><path class="cls-20" d="M155.56,52.41a.42.42,0,0,1-.55.24l-10.54-4.16a.42.42,0,0,1-.24-.55h0a.42.42,0,0,1,.55-.24l10.54,4.16a.42.42,0,0,1,.24.55Z"/><path class="cls-21" d="M161.44,70.88c-.66-1.51-8.1-16.38-9.14-15.93s4.73,16,5.38,17.56,2,2.37,3.07,1.92S162.1,72.4,161.44,70.88Z"/><path class="cls-21" d="M159.44,46.81l-1-.37a4.35,4.35,0,0,1-2.62-3.66l0-1c0-1.49-1.12-2.08-2.4-1.31l-.9.54a4.36,4.36,0,0,1-4.49-.23l-.84-.63a1.45,1.45,0,0,0-2.52,1.06l-.14,1a4.36,4.36,0,0,1-3,3.37l-1,.26a1.45,1.45,0,0,0-.75,2.63l.73.76a4.35,4.35,0,0,1,.77,4.43l-.43,1c-.61,1.36.11,2.36,1.59,2.23l1-.1a4.35,4.35,0,0,1,3.95,2.16l.48.93a1.45,1.45,0,0,0,2.73.14l.58-.88a4.36,4.36,0,0,1,4.15-1.74l1,.2c1.46.29,2.28-.63,1.81-2l-.33-1a4.36,4.36,0,0,1,1.23-4.33l.8-.68A1.45,1.45,0,0,0,159.44,46.81Zm-7.6,7.87a5,5,0,1,1,2.6-6.59A5,5,0,0,1,151.85,54.68Z"/><path class="cls-20" d="M147.4,44.42a6.17,6.17,0,1,0,8.12,3.21A6.17,6.17,0,0,0,147.4,44.42Zm4.45,10.26a5,5,0,1,1,2.6-6.59A5,5,0,0,1,151.85,54.68Z"/><circle class="cls-22" cx="149.9" cy="50.18" r="3.63" transform="translate(48.17 171.17) rotate(-68.45)"/><path class="cls-21" d="M150.61,50.46c-.63,1.6-1.58,2.78-2.32,3a.7.7,0,0,0,.33.3c.76.3,2-1,2.77-3s.77-3.76,0-4.06a.69.69,0,0,0-.45,0C151.35,47.35,151.24,48.86,150.61,50.46Z"/><path class="cls-21" d="M146.27,50.37a.5.5,0,0,0,.2.14c.44.17,1-.34,1.37-1.15s.22-1.6-.21-1.77a.5.5,0,0,0-.24,0,3.63,3.63,0,0,0-1.11,2.81Z"/><path class="cls-23" d="M158.86,70.09a2.21,2.21,0,0,1-2.13,0,.71.71,0,0,0,.06.33c.26.59,1.3.71,2.34.26s1.66-1.29,1.41-1.88a.71.71,0,0,0-.21-.27A2.21,2.21,0,0,1,158.86,70.09Z"/><path class="cls-23" d="M158.39,69a2.12,2.12,0,0,1-2,0,.68.68,0,0,0,.05.32c.25.57,1.25.68,2.23.25s1.59-1.24,1.35-1.8a.68.68,0,0,0-.2-.26A2.12,2.12,0,0,1,158.39,69Z"/><path class="cls-23" d="M159.34,71.19a2.27,2.27,0,0,1-2.19,0,.74.74,0,0,0,.06.34c.26.61,1.34.73,2.4.27s1.71-1.33,1.45-1.94a.72.72,0,0,0-.21-.28A2.27,2.27,0,0,1,159.34,71.19Z"/><path class="cls-24" d="M151.32,65a18.25,18.25,0,0,0,8.42-3.83s.75,8.8-6.61,12.39C153.12,73.51,151.61,71,151.32,65Z"/><path class="cls-21" d="M164.34,85.91c-11.77-6.88-12.89-16.67-12.7-21.15-8,3.14-18.7,3.47-31-5.83l-.89,1.32L117.47,66l.36,14.36,13.8,17.5S151.42,105.1,164.34,85.91Z"/><path class="cls-21" d="M78.43,119.37a143.42,143.42,0,0,0,19.8,2.45q2.95.15,5.9.15a159.65,159.65,0,0,0,25.6-2.3c5.8-5.5,9-15.3,9-24.6a40.91,40.91,0,0,0-10.49-27.68q-.92-1-1.91-1.92c-2.9-4.1-4.7-9.4-6.1-13.5-3.3,2.3-8.3,4.2-15.8,4.2a30.1,30.1,0,0,1-12.65-2.5,21,21,0,0,1-3.45-2c-1.3,4.2-3.1,9.5-6.2,13.7A38.66,38.66,0,0,0,73.9,76.5a42,42,0,0,0-4.27,18.57C69.63,104.27,72.93,114.27,78.43,119.37Z"/><path class="cls-25" d="M90.73,82.17a28,28,0,0,1-18.4-1.7,42.27,42.27,0,0,0,1.9,33.5,29.35,29.35,0,0,0,17.1.2C91.43,114.27,81.43,100.57,90.73,82.17Z"/><path class="cls-26" d="M106.23,141.47l.1-.1-.1-.1v-2.1a.47.47,0,0,1,.5-.5,3,3,0,0,0,1.8.6,5.14,5.14,0,0,0,2-.6c.1,0,0-.3.3,0,1.8,1.7,5.8,2,5.8,2a.38.38,0,0,1,.2.6l-.1.1.2.2a.47.47,0,0,1-.5.5h-9.7a.47.47,0,0,1-.5-.5Z"/><path class="cls-26" d="M102.33,141.57a.47.47,0,0,1-.5.5h-9.7a.47.47,0,0,1-.5-.5l.1-.1-.1-.1a.35.35,0,0,1,.2-.6s4-.3,5.8-2c.3-.3.2,0,.3,0a5.89,5.89,0,0,0,2,.6,2.63,2.63,0,0,0,1.8-.6.47.47,0,0,1,.5.5v2.1l-.1.1.1.1Z"/><path class="cls-27" d="M118.12,43.22A14.43,14.43,0,0,1,90.32,44a17.23,17.23,0,1,0,27.79-.79Z"/><path class="cls-28" d="M104.51,69a15.23,15.23,0,0,1-14.3-20.44,16.44,16.44,0,0,0,28.27-.82,15,15,0,0,1,1.25,6A15.24,15.24,0,0,1,104.51,69Z"/><path class="cls-29" d="M136.84,76.12l-13-13.67-10.79,13L104.3,64.54,91.77,82.12l-11-23.88-6.4,12.18-1.1-8.86C66,73,61.17,87.22,61.17,99.53c0,25.85,19.16,46.8,42.8,46.8s42.8-21,42.8-46.8c0-10.18-3.29-21.65-8.59-31.81Z"/><circle class="cls-30" cx="130.73" cy="88.2" r="5.5"/><circle class="cls-30" cx="137.74" cy="96.71" r="3.02"/><circle class="cls-30" cx="137.23" cy="82.01" r="1.94"/><circle class="cls-30" cx="130.73" cy="97.92" r="1.94"/><circle class="cls-30" cx="135.15" cy="102.29" r="1.14"/><circle class="cls-30" cx="130.73" cy="78.28" r="1.14"/><ellipse class="cls-31" cx="104.28" cy="33.27" rx="5.94" ry="6.4" transform="translate(-1.84 6.44) rotate(-3.51)"/><ellipse class="cls-27" cx="104.3" cy="34.04" rx="3.89" ry="4.47" transform="translate(-1.89 6.44) rotate(-3.51)"/><path class="cls-32" d="M104.49,45.79c-2.8,0-5.21-2.48-5.49-5.64a6.55,6.55,0,0,1,1.15-4.4,5.06,5.06,0,0,1,3.69-2.18c3-.27,5.62,2.3,5.92,5.62a6.55,6.55,0,0,1-1.15,4.4,5.06,5.06,0,0,1-3.69,2.18Zm-.24-11.22H104a3.64,3.64,0,0,0-2.54,1.33,4,4,0,0,0-.88,3,4.08,4.08,0,0,0,4.24,3.72,3.64,3.64,0,0,0,2.54-1.33,4,4,0,0,0,.88-3A4.1,4.1,0,0,0,104.25,34.57Z"/><path class="cls-31" d="M105.84,36.28c0,.5-.64,1-1.51,1h0c-.87.06-1.6-.29-1.64-.79l-.3-4.19c0-.5.64-1,1.51-1h0c.87-.06,1.6.29,1.64.79Z"/><path class="cls-20" d="M148.24,143.28a1.6,1.6,0,0,1-1.6,1.6h0a1.6,1.6,0,0,1-1.6-1.6v-.58a1.6,1.6,0,0,1,1.6-1.6h0a1.6,1.6,0,0,1,1.6,1.6Z"/><path class="cls-20" d="M183.64,143.28a1.6,1.6,0,0,1-1.6,1.6h0a1.6,1.6,0,0,1-1.6-1.6v-.58a1.6,1.6,0,0,1,1.6-1.6h0a1.6,1.6,0,0,1,1.6,1.6Z"/><path class="cls-31" d="M182.5,143.62c0-6.18-8.13-11.19-18.15-11.19s-18.15,5-18.15,11.19a7.07,7.07,0,0,0,.25,1.84h35.82A7.07,7.07,0,0,0,182.5,143.62Z"/><path class="cls-31" d="M177.22,135.47c-1-7.14-5.77-12.88-12.88-12.88s-11.95,5.7-12.88,12.88a9.92,9.92,0,0,0,0,2.92h25.7A9.69,9.69,0,0,0,177.22,135.47Z"/><path class="cls-22" d="M157.57,128.22a13.52,13.52,0,0,0-3.37,7.44h8.65V125.44A9.12,9.12,0,0,0,157.57,128.22Z"/><path class="cls-22" d="M174.49,135.66c-.7-4.42-3.36-9.42-8.65-10.22v10.22Z"/><path class="cls-21" d="M169.74,138.37a.75.75,0,0,1-.75.75h-2.27a.75.75,0,0,1-.75-.75h0a.75.75,0,0,1,.75-.75H169a.75.75,0,0,1,.75.75Z"/><path class="cls-21" d="M162.72,138.37a.75.75,0,0,1-.75.75H159.7a.75.75,0,0,1-.75-.75h0a.75.75,0,0,1,.75-.75H162a.75.75,0,0,1,.75.75Z"/><circle class="cls-21" cx="155.44" cy="144.3" r="4.63"/><circle class="cls-33" cx="155.44" cy="144.3" r="1.24"/><circle class="cls-21" cx="173.25" cy="144.3" r="4.63"/><circle class="cls-33" cx="173.25" cy="144.3" r="1.24"/><path class="cls-21" d="M43.4,128H12.67v16.54h4.73c.12-5.36,4.83-9.67,10.63-9.67s10.51,4.31,10.63,9.67H43.4Z"/><rect class="cls-22" x="44.25" y="121.31" width="9.95" height="23.27"/><rect class="cls-20" x="20.44" y="114.49" width="13.54" height="13.54"/><polygon class="cls-31" points="27.21 102.62 15.33 114.5 39.09 114.5 27.21 102.62"/><polygon class="cls-22" points="0 144.58 12.23 144.58 12.23 132.34 0 144.58"/><polygon class="cls-20" points="63.91 144.58 54.71 144.58 54.71 135.38 63.91 144.58"/><path class="cls-21" d="M58.59,121.11a9.37,9.37,0,0,0-18.73,0c0,.06,0,.12,0,.18H58.59C58.59,121.23,58.59,121.17,58.59,121.11Z"/><path class="cls-34" d="M158.49,79Z"/><path class="cls-35" d="M72.1,77.14c-.5,1.17-11,27.27,4.72,47.65,8.23,10.65,19.43,14.3,24,15.5"/></g></g></svg>