<?xml version="1.0" encoding="utf-8"?>
<!-- Generator: Adobe Illustrator 19.2.1, SVG Export Plug-In . SVG Version: 6.00 Build 0)  -->
<svg version="1.1" id="Layer_1" xmlns="http://www.w3.org/2000/svg" xmlns:xlink="http://www.w3.org/1999/xlink" x="0px" y="0px"
	 width="200px" height="200px" viewBox="0 0 200 200" style="enable-background:new 0 0 200 200;" xml:space="preserve">
<style type="text/css">
	.st0{fill:#E2E3E4;}
	.st1{fill:#595D62;}
	.st2{fill:#C7702A;}
	.st3{fill:#C9C7C7;}
	.st4{fill:#EA8824;}
	.st5{fill:none;stroke:#C9C7C7;stroke-width:0.75651;stroke-miterlimit:10;}
	.st6{fill-rule:evenodd;clip-rule:evenodd;fill:#444851;}
	.st7{fill-rule:evenodd;clip-rule:evenodd;fill:#D8D7D6;}
	.st8{fill:#FFFFFF;}
	.st9{fill:#2B2B35;}
	.st10{fill:#434850;}
	.st11{fill:#6C4396;}
	.st12{fill:#A4A4A4;}
	.st13{fill:#EA4C65;}
	.st14{fill:#94814F;}
	.st15{fill:#9C2023;}
	.st16{fill:#B7242C;}
	.st17{fill-rule:evenodd;clip-rule:evenodd;fill:#FFFFFF;}
	.st18{fill:#0C4F6E;}
	.st19{fill:#C18E46;}
	.st20{fill:#3180BF;}
	.st21{fill:#D94F4F;}
	.st22{fill:#2C2C2D;}
	.st23{fill:#595E63;}
	.st24{fill:#E3E2E2;}
	.st25{fill:#9D9EA0;}
	.st26{fill:none;stroke:#C8C6C6;stroke-width:0.75651;stroke-miterlimit:10;}
	.st27{fill:#2A2E35;}
	.st28{fill-rule:evenodd;clip-rule:evenodd;fill:#454751;}
	.st29{fill-rule:evenodd;clip-rule:evenodd;fill:#D8D7D5;}
	.st30{fill:#434851;}
	.st31{fill:#EC9424;}
	.st32{fill:#445AA4;}
	.st33{clip-path:url(#SVGID_2_);fill:#58C1C4;}
	.st34{fill:#B7DBDB;}
	.st35{fill:#58C1C4;}
	.st36{fill:none;stroke:#434851;stroke-width:1.51302;stroke-linecap:round;stroke-linejoin:round;stroke-miterlimit:10;}
	.st37{clip-path:url(#SVGID_4_);fill:#58C1C4;}
	.st38{fill:#010101;}
	.st39{fill:#161718;}
	.st40{fill-rule:evenodd;clip-rule:evenodd;fill:#010101;}
	.st41{fill:#272626;}
	.st42{fill:#17191A;}
	.st43{fill:#D4D5D4;}
	.st44{fill-rule:evenodd;clip-rule:evenodd;fill:#272626;}
	.st45{fill-rule:evenodd;clip-rule:evenodd;fill:#E2E3E4;}
	.st46{fill:#19244E;}
	.st47{fill:#E3E1E1;}
	.st48{fill:#8E1B27;}
	.st49{fill:#CA2033;}
	.st50{fill:#EFE0A7;}
	.st51{fill:none;stroke:#EFE0A7;stroke-width:0.09335;stroke-miterlimit:10;}
	.st52{fill:#EECA81;}
	.st53{fill:#F3F3F3;}
	.st54{fill:#A0A1A4;}
	.st55{fill:#EB6B6D;}
	.st56{fill:none;stroke:#CAC8C6;stroke-width:0.02289;stroke-miterlimit:10;}
	.st57{fill:#464951;}
	.st58{fill:#D7D6D6;}
	.st59{fill:#EECC82;}
	.st60{fill:#F0E0A9;}
	.st61{fill:none;stroke:#F0E0A9;stroke-width:0.01145;stroke-miterlimit:10;}
	.st62{fill:#5AC1C2;}
	.st63{clip-path:url(#SVGID_6_);fill:#E2E3E4;}
	.st64{fill:#EE7823;}
	.st65{fill:#D6563D;}
	.st66{fill:#70533D;}
	.st67{fill:#81BCA9;}
	.st68{clip-path:url(#SVGID_8_);fill:#E2E3E4;}
	.st69{fill:none;stroke:#EFE0A7;stroke-width:0.37825;stroke-miterlimit:10;}
	.st70{clip-path:url(#SVGID_10_);}
	.st71{clip-path:url(#SVGID_12_);fill:#E3E2E2;}
	.st72{clip-path:url(#SVGID_12_);}
	.st73{fill-rule:evenodd;clip-rule:evenodd;fill:#1AAEA1;}
	.st74{fill-rule:evenodd;clip-rule:evenodd;fill:#0C8C70;}
	.st75{fill:#1AAEA1;}
	.st76{fill:#6F513B;}
	.st77{fill:#515050;}
	.st78{fill:#D4563A;}
	.st79{fill:none;}
	.st80{clip-path:url(#SVGID_14_);}
	.st81{clip-path:url(#SVGID_16_);fill:#E3E2E2;}
	.st82{clip-path:url(#SVGID_16_);}
	.st83{fill:#EEE3A3;}
	.st84{fill:none;stroke:#F0E0A9;stroke-width:0.37825;stroke-miterlimit:10;}
	.st85{clip-path:url(#SVGID_18_);}
	.st86{fill-rule:evenodd;clip-rule:evenodd;fill:#434850;}
	.st87{clip-path:url(#SVGID_20_);}
	.st88{fill:none;stroke:#E4CC21;stroke-width:1.92135;stroke-miterlimit:10;}
	.st89{fill:none;stroke:#FFFFFF;stroke-width:2.2037;stroke-miterlimit:10;}
	.st90{fill:#E4CC21;}
	.st91{fill:#232244;}
	.st92{fill:#C8C6C6;}
	.st93{fill:#542F19;}
	.st94{fill-rule:evenodd;clip-rule:evenodd;fill:#3D2E21;}
	.st95{fill:#3D2E21;}
	.st96{fill-rule:evenodd;clip-rule:evenodd;fill:#232244;}
	.st97{fill-rule:evenodd;clip-rule:evenodd;fill:#2E3280;}
	.st98{fill:#281911;}
	.st99{fill-rule:evenodd;clip-rule:evenodd;fill:#E4CC21;}
	.st100{fill-rule:evenodd;clip-rule:evenodd;fill:#D85127;}
	.st101{clip-path:url(#SVGID_22_);}
	.st102{fill-rule:evenodd;clip-rule:evenodd;fill:#EE7434;}
	.st103{fill:#17733B;}
	.st104{clip-path:url(#SVGID_24_);}
	.st105{fill:#1D73B6;}
	.st106{fill:#115E8E;}
	.st107{clip-path:url(#SVGID_26_);}
	.st108{fill:none;stroke:#FFFFFF;stroke-width:1.49993;stroke-miterlimit:10;}
	.st109{fill:none;stroke:#CAC8C6;stroke-width:0.024;stroke-miterlimit:10;}
	.st110{clip-path:url(#SVGID_28_);fill:#E2E3E4;}
	.st111{fill:#603A17;}
	.st112{fill:#78471F;}
	.st113{fill:#F8FAFD;}
	.st114{clip-path:url(#SVGID_30_);}
	.st115{clip-path:url(#SVGID_32_);}
	.st116{fill:none;stroke:#FFFFFF;stroke-width:0.49998;stroke-miterlimit:10;}
	.st117{fill:none;stroke:#FFFFFF;stroke-width:0.74997;stroke-miterlimit:10;}
	.st118{clip-path:url(#SVGID_34_);}
	.st119{clip-path:url(#SVGID_36_);}
	.st120{clip-path:url(#SVGID_38_);fill:#E2E3E4;}
	.st121{clip-path:url(#SVGID_40_);}
	.st122{clip-path:url(#SVGID_42_);}
	.st123{clip-path:url(#SVGID_44_);}
	.st124{opacity:0.7;fill:#434850;}
	.st125{fill:#5B3287;}
	.st126{fill:#643E1E;}
	.st127{fill:#C8D6DE;}
	.st128{fill:none;stroke:#CAC7C6;stroke-width:0.75651;stroke-miterlimit:10;}
	.st129{fill:#B6C3CE;}
	.st130{fill:#273980;}
	.st131{fill:#2B2C35;}
	.st132{clip-path:url(#SVGID_46_);fill:#FFFFFF;stroke:#5A3B84;stroke-width:4.53905;stroke-miterlimit:10;}
	.st133{fill:#C8C7C9;}
	.st134{fill:#056F43;}
	.st135{clip-path:url(#SVGID_48_);}
	.st136{fill:#EBEDF1;}
	.st137{fill:#CF2B29;}
	.st138{fill-rule:evenodd;clip-rule:evenodd;fill:#273980;}
	.st139{fill:#D6232A;}
	.st140{clip-path:url(#SVGID_52_);fill:#FFFFFF;stroke:#5A3B84;stroke-width:4.53905;stroke-miterlimit:10;}
	.st141{clip-path:url(#SVGID_54_);}
	.st142{fill:#532D17;}
	.st143{fill:none;stroke:#5E1116;stroke-width:0.95369;stroke-miterlimit:10;}
	.st144{fill-rule:evenodd;clip-rule:evenodd;fill:#5E1116;}
	.st145{fill:none;stroke:#5E1116;stroke-width:0.94639;stroke-miterlimit:10;}
	.st146{fill:#291B13;}
	.st147{fill-rule:evenodd;clip-rule:evenodd;fill:#291B13;}
	.st148{fill-rule:evenodd;clip-rule:evenodd;fill:#454850;}
	.st149{fill-rule:evenodd;clip-rule:evenodd;fill:#74441F;}
	.st150{fill:#7F161B;}
	.st151{fill-rule:evenodd;clip-rule:evenodd;fill:#7F161B;}
	.st152{fill:none;stroke:#5E1116;stroke-width:1.04342;stroke-miterlimit:10;}
	.st153{fill:#E4E0E4;}
	.st154{clip-path:url(#SVGID_58_);fill:#E1244D;}
	.st155{clip-path:url(#SVGID_60_);fill:#E1244D;}
	.st156{fill:#292933;}
	.st157{fill:none;stroke:#CAC8C6;stroke-width:0.02378;stroke-miterlimit:10;}
	.st158{fill:none;stroke:#F0E0A9;stroke-width:0.01189;stroke-miterlimit:10;}
	.st159{clip-path:url(#SVGID_62_);fill:#E2E3E4;}
	.st160{fill:#2F465D;}
	.st161{fill:#432F21;}
	.st162{fill-rule:evenodd;clip-rule:evenodd;fill:#3D5F7C;}
	.st163{fill-rule:evenodd;clip-rule:evenodd;fill:#2F465D;}
	.st164{clip-path:url(#SVGID_64_);fill:#2C2C2D;}
	.st165{clip-path:url(#SVGID_66_);fill:#F8B917;}
	.st166{clip-path:url(#SVGID_66_);fill:#1F4394;}
	.st167{clip-path:url(#SVGID_68_);fill:#E8212F;}
	.st168{clip-path:url(#SVGID_68_);fill:#C9C8C8;}
	.st169{clip-path:url(#SVGID_68_);fill:#2A2E35;}
	.st170{clip-path:url(#SVGID_68_);fill:#444750;}
	.st171{clip-path:url(#SVGID_68_);fill:#D7D7D6;}
	.st172{clip-path:url(#SVGID_68_);fill:#E3E2E2;}
	.st173{clip-path:url(#SVGID_68_);fill:#FFFFFF;}
	.st174{clip-path:url(#SVGID_68_);fill:#2B2D34;}
	.st175{clip-path:url(#SVGID_68_);fill:#B9252D;}
	.st176{clip-path:url(#SVGID_68_);fill:#24345B;}
	.st177{clip-path:url(#SVGID_68_);fill:#F7F6F8;}
	.st178{clip-path:url(#SVGID_70_);fill:#1F4394;}
	.st179{clip-path:url(#SVGID_70_);fill:#F8B917;}
	.st180{clip-path:url(#SVGID_70_);fill:#883D1E;}
	.st181{clip-path:url(#SVGID_70_);fill:#F5D07C;}
	.st182{clip-path:url(#SVGID_72_);fill:#E8212F;}
	.st183{clip-path:url(#SVGID_72_);fill:#E3E2E2;}
	.st184{clip-path:url(#SVGID_72_);fill:#F7F6F8;}
	.st185{clip-path:url(#SVGID_72_);fill:#F8B917;}
	.st186{clip-path:url(#SVGID_72_);fill:#888983;}
	.st187{clip-path:url(#SVGID_74_);fill:#888983;}
	.st188{clip-path:url(#SVGID_74_);fill:#624219;}
	.st189{clip-path:url(#SVGID_76_);fill:#E3E2E2;}
	.st190{clip-path:url(#SVGID_76_);fill:#2C2C2D;}
	.st191{clip-path:url(#SVGID_76_);fill:#888983;}
	.st192{clip-path:url(#SVGID_78_);fill:#F8B917;}
	.st193{clip-path:url(#SVGID_78_);fill:#1F4394;}
	.st194{clip-path:url(#SVGID_80_);fill:#E8212F;}
	.st195{clip-path:url(#SVGID_80_);fill:#C9C8C8;}
	.st196{clip-path:url(#SVGID_80_);fill:#2A2E35;}
	.st197{clip-path:url(#SVGID_80_);fill:#444750;}
	.st198{clip-path:url(#SVGID_80_);fill:#D7D7D6;}
	.st199{clip-path:url(#SVGID_80_);fill:#E3E2E2;}
	.st200{clip-path:url(#SVGID_80_);fill:#FFFFFF;}
	.st201{clip-path:url(#SVGID_80_);fill:#2B2D34;}
	.st202{clip-path:url(#SVGID_80_);fill:#B9252D;}
	.st203{clip-path:url(#SVGID_80_);fill:#24345B;}
	.st204{clip-path:url(#SVGID_80_);fill:#F7F6F8;}
	.st205{clip-path:url(#SVGID_82_);fill:#1F4394;}
	.st206{clip-path:url(#SVGID_82_);fill:#F8B917;}
	.st207{clip-path:url(#SVGID_82_);fill:#883D1E;}
	.st208{clip-path:url(#SVGID_82_);fill:#F5D07C;}
	.st209{clip-path:url(#SVGID_84_);fill:#E8212F;}
	.st210{clip-path:url(#SVGID_84_);fill:#E3E2E2;}
	.st211{clip-path:url(#SVGID_84_);fill:#F7F6F8;}
	.st212{clip-path:url(#SVGID_84_);fill:#F8B917;}
	.st213{clip-path:url(#SVGID_84_);fill:#888983;}
	.st214{clip-path:url(#SVGID_86_);fill:#888983;}
	.st215{clip-path:url(#SVGID_86_);fill:#624219;}
	.st216{clip-path:url(#SVGID_88_);fill:#E3E2E2;}
	.st217{clip-path:url(#SVGID_88_);fill:#2C2C2D;}
	.st218{clip-path:url(#SVGID_90_);fill:#2C2C2D;}
	.st219{clip-path:url(#SVGID_92_);fill:#F8B917;}
	.st220{clip-path:url(#SVGID_92_);fill:#1F4394;}
	.st221{clip-path:url(#SVGID_94_);fill:#E8212F;}
	.st222{clip-path:url(#SVGID_94_);fill:#C9C8C8;}
	.st223{clip-path:url(#SVGID_94_);fill:#2A2E35;}
	.st224{clip-path:url(#SVGID_94_);fill:#444750;}
	.st225{clip-path:url(#SVGID_94_);fill:#D7D7D6;}
	.st226{clip-path:url(#SVGID_94_);fill:#E3E2E2;}
	.st227{clip-path:url(#SVGID_94_);fill:#FFFFFF;}
	.st228{clip-path:url(#SVGID_94_);fill:#2B2D34;}
	.st229{clip-path:url(#SVGID_94_);fill:#B9252D;}
	.st230{clip-path:url(#SVGID_94_);fill:#24345B;}
	.st231{clip-path:url(#SVGID_94_);fill:#F7F6F8;}
	.st232{clip-path:url(#SVGID_96_);fill:#1F4394;}
	.st233{clip-path:url(#SVGID_96_);fill:#F8B917;}
	.st234{clip-path:url(#SVGID_96_);fill:#883D1E;}
	.st235{clip-path:url(#SVGID_96_);fill:#F5D07C;}
	.st236{clip-path:url(#SVGID_98_);fill:#E8212F;}
	.st237{clip-path:url(#SVGID_98_);fill:#E3E2E2;}
	.st238{clip-path:url(#SVGID_98_);fill:#F7F6F8;}
	.st239{clip-path:url(#SVGID_98_);fill:#F8B917;}
	.st240{clip-path:url(#SVGID_98_);fill:#888983;}
	.st241{clip-path:url(#SVGID_100_);fill:#888983;}
	.st242{clip-path:url(#SVGID_100_);fill:#624219;}
	.st243{clip-path:url(#SVGID_102_);fill:#E3E2E2;}
	.st244{clip-path:url(#SVGID_102_);fill:#2C2C2D;}
	.st245{clip-path:url(#SVGID_102_);fill:#888983;}
	.st246{clip-path:url(#SVGID_104_);fill:#F8B917;}
	.st247{clip-path:url(#SVGID_104_);fill:#1F4394;}
	.st248{clip-path:url(#SVGID_106_);fill:#E8212F;}
	.st249{clip-path:url(#SVGID_106_);fill:#C9C8C8;}
	.st250{clip-path:url(#SVGID_106_);fill:#2A2E35;}
	.st251{clip-path:url(#SVGID_106_);fill:#444750;}
	.st252{clip-path:url(#SVGID_106_);fill:#D7D7D6;}
	.st253{clip-path:url(#SVGID_106_);fill:#E3E2E2;}
	.st254{clip-path:url(#SVGID_106_);fill:#FFFFFF;}
	.st255{clip-path:url(#SVGID_106_);fill:#2B2D34;}
	.st256{clip-path:url(#SVGID_106_);fill:#B9252D;}
	.st257{clip-path:url(#SVGID_106_);fill:#24345B;}
	.st258{clip-path:url(#SVGID_106_);fill:#F7F6F8;}
	.st259{clip-path:url(#SVGID_108_);fill:#1F4394;}
	.st260{clip-path:url(#SVGID_108_);fill:#F8B917;}
	.st261{clip-path:url(#SVGID_108_);fill:#883D1E;}
	.st262{clip-path:url(#SVGID_108_);fill:#F5D07C;}
	.st263{clip-path:url(#SVGID_110_);fill:#E8212F;}
	.st264{clip-path:url(#SVGID_110_);fill:#E3E2E2;}
	.st265{clip-path:url(#SVGID_110_);fill:#F7F6F8;}
	.st266{clip-path:url(#SVGID_110_);fill:#F8B917;}
	.st267{clip-path:url(#SVGID_110_);fill:#888983;}
	.st268{clip-path:url(#SVGID_112_);fill:#888983;}
	.st269{clip-path:url(#SVGID_112_);fill:#624219;}
	.st270{clip-path:url(#SVGID_114_);fill:#E3E2E2;}
	.st271{clip-path:url(#SVGID_114_);fill:#2C2C2D;}
	.st272{fill:#EDE2A3;}
	.st273{clip-path:url(#SVGID_116_);}
	.st274{fill-rule:evenodd;clip-rule:evenodd;fill:#434851;}
	.st275{fill-rule:evenodd;clip-rule:evenodd;fill:#E3E2E2;}
	.st276{fill:#2A2B2A;}
	.st277{clip-path:url(#SVGID_118_);}
	.st278{clip-path:url(#SVGID_120_);}
	.st279{clip-path:url(#SVGID_122_);}
	.st280{fill:#1F3566;}
	.st281{fill:#E3E4E5;}
	.st282{fill:#4BB1E4;}
	.st283{fill:#2D2A6C;}
	.st284{fill-rule:evenodd;clip-rule:evenodd;fill:#D8D9D5;}
	.st285{fill:#434852;}
	.st286{fill:#E3E3E3;}
	.st287{fill:#162E54;}
	.st288{fill:none;stroke:#335DAB;stroke-width:1.68786;stroke-miterlimit:10;}
	.st289{fill:#81817F;}
	.st290{fill:#142B49;}
	.st291{fill:#5A5A5A;}
	.st292{fill:none;stroke:#FFFFFF;stroke-width:0.84393;stroke-linecap:round;stroke-linejoin:round;stroke-miterlimit:10;}
	.st293{fill:#AB9D9C;}
	.st294{fill:#EA6689;}
	.st295{fill:#CE1D5B;}
	.st296{fill:#BF742A;}
	.st297{fill:#273449;}
	.st298{fill:#A4464B;}
	.st299{fill:none;stroke:#CAC8C6;stroke-width:0.0662;stroke-miterlimit:10;}
	.st300{fill:#80333A;}
	.st301{fill:none;stroke:#B4B4B4;stroke-width:0.25748;stroke-miterlimit:10;}
	.st302{fill:none;stroke:#B4B4B4;stroke-width:3.08973;stroke-miterlimit:10;}
	.st303{fill:none;stroke:#B4B4B4;stroke-width:1.02991;stroke-miterlimit:10;}
	.st304{fill:none;stroke:#82858B;stroke-width:0.51495;stroke-miterlimit:10;}
	.st305{fill:none;stroke:#E2E3E4;stroke-width:1.02991;stroke-miterlimit:10;}
	.st306{fill:#E5E5E5;}
	.st307{fill:#2D2C2D;}
	.st308{fill:#4CB2E5;}
	.st309{fill:#AD2824;}
	.st310{fill-rule:evenodd;clip-rule:evenodd;fill:#D9D9D6;}
	.st311{fill:#E4E4E3;}
	.st312{fill:#DB4826;}
	.st313{fill:#B33725;}
	.st314{fill:#120C0D;}
	.st315{fill:#F3F0F0;}
	.st316{fill:#C4BFBF;}
	.st317{clip-path:url(#SVGID_124_);fill:none;stroke:#F3F0F0;stroke-width:1.10165;stroke-linecap:round;stroke-miterlimit:10;}
	.st318{clip-path:url(#SVGID_126_);fill:none;stroke:#F3F0F0;stroke-width:1.10165;stroke-linecap:round;stroke-miterlimit:10;}
	.st319{clip-path:url(#SVGID_128_);fill:none;stroke:#F3F0F0;stroke-width:1.10165;stroke-linecap:round;stroke-miterlimit:10;}
	.st320{fill:#DE5B2A;}
	.st321{fill:#7A2716;}
	.st322{fill:#E5E4E4;}
	.st323{fill:#BB4928;}
	.st324{fill:#454545;}
	.st325{fill:#6265AE;}
	.st326{fill:none;stroke:#CAC5C4;stroke-width:0.55083;stroke-linecap:round;stroke-miterlimit:10;}
	.st327{fill:#E1E3E3;}
	.st328{fill:#484848;}
	.st329{fill:#422F90;}
	.st330{fill:#D57A28;}
	.st331{fill:#B4B4B5;}
	.st332{fill:#4B4B4D;}
	.st333{fill:#949393;}
	.st334{fill:#040404;}
	.st335{clip-path:url(#SVGID_130_);fill:none;stroke:#F3F0F0;stroke-width:1.10165;stroke-linecap:round;stroke-miterlimit:10;}
	.st336{clip-path:url(#SVGID_132_);fill:none;stroke:#F3F0F0;stroke-width:1.10165;stroke-linecap:round;stroke-miterlimit:10;}
	.st337{clip-path:url(#SVGID_134_);fill:none;stroke:#F3F0F0;stroke-width:1.10165;stroke-linecap:round;stroke-miterlimit:10;}
	.st338{clip-path:url(#SVGID_140_);fill:#AD2824;}
	.st339{fill:#CDCCCC;}
	.st340{fill:#E4E5E6;}
	.st341{opacity:0.72;fill:none;stroke:#FFFFFF;stroke-width:1.1546;stroke-linecap:round;stroke-miterlimit:10;}
	.st342{fill:#BBD867;}
	.st343{fill:none;stroke:#BBD867;stroke-width:5.799;stroke-miterlimit:10;}
	.st344{clip-path:url(#SVGID_146_);fill:#AD2824;}
	.st345{fill:none;stroke:#AE4E85;stroke-width:1.54066;stroke-linecap:round;stroke-linejoin:round;stroke-miterlimit:10;}
	.st346{fill:none;stroke:#E97625;stroke-width:1.62274;stroke-linecap:round;stroke-linejoin:round;stroke-miterlimit:10;}
	.st347{fill:none;stroke:#C9C7C7;stroke-width:0.23348;stroke-miterlimit:10;}
	.st348{fill:#981E5C;}
	.st349{fill:none;stroke:#AE4E85;stroke-width:1.21706;stroke-linecap:round;stroke-linejoin:round;stroke-miterlimit:10;}
	.st350{fill:#AE4E85;}
	.st351{fill:#F7B456;}
	.st352{fill:#E97625;}
	.st353{fill:none;stroke:#E97625;stroke-width:1.54273;stroke-linecap:round;stroke-linejoin:round;stroke-miterlimit:10;}
</style>
<g>
	<g>
		<g>
			<path class="st105" d="M105.6116,179.01274l0.10397,0.00949c-11.71737-6.11426-19.67353-18.04489-19.67353-31.75404
				c0-19.94371,16.83099-36.1171,37.59775-36.1171c20.75916,0,37.58863,16.17339,37.58863,36.1171
				c0,13.70915-7.95425,25.63979-19.66821,31.75404l0.09294-0.0038c-5.70137,3.2702-9.82195,8.79932-11.04684,15.2991
				c-0.24626-0.13356-1.41159-0.67847-2.96055,0.0296v-11.17094c-1.31559,0.13356-2.65167,0.20566-4.00597,0.20566
				c-1.35619,0-2.69418-0.0721-4.01698-0.20566v11.17094c-1.56376-0.72098-2.74236-0.14647-2.96476-0.02618
				C115.43547,187.81775,111.3111,182.28864,105.6116,179.01274"/>
			<path class="st106" d="M123.70278,142.59926c0,0,4.13209,19.06769-19.97147,35.23175l-3.14074-2.1272
				C100.59058,175.70381,121.27393,156.3774,123.70278,142.59926z"/>
			<path class="st0" d="M32.70613,118.66063c2.35859-6.4698,4.11476-3.38515,8.09492-2.80914c0,0-3.74817-5.37128-0.03517-4.16156
				c0,0-2.64936-7.14449,1.32701-6.74606c0,0-2.62565-10.62297,3.66996-5.99668
				c11.21317,8.23994,31.16622,15.84626,55.42045-5.57802l-0.76347,31.68916l-18.03919,22.86594
				c0,0-26.72126,9.83676-43.62662-16.76459c-0.01139-0.01479-0.02239-0.03339-0.03343-0.04819
				c-2.9609-4.41692-4.76182-8.46539-5.85128-11.92683c-0.07776-0.20908-0.15937-0.40944-0.24092-0.62611
				C32.62838,118.55856,32.65797,118.59574,32.70613,118.66063"/>
			<path class="st106" d="M123.70278,142.59926c0,0-4.1321,19.06769,19.97147,35.23175l3.14073-2.1272
				C146.81499,175.70381,126.13164,156.3774,123.70278,142.59926z"/>
			<path class="st105" d="M66.23875,126.44071c0-7.33194-1.90455-14.20777-5.24719-20.18694
				c10.85031,2.65167,24.63916,0.85796,40.19553-12.8827l0.57792,31.72976l-19.38058,22.82154
				c0,0-10.38698,3.81662-22.29712,0.26106C63.98209,141.85783,66.23875,134.41319,66.23875,126.44071"/>
			<g>
				<defs>
					<path id="SVGID_35_" d="M66.23875,126.44071c0-7.33194-1.90455-14.20777-5.24719-20.18694
						c10.85031,2.65167,24.63916,0.85796,40.19553-12.8827l0.57792,31.72976l-19.38058,22.82154
						c0,0-10.38698,3.81662-22.29712,0.26106C63.98209,141.85783,66.23875,134.41319,66.23875,126.44071"/>
				</defs>
				<clipPath id="SVGID_2_">
					<use xlink:href="#SVGID_35_"  style="overflow:visible;"/>
				</clipPath>
				<g style="clip-path:url(#SVGID_2_);">
					<path class="st108" d="M63.70688,105.7708c0,0,14.47883,21.11114-2.14106,44.85454"/>
					<path class="st108" d="M67.56476,105.7708c0,0,12.76201,22.06145-3.85788,45.80486"/>
				</g>
			</g>
			<circle class="st109" cx="123.63695" cy="113.43412" r="24.72377"/>
			<path class="st105" d="M140.9231,72.75838c0.29257,2.30295,1.69353,0.27586,2.43652,2.71239
				c2.06767,6.76654,5.18419,18.32834,12.33969,25.20417c0,0-6.5681,25.62841-31.99466,25.62841
				c-25.4341,0-32.00029-25.62841-32.00029-25.62841c6.85914-6.59048,10.02384-18.43004,12.2065-25.07439
				c0.91526-2.78107,2.39023-0.71339,2.71619-3.27589"/>
			<path class="st105" d="M123.70278,85.40771c24.95031,0,45.18316,22.59348,45.18316,50.46751
				c0,17.19797-7.7076,32.3726-19.46216,41.48308c-23.72352-9.09909-25.721-34.75903-25.721-34.75903
				c-3.56506,23.84573-18.14658,32.22424-25.46903,34.96849c-11.89914-9.09187-19.71413-24.37048-19.71413-41.69254
				C78.51962,108.00119,98.74867,85.40771,123.70278,85.40771"/>
			<path class="st57" d="M121.14218,82.39137c0,1.19492,0.96725,2.16748,2.16216,2.16748c1.20441,0,2.17166-0.97256,2.17166-2.16748
				c0-1.19909-0.96725-2.16596-2.17166-2.16596C122.10943,80.22541,121.14218,81.19228,121.14218,82.39137"/>
			<path class="st58" d="M122.80042,82.39137c0,0.28156,0.22806,0.5073,0.50772,0.5073c0.28156,0,0.50772-0.22574,0.50772-0.5073
				c0-0.28004-0.22617-0.50771-0.50772-0.50771C123.02848,81.88366,122.80042,82.11134,122.80042,82.39137"/>
			<path class="st106" d="M109.2396,143.28839c0,0-15.64173,1.13194-25.373-6.42389v2.78487c0,0,7.69698,7.61691,25.373,6.26637
				V143.28839z"/>
			<path class="st105" d="M109.99931,145.82661c0,0-10.9725,1.03972-19.22501-2.19556
				c-9.74228-3.81853-1.70113,15.02284-1.70113,15.02284l12.68462-0.06868L109.99931,145.82661z"/>
			<path class="st57" d="M121.14218,94.72385c0,1.19872,0.96725,2.16748,2.16216,2.16748c1.20441,0,2.17166-0.96877,2.17166-2.16748
				c0-1.1953-0.96725-2.16596-2.17166-2.16596C122.10943,92.55789,121.14218,93.52856,121.14218,94.72385"/>
			<path class="st58" d="M122.80042,94.72537c0,0.28004,0.22806,0.50772,0.50772,0.50772c0.28156,0,0.50772-0.22768,0.50772-0.50772
				c0-0.28156-0.22617-0.50924-0.50772-0.50924C123.02848,94.21613,122.80042,94.44381,122.80042,94.72537"/>
			<path class="st0" d="M103.43274,42.98698c-0.28535-5.71426,0.11115-11.90099,2.35683-16.16234
				c1.15621-3.31649,4.93603-5.36937,8.77123-6.62387c-1.71554-0.0425-3.16811-0.0315-3.16811-0.0315
				c4.08717-2.75147,7.67801-2.56064,10.33496-1.58956c0.82802-0.11308,1.49321-0.1856,1.91403-0.22806
				c-1.91023-1.09702-4.03367-1.84726-4.03367-1.84726c6.34042-1.54892,11.75607,1.90455,14.1205,3.78323
				c3.74072,1.26402,7.37596,3.29642,8.50638,6.53701c2.24374,4.26134,2.64218,10.44807,2.35683,16.16234
				c0.27055,5.37317,0.0425,9.44748-1.13042,13.45155c-3.1924,7.52812-1.68214,13.18661-0.10359,19.0341l-19.71982,23.31166
				l-19.72362-23.18374c1.34898-5.34171,4.33192-11.99704,0.73764-19.22691
				C103.41415,52.42725,103.20279,47.55611,103.43274,42.98698"/>
			<path class="st8" d="M133.08533,39.35368c-0.06113,1.79902,1.83998,3.31269,4.24313,3.39803
				c2.39403,0.07404,4.3896-1.30644,4.4507-3.10926c0.0611-1.78958-1.83621-3.31269-4.23557-3.39238
				C135.14201,36.17418,133.1468,37.55997,133.08533,39.35368"/>
			<path class="st9" d="M135.45544,39.13132c-0.15216,1.10044,0.61131,2.12119,1.71555,2.27331
				c1.10043,0.15937,2.12535-0.62645,2.27335-1.71399c0.15027-1.10423-0.61511-2.11777-1.71933-2.27715
				C136.62456,37.26892,135.60344,38.03619,135.45544,39.13132"/>
			<path class="st8" d="M106.49006,39.35368c-0.05958,1.79902,1.84152,3.31269,4.23895,3.39803
				c2.40161,0.07404,4.39492-1.30644,4.45449-3.10926c0.06297-1.78958-1.83434-3.31269-4.23212-3.39238
				C108.54674,36.17418,106.55302,37.55997,106.49006,39.35368"/>
			<path class="st9" d="M108.86169,39.13132c-0.15216,1.10044,0.61131,2.12119,1.71555,2.27331
				c1.10043,0.15937,2.12346-0.62645,2.27145-1.71399c0.14838-1.10423-0.61514-2.11777-1.71937-2.27715
				C110.02509,37.26892,109.00967,38.03619,108.86169,39.13132"/>
			<path class="st9" d="M99.30079,42.19964c-1.07842-2.28094-1.3486-6.3036-1.3486-6.3036
				c0-1.87681,4.49851-1.86581,4.49851-1.86581c10.78731-0.63712,15.95667,1.10082,15.95667,1.10082
				c2.26769,0.80787,1.12286,4.03708,1.12286,4.03708c-1.17101,4.25034-2.88694,4.69317-2.88694,4.69317
				c-6.59958,2.08817-13.62568,0.68379-13.62568,0.68379C99.91589,44.31361,99.30079,42.19964,99.30079,42.19964
				 M127.82335,39.16813c0,0-1.14142-3.22921,1.12473-4.03708c0,0,5.1675-1.73793,15.9548-1.10082
				c0,0,4.49699-0.011,4.49699,1.86581c0,0-0.26866,4.02266-1.34709,6.3036c0,0-0.6151,2.11398-3.7187,2.34545
				c0,0-7.0242,1.40438-13.62569-0.68379C130.70839,43.8613,128.99246,43.41847,127.82335,39.16813 M95.20223,35.34202
				c-0.10359,2.42172,0.52252,2.4589,0.52252,2.4589c0.08537,0.18708,0.33354,0.53542,0.33354,0.53542
				c0.6523,0.26676,1.50836,2.95714,1.50836,2.95714c1.13003,3.30359,2.86834,3.71112,2.86834,3.71112
				c4.68745,1.69923,12.43225,0.80066,12.43225,0.80066s4.34675-0.12598,5.70674-1.90489
				c1.02303-1.26361,2.44942-5.1804,2.44942-5.1804s0.37791-0.69138,0.98394-1.09323
				c0.71339-0.33734,1.69543-0.34113,1.69543-0.34113s0.98394,0.00379,1.69733,0.34113
				c0.60183,0.40185,0.87997,0.99495,0.87997,0.99495s1.52467,4.01508,2.5496,5.27868
				c1.35809,1.77891,5.71391,1.90489,5.71391,1.90489s7.74139,0.89856,12.42886-0.80066c0,0,1.73793-0.40754,2.86455-3.71112
				c0,0,0.86139-2.69038,1.50647-2.95714c0,0,0.25386-0.34834,0.33696-0.53542c0,0,0.62648-0.03719,0.52441-2.4589l0.01138-0.81888
				c0,0,0.0258-0.65571-1.24881-0.84316c-1.27498-0.18518-2.25703-1.06514-14.20778-0.776
				c-8.47298,0.7168-10.92429,1.65825-10.92429,1.65825s-0.39464,0.11649-0.94865,0.18138
				c-0.36694,0.07248-0.75398,0.10929-1.14863,0.10929c-0.36504,0-0.71718-0.03339-1.05983-0.09449
				c-0.64129-0.0573-1.10995-0.19618-1.10995-0.19618s-2.44939-0.94144-10.92047-1.65825
				c-11.95113-0.28915-12.93279,0.59082-14.20778,0.776c-1.27843,0.18745-1.2488,0.84316-1.2488,0.84316L95.20223,35.34202z"/>
			<path class="st10" d="M124.03253,43.85215c2.15496,3.62807,6.62764,4.61011,6.62764,4.61011
				c-3.51682,2.21226-7.03142,8.93592-7.03142,8.93592s-3.36844-6.72367-6.88528-8.93592
				C116.74347,48.46226,121.87944,47.48022,124.03253,43.85215"/>
			<path class="st106" d="M163.04053,117.7794c0,0-14.65552,4.70303-31.58978-2.75889l11.16957,14.01471L163.04053,117.7794z"/>
			<path class="st106" d="M160.93057,161.29628c0,0-13.91353,5.20171-26.03571-2.64238L160.93057,161.29628z"/>
			<g>
				<defs>
					<path id="SVGID_37_" d="M114.97594,63.0901l6.96842,4.70646c0.51531-0.37643,1.14863-0.60031,1.83618-0.60031
						c0.71339,0,1.37292,0.23906,1.89731,0.64471l7.03519-4.75085c0,0,1.59718-1.10044,2.83879,0.43752l4.53758,5.98827
						c0,0,0.09981,0.20377,0.14799,0.49292h0.00758c0.0148,0.10928,0.02771,0.20908,0.02771,0.31116v0.01096v0.00379
						c0,0.10212-0.01291,0.20571-0.02771,0.31116h-0.00758c-0.04819,0.29678-0.14799,0.49676-0.14799,0.49676l-4.53758,5.98824
						c-1.24161,1.53609-2.83879,0.43907-2.83879,0.43907l-7.03519-4.75806c-0.52439,0.40222-1.18392,0.64129-1.89731,0.64129
						c-0.68755,0-1.32087-0.21857-1.83239-0.59124l-6.97221,4.70801c0,0-1.60094,1.09702-2.84216-0.43907l-4.52849-5.98824
						c0,0-0.10018-0.19997-0.14837-0.49676h-0.00721c-0.01859-0.10545-0.0258-0.20904-0.0258-0.31116v-0.00379v-0.01096
						c0-0.10208,0.00721-0.20187,0.0258-0.31116h0.00721c0.04819-0.28915,0.14837-0.49292,0.14837-0.49292l4.52849-5.98827
						c0.51492-0.6337,1.08184-0.82077,1.57855-0.82077C114.42383,62.70684,114.97594,63.0901,114.97594,63.0901"/>
				</defs>
				<clipPath id="SVGID_4_">
					<use xlink:href="#SVGID_37_"  style="overflow:visible;"/>
				</clipPath>
				<path style="clip-path:url(#SVGID_4_);fill:#E2E3E4;" d="M136.71526,63.29952c0,0.326,0.26486,0.59124,0.5912,0.59124
					c0.32596,0,0.58891-0.26524,0.58891-0.59124c0-0.32782-0.26295-0.59268-0.58891-0.59268
					C136.98012,62.70684,136.71526,62.97171,136.71526,63.29952"/>
				<path style="clip-path:url(#SVGID_4_);fill:#E2E3E4;" d="M136.71526,66.10681c0,0.32596,0.26486,0.58888,0.5912,0.58888
					c0.32596,0,0.58891-0.26292,0.58891-0.58888c0-0.32633-0.26295-0.59124-0.58891-0.59124
					C136.98012,65.51557,136.71526,65.78048,136.71526,66.10681"/>
				<path style="clip-path:url(#SVGID_4_);fill:#E2E3E4;" d="M136.71526,68.91554c0,0.326,0.26486,0.58934,0.5912,0.58934
					c0.32596,0,0.58891-0.26334,0.58891-0.58934c0-0.32971-0.26295-0.59116-0.58891-0.59116
					C136.98012,68.32438,136.71526,68.58583,136.71526,68.91554"/>
				<path style="clip-path:url(#SVGID_4_);fill:#E2E3E4;" d="M136.71526,71.72435c0,0.32634,0.26486,0.5893,0.5912,0.5893
					c0.32596,0,0.58891-0.26296,0.58891-0.5893c0-0.32596-0.26295-0.59082-0.58891-0.59082
					C136.98012,71.13353,136.71526,71.39839,136.71526,71.72435"/>
				<path style="clip-path:url(#SVGID_4_);fill:#E2E3E4;" d="M136.71526,74.53156c0,0.326,0.26486,0.58897,0.5912,0.58897
					c0.32596,0,0.58891-0.26297,0.58891-0.58897c0-0.32633-0.26295-0.58736-0.58891-0.58736
					C136.98012,73.9442,136.71526,74.20523,136.71526,74.53156"/>
				<path style="clip-path:url(#SVGID_4_);fill:#E2E3E4;" d="M131.36409,63.88697c0,0.32254,0.26677,0.58741,0.58931,0.58741
					c0.32596,0,0.5912-0.26486,0.5912-0.58741c0-0.32596-0.26524-0.59124-0.5912-0.59124
					C131.63086,63.29573,131.36409,63.56101,131.36409,63.88697"/>
				<path style="clip-path:url(#SVGID_4_);fill:#E2E3E4;" d="M131.36409,66.69384c0,0.32633,0.26677,0.5912,0.58931,0.5912
					c0.32596,0,0.5912-0.26487,0.5912-0.5912c0-0.32596-0.26524-0.59272-0.5912-0.59272
					C131.63086,66.10112,131.36409,66.36788,131.36409,66.69384"/>
				<path style="clip-path:url(#SVGID_4_);fill:#E2E3E4;" d="M131.36409,69.50299c0,0.32785,0.26677,0.58888,0.58931,0.58888
					c0.32596,0,0.5912-0.26103,0.5912-0.58888c0-0.32634-0.26524-0.58745-0.5912-0.58745
					C131.63086,68.91554,131.36409,69.17665,131.36409,69.50299"/>
				<path style="clip-path:url(#SVGID_4_);fill:#E2E3E4;" d="M131.36409,72.31171c0,0.3279,0.26677,0.58935,0.58931,0.58935
					c0.32596,0,0.5912-0.26145,0.5912-0.58935c0-0.32591-0.26524-0.58736-0.5912-0.58736
					C131.63086,71.72435,131.36409,71.9858,131.36409,72.31171"/>
				<path style="clip-path:url(#SVGID_4_);fill:#E2E3E4;" d="M131.36409,75.11901c0,0.32975,0.26677,0.59267,0.58931,0.59267
					c0.32596,0,0.5912-0.26292,0.5912-0.59267c0-0.32255-0.26524-0.58745-0.5912-0.58745
					C131.63086,74.53156,131.36409,74.79646,131.36409,75.11901"/>
				<path style="clip-path:url(#SVGID_4_);fill:#E2E3E4;" d="M126.01332,63.88697c0,0.32254,0.26486,0.58741,0.59271,0.58741
					c0.32634,0,0.58741-0.26486,0.58741-0.58741c0-0.32596-0.26107-0.59124-0.58741-0.59124
					C126.27818,63.29573,126.01332,63.56101,126.01332,63.88697"/>
				<path style="clip-path:url(#SVGID_4_);fill:#E2E3E4;" d="M126.01332,66.69384c0,0.32633,0.26486,0.5912,0.59271,0.5912
					c0.32634,0,0.58741-0.26487,0.58741-0.5912c0-0.32596-0.26107-0.59272-0.58741-0.59272
					C126.27818,66.10112,126.01332,66.36788,126.01332,66.69384"/>
				<path style="clip-path:url(#SVGID_4_);fill:#E2E3E4;" d="M126.01332,69.50299c0,0.32785,0.26486,0.58888,0.59271,0.58888
					c0.32634,0,0.58741-0.26103,0.58741-0.58888c0-0.32634-0.26107-0.58745-0.58741-0.58745
					C126.27818,68.91554,126.01332,69.17665,126.01332,69.50299"/>
				<path style="clip-path:url(#SVGID_4_);fill:#E2E3E4;" d="M126.01332,72.31171c0,0.3279,0.26486,0.58935,0.59271,0.58935
					c0.32634,0,0.58741-0.26145,0.58741-0.58935c0-0.32591-0.26107-0.58736-0.58741-0.58736
					C126.27818,71.72435,126.01332,71.9858,126.01332,72.31171"/>
				<path style="clip-path:url(#SVGID_4_);fill:#E2E3E4;" d="M126.01332,75.11901c0,0.32975,0.26486,0.59267,0.59271,0.59267
					c0.32634,0,0.58741-0.26292,0.58741-0.59267c0-0.32255-0.26107-0.58745-0.58741-0.58745
					C126.27818,74.53156,126.01332,74.79646,126.01332,75.11901"/>
				<path style="clip-path:url(#SVGID_4_);fill:#E2E3E4;" d="M120.66406,63.88697c0,0.32254,0.26672,0.58741,0.59306,0.58741
					c0.32599,0,0.58895-0.26486,0.58895-0.58741c0-0.32596-0.26296-0.59124-0.58895-0.59124
					C120.93079,63.29573,120.66406,63.56101,120.66406,63.88697"/>
				<path style="clip-path:url(#SVGID_4_);fill:#E2E3E4;" d="M120.66406,66.69384c0,0.32633,0.26672,0.5912,0.59306,0.5912
					c0.32599,0,0.58895-0.26487,0.58895-0.5912c0-0.32596-0.26296-0.59272-0.58895-0.59272
					C120.93079,66.10112,120.66406,66.36788,120.66406,66.69384"/>
				<path style="clip-path:url(#SVGID_4_);fill:#E2E3E4;" d="M120.66406,69.50299c0,0.32785,0.26672,0.58888,0.59306,0.58888
					c0.32599,0,0.58895-0.26103,0.58895-0.58888c0-0.32634-0.26296-0.58745-0.58895-0.58745
					C120.93079,68.91554,120.66406,69.17665,120.66406,69.50299"/>
				<path style="clip-path:url(#SVGID_4_);fill:#E2E3E4;" d="M120.66406,72.31171c0,0.3279,0.26672,0.58935,0.59306,0.58935
					c0.32599,0,0.58895-0.26145,0.58895-0.58935c0-0.32591-0.26296-0.58736-0.58895-0.58736
					C120.93079,71.72435,120.66406,71.9858,120.66406,72.31171"/>
				<path style="clip-path:url(#SVGID_4_);fill:#E2E3E4;" d="M120.66406,75.11901c0,0.32975,0.26672,0.59267,0.59306,0.59267
					c0.32599,0,0.58895-0.26292,0.58895-0.59267c0-0.32255-0.26296-0.58745-0.58895-0.58745
					C120.93079,74.53156,120.66406,74.79646,120.66406,75.11901"/>
				<path style="clip-path:url(#SVGID_4_);fill:#E2E3E4;" d="M115.31328,63.88697c0,0.32254,0.26297,0.58741,0.58893,0.58741
					c0.32975,0,0.59309-0.26486,0.59309-0.58741c0-0.32596-0.26334-0.59124-0.59309-0.59124
					C115.57625,63.29573,115.31328,63.56101,115.31328,63.88697"/>
				<path style="clip-path:url(#SVGID_4_);fill:#E2E3E4;" d="M115.31328,66.69384c0,0.32633,0.26297,0.5912,0.58893,0.5912
					c0.32975,0,0.59309-0.26487,0.59309-0.5912c0-0.32596-0.26334-0.59272-0.59309-0.59272
					C115.57625,66.10112,115.31328,66.36788,115.31328,66.69384"/>
				<path style="clip-path:url(#SVGID_4_);fill:#E2E3E4;" d="M115.31328,69.50299c0,0.32785,0.26297,0.58888,0.58893,0.58888
					c0.32975,0,0.59309-0.26103,0.59309-0.58888c0-0.32634-0.26334-0.58745-0.59309-0.58745
					C115.57625,68.91554,115.31328,69.17665,115.31328,69.50299"/>
				<path style="clip-path:url(#SVGID_4_);fill:#E2E3E4;" d="M115.31328,72.31171c0,0.3279,0.26297,0.58935,0.58893,0.58935
					c0.32975,0,0.59309-0.26145,0.59309-0.58935c0-0.32591-0.26334-0.58736-0.59309-0.58736
					C115.57625,71.72435,115.31328,71.9858,115.31328,72.31171"/>
				<path style="clip-path:url(#SVGID_4_);fill:#E2E3E4;" d="M115.31328,75.11901c0,0.32975,0.26297,0.59267,0.58893,0.59267
					c0.32975,0,0.59309-0.26292,0.59309-0.59267c0-0.32255-0.26334-0.58745-0.59309-0.58745
					C115.57625,74.53156,115.31328,74.79646,115.31328,75.11901"/>
				<path style="clip-path:url(#SVGID_4_);fill:#E2E3E4;" d="M134.04158,64.47816c0,0.32596,0.26106,0.58703,0.58929,0.58703
					c0.32596,0,0.59082-0.26107,0.59082-0.58703c0-0.32633-0.26486-0.5893-0.59082-0.5893
					C134.30264,63.88886,134.04158,64.15183,134.04158,64.47816"/>
				<path style="clip-path:url(#SVGID_4_);fill:#E2E3E4;" d="M134.04158,67.28504c0,0.32595,0.26106,0.5874,0.58929,0.5874
					c0.32596,0,0.59082-0.26145,0.59082-0.5874c0-0.32596-0.26486-0.58741-0.59082-0.58741
					C134.30264,66.69763,134.04158,66.95908,134.04158,67.28504"/>
				<path style="clip-path:url(#SVGID_4_);fill:#E2E3E4;" d="M134.04158,70.09566c0,0.32634,0.26106,0.58745,0.58929,0.58745
					c0.32596,0,0.59082-0.26111,0.59082-0.58745c0-0.32781-0.26486-0.59267-0.59082-0.59267
					C134.30264,69.50299,134.04158,69.76785,134.04158,70.09566"/>
				<path style="clip-path:url(#SVGID_4_);fill:#E2E3E4;" d="M134.04158,72.90485c0,0.32216,0.26106,0.58892,0.58929,0.58892
					c0.32596,0,0.59082-0.26676,0.59082-0.58892c0-0.33013-0.26486-0.5912-0.59082-0.5912
					C134.30264,72.31365,134.04158,72.57472,134.04158,72.90485"/>
				<path style="clip-path:url(#SVGID_4_);fill:#E2E3E4;" d="M134.04158,75.71169c0,0.326,0.26106,0.58745,0.58929,0.58745
					c0.32596,0,0.59082-0.26145,0.59082-0.58745c0-0.32591-0.26486-0.59116-0.59082-0.59116
					C134.30264,75.12053,134.04158,75.38577,134.04158,75.71169"/>
				<path style="clip-path:url(#SVGID_4_);fill:#E2E3E4;" d="M139.39084,64.47816c0,0.32596,0.26106,0.58703,0.58888,0.58703
					c0.32634,0,0.58745-0.26107,0.58745-0.58703c0-0.32633-0.26111-0.5893-0.58745-0.5893
					C139.6519,63.88886,139.39084,64.15183,139.39084,64.47816"/>
				<path style="clip-path:url(#SVGID_4_);fill:#E2E3E4;" d="M139.39084,67.28504c0,0.32595,0.26106,0.5874,0.58888,0.5874
					c0.32634,0,0.58745-0.26145,0.58745-0.5874c0-0.32596-0.26111-0.58741-0.58745-0.58741
					C139.6519,66.69763,139.39084,66.95908,139.39084,67.28504"/>
				<path style="clip-path:url(#SVGID_4_);fill:#E2E3E4;" d="M139.39084,70.09566c0,0.32634,0.26106,0.58745,0.58888,0.58745
					c0.32634,0,0.58745-0.26111,0.58745-0.58745c0-0.32781-0.26111-0.59267-0.58745-0.59267
					C139.6519,69.50299,139.39084,69.76785,139.39084,70.09566"/>
				<path style="clip-path:url(#SVGID_4_);fill:#E2E3E4;" d="M139.39084,72.90485c0,0.32216,0.26106,0.58892,0.58888,0.58892
					c0.32634,0,0.58745-0.26676,0.58745-0.58892c0-0.33013-0.26111-0.5912-0.58745-0.5912
					C139.6519,72.31365,139.39084,72.57472,139.39084,72.90485"/>
				<path style="clip-path:url(#SVGID_4_);fill:#E2E3E4;" d="M139.39084,75.71169c0,0.326,0.26106,0.58745,0.58888,0.58745
					c0.32634,0,0.58745-0.26145,0.58745-0.58745c0-0.32591-0.26111-0.59116-0.58745-0.59116
					C139.6519,75.12053,139.39084,75.38577,139.39084,75.71169"/>
				<path style="clip-path:url(#SVGID_4_);fill:#E2E3E4;" d="M128.6889,64.47816c0,0.32596,0.26675,0.58703,0.59271,0.58703
					c0.32254,0,0.5836-0.26107,0.5836-0.58703c0-0.32633-0.26106-0.5893-0.5836-0.5893
					C128.95566,63.88886,128.6889,64.15183,128.6889,64.47816"/>
				<path style="clip-path:url(#SVGID_4_);fill:#E2E3E4;" d="M128.6889,67.28504c0,0.32595,0.26675,0.5874,0.59271,0.5874
					c0.32254,0,0.5836-0.26145,0.5836-0.5874c0-0.32596-0.26106-0.58741-0.5836-0.58741
					C128.95566,66.69763,128.6889,66.95908,128.6889,67.28504"/>
				<path style="clip-path:url(#SVGID_4_);fill:#E2E3E4;" d="M128.6889,70.09566c0,0.32634,0.26675,0.58745,0.59271,0.58745
					c0.32254,0,0.5836-0.26111,0.5836-0.58745c0-0.32781-0.26106-0.59267-0.5836-0.59267
					C128.95566,69.50299,128.6889,69.76785,128.6889,70.09566"/>
				<path style="clip-path:url(#SVGID_4_);fill:#E2E3E4;" d="M128.6889,72.90485c0,0.32216,0.26675,0.58892,0.59271,0.58892
					c0.32254,0,0.5836-0.26676,0.5836-0.58892c0-0.33013-0.26106-0.5912-0.5836-0.5912
					C128.95566,72.31365,128.6889,72.57472,128.6889,72.90485"/>
				<path style="clip-path:url(#SVGID_4_);fill:#E2E3E4;" d="M128.6889,75.71169c0,0.326,0.26675,0.58745,0.59271,0.58745
					c0.32254,0,0.5836-0.26145,0.5836-0.58745c0-0.32591-0.26106-0.59116-0.5836-0.59116
					C128.95566,75.12053,128.6889,75.38577,128.6889,75.71169"/>
				<path style="clip-path:url(#SVGID_4_);fill:#E2E3E4;" d="M123.34154,64.47816c0,0.32596,0.26296,0.58703,0.5855,0.58703
					c0.32596,0,0.59082-0.26107,0.59082-0.58703c0-0.32633-0.26486-0.5893-0.59082-0.5893
					C123.6045,63.88886,123.34154,64.15183,123.34154,64.47816"/>
				<path style="clip-path:url(#SVGID_4_);fill:#E2E3E4;" d="M123.34154,67.28504c0,0.32595,0.26296,0.5874,0.5855,0.5874
					c0.32596,0,0.59082-0.26145,0.59082-0.5874c0-0.32596-0.26486-0.58741-0.59082-0.58741
					C123.6045,66.69763,123.34154,66.95908,123.34154,67.28504"/>
				<path style="clip-path:url(#SVGID_4_);fill:#E2E3E4;" d="M123.34154,70.09566c0,0.32634,0.26296,0.58745,0.5855,0.58745
					c0.32596,0,0.59082-0.26111,0.59082-0.58745c0-0.32781-0.26486-0.59267-0.59082-0.59267
					C123.6045,69.50299,123.34154,69.76785,123.34154,70.09566"/>
				<path style="clip-path:url(#SVGID_4_);fill:#E2E3E4;" d="M123.34154,72.90485c0,0.32216,0.26296,0.58892,0.5855,0.58892
					c0.32596,0,0.59082-0.26676,0.59082-0.58892c0-0.33013-0.26486-0.5912-0.59082-0.5912
					C123.6045,72.31365,123.34154,72.57472,123.34154,72.90485"/>
				<path style="clip-path:url(#SVGID_4_);fill:#E2E3E4;" d="M123.34154,75.71169c0,0.326,0.26296,0.58745,0.5855,0.58745
					c0.32596,0,0.59082-0.26145,0.59082-0.58745c0-0.32591-0.26486-0.59116-0.59082-0.59116
					C123.6045,75.12053,123.34154,75.38577,123.34154,75.71169"/>
				<path style="clip-path:url(#SVGID_4_);fill:#E2E3E4;" d="M117.98848,64.47816c0,0.32596,0.26331,0.58703,0.5893,0.58703
					c0.32596,0,0.5931-0.26107,0.5931-0.58703c0-0.32633-0.26714-0.5893-0.5931-0.5893
					C118.25179,63.88886,117.98848,64.15183,117.98848,64.47816"/>
				<path style="clip-path:url(#SVGID_4_);fill:#E2E3E4;" d="M117.98848,67.28504c0,0.32595,0.26331,0.5874,0.5893,0.5874
					c0.32596,0,0.5931-0.26145,0.5931-0.5874c0-0.32596-0.26714-0.58741-0.5931-0.58741
					C118.25179,66.69763,117.98848,66.95908,117.98848,67.28504"/>
				<path style="clip-path:url(#SVGID_4_);fill:#E2E3E4;" d="M117.98848,70.09566c0,0.32634,0.26331,0.58745,0.5893,0.58745
					c0.32596,0,0.5931-0.26111,0.5931-0.58745c0-0.32781-0.26714-0.59267-0.5931-0.59267
					C118.25179,69.50299,117.98848,69.76785,117.98848,70.09566"/>
				<path style="clip-path:url(#SVGID_4_);fill:#E2E3E4;" d="M117.98848,72.90485c0,0.32216,0.26331,0.58892,0.5893,0.58892
					c0.32596,0,0.5931-0.26676,0.5931-0.58892c0-0.33013-0.26714-0.5912-0.5931-0.5912
					C118.25179,72.31365,117.98848,72.57472,117.98848,72.90485"/>
				<path style="clip-path:url(#SVGID_4_);fill:#E2E3E4;" d="M117.98848,75.71169c0,0.326,0.26331,0.58745,0.5893,0.58745
					c0.32596,0,0.5931-0.26145,0.5931-0.58745c0-0.32591-0.26714-0.59116-0.5931-0.59116
					C118.25179,75.12053,117.98848,75.38577,117.98848,75.71169"/>
				<path style="clip-path:url(#SVGID_4_);fill:#E2E3E4;" d="M112.64149,64.47816c0,0.32596,0.25917,0.58703,0.58513,0.58703
					c0.32634,0,0.58927-0.26107,0.58927-0.58703c0-0.32633-0.26293-0.5893-0.58927-0.5893
					C112.90067,63.88886,112.64149,64.15183,112.64149,64.47816"/>
				<path style="clip-path:url(#SVGID_4_);fill:#E2E3E4;" d="M112.64149,67.28504c0,0.32595,0.25917,0.5874,0.58513,0.5874
					c0.32634,0,0.58927-0.26145,0.58927-0.5874c0-0.32596-0.26293-0.58741-0.58927-0.58741
					C112.90067,66.69763,112.64149,66.95908,112.64149,67.28504"/>
				<path style="clip-path:url(#SVGID_4_);fill:#E2E3E4;" d="M112.64149,70.09566c0,0.32634,0.25917,0.58745,0.58513,0.58745
					c0.32634,0,0.58927-0.26111,0.58927-0.58745c0-0.32781-0.26293-0.59267-0.58927-0.59267
					C112.90067,69.50299,112.64149,69.76785,112.64149,70.09566"/>
				<path style="clip-path:url(#SVGID_4_);fill:#E2E3E4;" d="M112.64149,72.90485c0,0.32216,0.25917,0.58892,0.58513,0.58892
					c0.32634,0,0.58927-0.26676,0.58927-0.58892c0-0.33013-0.26293-0.5912-0.58927-0.5912
					C112.90067,72.31365,112.64149,72.57472,112.64149,72.90485"/>
				<path style="clip-path:url(#SVGID_4_);fill:#E2E3E4;" d="M112.64149,75.71169c0,0.326,0.25917,0.58745,0.58513,0.58745
					c0.32634,0,0.58927-0.26145,0.58927-0.58745c0-0.32591-0.26293-0.59116-0.58927-0.59116
					C112.90067,75.12053,112.64149,75.38577,112.64149,75.71169"/>
				<path style="clip-path:url(#SVGID_4_);fill:#E2E3E4;" d="M107.29034,64.47816c0,0.32596,0.26297,0.58703,0.5893,0.58703
					c0.32217,0,0.58551-0.26107,0.58551-0.58703c0-0.32633-0.26334-0.5893-0.58551-0.5893
					C107.55331,63.88886,107.29034,64.15183,107.29034,64.47816"/>
				<path style="clip-path:url(#SVGID_4_);fill:#E2E3E4;" d="M107.29034,67.28504c0,0.32595,0.26297,0.5874,0.5893,0.5874
					c0.32217,0,0.58551-0.26145,0.58551-0.5874c0-0.32596-0.26334-0.58741-0.58551-0.58741
					C107.55331,66.69763,107.29034,66.95908,107.29034,67.28504"/>
				<path style="clip-path:url(#SVGID_4_);fill:#E2E3E4;" d="M107.29034,70.09566c0,0.32634,0.26297,0.58745,0.5893,0.58745
					c0.32217,0,0.58551-0.26111,0.58551-0.58745c0-0.32781-0.26334-0.59267-0.58551-0.59267
					C107.55331,69.50299,107.29034,69.76785,107.29034,70.09566"/>
				<path style="clip-path:url(#SVGID_4_);fill:#E2E3E4;" d="M107.29034,72.90485c0,0.32216,0.26297,0.58892,0.5893,0.58892
					c0.32217,0,0.58551-0.26676,0.58551-0.58892c0-0.33013-0.26334-0.5912-0.58551-0.5912
					C107.55331,72.31365,107.29034,72.57472,107.29034,72.90485"/>
				<path style="clip-path:url(#SVGID_4_);fill:#E2E3E4;" d="M107.29034,75.71169c0,0.326,0.26297,0.58745,0.5893,0.58745
					c0.32217,0,0.58551-0.26145,0.58551-0.58745c0-0.32591-0.26334-0.59116-0.58551-0.59116
					C107.55331,75.12053,107.29034,75.38577,107.29034,75.71169"/>
				<path style="clip-path:url(#SVGID_4_);fill:#E2E3E4;" d="M109.96212,64.47816c0,0.32596,0.26676,0.58703,0.58931,0.58703
					c0.32595,0,0.59271-0.26107,0.59271-0.58703c0-0.32633-0.26676-0.5893-0.59271-0.5893
					C110.22888,63.88886,109.96212,64.15183,109.96212,64.47816"/>
				<path style="clip-path:url(#SVGID_4_);fill:#E2E3E4;" d="M109.96212,67.28504c0,0.32595,0.26676,0.5874,0.58931,0.5874
					c0.32595,0,0.59271-0.26145,0.59271-0.5874c0-0.32596-0.26676-0.58741-0.59271-0.58741
					C110.22888,66.69763,109.96212,66.95908,109.96212,67.28504"/>
				<path style="clip-path:url(#SVGID_4_);fill:#E2E3E4;" d="M109.96212,70.09566c0,0.32634,0.26676,0.58745,0.58931,0.58745
					c0.32595,0,0.59271-0.26111,0.59271-0.58745c0-0.32781-0.26676-0.59267-0.59271-0.59267
					C110.22888,69.50299,109.96212,69.76785,109.96212,70.09566"/>
				<path style="clip-path:url(#SVGID_4_);fill:#E2E3E4;" d="M109.96212,72.90485c0,0.32216,0.26676,0.58892,0.58931,0.58892
					c0.32595,0,0.59271-0.26676,0.59271-0.58892c0-0.33013-0.26676-0.5912-0.59271-0.5912
					C110.22888,72.31365,109.96212,72.57472,109.96212,72.90485"/>
				<path style="clip-path:url(#SVGID_4_);fill:#E2E3E4;" d="M109.96212,75.71169c0,0.326,0.26676,0.58745,0.58931,0.58745
					c0.32595,0,0.59271-0.26145,0.59271-0.58745c0-0.32591-0.26676-0.59116-0.59271-0.59116
					C110.22888,75.12053,109.96212,75.38577,109.96212,75.71169"/>
			</g>
			<path class="st105" d="M141.49722,119.02377c0,0,11.14856,3.47586,24.03505-2.24755c0,0,9.05318,20.73489-2.51241,43.91573
				c0,0-10.90572,3.90393-22.43411,0.26149C140.58575,160.95345,153.65211,143.00873,141.49722,119.02377"/>
			<g>
				<g>
					<g>
						
							<ellipse transform="matrix(0.9316 -0.36348 0.36348 0.9316 -26.32458 29.63414)" class="st111" cx="65.57843" cy="84.764" rx="3.62424" ry="6.26884"/>
					</g>
					<g>
						<path class="st111" d="M64.89645,94.334c0.31465,0.80644,1.22366,1.20499,2.02985,0.89045l4.74503-1.85135
							c0.80595-0.31445,1.20483-1.2233,0.89018-2.02975l0,0c-0.31464-0.80644-1.22363-1.205-2.02959-0.89055l-4.74502,1.85136
							C64.98071,92.61871,64.5818,93.52756,64.89645,94.334L64.89645,94.334z"/>
					</g>
					<g>
						
							<ellipse transform="matrix(0.9316 -0.36348 0.36348 0.9316 -57.79706 49.27826)" class="st111" cx="102.0385" cy="178.21143" rx="3.62424" ry="6.26884"/>
					</g>
					<g>
						<path class="st111" d="M95.05556,171.63202c-0.31465-0.80644,0.08426-1.7153,0.89044-2.02985l4.74503-1.85135
							c0.80595-0.31445,1.71494,0.08411,2.02959,0.89055l0,0c0.31464,0.80644-0.08434,1.71503-0.89029,2.0295l-4.74502,1.85135
							C96.27911,172.83676,95.3702,172.43846,95.05556,171.63202L95.05556,171.63202z"/>
					</g>
				</g>
				<g>
					
						<ellipse transform="matrix(0.9316 -0.36348 0.36348 0.9316 -26.32458 29.63414)" class="st111" cx="65.57843" cy="84.764" rx="3.62424" ry="6.26884"/>
				</g>
				<g>
					
						<ellipse transform="matrix(0.9316 -0.36348 0.36348 0.9316 -57.79706 49.27826)" class="st111" cx="102.0385" cy="178.21143" rx="3.62424" ry="6.26884"/>
				</g>
				<g>
					
						<ellipse transform="matrix(0.4018 -0.91573 0.91573 0.4018 -79.29733 101.29076)" class="st111" cx="37.87925" cy="111.33954" rx="3.6246" ry="6.26868"/>
				</g>
				<g>
					
						<ellipse transform="matrix(0.40175 -0.91575 0.91575 0.40175 -61.24439 209.52403)" class="st111" cx="129.73799" cy="151.6357" rx="3.6246" ry="6.26849"/>
				</g>
				<g>
					
						<ellipse transform="matrix(0.9316 -0.36348 0.36348 0.9316 -51.88291 23.71992)" class="st111" cx="37.08463" cy="149.71779" rx="6.2687" ry="3.6245"/>
				</g>
				<g>
					
						<ellipse transform="matrix(0.9316 -0.36348 0.36348 0.9316 -32.2388 55.19238)" class="st111" cx="130.532" cy="113.25774" rx="6.26884" ry="3.6245"/>
				</g>
				<g>
					<path class="st111" d="M123.95272,120.241c-0.80592,0.31445-1.7153-0.08426-2.02994-0.89067l-1.85126-4.7448
						c-0.31464-0.80644,0.08462-1.71514,0.89055-2.02959l0,0c0.80695-0.31484,1.7151,0.08375,2.02975,0.89019l1.85135,4.74503
						C125.15791,119.01785,124.75968,119.92616,123.95272,120.241L123.95272,120.241z"/>
				</g>
				<g>
					
						<ellipse transform="matrix(0.40172 -0.91576 0.91576 0.40172 -124.3856 164.44235)" class="st111" cx="63.65983" cy="177.41719" rx="6.26906" ry="3.62451"/>
				</g>
				<g>
					
						<ellipse transform="matrix(0.40172 -0.91576 0.91576 0.40172 -16.1567 146.38705)" class="st111" cx="103.95602" cy="85.55873" rx="6.26877" ry="3.62431"/>
				</g>
				<g>
					<path class="st111" d="M67.11166,137.76994c3.5751,9.16301,13.93884,13.70934,23.10181,10.13425
						c9.16341-3.57526,13.70973-13.939,10.13464-23.102c-3.57524-9.16337-13.93898-13.70969-23.10238-10.13444
						C68.08275,118.24284,63.53642,128.60658,67.11166,137.76994z M73.08656,135.43874
						c-2.28979-5.86873,0.62218-12.50606,6.49052-14.79568c5.86873-2.28979,12.50594,0.62177,14.79572,6.4905
						c2.28963,5.86834-0.62183,12.50591-6.49056,14.79569C82.01391,144.21887,75.37619,141.30707,73.08656,135.43874z"/>
				</g>
				<g>
					<path class="st111" d="M88.2718,137.17828l16.25061,41.65045l-3.89328,1.51903l-16.25062-41.65045
						c0.68901-0.0598,1.38095-0.21236,2.05704-0.47614C87.11192,137.95728,87.72436,137.60091,88.2718,137.17828z"/>
				</g>
				<g>
					<path class="st111" d="M79.18781,125.39347L62.93719,83.74302l3.89328-1.51903l16.25061,41.65044
						c-0.689,0.0598-1.38087,0.21262-2.05722,0.47651C80.34777,124.61474,79.73524,124.97084,79.18781,125.39347z"/>
				</g>
				<g>
					<path class="st111" d="M76.33462,130.49083l-41.04494-18.00547l1.67918-3.82692l40.96413,17.97002
						C77.04643,127.73569,76.48854,129.07741,76.33462,130.49083z"/>
				</g>
				<g>
					<path class="st111" d="M91.08238,132.39677l40.84862,17.91911l-1.67921,3.82692L89.3236,136.18835
						C90.25868,135.11784,90.86788,133.79903,91.08238,132.39677z"/>
				</g>
				<g>
					<path class="st111" d="M77.97814,136.00578l-41.91391,16.35341l-1.51904-3.89331l41.79966-16.30882
						c0.07243,0.61508,0.21423,1.2312,0.44975,1.83485C77.08735,134.74223,77.49242,135.41483,77.97814,136.00578z"/>
				</g>
				
					<ellipse transform="matrix(0.9316 -0.36348 0.36348 0.9316 -41.9929 39.41378)" class="st111" cx="83.72974" cy="131.28603" rx="6.01399" ry="6.01398"/>
				<g>
					<path class="st111" d="M89.75312,126.9256l41.39631-16.15146l1.51904,3.89331l-41.5103,16.19592
						c-0.04262-0.76384-0.20057-1.53285-0.49332-2.28317C90.42933,127.97655,90.11639,127.4272,89.75312,126.9256z"/>
				</g>
				<g>
					<path class="st111" d="M82.93423,138.68127l-18.12835,41.3251l-3.82724-1.67848l18.09322-41.24503
						C80.17937,137.96933,81.52123,138.5269,82.93423,138.68127z"/>
				</g>
				<g>
					<path class="st112" d="M64.89645,94.334c0.31465,0.80644,1.22366,1.20499,2.02985,0.89045l4.74503-1.85135
						c0.80595-0.31445,1.20483-1.2233,0.89018-2.02975l0,0c-0.31464-0.80644-1.22363-1.205-2.02959-0.89055l-4.74502,1.85136
						C64.98071,92.61871,64.5818,93.52756,64.89645,94.334L64.89645,94.334z"/>
				</g>
				<g>
					<path class="st111" d="M84.84069,123.93331l17.79585-40.56715l3.82722,1.6785l-17.83147,40.64742
						C87.56155,124.75649,86.24236,124.14774,84.84069,123.93331z"/>
				</g>
				<g>
					<path class="st112" d="M95.05556,171.63202c-0.31465-0.80644,0.08426-1.7153,0.89044-2.02985l4.74503-1.85135
						c0.80595-0.31445,1.71494,0.08411,2.02959,0.89055l0,0c0.31464,0.80644-0.08434,1.71503-0.89029,2.0295l-4.74502,1.85135
						C96.27911,172.83676,95.3702,172.43846,95.05556,171.63202L95.05556,171.63202z"/>
				</g>
				<g>
					
						<ellipse transform="matrix(0.9316 -0.36348 0.36348 0.9316 -41.99289 39.41383)" class="st112" cx="83.72985" cy="131.28601" rx="2.61207" ry="2.61207"/>
				</g>
				<g>
					<path class="st112" d="M44.16416,118.58884c0.79287,0.34762,1.71682-0.01289,2.06453-0.80552l2.04628-4.66422
						c0.34797-0.79273-0.01271-1.71716-0.8057-2.06503l0,0c-0.79263-0.34771-1.71698,0.01324-2.06427,0.80541l-2.04644,4.66455
						C43.01075,117.31644,43.37144,118.24089,44.16416,118.58884L44.16416,118.58884z"/>
				</g>
				<g>
					<path class="st112" d="M73.08693,135.43851c2.28963,5.86833,8.92695,8.77997,14.79525,6.49036
						c5.86858-2.28972,8.78022-8.92705,6.49059-14.79538c-2.28971-5.86855-8.92703-8.78019-14.79562-6.49046
						C73.70885,122.93263,70.79722,129.56996,73.08693,135.43851z M76.91348,133.94553
						c-1.46646-3.75856,0.39847-8.00935,4.15677-9.47571c3.75855-1.46646,8.00927,0.39821,9.47573,4.15675
						c1.46636,3.7583-0.39824,8.00926-4.15679,9.47572C82.63088,139.56865,78.37984,137.70383,76.91348,133.94553z"/>
				</g>
				<g>
					<path class="st112" d="M120.14756,151.92139c-0.79273-0.34796-1.15342-1.27242-0.80571-2.06505l2.04655-4.66429
						c0.34771-0.79263,1.27164-1.15312,2.06453-0.80551l0,0c0.79298,0.34784,1.15348,1.2718,0.8055,2.0645l-2.0461,4.66475
						C121.86488,151.90833,120.94043,152.26901,120.14756,151.92139L120.14756,151.92139z"/>
				</g>
				<g>
					<g>
						<path class="st112" d="M48.44598,145.0526c-7.59094-19.45565,2.06171-41.45969,21.51709-49.05053
							c19.45567-7.59095,41.45969,2.06171,49.05063,21.51736c7.59085,19.45541-2.06178,41.45944-21.51745,49.05038
							C78.04087,174.16066,56.03683,164.50801,48.44598,145.0526z M53.3128,143.15372
							c6.54393,16.77216,25.51244,25.09322,42.28459,18.54929c16.7724-6.54404,25.09345-25.51257,18.54952-42.28472
							s-25.51257-25.09343-42.28497-18.5494C55.08981,107.41282,46.76887,126.38158,53.3128,143.15372z"/>
					</g>
				</g>
				<g>
					<path class="st112" d="M46.65418,150.40031c0.80719-0.31494,1.20525-1.22377,0.89045-2.02985l-1.85057-4.74533
						c-0.31516-0.80624-1.22333-1.20482-2.03-0.89008l0,0c-0.80644,0.31464-1.20425,1.22336-0.89029,2.02948l1.85135,4.74503
						C44.93914,150.31595,45.84825,150.71475,46.65418,150.40031L46.65418,150.40031z"/>
				</g>
				<g>
					<path class="st112" d="M70.90923,171.1331c0.34788-0.79295-0.01301-1.71793-0.8057-2.06502l-4.6638-2.04674
						c-0.79263-0.3477-1.7176,0.01318-2.06554,0.80591l0,0c-0.34762,0.79286,0.01408,1.71692,0.80571,2.06502l4.66462,2.04585
						C69.63715,172.28584,70.56127,171.92584,70.90923,171.1331L70.90923,171.1331z"/>
				</g>
				<g>
					<path class="st112" d="M104.2421,95.14902c-0.34817,0.79221-1.27311,1.15309-2.06574,0.80539l-4.66361-2.04625
						c-0.79263-0.34771-1.15331-1.27213-0.8057-2.06503l0,0c0.34794-0.79272,1.272-1.15296,2.06495-0.80511l4.66429,2.04568
						C104.22927,93.43158,104.58996,94.35603,104.2421,95.14902L104.2421,95.14902z"/>
				</g>
			</g>
			<path class="st0" d="M112.01501,120.12801c0,0,5.61792,11.30794,9.59391,11.88016c0,0-9.74949-9.91455-8.90443-17.59446
				c0,0,4.92844,8.85661,8.64146,10.06671c0,0-8.88242-7.77097-6.62955-18.02101c0,0,3.97636,10.87614,7.95425,11.26926
				c0,0-6.76086-8.02867-6.16437-15.44367c0,0,9.51083,12.95513,25.06911,16.76078
				c3.33508,5.97727,5.23959,12.8531,5.23959,20.18315c0,7.96906-2.24945,15.4099-6.14386,21.73172
				c-7.20937-2.15117-14.97276-6.99612-21.34126-17.01085c-0.00721-0.01863-0.01821-0.03339-0.02959-0.05199
				c-2.96056-4.41313-4.76147-8.4635-5.85129-11.92267c-0.07779-0.20949-0.159-0.41513-0.23716-0.62648
				c0,0,0.02618,0.03339,0.07437,0.10204C111.21852,124.54151,112.01501,120.12801,112.01501,120.12801"/>
			<g>
				<path class="st3" d="M32.9308,119.14239c-2.13873-12.60526,6.55438-20.29301,9.52908-22.51327
					c8.81101,5.20074,18.68362,4.32655,18.68362,4.32655c-3.62127,3.7411-10.96068,3.90273-10.96068,3.90273
					c2.0418,1.90327,9.59295-1.03334,9.59295-1.03334c-4.34106,5.92176-12.52702,4.84841-12.52702,4.84841
					c2.34937,1.38698,9.28131-0.11763,9.28131-0.11763c-3.64313,3.99546-13.35666,3.45593-13.35666,3.45593
					c2.13887,1.82724,10.67345-0.45084,10.67345-0.45084s-1.94638,2.45924-6.53149,4.56579
					c0.05252-0.00549,0.08552-0.01044,0.08552-0.01044c-0.14622,0.06104-0.29066,0.11288-0.43586,0.16664
					c-2.32352,1.02647-5.28049,1.95216-8.96879,2.43545c-0.01347,0.00632-0.02736,0.0042-0.03932,0.00797
					C36.18586,119.00386,34.51295,119.13387,32.9308,119.14239z"/>
			</g>
			<ellipse class="st113" cx="124.02272" cy="85.83057" rx="3.24945" ry="4.17056"/>
			<path class="st113" d="M141.79526,68.42395c0,0-3.35495,9.83996-17.77254,16.98376v3.63291
				c0,0,12.62149-2.06369,19.33499-13.56799l-1.59712-7.32627"/>
			<path class="st113" d="M105.86346,68.42395c0,0,3.35494,9.83996,17.77253,16.98376v3.63291c0,0-12.895-2.25562-19.60851-13.75992
				l1.87064-7.13435"/>
			<g>
				<path class="st22" d="M126.20397,196.70284l0.15703-0.09315l-0.15703-0.13458v-2.74344
					c0-0.34511,0.28296-0.62808,0.62981-0.62808c0,0,0.8627,0.73506,2.39315,0.73506c1.53049,0,2.23618-0.73506,2.64684-0.73506
					c0.07765,0-0.01035-0.35544,0.36926,0c2.35178,2.19824,7.59885,2.6434,7.59885,2.6434
					c0.29333,0,0.48659,0.46587,0.21568,0.78333c-0.04143,0.04488-0.13976,0.11732-0.13976,0.17253l0.15526,0.16565
					c0,0.34856-0.28123,0.63152-0.6263,0.63152h-12.61298c-0.34685,0-0.62981-0.28296-0.62981-0.63152V196.70284z"/>
				<path class="st22" d="M121.06561,196.86848c0,0.34856-0.28297,0.63152-0.62807,0.63152h-12.61472
					c-0.34334,0-0.62635-0.28296-0.62635-0.63152l0.15704-0.16565c0-0.05521-0.10181-0.12766-0.13976-0.17081
					c-0.27263-0.31918-0.07766-0.78505,0.21396-0.78505c0,0,5.25051-0.44516,7.60056-2.6434c0.38133-0.35544,0.29162,0,0.36922,0
					c0.41238,0,1.11639,0.73506,2.64511,0.73506c1.53222,0,2.39493-0.73506,2.39493-0.73506
					c0.34511,0,0.62807,0.28297,0.62807,0.62981v2.74171l-0.15704,0.13631l0.15704,0.09143V196.86848z"/>
			</g>
		</g>
	</g>
	<path class="st113" d="M125.08501,87.60242c0,0,9.95594,0.29583,10.0844,13.54189
		C135.16942,101.1443,123.86461,99.35361,125.08501,87.60242z"/>
	<path class="st113" d="M121.94859,87.60242c0,0-9.95594,0.29583-10.0844,13.54189
		C111.86418,101.1443,123.16899,99.35361,121.94859,87.60242z"/>
	<path class="st106" d="M144.14047,17.04778c0-10.02086-9.93452-13.38451-15.26083-14.22542
		c-6.02329-0.95095-18.82488-0.14015-18.82488,7.14775C110.05476,12.84988,144.14047,22.61576,144.14047,17.04778z"/>
	<path class="st105" d="M143.82315,31.26827c0,0-25.28979-8.47427-39.3694-0.81364c0,0-9.26308-7.24017-1.26809-22.37658
		c0,0,32.25048-3.36365,46.51347,10.7917C149.69913,18.86975,143.67711,27.96977,143.82315,31.26827z"/>
	<g>
		<defs>
			<path id="SVGID_39_" d="M141.49722,119.02377c0,0,11.14856,3.47586,24.03505-2.24755c0,0,9.05318,20.73489-2.51241,43.91573
				c0,0-10.90572,3.90393-22.43411,0.26149C140.58575,160.95345,153.65211,143.00873,141.49722,119.02377"/>
		</defs>
		<clipPath id="SVGID_6_">
			<use xlink:href="#SVGID_39_"  style="overflow:visible;"/>
		</clipPath>
		<g style="clip-path:url(#SVGID_6_);">
			<path class="st108" d="M144.05484,118.13254c0,0,14.47882,21.11113-2.14107,44.85454"/>
			<path class="st108" d="M147.91272,118.13254c0,0,12.76201,22.06145-3.85788,45.80486"/>
		</g>
	</g>
	<g>
		<path class="st105" d="M133.00943,79.6348c0,0,10.61604-2.4786,12.39267,2.41893c0,0-3.57446-11.54621-3.69434-14.37785
			C141.70776,67.67589,138.62149,74.68285,133.00943,79.6348z"/>
		<g>
			<defs>
				<path id="SVGID_41_" d="M133.00943,79.6348c0,0,10.61604-2.4786,12.39267,2.41893c0,0-3.57446-11.54621-3.69434-14.37785
					C141.70776,67.67589,138.62149,74.68285,133.00943,79.6348z"/>
			</defs>
			<clipPath id="SVGID_8_">
				<use xlink:href="#SVGID_41_"  style="overflow:visible;"/>
			</clipPath>
			<g style="clip-path:url(#SVGID_8_);">
				<path class="st116" d="M146.41,81.2223c0,0-3.3575-6.17184-13.91692-2.59719"/>
				<path class="st117" d="M146.41,79.80506c0,0-3.3575-6.17184-13.91692-2.59719"/>
			</g>
		</g>
	</g>
	<g>
		<path class="st105" d="M114.65643,79.6348c0,0-11.05045-2.48438-12.82706,2.41316c0,0,3.45443-11.55864,4.12872-14.37208
			C105.95809,67.67589,109.04437,74.68285,114.65643,79.6348z"/>
		<g>
			<defs>
				<path id="SVGID_43_" d="M114.65643,79.6348c0,0-11.3966-2.41811-12.82706,2.41316c0,0,3.45081-11.48517,4.12872-14.37208
					C105.95809,67.67589,109.04437,74.68285,114.65643,79.6348z"/>
			</defs>
			<clipPath id="SVGID_10_">
				<use xlink:href="#SVGID_43_"  style="overflow:visible;"/>
			</clipPath>
			<g class="st70">
				<path class="st116" d="M101.25586,81.2223c0,0,3.35749-6.17184,13.91691-2.59719"/>
				<path class="st117" d="M101.25586,79.80506c0,0,3.35749-6.17184,13.91691-2.59719"/>
			</g>
		</g>
	</g>
</g>
</svg>
