<?xml version="1.0" encoding="utf-8"?>
<!-- Generator: Adobe Illustrator 20.0.0, SVG Export Plug-In . SVG Version: 6.00 Build 0)  -->
<!DOCTYPE svg PUBLIC "-//W3C//DTD SVG 1.1//EN" "http://www.w3.org/Graphics/SVG/1.1/DTD/svg11.dtd">
<svg version="1.1" id="Layer_1" xmlns="http://www.w3.org/2000/svg" xmlns:xlink="http://www.w3.org/1999/xlink" x="0px" y="0px"
	 viewBox="0 0 669 800" style="enable-background:new 0 0 669 800;" xml:space="preserve">
<style type="text/css">
	.st0{fill:#BA212F;}
	.st1{fill:#C9C7C6;}
	.st2{fill:#27397D;}
	.st3{fill:#FFFFFF;}
	.st4{fill:#454850;}
	.st5{fill:#D7D7D5;}
	.st6{fill:#E3E1E1;}
	.st7{fill:#2B2B34;}
	.st8{fill:#BA7B2A;}
	.st9{fill:#C9C5C4;}
	.st10{fill:#B7B8BA;}
	.st11{fill-rule:evenodd;clip-rule:evenodd;fill:#FFFFFF;}
	.st12{fill-rule:evenodd;clip-rule:evenodd;fill:#FFFFFF;stroke:#999999;stroke-miterlimit:10;}
	.st13{fill:none;stroke:#000000;stroke-width:2;stroke-miterlimit:10;}
	.st14{fill:#E2E1E1;}
	.st15{fill:none;}
	.st16{fill:#C1272D;}
	.st17{fill:#2B2A34;}
	.st18{fill:#E71C2D;}
	.st19{fill:none;stroke:#CBC9C8;stroke-width:0.1034;stroke-miterlimit:10;}
	.st20{fill:#D8D7D6;}
	.st21{fill:#E4E4E4;}
	.st22{fill:#424750;}
	.st23{fill:#2B2C2D;}
	.st24{fill:#FF0000;}
	.st25{clip-path:url(#SVGID_2_);}
</style>
<path class="st15" d="M180,410l-0.3-5.3C179.2,406,179.2,407.8,180,410z"/>
<path class="st14" d="M200.3,429.3c0.4,0.2,0.9,0.4,1.4,0.6C201.2,429.7,200.7,429.5,200.3,429.3z"/>
<path class="st14" d="M200.2,429.2c-2.6-1.2-5.7-2.9-8.9-5.2c2,38,4,76.7,5.8,112.2c0.9,0.4,1.8,0.8,2.6,1.1
	C233.3,489.8,200.3,429.3,200.2,429.2z"/>
<g>
	<path class="st16" d="M283.9,417.2c0.1-0.1,0.1-0.3,0.2-0.4c-24.5,15-46.9,18.9-66.3,16.8c0,0,0.1,0,0.1,0
		c31.9,52.2,0.2,108.1,0,108.5c3.8,0.5,7.4,0.7,10.8,0.8c-0.3-3.9-0.5-7.8-0.5-11.8C228.3,483.2,250.5,441.2,283.9,417.2z"/>
	<path class="st14" d="M179.8,404.7l-0.7-14.6c-8.8-1.5-22.4,2.7-21.7,20c0.4,10.3,1.6,15.5,2.7,18.1c-1.7-3-4.1-8.8-4.4-17.8
		c-0.5-15.1,5.4-15.9,1.6-16.8c-1.8-0.4-13.6,10.6-14.8,18.8c-1.2,7.7,2.7,20.1,8.6,27.7c10.4,13.5-8.9-3.4-10.2-22.6
		c-0.1-2-6.2,22.6,0.3,38.8c2.6,6.5,7.4,12.6,7.4,12.6c-1.9-1.7-4.5-5.1-7.2-9.9c-4.6-7.9-4.8-18.2-4.8-18.2s-16.6,9,2.1,47.1
		c10,20.4,31.7,34.8,47.6,43.1L180,410C179.2,407.8,179.2,406,179.8,404.7z"/>
	<path class="st16" d="M217.9,433.5C217.9,433.5,217.9,433.5,217.9,433.5c-0.9-0.1-11-1.6-16.2-3.6c-0.5-0.2-1-0.4-1.4-0.6
		c0,0,0,0-0.1,0l0,0c0.1,0.1,33.1,60.6-0.5,108.1c0,0,0,0,0,0c0,0,1.1,0.6,3.6,1.5c0.2,0.1,0.5,0.2,0.7,0.2c0.4,0.1,0.8,0.2,1.2,0.4
		c2.8,0.8,6.8,1.8,12.3,2.6c0.1,0,0.2,0,0.3,0c0,0,0,0,0,0C218.1,541.6,249.8,485.7,217.9,433.5z"/>
	<path class="st17" d="M182.4,250.3l-10.4,1.2l7.1,138.6l0.7,14.6l0.3,5.3l6.2,120.9l7.7,151c0.1,1.5,1.3,2.6,2.8,2.5l4.5-0.1l0.8,0
		c1.5,0,2.7-1.3,2.6-2.9c-0.7-13.3-3.8-72.6-7.5-145.3c-1.8-35.5-3.8-74.1-5.8-112.2C187.9,357.3,184.5,292.6,182.4,250.3z"/>
	<path class="st18" d="M205.2,189.2c-1.7-3.8-3.8-7.4-5.2-11.3c-1.1-3.1-1.5-6.5-2.1-9.7c-0.1-0.4,0.2-0.8,0.5-0.9
		c0.1,0,0.3-0.1,0.4-0.1c0.3-0.1,0.5,0,0.7,0.2c0.8,0.7,1.7,1.4,2.5,2.1c0.4,0.4,1.1,0,1-0.5c-0.7-6-1.6-11.9-2.3-17.5l0.1-0.1
		c-4.1,1.8-5.9,10.1-6.7,15.3c-1.5,9,0.9,17.6,4.6,25.7c6,13.1-4.1,20.8-13.3,23.6c-4.8,1.5-7.2-0.3-7.9-5.3
		c-2-14.9-3.8-29.7-5.6-44.6c-0.1-0.9,0-1.9,0.1-2.9c0.1-1,1.2-1.7,2.2-1.3c1.9,0.7,3.3,1.3,4.9,2c-4.3-6.9-8.6-13.7-13.7-21.7
		c0,0,0,0,0,0c-3,8.5-5.5,15.8-8.4,24.2l4.5-3.1c0.8-0.5,1.9-0.1,2.1,0.8c0,0.1,0,0.2,0.1,0.3c1.7,16.4,3.6,32.8,5,49.2
		c0.1,1.5-2.6,4.3-4.4,4.7c-11.3,2.8-21.9-7.6-20.3-19.1c0.8-6.1,1.2-12.3,0.8-18.4c-0.7-8.6-3.7-16.3-12.5-22.6c0,0,0,0,0,0
		c0.8,7.3,1.5,13.4,2.2,19.4c0,0.3,0.3,0.6,0.5,0.7c0,0,0.1,0,0.1,0c0.4,0.2,0.9,0,1-0.4c0.4-1.2,0.9-2.4,1.3-3.5
		c0.2-0.4,0.7-0.6,1.1-0.4c0.1,0.1,0.3,0.1,0.4,0.2c0.2,0.1,0.3,0.3,0.4,0.5c0.3,1,0.8,2,0.7,2.9c-0.7,5.9-1.3,11.9-2.5,17.7
		c-3.4,16.9,3.9,28,20.8,31.1c2.4,0.4,5.2,0.9,7,2.2c1.1,0.8,2.2,2.5,2.6,4.4l2.3-0.3c-2.5,0.3-4.3,2.5-4.1,4.9l0.9,8.3
		c0.4,3.9,4,6.8,7.9,6.3l4.1-0.4c4.2-0.5,7.3-4.3,6.8-8.5l-0.8-7.4c-0.3-2.7-2.3-4.7-5-4.4l2.1-0.2c-0.3-2.1,0.4-4,3-5.8
		c2.2-1.5,4.7-2.5,7.1-3.6C206.4,215.4,211.2,203.1,205.2,189.2z"/>
</g>
<g>
	<path class="st16" d="M403.4,644.2l-0.3,0c32.4-16.9,54.5-50,54.5-87.9c0-55.2-46.6-100-104.1-100c-57.5,0-104.1,44.8-104.1,100
		c0,38,22,71,54.5,87.9l-0.3,0c15.8,9.1,27.2,24.4,30.6,42.4c0.7-0.4,3.9-1.9,8.2,0.1v-30.9c3.6,0.4,7.3,0.6,11.1,0.6
		c3.8,0,7.5-0.2,11.1-0.6v30.9c4.3-2,7.6-0.4,8.2-0.1C376.2,668.6,387.6,653.3,403.4,644.2"/>
	<polygon class="st16" points="282.1,639.6 424.2,640 348.4,495.2 	"/>
	<path class="st19" d="M422,462.6c0,37.8-30.7,68.5-68.5,68.5c-37.8,0-68.5-30.7-68.5-68.5c0-37.8,30.7-68.5,68.5-68.5
		C391.3,394.1,422,424.8,422,462.6z"/>
	<path class="st16" d="M305.6,350c-0.8,6.4-4.7,0.8-6.7,7.5c-5.7,18.7-14.4,50.8-34.2,69.8c0,0,18.2,71,88.6,71
		c70.4,0,88.6-71,88.6-71c-19-18.2-27.8-51-33.8-69.4c-2.5-7.7-6.6-2-7.5-9.1"/>
	<path class="st16" d="M353.3,385c-69.1,0-125.1,62.6-125.1,139.7c0,47.6,21.3,89.6,53.9,114.9c65.7-25.2,71.2-96.2,71.2-96.2
		c9.9,66,50.2,89.2,70.5,96.8c32.9-25.2,54.6-67.5,54.6-115.4C478.4,447.6,422.4,385,353.3,385"/>
	<path class="st16" d="M353.3,385c-52.8-16-116.7,54.6-125.1,139.7c-4.7,47.4,21.3,89.6,53.9,114.9c65.7-25.2,71.2-96.2,71.2-96.2
		c9.9,66,50.2,89.2,70.5,96.8c32.9-25.2,54.6-67.5,54.6-115.4C478.4,447.6,422.4,385,353.3,385"/>
	<path class="st4" d="M360.4,376.6c0,3.3-2.7,6-6,6c-3.3,0-6-2.7-6-6c0-3.3,2.7-6,6-6C357.7,370.7,360.4,373.3,360.4,376.6"/>
	<path class="st20" d="M355.8,376.6c0,0.8-0.6,1.4-1.4,1.4c-0.8,0-1.4-0.6-1.4-1.4c0-0.8,0.6-1.4,1.4-1.4
		C355.2,375.2,355.8,375.9,355.8,376.6"/>
	<path class="st4" d="M360.4,410.8c0,3.3-2.7,6-6,6c-3.3,0-6-2.7-6-6c0-3.3,2.7-6,6-6C357.7,404.8,360.4,407.5,360.4,410.8"/>
	<path class="st20" d="M355.8,410.8c0,0.8-0.6,1.4-1.4,1.4c-0.8,0-1.4-0.6-1.4-1.4c0-0.8,0.6-1.4,1.4-1.4
		C355.2,409.4,355.8,410,355.8,410.8"/>
	<path class="st21" d="M409.4,267.5c0.8-15.8-0.3-33-6.5-44.8c-3.2-9.2-13.7-14.9-24.3-18.3c4.8-0.1,8.8-0.1,8.8-0.1
		c-11.3-7.6-21.3-7.1-28.6-4.4c-2.3-0.3-4.1-0.5-5.3-0.6c5.3-3,11.2-5.1,11.2-5.1c-17.6-4.3-32.6,5.3-39.1,10.5
		c-10.4,3.5-20.4,9.1-23.6,18.1c-6.2,11.8-7.3,28.9-6.5,44.8c-0.7,14.9-0.1,26.2,3.1,37.2c8.8,20.8,4.7,36.5,0.3,52.7l54.6,96.2v0.4
		l54.6-96.2c-3.7-14.8-12-33.2-2-53.2C409.5,293.7,410.1,280.2,409.4,267.5"/>
	<path class="st3" d="M327.3,257.5c0.2,5-5.1,9.2-11.7,9.4c-6.6,0.2-12.2-3.6-12.3-8.6c-0.2-5,5.1-9.2,11.7-9.4
		C321.6,248.7,327.2,252.5,327.3,257.5"/>
	<path class="st17" d="M320.8,256.9c0.4,3-1.7,5.9-4.8,6.3c-3,0.4-5.9-1.7-6.3-4.7c-0.4-3.1,1.7-5.9,4.8-6.3
		C317.5,251.7,320.4,253.8,320.8,256.9"/>
	<path class="st3" d="M401,257.5c0.2,5-5.1,9.2-11.7,9.4c-6.7,0.2-12.2-3.6-12.3-8.6c-0.2-5,5.1-9.2,11.7-9.4
		C395.3,248.7,400.8,252.5,401,257.5"/>
	<path class="st17" d="M394.4,256.9c0.4,3-1.7,5.9-4.8,6.3c-3,0.4-5.9-1.7-6.3-4.7c-0.4-3.1,1.7-5.9,4.8-6.3
		C391.2,251.7,394,253.8,394.4,256.9"/>
	<path class="st22" d="M352.4,269.9c-6,10-18.4,12.8-18.4,12.8c9.7,6.1,19.5,24.7,19.5,24.7s9.3-18.6,19.1-24.7
		C372.6,282.7,358.4,280,352.4,269.9"/>
	<path class="st21" d="M317.3,323.8c0,0.9-0.7,1.6-1.6,1.6c-0.9,0-1.6-0.7-1.6-1.6c0-0.9,0.7-1.6,1.6-1.6
		C316.5,322.1,317.3,322.9,317.3,323.8"/>
	<path class="st21" d="M317.3,331.6c0,0.9-0.7,1.6-1.6,1.6c-0.9,0-1.6-0.7-1.6-1.6c0-0.9,0.7-1.6,1.6-1.6
		C316.5,329.9,317.3,330.7,317.3,331.6"/>
	<path class="st21" d="M332.1,325.4c0,0.9-0.7,1.6-1.6,1.6c-0.9,0-1.6-0.7-1.6-1.6c0-0.9,0.7-1.6,1.6-1.6
		C331.4,323.8,332.1,324.5,332.1,325.4"/>
	<path class="st21" d="M332.1,333.2c0,0.9-0.7,1.6-1.6,1.6c-0.9,0-1.6-0.7-1.6-1.6c0-0.9,0.7-1.6,1.6-1.6
		C331.4,331.5,332.1,332.3,332.1,333.2"/>
	<path class="st21" d="M346.9,325.4c0,0.9-0.7,1.6-1.6,1.6c-0.9,0-1.6-0.7-1.6-1.6c0-0.9,0.7-1.6,1.6-1.6
		C346.2,323.8,346.9,324.5,346.9,325.4"/>
	<path class="st21" d="M346.9,333.2c0,0.9-0.7,1.6-1.6,1.6c-0.9,0-1.6-0.7-1.6-1.6c0-0.9,0.7-1.6,1.6-1.6
		C346.2,331.5,346.9,332.3,346.9,333.2"/>
	<path class="st21" d="M361.7,325.4c0,0.9-0.7,1.6-1.6,1.6c-0.9,0-1.6-0.7-1.6-1.6c0-0.9,0.7-1.6,1.6-1.6
		C361,323.8,361.7,324.5,361.7,325.4"/>
	<path class="st21" d="M361.7,333.2c0,0.9-0.7,1.6-1.6,1.6c-0.9,0-1.6-0.7-1.6-1.6c0-0.9,0.7-1.6,1.6-1.6
		C361,331.5,361.7,332.3,361.7,333.2"/>
	<path class="st21" d="M376.5,325.4c0,0.9-0.7,1.6-1.6,1.6c-0.9,0-1.6-0.7-1.6-1.6c0-0.9,0.7-1.6,1.6-1.6
		C375.8,323.8,376.5,324.5,376.5,325.4"/>
	<path class="st21" d="M376.5,333.2c0,0.9-0.7,1.6-1.6,1.6c-0.9,0-1.6-0.7-1.6-1.6c0-0.9,0.7-1.6,1.6-1.6
		C375.8,331.5,376.5,332.3,376.5,333.2"/>
	<path class="st21" d="M324.7,327c0,0.9-0.7,1.6-1.6,1.6c-0.9,0-1.6-0.7-1.6-1.6c0-0.9,0.7-1.6,1.6-1.6
		C324,325.4,324.7,326.1,324.7,327"/>
	<path class="st21" d="M324.7,358.2c0,0.9-0.7,1.6-1.6,1.6c-0.9,0-1.6-0.7-1.6-1.6c0-0.9,0.7-1.6,1.6-1.6
		C324,356.5,324.7,357.2,324.7,358.2"/>
	<path class="st21" d="M309.9,327c0,0.9-0.7,1.6-1.6,1.6c-0.9,0-1.6-0.7-1.6-1.6c0-0.9,0.7-1.6,1.6-1.6
		C309.1,325.4,309.9,326.1,309.9,327"/>
	<path class="st21" d="M309.9,358.2c0,0.9-0.7,1.6-1.6,1.6c-0.9,0-1.6-0.7-1.6-1.6c0-0.9,0.7-1.6,1.6-1.6
		C309.1,356.5,309.9,357.2,309.9,358.2"/>
	<path class="st21" d="M339.5,358.2c0,0.9-0.7,1.6-1.6,1.6c-0.9,0-1.6-0.7-1.6-1.6c0-0.9,0.7-1.6,1.6-1.6
		C338.8,356.5,339.5,357.2,339.5,358.2"/>
	<path class="st21" d="M354.3,327c0,0.9-0.7,1.6-1.6,1.6c-0.9,0-1.6-0.7-1.6-1.6c0-0.9,0.7-1.6,1.6-1.6
		C353.6,325.4,354.3,326.1,354.3,327"/>
	<path class="st21" d="M354.3,358.2c0,0.9-0.7,1.6-1.6,1.6c-0.9,0-1.6-0.7-1.6-1.6c0-0.9,0.7-1.6,1.6-1.6
		C353.6,356.5,354.3,357.2,354.3,358.2"/>
	<path class="st21" d="M369.1,327c0,0.9-0.7,1.6-1.6,1.6c-0.9,0-1.6-0.7-1.6-1.6c0-0.9,0.7-1.6,1.6-1.6
		C368.4,325.4,369.1,326.1,369.1,327"/>
	<path class="st21" d="M369.1,358.2c0,0.9-0.7,1.6-1.6,1.6c-0.9,0-1.6-0.7-1.6-1.6c0-0.9,0.7-1.6,1.6-1.6
		C368.4,356.5,369.1,357.2,369.1,358.2"/>
	<path class="st21" d="M383.9,327c0,0.9-0.7,1.6-1.6,1.6c-0.9,0-1.6-0.7-1.6-1.6c0-0.9,0.7-1.6,1.6-1.6
		C383.2,325.4,383.9,326.1,383.9,327"/>
	<path class="st21" d="M383.9,358.2c0,0.9-0.7,1.6-1.6,1.6c-0.9,0-1.6-0.7-1.6-1.6c0-0.9,0.7-1.6,1.6-1.6
		C383.2,356.5,383.9,357.2,383.9,358.2"/>
	<path class="st21" d="M398.8,327c0,0.9-0.7,1.6-1.6,1.6c-0.9,0-1.6-0.7-1.6-1.6c0-0.9,0.7-1.6,1.6-1.6
		C398,325.4,398.8,326.1,398.8,327"/>
	<path class="st21" d="M398.8,358.2c0,0.9-0.7,1.6-1.6,1.6c-0.9,0-1.6-0.7-1.6-1.6c0-0.9,0.7-1.6,1.6-1.6
		C398,356.5,398.8,357.2,398.8,358.2"/>
	<path class="st21" d="M391.4,327c0,0.9-0.7,1.6-1.6,1.6c-0.9,0-1.6-0.7-1.6-1.6c0-0.9,0.7-1.6,1.6-1.6
		C390.6,325.4,391.4,326.1,391.4,327"/>
	<path class="st21" d="M391.4,358.2c0,0.9-0.7,1.6-1.6,1.6c-0.9,0-1.6-0.7-1.6-1.6c0-0.9,0.7-1.6,1.6-1.6
		C390.6,356.5,391.4,357.2,391.4,358.2"/>
	<path class="st21" d="M355.8,416.8c0,0.8-0.6,1.4-1.4,1.4c-0.8,0-1.4-0.6-1.4-1.4c0-0.8,0.6-1.4,1.4-1.4
		C355.2,415.4,355.8,416,355.8,416.8"/>
	<g>
		<path class="st23" d="M360.6,692.6l0.4-0.3l-0.4-0.4v-7.8c0-1,0.8-1.8,1.7-1.8c0,0,2.4,2.1,6.6,2.1c4.2,0,6.2-2.1,7.3-2.1
			c0.2,0,0-1,1,0c6.5,6.3,21,7.5,21,7.5c0.8,0,1.3,1.3,0.6,2.2c-0.1,0.1-0.4,0.3-0.4,0.5l0.4,0.5c0,1-0.8,1.8-1.7,1.8h-34.9
			c-1,0-1.7-0.8-1.7-1.8V692.6z"/>
		<path class="st23" d="M346.4,693.1c0,1-0.8,1.8-1.7,1.8h-34.9c-1,0-1.7-0.8-1.7-1.8l0.4-0.5c0-0.2-0.3-0.4-0.4-0.5
			c-0.8-0.9-0.2-2.2,0.6-2.2c0,0,14.5-1.3,21-7.5c1.1-1,0.8,0,1,0c1.1,0,3.1,2.1,7.3,2.1c4.2,0,6.6-2.1,6.6-2.1c1,0,1.7,0.8,1.7,1.8
			v7.8l-0.4,0.4l0.4,0.3V693.1z"/>
	</g>
</g>
<path class="st16" d="M348.4,230.5c0,0-40.4-33.3-49.1,0.4c-9.8,38-1.1,73.9,1.8,80.5c2.9,6.6-48.3-117.6,41-119.4
	s80,71.2,61.6,118.7C407.9,309.8,421.8,176.3,348.4,230.5z"/>
<path class="st17" d="M291.7,171.6c0.6,1.3,1.1,2.5,1.7,3.6c4.2,8,9.9,14.7,18.1,18.8c1.8,0.9,3.8,1.6,5.8,2.2
	c1.1,0.3,1.3,0.9,0.7,1.7c-1.2,1.9-2.4,3.8-3.8,5.5c-4.4,5.3-9.2,10.1-14.8,14.2c-0.9,0.7-2,1.2-2.9,1.8c-0.9,0.5-1.5,0.4-2.1-0.6
	c-3.9-6.3-6.5-13.1-7.3-20.6c-1-8.9,0.4-17.4,4-25.6C291.2,172.4,291.4,172.1,291.7,171.6z"/>
<path class="st17" d="M382.7,198.4c13.3-3.7,21.2-12.9,27-24.9c0.9,2.6,2,5.1,2.7,7.7c3.8,14,1.8,27.1-5.7,39.5
	c-0.6,1-1.3,1.3-2.2,0.6c-2.1-1.5-4.3-2.9-6.3-4.6c-5-4.1-9.5-8.8-13.3-14c-0.6-0.9-1.2-1.8-1.7-2.7
	C382.8,199.5,382.8,199,382.7,198.4z"/>
<g>
	<path class="st18" d="M264.7,427.3c0,0-0.3,0.4-0.8,1.1c-0.5,0.7-1.2,1.9-2.1,3.3c-0.9,1.4-2,3.2-3.1,5.2c-1.2,2-2.5,4.3-3.8,6.9
		c-1.4,2.5-2.7,5.3-4.2,8.3c-0.7,1.5-1.4,3-2.1,4.6c-0.7,1.6-1.5,3.2-2.1,4.8c-1.4,3.3-2.8,6.7-4.1,10.3c-0.6,1.8-1.3,3.5-1.9,5.4
		c-0.6,1.8-1.2,3.6-1.7,5.5c-1.3,3.6-2.2,7.3-3.2,11c-0.2,0.9-0.5,1.8-0.7,2.7c-0.2,0.9-0.4,1.8-0.6,2.7c-0.4,1.8-0.8,3.6-1.2,5.3
		c-0.2,0.9-0.4,1.7-0.6,2.6c-0.1,0.9-0.3,1.7-0.4,2.6c-0.3,1.7-0.6,3.4-0.8,5c-0.2,1.6-0.6,3.2-0.7,4.7c-0.2,1.5-0.3,3-0.5,4.5
		c-0.2,1.4-0.3,2.8-0.4,4.1c-0.1,1.3-0.3,2.5-0.3,3.7c-0.1,2.3-0.2,4.4-0.3,6c-0.2,3.4-0.3,5.3-0.3,5.3s0-1.9,0.1-5.3
		c0-1.7,0.1-3.7,0.1-6.1c0-2.3,0.4-5,0.6-7.8c0.1-1.4,0.3-2.9,0.4-4.5c0.1-1.5,0.4-3.1,0.7-4.8c0.2-1.6,0.5-3.3,0.7-5
		c0.1-0.9,0.2-1.7,0.4-2.6c0.2-0.9,0.4-1.7,0.5-2.6c0.4-1.8,0.7-3.6,1.1-5.4c0.2-0.9,0.4-1.8,0.6-2.7c0.2-0.9,0.5-1.8,0.7-2.7
		c1-3.7,1.9-7.4,3.1-11c0.6-1.8,1.2-3.7,1.8-5.5c0.6-1.8,1.3-3.6,2-5.4c1.3-3.6,2.8-7,4.1-10.3c0.7-1.7,1.5-3.3,2.2-4.8
		c0.8-1.6,1.4-3.1,2.2-4.6c1.5-2.9,2.9-5.7,4.4-8.2c0.7-1.3,1.4-2.5,2-3.6c0.7-1.1,1.3-2.2,1.9-3.2c1.2-2,2.4-3.7,3.3-5.1
		C263.5,428.8,264.7,427.3,264.7,427.3z"/>
</g>
<path class="st14" d="M177.3,389.9l1,16.4c0,0,1.3-5.2,10.3-6.2c1.7-0.3,6.5-0.5,6.5-0.5s-3.4-4.2-10.8-7.7
	C180.2,389.9,177.3,389.9,177.3,389.9"/>
<path class="st16" d="M303.2,337.7c0,0,53.6,27.3,99.5,0c-0.2-0.9,13,45.1,13,45.1l-62.4,86.4l-61.7-88.7
	C291.6,380.4,305,343.9,303.2,337.7z"/>
<g>
	<path class="st18" d="M424.2,640.2c0,0-0.6,0-1.6,0.1c-1,0.1-2.6,0.2-4.5,0.3c-3.9,0.2-9.4,0.5-16.1,0.7c-3.3,0.1-6.9,0.3-10.7,0.3
		c-3.8,0.1-7.8,0.2-12,0.3c-4.2,0.1-8.4,0.2-12.8,0.2c-4.4,0-8.8,0-13.2,0.1c-4.4,0-8.9,0-13.2-0.1c-4.4,0-8.7-0.1-12.8-0.2
		c-4.2,0-8.2-0.2-12-0.3c-3.8-0.1-7.4-0.2-10.7-0.3c-6.6-0.2-12.2-0.5-16.1-0.8c-3.9-0.2-6.1-0.4-6.1-0.4s2.2-0.2,6.1-0.4
		c3.9-0.2,9.4-0.5,16.1-0.8c3.3-0.1,6.9-0.3,10.7-0.3c3.8-0.1,7.8-0.2,12-0.3c4.2-0.1,8.4-0.2,12.8-0.2c4.4,0,8.8,0,13.2-0.1
		c4.4,0,8.9,0,13.2,0.1c4.4,0,8.7,0.1,12.8,0.2c4.2,0,8.2,0.2,12,0.3c3.8,0.1,7.4,0.2,10.7,0.3c6.6,0.2,12.2,0.5,16.1,0.7
		c1.9,0.1,3.5,0.2,4.5,0.3C423.6,640.2,424.2,640.2,424.2,640.2z"/>
</g>
<path class="st24" d="M303.2,337.8c0,0,51.9,27.5,99.5,0l5.4,17.7c-23.3,15.2-102.3,9.5-108.7,0.5
	C299.4,355,303.2,344.4,303.2,337.8z"/>
<path class="st17" d="M337.1,337.9c0,0,4.2,6.9,8.9,7.3c4.7,0.5,7.3-7.8,7.6-9.4c0.1-0.3,1.4,8,5.5,9c3.5,0.7,5.5,0.3,10.6-6.9
	c0.3,0,1.7,2.3-7.2,12.4c-0.4,0.6-8.6,8.5-9,10.4c-0.2-0.3-3.8-5.5-7.1-8.2C343,349.8,337.9,342.6,337.1,337.9z"/>
<g>
	<defs>
		<path id="SVGID_1_" d="M411.7,378.1c0,0,10.7,28.4,16.5,37.3s76.8,49.3,34.4,170.9c-42.8,123-198-114.7-198-114.7L305.2,367
			L411.7,378.1z"/>
	</defs>
	<clipPath id="SVGID_2_">
		<use xlink:href="#SVGID_1_"  style="overflow:visible;"/>
	</clipPath>
	<g class="st25">
		<path class="st21" d="M333.4,477.1c-5.7-19.1-3.5-31.4-3.5-31.4s15.6,31.3,26.6,32.9c0,0-27-27.5-24.7-48.7
			c0,0,13.6,24.5,23.9,27.9c0,0-24.6-21.5-18.4-49.9c0,0,11,30.1,22,31.2c0,0-18.7-22.2-17.1-42.8c0,0,75.8,103.4,180.7,10.7
			l-2.1,87.7l-50,63.3c0,0-74,27.2-120.8-46.4c0,0-0.1-0.1-0.1-0.1c-8.2-12.2-13.2-23.4-16.2-33c-0.2-0.6-0.4-1.1-0.7-1.7
			C333.2,476.8,333.3,476.9,333.4,477.1"/>
		<path class="st16" d="M426.3,498.6c0-20.3-5.3-39.3-14.5-55.9c30,7.3,68.2,2.4,111.3-35.7l1.6,87.9L471,558.1
			c0,0-28.8,10.6-61.7,0.7C420,541.3,426.3,520.7,426.3,498.6"/>
	</g>
</g>
<g>
	<path class="st18" d="M348.4,509c0,0,0.3,0.5,1,1.3c0.6,0.9,1.6,2.1,2.9,3.6c1.3,1.5,2.9,3.4,4.7,5.5c1.9,2.1,4,4.3,6.5,6.7
		c0.6,0.6,1.2,1.2,1.9,1.8c0.7,0.6,1.3,1.2,2,1.8c1.3,1.3,2.8,2.5,4.2,3.8c3,2.5,6.2,5.1,9.6,7.6c1.7,1.3,3.5,2.4,5.3,3.6
		c0.9,0.6,1.9,1.1,2.8,1.7c0.9,0.6,1.9,1.2,2.8,1.7c1.9,1.1,3.9,2.2,5.9,3.1c1,0.5,2,1,3,1.5l3.1,1.3l1.5,0.7l1.6,0.6
		c1.1,0.4,2.1,0.8,3.2,1.2c1.1,0.4,2.1,0.7,3.2,1c1.1,0.3,2.1,0.7,3.2,0.9c1.1,0.3,2.1,0.5,3.2,0.8c1.1,0.3,2.1,0.5,3.2,0.7
		c1.1,0.2,2.1,0.4,3.2,0.6c0.5,0.1,1,0.2,1.6,0.3c0.5,0.1,1.1,0.1,1.6,0.2c2.1,0.2,4.2,0.5,6.2,0.6c1,0.1,2,0.1,3,0.2
		c0.5,0,1,0.1,1.5,0.1c0.5,0,1,0,1.5,0c1.9,0,3.8,0,5.7-0.1c1.8-0.1,3.6-0.3,5.3-0.4c1.7-0.1,3.3-0.5,4.8-0.6c1.5-0.2,3-0.4,4.4-0.7
		c1.4-0.3,2.6-0.5,3.8-0.8c0.6-0.1,1.2-0.2,1.7-0.3c0.5-0.1,1-0.3,1.5-0.4c3.9-1,6.1-1.6,6.1-1.6s-2.1,0.9-5.9,2.3
		c-0.5,0.2-1,0.4-1.5,0.6c-0.5,0.2-1.1,0.3-1.7,0.5c-1.2,0.4-2.4,0.7-3.8,1.1c-1.3,0.4-2.8,0.8-4.4,1.1c-1.5,0.3-3.2,0.7-4.9,1
		c-1.7,0.3-3.5,0.5-5.4,0.8c-0.9,0.2-1.9,0.2-2.9,0.3c-1,0.1-2,0.1-3,0.2c-0.5,0-1,0.1-1.5,0.1c-0.5,0-1,0-1.5,0c-1,0-2.1,0-3.1,0
		c-2.1,0.1-4.3-0.2-6.4-0.4c-4.4-0.4-8.8-1.2-13.3-2.3c-1.1-0.3-2.2-0.6-3.3-1c-1.1-0.3-2.2-0.6-3.3-1c-1.1-0.4-2.2-0.8-3.3-1.2
		l-1.6-0.6l-1.6-0.7l-3.2-1.4c-1.1-0.5-2.1-1-3.1-1.6c-2.1-1-4.1-2.2-6.1-3.3c-4-2.3-7.7-4.9-11.1-7.6c-3.5-2.6-6.6-5.5-9.5-8.2
		c-2.9-2.8-5.5-5.5-7.8-8.1c-1.2-1.3-2.2-2.6-3.2-3.8c-1-1.2-1.9-2.4-2.8-3.5c-1.7-2.2-3.1-4.3-4.2-6c-1.1-1.7-1.9-3.1-2.5-4
		C348.7,509.5,348.4,509,348.4,509z"/>
</g>
<path class="st16" d="M584.8,401.8l10.7-34.1l-10.9,3c-0.6-3.4-1.6-9.9-3.2-14.1c-1.7-4.3-4.2-9-7.8-13.5
	c-3.5-4.6-8.3-8.8-13.9-12.4c-2.9-1.7-5.9-3.4-9.2-4.8l-1.2-0.5l-0.6-0.3l-0.2-0.1c0,0-0.4-0.1-0.3-0.1l-0.3-0.1
	c-0.8-0.3-1.6-0.6-2.4-0.9c-0.4-0.1-0.8-0.3-1.2-0.4l-1.4-0.4c-0.9-0.3-1.9-0.5-2.9-0.8c-7.6-1.7-15.9-1.2-24.1,0.8
	c-4.1,1.1-8.1,2.6-12,4.7c-3.9,2-7.6,4.6-11,7.6c-6.8,6-12.6,13.9-15.8,23.1c-1.6,4.6-2.6,9.5-2.8,14.5c-0.2,5,0.3,10.1,1.5,15.1
	c2.4,9.9,7.9,19.2,14.5,26.8c6.6,7.7,14,14.5,21.4,21.3c7.5,6.7,15.1,13.4,22.4,20.3c7.3,6.9,14.4,14.2,20.6,22.1
	c6.2,7.8,11.4,16.4,14.7,25.6c0.5,1.1,0.8,2.3,1.1,3.5c0.3,1.2,0.7,2.3,1,3.5l0.7,3.6c0.1,0.6,0.3,1.2,0.3,1.8l0.2,1.8l0.4,3.6
	l0,3.6l0,1.8c0,0.6-0.1,1.2-0.1,1.8l-0.3,3.6c0,1.2-0.4,2.4-0.5,3.6l-0.6,3.6c-0.6,2.4-1.2,4.7-1.9,7.1l-1.2,3.5l-0.6,1.7l-0.3,0.9
	l-0.1,0.2c0,0,0,0,0,0c0,0,0,0,0,0.1l-0.2,0.4c-1.1,2.3-2.1,4.7-3.2,7c-1.2,2.1-2.3,4.2-3.5,6.3c-1.3,2-2.6,4.1-4,6.1
	c-1.5,1.9-2.9,3.9-4.4,5.8c-1.6,1.8-3.2,3.6-4.8,5.4c-6.6,7-14.1,13-22,17.9c-8,4.9-16.4,8.8-25,11.6c-2.1,0.7-4.3,1.4-6.4,1.9
	c-1.1,0.3-2.2,0.5-3.2,0.8c-1.1,0.3-2.1,0.6-3.2,0.7c-2.2,0.4-4.3,0.8-6.5,1.2c-2.2,0.3-4.3,0.5-6.4,0.7c-8.6,0.8-17,0.6-25-0.2
	c-2-0.3-4-0.6-5.9-0.9c-1-0.2-2-0.3-2.9-0.5c-1-0.2-1.9-0.4-2.9-0.6c-1.9-0.5-3.8-0.8-5.6-1.3c-1.8-0.5-3.7-1.1-5.5-1.6
	c-1.8-0.5-3.5-1.2-5.3-1.8c-1.7-0.7-3.4-1.3-5.1-2c-1.6-0.8-3.2-1.5-4.8-2.3c-0.8-0.4-1.6-0.7-2.4-1c-0.8-0.3-1.6-0.7-2.3-1.1
	c-3.1-1.5-6.2-2.8-9-4.5c-2.8-1.6-5.7-3.1-8.2-4.9c-5.3-3.3-9.8-6.9-14.1-10.2c-2.1-1.8-4-3.4-5.9-5.1c-0.5-0.4-0.9-0.8-1.4-1.2
	c-0.4-0.4-0.9-0.8-1.3-1.3c-0.8-0.8-1.7-1.6-2.5-2.4c-0.8-0.8-1.6-1.5-2.4-2.3c-0.8-0.7-1.5-1.4-2.2-2.2c-1.4-1.5-2.6-2.9-3.8-4.2
	c-1.2-1.3-2.3-2.5-3.3-3.6c-0.9-1.2-1.8-2.2-2.6-3.1c-3.1-3.8-4.7-5.8-4.7-5.8s1.4,2.2,4,6.3c0.7,1,1.4,2.2,2.2,3.5
	c0.9,1.2,1.8,2.6,2.9,4c1,1.4,2.2,3,3.3,4.7c0.6,0.8,1.3,1.6,2,2.5c0.7,0.8,1.4,1.7,2.1,2.6c0.7,0.9,1.5,1.8,2.3,2.7
	c0.4,0.5,0.8,0.9,1.2,1.4c0.4,0.5,0.8,0.9,1.3,1.4c1.7,1.9,3.6,3.8,5.5,5.8c4,3.9,8.4,8,13.5,12c2.5,2.1,5.3,4,8.1,6
	c2.8,2.1,5.9,3.8,9,5.7c0.8,0.5,1.6,1,2.4,1.4c0.8,0.4,1.7,0.8,2.5,1.2c1.7,0.8,3.5,1.6,5.2,2.3c1.8,0.7,3.6,1.3,5.5,2
	c1.8,0.7,3.7,1.4,5.6,2c1.9,0.6,3.9,1.2,5.9,1.7c2,0.6,4,0.9,6.1,1.4c1,0.2,2.1,0.5,3.1,0.7c1,0.2,2.1,0.3,3.1,0.5
	c2.1,0.3,4.2,0.7,6.4,1c8.6,0.9,17.7,1.1,26.9,0.3c2.3-0.3,4.6-0.5,6.9-0.8c2.3-0.4,4.6-0.8,7-1.3c1.2-0.2,2.3-0.5,3.5-0.8
	c1.2-0.3,2.3-0.6,3.5-0.9c2.3-0.5,4.6-1.3,6.9-2.1c9.2-3,18.3-7.2,26.9-12.5c8.6-5.3,16.7-11.8,23.8-19.4c1.7-2,3.4-3.9,5.2-5.9
	c1.6-2.1,3.2-4.2,4.8-6.3c1.5-2.2,2.9-4.4,4.3-6.7c1.3-2.3,2.6-4.8,3.9-7.1c1.1-2.4,2.1-4.7,3.2-7l0.2-0.4c0,0.1,0.1-0.3,0.2-0.4
	l0.1-0.2l0.3-0.9l0.7-1.9l1.4-3.8c0.8-2.6,1.4-5.2,2.1-7.9l0.7-4c0.2-1.4,0.5-2.7,0.6-4.1c1.2-10.9,0-22.3-3.8-32.6
	c-3.8-10.4-9.5-19.8-16.1-28.1c-6.6-8.4-13.9-16-21.5-23.1c-7.5-7.1-15.2-13.8-22.6-20.5c-7.4-6.7-14.6-13.3-20.6-20.4
	c-1.6-1.8-2.9-3.6-4.3-5.4c-1.2-1.8-2.4-3.4-3.6-5.6c-2.1-3.8-3.8-7.9-4.8-12c-2-8.3-1.6-16.8,1.1-24.5c2.6-7.7,7.5-14.3,13.2-19.3
	c2.9-2.5,6-4.7,9.3-6.4c3.3-1.7,6.7-3,10.1-3.9c3.4-0.9,6.9-1.3,10.3-1.4c3.4,0,6.7,0.3,9.9,0.7c0.8,0.1,1.5,0.3,2.3,0.4l1.1,0.2
	c0.4,0.1,0.8,0.2,1.2,0.3c0.8,0.2,1.7,0.4,2.5,0.6l0.3,0.1c0.2,0.1-0.1,0,0,0l0.1,0l0.6,0.2l1.1,0.4c3,0.9,5.9,2.2,8.5,3.5
	c10.7,5.4,17.9,13.6,22,21.4c1.9,3.6,3.2,9.6,4.2,12.7l-12.1-2.7L584.8,401.8z"/>
</svg>
