<?xml version="1.0" encoding="utf-8"?>
<!-- Generator: Adobe Illustrator 19.2.1, SVG Export Plug-In . SVG Version: 6.00 Build 0)  -->
<svg version="1.1" id="Layer_1" xmlns="http://www.w3.org/2000/svg" xmlns:xlink="http://www.w3.org/1999/xlink" x="0px" y="0px"
	 width="200px" height="200px" viewBox="0 0 200 200" style="enable-background:new 0 0 200 200;" xml:space="preserve">
<style type="text/css">
	.st0{fill:#E2E3E4;}
	.st1{fill:#595D62;}
	.st2{fill:#C7702A;}
	.st3{fill:#C9C7C7;}
	.st4{fill:#EA8824;}
	.st5{fill:none;stroke:#C9C7C7;stroke-width:0.75651;stroke-miterlimit:10;}
	.st6{fill-rule:evenodd;clip-rule:evenodd;fill:#444851;}
	.st7{fill-rule:evenodd;clip-rule:evenodd;fill:#D8D7D6;}
	.st8{fill:#FFFFFF;}
	.st9{fill:#2B2B35;}
	.st10{fill:#434850;}
	.st11{fill:#6C4396;}
	.st12{fill:#A4A4A4;}
	.st13{fill:#EA4C65;}
	.st14{fill:#94814F;}
	.st15{fill:#9C2023;}
	.st16{fill:#B7242C;}
	.st17{fill-rule:evenodd;clip-rule:evenodd;fill:#FFFFFF;}
	.st18{fill:#0C4F6E;}
	.st19{fill:#C18E46;}
	.st20{fill:#3180BF;}
	.st21{fill:#D94F4F;}
	.st22{fill:#2C2C2D;}
	.st23{fill:#595E63;}
	.st24{fill:#E3E2E2;}
	.st25{fill:#9D9EA0;}
	.st26{fill:none;stroke:#C8C6C6;stroke-width:0.75651;stroke-miterlimit:10;}
	.st27{fill:#2A2E35;}
	.st28{fill-rule:evenodd;clip-rule:evenodd;fill:#454751;}
	.st29{fill-rule:evenodd;clip-rule:evenodd;fill:#D8D7D5;}
	.st30{fill:#434851;}
	.st31{fill:#EC9424;}
	.st32{fill:#445AA4;}
	.st33{clip-path:url(#SVGID_2_);fill:#58C1C4;}
	.st34{fill:#B7DBDB;}
	.st35{fill:#58C1C4;}
	.st36{fill:none;stroke:#434851;stroke-width:1.51302;stroke-linecap:round;stroke-linejoin:round;stroke-miterlimit:10;}
	.st37{clip-path:url(#SVGID_4_);fill:#58C1C4;}
	.st38{fill:#010101;}
	.st39{fill:#161718;}
	.st40{fill-rule:evenodd;clip-rule:evenodd;fill:#010101;}
	.st41{fill:#272626;}
	.st42{fill:#17191A;}
	.st43{fill:#D4D5D4;}
	.st44{fill-rule:evenodd;clip-rule:evenodd;fill:#272626;}
	.st45{fill-rule:evenodd;clip-rule:evenodd;fill:#E2E3E4;}
	.st46{fill:#19244E;}
	.st47{fill:#E3E1E1;}
	.st48{fill:#8E1B27;}
	.st49{fill:#CA2033;}
	.st50{fill:#EFE0A7;}
	.st51{fill:none;stroke:#EFE0A7;stroke-width:0.09335;stroke-miterlimit:10;}
	.st52{fill:#EECA81;}
	.st53{fill:#F3F3F3;}
	.st54{fill:#A0A1A4;}
	.st55{fill:#EB6B6D;}
	.st56{fill:none;stroke:#CAC8C6;stroke-width:0.02289;stroke-miterlimit:10;}
	.st57{fill:#464951;}
	.st58{fill:#D7D6D6;}
	.st59{fill:#EECC82;}
	.st60{fill:#F0E0A9;}
	.st61{fill:none;stroke:#F0E0A9;stroke-width:0.01145;stroke-miterlimit:10;}
	.st62{fill:#5AC1C2;}
	.st63{clip-path:url(#SVGID_6_);fill:#E2E3E4;}
	.st64{fill:#EE7823;}
	.st65{fill:#D6563D;}
	.st66{fill:#70533D;}
	.st67{fill:#81BCA9;}
	.st68{clip-path:url(#SVGID_8_);fill:#E2E3E4;}
	.st69{fill:none;stroke:#EFE0A7;stroke-width:0.37825;stroke-miterlimit:10;}
	.st70{clip-path:url(#SVGID_10_);}
	.st71{clip-path:url(#SVGID_12_);fill:#E3E2E2;}
	.st72{clip-path:url(#SVGID_12_);}
	.st73{fill-rule:evenodd;clip-rule:evenodd;fill:#1AAEA1;}
	.st74{fill-rule:evenodd;clip-rule:evenodd;fill:#0C8C70;}
	.st75{fill:#1AAEA1;}
	.st76{fill:#6F513B;}
	.st77{fill:#515050;}
	.st78{fill:#D4563A;}
	.st79{fill:none;}
	.st80{clip-path:url(#SVGID_14_);}
	.st81{clip-path:url(#SVGID_16_);fill:#E3E2E2;}
	.st82{clip-path:url(#SVGID_16_);}
	.st83{fill:#EEE3A3;}
	.st84{fill:none;stroke:#F0E0A9;stroke-width:0.37825;stroke-miterlimit:10;}
	.st85{clip-path:url(#SVGID_18_);}
	.st86{fill-rule:evenodd;clip-rule:evenodd;fill:#434850;}
	.st87{clip-path:url(#SVGID_20_);}
	.st88{fill:none;stroke:#E4CC21;stroke-width:1.92135;stroke-miterlimit:10;}
	.st89{fill:none;stroke:#FFFFFF;stroke-width:2.2037;stroke-miterlimit:10;}
	.st90{fill:#E4CC21;}
	.st91{fill:#232244;}
	.st92{fill:#C8C6C6;}
	.st93{fill:#542F19;}
	.st94{fill-rule:evenodd;clip-rule:evenodd;fill:#3D2E21;}
	.st95{fill:#3D2E21;}
	.st96{fill-rule:evenodd;clip-rule:evenodd;fill:#232244;}
	.st97{fill-rule:evenodd;clip-rule:evenodd;fill:#2E3280;}
	.st98{fill:#281911;}
	.st99{fill-rule:evenodd;clip-rule:evenodd;fill:#E4CC21;}
	.st100{fill-rule:evenodd;clip-rule:evenodd;fill:#D85127;}
	.st101{clip-path:url(#SVGID_22_);}
	.st102{fill-rule:evenodd;clip-rule:evenodd;fill:#EE7434;}
	.st103{fill:#17733B;}
	.st104{clip-path:url(#SVGID_24_);}
	.st105{fill:#1D73B6;}
	.st106{fill:#115E8E;}
	.st107{clip-path:url(#SVGID_26_);}
	.st108{fill:none;stroke:#FFFFFF;stroke-width:1.49993;stroke-miterlimit:10;}
	.st109{fill:none;stroke:#CAC8C6;stroke-width:0.024;stroke-miterlimit:10;}
	.st110{clip-path:url(#SVGID_28_);fill:#E2E3E4;}
	.st111{fill:#603A17;}
	.st112{fill:#78471F;}
	.st113{fill:#F8FAFD;}
	.st114{clip-path:url(#SVGID_30_);}
	.st115{clip-path:url(#SVGID_32_);}
	.st116{fill:none;stroke:#FFFFFF;stroke-width:0.49998;stroke-miterlimit:10;}
	.st117{fill:none;stroke:#FFFFFF;stroke-width:0.74997;stroke-miterlimit:10;}
	.st118{clip-path:url(#SVGID_34_);}
	.st119{clip-path:url(#SVGID_36_);}
	.st120{clip-path:url(#SVGID_38_);fill:#E2E3E4;}
	.st121{clip-path:url(#SVGID_40_);}
	.st122{clip-path:url(#SVGID_42_);}
	.st123{clip-path:url(#SVGID_44_);}
	.st124{opacity:0.7;fill:#434850;}
	.st125{fill:#5B3287;}
	.st126{fill:#643E1E;}
	.st127{fill:#C8D6DE;}
	.st128{fill:none;stroke:#CAC7C6;stroke-width:0.75651;stroke-miterlimit:10;}
	.st129{fill:#B6C3CE;}
	.st130{fill:#273980;}
	.st131{fill:#2B2C35;}
	.st132{clip-path:url(#SVGID_46_);fill:#FFFFFF;stroke:#5A3B84;stroke-width:4.53905;stroke-miterlimit:10;}
	.st133{fill:#C8C7C9;}
	.st134{fill:#056F43;}
	.st135{clip-path:url(#SVGID_48_);}
	.st136{fill:#EBEDF1;}
	.st137{fill:#CF2B29;}
	.st138{fill-rule:evenodd;clip-rule:evenodd;fill:#273980;}
	.st139{fill:#D6232A;}
	.st140{clip-path:url(#SVGID_52_);fill:#FFFFFF;stroke:#5A3B84;stroke-width:4.53905;stroke-miterlimit:10;}
	.st141{clip-path:url(#SVGID_54_);}
	.st142{fill:#532D17;}
	.st143{fill:none;stroke:#5E1116;stroke-width:0.95369;stroke-miterlimit:10;}
	.st144{fill-rule:evenodd;clip-rule:evenodd;fill:#5E1116;}
	.st145{fill:none;stroke:#5E1116;stroke-width:0.94639;stroke-miterlimit:10;}
	.st146{fill:#291B13;}
	.st147{fill-rule:evenodd;clip-rule:evenodd;fill:#291B13;}
	.st148{fill-rule:evenodd;clip-rule:evenodd;fill:#454850;}
	.st149{fill-rule:evenodd;clip-rule:evenodd;fill:#74441F;}
	.st150{fill:#7F161B;}
	.st151{fill-rule:evenodd;clip-rule:evenodd;fill:#7F161B;}
	.st152{fill:none;stroke:#5E1116;stroke-width:1.04342;stroke-miterlimit:10;}
	.st153{fill:#E4E0E4;}
	.st154{clip-path:url(#SVGID_58_);fill:#E1244D;}
	.st155{clip-path:url(#SVGID_60_);fill:#E1244D;}
	.st156{fill:#292933;}
	.st157{fill:none;stroke:#CAC8C6;stroke-width:0.02378;stroke-miterlimit:10;}
	.st158{fill:none;stroke:#F0E0A9;stroke-width:0.01189;stroke-miterlimit:10;}
	.st159{clip-path:url(#SVGID_62_);fill:#E2E3E4;}
	.st160{fill:#2F465D;}
	.st161{fill:#432F21;}
	.st162{fill-rule:evenodd;clip-rule:evenodd;fill:#3D5F7C;}
	.st163{fill-rule:evenodd;clip-rule:evenodd;fill:#2F465D;}
	.st164{clip-path:url(#SVGID_64_);fill:#2C2C2D;}
	.st165{clip-path:url(#SVGID_66_);fill:#F8B917;}
	.st166{clip-path:url(#SVGID_66_);fill:#1F4394;}
	.st167{clip-path:url(#SVGID_68_);fill:#E8212F;}
	.st168{clip-path:url(#SVGID_68_);fill:#C9C8C8;}
	.st169{clip-path:url(#SVGID_68_);fill:#2A2E35;}
	.st170{clip-path:url(#SVGID_68_);fill:#444750;}
	.st171{clip-path:url(#SVGID_68_);fill:#D7D7D6;}
	.st172{clip-path:url(#SVGID_68_);fill:#E3E2E2;}
	.st173{clip-path:url(#SVGID_68_);fill:#FFFFFF;}
	.st174{clip-path:url(#SVGID_68_);fill:#2B2D34;}
	.st175{clip-path:url(#SVGID_68_);fill:#B9252D;}
	.st176{clip-path:url(#SVGID_68_);fill:#24345B;}
	.st177{clip-path:url(#SVGID_68_);fill:#F7F6F8;}
	.st178{clip-path:url(#SVGID_70_);fill:#1F4394;}
	.st179{clip-path:url(#SVGID_70_);fill:#F8B917;}
	.st180{clip-path:url(#SVGID_70_);fill:#883D1E;}
	.st181{clip-path:url(#SVGID_70_);fill:#F5D07C;}
	.st182{clip-path:url(#SVGID_72_);fill:#E8212F;}
	.st183{clip-path:url(#SVGID_72_);fill:#E3E2E2;}
	.st184{clip-path:url(#SVGID_72_);fill:#F7F6F8;}
	.st185{clip-path:url(#SVGID_72_);fill:#F8B917;}
	.st186{clip-path:url(#SVGID_72_);fill:#888983;}
	.st187{clip-path:url(#SVGID_74_);fill:#888983;}
	.st188{clip-path:url(#SVGID_74_);fill:#624219;}
	.st189{clip-path:url(#SVGID_76_);fill:#E3E2E2;}
	.st190{clip-path:url(#SVGID_76_);fill:#2C2C2D;}
	.st191{clip-path:url(#SVGID_76_);fill:#888983;}
	.st192{clip-path:url(#SVGID_78_);fill:#F8B917;}
	.st193{clip-path:url(#SVGID_78_);fill:#1F4394;}
	.st194{clip-path:url(#SVGID_80_);fill:#E8212F;}
	.st195{clip-path:url(#SVGID_80_);fill:#C9C8C8;}
	.st196{clip-path:url(#SVGID_80_);fill:#2A2E35;}
	.st197{clip-path:url(#SVGID_80_);fill:#444750;}
	.st198{clip-path:url(#SVGID_80_);fill:#D7D7D6;}
	.st199{clip-path:url(#SVGID_80_);fill:#E3E2E2;}
	.st200{clip-path:url(#SVGID_80_);fill:#FFFFFF;}
	.st201{clip-path:url(#SVGID_80_);fill:#2B2D34;}
	.st202{clip-path:url(#SVGID_80_);fill:#B9252D;}
	.st203{clip-path:url(#SVGID_80_);fill:#24345B;}
	.st204{clip-path:url(#SVGID_80_);fill:#F7F6F8;}
	.st205{clip-path:url(#SVGID_82_);fill:#1F4394;}
	.st206{clip-path:url(#SVGID_82_);fill:#F8B917;}
	.st207{clip-path:url(#SVGID_82_);fill:#883D1E;}
	.st208{clip-path:url(#SVGID_82_);fill:#F5D07C;}
	.st209{clip-path:url(#SVGID_84_);fill:#E8212F;}
	.st210{clip-path:url(#SVGID_84_);fill:#E3E2E2;}
	.st211{clip-path:url(#SVGID_84_);fill:#F7F6F8;}
	.st212{clip-path:url(#SVGID_84_);fill:#F8B917;}
	.st213{clip-path:url(#SVGID_84_);fill:#888983;}
	.st214{clip-path:url(#SVGID_86_);fill:#888983;}
	.st215{clip-path:url(#SVGID_86_);fill:#624219;}
	.st216{clip-path:url(#SVGID_88_);fill:#E3E2E2;}
	.st217{clip-path:url(#SVGID_88_);fill:#2C2C2D;}
	.st218{clip-path:url(#SVGID_90_);fill:#2C2C2D;}
	.st219{clip-path:url(#SVGID_92_);fill:#F8B917;}
	.st220{clip-path:url(#SVGID_92_);fill:#1F4394;}
	.st221{clip-path:url(#SVGID_94_);fill:#E8212F;}
	.st222{clip-path:url(#SVGID_94_);fill:#C9C8C8;}
	.st223{clip-path:url(#SVGID_94_);fill:#2A2E35;}
	.st224{clip-path:url(#SVGID_94_);fill:#444750;}
	.st225{clip-path:url(#SVGID_94_);fill:#D7D7D6;}
	.st226{clip-path:url(#SVGID_94_);fill:#E3E2E2;}
	.st227{clip-path:url(#SVGID_94_);fill:#FFFFFF;}
	.st228{clip-path:url(#SVGID_94_);fill:#2B2D34;}
	.st229{clip-path:url(#SVGID_94_);fill:#B9252D;}
	.st230{clip-path:url(#SVGID_94_);fill:#24345B;}
	.st231{clip-path:url(#SVGID_94_);fill:#F7F6F8;}
	.st232{clip-path:url(#SVGID_96_);fill:#1F4394;}
	.st233{clip-path:url(#SVGID_96_);fill:#F8B917;}
	.st234{clip-path:url(#SVGID_96_);fill:#883D1E;}
	.st235{clip-path:url(#SVGID_96_);fill:#F5D07C;}
	.st236{clip-path:url(#SVGID_98_);fill:#E8212F;}
	.st237{clip-path:url(#SVGID_98_);fill:#E3E2E2;}
	.st238{clip-path:url(#SVGID_98_);fill:#F7F6F8;}
	.st239{clip-path:url(#SVGID_98_);fill:#F8B917;}
	.st240{clip-path:url(#SVGID_98_);fill:#888983;}
	.st241{clip-path:url(#SVGID_100_);fill:#888983;}
	.st242{clip-path:url(#SVGID_100_);fill:#624219;}
	.st243{clip-path:url(#SVGID_102_);fill:#E3E2E2;}
	.st244{clip-path:url(#SVGID_102_);fill:#2C2C2D;}
	.st245{clip-path:url(#SVGID_102_);fill:#888983;}
	.st246{clip-path:url(#SVGID_104_);fill:#F8B917;}
	.st247{clip-path:url(#SVGID_104_);fill:#1F4394;}
	.st248{clip-path:url(#SVGID_106_);fill:#E8212F;}
	.st249{clip-path:url(#SVGID_106_);fill:#C9C8C8;}
	.st250{clip-path:url(#SVGID_106_);fill:#2A2E35;}
	.st251{clip-path:url(#SVGID_106_);fill:#444750;}
	.st252{clip-path:url(#SVGID_106_);fill:#D7D7D6;}
	.st253{clip-path:url(#SVGID_106_);fill:#E3E2E2;}
	.st254{clip-path:url(#SVGID_106_);fill:#FFFFFF;}
	.st255{clip-path:url(#SVGID_106_);fill:#2B2D34;}
	.st256{clip-path:url(#SVGID_106_);fill:#B9252D;}
	.st257{clip-path:url(#SVGID_106_);fill:#24345B;}
	.st258{clip-path:url(#SVGID_106_);fill:#F7F6F8;}
	.st259{clip-path:url(#SVGID_108_);fill:#1F4394;}
	.st260{clip-path:url(#SVGID_108_);fill:#F8B917;}
	.st261{clip-path:url(#SVGID_108_);fill:#883D1E;}
	.st262{clip-path:url(#SVGID_108_);fill:#F5D07C;}
	.st263{clip-path:url(#SVGID_110_);fill:#E8212F;}
	.st264{clip-path:url(#SVGID_110_);fill:#E3E2E2;}
	.st265{clip-path:url(#SVGID_110_);fill:#F7F6F8;}
	.st266{clip-path:url(#SVGID_110_);fill:#F8B917;}
	.st267{clip-path:url(#SVGID_110_);fill:#888983;}
	.st268{clip-path:url(#SVGID_112_);fill:#888983;}
	.st269{clip-path:url(#SVGID_112_);fill:#624219;}
	.st270{clip-path:url(#SVGID_114_);fill:#E3E2E2;}
	.st271{clip-path:url(#SVGID_114_);fill:#2C2C2D;}
	.st272{fill:#EDE2A3;}
	.st273{clip-path:url(#SVGID_116_);}
	.st274{fill-rule:evenodd;clip-rule:evenodd;fill:#434851;}
	.st275{fill-rule:evenodd;clip-rule:evenodd;fill:#E3E2E2;}
	.st276{fill:#2A2B2A;}
	.st277{clip-path:url(#SVGID_118_);}
	.st278{clip-path:url(#SVGID_120_);}
	.st279{clip-path:url(#SVGID_122_);}
	.st280{fill:#1F3566;}
	.st281{fill:#E3E4E5;}
	.st282{fill:#4BB1E4;}
	.st283{fill:#2D2A6C;}
	.st284{fill-rule:evenodd;clip-rule:evenodd;fill:#D8D9D5;}
	.st285{fill:#434852;}
	.st286{fill:#E3E3E3;}
	.st287{fill:#162E54;}
	.st288{fill:none;stroke:#335DAB;stroke-width:1.68786;stroke-miterlimit:10;}
	.st289{fill:#81817F;}
	.st290{fill:#142B49;}
	.st291{fill:#5A5A5A;}
	.st292{fill:none;stroke:#FFFFFF;stroke-width:0.84393;stroke-linecap:round;stroke-linejoin:round;stroke-miterlimit:10;}
	.st293{fill:#AB9D9C;}
	.st294{fill:#EA6689;}
	.st295{fill:#CE1D5B;}
	.st296{fill:#BF742A;}
	.st297{fill:#273449;}
	.st298{fill:#A4464B;}
	.st299{fill:none;stroke:#CAC8C6;stroke-width:0.0662;stroke-miterlimit:10;}
	.st300{fill:#80333A;}
	.st301{fill:none;stroke:#B4B4B4;stroke-width:0.25748;stroke-miterlimit:10;}
	.st302{fill:none;stroke:#B4B4B4;stroke-width:3.08973;stroke-miterlimit:10;}
	.st303{fill:none;stroke:#B4B4B4;stroke-width:1.02991;stroke-miterlimit:10;}
	.st304{fill:none;stroke:#82858B;stroke-width:0.51495;stroke-miterlimit:10;}
	.st305{fill:none;stroke:#E2E3E4;stroke-width:1.02991;stroke-miterlimit:10;}
	.st306{fill:#E5E5E5;}
	.st307{fill:#2D2C2D;}
	.st308{fill:#4CB2E5;}
	.st309{fill:#AD2824;}
	.st310{fill-rule:evenodd;clip-rule:evenodd;fill:#D9D9D6;}
	.st311{fill:#E4E4E3;}
	.st312{fill:#DB4826;}
	.st313{fill:#B33725;}
	.st314{fill:#120C0D;}
	.st315{fill:#F3F0F0;}
	.st316{fill:#C4BFBF;}
	.st317{clip-path:url(#SVGID_124_);fill:none;stroke:#F3F0F0;stroke-width:1.10165;stroke-linecap:round;stroke-miterlimit:10;}
	.st318{clip-path:url(#SVGID_126_);fill:none;stroke:#F3F0F0;stroke-width:1.10165;stroke-linecap:round;stroke-miterlimit:10;}
	.st319{clip-path:url(#SVGID_128_);fill:none;stroke:#F3F0F0;stroke-width:1.10165;stroke-linecap:round;stroke-miterlimit:10;}
	.st320{fill:#DE5B2A;}
	.st321{fill:#7A2716;}
	.st322{fill:#E5E4E4;}
	.st323{fill:#BB4928;}
	.st324{fill:#454545;}
	.st325{fill:#6265AE;}
	.st326{fill:none;stroke:#CAC5C4;stroke-width:0.55083;stroke-linecap:round;stroke-miterlimit:10;}
	.st327{fill:#E1E3E3;}
	.st328{fill:#484848;}
	.st329{fill:#422F90;}
	.st330{fill:#D57A28;}
	.st331{fill:#B4B4B5;}
	.st332{fill:#4B4B4D;}
	.st333{fill:#949393;}
	.st334{fill:#040404;}
	.st335{clip-path:url(#SVGID_130_);fill:none;stroke:#F3F0F0;stroke-width:1.10165;stroke-linecap:round;stroke-miterlimit:10;}
	.st336{clip-path:url(#SVGID_132_);fill:none;stroke:#F3F0F0;stroke-width:1.10165;stroke-linecap:round;stroke-miterlimit:10;}
	.st337{clip-path:url(#SVGID_134_);fill:none;stroke:#F3F0F0;stroke-width:1.10165;stroke-linecap:round;stroke-miterlimit:10;}
	.st338{clip-path:url(#SVGID_140_);fill:#AD2824;}
	.st339{fill:#CDCCCC;}
	.st340{fill:#E4E5E6;}
	.st341{opacity:0.72;fill:none;stroke:#FFFFFF;stroke-width:1.1546;stroke-linecap:round;stroke-miterlimit:10;}
	.st342{fill:#BBD867;}
	.st343{fill:none;stroke:#BBD867;stroke-width:5.799;stroke-miterlimit:10;}
	.st344{clip-path:url(#SVGID_146_);fill:#AD2824;}
	.st345{fill:none;stroke:#AE4E85;stroke-width:1.54066;stroke-linecap:round;stroke-linejoin:round;stroke-miterlimit:10;}
	.st346{fill:none;stroke:#E97625;stroke-width:1.62274;stroke-linecap:round;stroke-linejoin:round;stroke-miterlimit:10;}
	.st347{fill:none;stroke:#C9C7C7;stroke-width:0.23348;stroke-miterlimit:10;}
	.st348{fill:#981E5C;}
	.st349{fill:none;stroke:#AE4E85;stroke-width:1.21706;stroke-linecap:round;stroke-linejoin:round;stroke-miterlimit:10;}
	.st350{fill:#AE4E85;}
	.st351{fill:#F7B456;}
	.st352{fill:#E97625;}
	.st353{fill:none;stroke:#E97625;stroke-width:1.54273;stroke-linecap:round;stroke-linejoin:round;stroke-miterlimit:10;}
</style>
<g>
	<path class="st306" d="M176.8912,103.18304c0,0-12.38002,7.21001-37.61501,4.10804l5.87929,17.94489l10.7205,19.02736
		c0,0,12.98305-6.51208,17.85735-12.32411c5.89389-7.02776,8.37088-11.36324,7.96451-16.76743
		C181.21028,108.95488,178.34439,103.51837,176.8912,103.18304z"/>
	<path class="st306" d="M14.00692,113.39065c-0.40633,5.40419,0.9731,10.48511,6.86699,17.51287
		c4.87426,5.81203,21.09528,11.34772,21.09528,11.34772l10.7205-19.02737l5.01279-15.0106
		c-23.64211,1.59293-37.27551-20.21834-37.27551-20.21834c-3.77889,5.40423,0.7314,13.04324,0.7314,13.04324
		C19.20796,101.40388,14.49448,107.17379,14.00692,113.39065z"/>
	<path class="st307" d="M117.81151,171.54799l-0.09723,0.01085c9.98689-5.6806,16.53101-16.28949,16.10291-28.19756
		c-0.61943-17.32347-15.74368-30.84048-33.77755-30.19469c-18.02791,0.64786-32.13891,15.21173-31.52153,32.53194
		c0.42802,11.9082,7.70851,22.02373,18.07307,26.97293l-0.08942-0.00107c5.04872,2.66026,8.8046,7.33102,10.06632,12.94221
		c0.22115-0.12848,1.20548-0.63463,2.57771-0.07246l-0.3437-9.69879c1.15461,0.07791,2.31059,0.09521,3.48366,0.05276
		c1.17706-0.04242,2.33369-0.14125,3.48778-0.30249l0.34864,9.69962c1.33517-0.6725,2.36684-0.21216,2.57548-0.10716
		C109.5507,179.49171,112.96485,174.56195,117.81151,171.54799"/>
	<path class="st308" d="M83.83681,80.35432c-0.1898,2.01854-1.46332,0.30064-2.03013,2.43943
		c-1.58318,5.93867-3.93142,16.08351-9.9323,22.27238c0,0,6.49771,22.05164,28.58094,21.26077
		c22.08928-0.79189,27.00054-23.2514,27.00054-23.2514c-6.17049-5.50761-9.28482-15.70182-11.39051-21.40021
		c-0.87955-2.38731-2.09396-0.54247-2.45827-2.75754"/>
	<path class="st309" d="M105.19341,186.54832c-0.00966,0.30206,0.22346,0.55165,0.51752,0.56239l10.79343,0.44582
		c0.29502,0.00967,0.54581-0.21739,0.55634-0.52327l-0.12458-0.1427c-0.0006-0.04756,0.08817-0.10419,0.12466-0.13828
		c0.24629-0.26677,0.09299-0.67117-0.1603-0.68646c0,0-4.47419-0.56427-6.4106-2.52635
		c-0.30918-0.3143-0.24827-0.00429-0.31287-0.01151c-0.35654-0.01413-0.98242,0.59239-2.28973,0.53899
		c-1.30427-0.05255-2.02223-0.71199-2.02223-0.71199c-0.29703-0.01572-0.54972,0.21339-0.56046,0.51039l-0.0938,2.34923
		l0.13232,0.1217l-0.14317,0.07106L105.19341,186.54832z"/>
	<path class="st309" d="M100.65152,186.59735c0.01713,0.30167-0.21242,0.55629-0.50422,0.57333l-10.78137,0.67799
		c-0.29575,0.0161-0.55041-0.20551-0.56741-0.51122l0.12136-0.14519c-0.00051-0.0477-0.09041-0.10229-0.13042-0.13565
		c-0.25007-0.26141-0.1066-0.66907,0.1454-0.68959c0,0,4.46298-0.66075,6.35561-2.66386
		c0.30244-0.321,0.25024-0.00966,0.31365-0.01839c0.35709-0.02167,0.99495,0.57124,2.29874,0.48967
		c1.30585-0.08067,2.00948-0.75536,2.00948-0.75536c0.29656-0.02216,0.55431,0.20148,0.57131,0.49815l0.14343,2.34666
		l-0.12875,0.12457l0.14377,0.06784L100.65152,186.59735z"/>
	<path class="st310" d="M99.87766,88.16836c0.00657,0.24114-0.18988,0.44283-0.42599,0.44939
		c-0.24616,0.00966-0.45678-0.17786-0.46523-0.41895c-0.00872-0.25011,0.18761-0.45583,0.43385-0.46429
		C99.65644,87.72494,99.86504,87.91533,99.87766,88.16836"/>
	<path class="st311" d="M115.47138,53.33962c0.07251-4.97712-0.46665-10.33202-2.5462-13.96143
		c-1.11086-2.84159-4.45298-4.50647-7.82348-5.47902c1.47749-0.09024,2.75007-0.12681,2.75007-0.12681
		c-3.64156-2.26135-6.74635-1.98672-9.03192-1.06244c-0.72161-0.06976-1.29903-0.11501-1.66544-0.13102
		c1.62328-1.01925,3.44048-1.73387,3.44048-1.73387c-5.55268-1.1516-10.14545,2.01742-12.14063,3.72488
		c-3.21388,1.21222-6.30534,3.09428-7.1842,5.94142c-1.81612,3.76871-1.97058,9.1489-1.54493,14.10778
		c-0.06091,4.67617,0.25819,8.21032,1.40133,11.6453c3.00035,6.44851,1.86824,11.39827,0.68023,16.52934l18.20543,29.5679
		l0.00214,0.10621l16.0511-30.79257c-1.33826-4.59358-4.13396-10.28347-1.23399-16.6702
		C115.77404,61.54058,115.81684,57.30444,115.47138,53.33962"/>
	<path class="st8" d="M89.61124,51.10712c0.11012,1.55948-1.50337,2.93123-3.58498,3.08273
		c-2.07061,0.13553-3.85518-0.9971-3.96323-2.55967c-0.10312-1.55867,1.49543-2.93725,3.57394-3.08372
		C87.72153,48.40891,89.49928,49.55235,89.61124,51.10712"/>
	<path class="st9" d="M87.54084,50.99125c0.16318,0.94657-0.46957,1.85484-1.42087,2.02995
		c-0.9503,0.17009-1.86488-0.48335-2.03579-1.42477c-0.16228-0.9573,0.47747-1.85691,1.43671-2.03202
		C86.4623,49.40339,87.37667,50.04086,87.54084,50.99125"/>
	<path class="st8" d="M112.69702,50.27959c0.11015,1.56068-1.49347,2.93222-3.57305,3.08278
		c-2.08156,0.13755-3.85715-0.99508-3.96529-2.55972c-0.11011-1.55961,1.49741-2.93626,3.57291-3.08273
		C110.81521,47.5813,112.59485,48.72582,112.69702,50.27959"/>
	<path class="st9" d="M110.63258,50.16282c0.16893,0.94644-0.46154,1.85673-1.42777,2.0309
		c-0.93845,0.16906-1.84402-0.48142-2.01695-1.4249c-0.16321-0.95537,0.46438-1.85669,1.42571-2.03283
		C109.56097,48.57672,110.47945,49.21432,110.63258,50.16282"/>
	<path class="st285" d="M97.6094,55.51382c-1.75259,3.21904-5.61416,4.20982-5.61416,4.20982
		c3.12326,1.81406,6.38501,7.54461,6.38501,7.54461s2.71015-5.94674,5.69968-7.97971
		C104.07993,59.28854,99.58861,58.60029,97.6094,55.51382"/>
	<path class="st308" d="M152.51434,124.8271c-0.21616-6.0563,1.13472-11.60207,3.71651-16.64101
		c-8.87909,2.51323-20.80005,0.60712-34.05922-10.28015l0.96442,26.86518l15.58132,18.52448c0,0,9.7941,2.59616,19.52176-0.69778
		C154.83708,137.49318,152.74998,131.40851,152.51434,124.8271"/>
	<path class="st308" d="M47.24429,124.8271c0.21611-6.0563-1.13478-11.60207-3.71652-16.64101
		c8.87905,2.51323,20.8,0.60712,34.05922-10.28015l-0.96443,26.86518l-15.58135,18.52448c0,0-9.79407,2.59616-19.52176-0.69778
		C44.92154,137.49318,47.00864,131.40851,47.24429,124.8271"/>
	<path class="st312" d="M99.66512,104.69208l0.15395-10.64927l-3.77361-12.6797c-0.05448-0.27377-1.38021-0.47309-1.63904-0.36856
		c-1.61499,0.65228-4.84149-0.33305-6.27099-0.69912c-3.25909-0.83452-7.00102-0.20332-7.86427-0.03713
		c-0.12046,0.02319-0.76514,0.53989-0.86224,0.61481c-1.96385,1.51552-1.75941,3.40947-1.83698,4.87177
		c-0.08883,1.67441-2.16099,6.45525-3.94036,7.67365c-2.61192,1.78852-5.0419,8.78417-7.29385,11.27357
		c-1.48569,1.64239-1.48569,1.2336-6.78452,2.79459c-2.30441,0.67889-4.53837,1.27176-11.91121,0.05589
		c-1.45499-0.23993-4.66695-2.6269-5.11407-0.22357c-1.15242,6.19427,1.50909,13.11282-1.00847,19.84149
		c-0.67929,1.81552-4.6742,12.64597-2.60569,14.278c3.05608,2.41118,9.76221,6.2901,17.02815,4.9487
		c0,0,8.88493-1.13847,10.50756,1.67677c0.8489,1.47272-0.29107,4.73485,2.0491,6.4834c0,0-3.48228,5.31871,1.47942,7.94455
		c8.23998,4.36067,27.69403,0.72423,34.58953,1.22166c6.47044,0.46683,27.27509,2.57104,29.39884-5.17087
		c0,0,4.17725-3.6777,2.57111-7.34883c-1.56496-3.57704,0.80197-5.24544,0.34506-6.92638c0,0,9.60367,3.34933,19.10519,0
		c1.76448-0.62196,3.46872-0.95111,2.90076-2.57521c0,0-4.04884-6.15543-3.57146-8.04839
		c0.73819-2.92699,1.56499-5.81271,0.22359-12.07254c0,0,0.04817-5.27798,0.89427-8.42695
		c0.36813-1.37025,2.09976-6.00809,0.44713-5.65773c-5.27295,1.11786-19.13814,0.8908-23.88948-2.79459
		c-2.65248-2.05734-4.68193-9.48505-7.29385-11.27357c-1.77937-1.2184-3.85157-5.99924-3.94035-7.67365
		c-0.07758-1.4623,0.12686-3.35625-1.83698-4.87177c-0.09711-0.07491-0.74179-0.59162-0.86225-0.61481
		c-0.86324-0.16618-4.60517-0.79739-7.86427,0.03713c-1.42949,0.36607-4.656,1.3514-6.27099,0.69912
		c-0.25883-0.10453-2.59479,0.0948-2.64927,0.36856l-2.45552,12.6797L99.66512,104.69208"/>
	<path class="st309" d="M156.47679,113.1444c0.38428-1.20037,2.09978-6.00809,0.44713-5.65773
		c-5.27295,1.11786-19.18004,0.8908-23.93138-2.79459c0,0-26.5806,3.3535-38.82082,1.2576
		c-7.37812-1.26339-27.83399-1.2576-27.83399-1.2576c-1.48569,1.64239-1.48569,1.2336-6.78452,2.79459
		c-2.30441,0.67889-4.53837,1.27176-11.91121,0.05589c-1.45499-0.23993-4.71228-2.62496-5.15944-0.2216
		c-0.45382,2.43938-0.31618,4.99107-0.1363,7.5993c0,0,26.38527,1.55885,31.7045,1.00603
		c9.99445-1.03865,28.84006,3.18586,40.1581,1.67677c12.2972-1.63963,41.45752-1.08987,41.79288-1.92825
		C156.00172,115.6748,156.3017,113.69138,156.47679,113.1444z"/>
	<polygon class="st313" points="96.04545,81.36311 96.85451,81.67877 99.96893,93.26894 99.81906,94.04281 	"/>
	<rect x="99.45393" y="93.89804" class="st314" width="0.84779" height="0.84779"/>
	<polygon class="st315" points="99.45393,94.7469 99.01308,98.17759 101.0254,98.12135 100.30172,94.7469 	"/>
	<ellipse class="st315" cx="116.52832" cy="100.55613" rx="6.5952" ry="3.12994"/>
	<ellipse class="st316" cx="116.52832" cy="100.55614" rx="5.32777" ry="2.52842"/>
	<g>
		<defs>
			<polygon id="SVGID_129_" points="101.50746,85.19991 101.00445,87.92464 129.42529,99.11691 127.83937,96.05684 
				125.69869,93.41851 123.47285,90.77509 			"/>
		</defs>
		<clipPath id="SVGID_2_">
			<use xlink:href="#SVGID_129_"  style="overflow:visible;"/>
		</clipPath>
		
			<path style="clip-path:url(#SVGID_2_);fill:none;stroke:#F3F0F0;stroke-width:1.10165;stroke-linecap:round;stroke-miterlimit:10;" d="
			M101.08829,86.81378c0,0,18.05294,0.81043,28.01562,10.94777"/>
	</g>
	<g>
		<defs>
			<polygon id="SVGID_131_" points="101.50746,85.19991 101.00445,87.92464 129.42529,99.11691 127.83937,96.05684 
				125.69869,93.41851 123.47285,90.77509 			"/>
		</defs>
		<clipPath id="SVGID_4_">
			<use xlink:href="#SVGID_131_"  style="overflow:visible;"/>
		</clipPath>
		
			<path style="clip-path:url(#SVGID_4_);fill:none;stroke:#F3F0F0;stroke-width:1.10165;stroke-linecap:round;stroke-miterlimit:10;" d="
			M101.08829,86.81378c0,0,18.05294,0.81043,28.01562,10.94777"/>
	</g>
	<g>
		<defs>
			<polygon id="SVGID_133_" points="97.38547,85.8147 98.19591,88.65124 69.35585,99.7597 70.94178,96.69963 73.08245,94.06131 
				75.3083,91.41788 			"/>
		</defs>
		<clipPath id="SVGID_6_">
			<use xlink:href="#SVGID_133_"  style="overflow:visible;"/>
		</clipPath>
		
			<path style="clip-path:url(#SVGID_6_);fill:none;stroke:#F3F0F0;stroke-width:1.10165;stroke-linecap:round;stroke-miterlimit:10;" d="
			M98.02822,86.91858c0,0-18.38831,1.3484-28.351,11.48573"/>
	</g>
	<path class="st320" d="M84.59789,33.70298c0,0,5.6394-7.68357,6.14683-8.04972c0,0,1.24086-0.75918,3.01894-0.05676
		c0,0,3.83113,0.55071,6.23287-0.18984c0,0,1.05235-0.64236,3.39728,0.98138c0,0,3.9856,4.08168,6.2582,6.85781
		C109.65202,33.24586,85.37522,33.41763,84.59789,33.70298z"/>
	<path class="st321" d="M89.05915,31.63439c-1.88133,0.50941-5.54817,0.95043-6.7085,5.06564
		c-0.37542,1.33144-0.7071,4.4948-2.31995,5.02357c0,0,1.33521,0.66688,3.33405-0.3054c0,0,11.25193-7.50348,26.202-1.53012
		c0,0,2.52309,1.2254,3.8544,2.22482h2.34103c0,0,0.33443-0.66954,0-1.2506c0,0-2.64056-3.36367-2.80587-4.5303
		c0,0-1.28092-3.02731-5.75129-4.19661c0,0-4.25078-1.94328-10.97554-1.77542C96.22949,30.35996,92.1646,30.80089,89.05915,31.63439
		z"/>
	<path class="st322" d="M81.57851,41.98758c0,0-1.32354-0.10587-1.99372-0.60364c0,0,0,1.16534,0.86513,1.45331
		c0,0,0,0.39187-0.45708,0.38285c0,0,0.3525,0.57527,1.00848,0.18142C81.6573,43.01025,81.57851,41.98758,81.57851,41.98758z"/>
	<path class="st322" d="M113.06862,41.86368c1.36226,0.6437,3.47473-0.42093,3.72523-1.07429c0,0-0.70887,2.23967-1.81029,2.56564
		c0,0,0.30605,0.43776,0.78254,0.20147c0,0-0.27897,0.86131-1.21768,0.92515
		C113.60323,44.54235,112.38427,41.5447,113.06862,41.86368z"/>
	<path class="st322" d="M94.54435,37.7653c0,0,3.36629-0.72763,3.42832-2.77235c0,0,0.97228,1.0117,0.39771,2.59286
		c0,0,1.32865-0.0252,1.48363-1.35518c0,0,0.90256,1.22729,0.48549,1.83097C99.91986,38.66271,94.54435,37.7653,94.54435,37.7653z"
		/>
	<path class="st323" d="M99.28578,25.67542c0,0,1.07029-1.54288,2.34747-1.84441c0.25556-0.06032,0.7126,0,0.92218-0.50301
		c0,0,0.42548,0.84967-0.16768,1.17371c-0.2803,0.15318-0.96413,0.50301-0.83835,0.96413L99.28578,25.67542z"/>
	<path class="st324" d="M117.66026,46.03611h-0.33438V45.6539c0-1.00319-0.66882-2.24525-1.57645-2.8185l0,0
		c-5.39822-3.34401-11.60846-5.11153-17.91431-5.11153c-6.30585,0-12.5161,1.76752-17.91427,5.11153l0,0
		c-0.90768,0.62103-1.57645,1.8153-1.57645,2.8185c0,0.09552,0,0.23886,0,0.38221h-0.28669c-0.23882,0-0.4299,0.19108-0.4299,0.4299
		v6.21029c0,0.23886,0.19109,0.42994,0.4299,0.42994h0.38221c0,0.04778,0,0.09557,0,0.19109
		c0,1.2421,0.52547,2.00642,1.57645,2.38859c4.15611,1.38536,7.07018,1.86308,11.3696,2.34077
		c0.19109,0,0.38216,0.04778,0.57325,0.04778c1.57648,0,2.91405-0.6688,3.82173-1.8153
		c0.38221-0.47773,0.66881-0.90763,0.95541-1.28984c0.23891-0.33438,0.42999-0.62098,0.62107-0.90767
		c0.28661-0.38216,0.38216-0.4299,0.42995-0.4299c0.04774,0,0.28661,0.1433,0.57325,0.47773
		c0.28661,0.38212,0.57324,0.71655,0.85985,1.1465c0.28665,0.38216,0.57329,0.81211,0.95545,1.24206
		c0.81211,1.05097,1.91083,1.62422,3.24845,1.62422c0.28664,0,0.57325-0.04779,0.76433-0.04779
		c2.05418-0.19108,3.77396-0.38216,5.54152-0.6688c1.91087-0.33438,3.72617-0.81211,5.68482-1.52866
		c0.09552-0.04779,0.14326-0.04779,0.23882-0.09552c0.5733-0.38221,1.71979-1.0988,1.71979-2.3886v-0.1433h0.33438
		c0.23886,0,0.42995-0.19112,0.42995-0.42995v-6.35363C118.09021,46.22719,117.89912,46.03611,117.66026,46.03611z"/>
	<path class="st325" d="M115.93472,53.1035c0,0.65649-0.6096,1.12542-1.21922,1.50058
		c-4.03287,1.4537-6.84647,1.73507-10.78554,2.1102c-0.18756,0-0.42204,0.04688-0.65653,0.04688
		c-0.70337,0-1.59435-0.18756-2.39151-1.17234c-0.65653-0.89093-1.17239-1.64126-1.782-2.34467
		c-0.42204-0.56269-0.9379-0.84405-1.3599-0.84405l0,0c-0.42204,0-0.75029,0.23444-1.21926,0.84405
		c-0.5158,0.65653-0.93785,1.35994-1.54746,2.15712c-0.89097,1.12546-2.11019,1.40682-2.95433,1.40682
		c-0.18756,0-0.3282,0-0.46888-0.04692c-4.07979-0.46888-6.89339-0.89093-10.9731-2.25088
		c-0.70341-0.23444-0.84409-0.70341-0.84409-1.35991c0-1.96955-0.18761-5.53344-0.18761-7.45612
		c0-0.65644,0.46897-1.54746,1.12546-1.92258c5.29897-3.28253,11.20754-4.87691,17.1162-4.87691
		c5.90857,0,11.81715,1.64127,17.06923,4.87691c0.60961,0.422,1.12543,1.26614,1.12543,1.92263
		C115.93472,47.66381,115.93472,51.18087,115.93472,53.1035z"/>
	<line class="st326" x1="105.23823" y1="51.48336" x2="111.94522" y2="46.11776"/>
	<line class="st326" x1="105.01466" y1="49.35947" x2="111.72164" y2="43.99388"/>
	<line class="st326" x1="82.4345" y1="51.03624" x2="89.14145" y2="45.67064"/>
	<ellipse class="st327" cx="27.60487" cy="196.5778" rx="2.9343" ry="0.92221"/>
	<line class="st326" x1="82.21092" y1="48.91235" x2="88.91787" y2="43.54676"/>
	<rect x="168.39565" y="148.56696" class="st328" width="3.36848" height="9.05442"/>
	<g>
		<path class="st329" d="M181.50598,3.99568c-5.01837,1.16376-9.74294,6.07309-9.74294,16.07665v168.12173l-3.35349-0.22359
			V19.40163c0,0-0.94386-14.31517,12.7392-16.68625c0.00658-0.00116,0.01138-0.00185,0.01808-0.00236
			c0.18086-0.014,3.3634-0.25784,4.5103-0.20573c0,0,0.408,0.01791,0.41139,0.48297c0.0045,0.61043-0.46506,0.59029-0.46506,0.59029
			S182.51381,3.76198,181.50598,3.99568z"/>
		<path class="st329" d="M170.79901,73.50464c0,0,5.03023,3.68882,5.03023,14.08463v9.55748h-5.3656
			C170.46364,97.14675,170.79901,73.00158,170.79901,73.50464z"/>
		<polygon class="st330" points="171.75443,31.30653 168.39565,28.18533 168.40092,50.82661 171.75047,53.08775 		"/>
		<rect x="171.38586" y="96.2708" class="st329" width="6.37162" height="4.17355"/>
	</g>
	<g>
		<path class="st329" d="M154.08897,3.99568c5.01833,1.16376,9.74294,6.07309,9.74294,16.07665v168.12173l3.35349-0.22359V19.40163
			c0,0,0.94383-14.31517-12.73924-16.68625c-0.00656-0.00116-0.01137-0.00185-0.01807-0.00236
			c-0.18088-0.014-3.36342-0.25784-4.5103-0.20573c0,0-0.408,0.01791-0.41139,0.48297
			c-0.00447,0.61043,0.46506,0.59029,0.46506,0.59029S153.0811,3.76198,154.08897,3.99568z"/>
		<path class="st329" d="M164.7959,73.50464c0,0-5.03021,3.68882-5.03021,14.08463v9.55748h5.36559
			C165.13127,97.14675,164.7959,73.00158,164.7959,73.50464z"/>
		<polygon class="st330" points="163.84048,31.30653 167.19926,28.18533 167.19398,50.82661 163.84448,53.08775 		"/>
		
			<rect x="157.83743" y="96.2708" transform="matrix(-1 -1.224647e-16 1.224647e-16 -1 322.04648 196.71515)" class="st329" width="6.37162" height="4.17355"/>
	</g>
	<path class="st331" d="M181.9707,116.59972c0.52847-6.07965-2.99876-12.74144-5.13042-13.354
		c-7.93338,8.41819-19.37515,8.23393-19.37515,8.23393c3.32722,3.2727,9.73332,2.89749,9.73332,2.89749
		c-1.77727,1.61494-8.39685-0.28579-8.39685-0.28579c4.02895,5.24312,11.12953,3.66543,11.12953,3.66543
		c-1.97699,1.48332-8.08273,0.54912-8.08273,0.54912c3.36736,3.5265,11.80405,2.33601,11.80405,2.33601
		c-1.78993,1.84402-9.3186,0.30223-9.3186,0.30223s1.78392,2.15068,5.87242,3.81998
		c-0.04008-0.00665-0.08018-0.01335-0.08018-0.01335c0.12029,0.02005,0.2739,0.08681,0.39413,0.10681
		c1.90817,0.77914,4.64012,1.5776,7.57501,1.8241C180.64876,123.45195,181.67796,119.86663,181.9707,116.59972z"/>
	<path class="st331" d="M176.93498,103.14264c0,0-8.60622,3.20316-19.52518,1.86562c0,0,5.25697,7.81605,14.73061,6.22317
		C175.14926,110.72549,176.93498,103.14264,176.93498,103.14264z"/>
	<g>
		<rect x="26.88166" y="117.11399" class="st332" width="1.39729" height="34.69111"/>
		<polygon class="st332" points="26.88166,151.8051 27.49646,191.33221 27.99947,191.32173 28.27895,151.8051 		"/>
		<rect x="26.88166" y="191.30078" class="st333" width="1.73263" height="0.55195"/>
		<path class="st333" d="M30.65433,192.32776h-6.03625c-0.13836,0-0.25153-0.11316-0.25153-0.25148l0,0
			c0-0.13832,0.11316-0.25153,0.25153-0.25153h6.03625c0.13836,0,0.25152,0.1132,0.25152,0.25153l0,0
			C30.90585,192.2146,30.79269,192.32776,30.65433,192.32776z"/>
		<polygon class="st332" points="27.08425,192.32776 27.47551,196.57555 28.09031,196.51964 28.36979,192.27191 		"/>
		<rect x="25.95595" y="118.48145" class="st333" width="3.19195" height="0.74793"/>
		<rect x="25.79367" y="119.17236" class="st333" width="3.51654" height="1.03969"/>
		<path class="st334" d="M24.43558,118.20343c0-1.97861,0.91201-1.97861,0.91201-3.95718c0-1.97852-0.91201-1.97852-0.91201-3.95714
			c0-1.9772,0.91201-1.9772,0.91201-3.95438c0-1.97788-0.91201-1.97788-0.91201-3.95568c0-1.97715,0.91201-1.97715,0.91201-3.95431
			l-0.01898-0.99753c0,0,1.47242-0.91196,3.83792-0.59844c0,0,1.82398,0.11398,1.82398,1.31096
			c0,0-0.17099,13.93632-0.17099,18.63868c0,0.60458-0.57002,1.71-1.71,1.71h-4.66446L24.43558,118.20343z"/>
	</g>
	<path class="st331" d="M13.97502,113.38854c0.47717-6.0839,5.05061-12.07593,7.25388-12.33012
		c6.44319,9.6068,17.75986,11.30417,17.75986,11.30417c-3.81955,2.68177-10.07702,1.25962-10.07702,1.25962
		c1.48792,1.8849,8.3298,1.09708,8.3298,1.09708c-4.83537,4.51029-11.58048,1.78787-11.58048,1.78787
		c1.70661,1.78787,7.88281,1.86909,7.88281,1.86909c-3.90073,2.92561-12.02738,0.36572-12.02738,0.36572
		c1.46277,2.11294,9.14242,1.82848,9.14242,1.82848s-2.11289,1.82848-6.42005,2.80369c0.04066,0,0.08131,0,0.08131,0
		c-0.12192,0-0.28441,0.04061-0.40633,0.04061c-2.01021,0.45519-4.83618,0.79417-7.77171,0.55531
		C14.1537,120.36484,13.72727,116.65919,13.97502,113.38854z"/>
</g>
</svg>
