<?xml version="1.0" encoding="utf-8"?>
<!-- Generator: Adobe Illustrator 19.2.1, SVG Export Plug-In . SVG Version: 6.00 Build 0)  -->
<svg version="1.1" id="Layer_1" xmlns="http://www.w3.org/2000/svg" xmlns:xlink="http://www.w3.org/1999/xlink" x="0px" y="0px"
	 width="200px" height="200px" viewBox="0 0 200 200" style="enable-background:new 0 0 200 200;" xml:space="preserve">
<style type="text/css">
	.st0{fill:#E2E3E4;}
	.st1{fill:#595D62;}
	.st2{fill:#C7702A;}
	.st3{fill:#C9C7C7;}
	.st4{fill:#EA8824;}
	.st5{fill:none;stroke:#C9C7C7;stroke-width:0.75651;stroke-miterlimit:10;}
	.st6{fill-rule:evenodd;clip-rule:evenodd;fill:#444851;}
	.st7{fill-rule:evenodd;clip-rule:evenodd;fill:#D8D7D6;}
	.st8{fill:#FFFFFF;}
	.st9{fill:#2B2B35;}
	.st10{fill:#434850;}
	.st11{fill:#6C4396;}
	.st12{fill:#A4A4A4;}
	.st13{fill:#EA4C65;}
	.st14{fill:#94814F;}
	.st15{fill:#9C2023;}
	.st16{fill:#B7242C;}
	.st17{fill-rule:evenodd;clip-rule:evenodd;fill:#FFFFFF;}
	.st18{fill:#0C4F6E;}
	.st19{fill:#C18E46;}
	.st20{fill:#3180BF;}
	.st21{fill:#D94F4F;}
	.st22{fill:#2C2C2D;}
	.st23{fill:#595E63;}
	.st24{fill:#E3E2E2;}
	.st25{fill:#9D9EA0;}
	.st26{fill:none;stroke:#C8C6C6;stroke-width:0.75651;stroke-miterlimit:10;}
	.st27{fill:#2A2E35;}
	.st28{fill-rule:evenodd;clip-rule:evenodd;fill:#454751;}
	.st29{fill-rule:evenodd;clip-rule:evenodd;fill:#D8D7D5;}
	.st30{fill:#434851;}
	.st31{fill:#EC9424;}
	.st32{fill:#445AA4;}
	.st33{clip-path:url(#SVGID_2_);fill:#58C1C4;}
	.st34{fill:#B7DBDB;}
	.st35{fill:#58C1C4;}
	.st36{fill:none;stroke:#434851;stroke-width:1.51302;stroke-linecap:round;stroke-linejoin:round;stroke-miterlimit:10;}
	.st37{clip-path:url(#SVGID_4_);fill:#58C1C4;}
	.st38{fill:#010101;}
	.st39{fill:#161718;}
	.st40{fill-rule:evenodd;clip-rule:evenodd;fill:#010101;}
	.st41{fill:#272626;}
	.st42{fill:#17191A;}
	.st43{fill:#D4D5D4;}
	.st44{fill-rule:evenodd;clip-rule:evenodd;fill:#272626;}
	.st45{fill-rule:evenodd;clip-rule:evenodd;fill:#E2E3E4;}
	.st46{fill:#19244E;}
	.st47{fill:#E3E1E1;}
	.st48{fill:#8E1B27;}
	.st49{fill:#CA2033;}
	.st50{fill:#EFE0A7;}
	.st51{fill:none;stroke:#EFE0A7;stroke-width:0.09335;stroke-miterlimit:10;}
	.st52{fill:#EECA81;}
	.st53{fill:#F3F3F3;}
	.st54{fill:#A0A1A4;}
	.st55{fill:#EB6B6D;}
	.st56{fill:none;stroke:#CAC8C6;stroke-width:0.02289;stroke-miterlimit:10;}
	.st57{fill:#464951;}
	.st58{fill:#D7D6D6;}
	.st59{fill:#EECC82;}
	.st60{fill:#F0E0A9;}
	.st61{fill:none;stroke:#F0E0A9;stroke-width:0.01145;stroke-miterlimit:10;}
	.st62{fill:#5AC1C2;}
	.st63{clip-path:url(#SVGID_6_);fill:#E2E3E4;}
	.st64{fill:#EE7823;}
	.st65{fill:#D6563D;}
	.st66{fill:#70533D;}
	.st67{fill:#81BCA9;}
	.st68{clip-path:url(#SVGID_8_);fill:#E2E3E4;}
	.st69{fill:none;stroke:#EFE0A7;stroke-width:0.37825;stroke-miterlimit:10;}
	.st70{clip-path:url(#SVGID_10_);}
	.st71{clip-path:url(#SVGID_12_);fill:#E3E2E2;}
	.st72{clip-path:url(#SVGID_12_);}
	.st73{fill-rule:evenodd;clip-rule:evenodd;fill:#1AAEA1;}
	.st74{fill-rule:evenodd;clip-rule:evenodd;fill:#0C8C70;}
	.st75{fill:#1AAEA1;}
	.st76{fill:#6F513B;}
	.st77{fill:#515050;}
	.st78{fill:#D4563A;}
	.st79{fill:none;}
	.st80{clip-path:url(#SVGID_14_);}
	.st81{clip-path:url(#SVGID_16_);fill:#E3E2E2;}
	.st82{clip-path:url(#SVGID_16_);}
	.st83{fill:#EEE3A3;}
	.st84{fill:none;stroke:#F0E0A9;stroke-width:0.37825;stroke-miterlimit:10;}
	.st85{clip-path:url(#SVGID_18_);}
	.st86{fill-rule:evenodd;clip-rule:evenodd;fill:#434850;}
	.st87{clip-path:url(#SVGID_20_);}
	.st88{fill:none;stroke:#E4CC21;stroke-width:1.92135;stroke-miterlimit:10;}
	.st89{fill:none;stroke:#FFFFFF;stroke-width:2.2037;stroke-miterlimit:10;}
	.st90{fill:#E4CC21;}
	.st91{fill:#232244;}
	.st92{fill:#C8C6C6;}
	.st93{fill:#542F19;}
	.st94{fill-rule:evenodd;clip-rule:evenodd;fill:#3D2E21;}
	.st95{fill:#3D2E21;}
	.st96{fill-rule:evenodd;clip-rule:evenodd;fill:#232244;}
	.st97{fill-rule:evenodd;clip-rule:evenodd;fill:#2E3280;}
	.st98{fill:#281911;}
	.st99{fill-rule:evenodd;clip-rule:evenodd;fill:#E4CC21;}
	.st100{fill-rule:evenodd;clip-rule:evenodd;fill:#D85127;}
	.st101{clip-path:url(#SVGID_22_);}
	.st102{fill-rule:evenodd;clip-rule:evenodd;fill:#EE7434;}
	.st103{fill:#17733B;}
	.st104{clip-path:url(#SVGID_24_);}
	.st105{fill:#1D73B6;}
	.st106{fill:#115E8E;}
	.st107{clip-path:url(#SVGID_26_);}
	.st108{fill:none;stroke:#FFFFFF;stroke-width:1.49993;stroke-miterlimit:10;}
	.st109{fill:none;stroke:#CAC8C6;stroke-width:0.024;stroke-miterlimit:10;}
	.st110{clip-path:url(#SVGID_28_);fill:#E2E3E4;}
	.st111{fill:#603A17;}
	.st112{fill:#78471F;}
	.st113{fill:#F8FAFD;}
	.st114{clip-path:url(#SVGID_30_);}
	.st115{clip-path:url(#SVGID_32_);}
	.st116{fill:none;stroke:#FFFFFF;stroke-width:0.49998;stroke-miterlimit:10;}
	.st117{fill:none;stroke:#FFFFFF;stroke-width:0.74997;stroke-miterlimit:10;}
	.st118{clip-path:url(#SVGID_34_);}
	.st119{clip-path:url(#SVGID_36_);}
	.st120{clip-path:url(#SVGID_38_);fill:#E2E3E4;}
	.st121{clip-path:url(#SVGID_40_);}
	.st122{clip-path:url(#SVGID_42_);}
	.st123{clip-path:url(#SVGID_44_);}
	.st124{opacity:0.7;fill:#434850;}
	.st125{fill:#5B3287;}
	.st126{fill:#643E1E;}
	.st127{fill:#C8D6DE;}
	.st128{fill:none;stroke:#CAC7C6;stroke-width:0.75651;stroke-miterlimit:10;}
	.st129{fill:#B6C3CE;}
	.st130{fill:#273980;}
	.st131{fill:#2B2C35;}
	.st132{clip-path:url(#SVGID_46_);fill:#FFFFFF;stroke:#5A3B84;stroke-width:4.53905;stroke-miterlimit:10;}
	.st133{fill:#C8C7C9;}
	.st134{fill:#056F43;}
	.st135{clip-path:url(#SVGID_48_);}
	.st136{fill:#EBEDF1;}
	.st137{fill:#CF2B29;}
	.st138{fill-rule:evenodd;clip-rule:evenodd;fill:#273980;}
	.st139{fill:#D6232A;}
	.st140{clip-path:url(#SVGID_52_);fill:#FFFFFF;stroke:#5A3B84;stroke-width:4.53905;stroke-miterlimit:10;}
	.st141{clip-path:url(#SVGID_54_);}
	.st142{fill:#532D17;}
	.st143{fill:none;stroke:#5E1116;stroke-width:0.95369;stroke-miterlimit:10;}
	.st144{fill-rule:evenodd;clip-rule:evenodd;fill:#5E1116;}
	.st145{fill:none;stroke:#5E1116;stroke-width:0.94639;stroke-miterlimit:10;}
	.st146{fill:#291B13;}
	.st147{fill-rule:evenodd;clip-rule:evenodd;fill:#291B13;}
	.st148{fill-rule:evenodd;clip-rule:evenodd;fill:#454850;}
	.st149{fill-rule:evenodd;clip-rule:evenodd;fill:#74441F;}
	.st150{fill:#7F161B;}
	.st151{fill-rule:evenodd;clip-rule:evenodd;fill:#7F161B;}
	.st152{fill:none;stroke:#5E1116;stroke-width:1.04342;stroke-miterlimit:10;}
	.st153{fill:#E4E0E4;}
	.st154{clip-path:url(#SVGID_58_);fill:#E1244D;}
	.st155{clip-path:url(#SVGID_60_);fill:#E1244D;}
	.st156{fill:#292933;}
	.st157{fill:none;stroke:#CAC8C6;stroke-width:0.02378;stroke-miterlimit:10;}
	.st158{fill:none;stroke:#F0E0A9;stroke-width:0.01189;stroke-miterlimit:10;}
	.st159{clip-path:url(#SVGID_62_);fill:#E2E3E4;}
	.st160{fill:#2F465D;}
	.st161{fill:#432F21;}
	.st162{fill-rule:evenodd;clip-rule:evenodd;fill:#3D5F7C;}
	.st163{fill-rule:evenodd;clip-rule:evenodd;fill:#2F465D;}
	.st164{clip-path:url(#SVGID_64_);fill:#2C2C2D;}
	.st165{clip-path:url(#SVGID_66_);fill:#F8B917;}
	.st166{clip-path:url(#SVGID_66_);fill:#1F4394;}
	.st167{clip-path:url(#SVGID_68_);fill:#E8212F;}
	.st168{clip-path:url(#SVGID_68_);fill:#C9C8C8;}
	.st169{clip-path:url(#SVGID_68_);fill:#2A2E35;}
	.st170{clip-path:url(#SVGID_68_);fill:#444750;}
	.st171{clip-path:url(#SVGID_68_);fill:#D7D7D6;}
	.st172{clip-path:url(#SVGID_68_);fill:#E3E2E2;}
	.st173{clip-path:url(#SVGID_68_);fill:#FFFFFF;}
	.st174{clip-path:url(#SVGID_68_);fill:#2B2D34;}
	.st175{clip-path:url(#SVGID_68_);fill:#B9252D;}
	.st176{clip-path:url(#SVGID_68_);fill:#24345B;}
	.st177{clip-path:url(#SVGID_68_);fill:#F7F6F8;}
	.st178{clip-path:url(#SVGID_70_);fill:#1F4394;}
	.st179{clip-path:url(#SVGID_70_);fill:#F8B917;}
	.st180{clip-path:url(#SVGID_70_);fill:#883D1E;}
	.st181{clip-path:url(#SVGID_70_);fill:#F5D07C;}
	.st182{clip-path:url(#SVGID_72_);fill:#E8212F;}
	.st183{clip-path:url(#SVGID_72_);fill:#E3E2E2;}
	.st184{clip-path:url(#SVGID_72_);fill:#F7F6F8;}
	.st185{clip-path:url(#SVGID_72_);fill:#F8B917;}
	.st186{clip-path:url(#SVGID_72_);fill:#888983;}
	.st187{clip-path:url(#SVGID_74_);fill:#888983;}
	.st188{clip-path:url(#SVGID_74_);fill:#624219;}
	.st189{clip-path:url(#SVGID_76_);fill:#E3E2E2;}
	.st190{clip-path:url(#SVGID_76_);fill:#2C2C2D;}
	.st191{clip-path:url(#SVGID_76_);fill:#888983;}
	.st192{clip-path:url(#SVGID_78_);fill:#F8B917;}
	.st193{clip-path:url(#SVGID_78_);fill:#1F4394;}
	.st194{clip-path:url(#SVGID_80_);fill:#E8212F;}
	.st195{clip-path:url(#SVGID_80_);fill:#C9C8C8;}
	.st196{clip-path:url(#SVGID_80_);fill:#2A2E35;}
	.st197{clip-path:url(#SVGID_80_);fill:#444750;}
	.st198{clip-path:url(#SVGID_80_);fill:#D7D7D6;}
	.st199{clip-path:url(#SVGID_80_);fill:#E3E2E2;}
	.st200{clip-path:url(#SVGID_80_);fill:#FFFFFF;}
	.st201{clip-path:url(#SVGID_80_);fill:#2B2D34;}
	.st202{clip-path:url(#SVGID_80_);fill:#B9252D;}
	.st203{clip-path:url(#SVGID_80_);fill:#24345B;}
	.st204{clip-path:url(#SVGID_80_);fill:#F7F6F8;}
	.st205{clip-path:url(#SVGID_82_);fill:#1F4394;}
	.st206{clip-path:url(#SVGID_82_);fill:#F8B917;}
	.st207{clip-path:url(#SVGID_82_);fill:#883D1E;}
	.st208{clip-path:url(#SVGID_82_);fill:#F5D07C;}
	.st209{clip-path:url(#SVGID_84_);fill:#E8212F;}
	.st210{clip-path:url(#SVGID_84_);fill:#E3E2E2;}
	.st211{clip-path:url(#SVGID_84_);fill:#F7F6F8;}
	.st212{clip-path:url(#SVGID_84_);fill:#F8B917;}
	.st213{clip-path:url(#SVGID_84_);fill:#888983;}
	.st214{clip-path:url(#SVGID_86_);fill:#888983;}
	.st215{clip-path:url(#SVGID_86_);fill:#624219;}
	.st216{clip-path:url(#SVGID_88_);fill:#E3E2E2;}
	.st217{clip-path:url(#SVGID_88_);fill:#2C2C2D;}
	.st218{clip-path:url(#SVGID_90_);fill:#2C2C2D;}
	.st219{clip-path:url(#SVGID_92_);fill:#F8B917;}
	.st220{clip-path:url(#SVGID_92_);fill:#1F4394;}
	.st221{clip-path:url(#SVGID_94_);fill:#E8212F;}
	.st222{clip-path:url(#SVGID_94_);fill:#C9C8C8;}
	.st223{clip-path:url(#SVGID_94_);fill:#2A2E35;}
	.st224{clip-path:url(#SVGID_94_);fill:#444750;}
	.st225{clip-path:url(#SVGID_94_);fill:#D7D7D6;}
	.st226{clip-path:url(#SVGID_94_);fill:#E3E2E2;}
	.st227{clip-path:url(#SVGID_94_);fill:#FFFFFF;}
	.st228{clip-path:url(#SVGID_94_);fill:#2B2D34;}
	.st229{clip-path:url(#SVGID_94_);fill:#B9252D;}
	.st230{clip-path:url(#SVGID_94_);fill:#24345B;}
	.st231{clip-path:url(#SVGID_94_);fill:#F7F6F8;}
	.st232{clip-path:url(#SVGID_96_);fill:#1F4394;}
	.st233{clip-path:url(#SVGID_96_);fill:#F8B917;}
	.st234{clip-path:url(#SVGID_96_);fill:#883D1E;}
	.st235{clip-path:url(#SVGID_96_);fill:#F5D07C;}
	.st236{clip-path:url(#SVGID_98_);fill:#E8212F;}
	.st237{clip-path:url(#SVGID_98_);fill:#E3E2E2;}
	.st238{clip-path:url(#SVGID_98_);fill:#F7F6F8;}
	.st239{clip-path:url(#SVGID_98_);fill:#F8B917;}
	.st240{clip-path:url(#SVGID_98_);fill:#888983;}
	.st241{clip-path:url(#SVGID_100_);fill:#888983;}
	.st242{clip-path:url(#SVGID_100_);fill:#624219;}
	.st243{clip-path:url(#SVGID_102_);fill:#E3E2E2;}
	.st244{clip-path:url(#SVGID_102_);fill:#2C2C2D;}
	.st245{clip-path:url(#SVGID_102_);fill:#888983;}
	.st246{clip-path:url(#SVGID_104_);fill:#F8B917;}
	.st247{clip-path:url(#SVGID_104_);fill:#1F4394;}
	.st248{clip-path:url(#SVGID_106_);fill:#E8212F;}
	.st249{clip-path:url(#SVGID_106_);fill:#C9C8C8;}
	.st250{clip-path:url(#SVGID_106_);fill:#2A2E35;}
	.st251{clip-path:url(#SVGID_106_);fill:#444750;}
	.st252{clip-path:url(#SVGID_106_);fill:#D7D7D6;}
	.st253{clip-path:url(#SVGID_106_);fill:#E3E2E2;}
	.st254{clip-path:url(#SVGID_106_);fill:#FFFFFF;}
	.st255{clip-path:url(#SVGID_106_);fill:#2B2D34;}
	.st256{clip-path:url(#SVGID_106_);fill:#B9252D;}
	.st257{clip-path:url(#SVGID_106_);fill:#24345B;}
	.st258{clip-path:url(#SVGID_106_);fill:#F7F6F8;}
	.st259{clip-path:url(#SVGID_108_);fill:#1F4394;}
	.st260{clip-path:url(#SVGID_108_);fill:#F8B917;}
	.st261{clip-path:url(#SVGID_108_);fill:#883D1E;}
	.st262{clip-path:url(#SVGID_108_);fill:#F5D07C;}
	.st263{clip-path:url(#SVGID_110_);fill:#E8212F;}
	.st264{clip-path:url(#SVGID_110_);fill:#E3E2E2;}
	.st265{clip-path:url(#SVGID_110_);fill:#F7F6F8;}
	.st266{clip-path:url(#SVGID_110_);fill:#F8B917;}
	.st267{clip-path:url(#SVGID_110_);fill:#888983;}
	.st268{clip-path:url(#SVGID_112_);fill:#888983;}
	.st269{clip-path:url(#SVGID_112_);fill:#624219;}
	.st270{clip-path:url(#SVGID_114_);fill:#E3E2E2;}
	.st271{clip-path:url(#SVGID_114_);fill:#2C2C2D;}
	.st272{fill:#EDE2A3;}
	.st273{clip-path:url(#SVGID_116_);}
	.st274{fill-rule:evenodd;clip-rule:evenodd;fill:#434851;}
	.st275{fill-rule:evenodd;clip-rule:evenodd;fill:#E3E2E2;}
	.st276{fill:#2A2B2A;}
	.st277{clip-path:url(#SVGID_118_);}
	.st278{clip-path:url(#SVGID_120_);}
	.st279{clip-path:url(#SVGID_122_);}
	.st280{fill:#1F3566;}
	.st281{fill:#E3E4E5;}
	.st282{fill:#4BB1E4;}
	.st283{fill:#2D2A6C;}
	.st284{fill-rule:evenodd;clip-rule:evenodd;fill:#D8D9D5;}
	.st285{fill:#434852;}
	.st286{fill:#E3E3E3;}
	.st287{fill:#162E54;}
	.st288{fill:none;stroke:#335DAB;stroke-width:1.68786;stroke-miterlimit:10;}
	.st289{fill:#81817F;}
	.st290{fill:#142B49;}
	.st291{fill:#5A5A5A;}
	.st292{fill:none;stroke:#FFFFFF;stroke-width:0.84393;stroke-linecap:round;stroke-linejoin:round;stroke-miterlimit:10;}
	.st293{fill:#AB9D9C;}
	.st294{fill:#EA6689;}
	.st295{fill:#CE1D5B;}
	.st296{fill:#BF742A;}
	.st297{fill:#273449;}
	.st298{fill:#A4464B;}
	.st299{fill:none;stroke:#CAC8C6;stroke-width:0.0662;stroke-miterlimit:10;}
	.st300{fill:#80333A;}
	.st301{fill:none;stroke:#B4B4B4;stroke-width:0.25748;stroke-miterlimit:10;}
	.st302{fill:none;stroke:#B4B4B4;stroke-width:3.08973;stroke-miterlimit:10;}
	.st303{fill:none;stroke:#B4B4B4;stroke-width:1.02991;stroke-miterlimit:10;}
	.st304{fill:none;stroke:#82858B;stroke-width:0.51495;stroke-miterlimit:10;}
	.st305{fill:none;stroke:#E2E3E4;stroke-width:1.02991;stroke-miterlimit:10;}
	.st306{fill:#E5E5E5;}
	.st307{fill:#2D2C2D;}
	.st308{fill:#4CB2E5;}
	.st309{fill:#AD2824;}
	.st310{fill-rule:evenodd;clip-rule:evenodd;fill:#D9D9D6;}
	.st311{fill:#E4E4E3;}
	.st312{fill:#DB4826;}
	.st313{fill:#B33725;}
	.st314{fill:#120C0D;}
	.st315{fill:#F3F0F0;}
	.st316{fill:#C4BFBF;}
	.st317{clip-path:url(#SVGID_124_);fill:none;stroke:#F3F0F0;stroke-width:1.10165;stroke-linecap:round;stroke-miterlimit:10;}
	.st318{clip-path:url(#SVGID_126_);fill:none;stroke:#F3F0F0;stroke-width:1.10165;stroke-linecap:round;stroke-miterlimit:10;}
	.st319{clip-path:url(#SVGID_128_);fill:none;stroke:#F3F0F0;stroke-width:1.10165;stroke-linecap:round;stroke-miterlimit:10;}
	.st320{fill:#DE5B2A;}
	.st321{fill:#7A2716;}
	.st322{fill:#E5E4E4;}
	.st323{fill:#BB4928;}
	.st324{fill:#454545;}
	.st325{fill:#6265AE;}
	.st326{fill:none;stroke:#CAC5C4;stroke-width:0.55083;stroke-linecap:round;stroke-miterlimit:10;}
	.st327{fill:#E1E3E3;}
	.st328{fill:#484848;}
	.st329{fill:#422F90;}
	.st330{fill:#D57A28;}
	.st331{fill:#B4B4B5;}
	.st332{fill:#4B4B4D;}
	.st333{fill:#949393;}
	.st334{fill:#040404;}
	.st335{clip-path:url(#SVGID_130_);fill:none;stroke:#F3F0F0;stroke-width:1.10165;stroke-linecap:round;stroke-miterlimit:10;}
	.st336{clip-path:url(#SVGID_132_);fill:none;stroke:#F3F0F0;stroke-width:1.10165;stroke-linecap:round;stroke-miterlimit:10;}
	.st337{clip-path:url(#SVGID_134_);fill:none;stroke:#F3F0F0;stroke-width:1.10165;stroke-linecap:round;stroke-miterlimit:10;}
	.st338{clip-path:url(#SVGID_140_);fill:#AD2824;}
	.st339{fill:#CDCCCC;}
	.st340{fill:#E4E5E6;}
	.st341{opacity:0.72;fill:none;stroke:#FFFFFF;stroke-width:1.1546;stroke-linecap:round;stroke-miterlimit:10;}
	.st342{fill:#BBD867;}
	.st343{fill:none;stroke:#BBD867;stroke-width:5.799;stroke-miterlimit:10;}
	.st344{clip-path:url(#SVGID_146_);fill:#AD2824;}
	.st345{fill:none;stroke:#AE4E85;stroke-width:1.54066;stroke-linecap:round;stroke-linejoin:round;stroke-miterlimit:10;}
	.st346{fill:none;stroke:#E97625;stroke-width:1.62274;stroke-linecap:round;stroke-linejoin:round;stroke-miterlimit:10;}
	.st347{fill:none;stroke:#C9C7C7;stroke-width:0.23348;stroke-miterlimit:10;}
	.st348{fill:#981E5C;}
	.st349{fill:none;stroke:#AE4E85;stroke-width:1.21706;stroke-linecap:round;stroke-linejoin:round;stroke-miterlimit:10;}
	.st350{fill:#AE4E85;}
	.st351{fill:#F7B456;}
	.st352{fill:#E97625;}
	.st353{fill:none;stroke:#E97625;stroke-width:1.54273;stroke-linecap:round;stroke-linejoin:round;stroke-miterlimit:10;}
</style>
<g>
	<g>
		<g>
			<defs>
				<path id="SVGID_15_" d="M-155.8396,77.93018c-25.55927,0-46.28391,23.23074-46.28391,51.88897
					c0,17.68124,7.89299,33.2827,19.93613,42.65112c17.02034,11.88712,40.38921,7.46977,52.4399,0.21115
					c12.19273-9.34595,20.19685-25.05194,20.19685-42.86227C-109.55064,101.16092-130.27386,77.93018-155.8396,77.93018z"/>
			</defs>
			<clipPath id="SVGID_2_">
				<use xlink:href="#SVGID_15_"  style="overflow:visible;"/>
			</clipPath>
			<g style="clip-path:url(#SVGID_2_);">
				<path class="st73" d="M36.67789,106.74599l-43.08691-2.07784l-4.678-0.22815l0.10405-21.62876l-11.91904-5.75463
					l-0.60093,24.16132c0,0,1.14025,3.50974-3.56772,3.50974h-12.44445l0,0h-12.44589c-4.70454,0-3.57028-3.50974-3.57028-3.50974
					l-0.60041-24.16132l-11.91357,5.75463l0.10411,21.62876l-38.97729,0.28767l31.44298,66.4348l6.88737,81.60544l22.80903-4.29176
					v-36.44771c0-6.45709,6.24495-5.45949,6.26394-5.45847l0,0l0,0l0,0l0,0c0.01603-0.00102,6.26549-0.99863,6.26549,5.45847
					v36.44771l22.803,4.29176l6.88838-81.60544L36.67789,106.74599z"/>
			</g>
		</g>
	</g>
</g>
<g>
	<g>
		<g>
			<path class="st24" d="M78.16487,79.26845c0,0-18.05145-7.46371-21.38562-14.06944
				c-4.80004-9.49303,6.29453-7.98809,6.29453-7.98809s-2.05882-2.62063-5.69511-4.22416
				c-3.4012-1.49645-10.8209-0.50036-10.74036,7.76394c0.08357,8.23774,1.592,8.77357,1.592,8.77357
				s-2.29845-2.67471-2.30798-8.69052c-0.01545-6.39706,2.47561-6.6357,0.91461-7.08153
				c-0.75999-0.21611-5.87577,4.28625-6.53014,7.74343c-0.61387,3.25411,0.89005,8.53593,3.27107,11.84406
				c4.21118,5.8627-3.70036-1.5815-4.02154-9.67969c-0.02604-0.84401-2.9319,9.46606-0.37227,16.41995
				c1.01067,2.76225,2.9404,5.42045,2.9404,5.42045c-0.79302-0.72146-1.83868-2.21688-2.92488-4.2672
				c-1.82616-3.41568-1.77314-7.76542-1.77314-7.76542s-3.77089,9.76021,0.83355,22.79998
				c7.00195,19.79909,26.52338,25.6003,27.20083,25.31811c0.18359-0.07555,0.28413-0.27618,0.42774-0.41277
				c19.10017-18.71892,10.47715-40.41969,10.47715-40.41969"/>
			<path class="st30" d="M63.7352,121.27718c14.74986,8.88818,34.50694,5.72766,34.50694,5.72766l18.24962-24.49055
				l8.79009-35.89387c-19.9632,14.53374-40.89453,14.95653-52.92814,10.00135c0,0,2.30093,7.1961,0.87801,22.53983
				C71.81632,114.50038,63.7352,121.27718,63.7352,121.27718z"/>
		</g>
		<path class="st23" d="M162.82576,174.94983l-0.10759,0.00952c12.16321-6.34651,20.42097-18.72942,20.42097-32.963
			c0-20.70215-17.47411-37.48683-39.0238-37.48683c-21.55022,0-39.02182,16.78468-39.02182,37.48683
			c0,14.23358,8.25773,26.61649,20.41798,32.963l-0.09709-0.00598c5.91631,3.39514,10.19653,9.13432,11.46832,15.88257
			c0.25766-0.14059,1.46645-0.70543,3.06996,0.03055V179.2691c1.36984,0.13959,2.75826,0.21562,4.16264,0.21562
			c1.40536,0,2.79324-0.07603,4.16518-0.21562v11.59738c1.6265-0.74847,2.84575-0.15459,3.07892-0.02502
			C152.62921,184.08769,156.91196,178.34851,162.82576,174.94983z"/>
		<circle class="st26" cx="144.11533" cy="106.87742" r="25.66396"/>
		<path class="st9" d="M126.17189,64.65519c-0.30466,2.39001-1.75662,0.28922-2.53008,2.81578
			c-2.14535,7.02148-5.3774,19.02609-12.80866,26.16367c0,0,6.81887,26.6029,33.21313,26.6029
			c26.39632,0,33.21664-26.6029,33.21664-26.6029c-7.12254-6.84089-10.40862-19.1322-12.67355-26.02856
			c-0.94812-2.88486-2.47858-0.74149-2.81734-3.3992"/>
		<path class="st27" d="M144.04628,77.785c-25.89799,0-46.89684,23.45393-46.89684,52.38734
			c0,17.85086,7.99758,33.60185,20.1994,43.06041c24.62514-9.44852,26.69744-36.08244,26.69744-36.08244
			c3.70239,24.75375,18.83501,33.44926,26.43681,36.29611c12.35435-9.43552,20.46451-25.29366,20.46451-43.27408
			C190.9476,101.23893,169.94926,77.785,144.04628,77.785z"/>
		<path class="st9" d="M144.04628,77.785c-25.89799,0-46.89684,23.45393-46.89684,52.38734
			c0,17.85086,7.99758,33.60185,20.1994,43.06041c24.62514-9.44852,26.69744-36.08244,26.69744-36.08244
			c3.70239,24.75375,18.83501,33.44926,26.43681,36.29611c12.35435-9.43552,20.46451-25.29366,20.46451-43.27408
			C190.9476,101.23893,169.94926,77.785,144.04628,77.785z"/>
		<polygon class="st30" points="164.58937,67.60608 162.2914,79.98392 165.95473,82.05378 144.45854,115.9433 144.45854,102.49024 
					"/>
		<g>
			<circle class="st28" cx="144.45778" cy="74.6549" r="2.24879"/>
			<circle class="st29" cx="144.45705" cy="74.65503" r="0.52808"/>
		</g>
		<path class="st272" d="M164.55283,143.72597c-2.84581-2.98935-2.38199-7.76689,1.04263-10.67378
			c3.42522-2.91032,8.50443-2.84482,11.35127,0.14258c2.84731,2.98892,2.37653,7.76845-1.04765,10.67932
			C172.47888,146.77994,167.39613,146.71385,164.55283,143.72597z"/>
		<g>
			<path class="st9" d="M170.20145,145.20445c-1.95428,0-3.72141-0.72499-4.97571-2.04384
				c-1.15971-1.21825-1.74762-2.82176-1.65953-4.51787c0.10153-1.88118,1.04315-3.71286,2.58766-5.02368
				c1.44492-1.22829,3.26956-1.90323,5.14375-1.90323c1.95123,0,3.71687,0.72545,4.97269,2.04181
				c1.16072,1.21825,1.75157,2.82381,1.66106,4.52036c-0.09961,1.88225-1.0437,3.71436-2.58768,5.02467
				C173.90126,144.52953,172.07314,145.20445,170.20145,145.20445z M171.29762,132.02301
				c-1.79863,0-3.55727,0.64893-4.94467,1.83167c-1.4799,1.25581-2.38248,3.00594-2.47757,4.80557
				c-0.08606,1.60751,0.47328,3.132,1.57404,4.28925c1.19473,1.25531,2.8828,1.94772,4.75203,1.94772
				c1.79964,0,3.55524-0.64841,4.94414-1.82716c1.48241-1.25777,2.38454-3.00993,2.48009-4.80905
				c0.08453-1.61102-0.4758-3.134-1.57803-4.29073C174.85187,132.71597,173.16432,132.02301,171.29762,132.02301z"/>
		</g>
		<path class="st24" d="M166.18636,142.33357c-2.09184-2.19737-1.75058-5.71359,0.77052-7.8555
			c2.52208-2.14084,6.25595-2.09181,8.34779,0.10759c2.09979,2.19789,1.75609,5.71317-0.77048,7.85498
			C172.0226,144.58151,168.28067,144.53403,166.18636,142.33357z"/>
		<path class="st50" d="M172.59393,144.78116c-0.12509-0.33224,0.03905-0.69595,0.37177-0.82054l0,0
			c0.33167-0.12207,0.69293,0.04407,0.81752,0.37523l0.83551,2.24643c0.12007,0.32924-0.04951,0.69501-0.37523,0.819l0,0
			c-0.32872,0.1176-0.69797-0.04851-0.81752-0.3777L172.59393,144.78116z"/>
		<path class="st50" d="M172.8101,147.71654c-0.07706-0.36226,0.15308-0.72397,0.51582-0.80954l1.53845-0.34068
			c0.3667-0.08311,0.72745,0.14806,0.80899,0.51433l0,0c0.07957,0.36522-0.1516,0.72597-0.51378,0.80545l-1.54001,0.34526
			C173.25735,148.31441,172.89464,148.08424,172.8101,147.71654L172.8101,147.71654z"/>
		
			<ellipse transform="matrix(0.95996 -0.28014 0.28014 0.95996 -34.35011 54.72552)" class="st69" cx="174.26512" cy="147.52589" rx="2.19315" ry="2.19048"/>
		<g>
			<path class="st9" d="M168.87656,133.70612l0.63744-0.24515l0.02701,0.0675c-0.05251,0.02103-0.09303,0.04305-0.12259,0.06458
				c-0.02849,0.02002-0.03951,0.04002-0.03249,0.05804c0.004,0.00946,0.019,0.02698,0.04504,0.05154
				c0.02646,0.0235,0.05849,0.05051,0.09605,0.07903c0.04099,0.03049,0.09053,0.06754,0.14606,0.10904
				c0.05701,0.04207,0.11209,0.08209,0.1666,0.11958c0.02753-0.09756,0.05705-0.21063,0.08859-0.34373
				c0.03101-0.13155,0.04349-0.20758,0.03647-0.22661c-0.0085-0.02054-0.02397-0.032-0.04747-0.036
				c-0.02405-0.00102-0.06857,0.00896-0.13608,0.03349l-0.02657-0.07002l0.50887-0.19514l0.02649,0.06853
				c-0.01651,0.0065-0.03751,0.01801-0.06155,0.03101c-0.02498,0.01256-0.04352,0.02756-0.05701,0.04305
				c-0.02602,0.03003-0.04555,0.06003-0.05753,0.08807c-0.01253,0.02901-0.02353,0.06152-0.03255,0.09753
				c-0.01952,0.07254-0.04504,0.16164-0.07603,0.27168c-0.032,0.10806-0.05856,0.20715-0.08206,0.29572
				c0.05856,0.03949,0.1326,0.09103,0.22215,0.15207c0.09004,0.06056,0.18611,0.12659,0.28819,0.19612
				c0.04349,0.03102,0.07504,0.05057,0.09702,0.06203c0.02351,0.00954,0.04904,0.01604,0.07956,0.01854
				c0.01851,0.00148,0.04253-0.00198,0.07056-0.00804c0.02904-0.0065,0.05154-0.01094,0.06802-0.01648l0.02605,0.06754
				l-0.63042,0.24414l-0.0265-0.06802c0.037-0.01648,0.07304-0.03601,0.10953-0.05901
				c0.03705-0.02353,0.05257-0.04355,0.04607-0.06007c-0.00452-0.013-0.021-0.03-0.04807-0.05452
				c-0.02797-0.02451-0.05997-0.05003-0.09451-0.07655c-0.03654-0.02702-0.07652-0.05653-0.12059-0.09007
				c-0.04504-0.03249-0.09807-0.07054-0.1591-0.11107c-0.03502,0.12509-0.06255,0.23767-0.08553,0.33624
				c-0.02155,0.09903-0.02805,0.16106-0.01955,0.18411c0.0085,0.02153,0.02649,0.03099,0.05354,0.03151
				c0.02803,0.00098,0.07108-0.00902,0.12956-0.02852l0.02553,0.06802l-0.50879,0.19566l-0.02504-0.06857
				c0.015-0.00598,0.03502-0.017,0.06003-0.03104c0.0235-0.01349,0.04356-0.02849,0.05702-0.04201
				c0.02855-0.02951,0.04555-0.05605,0.05507-0.08105c0.00896-0.0255,0.021-0.05952,0.03403-0.10559
				c0.02602-0.08653,0.04903-0.16656,0.07098-0.24063c0.02007-0.07454,0.04504-0.16609,0.07455-0.27267
				c-0.08054-0.05302-0.16858-0.11409-0.26816-0.18211c-0.09857-0.06857-0.19263-0.1346-0.28316-0.19611
				c-0.03052-0.02155-0.06403-0.04002-0.09956-0.05653c-0.03551-0.01552-0.06355-0.0255-0.08307-0.02904
				c-0.01901-0.00296-0.04149-0.00096-0.06805,0.00702c-0.02748,0.0085-0.04903,0.01552-0.06801,0.02098L168.87656,133.70612z"/>
			<path class="st9" d="M168.34625,133.90976l0.61438-0.23668l0.02553,0.06956c-0.01753,0.00702-0.04105,0.019-0.07256,0.034
				c-0.03151,0.01503-0.05353,0.02805-0.06506,0.03853c-0.01799,0.01653-0.02849,0.033-0.03247,0.05203
				c-0.00452,0.0175-0.00156,0.04004,0.0085,0.06557l0.38025,0.98708c0.0085,0.02257,0.01947,0.04053,0.03249,0.05257
				c0.01248,0.01151,0.03354,0.01851,0.06454,0.01851c0.02153,0,0.04953-0.0025,0.08105-0.00801
				c0.03104-0.00299,0.05656-0.00798,0.07555-0.01448l0.02599,0.06805l-0.61336,0.23663l-0.02652-0.06754
				c0.02002-0.0085,0.04253-0.02002,0.06802-0.03455c0.02655-0.015,0.04903-0.03,0.06705-0.04352
				c0.02051-0.01703,0.03255-0.03653,0.03403-0.05653c0.00252-0.02104-0.00148-0.04152-0.00902-0.06203l-0.38025-0.98766
				c-0.00798-0.01999-0.01996-0.03802-0.03603-0.05103c-0.01544-0.01253-0.03598-0.01955-0.06203-0.01955
				c-0.01598,0-0.04002,0.00356-0.07301,0.00754c-0.03252,0.006-0.05907,0.01352-0.08102,0.02103L168.34625,133.90976z"/>
			<path class="st9" d="M167.73686,134.14537l0.61389-0.23665l0.0265,0.06754c-0.017,0.00754-0.04105,0.02054-0.07304,0.03503
				c-0.03152,0.01555-0.05305,0.02803-0.06503,0.03905c-0.01752,0.01651-0.02904,0.03249-0.03307,0.05154
				c-0.00398,0.01747-0.00096,0.04001,0.00954,0.06502l0.37926,0.98715c0.00952,0.02301,0.02002,0.03949,0.0325,0.05251
				c0.01353,0.01251,0.03455,0.01901,0.06506,0.01901c0.02199,0,0.04903-0.0025,0.08107-0.0065
				c0.03151-0.00401,0.05701-0.00905,0.07603-0.01503l0.026,0.06757l-0.61339,0.23717l-0.02701-0.06854
				c0.01952-0.0085,0.04305-0.02002,0.06903-0.03403c0.0255-0.01552,0.04703-0.03052,0.06602-0.04407
				c0.02104-0.017,0.03255-0.03651,0.03354-0.0565c0.00252-0.0215-0.00099-0.04155-0.0085-0.06306l-0.38077-0.9861
				c-0.00798-0.02103-0.0195-0.03854-0.03452-0.05106c-0.01651-0.01302-0.03801-0.02003-0.06354-0.02003
				c-0.015-0.00044-0.0385,0.00252-0.07253,0.00754c-0.03255,0.00702-0.06004,0.0125-0.08107,0.02002L167.73686,134.14537z"/>
		</g>
		<g>
			<path class="st9" d="M172.09612,142.96251c0.01604-0.00702,0.03603-0.01855,0.05605-0.03455
				c0.02051-0.01552,0.03802-0.032,0.04955-0.04803c0.017-0.02147,0.02701-0.04453,0.03203-0.07153
				c0.00496-0.02603,0.00896-0.05605,0.0105-0.08955c0.00348-0.11859,0.00696-0.30222,0.00946-0.55032
				c0.00304-0.24817,0.00504-0.50687,0.00603-0.77654l0.07954-0.03049c0.18814,0.2131,0.36829,0.41676,0.54286,0.61438
				c0.17409,0.19664,0.29218,0.32971,0.35475,0.39822c0.01546,0.01802,0.03148,0.03055,0.05051,0.04053
				c0.01848,0.01004,0.04053,0.01802,0.06706,0.02304c0.02199,0.005,0.04401,0.005,0.06754,0.00249
				c0.0235-0.00249,0.04453-0.00647,0.06255-0.01201l0.0255,0.06805l-0.56436,0.21614l-0.02449-0.06802
				c0.04651-0.02057,0.08453-0.04105,0.11505-0.0611c0.03003-0.01945,0.04153-0.03799,0.03499-0.05554
				c-0.0025-0.00746-0.00746-0.01596-0.013-0.02446c-0.00696-0.00801-0.01146-0.01453-0.01596-0.02051
				c-0.04852-0.05257-0.1261-0.14014-0.23369-0.26265c-0.10753-0.12064-0.26166-0.29472-0.46028-0.51788
				c-0.00252,0.1366-0.00502,0.29771-0.006,0.48386c-0.00154,0.18561-0.00154,0.31367,0.00098,0.38269
				c0.00052,0.06558,0.00354,0.11209,0.00853,0.13408c0.00499,0.02505,0.011,0.04408,0.017,0.05708
				c0.00502,0.01546,0.01602,0.02602,0.03302,0.03c0.01755,0.00452,0.03802,0.00603,0.06207,0.00499
				c0.02446-0.002,0.04703-0.00546,0.07002-0.01001c0.02301-0.00499,0.04651-0.01152,0.06953-0.01802l0.02652,0.06757
				l-0.50731,0.19563L172.09612,142.96251z"/>
			<path class="st9" d="M171.14552,141.84128l0.61339-0.23613l0.02652,0.06802c-0.017,0.00902-0.04102,0.01999-0.07356,0.035
				c-0.03151,0.01503-0.05251,0.02803-0.06454,0.03807c-0.0175,0.01649-0.02849,0.03352-0.03247,0.052
				c-0.00354,0.01802-0.00156,0.03957,0.0085,0.06505l0.38019,0.98763c0.009,0.02299,0.01906,0.04002,0.03255,0.05206
				c0.01248,0.01346,0.03403,0.01848,0.06454,0.0195c0.02202,0,0.04903-0.0025,0.08105-0.00702
				c0.03101-0.00398,0.05701-0.009,0.07603-0.01552l0.0255,0.06802l-0.61284,0.23665l-0.02704-0.06802
				c0.02002-0.0085,0.04303-0.01999,0.06853-0.03403c0.02605-0.01448,0.04852-0.02953,0.06654-0.04401
				c0.02205-0.01648,0.033-0.03653,0.03403-0.05701c0.00148-0.02054-0.00102-0.04105-0.00902-0.06158l-0.37973-0.98659
				c-0.0085-0.02106-0.02048-0.03854-0.03603-0.0511c-0.01602-0.01294-0.03702-0.01898-0.06351-0.02046
				c-0.01501,0-0.03802,0.00302-0.07156,0.0085c-0.03352,0.00546-0.05956,0.01196-0.08157,0.02002L171.14552,141.84128z"/>
		</g>
		<g>
			<path class="st9" d="M175.96458,136.83612l0.18761,0.63086l-0.07104,0.02103c-0.00598-0.01799-0.01651-0.04253-0.02901-0.07603
				c-0.01248-0.03203-0.0235-0.05457-0.0325-0.06754c-0.01453-0.01855-0.03204-0.03156-0.04904-0.03606
				c-0.01805-0.006-0.04053-0.00496-0.06657,0.00206l-1.01459,0.30112c-0.02254,0.00754-0.04053,0.01604-0.05406,0.02805
				c-0.01248,0.01204-0.02101,0.03354-0.02353,0.06306c-0.0025,0.02199-0.0025,0.04999,0,0.08105
				c0.00252,0.03297,0.00452,0.05804,0.00951,0.078l-0.07057,0.02057l-0.1871-0.63094l0.07057-0.01953
				c0.0065,0.01854,0.01602,0.04303,0.02852,0.0696c0.01253,0.02698,0.02605,0.04955,0.03951,0.06898
				c0.01451,0.02306,0.03255,0.03557,0.05257,0.04008c0.01999,0.00244,0.04149,0.00096,0.06252-0.00502l1.01315-0.30067
				c0.02251-0.00705,0.04053-0.01703,0.05453-0.03255c0.01404-0.01401,0.02254-0.03506,0.02498-0.05952
				c0.00102-0.01653,0.00052-0.04105-0.00244-0.07359c-0.00356-0.033-0.00754-0.05998-0.01404-0.08151L175.96458,136.83612z"/>
			<path class="st9" d="M175.79097,136.25073l0.18713,0.63087l-0.07053,0.02153c-0.00652-0.01851-0.01656-0.04253-0.02853-0.07655
				c-0.01251-0.03203-0.02455-0.0545-0.03305-0.06754c-0.01549-0.01854-0.03204-0.03148-0.04904-0.0365
				c-0.01799-0.00504-0.04001-0.00504-0.06602,0.00346l-1.01463,0.30067c-0.024,0.00754-0.041,0.01604-0.05457,0.02756
				c-0.01248,0.01201-0.02098,0.03352-0.024,0.06303c-0.00148,0.02202-0.00148,0.05006,0,0.08154
				c0.00302,0.033,0.00552,0.05756,0.01004,0.07751l-0.07054,0.02058l-0.18665-0.63094l0.06956-0.01949
				c0.00696,0.01848,0.01648,0.04298,0.02953,0.07002c0.01248,0.02649,0.0255,0.04903,0.03902,0.06902
				c0.01451,0.02354,0.03203,0.03609,0.05202,0.03905c0.021,0.002,0.04201,0.00148,0.06306-0.00502l1.01414-0.30067
				c0.02199-0.00601,0.03951-0.01703,0.05302-0.03151c0.0145-0.01453,0.02303-0.03506,0.02553-0.06056
				c0.00148-0.01503,0.00049-0.04001-0.0025-0.07256c-0.00304-0.03249-0.00754-0.06049-0.01305-0.08151L175.79097,136.25073z"/>
			<path class="st9" d="M175.61636,135.66638l0.18761,0.62939l-0.07001,0.02202c-0.00655-0.01854-0.01505-0.04305-0.02953-0.07658
				c-0.0125-0.03204-0.02254-0.05402-0.03255-0.06703c-0.015-0.019-0.03101-0.03151-0.04903-0.03603
				c-0.017-0.00601-0.03853-0.00502-0.06506,0.00249l-1.0146,0.30074c-0.02301,0.00748-0.04105,0.01596-0.05501,0.02802
				c-0.01305,0.01199-0.02109,0.03351-0.02309,0.06252c-0.0025,0.02252-0.0025,0.05005-0.00096,0.08102
				c0.002,0.03357,0.0045,0.05859,0.00998,0.07906l-0.07002,0.02003l-0.18613-0.63094l0.06805-0.01996
				c0.00798,0.019,0.01602,0.04305,0.03102,0.07053c0.01102,0.0265,0.02502,0.04903,0.03751,0.06805
				c0.01552,0.02299,0.03255,0.03603,0.05251,0.04002c0.02007,0.0025,0.04156,0.00099,0.06306-0.00452l1.01466-0.30122
				c0.02155-0.00694,0.03899-0.0175,0.05302-0.03148c0.01349-0.01451,0.02199-0.03551,0.02501-0.06007
				c0.002-0.01596,0.002-0.04102-0.00302-0.07349c-0.002-0.03307-0.00746-0.06004-0.01198-0.08157L175.61636,135.66638z"/>
		</g>
		<g>
			<path class="st9" d="M165.50494,140.54648l-0.20964-0.62392l0.06953-0.02301c0.00751,0.01549,0.01752,0.04153,0.03156,0.07353
				c0.01346,0.03203,0.0255,0.05501,0.03499,0.06657c0.015,0.01848,0.03304,0.03148,0.05006,0.03502
				c0.01796,0.00447,0.04053,0.00348,0.06699-0.00554l1.00269-0.3367c0.02299-0.0085,0.04099-0.01802,0.05302-0.02901
				c0.01349-0.01352,0.01999-0.03554,0.02199-0.06454c0.00203-0.02252,0-0.04903-0.00299-0.08105
				c-0.00348-0.03304-0.00702-0.05753-0.01198-0.07755l0.06805-0.02251l0.2106,0.6234l-0.06854,0.02303
				c-0.00801-0.01955-0.01903-0.04408-0.03255-0.06958c-0.013-0.02701-0.02701-0.05002-0.04053-0.06805
				c-0.01596-0.02249-0.0345-0.03351-0.0545-0.03653c-0.02101-0.00296-0.04155,0-0.06255,0.00702l-1.00262,0.33624
				c-0.02101,0.00751-0.03905,0.01703-0.05302,0.03249c-0.01303,0.01703-0.02005,0.03653-0.02255,0.06155
				c-0.00052,0.01703,0.00102,0.04102,0.00552,0.07304c0.004,0.03403,0.00899,0.06107,0.01601,0.08205L165.50494,140.54648z"/>
			<path class="st9" d="M165.86067,141.60612l-0.21817-0.64742l0.07005-0.02303c0.02002,0.05257,0.03902,0.09355,0.05855,0.12262
				c0.01952,0.03052,0.03905,0.04201,0.05753,0.03548c0.00902-0.002,0.02701-0.01648,0.05302-0.04102
				c0.02553-0.02597,0.05354-0.05652,0.08305-0.09355c0.03304-0.03853,0.07054-0.08704,0.11609-0.14157
				c0.04453-0.05554,0.08505-0.10707,0.12506-0.16061c-0.09451-0.03151-0.20712-0.06654-0.33766-0.10359
				c-0.1306-0.03751-0.20667-0.05199-0.22569-0.04601c-0.021,0.00751-0.034,0.02251-0.03651,0.04504
				c-0.00351,0.02402,0.00452,0.06953,0.02454,0.13858l-0.06956,0.02251l-0.17358-0.51729l0.06898-0.02257
				c0.00806,0.01651,0.01755,0.03801,0.03004,0.06154c0.01254,0.0255,0.02553,0.04556,0.03957,0.06004
				c0.03052,0.02802,0.05849,0.04703,0.08704,0.06152c0.0275,0.01352,0.05952,0.02457,0.09506,0.03609
				c0.07153,0.02298,0.16013,0.05147,0.26765,0.08801c0.10759,0.0365,0.20512,0.06802,0.29218,0.09457
				c0.04207-0.05704,0.09605-0.12758,0.16164-0.21565c0.06451-0.08653,0.1346-0.17963,0.20915-0.27866
				c0.032-0.04152,0.05399-0.07356,0.06551-0.09457c0.01102-0.02151,0.01903-0.04803,0.02303-0.07904
				c0.00102-0.01753,0-0.04053-0.006-0.07056c-0.00502-0.0295-0.00955-0.05154-0.01303-0.06854l0.06857-0.02251l0.21562,0.64088
				l-0.06958,0.02402c-0.01399-0.03902-0.03151-0.076-0.05251-0.11357c-0.02301-0.03751-0.04149-0.05399-0.05904-0.04851
				c-0.013,0.0045-0.03052,0.02002-0.05605,0.04651c-0.0255,0.02654-0.05205,0.05605-0.08054,0.09007
				c-0.02802,0.03551-0.06004,0.07401-0.09456,0.11757c-0.03505,0.04201-0.07507,0.09407-0.11908,0.1541
				c0.12308,0.03905,0.23561,0.07307,0.33322,0.10005c0.09755,0.02553,0.15906,0.03506,0.18311,0.02701
				c0.021-0.00694,0.03201-0.02449,0.033-0.05251c0.00203-0.02803-0.00598-0.07108-0.02303-0.12956l0.06958-0.02306l0.17261,0.51633
				l-0.06854,0.02202c-0.0065-0.01448-0.01555-0.03551-0.02803-0.06003c-0.01352-0.02451-0.02753-0.04504-0.04105-0.06053
				c-0.02849-0.02852-0.05302-0.04654-0.07852-0.05753c-0.02353-0.011-0.05904-0.02452-0.10408-0.03905
				c-0.08456-0.03104-0.16312-0.05553-0.23764-0.08051c-0.07307-0.02457-0.16263-0.05309-0.26764-0.08711
				c-0.05804,0.07758-0.1221,0.16512-0.19418,0.25917c-0.07301,0.09555-0.14258,0.18814-0.2086,0.27467
				c-0.02251,0.02951-0.04253,0.06306-0.06007,0.0976c-0.01744,0.03551-0.02898,0.06204-0.03249,0.08107
				c-0.00401,0.01898-0.00247,0.04149,0.00351,0.0695c0.0065,0.02751,0.01302,0.05051,0.01796,0.06754L165.86067,141.60612z"/>
		</g>
		
			<ellipse transform="matrix(0.95884 -0.28395 0.28395 0.95884 -32.25119 54.2627)" class="st9" cx="171.04094" cy="138.37431" rx="0.20611" ry="0.22908"/>
		<polygon class="st9" points="169.95728,135.96802 170.1514,135.89099 171.14401,138.32703 170.94841,138.40509 		"/>
		<polygon class="st27" points="172.75008,137.5916 172.8251,137.78372 171.09601,138.49066 171.01897,138.29604 		"/>
		<polyline class="st9" points="170.40857,135.81694 169.88072,135.48676 169.79265,136.22972 170.43906,135.9035 		"/>
		<polyline class="st9" points="172.86365,137.9348 173.23186,137.43347 172.50191,137.28639 172.77808,137.95482 		"/>
		<path class="st30" d="M159.06033,137.86726c0,0,16.23534,1.17325,26.33673-6.66673v2.88931c0,0-7.98808,7.90755-26.33673,6.50316
			V137.86726z"/>
		<path class="st27" d="M158.2733,140.50189c0,0,11.38527,1.08124,19.95271-2.2789
			c10.11241-3.96553,1.76561,15.59241,1.76561,15.59241l-13.16835-0.07156L158.2733,140.50189z"/>
		<polygon class="st30" points="123.64079,67.47097 126.28251,80.32667 122.62013,82.39697 144.11534,116.28853 
			144.11534,102.83344 		"/>
		<g>
			<circle class="st28" cx="144.45778" cy="87.45617" r="2.24817"/>
			<circle class="st29" cx="144.45705" cy="87.45681" r="0.52795"/>
		</g>
		<path class="st24" d="M165.08914,33.75252c0.29469-5.93076-0.11906-12.35286-2.44701-16.77265
			c-1.20029-3.44472-5.12477-5.57506-9.10385-6.88039c1.77614-0.04304,3.28714-0.02949,3.28714-0.02949
			c-4.2442-2.85534-7.96809-2.66071-10.72835-1.65007c-0.85953-0.12162-1.54796-0.19515-1.98625-0.23867
			c1.97928-1.13574,4.18669-1.91569,4.18669-1.91569c-6.57921-1.61154-12.20279,1.97721-14.65437,3.92445
			c-3.88544,1.31086-7.65887,3.42572-8.83311,6.78987c-2.327,4.41979-2.74126,10.84189-2.44702,16.77265
			c-0.27569,5.57757-0.04053,9.80723,1.17669,13.96388c3.31016,7.814,1.74314,13.68871,0.10211,19.75457l20.47353,36.07498v0.13208
			l20.47403-36.07195c-1.40343-5.54654-4.50089-12.45494-0.76753-19.95571
			C165.10918,43.55376,165.32683,38.49705,165.08914,33.75252z"/>
		<path class="st8" d="M134.30861,29.98214c0.06204,1.86718-1.91072,3.43616-4.40181,3.52468
			c-2.48856,0.08112-4.56092-1.35484-4.62344-3.22452c-0.06255-1.86019,1.90868-3.4397,4.39732-3.52172
			C132.17424,26.68003,134.24455,28.11793,134.30861,29.98214z"/>
		<path class="st9" d="M131.84904,29.75097c0.1581,1.14424-0.63293,2.20291-1.77917,2.36152
			c-1.14468,0.16463-2.20638-0.65141-2.36145-1.78418c-0.15513-1.14421,0.63686-2.19438,1.7851-2.361
			C130.63576,27.81674,131.6929,28.61224,131.84904,29.75097z"/>
		<path class="st8" d="M161.91417,29.98214c0.063,1.86718-1.91125,3.43616-4.40234,3.52468
			c-2.49002,0.08112-4.56039-1.35484-4.62244-3.22452c-0.062-1.86019,1.90723-3.4397,4.39781-3.52172
			C159.7778,26.68003,161.84911,28.11793,161.91417,29.98214z"/>
		<path class="st9" d="M159.45357,29.75097c0.1581,1.14424-0.63438,2.20291-1.7791,2.36152
			c-1.14372,0.16463-2.20593-0.65141-2.36203-1.78418c-0.15257-1.14421,0.63744-2.19438,1.78714-2.361
			C158.24281,27.81674,159.30098,28.61224,159.45357,29.75097z"/>
		<path class="st9" d="M173.6436,24.96796c0,0,0.03107-0.68299-1.29433-0.8746c-1.32535-0.19109-2.34645-1.10667-14.74738-0.80851
			c-8.79759,0.74647-11.33719,1.7226-11.33719,1.7226s-0.48984,0.14458-1.15274,0.20513
			c-0.35373,0.06303-0.72049,0.09806-1.10074,0.09806c-0.40974,0-0.81-0.03853-1.19225-0.11255
			c-0.57785-0.06908-0.98662-0.19064-0.98662-0.19064s-2.54211-0.97613-11.33771-1.7226
			c-12.40292-0.29816-13.42455,0.61741-14.74789,0.80851c-1.32481,0.19161-1.2948,0.8746-1.2948,0.8746l0.01252,0.85052
			c-0.1081,2.51112,0.54279,2.55364,0.54279,2.55364c0.08659,0.19212,0.34822,0.55181,0.34822,0.55181
			c0.67198,0.27872,1.56206,3.07049,1.56206,3.07049c1.17418,3.4292,2.97688,3.85198,2.97688,3.85198
			c4.86558,1.7651,12.90218,0.82847,12.90218,0.82847s4.51791-0.12757,5.92728-1.97425
			c1.06569-1.3118,2.64716-5.47801,2.64716-5.47801s0.28819-0.61687,0.91557-1.0316
			c0.74004-0.35225,1.75966-0.35624,1.75966-0.35624s1.02264,0.00399,1.76013,0.35624
			c0.62988,0.41473,1.02263,1.13419,1.02263,1.13419s1.47845,4.06361,2.54163,5.37541
			c1.40941,1.84668,5.92828,1.97425,5.92828,1.97425s8.03807,0.93663,12.90221-0.82847c0,0,1.80167-0.42278,2.97636-3.85198
			c0,0,0.8886-2.79177,1.5625-3.07049c0,0,0.25919-0.35968,0.34874-0.55181c0,0,0.65038-0.04252,0.54286-2.55364L173.6436,24.96796z
			 M139.77003,29.78802c-1.21521,4.41328-2.99289,4.87154-2.99289,4.87154c-6.85583,2.16592-14.146,0.70852-14.146,0.70852
			c-3.22153-0.23767-3.85842-2.43157-3.85842-2.43157c-1.1207-2.36802-1.39994-6.54266-1.39994-6.54266
			c0-1.95226,4.66699-1.93925,4.66699-1.93925c11.19713-0.66242,16.56407,1.14321,16.56407,1.14321
			C140.9568,26.43537,139.77003,29.78802,139.77003,29.78802z M169.3764,32.93651c0,0-0.63693,2.19389-3.85945,2.43157
			c0,0-7.28914,1.45741-14.14452-0.70852c0,0-1.7791-0.45826-2.9929-4.87154c0,0-1.18773-3.35265,1.16826-4.19022
			c0,0,5.36388-1.80562,16.56201-1.14321c0,0,4.66499-0.013,4.66499,1.93925
			C170.7748,26.39385,170.49858,30.56849,169.3764,32.93651z"/>
		<path class="st30" d="M143.70604,34.6501c-2.2359,3.76436-6.88335,4.78753-6.88335,4.78753
			c3.65283,2.29445,7.30063,9.27541,7.30063,9.27541s3.49571-6.98096,7.14958-9.27541
			C151.2729,39.43763,145.93895,38.41446,143.70604,34.6501z"/>
		<g>
			<path class="st30" d="M162.49756,112.67924c0,0,11.57384,3.60777,24.94986-2.33299c0,0,9.39845,21.52369-2.6077,45.58599
				c0,0-11.31969,4.05411-23.28482,0.26816C161.5549,156.20039,175.11359,137.57657,162.49756,112.67924z"/>
			<g>
				<path class="st24" d="M131.89456,113.82544c0,0,5.83173,11.73899,9.96034,12.33287c0,0-10.12146-10.29301-9.24188-18.26611
					c0,0,5.11327,9.19482,8.9677,10.45063c0,0-9.22285-8.06609-6.88239-18.70588c0,0,4.12912,11.29068,8.25925,11.7009
					c0,0-7.01947-8.33625-6.39806-16.03416c0,0,9.86926,13.44952,26.02005,17.39852
					c3.46017,6.20345,5.44048,13.342,5.44048,20.94887c0,8.27274-2.3365,15.99614-6.3781,22.55882
					c-7.48373-2.23187-15.54488-7.26361-22.15108-17.65622c-0.01102-0.01799-0.02048-0.03654-0.034-0.05553
					c-3.07094-4.58191-4.94069-8.7841-6.07289-12.37341c-0.08257-0.22164-0.16408-0.43076-0.24965-0.65337
					c0,0,0.02849,0.0375,0.08003,0.10855C131.06953,118.40538,131.89456,113.82544,131.89456,113.82544z"/>
			</g>
		</g>
		<g>
			<path class="st35" d="M160.94653,62.12556c0-0.10707-0.00598-0.21163-0.02649-0.32218h-0.00702
				c-0.05257-0.3047-0.15359-0.51633-0.15359-0.51633l-4.70448-6.21298c-1.28836-1.59502-2.94942-0.45526-2.94942-0.45526
				l-7.23106,4.88708c-0.53539-0.39223-1.19577-0.61986-1.90674-0.61986c-0.74245,0-1.42691,0.24765-1.97173,0.66638l0,0
				l-7.30367-4.93361c0,0-1.65805-1.13976-2.94386,0.45526l-4.711,6.21298c0,0-0.10205,0.21163-0.15411,0.51633h-0.00399
				c-0.01954,0.11055-0.03055,0.21511-0.02952,0.32218v0.00802v0.00702c-0.00103,0.10405,0.00998,0.21414,0.02952,0.32418h0.00399
				c0.05206,0.3027,0.15411,0.51285,0.15411,0.51285l4.711,6.21395c1.28581,1.59753,2.94386,0.45777,2.94386,0.45777
				l7.30367-4.93715l0,0c0.54482,0.41679,1.22928,0.66644,1.97173,0.66644c0.71097,0,1.37091-0.22962,1.90372-0.61838
				l7.23409,4.88908c0,0,1.66106,1.13976,2.94942-0.45777l4.70448-6.21395c0,0,0.10103-0.21015,0.15359-0.51285h0.00702
				c0.02051-0.11003,0.02649-0.22013,0.02649-0.32218v-0.00901V62.12556z"/>
			<g>
				<defs>
					<path id="SVGID_119_" d="M160.94653,62.12556c0-0.10707-0.00598-0.21163-0.02649-0.32218h-0.00702
						c-0.05257-0.3047-0.15359-0.51633-0.15359-0.51633l-4.70448-6.21298c-1.28836-1.59502-2.94942-0.45526-2.94942-0.45526
						l-7.23106,4.88708c-0.53539-0.39223-1.19577-0.61986-1.90674-0.61986c-0.74245,0-1.42691,0.24765-1.97173,0.66638l0,0
						l-7.30367-4.93361c0,0-1.65805-1.13976-2.94386,0.45526l-4.711,6.21298c0,0-0.10205,0.21163-0.15411,0.51633h-0.00399
						c-0.01954,0.11055-0.03055,0.21511-0.02952,0.32218v0.00802v0.00702c-0.00103,0.10405,0.00998,0.21414,0.02952,0.32418h0.00399
						c0.05206,0.3027,0.15411,0.51285,0.15411,0.51285l4.711,6.21395c1.28581,1.59753,2.94386,0.45777,2.94386,0.45777
						l7.30367-4.93715l0,0c0.54482,0.41679,1.22928,0.66644,1.97173,0.66644c0.71097,0,1.37091-0.22962,1.90372-0.61838
						l7.23409,4.88908c0,0,1.66106,1.13976,2.94942-0.45777l4.70448-6.21395c0,0,0.10103-0.21015,0.15359-0.51285h0.00702
						c0.02051-0.11003,0.02649-0.22013,0.02649-0.32218v-0.00901V62.12556z"/>
				</defs>
				<clipPath id="SVGID_4_">
					<use xlink:href="#SVGID_119_"  style="overflow:visible;"/>
				</clipPath>
				<g style="clip-path:url(#SVGID_4_);">
					<g>
						<circle class="st24" cx="129.92706" cy="54.83656" r="0.61254"/>
						<circle class="st24" cx="129.92706" cy="57.75079" r="0.61238"/>
						<circle class="st24" cx="129.92706" cy="60.66587" r="0.61215"/>
						<circle class="st24" cx="129.92706" cy="63.5825" r="0.61214"/>
						<circle class="st24" cx="129.92706" cy="66.49683" r="0.61141"/>
					</g>
					<g>
						<circle class="st24" cx="135.4817" cy="55.44621" r="0.61238"/>
						<circle class="st24" cx="135.4817" cy="58.36105" r="0.61264"/>
						<circle class="st24" cx="135.4817" cy="61.27715" r="0.61188"/>
						<circle class="st24" cx="135.4817" cy="64.19312" r="0.61201"/>
						<circle class="st24" cx="135.4817" cy="67.10786" r="0.61239"/>
					</g>
					<g>
						<circle class="st24" cx="141.03612" cy="55.44621" r="0.61299"/>
						<circle class="st24" cx="141.03612" cy="58.36105" r="0.61325"/>
						<ellipse class="st24" cx="141.03612" cy="61.27715" rx="0.61386" ry="0.61112"/>
						<ellipse class="st24" cx="141.03612" cy="64.19312" rx="0.61386" ry="0.61139"/>
						<circle class="st24" cx="141.03612" cy="67.10786" r="0.613"/>
					</g>
					<g>
						<circle class="st24" cx="146.5874" cy="55.44621" r="0.61225"/>
						<circle class="st24" cx="146.5874" cy="58.36105" r="0.61251"/>
						<circle class="st24" cx="146.5874" cy="61.27715" r="0.61175"/>
						<circle class="st24" cx="146.5874" cy="64.19312" r="0.61188"/>
						<circle class="st24" cx="146.5874" cy="67.10786" r="0.61226"/>
					</g>
					<g>
						<circle class="st24" cx="152.14307" cy="55.44621" r="0.61189"/>
						<circle class="st24" cx="152.14307" cy="58.36105" r="0.61215"/>
						<circle class="st24" cx="152.14307" cy="61.27715" r="0.61139"/>
						<circle class="st24" cx="152.14307" cy="64.19312" r="0.61152"/>
						<circle class="st24" cx="152.14307" cy="67.10786" r="0.6119"/>
					</g>
					<g>
						<ellipse class="st24" cx="132.7043" cy="56.06046" rx="0.61289" ry="0.61038"/>
						<circle class="st24" cx="132.7043" cy="58.97395" r="0.61203"/>
						<circle class="st24" cx="132.7043" cy="61.88978" r="0.61252"/>
						<circle class="st24" cx="132.7043" cy="64.80715" r="0.61227"/>
						<circle class="st24" cx="132.7043" cy="67.72089" r="0.61289"/>
					</g>
					<g>
						<circle class="st24" cx="127.15228" cy="56.06046" r="0.61013"/>
						<circle class="st24" cx="127.15228" cy="58.97395" r="0.61052"/>
						<ellipse class="st24" cx="127.15228" cy="61.88978" rx="0.60988" ry="0.61215"/>
						<circle class="st24" cx="127.15228" cy="64.80715" r="0.61077"/>
						<ellipse class="st24" cx="127.15228" cy="67.72089" rx="0.60988" ry="0.61289"/>
					</g>
					<g>
						<circle class="st24" cx="138.25986" cy="56.06046" r="0.61088"/>
						<circle class="st24" cx="138.25986" cy="58.97395" r="0.61127"/>
						<circle class="st24" cx="138.25986" cy="61.88978" r="0.61176"/>
						<circle class="st24" cx="138.25986" cy="64.80715" r="0.61151"/>
						<circle class="st24" cx="138.25986" cy="67.72089" r="0.61213"/>
					</g>
					<g>
						<circle class="st24" cx="143.8129" cy="56.06046" r="0.61065"/>
						<circle class="st24" cx="143.8129" cy="58.97395" r="0.61104"/>
						<circle class="st24" cx="143.8129" cy="61.88978" r="0.61153"/>
						<circle class="st24" cx="143.8129" cy="64.80715" r="0.61128"/>
						<ellipse class="st24" cx="143.8129" cy="67.72089" rx="0.61091" ry="0.61289"/>
					</g>
					<g>
						<circle class="st24" cx="149.36617" cy="56.06046" r="0.61113"/>
						<circle class="st24" cx="149.36617" cy="58.97395" r="0.61152"/>
						<circle class="st24" cx="149.36617" cy="61.88978" r="0.61201"/>
						<circle class="st24" cx="149.36617" cy="64.80715" r="0.61176"/>
						<circle class="st24" cx="149.36617" cy="67.72089" r="0.61238"/>
					</g>
					<g>
						<circle class="st24" cx="154.91933" cy="56.06046" r="0.61101"/>
						<circle class="st24" cx="154.91933" cy="58.97395" r="0.6114"/>
						<circle class="st24" cx="154.91933" cy="61.88978" r="0.61189"/>
						<circle class="st24" cx="154.91933" cy="64.80715" r="0.61164"/>
						<circle class="st24" cx="154.91933" cy="67.72089" r="0.61226"/>
					</g>
					<g>
						<circle class="st24" cx="160.47336" cy="56.06046" r="0.61002"/>
						<circle class="st24" cx="160.47336" cy="58.97395" r="0.61041"/>
						<ellipse class="st24" cx="160.47336" cy="61.88978" rx="0.60965" ry="0.61215"/>
						<ellipse class="st24" cx="160.47336" cy="64.80715" rx="0.60966" ry="0.61165"/>
						<ellipse class="st24" cx="160.47336" cy="67.72089" rx="0.60965" ry="0.61289"/>
					</g>
					<g>
						<ellipse class="st24" cx="157.69623" cy="56.06046" rx="0.61239" ry="0.61038"/>
						<circle class="st24" cx="157.69623" cy="58.97395" r="0.61178"/>
						<circle class="st24" cx="157.69623" cy="61.88978" r="0.61227"/>
						<circle class="st24" cx="157.69623" cy="64.80715" r="0.61202"/>
						<circle class="st24" cx="157.69623" cy="67.72089" r="0.61264"/>
					</g>
				</g>
			</g>
		</g>
		<g>
			<ellipse class="st274" cx="144.4593" cy="74.6549" rx="2.2469" ry="2.24917"/>
			<circle class="st275" cx="144.45879" cy="74.65503" r="0.52808"/>
		</g>
		<g>
			<circle class="st274" cx="144.4593" cy="89.70522" r="2.24728"/>
			<circle class="st275" cx="144.45879" cy="89.70499" r="0.52822"/>
		</g>
		<g>
			<path class="st22" d="M146.77512,193.31429l0.16254-0.09642l-0.16254-0.13931v-2.83961c0-0.35721,0.29289-0.6501,0.65189-0.6501
				c0,0,0.89294,0.76083,2.47705,0.76083c1.58415,0,2.31458-0.76083,2.73964-0.76083c0.08037,0-0.0107-0.3679,0.38222,0
				c2.43422,2.2753,7.86523,2.73607,7.86523,2.73607c0.30363,0,0.50366,0.48221,0.22325,0.81079
				c-0.04288,0.04646-0.14465,0.12144-0.14465,0.17859l0.16071,0.17145c0,0.36078-0.29109,0.65366-0.64827,0.65366H147.427
				c-0.35899,0-0.65189-0.29288-0.65189-0.65366V193.31429z"/>
			<path class="st22" d="M141.45662,193.48573c0,0.36078-0.29289,0.65366-0.6501,0.65366h-13.05696
				c-0.35538,0-0.64831-0.29288-0.64831-0.65366l0.16253-0.17145c0-0.05714-0.10538-0.13213-0.14465-0.1768
				c-0.2822-0.33037-0.08038-0.81258,0.22146-0.81258c0,0,5.43459-0.46077,7.86702-2.73607c0.3947-0.3679,0.30185,0,0.38217,0
				c0.42685,0,1.15553,0.76083,2.73785,0.76083c1.58594,0,2.47888-0.76083,2.47888-0.76083c0.35721,0,0.6501,0.29289,0.6501,0.65189
				v2.83783l-0.16254,0.1411l0.16254,0.09464V193.48573z"/>
		</g>
	</g>
	<g>
		<path class="st9" d="M55.97075,76.85095c-25.90996,0-46.91835,23.46442-46.91835,52.40981
			c0,17.85887,8.00058,33.6174,20.20935,43.07893c24.63618-9.45,26.709-36.09746,26.709-36.09746
			c3.70387,24.76573,18.84202,33.46378,26.44831,36.31056c12.35939-9.43848,20.47307-25.3031,20.47307-43.29204
			C102.89213,100.31537,81.88525,76.85095,55.97075,76.85095z"/>
		<path class="st65" d="M24.36864,93.19434c-1.09469,0.9206-0.90759,1.8572-0.77547,2.21636
			c0.13157,0.36281,0.58735,1.20827,2.02331,1.20827h62.93651c1.44195,0,1.8937-0.84546,2.01877-1.21322
			c0.13163-0.36123,0.30318-1.30382-0.81102-2.20491L59.01468,68.51966c-0.60937-0.49081-1.10268-1.52449-1.10268-2.3085v-3.6793
			c0-0.78951,0.6319-1.52597,1.36687-1.79619c3.06495-1.13571,5.25582-4.09059,5.25582-7.54925
			c0-4.42983-3.60529-8.03912-8.04311-8.03912c-4.43534,0-8.04762,3.60929-8.04762,8.03912
			c0,0.79096,0.6384,1.42138,1.42241,1.42138c0.78897,0,1.41938-0.63042,1.41938-1.42138c0-2.86987,2.33647-5.19735,5.20582-5.19735
			c2.86983,0,5.20682,2.32749,5.20682,5.19735c0,2.8783-2.33699,5.20675-5.20682,5.20675
			c-0.78848,0-1.41993,0.63641-1.41993,1.42093v6.22444c0,0.78404-0.4863,1.82265-1.08916,2.33203L24.36864,93.19434
			L24.36864,93.19434z M29.51993,93.77567c-0.78353,0-0.9281-0.4127-0.33322-0.91358l25.98854-21.79086
			c0.60389-0.49827,1.24828-0.86603,1.27581-0.86603c0.04053,0,0.33973,0.18015,0.65842,0.42876
			c0.16663,0.12658,0.36075,0.28471,0.56137,0.44576l27.16127,21.8019c0.60837,0.48932,0.47078,0.89404-0.31422,0.89404h-9.21883
			H37.50599H29.51993L29.51993,93.77567z M29.51993,93.77567"/>
		<circle class="st26" cx="56.03954" cy="105.95631" r="25.67546"/>
		<path class="st23" d="M55.97075,76.85095c-25.90996,0-46.91835,23.46442-46.91835,52.40981
			c0,17.85887,8.00058,33.6174,20.20935,43.07893c24.63618-9.45,26.709-36.09746,26.709-36.09746
			c3.70387,24.76573,18.84202,33.46378,26.44831,36.31056c12.35939-9.43848,20.47307-25.3031,20.47307-43.29204
			C102.89213,100.31537,81.88525,76.85095,55.97075,76.85095z"/>
		<path class="st272" d="M76.48679,142.81993c-2.84682-2.98994-2.383-7.77097,1.04266-10.6783
			c3.42721-2.91238,8.50642-2.84534,11.35526,0.1451c2.84981,2.98737,2.37948,7.76895-1.04773,10.68124
			C84.41487,145.87483,79.32961,145.80878,76.48679,142.81993z"/>
		<g>
			<path class="st9" d="M82.13589,144.29836c-1.95377,0-3.72186-0.72546-4.97565-2.0443
				c-1.16126-1.21729-1.75012-2.82332-1.6616-4.51936c0.1016-1.88272,1.04419-3.71439,2.5887-5.02626
				c1.4464-1.22777,3.27259-1.90265,5.14675-1.90265c1.95325,0,3.71838,0.72391,4.97465,2.04279
				c1.16027,1.21928,1.75061,2.82431,1.66256,4.52139c-0.09956,1.88417-1.04411,3.7148-2.58914,5.02667
				C85.83873,143.62289,84.01009,144.29836,82.13589,144.29836z M83.2341,131.11142c-1.79919,0-3.55823,0.64996-4.94664,1.83366
				c-1.48094,1.25531-2.38403,3.00749-2.47909,4.80757c-0.08556,1.60855,0.47281,3.13348,1.57401,4.29073
				c1.19674,1.25581,2.88383,1.94775,4.75352,1.94775c1.80067,0,3.55775-0.64838,4.94764-1.82816
				c1.48193-1.25778,2.38651-3.00941,2.4816-4.80957c0.08402-1.61102-0.47683-3.13599-1.57854-4.2932
				C86.79036,131.80339,85.10179,131.11142,83.2341,131.11142z"/>
		</g>
		<path class="st24" d="M78.12083,141.427c-2.09432-2.19785-1.75208-5.71661,0.76949-7.858
			c2.52161-2.14336,6.26102-2.09329,8.35331,0.10707c2.09934,2.19943,1.75563,5.71664-0.77048,7.85852
			C83.95907,143.67546,80.21667,143.62895,78.12083,141.427z"/>
		<path class="st50" d="M84.53041,143.8766c-0.12507-0.33278,0.03954-0.69844,0.37276-0.82158l0,0
			c0.33218-0.12105,0.69241,0.04504,0.817,0.37529l0.83754,2.24593c0.11857,0.33119-0.04855,0.69595-0.37571,0.82103l0,0
			c-0.32975,0.11755-0.69951-0.05006-0.81855-0.37926L84.53041,143.8766z"/>
		<path class="st50" d="M84.74758,146.81146c-0.07758-0.36226,0.15159-0.72449,0.51582-0.80902l1.53846-0.34024
			c0.36722-0.08354,0.72848,0.14708,0.80902,0.51433l0,0c0.07903,0.36475-0.15112,0.72701-0.51434,0.80603l-1.53994,0.34419
			C85.19334,147.41081,84.83115,147.18019,84.74758,146.81146L84.74758,146.81146z"/>
		
			<ellipse transform="matrix(0.95989 -0.28038 0.28038 0.95989 -37.65226 30.05062)" class="st69" cx="86.20235" cy="146.62193" rx="2.19304" ry="2.19098"/>
		<g>
			<path class="st9" d="M80.81306,132.80701l0.63792-0.24617l0.02653,0.06813c-0.05206,0.02144-0.09206,0.04248-0.12162,0.06403
				c-0.02901,0.02147-0.0395,0.04053-0.033,0.05849c0.00348,0.01001,0.019,0.02701,0.04556,0.05103
				c0.0255,0.02509,0.05753,0.05006,0.09554,0.07957c0.04105,0.03101,0.09052,0.06752,0.14606,0.10959
				c0.05708,0.04253,0.11209,0.08105,0.16615,0.11757c0.02849-0.09506,0.05801-0.20964,0.08904-0.34172
				c0.03152-0.13309,0.04349-0.20764,0.03654-0.22716c-0.00753-0.02101-0.02405-0.03203-0.04755-0.03453
				c-0.02302-0.00296-0.06802,0.0085-0.13608,0.03107l-0.02653-0.06805l0.50883-0.19664l0.02701,0.06805
				c-0.016,0.008-0.03699,0.01797-0.06155,0.032c-0.02447,0.01401-0.04353,0.02753-0.05701,0.04305
				c-0.0255,0.02953-0.04504,0.06004-0.05708,0.08905c-0.01294,0.02753-0.0235,0.06055-0.03352,0.09702
				c-0.01899,0.07057-0.045,0.16216-0.076,0.27023c-0.03055,0.10957-0.05907,0.20808-0.08157,0.2952
				c0.05804,0.04099,0.13209,0.09251,0.22267,0.15404c0.09004,0.06107,0.18559,0.12712,0.28767,0.19618
				c0.04253,0.02997,0.076,0.05051,0.09805,0.06152c0.02151,0.01051,0.048,0.01703,0.07954,0.01753
				c0.01755,0.002,0.04105-0.0005,0.06954-0.00702c0.02852-0.00601,0.05205-0.01155,0.06853-0.01605l0.02604,0.06805
				l-0.63138,0.24365l-0.02605-0.06754c0.03654-0.01648,0.07256-0.036,0.10955-0.05952
				c0.03702-0.02301,0.05254-0.04407,0.04604-0.06055c-0.00399-0.0125-0.02151-0.02953-0.04903-0.05354
				c-0.0275-0.02449-0.05856-0.05051-0.09407-0.07603c-0.03651-0.02753-0.07703-0.05856-0.12059-0.09103
				c-0.04401-0.03304-0.09806-0.07008-0.15855-0.11159c-0.03454,0.12508-0.06355,0.23813-0.08556,0.33774
				c-0.02206,0.09805-0.02856,0.15958-0.01903,0.18362c0.0075,0.01996,0.02502,0.03096,0.05302,0.03096
				c0.02753,0.00052,0.07108-0.0085,0.1281-0.02852l0.02752,0.06854l-0.50931,0.19611l-0.02653-0.06847
				c0.01603-0.0065,0.03651-0.01703,0.061-0.03159c0.02353-0.01398,0.04356-0.02948,0.05804-0.04301
				c0.02707-0.02797,0.04555-0.05504,0.05405-0.08054c0.0095-0.02451,0.02103-0.06004,0.03455-0.10608
				c0.02649-0.08604,0.04903-0.1666,0.07053-0.24063c0.02051-0.07504,0.04552-0.16563,0.07404-0.27271
				c-0.07958-0.05153-0.16811-0.11253-0.26768-0.18163c-0.09853-0.0685-0.1926-0.13408-0.28268-0.19611
				c-0.03148-0.021-0.06403-0.04099-0.10005-0.05598c-0.03599-0.01604-0.06306-0.02509-0.08302-0.03004
				c-0.01903-0.0025-0.04208-0.00102-0.06857,0.00696c-0.02652,0.00806-0.04954,0.01503-0.06757,0.02103L80.81306,132.80701z"/>
			<path class="st9" d="M80.28269,133.01117l0.61394-0.23616l0.02598,0.06802c-0.016,0.00754-0.04098,0.02003-0.07204,0.03558
				c-0.03252,0.013-0.05399,0.02698-0.06454,0.03699c-0.018,0.017-0.02953,0.034-0.03352,0.05205
				c-0.00399,0.01796-0.00148,0.03902,0.0085,0.06551l0.38077,0.98715c0.00902,0.02301,0.01951,0.03949,0.03152,0.05356
				c0.01352,0.0125,0.03503,0.01796,0.06454,0.01796c0.02251,0.00052,0.04955-0.00198,0.08106-0.00694
				c0.03252-0.00406,0.05804-0.0085,0.07703-0.01456l0.02553,0.06854l-0.61291,0.23515l-0.02698-0.06754
				c0.019-0.00752,0.0425-0.02002,0.06802-0.03502c0.02701-0.01401,0.048-0.02901,0.06702-0.04305
				c0.02099-0.017,0.03252-0.03603,0.03355-0.0565c0.00245-0.02057-0.00103-0.04053-0.00953-0.06154l-0.37974-0.98863
				c-0.0085-0.02002-0.02003-0.03757-0.03551-0.05005c-0.01655-0.01198-0.03703-0.01999-0.06306-0.02103
				c-0.01552,0.00104-0.03951,0.00351-0.07201,0.00905c-0.03307,0.00548-0.06007,0.01198-0.08157,0.01996L80.28269,133.01117z"/>
			<path class="st9" d="M79.67284,133.24532l0.61388-0.23566l0.02704,0.06854c-0.01752,0.00754-0.04208,0.0195-0.07356,0.03403
				c-0.031,0.01448-0.05254,0.028-0.06406,0.03853c-0.01797,0.01604-0.02901,0.03304-0.033,0.05203
				c-0.00451,0.01799-0.002,0.03902,0.0085,0.06554l0.37974,0.98763c0.00949,0.02254,0.01999,0.03902,0.03351,0.05103
				c0.01252,0.013,0.03352,0.0195,0.06454,0.0195c0.02199,0,0.04803-0.00198,0.08003-0.0065
				c0.03158-0.0045,0.05756-0.0085,0.07655-0.015l0.02601,0.06854l-0.61384,0.23619l-0.02605-0.06757
				c0.02003-0.00854,0.04202-0.02051,0.06805-0.03552c0.02602-0.01355,0.04803-0.02855,0.06603-0.04355
				c0.0215-0.017,0.03203-0.03603,0.03502-0.0565c0.00152-0.02057-0.00199-0.04105-0.01001-0.06206l-0.38022-0.98714
				c-0.00805-0.02151-0.02003-0.03751-0.03503-0.05052c-0.01703-0.01352-0.03706-0.01953-0.06303-0.02101
				c-0.015,0-0.03902,0.0025-0.07156,0.0085c-0.033,0.00551-0.06055,0.01251-0.08157,0.01903L79.67284,133.24532z"/>
		</g>
		<g>
			<path class="st9" d="M84.03262,142.06544c0.017-0.00603,0.03551-0.01755,0.0565-0.03352
				c0.02154-0.01654,0.03802-0.03203,0.04855-0.04651c0.017-0.02306,0.02801-0.04755,0.03304-0.07359
				c0.00502-0.0255,0.00798-0.05502,0.01049-0.08905c0.00348-0.11859,0.0065-0.30067,0.01001-0.55135
				c0.00251-0.24817,0.00451-0.50632,0.00503-0.77499l0.07999-0.03004c0.18716,0.21115,0.36879,0.41577,0.54288,0.6124
				c0.17509,0.19766,0.29269,0.32922,0.35421,0.39876c0.01552,0.01752,0.03255,0.03104,0.05103,0.0405
				c0.019,0.01105,0.04156,0.01855,0.06706,0.02309c0.0225,0.004,0.04504,0.004,0.06805,0.00296
				c0.02298-0.00398,0.04304-0.00699,0.06203-0.01399l0.02702,0.07004l-0.56433,0.21666l-0.02656-0.06808
				c0.04755-0.01999,0.08556-0.04201,0.1156-0.06248c0.03001-0.01859,0.04202-0.03706,0.03551-0.05457
				c-0.00351-0.00751-0.00801-0.01601-0.01349-0.02451c-0.00702-0.009-0.01204-0.015-0.01655-0.02002
				c-0.04703-0.05453-0.12558-0.14206-0.23265-0.2632c-0.10803-0.12105-0.26163-0.29366-0.46028-0.51833
				c-0.00348,0.13608-0.00502,0.29819-0.0065,0.4848c-0.00103,0.18614-0.00103,0.3132,0,0.38174
				c0.00148,0.06657,0.00399,0.1116,0.01052,0.13562c0.00451,0.02353,0.00902,0.04253,0.01552,0.0565
				c0.00496,0.01503,0.01649,0.02507,0.03352,0.03003c0.017,0.00452,0.03702,0.006,0.06255,0.00554
				c0.02299-0.00302,0.04704-0.00606,0.0695-0.01204c0.02302-0.0045,0.04704-0.00998,0.0696-0.01752l0.02646,0.06854
				l-0.50729,0.19566L84.03262,142.06544z"/>
			<path class="st9" d="M83.08147,140.94522l0.61394-0.23616l0.0265,0.06808c-0.01652,0.00694-0.0415,0.01996-0.07308,0.034
				c-0.03148,0.01451-0.05251,0.02797-0.06351,0.03853c-0.01899,0.01651-0.02952,0.03403-0.03454,0.05199
				c-0.00451,0.01903-0.00097,0.04002,0.0085,0.06458l0.38025,0.98863c0.00902,0.02249,0.01955,0.03949,0.03307,0.05202
				c0.013,0.013,0.03499,0.01854,0.06499,0.01906c0.02205,0.00044,0.04903-0.00154,0.08009-0.00653
				c0.03203-0.00452,0.05804-0.00954,0.07603-0.01501l0.02698,0.06805l-0.61438,0.23613l-0.02602-0.06805
				c0.02003-0.009,0.04256-0.0195,0.06853-0.03403c0.02554-0.0155,0.04755-0.03,0.06558-0.04401
				c0.02198-0.017,0.033-0.0365,0.03499-0.05655c0.00103-0.021-0.00199-0.04202-0.00998-0.06152l-0.38025-0.98862
				c-0.00799-0.02007-0.02003-0.03751-0.03551-0.04955c-0.01603-0.01453-0.03599-0.02051-0.06306-0.02155
				c-0.01448,0.00104-0.03902,0.00354-0.0715,0.0085c-0.03255,0.00603-0.06007,0.01305-0.08157,0.02007L83.08147,140.94522z"/>
		</g>
		<g>
			<path class="st9" d="M87.90305,135.92903l0.18713,0.63191l-0.06957,0.01947c-0.00695-0.01749-0.01648-0.04201-0.029-0.07552
				c-0.0125-0.03255-0.02351-0.05502-0.03349-0.06854c-0.01455-0.01755-0.03003-0.03003-0.04858-0.03551
				c-0.01748-0.00502-0.0395-0.00406-0.06554,0.00348l-1.01562,0.30067c-0.02254,0.00702-0.04053,0.01651-0.05457,0.02753
				c-0.0125,0.013-0.02048,0.03403-0.02299,0.06351c-0.002,0.02257-0.002,0.04903,0,0.08157
				c0.00151,0.03152,0.00451,0.05804,0.00901,0.07707l-0.07005,0.02098l-0.18713-0.63138l0.06956-0.02002
				c0.00747,0.02002,0.01649,0.04352,0.02901,0.07053c0.01352,0.02654,0.02601,0.05006,0.0385,0.06906
				c0.01556,0.02257,0.03307,0.03505,0.05354,0.03905c0.02102,0.00296,0.04104,0.00148,0.06355-0.00502L87.77,136.1972
				c0.0215-0.00702,0.04001-0.01653,0.05354-0.03152c0.01397-0.015,0.02247-0.03403,0.02601-0.06107
				c0.00097-0.015,0-0.03899-0.00354-0.07301c-0.002-0.03252-0.00702-0.06055-0.01249-0.08154L87.90305,135.92903z"/>
			<path class="st9" d="M87.72999,135.34314l0.18658,0.63094l-0.07056,0.02147c-0.0065-0.01747-0.015-0.04297-0.0275-0.07552
				c-0.013-0.03403-0.02405-0.05554-0.03351-0.06805c-0.015-0.019-0.03104-0.03156-0.04903-0.03651
				c-0.01803-0.0065-0.04008-0.00502-0.06602,0.002l-1.01518,0.30215c-0.0225,0.0065-0.04105,0.01552-0.05453,0.02856
				c-0.013,0.011-0.02054,0.0325-0.0235,0.06203c-0.00251,0.02251-0.002,0.04955,0,0.08105
				c0.002,0.032,0.00547,0.05804,0.00946,0.07756l-0.07098,0.01999l-0.18614-0.63039l0.07002-0.02054
				c0.0055,0.02054,0.016,0.04355,0.02856,0.07056c0.013,0.02698,0.02598,0.05006,0.03853,0.07002
				c0.01546,0.02205,0.03297,0.03506,0.05347,0.03757c0.02105,0.00496,0.04156,0.00348,0.06306-0.00354l1.01414-0.30119
				c0.02154-0.00598,0.03905-0.01651,0.05251-0.03099c0.01452-0.01552,0.02302-0.03603,0.02605-0.06056
				c0.00148-0.01549,0.00051-0.04053-0.00303-0.07256c-0.00244-0.03351-0.00747-0.06204-0.01249-0.08403L87.72999,135.34314z"/>
			<path class="st9" d="M87.55531,134.75679l0.18761,0.63242l-0.07001,0.01996c-0.00699-0.01796-0.01652-0.043-0.0285-0.076
				c-0.01352-0.03255-0.0235-0.05505-0.03354-0.06709c-0.01452-0.01898-0.03101-0.03096-0.04855-0.03699
				c-0.01848-0.00502-0.0405-0.00351-0.06654,0.00351l-1.01511,0.30067c-0.02254,0.00754-0.04105,0.01649-0.05457,0.02853
				c-0.01249,0.01199-0.02051,0.03299-0.02302,0.06206c-0.00296,0.02248-0.00296,0.04948-0.00097,0.08203
				c0.00248,0.032,0.00548,0.05753,0.01002,0.07652l-0.07005,0.02205l-0.18716-0.63142l0.07011-0.02098
				c0.00599,0.01999,0.01597,0.04349,0.02949,0.07053c0.01253,0.02798,0.02553,0.05054,0.03802,0.06953
				c0.01501,0.02202,0.03255,0.03551,0.05302,0.03905c0.02051,0.00348,0.04201,0.002,0.06306-0.00398l1.01411-0.30074
				c0.02202-0.00751,0.04053-0.01749,0.05305-0.03101c0.01452-0.01552,0.02302-0.03506,0.02598-0.06255
				c0.002-0.01453,0.00103-0.03899-0.00296-0.07153c-0.00303-0.03355-0.00799-0.06204-0.01249-0.08261L87.55531,134.75679z"/>
		</g>
		<g>
			<path class="st9" d="M77.4379,139.62389l-0.20912-0.62442l0.06902-0.02399c0.00753,0.01851,0.01751,0.04297,0.032,0.07501
				c0.01352,0.03305,0.02605,0.05507,0.03558,0.06653c0.01597,0.01859,0.032,0.03004,0.05,0.03506
				c0.01854,0.00598,0.04008,0.00296,0.06602-0.006l1.00365-0.33624c0.02205-0.00798,0.04105-0.01851,0.05302-0.03052
				c0.01352-0.01201,0.02006-0.03403,0.02106-0.06206c0.00299-0.02351,0.001-0.05148-0.002-0.08255
				c-0.00251-0.03148-0.00753-0.05753-0.01255-0.07652l0.0696-0.02455l0.20912,0.62442l-0.06853,0.02451
				c-0.00802-0.02051-0.01807-0.04401-0.03255-0.07051c-0.01346-0.02704-0.02701-0.04953-0.04002-0.06757
				c-0.01603-0.02202-0.03455-0.03455-0.0545-0.03653c-0.02105-0.00298-0.04259-0.00098-0.06358,0.00502l-1.00211,0.33772
				c-0.02153,0.00699-0.03956,0.01851-0.05206,0.03351c-0.014,0.0145-0.02153,0.03551-0.02404,0.06204
				c-0.00046,0.01399,0.00154,0.03801,0.00605,0.07153c0.00399,0.03302,0.0095,0.06055,0.01548,0.08205L77.4379,139.62389z"/>
			<path class="st9" d="M77.79466,140.68353l-0.2172-0.64639l0.06908-0.02449c0.01899,0.05353,0.0385,0.09406,0.05804,0.12454
				c0.02003,0.03052,0.03854,0.04204,0.05753,0.03554c0.00953-0.00398,0.02701-0.0175,0.05302-0.04303
				c0.02502-0.0255,0.05302-0.05605,0.08357-0.09157c0.03203-0.0405,0.07153-0.08707,0.11557-0.14209
				c0.04401-0.05453,0.08608-0.10806,0.12558-0.16109c-0.09503-0.03152-0.20764-0.06706-0.33824-0.10257
				c-0.13106-0.03801-0.20609-0.05353-0.2246-0.04651c-0.02151,0.00598-0.03503,0.0215-0.03754,0.04549
				c-0.00403,0.02353,0.0045,0.06856,0.02505,0.1371l-0.06957,0.02402l-0.17365-0.51881l0.06957-0.02257
				c0.0065,0.01755,0.01754,0.03809,0.02855,0.06306c0.01295,0.02405,0.02598,0.04453,0.04002,0.05853
				c0.02949,0.028,0.05901,0.04807,0.08653,0.06306c0.0275,0.0125,0.06055,0.02449,0.09555,0.03551
				c0.07104,0.02254,0.16009,0.05154,0.26819,0.08807c0.10707,0.03702,0.2041,0.06802,0.29218,0.09503
				c0.04202-0.05704,0.09606-0.12958,0.16161-0.21565c0.06454-0.08801,0.13508-0.18008,0.20963-0.28014
				c0.03104-0.04156,0.05354-0.07208,0.06454-0.09457c0.0115-0.02151,0.01951-0.04852,0.02302-0.07803
				c0.00148-0.01855,0-0.04153-0.0045-0.07106c-0.00603-0.02852-0.01002-0.05205-0.01401-0.06905l0.06902-0.02251l0.21562,0.64091
				l-0.06899,0.02353c-0.01452-0.03705-0.03255-0.07458-0.05354-0.11311c-0.02256-0.03802-0.04207-0.05351-0.05856-0.048
				c-0.01252,0.004-0.031,0.01952-0.05704,0.04703c-0.02498,0.02654-0.05206,0.05702-0.07903,0.09056
				c-0.02952,0.03499-0.06155,0.07405-0.09606,0.11708c-0.03506,0.04305-0.07455,0.09407-0.11856,0.15359
				c0.12404,0.03951,0.23561,0.07353,0.3327,0.09901c0.09851,0.02753,0.15907,0.03654,0.18311,0.02805
				c0.0215-0.0065,0.032-0.02402,0.03403-0.05199c0.00251-0.02759-0.00654-0.07108-0.02354-0.12912l0.06954-0.02402l0.17361,0.51584
				l-0.0695,0.02354c-0.00605-0.01607-0.01555-0.03603-0.02855-0.06158c-0.01301-0.02502-0.02702-0.04501-0.04053-0.05853
				c-0.02749-0.02904-0.05302-0.04807-0.07755-0.05856c-0.02502-0.01048-0.05956-0.02298-0.10505-0.03897
				c-0.08456-0.02956-0.16312-0.05606-0.23716-0.08107c-0.07407-0.0235-0.16363-0.05353-0.26871-0.08553
				c-0.0565,0.076-0.12155,0.16254-0.19456,0.25911c-0.07256,0.09509-0.14213,0.18613-0.20815,0.2737
				c-0.02302,0.03-0.04305,0.06352-0.06104,0.09709c-0.01699,0.03499-0.02749,0.06248-0.032,0.08253
				c-0.00402,0.01797-0.00251,0.0415,0.004,0.0675c0.0065,0.02753,0.013,0.05058,0.01796,0.06854L77.79466,140.68353z"/>
		</g>
		
			<ellipse transform="matrix(0.95952 -0.28165 0.28165 0.95952 -35.35798 28.93559)" class="st9" cx="82.97743" cy="137.46536" rx="0.20597" ry="0.22945"/>
		<polygon class="st9" points="81.89326,135.05844 82.0879,134.98091 83.07899,137.41899 82.88485,137.49754 		"/>
		<polygon class="st27" points="84.68806,136.68201 84.76103,136.87511 83.03245,137.58258 82.9549,137.38696 		"/>
		<polyline class="st9" points="82.34354,134.90685 81.81671,134.57716 81.72715,135.32063 82.37608,134.99544 		"/>
		<polyline class="st9" points="84.80009,137.02573 85.17036,136.52591 84.43886,136.37779 84.71452,137.04774 		"/>
		<path class="st23" d="M70.20427,139.59438c0,0,11.39128,1.08168,19.96021-2.28046
			c10.11895-3.96602,1.76661,15.60043,1.76661,15.60043l-13.17286-0.07205L70.20427,139.59438z"/>
		<path class="st23" d="M35.55875,82.12379c-2.14937,7.02496-5.38239,19.03459-12.81511,26.17413
			c0,0,6.82032,26.61594,33.2271,26.61594c26.40778,0,33.23064-26.61594,33.23064-26.61594
			c-7.12605-6.84434-10.41264-19.14118-12.67758-26.03902"/>
		<g>
			<path class="st276" d="M70.9903,136.95918c0,0,16.24386,1.17276,26.34875-6.67024v2.89085c0,0-7.99057,7.91103-26.34875,6.50613
				V136.95918z"/>
			<polygon class="st276" points="76.52381,82.2589 74.22237,94.63977 77.8877,96.71059 56.38248,130.61662 56.38248,117.15759 			
				"/>
			<polygon class="st276" points="35.55579,82.12379 38.19944,94.98445 34.53411,97.05527 56.0398,130.96234 56.0398,117.5013 			
				"/>
		</g>
		<polygon class="st65" points="68.23557,96.61897 43.9486,96.61897 42.35409,93.77567 69.87711,93.77567 		"/>
		<polygon class="st65" points="35.97805,82.9013 54.22864,68.16841 57.08044,69.61635 37.42045,85.40089 		"/>
		<polygon class="st65" points="76.22765,82.76918 58.31376,67.70459 55.26429,68.85687 74.78524,85.26929 		"/>
		<g>
			<path class="st35" d="M72.87802,84.75695c0-0.10707-0.00702-0.21163-0.02605-0.32269h-0.0065
				c-0.05399-0.30367-0.15411-0.5153-0.15411-0.5153l-4.70649-6.21797c-1.29183-1.59554-2.95185-0.45432-2.95185-0.45432
				l-7.23409,4.88863c-0.53535-0.38972-1.19681-0.62037-1.90674-0.62037c-0.74297,0-1.42843,0.24817-1.97373,0.66843l0,0
				l-7.30568-4.93669c0,0-1.66002-1.14121-2.94587,0.45432l-4.71199,6.21797c0,0-0.10256,0.21163-0.1551,0.5153H38.7948
				c-0.01899,0.11106-0.03,0.21562-0.02801,0.32269v0.00554v0.00946c-0.002,0.10559,0.00901,0.21514,0.02801,0.32421h0.00502
				c0.05254,0.30318,0.1551,0.51189,0.1551,0.51189l4.71199,6.21794c1.28585,1.59798,2.94587,0.45677,2.94587,0.45677
				l7.30568-4.93911l0,0c0.5453,0.41721,1.23077,0.66637,1.97373,0.66637c0.70993,0,1.37138-0.22866,1.90571-0.61638
				l7.23512,4.88911c0,0,1.66002,1.14121,2.95185-0.45677l4.70649-6.21794c0,0,0.10012-0.2087,0.15411-0.51189h0.0065
				c0.01903-0.10907,0.02605-0.21862,0.02605-0.32318v-0.01049V84.75695z"/>
			<g>
				<defs>
					<path id="SVGID_121_" d="M72.87802,84.75695c0-0.10707-0.00702-0.21163-0.02605-0.32269h-0.0065
						c-0.05399-0.30367-0.15411-0.5153-0.15411-0.5153l-4.70649-6.21797c-1.29183-1.59554-2.95185-0.45432-2.95185-0.45432
						l-7.23409,4.88863c-0.53535-0.38972-1.19681-0.62037-1.90674-0.62037c-0.74297,0-1.42843,0.24817-1.97373,0.66843l0,0
						l-7.30568-4.93669c0,0-1.66002-1.14121-2.94587,0.45432l-4.71199,6.21797c0,0-0.10256,0.21163-0.1551,0.5153H38.7948
						c-0.01899,0.11106-0.03,0.21562-0.02801,0.32269v0.00554v0.00946c-0.002,0.10559,0.00901,0.21514,0.02801,0.32421h0.00502
						c0.05254,0.30318,0.1551,0.51189,0.1551,0.51189l4.71199,6.21794c1.28585,1.59798,2.94587,0.45677,2.94587,0.45677
						l7.30568-4.93911l0,0c0.5453,0.41721,1.23077,0.66637,1.97373,0.66637c0.70993,0,1.37138-0.22866,1.90571-0.61638
						l7.23512,4.88911c0,0,1.66002,1.14121,2.95185-0.45677l4.70649-6.21794c0,0,0.10012-0.2087,0.15411-0.51189h0.0065
						c0.01903-0.10907,0.02605-0.21862,0.02605-0.32318v-0.01049V84.75695z"/>
				</defs>
				<clipPath id="SVGID_6_">
					<use xlink:href="#SVGID_121_"  style="overflow:visible;"/>
				</clipPath>
				<g style="clip-path:url(#SVGID_6_);">
					<g>
						<circle class="st24" cx="41.84525" cy="77.46457" r="0.61263"/>
						<circle class="st24" cx="41.84525" cy="80.38006" r="0.61277"/>
						<circle class="st24" cx="41.84525" cy="83.29706" r="0.61213"/>
						<circle class="st24" cx="41.84525" cy="86.21416" r="0.61214"/>
						<circle class="st24" cx="41.84525" cy="89.13026" r="0.61139"/>
					</g>
					<g>
						<circle class="st24" cx="47.40255" cy="78.07523" r="0.61316"/>
						<circle class="st24" cx="47.40255" cy="80.99072" r="0.61353"/>
						<ellipse class="st24" cx="47.40255" cy="83.90794" rx="0.61342" ry="0.61138"/>
						<ellipse class="st24" cx="47.40255" cy="86.82428" rx="0.61342" ry="0.61139"/>
						<circle class="st24" cx="47.40255" cy="89.74113" r="0.6129"/>
					</g>
					<g>
						<circle class="st24" cx="52.95921" cy="78.07523" r="0.61302"/>
						<circle class="st24" cx="52.95921" cy="80.99072" r="0.6134"/>
						<circle class="st24" cx="52.95921" cy="83.90794" r="0.61226"/>
						<circle class="st24" cx="52.95921" cy="86.82428" r="0.61227"/>
						<circle class="st24" cx="52.95921" cy="89.74113" r="0.61276"/>
					</g>
					<g>
						<circle class="st24" cx="58.51311" cy="78.07523" r="0.61263"/>
						<circle class="st24" cx="58.51311" cy="80.99072" r="0.61301"/>
						<circle class="st24" cx="58.51311" cy="83.90794" r="0.61188"/>
						<circle class="st24" cx="58.51311" cy="86.82428" r="0.61188"/>
						<circle class="st24" cx="58.51311" cy="89.74113" r="0.61238"/>
					</g>
					<g>
						<circle class="st24" cx="64.0714" cy="78.07523" r="0.61289"/>
						<circle class="st24" cx="64.0714" cy="80.99072" r="0.61327"/>
						<circle class="st24" cx="64.0714" cy="83.90794" r="0.61213"/>
						<circle class="st24" cx="64.0714" cy="86.82428" r="0.61214"/>
						<circle class="st24" cx="64.0714" cy="89.74113" r="0.61263"/>
					</g>
					<g>
						<circle class="st24" cx="44.6234" cy="78.68761" r="0.61101"/>
						<circle class="st24" cx="44.6234" cy="81.60485" r="0.61139"/>
						<circle class="st24" cx="44.6234" cy="84.52143" r="0.61188"/>
						<circle class="st24" cx="44.6234" cy="87.43943" r="0.61176"/>
						<circle class="st24" cx="44.6234" cy="90.35478" r="0.61252"/>
					</g>
					<g>
						<circle class="st24" cx="39.069" cy="78.68761" r="0.61064"/>
						<circle class="st24" cx="39.069" cy="81.60485" r="0.61102"/>
						<circle class="st24" cx="39.069" cy="84.52143" r="0.61151"/>
						<circle class="st24" cx="39.069" cy="87.43943" r="0.61139"/>
						<ellipse class="st24" cx="39.069" cy="90.35478" rx="0.61089" ry="0.6134"/>
					</g>
					<g>
						<circle class="st24" cx="50.18094" cy="78.68761" r="0.61077"/>
						<circle class="st24" cx="50.18094" cy="81.60485" r="0.61115"/>
						<circle class="st24" cx="50.18094" cy="84.52143" r="0.61164"/>
						<circle class="st24" cx="50.18094" cy="87.43943" r="0.61152"/>
						<ellipse class="st24" cx="50.18094" cy="90.35478" rx="0.61115" ry="0.61341"/>
					</g>
					<g>
						<circle class="st24" cx="55.73609" cy="78.68761" r="0.61039"/>
						<circle class="st24" cx="55.73609" cy="81.60485" r="0.61077"/>
						<circle class="st24" cx="55.73609" cy="84.52143" r="0.61126"/>
						<circle class="st24" cx="55.73609" cy="87.43943" r="0.61114"/>
						<ellipse class="st24" cx="55.73609" cy="90.35478" rx="0.61038" ry="0.61341"/>
					</g>
					<g>
						<ellipse class="st24" cx="61.29314" cy="78.68761" rx="0.61289" ry="0.6104"/>
						<circle class="st24" cx="61.29314" cy="81.60485" r="0.61202"/>
						<circle class="st24" cx="61.29314" cy="84.52143" r="0.61251"/>
						<circle class="st24" cx="61.29314" cy="87.43943" r="0.61239"/>
						<circle class="st24" cx="61.29314" cy="90.35478" r="0.61315"/>
					</g>
					<g>
						<circle class="st24" cx="66.84867" cy="78.68761" r="0.6109"/>
						<circle class="st24" cx="66.84867" cy="81.60485" r="0.61128"/>
						<circle class="st24" cx="66.84867" cy="84.52143" r="0.61177"/>
						<circle class="st24" cx="66.84867" cy="87.43943" r="0.61165"/>
						<ellipse class="st24" cx="66.84867" cy="90.35478" rx="0.61141" ry="0.61341"/>
					</g>
					<g>
						<circle class="st24" cx="72.40471" cy="78.68761" r="0.61015"/>
						<circle class="st24" cx="72.40471" cy="81.60485" r="0.61052"/>
						<ellipse class="st24" cx="72.40471" cy="84.52143" rx="0.6099" ry="0.61213"/>
						<ellipse class="st24" cx="72.40471" cy="87.43943" rx="0.6099" ry="0.61189"/>
						<ellipse class="st24" cx="72.40471" cy="90.35478" rx="0.6099" ry="0.6134"/>
					</g>
					<g>
						<ellipse class="st24" cx="69.62718" cy="78.68761" rx="0.61339" ry="0.6104"/>
						<ellipse class="st24" cx="69.62718" cy="81.60485" rx="0.61339" ry="0.61115"/>
						<circle class="st24" cx="69.62718" cy="84.52143" r="0.61276"/>
						<circle class="st24" cx="69.62718" cy="87.43943" r="0.61264"/>
						<circle class="st24" cx="69.62718" cy="90.35478" r="0.6134"/>
					</g>
				</g>
			</g>
		</g>
	</g>
	<path class="st24" d="M52.16734,52.67955c0,0,6.36651-1.64701,13.98239,5.86773c0,0-10.00286-0.26266-13.42254,8.85915
		C49.30601,76.52674,46.01595,58.53878,52.16734,52.67955z"/>
	<path class="st24" d="M22.63155,118.27932c0,0,3.01241-0.23819,4.678-2.14139c1.67505-1.9127,2.10231-4.32124,2.10231-4.32124
		s0.51485,2.8538,2.53658,4.40082c1.80318,1.37886,4.40134,1.9427,4.40134,1.9427s-2.81578,0.43678-4.40134,2.02228
		c-1.58601,1.58504-2.41801,4.51991-2.41801,4.51991S28.45977,118.35783,22.63155,118.27932z"/>
	<path class="st24" d="M26.4975,107.32933c0,0,1.31482-0.10459,2.04079-0.93409c0.73199-0.83606,0.91809-1.88572,0.91809-1.88572
		s0.22467,1.24532,1.10622,1.91924c0.78752,0.60186,1.92071,0.84855,1.92071,0.84855s-1.22829,0.19061-1.92071,0.88306
		c-0.69194,0.6909-1.05468,1.97173-1.05468,1.97173S29.04065,107.36384,26.4975,107.32933z"/>
	<path class="st24" d="M20.49918,111.82519c0,0,1.31383-0.10405,2.04134-0.93409c0.72944-0.83503,0.91706-1.88572,0.91706-1.88572
		s0.22464,1.24577,1.10718,1.92071c0.78652,0.6019,1.92026,0.84705,1.92026,0.84705s-1.22929,0.19115-1.92026,0.88206
		c-0.69294,0.69196-1.05564,1.97276-1.05564,1.97276S23.04181,111.86021,20.49918,111.82519z"/>
</g>
</svg>
