<?xml version="1.0" encoding="UTF-8" standalone="no"?>
<svg width="237px" height="200px" viewBox="0 0 237 200" version="1.1" xmlns="http://www.w3.org/2000/svg" xmlns:xlink="http://www.w3.org/1999/xlink">
    <!-- Generator: Sketch 39 (31667) - http://www.bohemiancoding.com/sketch -->
    <title>Swaggy P John</title>
    <desc>Created with Sketch.</desc>
    <defs>
        <polygon id="path-1" points="0.661434129 0.0496247821 1.09124705 0.180176492 0.863991189 0.929266739 0.209998948 0.730622631 0.209998948 0.381803606 0.310773969 0.0496247821 0.661434129 0.0496247821"></polygon>
    </defs>
    <g id="Home-Page-Variations-v4" stroke="none" stroke-width="1" fill="none" fill-rule="evenodd">
        <g id="Home-Page-v3.2" transform="translate(-182.000000, -910.000000)">
            <g id="Group-51" transform="translate(155.000000, 750.000000)">
                <g id="Swaggy-P-John" transform="translate(27.000000, 160.000000)">
                    <g id="Group-23" transform="translate(57.599413, 48.452556)">
                        <path d="M55.8225231,50.1174854 C55.8225231,50.1174854 39.604623,54.4258006 44.6356699,71.6737082 C44.6356699,71.6737082 52.7896522,68.1176219 55.8225231,50.1174854" id="Fill-1" fill="#020202"></path>
                        <path d="M56.1590084,50.1275291 C56.1590084,50.1275291 32.9443506,54.4379367 41.0208355,77.4756004 C41.0208355,77.4756004 43.9814453,72.8324964 45.2601523,71.1292576 C45.2601523,71.1292576 38.7105754,59.2055404 56.1590084,49.6242995" id="Fill-3" fill="#EF4541"></path>
                        <path d="M1.36363991,85.8637373 C-0.292081385,80.3177493 0.347795726,76.7742176 0.347795726,76.7742176 C0.347795726,76.7742176 4.84473896,85.8522289 8.02946284,86.3136099 C8.02946284,86.3136099 0.221077018,78.3529567 0.900750087,72.1844705 C0.900750087,72.1844705 4.84473896,79.296643 7.81791591,80.2675309 C7.81791591,80.2675309 0.703864822,74.0299945 2.50829733,65.8015102 C2.50829733,65.8015102 5.69511574,74.5300855 8.87983963,74.8502274 C8.87983963,74.8502274 3.46444758,68.4013555 3.9440936,62.449436 C3.9440936,62.449436 25.8685246,92.4172307 56.199328,65.5587882 L55.5887742,91.0027475 L41.1417943,109.358597 C41.1417943,109.358597 19.7451834,117.255431 6.20617962,95.9000819 C6.19780152,95.8854349 6.18942343,95.8728803 6.17895081,95.8592795 C3.80899679,92.3136554 2.36796422,89.0620178 1.49559493,86.2853621 C1.42961742,86.1169214 1.3667817,85.9558042 1.30289871,85.7810862 C1.30289871,85.7810862 1.32489122,85.8124727 1.36363991,85.8637373" id="Fill-5" fill="#E6E6E7"></path>
                        <path d="M28.2144963,92.1107942 C28.2144963,86.2247862 26.6886355,80.701815 24.01707,75.9028248 C32.7020141,78.0318732 43.7443452,76.5912345 56.1994327,65.5588928 L56.6633698,91.0342385 L41.141899,109.358702 C41.141899,109.358702 32.8276856,112.422021 23.2902701,109.565852 C26.4100638,104.487523 28.2144963,98.5094478 28.2144963,92.1107942" id="Fill-7" fill="#057BAE"></path>
                        <path d="M141.881072,84.3100027 C143.536794,78.7640147 142.896917,75.2204831 142.896917,75.2204831 C142.896917,75.2204831 138.399973,84.2984944 135.215249,84.7598754 C135.215249,84.7598754 143.023635,76.7992222 142.343962,70.630736 C142.343962,70.630736 138.399973,77.7429085 135.426796,78.7137964 C135.426796,78.7137964 142.540847,72.47626 140.736415,64.2477757 C140.736415,64.2477757 137.549597,72.976351 134.364873,73.2964929 C134.364873,73.2964929 139.780265,66.847621 139.300619,60.8957014 C139.300619,60.8957014 117.376188,90.8634962 87.0453843,64.0050537 L87.6559381,89.4490129 L102.101871,107.804863 C102.101871,107.804863 123.499529,115.701697 137.038533,94.3463473 C137.046911,94.3317003 137.055289,94.3191457 137.065761,94.3055449 C139.435716,90.7599209 140.876748,87.5082833 141.749117,84.7316275 C141.815095,84.5642331 141.877931,84.4020697 141.941814,84.2273517 C141.941814,84.2273517 141.919821,84.2587382 141.881072,84.3100027" id="Fill-9" fill="#E6E6E7"></path>
                        <path d="M115.030321,90.5569551 C115.030321,84.6719933 116.556182,79.1479758 119.227747,74.3489856 C110.542803,76.478034 99.5004718,75.0373954 87.0453843,64.0050537 L86.5804,89.4803994 L102.101871,107.804863 C102.101871,107.804863 110.417131,110.868181 119.954547,108.012013 C116.834753,102.933684 115.030321,96.9556086 115.030321,90.5569551" id="Fill-11" fill="#057BAE"></path>
                        <path d="M46.1235151,117.058324 C51.2069251,116.328066 56.3688797,116.019432 61.5360706,116.004785 C61.5465433,115.995369 61.5549214,115.989092 61.565394,115.977584 C62.2335472,115.38438 62.8639989,114.762928 63.4452294,114.082888 C63.5604282,113.947926 63.6724852,113.810872 63.7855895,113.67591 C64.0306488,113.337982 64.2736136,113.001101 64.5071531,112.656896 C66.692789,109.453384 68.5045523,106.063646 70.9080187,103.005559 C73.043386,100.291676 77.8356571,101.922726 78.5498899,105.022662 C79.3332419,108.419723 80.0830815,111.828293 81.0025776,115.191876 C81.1858484,115.860408 81.3774974,116.524754 81.5743827,117.189101 C83.5442826,117.410899 85.5089462,117.659898 87.470468,117.928775 C90.2184836,118.305413 91.8773467,118.597307 94.5332032,118.819105 C98.2824014,119.134016 102.031599,119.300364 105.770325,119.627829 C108.413614,113.878876 109.910152,107.363046 109.910152,100.455932 C109.910152,87.5006459 104.658133,75.9127638 96.402566,68.1979713 C92.3685126,62.5933952 90.2593268,54.8775564 88.7282297,50.2271288 C88.649685,49.912218 88.5627623,49.5941685 88.4716505,49.2708879 C88.4611779,49.2300855 88.449658,49.1903293 88.4381381,49.1505731 C88.3606407,48.8754185 88.2810488,48.596079 88.2004096,48.314647 C87.9909572,47.5917122 87.7731267,46.8468068 87.5678634,46.0788846 C86.6169494,42.5071052 85.9823086,38.4760371 88.1082506,34.2043395 C89.1460873,30.9150382 89.3178382,26.8567686 89.1282838,23.0454057 C89.3660123,18.2840793 89.032983,13.1304221 87.1636202,9.57956696 C86.1980446,6.81546579 83.0447386,5.10281114 79.845353,4.05868814 C81.2738184,4.02416303 82.4875952,4.03357897 82.4875952,4.03357897 C79.0766627,1.74027475 76.0856823,1.89825328 73.8654867,2.7069778 C73.1763883,2.61072598 72.6255285,2.55213792 72.2715539,2.51761281 C73.8623449,1.60635917 75.6353596,0.978629913 75.6353596,0.978629913 C70.3466862,-0.312399927 65.8277505,2.5646925 63.8578506,4.12983079 C60.738057,5.18336972 57.7030915,6.88033115 56.7595084,9.57956696 C54.8901457,13.1304221 54.5560691,18.2840793 54.7927503,23.0454057 C54.5728253,27.5253002 54.7613325,30.9192231 55.7373807,34.2566503 C57.6591065,38.7857169 57.5365769,42.5008279 56.825486,46.0495906 C56.7584612,46.3843795 56.6851528,46.7181223 56.6076554,47.0508188 C56.6045137,47.0686044 56.6003246,47.0884825 56.5961356,47.1062682 C56.52178,47.4222253 56.4453298,47.7392285 56.3657379,48.0551856 C56.3594543,48.0792485 56.3531708,48.1043577 56.3468872,48.1305131 C56.2683425,48.4433315 56.1866561,48.7582424 56.1039224,49.0710608 C56.0965916,49.0919851 56.0913553,49.1150018 56.0861189,49.1380186 C56.0002435,49.4592067 55.9133207,49.7803948 55.8253507,50.1026292 C55.8253507,50.1089065 55.8232562,50.1130913 55.8222089,50.1172762 C54.3738455,54.8503548 52.3086447,62.3946143 48.1562507,68.0870724 C39.832612,75.801865 34.5303242,87.4389192 34.5303242,100.455932 C34.5303242,106.915266 35.8414963,113.030395 38.1727016,118.497917 C40.8180856,117.987364 43.4561387,117.441239 46.1235151,117.058324" id="Fill-13" fill="#E6E6E7"></path>
                        <path d="M87.3118078,136.404417 L87.2238378,136.412787 C96.9989817,131.314579 105.56768,121.376578 105.56768,109.946675 C105.56768,93.328589 89.59065,79.8512418 72.2731248,79.8512418 C54.9545523,79.8512418 38.9838061,93.328589 38.9838061,109.946675 C38.9838061,121.376578 47.5493624,131.314579 57.3245063,136.412787 L57.2459617,136.407555 C61.9984368,139.1319 65.4407872,143.738387 66.4597732,149.158829 C66.6692256,149.044792 67.637943,148.59178 68.9302643,149.183938 L68.9302643,139.871575 C70.0298895,139.982474 71.143129,140.0442 72.2731248,140.0442 C73.4031205,140.0442 74.5184546,139.982474 75.619127,139.871575 L75.619127,149.183938 C76.9292518,148.583411 77.9084419,149.0563 78.096949,149.16406 C79.1138405,143.738387 82.5572381,139.1319 87.3118078,136.404417" id="Fill-15" fill="#004F73"></path>
                        <path d="M92.8976941,81.7554585 C92.8976941,93.1330513 83.6660791,102.356487 72.2729153,102.356487 C60.8828933,102.356487 51.6502311,93.1330513 51.6502311,81.7554585 C51.6502311,70.3726346 60.8828933,61.1512918 72.2729153,61.1512918 C83.6660791,61.1512918 92.8976941,70.3726346 92.8976941,81.7554585 L92.8976941,81.7554585 Z" id="Stroke-17" stroke="#CBCACB" stroke-width="2.093"></path>
                        <path d="M74.3564432,55.8835972 C74.3564432,56.8827329 73.5458623,57.6904112 72.5499161,57.6904112 C71.5497809,57.6904112 70.7423418,56.8827329 70.7423418,55.8835972 C70.7423418,54.8855076 71.5497809,54.0778293 72.5499161,54.0778293 C73.5458623,54.0778293 74.3564432,54.8855076 74.3564432,55.8835972" id="Fill-19" fill="#444750"></path>
                        <path d="M72.9717533,55.8835972 C72.9717533,56.1179494 72.7821989,56.3094068 72.5497067,56.3094068 C72.3140727,56.3094068 72.1224238,56.1179494 72.1224238,55.8835972 C72.1224238,55.6492449 72.3140727,55.4598799 72.5497067,55.4598799 C72.7821989,55.4598799 72.9717533,55.6492449 72.9717533,55.8835972" id="Fill-21" fill="#DBDADA"></path>
                    </g>
                    <text id="V" font-family="Georgia" font-size="2.18753184" font-weight="normal" fill="#459595">
                        <tspan x="152.92089" y="157.092935">V</tspan>
                    </text>
                    <text id="I" font-family="Georgia" font-size="2.18753184" font-weight="normal" fill="#459595">
                        <tspan x="152.024553" y="157.437824">I</tspan>
                    </text>
                    <text id="III" font-family="Georgia" font-size="1.14131641" font-weight="normal" letter-spacing="-0.098724" fill="#459595">
                        <tspan x="155.626491" y="154.481795">I</tspan>
                        <tspan x="155.97248" y="154.481795" letter-spacing="-0.099">I</tspan>
                        <tspan x="156.318192" y="154.481795">I</tspan>
                    </text>
                    <text id="I" font-family="Georgia" font-size="1.06577966" font-weight="normal" fill="#459595">
                        <tspan x="147.1089" y="156.658484">I</tspan>
                    </text>
                    <text id="X" font-family="Georgia" font-size="1.06577966" font-weight="normal" fill="#459595">
                        <tspan x="147.201109" y="156.932849">X</tspan>
                    </text>
                    <g id="Group-165" transform="translate(0.000000, 0.153794)">
                        <path d="" id="Fill-24" fill="#459595"></path>
                        <polygon id="Fill-26" fill="#459595" points="150.640791 153.405854 150.795786 153.347266 151.592752 155.303689 151.43671 155.365416"></polygon>
                        <polygon id="Fill-28" fill="#292D35" points="152.885388 154.711636 152.945082 154.863337 151.556412 155.435617 151.495671 155.2745"></polygon>
                        <polyline id="Fill-30" fill="#459595" points="151.004715 153.285226 150.578479 153.022626 150.507265 153.617922 151.024613 153.360553"></polyline>
                        <polyline id="Fill-32" fill="#459595" points="152.977652 154.990348 153.272979 154.584416 152.68756 154.464101 152.905391 155.004995"></polyline>
                        <path d="M141.881701,154.930086 C141.881701,154.930086 154.930586,155.870633 163.051056,149.577647 L163.051056,151.898153 C163.051056,151.898153 156.62715,158.248681 141.881701,157.120861 L141.881701,154.930086 Z" id="Fill-34" fill="#397C7A"></path>
                        <path d="M131.955856,114.461113 C131.955856,115.460248 131.145275,116.26688 130.149329,116.26688 C129.149193,116.26688 128.341754,115.460248 128.341754,114.461113 C128.341754,113.463023 129.149193,112.656391 130.149329,112.656391 C131.145275,112.656391 131.955856,113.463023 131.955856,114.461113" id="Fill-36" fill="#444750"></path>
                        <path d="M130.571166,114.461113 C130.571166,114.695465 130.381611,114.883784 130.149119,114.883784 C129.913485,114.883784 129.721836,114.695465 129.721836,114.461113 C129.721836,114.225714 129.913485,114.037395 130.149119,114.037395 C130.381611,114.037395 130.571166,114.225714 130.571166,114.461113" id="Fill-38" fill="#DBDADA"></path>
                        <path d="M146.727487,71.3444824 C146.966263,66.5831559 146.632186,61.4294987 144.762823,57.8786436 C143.797248,55.1155886 140.643942,53.4018877 137.445603,52.3567185 C138.873022,52.3232396 140.086798,52.3326556 140.086798,52.3326556 C136.675866,50.0393513 133.685933,50.1973299 131.465737,51.0060544 C130.776639,50.9098026 130.224732,50.8512145 129.870757,50.8166894 C131.461548,49.9054358 133.234563,49.2777065 133.234563,49.2777065 C127.945889,47.9866767 123.428001,50.8637691 121.457054,52.4289074 C118.338307,53.4824463 115.302295,55.1794078 114.359759,57.8786436 C112.489349,61.4294987 112.155272,66.5831559 112.391953,71.3444824 C112.173076,75.8243768 112.360536,79.2182997 113.337631,82.5557269 C115.998724,88.8319733 114.73782,93.54622 113.422459,98.4163528 L129.871804,127.377688 L129.871804,127.483356 L146.327433,98.524113 C145.198484,94.0703739 142.711237,88.5254321 145.707454,82.5034161 C146.74529,79.2141148 146.917041,75.1558452 146.727487,71.3444824" id="Fill-40" fill="#E6E6E7"></path>
                        <path d="M121.994928,68.3188273 C122.044149,69.8191003 120.457547,71.075605 118.455182,71.1488401 C116.458053,71.2137054 114.789765,70.0618222 114.742638,68.5605031 C114.689227,67.0665075 116.273735,65.7984944 118.274005,65.733629 C120.276371,65.6677174 121.941517,66.8227393 121.994928,68.3188273" id="Fill-42" fill="#FEFEFE"></path>
                        <path d="M120.017906,68.1345888 C120.14253,69.0521197 119.50789,69.898508 118.586299,70.0292849 C117.665756,70.1590156 116.812237,69.5061772 116.68866,68.5959698 C116.562989,67.6784389 117.201819,66.8351892 118.121315,66.7012737 C119.042905,66.5788664 119.89014,67.2181041 120.017906,68.1345888" id="Fill-44" fill="#2A2A34"></path>
                        <path d="M144.179394,68.3188273 C144.22652,69.8191003 142.64306,71.075605 140.638601,71.1488401 C138.637283,71.2137054 136.974231,70.0618222 136.926057,68.5605031 C136.876835,67.0665075 138.456107,65.7984944 140.457424,65.733629 C142.458742,65.6677174 144.124936,66.8227393 144.179394,68.3188273" id="Fill-46" fill="#FEFEFE"></path>
                        <path d="M142.199126,68.1345888 C142.324797,69.0521197 141.689109,69.898508 140.767519,70.0292849 C139.84907,70.1590156 138.997646,69.5061772 138.873022,68.5959698 C138.752586,67.6784389 139.383038,66.8351892 140.306723,66.7012737 C141.226219,66.5788664 142.076596,67.2181041 142.199126,68.1345888" id="Fill-48" fill="#2A2A34"></path>
                        <path d="M153.60182,64.2938273 C153.60182,64.2938273 153.626954,63.7445642 152.563983,63.592863 C151.49787,63.4359307 150.677864,62.7025337 140.712118,62.942117 C133.641005,63.5405522 131.599891,64.3252138 131.599891,64.3252138 C131.599891,64.3252138 131.208215,64.4402975 130.675159,64.4873772 C130.391351,64.539688 130.093929,64.568982 129.788128,64.568982 C129.459288,64.568982 129.138826,64.5386417 128.83512,64.4748226 C128.369088,64.4225118 128.041295,64.3252138 128.041295,64.3252138 C128.041295,64.3252138 125.995992,63.5405522 118.926973,62.942117 C108.959133,62.7025337 108.139127,63.4359307 107.077203,63.592863 C106.010043,63.7445642 106.036225,64.2938273 106.036225,64.2938273 L106.04565,64.9749136 C105.959775,66.9930631 106.481311,67.0244496 106.481311,67.0244496 C106.552525,67.1824281 106.759883,67.4690912 106.759883,67.4690912 C107.30027,67.6929813 108.016597,69.9339747 108.016597,69.9339747 C108.959133,72.6865675 110.407497,73.0265875 110.407497,73.0265875 C114.320068,74.4452556 120.776438,73.6898881 120.776438,73.6898881 C120.776438,73.6898881 124.407296,73.587359 125.54148,72.1038255 C126.396046,71.0544714 127.66847,67.7107669 127.66847,67.7107669 C127.66847,67.7107669 127.899915,67.2138146 128.406789,66.8790257 C128.998492,66.5975937 129.819546,66.5944551 129.819546,66.5944551 C129.819546,66.5944551 130.639552,66.5975937 131.232302,66.8790257 C131.737083,67.2138146 132.053356,67.7902793 132.053356,67.7902793 C132.053356,67.7902793 133.243046,71.0544714 134.096564,72.1038255 C135.229702,73.587359 138.858465,73.6898881 138.858465,73.6898881 C138.858465,73.6898881 145.319024,74.4452556 149.228453,73.0265875 C149.228453,73.0265875 150.677864,72.6865675 151.618305,69.9339747 C151.618305,69.9339747 152.334633,67.6929813 152.879209,67.4690912 C152.879209,67.4690912 153.083425,67.1824281 153.156733,67.0244496 C153.156733,67.0244496 153.680364,66.9930631 153.591347,64.9749136 L153.60182,64.2938273 Z" id="Fill-50" fill="#19191C"></path>
                        <path d="M129.543069,72.0667895 C127.748062,75.0893059 124.012478,75.9095388 124.012478,75.9095388 C126.949001,77.7529703 129.880287,83.3575464 129.880287,83.3575464 C129.880287,83.3575464 132.689044,77.7529703 135.624519,75.9095388 C135.624519,75.9095388 131.34017,75.0893059 129.543069,72.0667895" id="Fill-52" fill="#42474F"></path>
                        <path d="M141.881701,154.930086 C141.881701,154.930086 154.930586,155.870633 163.051056,149.577647 L163.051056,151.898153 C163.051056,151.898153 156.62715,158.248681 141.881701,157.120861 L141.881701,154.930086 Z" id="Fill-54" fill="#397C7A"></path>
                        <path d="M129.690837,178.147908 C140.789721,178.147908 151.004715,176.676929 157.706144,175.621297 C164.022182,169.661008 167.509564,158.972871 167.509564,148.754485 C167.509564,135.799199 162.258593,124.21341 154.001979,116.497571 C150.800499,112.050109 148.811748,106.273954 147.362337,101.753257 C143.767087,104.220233 138.290953,106.393222 130.146396,106.393222 C121.669857,106.393222 116.083762,104.039238 112.498984,101.451947 C111.094605,106.005076 109.10376,111.796925 105.755663,116.386672 C97.4320246,124.100418 92.1318314,135.737473 92.1318314,148.754485 C92.1318314,158.841048 95.7333655,169.661008 101.725799,175.334634 C107.37473,176.385035 117.540503,178.147908 129.690837,178.147908" id="Fill-56" fill="#EF4541"></path>
                        <path d="M125.892627,106.218609 L129.574801,178.148012 L132.450582,178.142781 L133.83611,106.218609 C133.83611,106.218609 132.752194,106.792981 125.892627,106.218609" id="Fill-58" fill="#057BAE"></path>
                        <path d="M126.222201,112.656391 C126.222201,112.656391 130.635363,115.286577 133.712219,112.656391 L133.63158,116.806728 C133.63158,116.806728 131.113962,119.624186 126.222201,116.806728 L126.222201,112.656391 Z" id="Fill-60" fill="#FEFEFE"></path>
                        <path d="M131.668906,142.611213 C129.995381,141.919664 129.995381,141.675896 129.995381,141.513733 C129.995381,141.119309 130.526343,141.060721 130.842616,141.060721 C131.820759,141.060721 132.418746,141.401788 132.705695,141.566043 L133.96241,142.282701 L135.336418,138.659657 L134.435772,138.131318 C133.83988,137.782928 133.196861,137.542299 132.492054,137.406291 L132.492054,135.370356 L128.800455,135.370356 L128.800455,137.639597 C126.988692,138.307082 125.832515,139.85862 125.832515,141.749131 C125.832515,144.718291 128.655933,145.823094 129.847717,146.290752 C131.297128,146.877679 131.297128,147.271056 131.297128,147.482392 C131.297128,147.990852 130.70333,148.171848 130.194361,148.171848 C129.449758,148.171848 128.648602,147.933311 128.049568,147.534703 L126.73316,146.657974 L125.41361,150.339606 L126.173922,150.882592 C126.815894,151.340834 127.710255,151.685039 128.663264,151.856618 L128.663264,153.959511 L132.373713,153.959511 L132.373713,151.632728 C134.26821,150.945365 135.478845,149.321638 135.478845,147.345338 C135.478845,144.492308 133.30054,143.275559 131.668906,142.611213" id="Fill-62" fill="#FEC512"></path>
                        <path d="M147.362337,101.753362 C144.536824,140.362896 129.552599,140.49158 129.552599,140.49158 C115.423987,135.065907 112.498984,101.452051 112.498984,101.452051" id="Stroke-64" stroke="#FEC512" stroke-width="0.798" stroke-linecap="round" stroke-linejoin="round"></path>
                        <path d="M194.349634,130.126724 L194.801004,132.303898 L186.772693,132.266235 L186.6554,131.697093 C186.554863,131.206418 186.87323,130.727252 187.366491,130.624723 L193.270954,129.420529 C193.766309,129.320092 194.247002,129.636049 194.349634,130.126724 L194.349634,130.126724 Z M185.63013,130.535794 L184.09275,132.25368 C182.928194,132.248449 181.764686,132.242172 180.601178,132.236941 C180.055554,132.234848 179.271155,132.37818 178.74543,132.228571 C178.373652,132.122903 178.113931,131.665707 177.780901,131.406245 C177.338957,131.063087 176.839413,130.792117 176.455067,130.377816 C175.850797,129.724977 176.103187,129.051215 176.691749,128.390006 C177.107512,127.923394 177.601819,127.528971 177.971503,127.013187 C178.245886,126.630272 178.467905,126.273513 178.835494,125.968018 C179.420914,125.479435 180.355071,124.959466 181.121667,125.360166 C181.480878,125.547439 181.709181,125.93977 182.008698,126.201324 C182.358484,126.506819 182.732356,126.795574 183.092614,127.087468 C183.880155,127.72566 185.027955,128.62122 185.502364,129.554444 C185.846913,130.232392 185.298148,130.697958 184.964072,131.260822 C184.508513,132.025605 184.165011,132.323776 183.274838,132.40015 C182.342775,132.479662 181.388719,132.441999 180.453514,132.397011 C180.101634,132.380272 179.74347,132.40852 179.392637,132.390734 C179.093121,132.375041 178.567395,132.347839 178.317099,132.179399 C178.078324,132.018281 177.867824,131.65943 177.639521,131.458556 C177.244703,131.110166 176.850932,130.761777 176.456115,130.414433 C176.077006,130.081737 176.043493,129.509457 176.378617,129.132819 L179.759179,125.360166 C180.093256,124.984575 180.671344,124.947958 181.048359,125.283793 L185.55368,129.257319 C185.930694,129.587923 185.964207,130.162295 185.63013,130.535794 L185.63013,130.535794 Z M196.743675,132.312268 L194.801004,132.303898 L195.374904,135.075323 C195.475441,135.563906 195.15812,136.045165 194.662765,136.145601 L188.758302,137.349795 C188.265042,137.450232 187.781206,137.134275 187.679622,136.6436 L186.772693,132.266235 L184.09275,132.25368 L182.251663,134.311586 C181.915492,134.687177 181.33845,134.720656 180.962483,134.389006 L178.51189,132.227525 L175.485303,132.212878 L174.153185,121.292481 L198.037044,121.292481 L196.743675,132.312268 Z M178.531788,141.440498 L178.531788,136.38937 C178.531788,135.891371 178.94022,135.484393 179.446048,135.484393 L185.474088,135.484393 C185.976774,135.484393 186.387301,135.891371 186.387301,136.38937 L186.387301,141.440498 C186.387301,141.943727 185.976774,142.347566 185.474088,142.347566 L179.446048,142.347566 C178.94022,142.348613 178.531788,141.943727 178.531788,141.440498 L178.531788,141.440498 Z" id="Fill-66" fill="#FEFEFE"></path>
                        <path d="M175.485722,132.213401 L176.849257,143.512527 L195.435016,143.512527 L196.743047,132.312791 L194.801423,132.303375 L195.338668,134.902174 C195.338668,134.902174 195.802605,135.605231 194.663184,136.146124 L188.567072,137.368104 C188.567072,137.368104 187.963849,137.504112 187.729262,136.823026 C187.710412,136.768623 187.693655,136.708988 187.680041,136.643077 C187.49677,135.760071 186.773112,132.265711 186.773112,132.265711 L184.093168,132.253157 L182.395557,134.149945 C182.395557,134.149945 181.699127,135.038182 180.7723,134.221088 L178.511262,132.228048 L175.485722,132.213401 Z" id="Fill-68" fill="#FEC512"></path>
                        <path d="M188.192571,139.513369 C188.603098,139.702734 189.086933,139.522785 189.276487,139.114761 C189.464994,138.706737 189.288007,138.222339 188.87748,138.032974 C188.469048,137.843609 187.984166,138.021466 187.794611,138.430536 C187.605057,138.839606 187.784139,139.324004 188.192571,139.513369" id="Fill-70" fill="#FEFEFE"></path>
                        <path d="M184.486834,141.693263 C184.895266,141.882628 185.381196,141.704772 185.569703,141.295701 C185.759258,140.887677 185.580176,140.402233 185.171744,140.213915 C184.761217,140.02455 184.277382,140.202406 184.087827,140.611477 C183.898273,141.020547 184.076308,141.504945 184.486834,141.693263" id="Fill-72" fill="#FEFEFE"></path>
                        <path d="M181.284412,139.185066 C181.692844,139.374431 182.178773,139.195529 182.367281,138.787505 C182.555788,138.377388 182.377753,137.894037 181.969321,137.704672 C181.560889,137.516353 181.074959,137.694209 180.885405,138.10328 C180.696898,138.511304 180.874932,138.995701 181.284412,139.185066" id="Fill-74" fill="#FEFEFE"></path>
                        <g id="Group-78" transform="translate(178.034548, 137.054221)">
                            <mask id="mask-2" fill="white">
                                <use xlink:href="#path-1"></use>
                            </mask>
                            <g id="Clip-77"></g>
                            <path d="M0.436394095,0.795978894 C0.634326622,0.886999636 0.866818797,0.801209971 0.956883333,0.60452147 C1.04904239,0.408879185 0.962119643,0.17661936 0.76628164,0.0866448326 C0.570443637,-0.00542212518 0.337951463,0.08036754 0.245792403,0.276009825 C0.155727866,0.472698326 0.241603354,0.704958151 0.436394095,0.795978894" id="Fill-76" fill="#FEFEFE" mask="url(#mask-2)"></path>
                        </g>
                        <path d="M184.519299,137.739929 C184.754933,137.849782 185.037694,137.74516 185.147657,137.508715 C185.257619,137.270178 185.15394,136.988746 184.916212,136.878894 C184.67953,136.769041 184.39677,136.872616 184.286807,137.110107 C184.175797,137.347598 184.280524,137.62903 184.519299,137.739929" id="Fill-79" fill="#FEFEFE"></path>
                        <path d="M174.152767,121.292899 L175.485931,132.213296 L178.511471,132.227943 L176.455696,130.413805 C176.455696,130.413805 175.646162,129.494182 176.665148,128.814142 L179.602718,125.535303 C179.602718,125.535303 180.260399,124.588478 181.229116,125.443236 L185.179389,128.927133 C185.179389,128.927133 186.34185,129.742135 185.629711,130.536213 L184.092331,132.253052 L186.773321,132.265607 C186.773321,132.265607 186.153342,130.872048 187.517925,130.593755 L193.024429,129.471165 C193.024429,129.471165 194.135574,129.095574 194.387964,130.313369 L194.801632,132.303271 L196.743256,132.312686 L198.036625,121.292899 L174.152767,121.292899 Z" id="Fill-81" fill="#A8DEEB"></path>
                        <polygon id="Fill-83" fill="#A8DEEB" points="174.152767 121.292899 172.178678 108.444328 199.715386 108.444328 198.036625 121.292899"></polygon>
                        <path d="M199.838649,117.80806 C199.838649,117.80806 195.029621,119.869105 193.705882,126.290775 C193.705882,126.290775 196.801589,123.866694 198.252047,124.550919 C198.252047,124.550919 194.78142,126.13175 192.959184,131.74365 C192.959184,131.74365 196.369069,131.352365 197.568184,133.5128 C197.568184,133.5128 193.719496,133.978366 192.159076,137.108643 C192.159076,137.108643 195.898849,138.132888 197.592272,137.044824 C199.616629,135.742285 201.954118,120.074163 199.838649,117.80806" id="Fill-85" fill="#CECECE"></path>
                        <path d="M64.1103455,138.390884 L69.0743676,135.72722 C69.0743676,135.72722 67.2605097,136.057824 65.6655296,133.39939 C65.331453,132.920224 64.5847552,131.441921 64.5847552,131.441921 C64.5847552,131.441921 63.7521819,133.105404 63.7291421,135.922862 C63.7050551,137.506832 64.11244,138.395069 64.1103455,138.390884" id="Fill-87" fill="#E6E6E7"></path>
                        <path d="M127.695698,198.439047 L127.593067,198.380459 L127.695698,198.289438 L127.695698,196.517149 C127.695698,196.295351 127.512428,196.11331 127.289361,196.11331 C127.289361,196.11331 126.732217,196.589338 125.74046,196.589338 C124.74975,196.589338 124.295239,196.11331 124.028187,196.11331 C123.977918,196.11331 124.037612,195.884189 123.788364,196.11331 C122.271928,197.533024 118.87461,197.821779 118.87461,197.821779 C118.689245,197.821779 118.562526,198.120997 118.739513,198.329194 C118.761506,198.356396 118.831673,198.402429 118.831673,198.439047 L118.724852,198.544714 C118.724852,198.770697 118.90917,198.953785 119.132237,198.953785 L127.289361,198.953785 C127.512428,198.953785 127.695698,198.770697 127.695698,198.544714 L127.695698,198.439047 Z" id="Fill-89" fill="#7A1214"></path>
                        <path d="M131.943917,198.544296 C131.943917,198.770278 132.127188,198.953366 132.351302,198.953366 L140.505284,198.953366 C140.731493,198.953366 140.910575,198.770278 140.910575,198.544296 L140.810037,198.438628 C140.810037,198.402011 140.874968,198.355977 140.901149,198.328775 C141.077089,198.120579 140.950371,197.821361 140.760816,197.821361 C140.760816,197.821361 137.367687,197.532606 135.846015,196.112891 C135.602003,195.88377 135.659603,196.112891 135.608287,196.112891 C135.342282,196.112891 134.885676,196.588919 133.900202,196.588919 C132.908445,196.588919 132.351302,196.112891 132.351302,196.112891 C132.127188,196.112891 131.943917,196.294933 131.943917,196.517777 L131.943917,198.289019 L132.046549,198.38004 L131.943917,198.438628 L131.943917,198.544296 Z" id="Fill-91" fill="#7A1214"></path>
                        <path d="M150.071604,68.1712063 C150.071604,68.1712063 158.7178,70.2343432 159.105287,61.7254731 C159.105287,61.7254731 155.749859,60.3078512 155.749859,62.885726 C155.749859,62.885726 151.490644,68.1712063 150.071604,68.1712063" id="Fill-93" fill="#81192D"></path>
                        <path d="M120.23626,60.3144423 C120.23626,60.3144423 143.24356,69.5127684 144.960023,68.9404885 C144.960023,68.9404885 149.994211,69.9699645 151.481324,67.5689001 C151.481324,67.5689001 154.895398,64.159284 155.990834,62.6663346 C156.132214,62.4748772 156.234846,62.3148062 156.287209,62.1965839 C156.775233,61.0991039 158.196368,61.4129685 159.086541,61.716371 C158.180659,61.3815821 157.303053,60.9756505 156.391935,60.6544623 C154.808475,60.0978757 153.206164,59.5643059 151.555679,59.2452102 C150.674932,59.074677 149.748105,58.9156523 148.850601,58.8821734 C148.850601,58.8821734 131.551927,55.6880777 120.23626,60.3144423" id="Fill-95" fill="#BB212A"></path>
                        <path d="M113.720196,63.1027111 C113.720196,63.1027111 124.506995,56.1213155 145.623987,58.5495815 C145.623987,58.5495815 147.295417,45.6486991 136.053059,42.0057769 C136.053059,42.0057769 130.432404,39.2741084 119.797458,42.0057769 C119.797458,42.0057769 103.540809,48.8365175 113.720196,63.1027111" id="Fill-97" fill="#BB212A"></path>
                        <path d="M225.383046,20.5934088 C225.383046,20.5934088 228.028429,27.8666985 236.281902,29.8597389 C236.281902,29.8597389 224.514865,36.7354667 214.837117,32.1917531 C209.019576,29.4611308 205.696614,24.3890784 204.976097,15.0338201 L209.381929,17.1189274 C209.381929,17.1189274 207.37328,21.5391876 210.928735,25.999204 C213.433786,29.1420351 222.312473,27.0705286 225.383046,20.5934088" id="Fill-99" fill="#29602F"></path>
                        <path d="M76.0309105,13.655222 C76.0309105,13.655222 88.7289628,13.6531295 92.314788,13.1467613 C92.314788,13.1467613 100.358808,31.6741903 83.8895649,45.1159662 C83.8895649,45.1159662 76.2812061,41.6739174 70.0971237,41.7513373 C70.0971237,41.7513373 85.3065104,30.9523017 76.0309105,13.655222" id="Fill-101" fill="#29602F"></path>
                        <path d="M18.7074514,85.5118086 C18.7074514,85.5118086 28.1139591,91.5442868 31.5269861,92.99748 C31.5269861,92.99748 27.9086958,110.96623 7.38445415,115.607242 C7.38445415,115.607242 5.27945743,110.095779 0.00020945241,106.878666 C0.00020945241,106.878666 17.3648615,105.088592 18.7074514,85.5118086" id="Fill-103" fill="#29602F"></path>
                        <path d="M140.703217,11.1392831 L149.824869,0.0190593159 C149.824869,0.0190593159 154.609809,9.79280386 165.593494,8.82296215 C173.773658,8.10002729 177.950139,9.16612082 180.743187,11.1392831 L171.793285,23.974254 C171.793285,23.974254 151.67957,27.9728894 140.703217,11.1392831" id="Fill-105" fill="#29602F"></path>
                        <path d="M183.526181,75.8502183 C183.526181,75.8502183 206.715704,73.9973708 210.735096,58.5531386 C210.735096,58.5531386 220.319638,63.4954603 220.629628,69.981996 C220.629628,69.981996 216.622803,79.621825 209.941271,83.3578603 C203.258692,87.0938956 194.966471,87.2790757 193.420713,89.4405568 C193.420713,89.4405568 186.927688,81.7184407 183.526181,75.8502183" id="Fill-107" fill="#29602F"></path>
                        <path d="M35.1142775,49.7496543 C35.1142775,49.7496543 35.1142775,45.5763009 39.5976064,43.1082787 C39.5976064,43.1082787 43.3080558,40.4833242 42.5351764,36.1593159 C42.5351764,36.1593159 50.1100228,40.0198508 53.0475928,50.9852347 C53.0475928,50.9852347 54.0718151,56.0876274 59.1594142,57.8076055 C59.1594142,57.8076055 51.3468393,63.8034662 51.8107764,67.9736809 C51.8107764,67.9736809 52.428661,71.9890557 53.3565351,72.7611627 C53.3565351,72.7611627 46.0319844,70.9083151 43.3562299,62.8775655 C43.3562299,62.8775655 39.9065487,52.2208151 35.1142775,49.7496543" id="Fill-109" fill="#29602F"></path>
                        <path d="M142.060678,104.527716 C140.100203,131.313969 129.70508,131.402898 129.70508,131.402898 C119.902707,127.639661 117.873114,104.318473 117.873114,104.318473" id="Stroke-111" stroke="#FEC512" stroke-width="0.553" stroke-linecap="round" stroke-linejoin="round" stroke-dasharray="1.015,1.015,0,1.015,1.015,1.015"></path>
                        <path d="M59.2031897,134.916298 C59.2031897,134.916298 61.8600935,134.63382 61.838101,131.441817 L63.3419693,133.178534 C63.3419693,133.178534 63.6697623,136.2565 60.0839371,137.299577 L59.2031897,134.916298 Z" id="Fill-113" fill="#FEC512"></path>
                        <path d="M60.9363037,128.493268 C60.9363037,128.493268 62.4789207,127.838337 62.0799138,125.774154 L63.3491954,127.156205 C63.3491954,127.156205 63.4821977,129.560408 61.7625934,129.790575 L60.9363037,128.493268 Z" id="Fill-115" fill="#FEC512"></path>
                        <path d="M117.785353,54.2658524 C118.419994,54.1371679 118.971901,54.1821552 119.440027,54.4029067 C119.870452,54.6069187 120.166827,54.9438 120.329153,55.4166894 C120.508234,55.9377047 120.456918,56.4649973 120.176252,57.0017058 C119.857885,57.5970024 119.332159,58.0280431 118.603265,58.2958743 C117.914166,58.5406887 117.124531,58.546966 116.235405,58.3115675 C116.119159,58.27495 116.056323,58.2017149 116.045851,58.090816 C116.035378,57.7685817 116.025953,57.4233306 116.016527,57.0508779 C116.01548,56.9797353 116.042709,56.920101 116.101356,56.8709289 C116.157908,56.8217567 116.224933,56.8039711 116.300335,56.8123408 C116.404014,56.828034 116.567387,56.8646516 116.793596,56.920101 C117.018757,56.9776428 117.210406,57.0121679 117.367495,57.026815 C117.523538,57.0425082 117.663871,57.026815 117.7864,56.9818277 C118.235676,56.8238492 118.417899,56.6282069 118.330977,56.3928084 C118.248243,56.1699645 117.945584,56.109284 117.420906,56.2107669 C116.798832,56.3258506 116.277296,56.2745861 115.856296,56.0601119 C115.437392,55.8456377 115.145205,55.5003866 114.981833,55.0222662 C114.815318,54.535776 114.844641,54.030454 115.07085,53.5136235 C115.332665,52.9413437 115.768326,52.5416894 116.37888,52.3104758 C117.164327,52.0164893 117.909977,51.9338382 118.615832,52.0614765 C118.674478,52.0708925 118.722653,52.0960016 118.762449,52.1388965 C118.802244,52.1817913 118.824237,52.2330559 118.827379,52.2916439 C118.890214,52.5940002 118.948861,52.9110035 119.003319,53.2405613 C119.006461,53.311704 118.981326,53.3713382 118.928963,53.4173717 C118.875553,53.4644514 118.812717,53.4853757 118.739409,53.4832833 C118.076492,53.423649 117.553908,53.4644514 117.17061,53.6035981 C117.063789,53.6444005 116.98315,53.710312 116.926598,53.802379 C116.870046,53.8954922 116.858526,53.9875591 116.890991,54.0775337 C116.934976,54.1947098 117.023994,54.2700373 117.15909,54.3003775 C117.295234,54.3328102 117.50364,54.3213019 117.785353,54.2658524" id="Fill-117" fill="#FEC512"></path>
                        <path d="M122.912224,53.3422535 C122.932122,52.970847 122.966682,52.4351847 123.017998,51.7342203 C123.068266,51.033256 123.099684,50.6147698 123.108062,50.479808 C123.114346,50.3553084 123.176134,50.2810271 123.29238,50.2548717 C123.738514,50.1460653 124.186742,50.04249 124.636018,49.9462382 C124.752264,49.9200828 124.840234,49.9608852 124.89888,50.0686454 C124.937629,50.1303721 125.137656,50.4777156 125.502103,51.1106759 C125.866551,51.7467749 126.138839,52.2290802 126.320015,52.5575919 C126.376567,51.4873135 126.404843,50.5509507 126.405891,49.7474572 C126.405891,49.6951465 126.421599,49.6501592 126.453017,49.6114492 C126.484435,49.571693 126.52842,49.5455377 126.583925,49.5329831 C127.062524,49.4398699 127.545312,49.3498954 128.031241,49.2620133 C128.108739,49.2431814 128.181,49.2599209 128.248025,49.3101392 C128.315049,49.3634962 128.348562,49.4273153 128.348562,49.5026428 C128.386263,50.9286345 128.274206,52.8944733 128.012391,55.3959743 C127.999823,55.520474 127.936988,55.5999864 127.822836,55.632419 C127.332717,55.7558725 126.842599,55.8782797 126.351433,55.996502 C126.301164,56.0069642 126.251943,56.0006869 126.203769,55.9787163 C126.154548,55.9536072 126.118941,55.9190821 126.095901,55.8720024 C125.783817,55.2756596 125.315691,54.4031159 124.690475,53.2564638 C124.626592,54.5663255 124.585749,55.5549991 124.57004,56.2214383 C124.572135,56.2810726 124.555379,56.3291985 124.520819,56.3689547 C124.487306,56.4097571 124.444369,56.4338201 124.395147,56.4463746 C123.90084,56.5520424 123.408627,56.6587564 122.913272,56.7612855 C122.795978,56.7811636 122.705914,56.7403612 122.640983,56.6378321 C121.994823,55.6020788 121.437679,54.6761781 120.968506,53.8674536 C120.499333,53.0566366 120.085664,52.2615129 119.725406,51.4831286 C119.692941,51.4151246 119.695035,51.343982 119.732737,51.2686545 C119.770438,51.1922807 119.829085,51.1452011 119.905535,51.1274154 C120.382039,50.9966385 120.855402,50.8658615 121.32667,50.7413619 C121.382175,50.7288073 121.432443,50.7329922 121.478523,50.7528703 C121.523555,50.775887 121.558115,50.8083197 121.581154,50.8574918 C121.938271,51.577288 122.38231,52.4048444 122.912224,53.3422535" id="Fill-119" fill="#FEC512"></path>
                        <path d="M132.255792,52.806905 C132.533316,52.7880731 132.812935,52.7723799 133.096743,52.753548 C133.089412,52.7430859 132.917661,52.2168395 132.579396,51.1758552 C132.55845,51.2972162 132.524938,51.4687955 132.479906,51.6895469 C132.433826,51.9102984 132.391936,52.112218 132.355282,52.2942595 C132.31758,52.4742085 132.285115,52.6457878 132.255792,52.806905 M133.629799,48.9139374 C133.711486,49.106441 133.860197,49.4715702 134.078028,50.009325 C134.296905,50.5470797 134.459231,50.9477802 134.563957,51.2135189 C134.668683,51.4782114 134.80378,51.8276474 134.970295,52.2576419 C135.13681,52.6865902 135.284473,53.078921 135.415381,53.4346343 C135.545242,53.7893013 135.666724,54.1387373 135.778781,54.4850346 C135.800774,54.5561772 135.788207,54.6273199 135.74108,54.6995087 C135.695,54.7706514 135.632164,54.8114538 135.552573,54.8219159 C135.07921,54.880504 134.602706,54.9317686 134.122013,54.9788483 C134.015192,54.987218 133.940836,54.9380459 133.899993,54.8323781 C133.812023,54.6053493 133.716722,54.365766 133.617232,54.1167667 C133.056947,54.1575691 132.49352,54.1941867 131.926951,54.2234807 C131.863068,54.4829421 131.802327,54.7319414 131.74368,54.9662937 C131.715404,55.0771925 131.646285,55.1347344 131.532134,55.1420579 C131.050393,55.1546124 130.568652,55.1629822 130.084817,55.1650746 C130.004178,55.1650746 129.938201,55.1326419 129.882696,55.0667303 C129.828238,55.001865 129.80834,54.9317686 129.827191,54.8585335 C129.895263,54.5007278 129.970666,54.1387373 130.052352,53.7715156 C130.135086,53.4011554 130.232481,52.9952238 130.346633,52.5474436 C130.460784,52.0996634 130.552944,51.7387191 130.62311,51.4604258 C130.694324,51.1842249 130.804286,50.7657387 130.954045,50.2060135 C131.102756,49.6462882 131.203293,49.2633734 131.252515,49.0635462 C131.28498,48.9474163 131.358288,48.8835972 131.471392,48.8689501 C132.109175,48.8176856 132.750099,48.7789756 133.389976,48.7486354 C133.509364,48.7486354 133.588956,48.8019924 133.629799,48.9139374" id="Fill-121" fill="#FEC512"></path>
                        <path d="M142.21494,52.1938228 C142.197136,52.4595615 142.172002,52.7127456 142.139537,52.9544214 C142.094504,53.3038574 142.037952,53.7035116 141.970927,54.1575691 C141.975117,54.1659389 141.966738,54.1983715 141.942651,54.2580058 C141.918564,54.3186863 141.864107,54.4023836 141.777184,54.5090975 C141.691308,54.6168577 141.581346,54.7172944 141.445202,54.8093614 C140.809514,55.2341248 140.079572,55.4036117 139.256424,55.3178221 C138.038458,55.1891376 137.178656,54.7403111 136.675971,53.9713428 C136.291625,53.3770924 136.151292,52.6311408 136.257066,51.7366266 C136.349225,50.8515284 136.649789,50.1589338 137.156664,49.6557041 C137.802825,49.0206514 138.712895,48.7716521 139.884781,48.9055677 C140.79171,49.0122817 141.525841,49.3941503 142.086126,50.0480349 C142.132206,50.0992995 142.153151,50.1589338 142.148962,50.2217067 C142.143726,50.2876183 142.116497,50.3409753 142.066228,50.3817777 C141.78242,50.6224072 141.490234,50.869314 141.188623,51.121452 C141.132071,51.1601619 141.070282,51.1758552 141.003257,51.1685317 C140.934138,51.1622544 140.878633,51.1287755 140.833601,51.0743723 C140.600061,50.7615539 140.282741,50.5816048 139.883734,50.5303402 C139.624013,50.5020924 139.401994,50.5198781 139.214534,50.5857897 C139.027074,50.6485626 138.880457,50.7552766 138.772589,50.9007005 C138.664721,51.0450782 138.583035,51.2030568 138.52753,51.3725437 C138.470978,51.544123 138.431182,51.7376729 138.406047,51.9584243 C138.281423,53.0851983 138.623878,53.6920033 139.436553,53.7840702 C139.880592,53.8321961 140.173826,53.7715156 140.313112,53.5978439 C140.316253,53.5685499 140.32149,53.5183315 140.329868,53.4419578 C140.338246,53.3645378 140.345577,53.2996725 140.352908,53.2421306 C140.283788,53.2358533 140.159164,53.2212063 139.975893,53.2013282 C139.792622,53.1804039 139.689991,53.1688956 139.666951,53.1668031 C139.599926,53.1605258 139.545469,53.1333242 139.504625,53.088337 C139.463782,53.0433497 139.448073,52.9889465 139.454357,52.9209425 C139.499389,52.5715066 139.546516,52.224163 139.596784,51.8768195 C139.604115,51.8140466 139.634486,51.7585972 139.687896,51.7115175 C139.742354,51.6623453 139.799953,51.6403748 139.862789,51.6403748 C140.586447,51.6487445 141.301727,51.7324418 142.008629,51.8956514 C142.06937,51.913437 142.120686,51.9511008 142.162576,52.0075964 C142.205514,52.0630459 142.223318,52.126865 142.21494,52.1938228" id="Fill-123" fill="#FEC512"></path>
                        <path d="M154.927339,17.9362309 C154.877071,17.9121679 154.838322,17.8703193 154.818424,17.8169623 C154.789101,17.7395424 154.806904,17.6516603 154.864504,17.5930722 L156.688834,15.6983761 C157.272159,15.0915711 157.513029,14.2399518 157.330806,13.4186727 C157.109833,12.4153521 157.699442,11.4151701 158.673396,11.1400155 C159.482929,10.9119405 160.390905,10.9924991 161.163785,11.3597207 C162.870822,12.1705377 163.577724,13.3098663 163.056187,14.4063 C163.004872,14.513014 162.876058,14.5590475 162.769238,14.5077829 C162.66137,14.4565184 162.61529,14.3278339 162.666606,14.2211199 C163.072944,13.3684543 162.441445,12.4435999 160.979467,11.7489128 C160.298746,11.4256323 159.500733,11.3544896 158.790689,11.5543168 C158.03666,11.7677447 157.580054,12.5450828 157.751805,13.3255595 C157.964399,14.2880777 157.682686,15.2861672 156.998824,15.9965475 L155.476105,17.5784252 C156.985209,17.7970842 157.747616,18.3536709 158.550866,18.9395515 C159.020039,19.2816639 159.504922,19.6352848 160.174122,19.9533342 C160.28199,20.0045988 160.32807,20.1332833 160.276754,20.2410435 C160.225438,20.3477575 160.096625,20.3937909 159.989804,20.3425264 C159.282902,20.0066912 158.782311,19.641562 158.297429,19.2879412 C157.43239,18.6570733 156.685692,18.1119951 154.9996,17.956109 C154.974466,17.9540166 154.950379,17.946693 154.927339,17.9362309" id="Fill-125" fill="#80C1AC"></path>
                        <path d="M154.927339,17.9362309 C154.877071,17.9121679 154.838322,17.8703193 154.818424,17.8169623 C154.789101,17.7395424 154.806904,17.6516603 154.864504,17.5930722 L156.688834,15.6983761 C157.272159,15.0915711 157.513029,14.2399518 157.330806,13.4186727 C157.109833,12.4153521 157.699442,11.4151701 158.673396,11.1400155 C159.482929,10.9119405 160.390905,10.9924991 161.163785,11.3597207 C162.870822,12.1705377 163.577724,13.3098663 163.056187,14.4063 C163.004872,14.513014 162.876058,14.5590475 162.769238,14.5077829 C162.66137,14.4565184 162.61529,14.3278339 162.666606,14.2211199 C163.072944,13.3684543 162.441445,12.4435999 160.979467,11.7489128 C160.298746,11.4256323 159.500733,11.3544896 158.790689,11.5543168 C158.03666,11.7677447 157.580054,12.5450828 157.751805,13.3255595 C157.964399,14.2880777 157.682686,15.2861672 156.998824,15.9965475 L155.476105,17.5784252 C156.985209,17.7970842 157.747616,18.3536709 158.550866,18.9395515 C159.020039,19.2816639 159.504922,19.6352848 160.174122,19.9533342 C160.28199,20.0045988 160.32807,20.1332833 160.276754,20.2410435 C160.225438,20.3477575 160.096625,20.3937909 159.989804,20.3425264 C159.282902,20.0066912 158.782311,19.641562 158.297429,19.2879412 C157.43239,18.6570733 156.685692,18.1119951 154.9996,17.956109 C154.974466,17.9540166 154.950379,17.946693 154.927339,17.9362309 L154.927339,17.9362309 Z" id="Stroke-127" stroke="#80C1AC" stroke-width="1.16"></path>
                        <path d="M160.878196,16.4715293 L155.816779,14.0652338 C155.708911,14.0139693 155.662831,13.8852848 155.714147,13.7775246 C155.765463,13.6708106 155.894276,13.6247771 156.001097,13.6760417 L161.063562,16.0823372 C161.17143,16.1336017 161.216462,16.2622862 161.165146,16.3690002 C161.114878,16.4767604 160.986064,16.5227939 160.878196,16.4715293" id="Fill-129" fill="#80C1AC"></path>
                        <path d="M160.878196,16.4715293 L155.816779,14.0652338 C155.708911,14.0139693 155.662831,13.8852848 155.714147,13.7775246 C155.765463,13.6708106 155.894276,13.6247771 156.001097,13.6760417 L161.063562,16.0823372 C161.17143,16.1336017 161.216462,16.2622862 161.165146,16.3690002 C161.114878,16.4767604 160.986064,16.5227939 160.878196,16.4715293 L160.878196,16.4715293 Z" id="Stroke-131" stroke="#80C1AC" stroke-width="1.16"></path>
                        <path d="M204.442203,81.5718659 C204.392982,81.5969751 204.335382,81.6022061 204.280925,81.5854667 C204.201333,81.5603575 204.143733,81.4923535 204.132214,81.4107487 L203.752057,78.8098572 C203.629528,77.9770697 203.102755,77.2656432 202.342443,76.9046989 C201.413521,76.4652884 200.984144,75.3866403 201.363253,74.448185 C201.679526,73.6698008 202.299505,73.0023153 203.064006,72.617308 C204.752193,71.7677811 206.086405,71.907974 206.633075,72.9918532 C206.686486,73.0975209 206.643548,73.2272516 206.537774,73.2806086 C206.430954,73.3339656 206.301093,73.292117 206.247683,73.185403 C205.822494,72.3431996 204.705066,72.2741494 203.25775,73.0023153 C202.585408,73.3412891 202.039784,73.9271698 201.763307,74.6103484 C201.469026,75.3364219 201.80415,76.1733943 202.526761,76.5155067 C203.417981,76.9381778 204.035865,77.7730577 204.178293,78.7470842 L204.495613,80.9200737 C205.593144,79.8623499 206.50112,79.6018422 207.457271,79.3266876 C208.014414,79.1666166 208.591455,79.0002684 209.254372,78.6665257 C209.360146,78.6131687 209.490006,78.6560635 209.543417,78.7617313 C209.597874,78.8684452 209.554936,78.9981759 209.448116,79.0515329 C208.749592,79.4030613 208.1537,79.5746406 207.576658,79.7409889 C206.548247,80.0360217 205.659122,80.2912982 204.501897,81.5268786 C204.485141,81.5457105 204.464196,81.5603575 204.442203,81.5718659" id="Fill-133" fill="#80C1AC"></path>
                        <path d="M204.442203,81.5718659 C204.392982,81.5969751 204.335382,81.6022061 204.280925,81.5854667 C204.201333,81.5603575 204.143733,81.4923535 204.132214,81.4107487 L203.752057,78.8098572 C203.629528,77.9770697 203.102755,77.2656432 202.342443,76.9046989 C201.413521,76.4652884 200.984144,75.3866403 201.363253,74.448185 C201.679526,73.6698008 202.299505,73.0023153 203.064006,72.617308 C204.752193,71.7677811 206.086405,71.907974 206.633075,72.9918532 C206.686486,73.0975209 206.643548,73.2272516 206.537774,73.2806086 C206.430954,73.3339656 206.301093,73.292117 206.247683,73.185403 C205.822494,72.3431996 204.705066,72.2741494 203.25775,73.0023153 C202.585408,73.3412891 202.039784,73.9271698 201.763307,74.6103484 C201.469026,75.3364219 201.80415,76.1733943 202.526761,76.5155067 C203.417981,76.9381778 204.035865,77.7730577 204.178293,78.7470842 L204.495613,80.9200737 C205.593144,79.8623499 206.50112,79.6018422 207.457271,79.3266876 C208.014414,79.1666166 208.591455,79.0002684 209.254372,78.6665257 C209.360146,78.6131687 209.490006,78.6560635 209.543417,78.7617313 C209.597874,78.8684452 209.554936,78.9981759 209.448116,79.0515329 C208.749592,79.4030613 208.1537,79.5746406 207.576658,79.7409889 C206.548247,80.0360217 205.659122,80.2912982 204.501897,81.5268786 C204.485141,81.5457105 204.464196,81.5603575 204.442203,81.5718659 L204.442203,81.5718659 Z" id="Stroke-135" stroke="#80C1AC" stroke-width="1.16"></path>
                        <path d="M206.93144,75.976915 L201.925528,78.497248 C201.818707,78.550605 201.689894,78.5077102 201.635436,78.4020424 C201.582026,78.2953284 201.624963,78.1655977 201.731784,78.1122407 L206.737697,75.5919078 C206.84347,75.5385508 206.973331,75.5814456 207.026741,75.6881596 C207.080151,75.7938273 207.038261,75.923558 206.93144,75.976915" id="Fill-137" fill="#80C1AC"></path>
                        <path d="M206.93144,75.976915 L201.925528,78.497248 C201.818707,78.550605 201.689894,78.5077102 201.635436,78.4020424 C201.582026,78.2953284 201.624963,78.1655977 201.731784,78.1122407 L206.737697,75.5919078 C206.84347,75.5385508 206.973331,75.5814456 207.026741,75.6881596 C207.080151,75.7938273 207.038261,75.923558 206.93144,75.976915 L206.93144,75.976915 Z" id="Stroke-139" stroke="#80C1AC" stroke-width="1.16"></path>
                        <path d="M88.9254291,32.5258097 C88.9107675,32.5791667 88.8762078,32.6252001 88.8269865,32.6544942 C88.7557727,32.6963428 88.6667554,32.6942504 88.5976361,32.6482169 L86.4078112,31.1897926 C85.7071929,30.7242267 84.8253982,30.638437 84.0483298,30.9627638 C83.0995104,31.3582333 82.0093106,30.9554403 81.5663187,30.0462791 C81.1987298,29.2909116 81.1159961,28.3838428 81.3411574,27.5583788 C81.8386069,25.7369178 82.8356003,24.8392649 84.0074866,25.1583606 C84.1226854,25.1897471 84.1907574,25.3090156 84.1593396,25.4230531 C84.1279217,25.5381368 84.0085338,25.6061408 83.8943823,25.5747544 C82.982217,25.3268013 82.1842033,26.1104167 81.7579677,27.6713701 C81.5600352,28.3984898 81.631249,29.1946598 81.9538057,29.8579603 C82.2973076,30.5620633 83.1445426,30.8727893 83.8828624,30.565202 C84.7929331,30.186472 85.8265807,30.2858624 86.6476342,30.8319869 L88.4761537,32.0497817 C88.4237906,30.5275382 88.8374591,29.6790575 89.2720729,28.7855895 C89.5255103,28.263528 89.7883731,27.7247271 89.9831638,27.0091157 C90.0145817,26.8950782 90.1329223,26.8270742 90.2481211,26.8584607 C90.3633199,26.8898472 90.4303447,27.0080695 90.3999741,27.122107 C90.1936635,27.8764283 89.9224226,28.4340611 89.6595598,28.9739083 C89.1914337,29.9343341 88.7871906,30.7650291 88.9317127,32.4504822 C88.9348545,32.4766376 88.9317127,32.5017467 88.9254291,32.5258097" id="Fill-141" fill="#80C1AC"></path>
                        <path d="M88.9254291,32.5258097 C88.9107675,32.5791667 88.8762078,32.6252001 88.8269865,32.6544942 C88.7557727,32.6963428 88.6667554,32.6942504 88.5976361,32.6482169 L86.4078112,31.1897926 C85.7071929,30.7242267 84.8253982,30.638437 84.0483298,30.9627638 C83.0995104,31.3582333 82.0093106,30.9554403 81.5663187,30.0462791 C81.1987298,29.2909116 81.1159961,28.3838428 81.3411574,27.5583788 C81.8386069,25.7369178 82.8356003,24.8392649 84.0074866,25.1583606 C84.1226854,25.1897471 84.1907574,25.3090156 84.1593396,25.4230531 C84.1279217,25.5381368 84.0085338,25.6061408 83.8943823,25.5747544 C82.982217,25.3268013 82.1842033,26.1104167 81.7579677,27.6713701 C81.5600352,28.3984898 81.631249,29.1946598 81.9538057,29.8579603 C82.2973076,30.5620633 83.1445426,30.8727893 83.8828624,30.565202 C84.7929331,30.186472 85.8265807,30.2858624 86.6476342,30.8319869 L88.4761537,32.0497817 C88.4237906,30.5275382 88.8374591,29.6790575 89.2720729,28.7855895 C89.5255103,28.263528 89.7883731,27.7247271 89.9831638,27.0091157 C90.0145817,26.8950782 90.1329223,26.8270742 90.2481211,26.8584607 C90.3633199,26.8898472 90.4303447,27.0080695 90.3999741,27.122107 C90.1936635,27.8764283 89.9224226,28.4340611 89.6595598,28.9739083 C89.1914337,29.9343341 88.7871906,30.7650291 88.9317127,32.4504822 C88.9348545,32.4766376 88.9317127,32.5017467 88.9254291,32.5258097 L88.9254291,32.5258097 Z" id="Stroke-143" stroke="#80C1AC" stroke-width="1.16"></path>
                        <path d="M86.4284422,26.9343113 L84.9538973,32.338014 C84.9235267,32.4520515 84.8041388,32.5200555 84.6899872,32.488669 C84.5747884,32.4572826 84.5067164,32.3390602 84.5381343,32.2239765 L86.0126792,26.8213201 C86.0440971,26.7062364 86.1624377,26.6382324 86.2765892,26.6696188 C86.3917881,26.7010053 86.4598601,26.8192276 86.4284422,26.9343113" id="Fill-145" fill="#80C1AC"></path>
                        <path d="M86.4284422,26.9343113 L84.9538973,32.338014 C84.9235267,32.4520515 84.8041388,32.5200555 84.6899872,32.488669 C84.5747884,32.4572826 84.5067164,32.3390602 84.5381343,32.2239765 L86.0126792,26.8213201 C86.0440971,26.7062364 86.1624377,26.6382324 86.2765892,26.6696188 C86.3917881,26.7010053 86.4598601,26.8192276 86.4284422,26.9343113 L86.4284422,26.9343113 Z" id="Stroke-147" stroke="#80C1AC" stroke-width="1.16"></path>
                        <path d="M18.3481358,108.80025 C18.3072926,108.836868 18.2528349,108.856746 18.1952355,108.854653 C18.1125018,108.851515 18.0391935,108.801296 18.0067284,108.724923 L16.9615608,106.31235 C16.6274843,105.540243 15.9331495,104.989934 15.1047652,104.840325 C14.0931101,104.657237 13.3977281,103.727152 13.5202578,102.722785 C13.6218422,101.888951 14.0459833,101.083365 14.6848132,100.513178 C16.0923333,99.2535344 17.4171198,99.0421989 18.2277007,99.946129 C18.3072926,100.035057 18.2999617,100.171065 18.2109445,100.250578 C18.1219272,100.33009 17.9857831,100.32172 17.9061912,100.233838 C17.2767867,99.5297353 16.1792561,99.7546716 14.971763,100.834366 C14.4104305,101.335503 14.0376052,102.043791 13.9475407,102.775096 C13.8532871,103.552434 14.3947216,104.274322 15.1822626,104.416608 C16.1520273,104.592372 16.9657499,105.237887 17.3574259,106.141817 L18.2297952,108.156828 C19.0141945,106.850105 19.8226808,106.362568 20.6741048,105.848876 C21.170507,105.548613 21.6847127,105.238933 22.237667,104.744073 C22.3256371,104.664561 22.4628284,104.671884 22.541373,104.760812 C22.6209649,104.849741 22.6136341,104.985749 22.5246168,105.065261 C21.9423391,105.586276 21.4113773,105.906418 20.8971716,106.217144 C19.9808173,106.769546 19.1890872,107.247666 18.3942153,108.740616 C18.3826954,108.763633 18.3669865,108.783511 18.3481358,108.80025" id="Fill-149" fill="#80C1AC"></path>
                        <path d="M18.3481358,108.80025 C18.3072926,108.836868 18.2528349,108.856746 18.1952355,108.854653 C18.1125018,108.851515 18.0391935,108.801296 18.0067284,108.724923 L16.9615608,106.31235 C16.6274843,105.540243 15.9331495,104.989934 15.1047652,104.840325 C14.0931101,104.657237 13.3977281,103.727152 13.5202578,102.722785 C13.6218422,101.888951 14.0459833,101.083365 14.6848132,100.513178 C16.0923333,99.2535344 17.4171198,99.0421989 18.2277007,99.946129 C18.3072926,100.035057 18.2999617,100.171065 18.2109445,100.250578 C18.1219272,100.33009 17.9857831,100.32172 17.9061912,100.233838 C17.2767867,99.5297353 16.1792561,99.7546716 14.971763,100.834366 C14.4104305,101.335503 14.0376052,102.043791 13.9475407,102.775096 C13.8532871,103.552434 14.3947216,104.274322 15.1822626,104.416608 C16.1520273,104.592372 16.9657499,105.237887 17.3574259,106.141817 L18.2297952,108.156828 C19.0141945,106.850105 19.8226808,106.362568 20.6741048,105.848876 C21.170507,105.548613 21.6847127,105.238933 22.237667,104.744073 C22.3256371,104.664561 22.4628284,104.671884 22.541373,104.760812 C22.6209649,104.849741 22.6136341,104.985749 22.5246168,105.065261 C21.9423391,105.586276 21.4113773,105.906418 20.8971716,106.217144 C19.9808173,106.769546 19.1890872,107.247666 18.3942153,108.740616 C18.3826954,108.763633 18.3669865,108.783511 18.3481358,108.80025 L18.3481358,108.80025 Z" id="Stroke-151" stroke="#80C1AC" stroke-width="1.16"></path>
                        <path d="M19.2940229,102.750928 L15.1175418,106.485917 C15.0285246,106.565429 14.8923805,106.558106 14.8127886,106.469178 C14.7331967,106.380249 14.7405275,106.244241 14.8295448,106.164729 L19.0060258,102.42974 C19.0950431,102.350227 19.2311872,102.358597 19.3107791,102.446479 C19.390371,102.535408 19.3830402,102.671416 19.2940229,102.750928" id="Fill-153" fill="#80C1AC"></path>
                        <path d="M19.2940229,102.750928 L15.1175418,106.485917 C15.0285246,106.565429 14.8923805,106.558106 14.8127886,106.469178 C14.7331967,106.380249 14.7405275,106.244241 14.8295448,106.164729 L19.0060258,102.42974 C19.0950431,102.350227 19.2311872,102.358597 19.3107791,102.446479 C19.390371,102.535408 19.3830402,102.671416 19.2940229,102.750928 L19.2940229,102.750928 Z" id="Stroke-155" stroke="#80C1AC" stroke-width="1.16"></path>
                        <path d="M42.4084577,55.7831787 C42.3676145,55.7465611 42.3414329,55.6952966 42.3361966,55.6377547 C42.3309603,55.5551037 42.3728508,55.4766376 42.4440646,55.4358352 L44.7250014,54.123881 C45.4538957,53.7043486 45.9220219,52.9521197 45.9775268,52.1130549 C46.0445515,51.08881 46.889692,50.2915939 47.9023944,50.2989174 C48.7433458,50.3051947 49.5926753,50.6347525 50.2325525,51.2028475 C51.645309,52.4572598 52.0076616,53.7482897 51.2002226,54.6553584 C51.1206307,54.7442868 50.9844866,54.7526565 50.8954693,54.6731441 C50.8064521,54.5946779 50.798074,54.4576237 50.8776659,54.3686954 C51.5049758,53.6635462 51.1572848,52.6005913 49.9466499,51.5250819 C49.3832229,51.0249909 48.6365251,50.7351892 47.8992526,50.7299582 C47.1148533,50.7247271 46.4592673,51.3440866 46.4069042,52.1413028 C46.3430212,53.1247453 45.7942559,54.0056587 44.9396901,54.4973799 L43.0347204,55.5927675 C44.4233899,56.2225892 45.0004313,56.9685408 45.6088905,57.756341 C45.9639124,58.2145833 46.3304541,58.6885189 46.885503,59.1812864 C46.9745202,59.2607988 46.9818511,59.3968068 46.9033064,59.4857351 C46.8237145,59.5746634 46.6875704,59.5819869 46.5985532,59.5035207 C46.0141809,58.9845979 45.6350721,58.4939229 45.2674831,58.018941 C44.6139916,57.1725528 44.0484701,56.4412482 42.4723407,55.8229349 C42.4482537,55.8135189 42.4273084,55.7999181 42.4084577,55.7831787" id="Fill-157" fill="#80C1AC"></path>
                        <path d="M42.4084577,55.7831787 C42.3676145,55.7465611 42.3414329,55.6952966 42.3361966,55.6377547 C42.3309603,55.5551037 42.3728508,55.4766376 42.4440646,55.4358352 L44.7250014,54.123881 C45.4538957,53.7043486 45.9220219,52.9521197 45.9775268,52.1130549 C46.0445515,51.08881 46.889692,50.2915939 47.9023944,50.2989174 C48.7433458,50.3051947 49.5926753,50.6347525 50.2325525,51.2028475 C51.645309,52.4572598 52.0076616,53.7482897 51.2002226,54.6553584 C51.1206307,54.7442868 50.9844866,54.7526565 50.8954693,54.6731441 C50.8064521,54.5946779 50.798074,54.4576237 50.8776659,54.3686954 C51.5049758,53.6635462 51.1572848,52.6005913 49.9466499,51.5250819 C49.3832229,51.0249909 48.6365251,50.7351892 47.8992526,50.7299582 C47.1148533,50.7247271 46.4592673,51.3440866 46.4069042,52.1413028 C46.3430212,53.1247453 45.7942559,54.0056587 44.9396901,54.4973799 L43.0347204,55.5927675 C44.4233899,56.2225892 45.0004313,56.9685408 45.6088905,57.756341 C45.9639124,58.2145833 46.3304541,58.6885189 46.885503,59.1812864 C46.9745202,59.2607988 46.9818511,59.3968068 46.9033064,59.4857351 C46.8237145,59.5746634 46.6875704,59.5819869 46.5985532,59.5035207 C46.0141809,58.9845979 45.6350721,58.4939229 45.2674831,58.018941 C44.6139916,57.1725528 44.0484701,56.4412482 42.4723407,55.8229349 C42.4482537,55.8135189 42.4273084,55.7999181 42.4084577,55.7831787 L42.4084577,55.7831787 Z" id="Stroke-159" stroke="#80C1AC" stroke-width="1.16"></path>
                        <path d="M48.5321131,56.0329103 L44.3420176,52.3125682 C44.2530003,52.2341021 44.2446223,52.0970479 44.3242142,52.0091658 C44.4027588,51.9202374 44.5389029,51.9118677 44.6279202,51.9903339 L48.8180156,55.7106759 C48.9070329,55.7901883 48.915411,55.9261963 48.8368663,56.0151246 C48.7572744,56.1040529 48.6211303,56.1124227 48.5321131,56.0329103" id="Fill-161" fill="#80C1AC"></path>
                        <path d="M48.5321131,56.0329103 L44.3420176,52.3125682 C44.2530003,52.2341021 44.2446223,52.0970479 44.3242142,52.0091658 C44.4027588,51.9202374 44.5389029,51.9118677 44.6279202,51.9903339 L48.8180156,55.7106759 C48.9070329,55.7901883 48.915411,55.9261963 48.8368663,56.0151246 C48.7572744,56.1040529 48.6211303,56.1124227 48.5321131,56.0329103 L48.5321131,56.0329103 Z" id="Stroke-163" stroke="#80C1AC" stroke-width="1.16"></path>
                    </g>
                </g>
            </g>
        </g>
    </g>
</svg>