<?xml version="1.0" encoding="utf-8"?>
<!-- Generator: Adobe Illustrator 19.2.1, SVG Export Plug-In . SVG Version: 6.00 Build 0)  -->
<svg version="1.1" id="Layer_1" xmlns="http://www.w3.org/2000/svg" xmlns:xlink="http://www.w3.org/1999/xlink" x="0px" y="0px"
	 width="200px" height="200px" viewBox="0 0 200 200" style="enable-background:new 0 0 200 200;" xml:space="preserve">
<style type="text/css">
	.st0{fill:#E2E3E4;}
	.st1{fill:#595D62;}
	.st2{fill:#C7702A;}
	.st3{fill:#C9C7C7;}
	.st4{fill:#EA8824;}
	.st5{fill:none;stroke:#C9C7C7;stroke-width:0.75651;stroke-miterlimit:10;}
	.st6{fill-rule:evenodd;clip-rule:evenodd;fill:#444851;}
	.st7{fill-rule:evenodd;clip-rule:evenodd;fill:#D8D7D6;}
	.st8{fill:#FFFFFF;}
	.st9{fill:#2B2B35;}
	.st10{fill:#434850;}
	.st11{fill:#6C4396;}
	.st12{fill:#A4A4A4;}
	.st13{fill:#EA4C65;}
	.st14{fill:#94814F;}
	.st15{fill:#9C2023;}
	.st16{fill:#B7242C;}
	.st17{fill-rule:evenodd;clip-rule:evenodd;fill:#FFFFFF;}
	.st18{fill:#0C4F6E;}
	.st19{fill:#C18E46;}
	.st20{fill:#3180BF;}
	.st21{fill:#D94F4F;}
	.st22{fill:#2C2C2D;}
	.st23{fill:#595E63;}
	.st24{fill:#E3E2E2;}
	.st25{fill:#9D9EA0;}
	.st26{fill:none;stroke:#C8C6C6;stroke-width:0.75651;stroke-miterlimit:10;}
	.st27{fill:#2A2E35;}
	.st28{fill-rule:evenodd;clip-rule:evenodd;fill:#454751;}
	.st29{fill-rule:evenodd;clip-rule:evenodd;fill:#D8D7D5;}
	.st30{fill:#434851;}
	.st31{fill:#EC9424;}
	.st32{fill:#445AA4;}
	.st33{clip-path:url(#SVGID_2_);fill:#58C1C4;}
	.st34{fill:#B7DBDB;}
	.st35{fill:#58C1C4;}
	.st36{fill:none;stroke:#434851;stroke-width:1.51302;stroke-linecap:round;stroke-linejoin:round;stroke-miterlimit:10;}
	.st37{clip-path:url(#SVGID_4_);fill:#58C1C4;}
	.st38{fill:#010101;}
	.st39{fill:#161718;}
	.st40{fill-rule:evenodd;clip-rule:evenodd;fill:#010101;}
	.st41{fill:#272626;}
	.st42{fill:#17191A;}
	.st43{fill:#D4D5D4;}
	.st44{fill-rule:evenodd;clip-rule:evenodd;fill:#272626;}
	.st45{fill-rule:evenodd;clip-rule:evenodd;fill:#E2E3E4;}
	.st46{fill:#19244E;}
	.st47{fill:#E3E1E1;}
	.st48{fill:#8E1B27;}
	.st49{fill:#CA2033;}
	.st50{fill:#EFE0A7;}
	.st51{fill:none;stroke:#EFE0A7;stroke-width:0.09335;stroke-miterlimit:10;}
	.st52{fill:#EECA81;}
	.st53{fill:#F3F3F3;}
	.st54{fill:#A0A1A4;}
	.st55{fill:#EB6B6D;}
	.st56{fill:none;stroke:#CAC8C6;stroke-width:0.02289;stroke-miterlimit:10;}
	.st57{fill:#464951;}
	.st58{fill:#D7D6D6;}
	.st59{fill:#EECC82;}
	.st60{fill:#F0E0A9;}
	.st61{fill:none;stroke:#F0E0A9;stroke-width:0.01145;stroke-miterlimit:10;}
	.st62{fill:#5AC1C2;}
	.st63{clip-path:url(#SVGID_6_);fill:#E2E3E4;}
	.st64{fill:#EE7823;}
	.st65{fill:#D6563D;}
	.st66{fill:#70533D;}
	.st67{fill:#81BCA9;}
	.st68{clip-path:url(#SVGID_8_);fill:#E2E3E4;}
	.st69{fill:none;stroke:#EFE0A7;stroke-width:0.37825;stroke-miterlimit:10;}
	.st70{clip-path:url(#SVGID_10_);}
	.st71{clip-path:url(#SVGID_12_);fill:#E3E2E2;}
	.st72{clip-path:url(#SVGID_12_);}
	.st73{fill-rule:evenodd;clip-rule:evenodd;fill:#1AAEA1;}
	.st74{fill-rule:evenodd;clip-rule:evenodd;fill:#0C8C70;}
	.st75{fill:#1AAEA1;}
	.st76{fill:#6F513B;}
	.st77{fill:#515050;}
	.st78{fill:#D4563A;}
	.st79{fill:none;}
	.st80{clip-path:url(#SVGID_14_);}
	.st81{clip-path:url(#SVGID_16_);fill:#E3E2E2;}
	.st82{clip-path:url(#SVGID_16_);}
	.st83{fill:#EEE3A3;}
	.st84{fill:none;stroke:#F0E0A9;stroke-width:0.37825;stroke-miterlimit:10;}
	.st85{clip-path:url(#SVGID_18_);}
	.st86{fill-rule:evenodd;clip-rule:evenodd;fill:#434850;}
	.st87{clip-path:url(#SVGID_20_);}
	.st88{fill:none;stroke:#E4CC21;stroke-width:1.92135;stroke-miterlimit:10;}
	.st89{fill:none;stroke:#FFFFFF;stroke-width:2.2037;stroke-miterlimit:10;}
	.st90{fill:#E4CC21;}
	.st91{fill:#232244;}
	.st92{fill:#C8C6C6;}
	.st93{fill:#542F19;}
	.st94{fill-rule:evenodd;clip-rule:evenodd;fill:#3D2E21;}
	.st95{fill:#3D2E21;}
	.st96{fill-rule:evenodd;clip-rule:evenodd;fill:#232244;}
	.st97{fill-rule:evenodd;clip-rule:evenodd;fill:#2E3280;}
	.st98{fill:#281911;}
	.st99{fill-rule:evenodd;clip-rule:evenodd;fill:#E4CC21;}
	.st100{fill-rule:evenodd;clip-rule:evenodd;fill:#D85127;}
	.st101{clip-path:url(#SVGID_22_);}
	.st102{fill-rule:evenodd;clip-rule:evenodd;fill:#EE7434;}
	.st103{fill:#17733B;}
	.st104{clip-path:url(#SVGID_24_);}
	.st105{fill:#1D73B6;}
	.st106{fill:#115E8E;}
	.st107{clip-path:url(#SVGID_26_);}
	.st108{fill:none;stroke:#FFFFFF;stroke-width:1.49993;stroke-miterlimit:10;}
	.st109{fill:none;stroke:#CAC8C6;stroke-width:0.024;stroke-miterlimit:10;}
	.st110{clip-path:url(#SVGID_28_);fill:#E2E3E4;}
	.st111{fill:#603A17;}
	.st112{fill:#78471F;}
	.st113{fill:#F8FAFD;}
	.st114{clip-path:url(#SVGID_30_);}
	.st115{clip-path:url(#SVGID_32_);}
	.st116{fill:none;stroke:#FFFFFF;stroke-width:0.49998;stroke-miterlimit:10;}
	.st117{fill:none;stroke:#FFFFFF;stroke-width:0.74997;stroke-miterlimit:10;}
	.st118{clip-path:url(#SVGID_34_);}
	.st119{clip-path:url(#SVGID_36_);}
	.st120{clip-path:url(#SVGID_38_);fill:#E2E3E4;}
	.st121{clip-path:url(#SVGID_40_);}
	.st122{clip-path:url(#SVGID_42_);}
	.st123{clip-path:url(#SVGID_44_);}
	.st124{opacity:0.7;fill:#434850;}
	.st125{fill:#5B3287;}
	.st126{fill:#643E1E;}
	.st127{fill:#C8D6DE;}
	.st128{fill:none;stroke:#CAC7C6;stroke-width:0.75651;stroke-miterlimit:10;}
	.st129{fill:#B6C3CE;}
	.st130{fill:#273980;}
	.st131{fill:#2B2C35;}
	.st132{clip-path:url(#SVGID_46_);fill:#FFFFFF;stroke:#5A3B84;stroke-width:4.53905;stroke-miterlimit:10;}
	.st133{fill:#C8C7C9;}
	.st134{fill:#056F43;}
	.st135{clip-path:url(#SVGID_48_);}
	.st136{fill:#EBEDF1;}
	.st137{fill:#CF2B29;}
	.st138{fill-rule:evenodd;clip-rule:evenodd;fill:#273980;}
	.st139{fill:#D6232A;}
	.st140{clip-path:url(#SVGID_52_);fill:#FFFFFF;stroke:#5A3B84;stroke-width:4.53905;stroke-miterlimit:10;}
	.st141{clip-path:url(#SVGID_54_);}
	.st142{fill:#532D17;}
	.st143{fill:none;stroke:#5E1116;stroke-width:0.95369;stroke-miterlimit:10;}
	.st144{fill-rule:evenodd;clip-rule:evenodd;fill:#5E1116;}
	.st145{fill:none;stroke:#5E1116;stroke-width:0.94639;stroke-miterlimit:10;}
	.st146{fill:#291B13;}
	.st147{fill-rule:evenodd;clip-rule:evenodd;fill:#291B13;}
	.st148{fill-rule:evenodd;clip-rule:evenodd;fill:#454850;}
	.st149{fill-rule:evenodd;clip-rule:evenodd;fill:#74441F;}
	.st150{fill:#7F161B;}
	.st151{fill-rule:evenodd;clip-rule:evenodd;fill:#7F161B;}
	.st152{fill:none;stroke:#5E1116;stroke-width:1.04342;stroke-miterlimit:10;}
	.st153{fill:#E4E0E4;}
	.st154{clip-path:url(#SVGID_58_);fill:#E1244D;}
	.st155{clip-path:url(#SVGID_60_);fill:#E1244D;}
	.st156{fill:#292933;}
	.st157{fill:none;stroke:#CAC8C6;stroke-width:0.02378;stroke-miterlimit:10;}
	.st158{fill:none;stroke:#F0E0A9;stroke-width:0.01189;stroke-miterlimit:10;}
	.st159{clip-path:url(#SVGID_62_);fill:#E2E3E4;}
	.st160{fill:#2F465D;}
	.st161{fill:#432F21;}
	.st162{fill-rule:evenodd;clip-rule:evenodd;fill:#3D5F7C;}
	.st163{fill-rule:evenodd;clip-rule:evenodd;fill:#2F465D;}
	.st164{clip-path:url(#SVGID_64_);fill:#2C2C2D;}
	.st165{clip-path:url(#SVGID_66_);fill:#F8B917;}
	.st166{clip-path:url(#SVGID_66_);fill:#1F4394;}
	.st167{clip-path:url(#SVGID_68_);fill:#E8212F;}
	.st168{clip-path:url(#SVGID_68_);fill:#C9C8C8;}
	.st169{clip-path:url(#SVGID_68_);fill:#2A2E35;}
	.st170{clip-path:url(#SVGID_68_);fill:#444750;}
	.st171{clip-path:url(#SVGID_68_);fill:#D7D7D6;}
	.st172{clip-path:url(#SVGID_68_);fill:#E3E2E2;}
	.st173{clip-path:url(#SVGID_68_);fill:#FFFFFF;}
	.st174{clip-path:url(#SVGID_68_);fill:#2B2D34;}
	.st175{clip-path:url(#SVGID_68_);fill:#B9252D;}
	.st176{clip-path:url(#SVGID_68_);fill:#24345B;}
	.st177{clip-path:url(#SVGID_68_);fill:#F7F6F8;}
	.st178{clip-path:url(#SVGID_70_);fill:#1F4394;}
	.st179{clip-path:url(#SVGID_70_);fill:#F8B917;}
	.st180{clip-path:url(#SVGID_70_);fill:#883D1E;}
	.st181{clip-path:url(#SVGID_70_);fill:#F5D07C;}
	.st182{clip-path:url(#SVGID_72_);fill:#E8212F;}
	.st183{clip-path:url(#SVGID_72_);fill:#E3E2E2;}
	.st184{clip-path:url(#SVGID_72_);fill:#F7F6F8;}
	.st185{clip-path:url(#SVGID_72_);fill:#F8B917;}
	.st186{clip-path:url(#SVGID_72_);fill:#888983;}
	.st187{clip-path:url(#SVGID_74_);fill:#888983;}
	.st188{clip-path:url(#SVGID_74_);fill:#624219;}
	.st189{clip-path:url(#SVGID_76_);fill:#E3E2E2;}
	.st190{clip-path:url(#SVGID_76_);fill:#2C2C2D;}
	.st191{clip-path:url(#SVGID_76_);fill:#888983;}
	.st192{clip-path:url(#SVGID_78_);fill:#F8B917;}
	.st193{clip-path:url(#SVGID_78_);fill:#1F4394;}
	.st194{clip-path:url(#SVGID_80_);fill:#E8212F;}
	.st195{clip-path:url(#SVGID_80_);fill:#C9C8C8;}
	.st196{clip-path:url(#SVGID_80_);fill:#2A2E35;}
	.st197{clip-path:url(#SVGID_80_);fill:#444750;}
	.st198{clip-path:url(#SVGID_80_);fill:#D7D7D6;}
	.st199{clip-path:url(#SVGID_80_);fill:#E3E2E2;}
	.st200{clip-path:url(#SVGID_80_);fill:#FFFFFF;}
	.st201{clip-path:url(#SVGID_80_);fill:#2B2D34;}
	.st202{clip-path:url(#SVGID_80_);fill:#B9252D;}
	.st203{clip-path:url(#SVGID_80_);fill:#24345B;}
	.st204{clip-path:url(#SVGID_80_);fill:#F7F6F8;}
	.st205{clip-path:url(#SVGID_82_);fill:#1F4394;}
	.st206{clip-path:url(#SVGID_82_);fill:#F8B917;}
	.st207{clip-path:url(#SVGID_82_);fill:#883D1E;}
	.st208{clip-path:url(#SVGID_82_);fill:#F5D07C;}
	.st209{clip-path:url(#SVGID_84_);fill:#E8212F;}
	.st210{clip-path:url(#SVGID_84_);fill:#E3E2E2;}
	.st211{clip-path:url(#SVGID_84_);fill:#F7F6F8;}
	.st212{clip-path:url(#SVGID_84_);fill:#F8B917;}
	.st213{clip-path:url(#SVGID_84_);fill:#888983;}
	.st214{clip-path:url(#SVGID_86_);fill:#888983;}
	.st215{clip-path:url(#SVGID_86_);fill:#624219;}
	.st216{clip-path:url(#SVGID_88_);fill:#E3E2E2;}
	.st217{clip-path:url(#SVGID_88_);fill:#2C2C2D;}
	.st218{clip-path:url(#SVGID_90_);fill:#2C2C2D;}
	.st219{clip-path:url(#SVGID_92_);fill:#F8B917;}
	.st220{clip-path:url(#SVGID_92_);fill:#1F4394;}
	.st221{clip-path:url(#SVGID_94_);fill:#E8212F;}
	.st222{clip-path:url(#SVGID_94_);fill:#C9C8C8;}
	.st223{clip-path:url(#SVGID_94_);fill:#2A2E35;}
	.st224{clip-path:url(#SVGID_94_);fill:#444750;}
	.st225{clip-path:url(#SVGID_94_);fill:#D7D7D6;}
	.st226{clip-path:url(#SVGID_94_);fill:#E3E2E2;}
	.st227{clip-path:url(#SVGID_94_);fill:#FFFFFF;}
	.st228{clip-path:url(#SVGID_94_);fill:#2B2D34;}
	.st229{clip-path:url(#SVGID_94_);fill:#B9252D;}
	.st230{clip-path:url(#SVGID_94_);fill:#24345B;}
	.st231{clip-path:url(#SVGID_94_);fill:#F7F6F8;}
	.st232{clip-path:url(#SVGID_96_);fill:#1F4394;}
	.st233{clip-path:url(#SVGID_96_);fill:#F8B917;}
	.st234{clip-path:url(#SVGID_96_);fill:#883D1E;}
	.st235{clip-path:url(#SVGID_96_);fill:#F5D07C;}
	.st236{clip-path:url(#SVGID_98_);fill:#E8212F;}
	.st237{clip-path:url(#SVGID_98_);fill:#E3E2E2;}
	.st238{clip-path:url(#SVGID_98_);fill:#F7F6F8;}
	.st239{clip-path:url(#SVGID_98_);fill:#F8B917;}
	.st240{clip-path:url(#SVGID_98_);fill:#888983;}
	.st241{clip-path:url(#SVGID_100_);fill:#888983;}
	.st242{clip-path:url(#SVGID_100_);fill:#624219;}
	.st243{clip-path:url(#SVGID_102_);fill:#E3E2E2;}
	.st244{clip-path:url(#SVGID_102_);fill:#2C2C2D;}
	.st245{clip-path:url(#SVGID_102_);fill:#888983;}
	.st246{clip-path:url(#SVGID_104_);fill:#F8B917;}
	.st247{clip-path:url(#SVGID_104_);fill:#1F4394;}
	.st248{clip-path:url(#SVGID_106_);fill:#E8212F;}
	.st249{clip-path:url(#SVGID_106_);fill:#C9C8C8;}
	.st250{clip-path:url(#SVGID_106_);fill:#2A2E35;}
	.st251{clip-path:url(#SVGID_106_);fill:#444750;}
	.st252{clip-path:url(#SVGID_106_);fill:#D7D7D6;}
	.st253{clip-path:url(#SVGID_106_);fill:#E3E2E2;}
	.st254{clip-path:url(#SVGID_106_);fill:#FFFFFF;}
	.st255{clip-path:url(#SVGID_106_);fill:#2B2D34;}
	.st256{clip-path:url(#SVGID_106_);fill:#B9252D;}
	.st257{clip-path:url(#SVGID_106_);fill:#24345B;}
	.st258{clip-path:url(#SVGID_106_);fill:#F7F6F8;}
	.st259{clip-path:url(#SVGID_108_);fill:#1F4394;}
	.st260{clip-path:url(#SVGID_108_);fill:#F8B917;}
	.st261{clip-path:url(#SVGID_108_);fill:#883D1E;}
	.st262{clip-path:url(#SVGID_108_);fill:#F5D07C;}
	.st263{clip-path:url(#SVGID_110_);fill:#E8212F;}
	.st264{clip-path:url(#SVGID_110_);fill:#E3E2E2;}
	.st265{clip-path:url(#SVGID_110_);fill:#F7F6F8;}
	.st266{clip-path:url(#SVGID_110_);fill:#F8B917;}
	.st267{clip-path:url(#SVGID_110_);fill:#888983;}
	.st268{clip-path:url(#SVGID_112_);fill:#888983;}
	.st269{clip-path:url(#SVGID_112_);fill:#624219;}
	.st270{clip-path:url(#SVGID_114_);fill:#E3E2E2;}
	.st271{clip-path:url(#SVGID_114_);fill:#2C2C2D;}
	.st272{fill:#EDE2A3;}
	.st273{clip-path:url(#SVGID_116_);}
	.st274{fill-rule:evenodd;clip-rule:evenodd;fill:#434851;}
	.st275{fill-rule:evenodd;clip-rule:evenodd;fill:#E3E2E2;}
	.st276{fill:#2A2B2A;}
	.st277{clip-path:url(#SVGID_118_);}
	.st278{clip-path:url(#SVGID_120_);}
	.st279{clip-path:url(#SVGID_122_);}
	.st280{fill:#1F3566;}
	.st281{fill:#E3E4E5;}
	.st282{fill:#4BB1E4;}
	.st283{fill:#2D2A6C;}
	.st284{fill-rule:evenodd;clip-rule:evenodd;fill:#D8D9D5;}
	.st285{fill:#434852;}
	.st286{fill:#E3E3E3;}
	.st287{fill:#162E54;}
	.st288{fill:none;stroke:#335DAB;stroke-width:1.68786;stroke-miterlimit:10;}
	.st289{fill:#81817F;}
	.st290{fill:#142B49;}
	.st291{fill:#5A5A5A;}
	.st292{fill:none;stroke:#FFFFFF;stroke-width:0.84393;stroke-linecap:round;stroke-linejoin:round;stroke-miterlimit:10;}
	.st293{fill:#AB9D9C;}
	.st294{fill:#EA6689;}
	.st295{fill:#CE1D5B;}
	.st296{fill:#BF742A;}
	.st297{fill:#273449;}
	.st298{fill:#A4464B;}
	.st299{fill:none;stroke:#CAC8C6;stroke-width:0.0662;stroke-miterlimit:10;}
	.st300{fill:#80333A;}
	.st301{fill:none;stroke:#B4B4B4;stroke-width:0.25748;stroke-miterlimit:10;}
	.st302{fill:none;stroke:#B4B4B4;stroke-width:3.08973;stroke-miterlimit:10;}
	.st303{fill:none;stroke:#B4B4B4;stroke-width:1.02991;stroke-miterlimit:10;}
	.st304{fill:none;stroke:#82858B;stroke-width:0.51495;stroke-miterlimit:10;}
	.st305{fill:none;stroke:#E2E3E4;stroke-width:1.02991;stroke-miterlimit:10;}
	.st306{fill:#E5E5E5;}
	.st307{fill:#2D2C2D;}
	.st308{fill:#4CB2E5;}
	.st309{fill:#AD2824;}
	.st310{fill-rule:evenodd;clip-rule:evenodd;fill:#D9D9D6;}
	.st311{fill:#E4E4E3;}
	.st312{fill:#DB4826;}
	.st313{fill:#B33725;}
	.st314{fill:#120C0D;}
	.st315{fill:#F3F0F0;}
	.st316{fill:#C4BFBF;}
	.st317{clip-path:url(#SVGID_124_);fill:none;stroke:#F3F0F0;stroke-width:1.10165;stroke-linecap:round;stroke-miterlimit:10;}
	.st318{clip-path:url(#SVGID_126_);fill:none;stroke:#F3F0F0;stroke-width:1.10165;stroke-linecap:round;stroke-miterlimit:10;}
	.st319{clip-path:url(#SVGID_128_);fill:none;stroke:#F3F0F0;stroke-width:1.10165;stroke-linecap:round;stroke-miterlimit:10;}
	.st320{fill:#DE5B2A;}
	.st321{fill:#7A2716;}
	.st322{fill:#E5E4E4;}
	.st323{fill:#BB4928;}
	.st324{fill:#454545;}
	.st325{fill:#6265AE;}
	.st326{fill:none;stroke:#CAC5C4;stroke-width:0.55083;stroke-linecap:round;stroke-miterlimit:10;}
	.st327{fill:#E1E3E3;}
	.st328{fill:#484848;}
	.st329{fill:#422F90;}
	.st330{fill:#D57A28;}
	.st331{fill:#B4B4B5;}
	.st332{fill:#4B4B4D;}
	.st333{fill:#949393;}
	.st334{fill:#040404;}
	.st335{clip-path:url(#SVGID_130_);fill:none;stroke:#F3F0F0;stroke-width:1.10165;stroke-linecap:round;stroke-miterlimit:10;}
	.st336{clip-path:url(#SVGID_132_);fill:none;stroke:#F3F0F0;stroke-width:1.10165;stroke-linecap:round;stroke-miterlimit:10;}
	.st337{clip-path:url(#SVGID_134_);fill:none;stroke:#F3F0F0;stroke-width:1.10165;stroke-linecap:round;stroke-miterlimit:10;}
	.st338{clip-path:url(#SVGID_140_);fill:#AD2824;}
	.st339{fill:#CDCCCC;}
	.st340{fill:#E4E5E6;}
	.st341{opacity:0.72;fill:none;stroke:#FFFFFF;stroke-width:1.1546;stroke-linecap:round;stroke-miterlimit:10;}
	.st342{fill:#BBD867;}
	.st343{fill:none;stroke:#BBD867;stroke-width:5.799;stroke-miterlimit:10;}
	.st344{clip-path:url(#SVGID_146_);fill:#AD2824;}
	.st345{fill:none;stroke:#AE4E85;stroke-width:1.54066;stroke-linecap:round;stroke-linejoin:round;stroke-miterlimit:10;}
	.st346{fill:none;stroke:#E97625;stroke-width:1.62274;stroke-linecap:round;stroke-linejoin:round;stroke-miterlimit:10;}
	.st347{fill:none;stroke:#C9C7C7;stroke-width:0.23348;stroke-miterlimit:10;}
	.st348{fill:#981E5C;}
	.st349{fill:none;stroke:#AE4E85;stroke-width:1.21706;stroke-linecap:round;stroke-linejoin:round;stroke-miterlimit:10;}
	.st350{fill:#AE4E85;}
	.st351{fill:#F7B456;}
	.st352{fill:#E97625;}
	.st353{fill:none;stroke:#E97625;stroke-width:1.54273;stroke-linecap:round;stroke-linejoin:round;stroke-miterlimit:10;}
</style>
<g>
	<path class="st23" d="M119.15098,176.45204l-0.11078,0.00964c12.35107-6.46762,20.73785-19.08755,20.73785-33.59636
		c0-21.09818-17.74326-38.20541-39.62914-38.20541c-21.88544,0-39.62735,17.10724-39.62735,38.20541
		c0,14.5088,8.3854,27.12874,20.7351,33.59636l-0.09927-0.00598c6.00803,3.45923,10.35423,9.3096,11.64567,16.18623
		c0.26102-0.14064,1.48897-0.71924,3.11863,0.0294v-11.81798c1.39071,0.14386,2.7993,0.22063,4.22721,0.22063
		c1.42787,0,2.83744-0.07677,4.22989-0.22063v11.81798c1.65128-0.76012,2.89076-0.15439,3.12606-0.02112
		C108.79488,185.7653,113.14382,179.91493,119.15098,176.45204z"/>
	<g>
		<path class="st24" d="M3.99747,112.60136c-2.17977-7.30769-1.33736-11.97653-1.33736-11.97653s5.92024,11.96231,10.11338,12.57034
			c0,0-10.27886-10.49032-9.38452-18.61832c0,0,5.19138,9.37163,9.10697,10.65159c0,0-9.36572-8.21953-6.99061-19.06365
			c0,0,4.19592,11.50408,8.38678,11.92458c0,0-7.12802-8.49664-6.49701-16.34109c0,0,28.86178,39.48993,68.78876,4.09801
			l-0.80331,33.52695l-19.01768,24.18835c0,0-28.16829,10.40572-45.99017-17.73363
			c-0.01106-0.01931-0.02114-0.03675-0.03634-0.05515c-3.11911-4.67156-5.01627-8.95619-6.16609-12.61535
			c-0.08274-0.22151-0.16778-0.43383-0.25141-0.66407C3.91887,112.49339,3.94741,112.53429,3.99747,112.60136z"/>
		<path class="st25" d="M39.34435,120.83423c0-7.75489-2.00932-15.03458-5.52594-21.35786
			c11.43282,2.80666,25.9683,0.90678,42.36546-13.63009l0.61128,33.56785l-20.43227,24.14746c0,0-10.94482,4.03693-23.50043,0.27347
			C36.96877,137.1427,39.34435,129.26556,39.34435,120.83423z"/>
	</g>
	<g>
		<path class="st24" d="M196.00253,112.60136c2.17975-7.30769,1.33737-11.97653,1.33737-11.97653
			s-5.92027,11.96231-10.11253,12.57034c0,0,10.27888-10.49032,9.38499-18.61832c0,0-5.19273,9.37163-9.10738,10.65159
			c0,0,9.36476-8.21953,6.98965-19.06365c0,0-4.19453,11.50408-8.38678,11.92458c0,0,7.12891-8.49664,6.49745-16.34109
			c0,0-28.86223,39.48993-68.78828,4.09801l0.80287,33.52695l19.01814,24.18835c0,0,28.16692,10.40572,45.98878-17.73363
			c0.01105-0.01931,0.02252-0.03675,0.0363-0.05515c3.11961-4.67156,5.01671-8.95619,6.16568-12.61535
			c0.08638-0.22151,0.16867-0.43383,0.25322-0.66407C196.08203,112.49339,196.05307,112.53429,196.00253,112.60136z"/>
		<path class="st25" d="M160.65567,120.83423c0-7.75489,2.00928-15.03458,5.52594-21.35786
			c-11.43286,2.80666-25.96875,0.90678-42.36458-13.63009l-0.61123,33.56785l20.43224,24.14746
			c0,0,10.94479,4.03693,23.50084,0.27347C163.03166,137.1427,160.65567,129.26556,160.65567,120.83423z"/>
	</g>
	<ellipse class="st26" cx="100.14891" cy="107.07327" rx="26.06251" ry="26.15649"/>
	<path class="st24" d="M81.92719,64.0408c-0.30975,2.43484-1.78406,0.29411-2.56857,2.87098
		c-2.18112,7.15469-5.46251,19.38994-13.00875,26.66409c0,0,6.92396,27.11357,33.72964,27.11357
		c26.80521,0,33.73147-27.11357,33.73147-27.11357c-7.23329-6.97269-10.56979-19.49976-12.8695-26.52715
		c-0.96375-2.94171-2.51711-0.75417-2.86362-3.46564"/>
	<path class="st27" d="M100.07951,77.42274c-26.29967,0-47.6258,23.90433-47.6258,53.39254
		c0,18.19366,8.12207,34.2457,20.51363,43.88666c25.00548-9.62854,27.11217-36.77425,27.11217-36.77425
		c3.75887,25.22879,19.12614,34.09033,26.84699,36.99257c12.54642-9.6171,20.78064-25.77896,20.78064-44.10498
		C147.70714,101.32706,126.38467,77.42274,100.07951,77.42274z"/>
	<path class="st24" d="M100.07951,76.52426c-26.29967,0-47.6258,24.12543-47.6258,53.88522
		c0,18.36229,8.12207,34.56189,20.51363,44.28926c25.00548-9.7159,27.11217-37.11166,27.11217-37.11166
		c3.75887,25.46236,19.12614,34.40338,26.84699,37.33318c12.54642-9.70575,20.78064-26.01656,20.78064-44.51077
		C147.70714,100.6497,126.38467,76.52426,100.07951,76.52426z"/>
	<g>
		<ellipse class="st28" cx="100.49692" cy="74.23212" rx="2.28292" ry="2.29237"/>
		<ellipse class="st29" cx="100.49622" cy="74.23143" rx="0.53563" ry="0.53816"/>
	</g>
	<g>
		<ellipse class="st28" cx="100.49692" cy="87.27947" rx="2.28292" ry="2.29098"/>
		<ellipse class="st29" cx="100.49622" cy="87.27948" rx="0.53563" ry="0.53817"/>
	</g>
	<path class="st24" d="M121.44836,32.5438c0.2992-6.04343-0.12132-12.58912-2.48398-17.09482
		c-1.22067-3.51021-5.20561-5.68172-9.24664-7.0108c1.12183-0.62459,2.55614-0.52896,2.55614-0.52896
		c-4.30856-2.91051-7.30956-2.21425-10.11253-1.18392c-0.87274-0.12313-1.57217-0.19942-2.01707-0.24263
		c2.01021-1.15769,4.2511-1.95272,4.2511-1.95272c-6.68224-1.64161-12.39108,2.01337-14.88155,3.99919
		c-3.94587,1.33783-7.77828,3.49096-8.96906,6.91984c-2.36405,4.5057-2.78499,11.05139-2.48586,17.09482
		c-0.2808,5.68447-0.04226,9.99622,1.19583,14.23306c3.36224,7.96351,1.76888,13.94995,0.10385,20.13491l20.79029,36.76369v0.1347
		l20.79256-36.76145c-1.42702-5.65319-4.57047-12.69528-0.78218-20.33942C121.46764,42.53452,121.68964,37.3804,121.44836,32.5438z"
		/>
	<g>
		<path class="st8" d="M93.60916,28.70178c0.06248,1.90355-1.94083,3.50332-4.47075,3.59203
			c-2.52721,0.08274-4.63208-1.37967-4.69595-3.28642c-0.0616-1.89533,1.93938-3.50426,4.46661-3.58972
			C91.43996,25.33677,93.5434,26.80143,93.60916,28.70178z"/>
		<path class="st9" d="M91.11042,28.46691c0.16039,1.16549-0.64292,2.24459-1.8075,2.40634
			c-1.16224,0.16684-2.23997-0.66543-2.39806-1.8185c-0.15628-1.16733,0.64798-2.23678,1.81348-2.40545
			C89.87922,26.4944,90.95189,27.30511,91.11042,28.46691z"/>
	</g>
	<g>
		<path class="st8" d="M115.21699,28.70178c0.0639,1.90355-1.93989,3.50332-4.47122,3.59203
			c-2.52583,0.08274-4.63067-1.37967-4.69409-3.28642c-0.06248-1.89533,1.93894-3.50426,4.46619-3.58972
			C113.04825,25.33677,115.1522,26.80143,115.21699,28.70178z"/>
		<path class="st9" d="M112.71827,28.46691c0.16131,1.16549-0.64336,2.24459-1.80655,2.40634
			c-1.16322,0.16684-2.24001-0.66543-2.39809-1.8185c-0.15764-1.16733,0.64798-2.23678,1.81256-2.40545
			C111.48801,26.4944,112.56113,27.30511,112.71827,28.46691z"/>
	</g>
	<path class="st30" d="M99.73341,33.45884c-2.27117,3.83652-6.99061,4.8793-6.99061,4.8793
		c3.71111,2.33832,7.41394,9.45393,7.41394,9.45393s3.55019-7.1156,7.26082-9.45393
		C107.41756,38.33813,102.00097,37.29535,99.73341,33.45884z"/>
	<g>
		<path class="st24" d="M112.3998,114.1529c0,0-5.92071,11.9655-10.11343,12.5717c0,0,10.27885-10.49257,9.38547-18.61744
			c0,0-5.19274,9.37122-9.10603,10.65118c0,0,9.36477-8.22092,6.98694-19.06461c0,0-4.19225,11.50639-8.38542,11.92464
			c0,0,7.12755-8.49802,6.49748-16.33929c0,0-10.02289,13.70449-26.42561,17.73038
			c-3.51438,6.32288-5.52453,13.59795-5.52453,21.35329c0,8.42859,2.37274,16.30069,6.47865,22.98976
			c7.59953-2.27533,15.78455-7.40143,22.49252-17.99556c0.01147-0.01839,0.02206-0.03584,0.03628-0.05515
			c3.11775-4.67068,5.01721-8.95528,6.16751-12.6126c0.08321-0.22429,0.16589-0.43889,0.2523-0.66685
			c0,0-0.02895,0.03954-0.07996,0.11077C113.2399,118.82401,112.3998,114.1529,112.3998,114.1529z"/>
	</g>
	<path class="st31" d="M79.25752,14.8883c0,0,21.03983-6.72175,40.57177,0c0,0,2.07541,3.97902,2.4537,7.19834
		c0,0-20.47595-5.01949-45.19696,0C77.08604,22.08664,77.46472,19.43445,79.25752,14.8883z"/>
	<path class="st32" d="M77.81353,19.05804c0,0,22.7706-5.72631,43.75433,0l0.17233,0.5501c0,0-19.80815-5.26351-44.10403,0.07443
		L77.81353,19.05804z"/>
	<g>
		<defs>
			<path id="SVGID_3_" d="M130.86095,89.601c-5.10086-7.11238-7.76778-16.90959-9.7021-22.81835
				c-0.96235-2.9413-2.51803-0.75465-2.86314-3.46523l-36.1502,0.45684c-0.31069,2.43576-1.78455,0.29594-2.5695,2.87095
				c-1.83462,6.02093-4.46063,15.6311-9.7393,22.86389c-10.4889,9.79263-17.16562,24.54179-17.16562,41.04146
				c0,18.19183,8.12254,34.24754,20.5141,43.88531c25.00729-9.62857,46.23832-2.68256,53.95917,0.21872
				c12.54548-9.61613,20.78106-25.77893,20.78106-44.10403C147.9254,114.10236,141.29005,99.39501,130.86095,89.601z"/>
		</defs>
		<clipPath id="SVGID_2_">
			<use xlink:href="#SVGID_3_"  style="overflow:visible;"/>
		</clipPath>
		<path class="st33" d="M76.18387,72.65371c0,0,1.14391,22.62537,23.55921,22.62537c22.4167,0,26.46834-23.33956,26.46834-23.33956
			l5.00616,11.08176c0,0,0.19901,50.91816,15.80942,61.46635c0,0-1.65678,38.95869-21.89469,33.13446
			c0,0-35.66533,6.14729-55.33882,2.43346L52.4537,149.49747l1.77122-5.11369c0,0,20.09765-20.15975,16.27631-62.63551
			L76.18387,72.65371z"/>
	</g>
	<ellipse class="st34" cx="100.59296" cy="123.22044" rx="17.32711" ry="17.39011"/>
	<path class="st35" d="M124.20766,25.22183c0,0-1.08045,6.82244,3.87788,6.10733
		C128.08554,31.32916,131.33751,27.35981,124.20766,25.22183z"/>
	<path class="st35" d="M133.60507,25.81839c0,0-1.08003,6.82058,3.8779,6.1055
		C137.48297,31.92389,140.73489,27.95498,133.60507,25.81839z"/>
	<path class="st35" d="M81.29804,58.70103c0,0-3.93996,3.9477-0.35662,5.84534
		C80.94142,64.54637,84.94983,63.5017,81.29804,58.70103z"/>
	<path class="st35" d="M87.60249,53.96415c0,0-3.93948,3.94824-0.35662,5.84534
		C87.24587,59.80948,91.25336,58.76582,87.60249,53.96415z"/>
	<path class="st35" d="M78.91424,34.49197c0,0-3.51624,4.92389,0.65165,6.31684
		C79.56589,40.80881,83.66993,38.97922,78.91424,34.49197z"/>
	<path class="st35" d="M118.25066,59.77504c0,0-3.49096,4.88713,0.64612,6.27044
		C118.89678,66.04548,122.96865,64.22833,118.25066,59.77504z"/>
	<path class="st35" d="M113.69812,68.44265c0,0-3.49095,4.88618,0.64523,6.26997
		C114.34335,74.71262,118.41747,72.89592,113.69812,68.44265z"/>
	<path class="st35" d="M60.40944,55.41828c0,0-5.0595,3.23724-1.73446,6.06132
		C58.67498,61.4796,63.13197,61.30818,60.40944,55.41828z"/>
	<path class="st35" d="M52.95832,61.7696c0,0-5.05852,3.23586-1.73399,6.05993C51.22433,67.82953,55.6813,67.65855,52.95832,61.7696
		z"/>
	<path class="st35" d="M139.07262,49.21307c0,0,5.05902,3.2368,1.73399,6.06088
		C140.80661,55.27395,136.35011,55.10253,139.07262,49.21307z"/>
	<path class="st35" d="M146.52281,55.56392c0,0,5.05902,3.23635,1.73491,6.05999
		C148.25772,61.62391,143.80075,61.45293,146.52281,55.56392z"/>
	<path class="st35" d="M76.16459,22.9194c0,0-5.8936,1.09793-3.86322,4.97351C72.30137,27.89291,76.49503,29.4155,76.16459,22.9194z
		"/>
	<path class="st35" d="M68.28287,26.02381c0,0-5.89407,1.09837-3.86461,4.97448
		C64.41826,30.99829,68.61099,32.52082,68.28287,26.02381z"/>
	<path class="st36" d="M84.71957,24.11935c2.29698-1.48211,11.48711,3.29242,11.65072-0.32951"/>
	<path class="st36" d="M114.43112,24.11935c-2.29787-1.48211-11.48708,3.29242-11.65208-0.32951"/>
	<g>
		<path class="st22" d="M102.90237,195.0284l0.16827-0.09982l-0.16827-0.14423v-2.93976c0-0.36981,0.30321-0.67302,0.67487-0.67302
			c0,0,0.92444,0.78766,2.56441,0.78766c1.64001,0,2.39619-0.78766,2.83624-0.78766c0.08321,0-0.01108-0.38089,0.3957,0
			c2.52007,2.35555,8.14262,2.83255,8.14262,2.83255c0.31434,0,0.52142,0.49922,0.23112,0.83939
			c-0.0444,0.0481-0.14976,0.12572-0.14976,0.18489l0.16637,0.17749c0,0.3735-0.30137,0.67671-0.67113,0.67671h-13.51558
			c-0.37167,0-0.67487-0.30321-0.67487-0.67671V195.0284z"/>
		<path class="st22" d="M97.39629,195.20589c0,0.3735-0.30321,0.67671-0.67302,0.67671H83.20584
			c-0.36791,0-0.67117-0.30321-0.67117-0.67671l0.16827-0.17749c0-0.05917-0.1091-0.1368-0.14975-0.18304
			c-0.29214-0.34201-0.08322-0.84123,0.22927-0.84123c0,0,5.62624-0.47701,8.14446-2.83255c0.40862-0.38089,0.31249,0,0.39565,0
			c0.44189,0,1.19627,0.78766,2.8344,0.78766c1.64186,0,2.56631-0.78766,2.56631-0.78766c0.36981,0,0.67302,0.30321,0.67302,0.67487
			v2.93791l-0.16827,0.14607l0.16827,0.09798V195.20589z"/>
	</g>
</g>
</svg>
