<svg xmlns="http://www.w3.org/2000/svg" xmlns:xlink="http://www.w3.org/1999/xlink" viewBox="0 0 110.15 118.07"><defs><style>.cls-1{fill:#f68b2b;}.cls-2{fill:#bfbfbf;}.cls-3{fill:#515050;}.cls-4{fill:#18254e;}.cls-5{fill:#e3e1e1;}.cls-6{fill:#db7227;}.cls-11,.cls-12,.cls-7{fill:#2c2c36;}.cls-8{fill:#e3e2e2;}.cls-9{fill:#efe0a7;}.cls-10,.cls-16,.cls-17,.cls-19,.cls-23,.cls-26{fill:none;stroke-miterlimit:10;}.cls-10{stroke:#efe0a7;stroke-width:0.07px;}.cls-11{font-size:1.21px;}.cls-11,.cls-12{font-family:Georgia, Georgia;}.cls-12{font-size:1.21px;}.cls-13{fill:#2b2f36;}.cls-14{fill:#efcb81;}.cls-15{fill:#444952;}.cls-16,.cls-26{stroke:#57c0c3;}.cls-16{stroke-width:4.39px;}.cls-17{stroke:#515050;stroke-width:7.32px;}.cls-18{fill:#fff;}.cls-19{stroke:#e3e1e1;stroke-width:0.7px;}.cls-20{fill:#55c1c3;}.cls-21{fill:#323232;}.cls-22{clip-path:url(#clip-path);}.cls-23{stroke:#f16d6d;stroke-width:0.73px;}.cls-24{clip-path:url(#clip-path-2);}.cls-25{fill:#ababab;}.cls-26{stroke-width:1.46px;}</style><clipPath id="clip-path"><path class="cls-1" d="M53,117.67a.39.39,0,0,1-.39.39H45.16c-.21,0,.11-1.38,1.48-1.38a5.94,5.94,0,0,0,3.67-1.37c.24-.22.29.46,1.24.46s1-.46,1-.46a.39.39,0,0,1,.39.39v1.71l-.1.09.1.06v.1Z"/></clipPath><clipPath id="clip-path-2"><path class="cls-1" d="M57.09,117.67a.39.39,0,0,0,.39.39H64.9c.21,0-.11-1.38-1.48-1.38a5.94,5.94,0,0,1-3.67-1.37c-.24-.22-.29.46-1.24.46s-1-.46-1-.46a.39.39,0,0,0-.39.39v1.71l.1.09-.1.06v.1Z"/></clipPath></defs><title>Asset 12</title><g id="Layer_2" data-name="Layer 2"><g id="Layer_1-2" data-name="Layer 1"><rect class="cls-2" x="32.12" y="37.54" width="25.55" height="34.48" rx="2.67" ry="2.67" transform="translate(-8.16 7.86) rotate(-9.18)"/><rect class="cls-3" x="32.02" y="39.65" width="45.93" height="60.29" rx="20.02" ry="20.02"/><path class="cls-4" d="M66.21,107h-.06A22.25,22.25,0,0,0,78.33,87.31C78.33,75,67.91,64.94,55,64.94S31.76,75,31.76,87.31A22.25,22.25,0,0,0,43.95,107h-.06a14,14,0,0,1,6.84,9.47,2.06,2.06,0,0,1,1.83,0v-6.92a24.27,24.27,0,0,0,5,0v6.92a2.05,2.05,0,0,1,1.84,0A14,14,0,0,1,66.21,107"/><path class="cls-5" d="M109.26,69.49a16.56,16.56,0,0,0,.79-7s-3.48,7-5.95,7.36c0,0,6-6.14,5.52-10.9,0,0-3.05,5.49-5.35,6.23,0,0,5.5-4.81,4.11-11.16,0,0-2.46,6.73-4.93,7,0,0,4.19-5,3.82-9.57,0,0-17,23.12-40.42,2.4l.47,19.63L78.5,87.62s16.55,6.09,27-10.38l0,0a28.89,28.89,0,0,0,3.62-7.39l.15-.39,0,.06"/><path class="cls-6" d="M88.5,74.31a25.51,25.51,0,0,1,3.25-12.5c-6.72,1.64-15.26.53-24.89-8l-.36,19.65,12,14.13a23.94,23.94,0,0,0,13.81.16A25.6,25.6,0,0,1,88.5,74.31"/><path class="cls-1" d="M88.5,74.31A25.6,25.6,0,0,0,92.3,87.78s-1.86.47-2.48.59l-.94.18c-2.41-3.92-3.42-9.3-3.42-14.24"/><path class="cls-1" d="M88.5,74.31a25.51,25.51,0,0,1,3.25-12.5s-2.15.42-2.85.51-.89.08-.89.08c-2.07,3.7-2.53,7.36-2.53,11.9"/><path class="cls-5" d="M.88,69.84a16.55,16.55,0,0,1-.79-7s3.48,7,5.94,7.36c0,0-6-6.15-5.51-10.9,0,0,3,5.48,5.35,6.23,0,0-5.5-4.81-4.11-11.16,0,0,2.46,6.73,4.93,7,0,0-4.19-5-3.82-9.57,0,0,17,23.12,40.42,2.4L42.82,73.8,31.64,88s-16.55,6.09-27-10.38l0,0A28.84,28.84,0,0,1,1,70.16l-.15-.39,0,.07"/><path class="cls-6" d="M21.65,74.66a25.53,25.53,0,0,0-3.25-12.5c6.72,1.64,15.26.53,24.89-8l.36,19.65L31.65,88a23.94,23.94,0,0,1-13.81.16,25.6,25.6,0,0,0,3.81-13.46"/><path class="cls-1" d="M21.65,74.65a25.6,25.6,0,0,1-3.81,13.47s1.86.47,2.48.59l.94.18c2.41-3.92,3.42-9.3,3.42-14.24"/><path class="cls-1" d="M21.65,74.65a25.53,25.53,0,0,0-3.25-12.5s2.15.42,2.85.51.89.08.89.08c2.07,3.7,2.53,7.36,2.53,11.9"/><path class="cls-7" d="M64.94,89.23A4,4,0,0,1,62,88a3.59,3.59,0,0,1-1-2.7,4.28,4.28,0,0,1,1.54-3,4.74,4.74,0,0,1,3.07-1.14,4,4,0,0,1,3,1.22,3.59,3.59,0,0,1,1,2.7,4.28,4.28,0,0,1-1.54,3,4.74,4.74,0,0,1-3.07,1.13m.65-7.86a4.57,4.57,0,0,0-2.95,1.09,4.09,4.09,0,0,0-1.48,2.87,3.4,3.4,0,0,0,.94,2.56A3.87,3.87,0,0,0,64.94,89,4.56,4.56,0,0,0,67.89,88a4.1,4.1,0,0,0,1.48-2.87,3.41,3.41,0,0,0-.94-2.56,3.84,3.84,0,0,0-2.83-1.16"/><path class="cls-8" d="M62.55,87.51A3.21,3.21,0,0,1,63,82.83a3.68,3.68,0,0,1,5,.06,3.2,3.2,0,0,1-.46,4.69,3.67,3.67,0,0,1-5-.06"/><path class="cls-9" d="M66.37,89a.38.38,0,1,1,.71-.26l.5,1.34a.38.38,0,1,1-.71.26Z"/><circle class="cls-10" cx="67.36" cy="90.61" r="1.31" transform="translate(-22.68 22.49) rotate(-16.26)"/><text class="cls-11" transform="matrix(-0.93, 0.36, -0.36, -0.93, 64.72, 81.87)">X</text><text class="cls-11" transform="matrix(-0.93, 0.36, -0.36, -0.93, 63.98, 82.16)">I</text><text class="cls-11" transform="matrix(-0.93, 0.36, -0.36, -0.93, 63.62, 82.3)">I</text><text class="cls-11" transform="matrix(-0.93, 0.36, -0.36, -0.93, 66.32, 86.63)">V</text><text class="cls-11" transform="matrix(-0.93, 0.36, -0.36, -0.93, 65.65, 86.89)">I</text><text class="cls-12" transform="translate(62.11 86.14) rotate(71.45)">I</text><polygon class="cls-7" points="64.79 83.72 65.38 85.17 65.5 85.12 64.91 83.67 64.79 83.72"/><polygon class="cls-13" points="65.43 85.1 65.47 85.22 66.5 84.8 66.46 84.68 65.43 85.1"/><polygon class="cls-7" points="64.69 83.87 65.08 83.68 65.06 83.63 64.75 83.43 64.69 83.87"/><polygon class="cls-7" points="66.48 84.9 66.53 84.89 66.75 84.59 66.31 84.5 66.48 84.9"/><path class="cls-14" d="M67.24,88.34A4.35,4.35,0,0,1,67.86,82a5,5,0,0,1,6.77.09A4.36,4.36,0,0,1,74,88.43a5,5,0,0,1-6.77-.09"/><path class="cls-15" d="M64,84.85s9.69.7,15.71-4V82.6S74.91,87.31,64,86.47Z"/><path class="cls-13" d="M63.49,86.42s6.8.64,11.91-1.36c6-2.36,1.05,9.3,1.05,9.3l-7.86,0Z"/><path class="cls-16" d="M38.93,19.47a15.81,15.81,0,1,1,31.62,0"/><path class="cls-17" d="M64.19,6.79a15.81,15.81,0,0,0-18.89,0"/><path class="cls-5" d="M67.56,22.73c.18-3.54-.07-7.37-1.46-10-.72-2.06-3.06-3.33-5.43-4.1,1.06,0,2,0,2,0a6.8,6.8,0,0,0-6.4-1L55,7.47a17.53,17.53,0,0,1,2.5-1.14c-3.93-1-7.28,1.18-8.75,2.34-2.32.78-4.57,2-5.27,4-1.39,2.64-1.64,6.47-1.46,10a24.26,24.26,0,0,0,.7,8.33c2,4.66,1,8.17.06,11.79L55,64.37v.08L67.26,42.93c-.83-3.31-2.68-7.43-.46-11.91a24.7,24.7,0,0,0,.76-8.29"/><path class="cls-18" d="M49.19,20.48c0,1.12-1.14,2.05-2.63,2.1s-2.72-.81-2.76-1.93,1.14-2.05,2.62-2.1,2.72.81,2.76,1.92"/><path class="cls-7" d="M47.73,20.34a1.25,1.25,0,1,1-1.41-1.07,1.25,1.25,0,0,1,1.41,1.07"/><path class="cls-18" d="M65.66,20.48c0,1.12-1.14,2.05-2.62,2.1s-2.72-.81-2.76-1.93,1.14-2.05,2.62-2.1,2.72.81,2.76,1.92"/><path class="cls-7" d="M64.2,20.34a1.25,1.25,0,1,1-1.4-1.07,1.25,1.25,0,0,1,1.4,1.07"/><path class="cls-15" d="M54.8,23.26a7,7,0,0,1-4.1,2.85c2.17,1.37,4.35,5.54,4.35,5.54s2.09-4.16,4.26-5.54c0,0-3.18-.61-4.51-2.85"/><polygon class="cls-1" points="43.7 39.16 43.7 39.16 43.7 39.16 43.7 39.16"/><path class="cls-1" d="M79.65,65.44l-.13-.27-.15-.31h0A30.89,30.89,0,0,0,73,56.28c-3-4.16-4.56-9.9-5.69-13.35v0c-.36-1.43-.91-3-1.24-4.7h0c-8.72,5.08-22.32,1-22.32,1-.21,1.23-.53,2.43-.85,3.64v0C41.76,46.36,40.22,52,37.14,56.2a29.12,29.12,0,0,0-6.36,8.91l0,0a34.27,34.27,0,0,0-3.82,15,32.5,32.5,0,0,0,12.19,25.69,44.37,44.37,0,0,1,31.7.13C78.19,100.24,83,90.79,83,80.05A32.36,32.36,0,0,0,79.65,65.44Z"/><path class="cls-6" d="M66.24,39.2c-8.72,5.08-22.76,1.09-22.76,1.09s.26-1.38.32-1.85.12-1.5.12-1.5,12.69,4,21.85-.83c0,0,.07,1,.12,1.38S66.24,39.2,66.24,39.2Z"/><path class="cls-6" d="M73.13,103.91c-4.64-2.2-20.69-6.65-36.13,0,0,0,.75.7,1,.9s1.19.91,1.19.91a44.15,44.15,0,0,1,31.63.13s.87-.64,1.15-.88S73.13,103.91,73.13,103.91Z"/><path class="cls-6" d="M54.52,44.47a32.13,32.13,0,0,1-3.52-.2,31.23,31.23,0,0,1-8-1.94l.16-.61c.14.05,13.7,5.26,23.42-1.18l.19.65A21.84,21.84,0,0,1,54.52,44.47Z"/><path class="cls-3" d="M41.28,60.95v-1l3.62-1.58v1.05l-2.53,1,2.53,1v1.07Z"/><path class="cls-3" d="M48,63.15a2.1,2.1,0,0,1-.83-.16,2,2,0,0,1-1.1-1.1,2.07,2.07,0,0,1-.16-.8v0a2.1,2.1,0,0,1,.16-.81,2.07,2.07,0,0,1,.43-.67,2,2,0,0,1,.66-.45A2.13,2.13,0,0,1,48,59a2.18,2.18,0,0,1,.94.18,2.11,2.11,0,0,1,.66.49l-.69.75a1.85,1.85,0,0,0-.4-.32A1,1,0,0,0,48,60a.88.88,0,0,0-.39.09,1,1,0,0,0-.31.24,1.08,1.08,0,0,0-.2.35A1.25,1.25,0,0,0,47,61h0a1.29,1.29,0,0,0,.07.43,1,1,0,0,0,.21.35,1,1,0,0,0,.32.24,1,1,0,0,0,.42.09,1,1,0,0,0,.5-.12,2.07,2.07,0,0,0,.42-.31l.67.67a2.55,2.55,0,0,1-.67.53A2,2,0,0,1,48,63.15Z"/><path class="cls-3" d="M52.29,63.15a2.27,2.27,0,0,1-.86-.16,2.1,2.1,0,0,1-.68-.44,2,2,0,0,1-.45-.66,2,2,0,0,1-.16-.81v0a2,2,0,0,1,.16-.81,2.07,2.07,0,0,1,.46-.66,2.16,2.16,0,0,1,.69-.45,2.23,2.23,0,0,1,.87-.16,2.26,2.26,0,0,1,.86.16,2.1,2.1,0,0,1,.68.44,2.05,2.05,0,0,1,.45.66,2,2,0,0,1,.16.81h0a2,2,0,0,1-.16.81,2.06,2.06,0,0,1-.46.66,2.15,2.15,0,0,1-.69.45A2.24,2.24,0,0,1,52.29,63.15Zm0-1a1.05,1.05,0,0,0,.44-.09,1,1,0,0,0,.33-.24,1,1,0,0,0,.21-.35,1.24,1.24,0,0,0,.07-.42v0a1.19,1.19,0,0,0-.07-.42,1.07,1.07,0,0,0-.22-.35,1.05,1.05,0,0,0-.34-.24,1,1,0,0,0-.43-.09,1.05,1.05,0,0,0-.44.09,1,1,0,0,0-.33.24,1,1,0,0,0-.21.35,1.25,1.25,0,0,0-.07.42h0a1.19,1.19,0,0,0,.07.42,1.08,1.08,0,0,0,.55.59A1,1,0,0,0,52.31,62.17Z"/><path class="cls-3" d="M56.93,63.13a1.78,1.78,0,0,1-.68-.13,1.68,1.68,0,0,1-.58-.4,2,2,0,0,1-.41-.65,2.38,2.38,0,0,1-.15-.89h0a2.38,2.38,0,0,1,.15-.89,2,2,0,0,1,.4-.65,1.64,1.64,0,0,1,.58-.4,1.79,1.79,0,0,1,.69-.13,1.43,1.43,0,0,1,.75.18,2,2,0,0,1,.5.42v-2h1.14v5.46H58.18v-.58a1.8,1.8,0,0,1-.5.47A1.39,1.39,0,0,1,56.93,63.13Zm.29-1a.91.91,0,0,0,.38-.08.9.9,0,0,0,.31-.22,1.12,1.12,0,0,0,.21-.35,1.26,1.26,0,0,0,.08-.45h0a1.26,1.26,0,0,0-.08-.45,1.12,1.12,0,0,0-.21-.35A.9.9,0,0,0,57.6,60a.95.95,0,0,0-.75,0,.94.94,0,0,0-.31.22,1.09,1.09,0,0,0-.21.35,1.25,1.25,0,0,0-.08.46h0a1.26,1.26,0,0,0,.08.45,1.08,1.08,0,0,0,.21.35.94.94,0,0,0,.31.22A.91.91,0,0,0,57.23,62.17Z"/><path class="cls-3" d="M62.23,63.15A2.28,2.28,0,0,1,61.4,63a1.92,1.92,0,0,1-.67-.43,2,2,0,0,1-.44-.65,2.17,2.17,0,0,1-.16-.84v0a2.24,2.24,0,0,1,.15-.81,2.05,2.05,0,0,1,.41-.67A1.9,1.9,0,0,1,62.12,59a2,2,0,0,1,.87.18,1.76,1.76,0,0,1,.61.48,2,2,0,0,1,.36.69,2.88,2.88,0,0,1,.12.82s0,.09,0,.14,0,.1,0,.16H61.27a1,1,0,0,0,.34.59,1,1,0,0,0,.64.2,1.26,1.26,0,0,0,.51-.1,1.74,1.74,0,0,0,.46-.31l.65.58a2,2,0,0,1-.69.55A2.13,2.13,0,0,1,62.23,63.15ZM63,60.74a1.11,1.11,0,0,0-.27-.62.74.74,0,0,0-.58-.24.76.76,0,0,0-.58.23,1.16,1.16,0,0,0-.29.62Z"/><path class="cls-3" d="M65.07,61.48l2.53-1-2.53-1V58.33l3.62,1.58v1l-3.62,1.58Z"/><path class="cls-19" d="M40.32,28.53V54.67c0,3.92.11,7.92,4.34,9.76C47.58,65.7,51,65,54,65.89a9.3,9.3,0,0,1,6.43,7.7c.23,2.06-.25,4.13-.25,6.2s.66,4.36,2.46,5.39"/><path class="cls-3" d="M34.88,27.94h0a.8.8,0,0,1-.8-.8V16.82a.8.8,0,0,1,1.6,0V27.14A.86.86,0,0,1,34.88,27.94Z"/><polyline class="cls-20" points="37.52 28.92 37.52 15.16 38.72 15.16 38.72 28.92"/><polyline class="cls-20" points="70.83 28.92 70.83 15.16 72.03 15.16 72.03 28.92"/><ellipse class="cls-20" cx="37.52" cy="22.04" rx="2.56" ry="6.88"/><rect class="cls-3" x="38.64" y="14.52" width="3.36" height="15.04" rx="0.72" ry="0.72"/><path class="cls-3" d="M74.59,27.94h0a.8.8,0,0,0,.8-.8V16.82a.8.8,0,0,0-1.6,0V27.14A.86.86,0,0,0,74.59,27.94Z"/><ellipse class="cls-20" cx="71.95" cy="22.04" rx="2.56" ry="6.88"/><rect class="cls-3" x="67.47" y="14.52" width="3.36" height="15.04" rx="0.72" ry="0.72"/><ellipse class="cls-21" cx="41.61" cy="17.85" rx="0.85" ry="0.27"/><path class="cls-4" d="M57.76,16.95a9.87,9.87,0,0,1-2.79.7,9.87,9.87,0,0,1-2.79-.7c-2.37-.78-8.33-1.28-12.1-.08L40.18,19a.78.78,0,0,1,.91.6c.23.75.75,3.87,1.71,5.08,1.19,1.51,3.77,1.57,5.51,1.49,2.34-.1,3.88-1.14,4.53-2.9a21.08,21.08,0,0,1,1.44-3.75,1,1,0,0,1,1.36,0,21.08,21.08,0,0,1,1.44,3.75c.65,1.76,2.19,2.8,4.53,2.9,1.74.07,4.31,0,5.51-1.49,1-1.22,1.49-4.33,1.71-5.08a.78.78,0,0,1,.91-.6l.11-2.09C66.09,15.66,60.13,16.17,57.76,16.95Zm-17,.91c0-.15.38-.27.85-.27s.85.12.85.27-.38.27-.85.27S40.77,18,40.77,17.85Zm11,5.38a3.9,3.9,0,0,1-3.27,2,7.94,7.94,0,0,1-4.44-.68c-.84-.5-1.25-2.09-1.45-3s-.55-3,.43-3.7,3.45-.73,5.08-.63c1.23.08,3.9.4,4.4,1.36S52.31,22.28,51.8,23.24ZM67.3,21.5c-.2,1-.61,2.54-1.45,3a7.94,7.94,0,0,1-4.44.68,3.9,3.9,0,0,1-3.27-2c-.51-1-1.26-3.75-.75-4.71s3.17-1.28,4.4-1.36c1.63-.1,4.1-.05,5.08.63S67.5,20.55,67.3,21.5Zm1-3.38c-.47,0-.85-.12-.85-.27s.38-.27.85-.27.85.12.85.27S68.79,18.12,68.32,18.12Z"/><ellipse class="cls-4" cx="68.32" cy="17.85" rx="0.85" ry="0.27"/><path class="cls-1" d="M53,117.67a.39.39,0,0,1-.39.39H45.16c-.21,0,.11-1.38,1.48-1.38a5.94,5.94,0,0,0,3.67-1.37c.24-.22.29.46,1.24.46s1-.46,1-.46a.39.39,0,0,1,.39.39v1.71l-.1.09.1.06v.1Z"/><g class="cls-22"><path class="cls-23" d="M49.8,115.49s.86.57.63,1-2.46,1.33-3.18.77a.92.92,0,0,1-.35-1.19Z"/></g><path class="cls-1" d="M57.09,117.67a.39.39,0,0,0,.39.39H64.9c.21,0-.11-1.38-1.48-1.38a5.94,5.94,0,0,1-3.67-1.37c-.24-.22-.29.46-1.24.46s-1-.46-1-.46a.39.39,0,0,0-.39.39v1.71l.1.09-.1.06v.1Z"/><g class="cls-24"><path class="cls-23" d="M60.25,115.49s-.86.57-.63,1,2.46,1.33,3.18.77a.92.92,0,0,0,.35-1.19Z"/></g><path class="cls-3" d="M36.53,56.09l-4.32,4.17a33,33,0,0,1,1.68,9.81c0,8.56-2.9,16.49-7.06,19.28l2.53,4.81c5.76-3.86,10-13.49,10-24.09A40.63,40.63,0,0,0,36.53,56.09Z"/><rect class="cls-25" x="32.97" y="64.34" width="6.65" height="1.06" transform="translate(-9.88 6.62) rotate(-9.18)"/><path class="cls-26" d="M38.36,65.07l.33,2.07A2,2,0,0,1,37,69.45h0a2,2,0,0,1-2.31-1.67l-.33-2.07"/><path class="cls-3" d="M73.32,56.09l4.32,4.17A33,33,0,0,0,76,70.07c0,8.56,2.9,16.49,7.06,19.28L80.5,94.16c-5.76-3.86-10-13.49-10-24.09A40.63,40.63,0,0,1,73.32,56.09Z"/><rect class="cls-25" x="70.24" y="64.34" width="6.65" height="1.06" transform="matrix(-0.99, -0.16, 0.16, -0.99, 135.85, 140.64)"/><path class="cls-26" d="M71.5,65.07l-.33,2.07a2,2,0,0,0,1.67,2.31h0a2,2,0,0,0,2.31-1.67l.33-2.07"/><rect class="cls-5" x="58.47" y="83.52" width="9.33" height="9.33" rx="0.45" ry="0.45" transform="translate(-26.74 27.49) rotate(-20.37)"/><rect class="cls-20" x="59.48" y="84.55" width="7.33" height="7.33" transform="translate(123.87 -1.69) rotate(69.63)"/><rect class="cls-6" x="57.68" y="87.97" width="11.87" height="2.13"/><rect class="cls-1" x="57.68" y="90.09" width="13.26" height="4.79"/></g></g></svg>