<?xml version="1.0" encoding="utf-8"?>
<!-- Generator: Adobe Illustrator 19.2.1, SVG Export Plug-In . SVG Version: 6.00 Build 0)  -->
<svg version="1.1" id="Layer_1" xmlns="http://www.w3.org/2000/svg" xmlns:xlink="http://www.w3.org/1999/xlink" x="0px" y="0px"
	 width="200px" height="200px" viewBox="0 0 200 200" style="enable-background:new 0 0 200 200;" xml:space="preserve">
<style type="text/css">
	.st0{fill:#E2E3E4;}
	.st1{fill:#595D62;}
	.st2{fill:#C7702A;}
	.st3{fill:#C9C7C7;}
	.st4{fill:#EA8824;}
	.st5{fill:none;stroke:#C9C7C7;stroke-width:0.75651;stroke-miterlimit:10;}
	.st6{fill-rule:evenodd;clip-rule:evenodd;fill:#444851;}
	.st7{fill-rule:evenodd;clip-rule:evenodd;fill:#D8D7D6;}
	.st8{fill:#FFFFFF;}
	.st9{fill:#2B2B35;}
	.st10{fill:#434850;}
	.st11{fill:#6C4396;}
	.st12{fill:#A4A4A4;}
	.st13{fill:#EA4C65;}
	.st14{fill:#94814F;}
	.st15{fill:#9C2023;}
	.st16{fill:#B7242C;}
	.st17{fill-rule:evenodd;clip-rule:evenodd;fill:#FFFFFF;}
	.st18{fill:#0C4F6E;}
	.st19{fill:#C18E46;}
	.st20{fill:#3180BF;}
	.st21{fill:#D94F4F;}
	.st22{fill:#2C2C2D;}
	.st23{fill:#595E63;}
	.st24{fill:#E3E2E2;}
	.st25{fill:#9D9EA0;}
	.st26{fill:none;stroke:#C8C6C6;stroke-width:0.75651;stroke-miterlimit:10;}
	.st27{fill:#2A2E35;}
	.st28{fill-rule:evenodd;clip-rule:evenodd;fill:#454751;}
	.st29{fill-rule:evenodd;clip-rule:evenodd;fill:#D8D7D5;}
	.st30{fill:#434851;}
	.st31{fill:#EC9424;}
	.st32{fill:#445AA4;}
	.st33{clip-path:url(#SVGID_2_);fill:#58C1C4;}
	.st34{fill:#B7DBDB;}
	.st35{fill:#58C1C4;}
	.st36{fill:none;stroke:#434851;stroke-width:1.51302;stroke-linecap:round;stroke-linejoin:round;stroke-miterlimit:10;}
	.st37{clip-path:url(#SVGID_4_);fill:#58C1C4;}
	.st38{fill:#010101;}
	.st39{fill:#161718;}
	.st40{fill-rule:evenodd;clip-rule:evenodd;fill:#010101;}
	.st41{fill:#272626;}
	.st42{fill:#17191A;}
	.st43{fill:#D4D5D4;}
	.st44{fill-rule:evenodd;clip-rule:evenodd;fill:#272626;}
	.st45{fill-rule:evenodd;clip-rule:evenodd;fill:#E2E3E4;}
	.st46{fill:#19244E;}
	.st47{fill:#E3E1E1;}
	.st48{fill:#8E1B27;}
	.st49{fill:#CA2033;}
	.st50{fill:#EFE0A7;}
	.st51{fill:none;stroke:#EFE0A7;stroke-width:0.09335;stroke-miterlimit:10;}
	.st52{fill:#EECA81;}
	.st53{fill:#F3F3F3;}
	.st54{fill:#A0A1A4;}
	.st55{fill:#EB6B6D;}
	.st56{fill:none;stroke:#CAC8C6;stroke-width:0.02289;stroke-miterlimit:10;}
	.st57{fill:#464951;}
	.st58{fill:#D7D6D6;}
	.st59{fill:#EECC82;}
	.st60{fill:#F0E0A9;}
	.st61{fill:none;stroke:#F0E0A9;stroke-width:0.01145;stroke-miterlimit:10;}
	.st62{fill:#5AC1C2;}
	.st63{clip-path:url(#SVGID_6_);fill:#E2E3E4;}
	.st64{fill:#EE7823;}
	.st65{fill:#D6563D;}
	.st66{fill:#70533D;}
	.st67{fill:#81BCA9;}
	.st68{clip-path:url(#SVGID_8_);fill:#E2E3E4;}
	.st69{fill:none;stroke:#EFE0A7;stroke-width:0.37825;stroke-miterlimit:10;}
	.st70{clip-path:url(#SVGID_10_);}
	.st71{clip-path:url(#SVGID_12_);fill:#E3E2E2;}
	.st72{clip-path:url(#SVGID_12_);}
	.st73{fill-rule:evenodd;clip-rule:evenodd;fill:#1AAEA1;}
	.st74{fill-rule:evenodd;clip-rule:evenodd;fill:#0C8C70;}
	.st75{fill:#1AAEA1;}
	.st76{fill:#6F513B;}
	.st77{fill:#515050;}
	.st78{fill:#D4563A;}
	.st79{fill:none;}
	.st80{clip-path:url(#SVGID_14_);}
	.st81{clip-path:url(#SVGID_16_);fill:#E3E2E2;}
	.st82{clip-path:url(#SVGID_16_);}
	.st83{fill:#EEE3A3;}
	.st84{fill:none;stroke:#F0E0A9;stroke-width:0.37825;stroke-miterlimit:10;}
	.st85{clip-path:url(#SVGID_18_);}
	.st86{fill-rule:evenodd;clip-rule:evenodd;fill:#434850;}
	.st87{clip-path:url(#SVGID_20_);}
	.st88{fill:none;stroke:#E4CC21;stroke-width:1.92135;stroke-miterlimit:10;}
	.st89{fill:none;stroke:#FFFFFF;stroke-width:2.2037;stroke-miterlimit:10;}
	.st90{fill:#E4CC21;}
	.st91{fill:#232244;}
	.st92{fill:#C8C6C6;}
	.st93{fill:#542F19;}
	.st94{fill-rule:evenodd;clip-rule:evenodd;fill:#3D2E21;}
	.st95{fill:#3D2E21;}
	.st96{fill-rule:evenodd;clip-rule:evenodd;fill:#232244;}
	.st97{fill-rule:evenodd;clip-rule:evenodd;fill:#2E3280;}
	.st98{fill:#281911;}
	.st99{fill-rule:evenodd;clip-rule:evenodd;fill:#E4CC21;}
	.st100{fill-rule:evenodd;clip-rule:evenodd;fill:#D85127;}
	.st101{clip-path:url(#SVGID_22_);}
	.st102{fill-rule:evenodd;clip-rule:evenodd;fill:#EE7434;}
	.st103{fill:#17733B;}
	.st104{clip-path:url(#SVGID_24_);}
	.st105{fill:#1D73B6;}
	.st106{fill:#115E8E;}
	.st107{clip-path:url(#SVGID_26_);}
	.st108{fill:none;stroke:#FFFFFF;stroke-width:1.49993;stroke-miterlimit:10;}
	.st109{fill:none;stroke:#CAC8C6;stroke-width:0.024;stroke-miterlimit:10;}
	.st110{clip-path:url(#SVGID_28_);fill:#E2E3E4;}
	.st111{fill:#603A17;}
	.st112{fill:#78471F;}
	.st113{fill:#F8FAFD;}
	.st114{clip-path:url(#SVGID_30_);}
	.st115{clip-path:url(#SVGID_32_);}
	.st116{fill:none;stroke:#FFFFFF;stroke-width:0.49998;stroke-miterlimit:10;}
	.st117{fill:none;stroke:#FFFFFF;stroke-width:0.74997;stroke-miterlimit:10;}
	.st118{clip-path:url(#SVGID_34_);}
	.st119{clip-path:url(#SVGID_36_);}
	.st120{clip-path:url(#SVGID_38_);fill:#E2E3E4;}
	.st121{clip-path:url(#SVGID_40_);}
	.st122{clip-path:url(#SVGID_42_);}
	.st123{clip-path:url(#SVGID_44_);}
	.st124{opacity:0.7;fill:#434850;}
	.st125{fill:#5B3287;}
	.st126{fill:#643E1E;}
	.st127{fill:#C8D6DE;}
	.st128{fill:none;stroke:#CAC7C6;stroke-width:0.75651;stroke-miterlimit:10;}
	.st129{fill:#B6C3CE;}
	.st130{fill:#273980;}
	.st131{fill:#2B2C35;}
	.st132{clip-path:url(#SVGID_46_);fill:#FFFFFF;stroke:#5A3B84;stroke-width:4.53905;stroke-miterlimit:10;}
	.st133{fill:#C8C7C9;}
	.st134{fill:#056F43;}
	.st135{clip-path:url(#SVGID_48_);}
	.st136{fill:#EBEDF1;}
	.st137{fill:#CF2B29;}
	.st138{fill-rule:evenodd;clip-rule:evenodd;fill:#273980;}
	.st139{fill:#D6232A;}
	.st140{clip-path:url(#SVGID_52_);fill:#FFFFFF;stroke:#5A3B84;stroke-width:4.53905;stroke-miterlimit:10;}
	.st141{clip-path:url(#SVGID_54_);}
	.st142{fill:#532D17;}
	.st143{fill:none;stroke:#5E1116;stroke-width:0.95369;stroke-miterlimit:10;}
	.st144{fill-rule:evenodd;clip-rule:evenodd;fill:#5E1116;}
	.st145{fill:none;stroke:#5E1116;stroke-width:0.94639;stroke-miterlimit:10;}
	.st146{fill:#291B13;}
	.st147{fill-rule:evenodd;clip-rule:evenodd;fill:#291B13;}
	.st148{fill-rule:evenodd;clip-rule:evenodd;fill:#454850;}
	.st149{fill-rule:evenodd;clip-rule:evenodd;fill:#74441F;}
	.st150{fill:#7F161B;}
	.st151{fill-rule:evenodd;clip-rule:evenodd;fill:#7F161B;}
	.st152{fill:none;stroke:#5E1116;stroke-width:1.04342;stroke-miterlimit:10;}
	.st153{fill:#E4E0E4;}
	.st154{clip-path:url(#SVGID_58_);fill:#E1244D;}
	.st155{clip-path:url(#SVGID_60_);fill:#E1244D;}
	.st156{fill:#292933;}
	.st157{fill:none;stroke:#CAC8C6;stroke-width:0.02378;stroke-miterlimit:10;}
	.st158{fill:none;stroke:#F0E0A9;stroke-width:0.01189;stroke-miterlimit:10;}
	.st159{clip-path:url(#SVGID_62_);fill:#E2E3E4;}
	.st160{fill:#2F465D;}
	.st161{fill:#432F21;}
	.st162{fill-rule:evenodd;clip-rule:evenodd;fill:#3D5F7C;}
	.st163{fill-rule:evenodd;clip-rule:evenodd;fill:#2F465D;}
	.st164{clip-path:url(#SVGID_64_);fill:#2C2C2D;}
	.st165{clip-path:url(#SVGID_66_);fill:#F8B917;}
	.st166{clip-path:url(#SVGID_66_);fill:#1F4394;}
	.st167{clip-path:url(#SVGID_68_);fill:#E8212F;}
	.st168{clip-path:url(#SVGID_68_);fill:#C9C8C8;}
	.st169{clip-path:url(#SVGID_68_);fill:#2A2E35;}
	.st170{clip-path:url(#SVGID_68_);fill:#444750;}
	.st171{clip-path:url(#SVGID_68_);fill:#D7D7D6;}
	.st172{clip-path:url(#SVGID_68_);fill:#E3E2E2;}
	.st173{clip-path:url(#SVGID_68_);fill:#FFFFFF;}
	.st174{clip-path:url(#SVGID_68_);fill:#2B2D34;}
	.st175{clip-path:url(#SVGID_68_);fill:#B9252D;}
	.st176{clip-path:url(#SVGID_68_);fill:#24345B;}
	.st177{clip-path:url(#SVGID_68_);fill:#F7F6F8;}
	.st178{clip-path:url(#SVGID_70_);fill:#1F4394;}
	.st179{clip-path:url(#SVGID_70_);fill:#F8B917;}
	.st180{clip-path:url(#SVGID_70_);fill:#883D1E;}
	.st181{clip-path:url(#SVGID_70_);fill:#F5D07C;}
	.st182{clip-path:url(#SVGID_72_);fill:#E8212F;}
	.st183{clip-path:url(#SVGID_72_);fill:#E3E2E2;}
	.st184{clip-path:url(#SVGID_72_);fill:#F7F6F8;}
	.st185{clip-path:url(#SVGID_72_);fill:#F8B917;}
	.st186{clip-path:url(#SVGID_72_);fill:#888983;}
	.st187{clip-path:url(#SVGID_74_);fill:#888983;}
	.st188{clip-path:url(#SVGID_74_);fill:#624219;}
	.st189{clip-path:url(#SVGID_76_);fill:#E3E2E2;}
	.st190{clip-path:url(#SVGID_76_);fill:#2C2C2D;}
	.st191{clip-path:url(#SVGID_76_);fill:#888983;}
	.st192{clip-path:url(#SVGID_78_);fill:#F8B917;}
	.st193{clip-path:url(#SVGID_78_);fill:#1F4394;}
	.st194{clip-path:url(#SVGID_80_);fill:#E8212F;}
	.st195{clip-path:url(#SVGID_80_);fill:#C9C8C8;}
	.st196{clip-path:url(#SVGID_80_);fill:#2A2E35;}
	.st197{clip-path:url(#SVGID_80_);fill:#444750;}
	.st198{clip-path:url(#SVGID_80_);fill:#D7D7D6;}
	.st199{clip-path:url(#SVGID_80_);fill:#E3E2E2;}
	.st200{clip-path:url(#SVGID_80_);fill:#FFFFFF;}
	.st201{clip-path:url(#SVGID_80_);fill:#2B2D34;}
	.st202{clip-path:url(#SVGID_80_);fill:#B9252D;}
	.st203{clip-path:url(#SVGID_80_);fill:#24345B;}
	.st204{clip-path:url(#SVGID_80_);fill:#F7F6F8;}
	.st205{clip-path:url(#SVGID_82_);fill:#1F4394;}
	.st206{clip-path:url(#SVGID_82_);fill:#F8B917;}
	.st207{clip-path:url(#SVGID_82_);fill:#883D1E;}
	.st208{clip-path:url(#SVGID_82_);fill:#F5D07C;}
	.st209{clip-path:url(#SVGID_84_);fill:#E8212F;}
	.st210{clip-path:url(#SVGID_84_);fill:#E3E2E2;}
	.st211{clip-path:url(#SVGID_84_);fill:#F7F6F8;}
	.st212{clip-path:url(#SVGID_84_);fill:#F8B917;}
	.st213{clip-path:url(#SVGID_84_);fill:#888983;}
	.st214{clip-path:url(#SVGID_86_);fill:#888983;}
	.st215{clip-path:url(#SVGID_86_);fill:#624219;}
	.st216{clip-path:url(#SVGID_88_);fill:#E3E2E2;}
	.st217{clip-path:url(#SVGID_88_);fill:#2C2C2D;}
	.st218{clip-path:url(#SVGID_90_);fill:#2C2C2D;}
	.st219{clip-path:url(#SVGID_92_);fill:#F8B917;}
	.st220{clip-path:url(#SVGID_92_);fill:#1F4394;}
	.st221{clip-path:url(#SVGID_94_);fill:#E8212F;}
	.st222{clip-path:url(#SVGID_94_);fill:#C9C8C8;}
	.st223{clip-path:url(#SVGID_94_);fill:#2A2E35;}
	.st224{clip-path:url(#SVGID_94_);fill:#444750;}
	.st225{clip-path:url(#SVGID_94_);fill:#D7D7D6;}
	.st226{clip-path:url(#SVGID_94_);fill:#E3E2E2;}
	.st227{clip-path:url(#SVGID_94_);fill:#FFFFFF;}
	.st228{clip-path:url(#SVGID_94_);fill:#2B2D34;}
	.st229{clip-path:url(#SVGID_94_);fill:#B9252D;}
	.st230{clip-path:url(#SVGID_94_);fill:#24345B;}
	.st231{clip-path:url(#SVGID_94_);fill:#F7F6F8;}
	.st232{clip-path:url(#SVGID_96_);fill:#1F4394;}
	.st233{clip-path:url(#SVGID_96_);fill:#F8B917;}
	.st234{clip-path:url(#SVGID_96_);fill:#883D1E;}
	.st235{clip-path:url(#SVGID_96_);fill:#F5D07C;}
	.st236{clip-path:url(#SVGID_98_);fill:#E8212F;}
	.st237{clip-path:url(#SVGID_98_);fill:#E3E2E2;}
	.st238{clip-path:url(#SVGID_98_);fill:#F7F6F8;}
	.st239{clip-path:url(#SVGID_98_);fill:#F8B917;}
	.st240{clip-path:url(#SVGID_98_);fill:#888983;}
	.st241{clip-path:url(#SVGID_100_);fill:#888983;}
	.st242{clip-path:url(#SVGID_100_);fill:#624219;}
	.st243{clip-path:url(#SVGID_102_);fill:#E3E2E2;}
	.st244{clip-path:url(#SVGID_102_);fill:#2C2C2D;}
	.st245{clip-path:url(#SVGID_102_);fill:#888983;}
	.st246{clip-path:url(#SVGID_104_);fill:#F8B917;}
	.st247{clip-path:url(#SVGID_104_);fill:#1F4394;}
	.st248{clip-path:url(#SVGID_106_);fill:#E8212F;}
	.st249{clip-path:url(#SVGID_106_);fill:#C9C8C8;}
	.st250{clip-path:url(#SVGID_106_);fill:#2A2E35;}
	.st251{clip-path:url(#SVGID_106_);fill:#444750;}
	.st252{clip-path:url(#SVGID_106_);fill:#D7D7D6;}
	.st253{clip-path:url(#SVGID_106_);fill:#E3E2E2;}
	.st254{clip-path:url(#SVGID_106_);fill:#FFFFFF;}
	.st255{clip-path:url(#SVGID_106_);fill:#2B2D34;}
	.st256{clip-path:url(#SVGID_106_);fill:#B9252D;}
	.st257{clip-path:url(#SVGID_106_);fill:#24345B;}
	.st258{clip-path:url(#SVGID_106_);fill:#F7F6F8;}
	.st259{clip-path:url(#SVGID_108_);fill:#1F4394;}
	.st260{clip-path:url(#SVGID_108_);fill:#F8B917;}
	.st261{clip-path:url(#SVGID_108_);fill:#883D1E;}
	.st262{clip-path:url(#SVGID_108_);fill:#F5D07C;}
	.st263{clip-path:url(#SVGID_110_);fill:#E8212F;}
	.st264{clip-path:url(#SVGID_110_);fill:#E3E2E2;}
	.st265{clip-path:url(#SVGID_110_);fill:#F7F6F8;}
	.st266{clip-path:url(#SVGID_110_);fill:#F8B917;}
	.st267{clip-path:url(#SVGID_110_);fill:#888983;}
	.st268{clip-path:url(#SVGID_112_);fill:#888983;}
	.st269{clip-path:url(#SVGID_112_);fill:#624219;}
	.st270{clip-path:url(#SVGID_114_);fill:#E3E2E2;}
	.st271{clip-path:url(#SVGID_114_);fill:#2C2C2D;}
	.st272{fill:#EDE2A3;}
	.st273{clip-path:url(#SVGID_116_);}
	.st274{fill-rule:evenodd;clip-rule:evenodd;fill:#434851;}
	.st275{fill-rule:evenodd;clip-rule:evenodd;fill:#E3E2E2;}
	.st276{fill:#2A2B2A;}
	.st277{clip-path:url(#SVGID_118_);}
	.st278{clip-path:url(#SVGID_120_);}
	.st279{clip-path:url(#SVGID_122_);}
	.st280{fill:#1F3566;}
	.st281{fill:#E3E4E5;}
	.st282{fill:#4BB1E4;}
	.st283{fill:#2D2A6C;}
	.st284{fill-rule:evenodd;clip-rule:evenodd;fill:#D8D9D5;}
	.st285{fill:#434852;}
	.st286{fill:#E3E3E3;}
	.st287{fill:#162E54;}
	.st288{fill:none;stroke:#335DAB;stroke-width:1.68786;stroke-miterlimit:10;}
	.st289{fill:#81817F;}
	.st290{fill:#142B49;}
	.st291{fill:#5A5A5A;}
	.st292{fill:none;stroke:#FFFFFF;stroke-width:0.84393;stroke-linecap:round;stroke-linejoin:round;stroke-miterlimit:10;}
	.st293{fill:#AB9D9C;}
	.st294{fill:#EA6689;}
	.st295{fill:#CE1D5B;}
	.st296{fill:#BF742A;}
	.st297{fill:#273449;}
	.st298{fill:#A4464B;}
	.st299{fill:none;stroke:#CAC8C6;stroke-width:0.0662;stroke-miterlimit:10;}
	.st300{fill:#80333A;}
	.st301{fill:none;stroke:#B4B4B4;stroke-width:0.25748;stroke-miterlimit:10;}
	.st302{fill:none;stroke:#B4B4B4;stroke-width:3.08973;stroke-miterlimit:10;}
	.st303{fill:none;stroke:#B4B4B4;stroke-width:1.02991;stroke-miterlimit:10;}
	.st304{fill:none;stroke:#82858B;stroke-width:0.51495;stroke-miterlimit:10;}
	.st305{fill:none;stroke:#E2E3E4;stroke-width:1.02991;stroke-miterlimit:10;}
	.st306{fill:#E5E5E5;}
	.st307{fill:#2D2C2D;}
	.st308{fill:#4CB2E5;}
	.st309{fill:#AD2824;}
	.st310{fill-rule:evenodd;clip-rule:evenodd;fill:#D9D9D6;}
	.st311{fill:#E4E4E3;}
	.st312{fill:#DB4826;}
	.st313{fill:#B33725;}
	.st314{fill:#120C0D;}
	.st315{fill:#F3F0F0;}
	.st316{fill:#C4BFBF;}
	.st317{clip-path:url(#SVGID_124_);fill:none;stroke:#F3F0F0;stroke-width:1.10165;stroke-linecap:round;stroke-miterlimit:10;}
	.st318{clip-path:url(#SVGID_126_);fill:none;stroke:#F3F0F0;stroke-width:1.10165;stroke-linecap:round;stroke-miterlimit:10;}
	.st319{clip-path:url(#SVGID_128_);fill:none;stroke:#F3F0F0;stroke-width:1.10165;stroke-linecap:round;stroke-miterlimit:10;}
	.st320{fill:#DE5B2A;}
	.st321{fill:#7A2716;}
	.st322{fill:#E5E4E4;}
	.st323{fill:#BB4928;}
	.st324{fill:#454545;}
	.st325{fill:#6265AE;}
	.st326{fill:none;stroke:#CAC5C4;stroke-width:0.55083;stroke-linecap:round;stroke-miterlimit:10;}
	.st327{fill:#E1E3E3;}
	.st328{fill:#484848;}
	.st329{fill:#422F90;}
	.st330{fill:#D57A28;}
	.st331{fill:#B4B4B5;}
	.st332{fill:#4B4B4D;}
	.st333{fill:#949393;}
	.st334{fill:#040404;}
	.st335{clip-path:url(#SVGID_130_);fill:none;stroke:#F3F0F0;stroke-width:1.10165;stroke-linecap:round;stroke-miterlimit:10;}
	.st336{clip-path:url(#SVGID_132_);fill:none;stroke:#F3F0F0;stroke-width:1.10165;stroke-linecap:round;stroke-miterlimit:10;}
	.st337{clip-path:url(#SVGID_134_);fill:none;stroke:#F3F0F0;stroke-width:1.10165;stroke-linecap:round;stroke-miterlimit:10;}
	.st338{clip-path:url(#SVGID_140_);fill:#AD2824;}
	.st339{fill:#CDCCCC;}
	.st340{fill:#E4E5E6;}
	.st341{opacity:0.72;fill:none;stroke:#FFFFFF;stroke-width:1.1546;stroke-linecap:round;stroke-miterlimit:10;}
	.st342{fill:#BBD867;}
	.st343{fill:none;stroke:#BBD867;stroke-width:5.799;stroke-miterlimit:10;}
	.st344{clip-path:url(#SVGID_146_);fill:#AD2824;}
	.st345{fill:none;stroke:#AE4E85;stroke-width:1.54066;stroke-linecap:round;stroke-linejoin:round;stroke-miterlimit:10;}
	.st346{fill:none;stroke:#E97625;stroke-width:1.62274;stroke-linecap:round;stroke-linejoin:round;stroke-miterlimit:10;}
	.st347{fill:none;stroke:#C9C7C7;stroke-width:0.23348;stroke-miterlimit:10;}
	.st348{fill:#981E5C;}
	.st349{fill:none;stroke:#AE4E85;stroke-width:1.21706;stroke-linecap:round;stroke-linejoin:round;stroke-miterlimit:10;}
	.st350{fill:#AE4E85;}
	.st351{fill:#F7B456;}
	.st352{fill:#E97625;}
	.st353{fill:none;stroke:#E97625;stroke-width:1.54273;stroke-linecap:round;stroke-linejoin:round;stroke-miterlimit:10;}
</style>
<g>
	<g>
		<path class="st47" d="M5.44597,99.57535c-3.10255-6.17369-2.88135-10.30784-2.88135-10.30784s7.40706,9.9052,11.62481,10.07743
			c0,0-11.51723-8.25255-11.68943-15.38718c0,0,6.34408,7.71047,10.38309,8.49544c0,0-10.31294-6.37457-9.38064-15.99162
			c0,0,5.6399,9.65309,9.8387,9.65767c0,0-8.14543-6.78093-8.54021-13.65327c0,0,37.33132,32.81445,72.19357-1.29799
			l-0.16344,28.29147l-15.649,22.62292c0,0-26.47725,11.40775-47.72553-11.55457c-0.01979-0.01521-0.02258-0.02819-0.04893-0.04014
			c-3.67879-3.8026-6.11596-7.36923-7.7192-10.44685c-0.10479-0.1898-0.22533-0.36711-0.33247-0.55595
			C5.35226,99.48485,5.38414,99.52133,5.44597,99.57535z"/>
		<path class="st127" d="M32.4196,122.93618c15.37149,4.92006,28.75695-0.85102,28.75695-0.85102l30.42484-33.65202l-16.356-17.5002
			C59.99307,85.85654,43.01605,87.47175,30.9563,85.33059c0,0,3.60957,5.47322,5.52495,18.16602
			C38.39521,116.1797,32.4196,122.93618,32.4196,122.93618z"/>
	</g>
	<path class="st127" d="M73.1647,163.0159l1.77596,0.00784c-10.51285-5.48618-19.31674-16.17635-19.31674-28.47758
		c0-17.88944,15.09951-32.39789,33.70931-32.39789c18.62548,0,33.72544,14.50429,33.72544,32.39789
		c0,12.30124-10.44685,22.99141-20.95138,28.47758l3.38653-0.00784c-5.10938,2.93491-8.80386,7.89838-9.90564,13.73082
		c-0.22165-0.12648-1.26427-0.6243-2.65466,0.02171v-10.02017c-1.18253,0.1187-2.37759-1.59906-3.6003-1.59906
		c-1.20892,0-2.39977,1.71776-3.59341,1.59906v10.02017c-1.40331-0.64601-2.45748-0.13344-2.64868-0.0134
		C81.98199,170.91428,78.28609,165.95081,73.1647,163.0159z"/>
	<polygon class="st129" points="109.7023,160.78833 103.42146,170.45947 91.49512,170.45947 89.3429,166.81706 86.97408,170.45947 
		76.66671,170.45947 68.71059,159.92532 112.06233,157.89867 	"/>
	<g>
		<path class="st130" d="M86.92834,178.30841l-0.14867-0.08545l0.14867-0.13206v-2.57613c0-0.32465-0.26642-0.5892-0.59012-0.5892
			c0,0-0.80944,0.69215-2.24918,0.69215c-1.43888,0-2.09966-0.69215-2.48657-0.69215c-0.07393,0,0.01337-0.33202-0.34911,0
			c-2.20213,2.06502-7.13512,2.4838-7.13512,2.4838c-0.27058,0-0.45438,0.43497-0.19761,0.73834
			c0.03277,0.04109,0.13344,0.10619,0.13344,0.16071l-0.15376,0.15236c0,0.32881,0.26734,0.5952,0.592,0.5952h11.84592
			c0.3237,0,0.59012-0.26639,0.59012-0.5952V178.30841z"/>
		<path class="st130" d="M91.75467,178.46077c0,0.32881,0.26688,0.5952,0.59149,0.5952h11.84229
			c0.32828,0,0.5892-0.26639,0.5892-0.5952l-0.14639-0.15236c0-0.05452,0.09513-0.11961,0.13158-0.16071
			c0.25537-0.30338,0.07247-0.73834-0.20319-0.73834c0,0-4.92832-0.41878-7.13832-2.4838c-0.3532-0.33202-0.27102,0-0.34535,0
			c-0.38604,0-1.04869,0.69215-2.48058,0.69215c-1.43977,0-2.24925-0.69215-2.24925-0.69215
			c-0.32462,0-0.59149,0.26456-0.59149,0.5892v2.57613l0.14867,0.13206l-0.14867,0.08545V178.46077z"/>
	</g>
	<path class="st47" d="M163.7345,68.97694c0,0,4.04039-10.7839-2.46025-16.41827c0,0-8.59056,37.81847-46.36102,29.39318
		l12.21402,23.62407l22.0092,10.62043c0,0,12.95882-0.19021,21.19936-10.03304c7.73073-9.24352,8.24146-17.30583,6.29283-23.87756
		C174.37573,74.70178,166.49121,68.87904,163.7345,68.97694z"/>
	<path class="st127" d="M141.42184,97.80778c-1.38016-6.50203-0.98676-12.96204,0.84087-18.89193
		c-9.11789,4.40054-21.6851,5.4127-38.07937-3.84416l5.47554,28.25177l12.91077,17.16307c0,0,15.12353,0.91938,28.41657-4.55431
		C146.33864,111.05885,142.93088,104.88142,141.42184,97.80778z"/>
	<path class="st47" d="M71.22486,41.01006c-0.25578-5.12647,0.09885-10.66892,2.10474-14.496
		c1.03522-2.97601,4.4347-4.81242,7.86651-5.94694c-1.52843-0.03331-2.83658-0.02172-2.83658-0.02172
		c3.65939-2.4607,6.88017-2.29681,9.27208-1.42453c0.7388-0.10619,1.33215-0.16531,1.7053-0.20967
		c-1.7053-0.9826-3.61929-1.65773-3.61929-1.65773c5.69071-1.38801,10.55396,1.71085,12.67388,3.39487
		c3.35468,1.13547,6.6184,2.9594,7.63705,5.86571c2.00588,3.82708,2.37112,9.36632,2.11163,14.496
		c0.23505,4.81664,0.02906,8.46545-1.02233,12.06575c-2.8574,6.75695-1.50029,11.83255-0.08681,17.06476l-17.69412,31.18205v0.11038
		l-17.85807-29.7931c1.21812-4.78707,4.06165-12.14383,0.83996-18.62087C71.1935,49.47552,71.01154,45.11096,71.22486,41.01006z"/>
	<path class="st8" d="M97.81246,37.75468c-0.05357,1.61105,1.65173,2.96264,3.80076,3.04113
		c2.149,0.06557,3.95077-1.17659,3.99512-2.78627c0.05725-1.60321-1.64388-2.97553-3.79381-3.04205
		C99.65811,34.90147,97.86374,36.14268,97.81246,37.75468z"/>
	<path class="st131" d="M99.93793,37.55288c-0.1348,0.9914,0.54211,1.89919,1.54507,2.04192
		c0.98676,0.14496,1.90244-0.56567,2.03313-1.5437c0.1376-0.99601-0.54166-1.89138-1.53674-2.04002
		C100.98935,35.88359,100.07463,36.56288,99.93793,37.55288z"/>
	<path class="st8" d="M73.95341,37.75468c-0.03972,1.61105,1.66189,2.96264,3.81461,3.04113
		c2.15363,0.06557,3.93696-1.17659,3.98636-2.78627c0.05862-1.60321-1.64709-2.97553-3.79336-3.04205
		C75.81059,34.90147,74.02035,36.14268,73.95341,37.75468z"/>
	<path class="st131" d="M76.09273,37.55288c-0.14039,0.9914,0.54163,1.89919,1.53582,2.04192
		c0.98584,0.14496,1.8978-0.56567,2.04145-1.5437c0.12743-0.99601-0.55364-1.89138-1.53951-2.04002
		C77.13632,35.88359,76.22158,36.56288,76.09273,37.55288z"/>
	<path class="st57" d="M89.69522,41.7821c1.93571,3.25404,5.94376,4.1351,5.94376,4.1351
		c-3.15244,1.98924-6.30902,8.02258-6.30902,8.02258s-3.01389-6.03334-6.17738-8.02258
		C83.15258,45.9172,87.76323,45.03615,89.69522,41.7821z"/>
	<g>
		<g>
			<defs>
				<path id="SVGID_51_" d="M144.41774,154.51535c-2.58305-16.72993,10.27737-32.61487,20.66136-34.21719
					c8.93552-1.38668,27.4451,9.6415,30.03653,26.3715c2.58582,16.72858-6.66319,32.05435-20.66235,34.21719
					C160.4588,183.05574,147.00777,171.24255,144.41774,154.51535z"/>
			</defs>
			<clipPath id="SVGID_2_">
				<use xlink:href="#SVGID_51_"  style="overflow:visible;"/>
			</clipPath>
			<path style="clip-path:url(#SVGID_2_);fill:#FFFFFF;stroke:#5A3B84;stroke-width:4.53905;stroke-miterlimit:10;" d="
				M146.70207,149.70941l0.52362,3.38284l-4.10178,0.63629l0.29503,1.93015l4.10553-0.63492l0.52036,3.37779l-4.09853,0.63629
				l0.29507,1.93153l4.10458-0.63629l0.52315,3.38005l-4.10182,0.63446l0.29785,1.93199l4.10179-0.63585l0.52274,3.38147
				l-1.96342,0.3029l0.29691,1.93199l1.96616-0.30475l0.59799,3.86444h0.00185l0.21887,1.44624l5.3121-0.82149l0.52361,3.37827
				l-2.2012,0.34076l0.29738,1.93199l2.20399-0.34264l0.1288,0.84781l1.93294-0.29921l-0.13206-0.84689l3.38147-0.52315
				l0.69171,4.46379l1.93152-0.29643l-0.69127-4.46568l3.38196-0.52223l0.69173,4.46289l1.93286-0.29691l-0.6926-4.46565
				l3.3782-0.52408l0.69081,4.46796l1.9306-0.30014l-0.69081-4.46614l3.37962-0.52226l0.69078,4.46709l1.93202-0.30064
				l-0.69125-4.46611l3.37685-0.52226l0.55966,3.62436l1.93288-0.30476l-0.55919-3.61786l4.3438-0.67097l-0.01985-0.11911
				l0.97012-0.15239l-0.80298-5.19061l7.20572-1.11424l-0.29691-1.93149l-1.90013,0.29318l-0.52179-3.37823l2.61816-0.40497
				l-0.29274-1.93153l-2.6237,0.40498l-0.52321-3.38052l4.46799-0.69037l-0.30243-1.93196l-4.46291,0.69031l-0.52458-3.38144
				l4.46938-0.69128l-0.30473-1.93152l-4.46385,0.69125l-0.52039-3.37868l4.46753-0.69034l-0.30618-1.93295l-4.46147,0.69081
				l-0.52179-3.37683l4.46704-0.69218l-0.30107-1.93155l-4.46519,0.69083l-0.52274-3.37549l3.31592-0.51254l-0.29601-1.93152
				l-3.31909,0.513l-0.52179-3.38329l1.29247-0.19997l-0.30017-1.93153l-1.29247,0.19995l-1.19316-7.72476l-1.93292,0.30338
				l1.19318,7.7197l-3.37869,0.52364l-0.52362-3.3778l3.34633-0.51715l-0.29919-1.93107l-3.34731,0.5176l-0.9138-5.91515
				l-1.93246,0.30017l0.18793,1.20291l-3.38052,0.52363l-0.52315-3.37779l-1.92831,0.30064l0.52316,3.37541l-3.38148,0.52411
				l-0.80161-5.1897l-1.93291,0.29922l0.8044,5.18925l-3.38193,0.52363l-0.93182-6.0329l-1.93292,0.29507l0.93457,6.03752
				l-3.37958,0.52312l-0.80392-5.1929l-1.93153,0.30014l0.80344,5.19109l-3.38052,0.52363l-0.52225-3.38052l-1.93248,0.29691
				l0.52226,3.38284l-2.56552,0.39804l0.30014,1.93154l2.56596-0.39667l0.42761,2.77287l-3.37543,0.52179l-0.57814-3.74117
				l-1.93382,0.30011l0.57944,3.74026l-2.20441,0.34216l0.29509,1.93059l2.20949-0.34079l0.5209,3.37827l-3.37964,0.52316
				l-0.20593-1.32851l-1.93106,0.30434l1.02553,6.63641l-2.95479,0.45712l0.30106,1.93152l2.95296-0.45714l0.52455,3.38101
				l-4.10132,0.63539l0.29553,1.92781L146.70207,149.70941z M147.81306,144.10133l3.37915-0.52226l0.52411,3.38147l-3.38008,0.52315
				L147.81306,144.10133z M157.612,137.14587l3.38058-0.52365l0.52411,3.38284l-3.38148,0.52321L157.612,137.14587z
				 M156.20462,140.82654l-3.3773,0.52271l-0.52411-3.38147l3.37547-0.52315L156.20462,140.82654z M174.07927,150.91321
				l0.52318,3.37685l-3.37868,0.52409l-0.52318-3.37778L174.07927,150.91321z M170.40274,149.50301l-0.52316-3.37917
				l3.37917-0.52222l0.52362,3.37915L170.40274,149.50301z M174.90305,156.22296l0.52089,3.38008l-3.37779,0.52408l-0.52315-3.38052
				L174.90305,156.22296z M170.11368,160.42586l-3.37683,0.52321l-0.52361-3.38052l3.37727-0.52368L170.11368,160.42586z
				 M165.91402,155.63608l-0.52411-3.3773l3.37958-0.52408l0.52179,3.37958L165.91402,155.63608z M165.09253,150.32675
				l-0.52454-3.38095l3.37915-0.52226l0.52315,3.37958L165.09253,150.32675z M164.26965,145.01747l-0.52315-3.38052l3.38005-0.52274
				l0.52274,3.37962L164.26965,145.01747z M163.44821,139.70631l-0.52548-3.38284l3.38005-0.52226l0.52226,3.38148
				L163.44821,139.70631z M168.23523,135.5025l3.37962-0.52364l0.52316,3.38284l-3.37958,0.5222L168.23523,135.5025z
				 M172.43819,140.29272l0.52039,3.37685l-3.37917,0.52553l-0.52127-3.37964L172.43819,140.29272z M174.36789,139.99449
				l3.38188-0.52274l0.5209,3.3773l-3.38101,0.52223L174.36789,139.99449z M178.5685,144.77966l0.52315,3.37962l-3.37961,0.5222
				l-0.52039-3.37909L178.5685,144.77966z M179.39182,150.09081l0.52042,3.37779l-3.37642,0.52313l-0.52315-3.37682
				L179.39182,150.09081z M180.21234,155.40056l0.52319,3.38052l-3.37869,0.52322l-0.52458-3.38054L180.21234,155.40056z
				 M181.03333,160.71355l0.52321,3.38011l-3.37732,0.52176l-0.52315-3.37868L181.03333,160.71355z M176.24722,164.91647
				l-3.38008,0.52226l-0.52271-3.38188l3.37917-0.52274L176.24722,164.91647z M170.93652,165.73843l-3.37868,0.52087
				l-0.52458-3.38011l3.38011-0.52271L170.93652,165.73843z M165.62677,166.55852l-3.38284,0.52411l-0.52362-3.38147l3.381-0.52226
				L165.62677,166.55852z M161.42293,161.76958l-0.52364-3.37869l3.3819-0.52406l0.52368,3.38052L161.42293,161.76958z
				 M160.59959,156.45892l-0.52127-3.37868l3.38188-0.52321l0.52087,3.37779L160.59959,156.45892z M159.77951,151.14963
				l-0.52409-3.38284l3.38147-0.52271l0.52315,3.38147L159.77951,151.14963z M158.95714,145.8394l-0.52223-3.38054l3.37958-0.52321
				l0.52318,3.38058L158.95714,145.8394z M157.31097,135.21385l-0.51947-3.37868l3.37868-0.52226l0.52316,3.37732
				L157.31097,135.21385z M162.10214,131.01324l3.37964-0.5213l0.52362,3.37779l-3.37956,0.5222L162.10214,131.01324z
				 M167.41472,130.19272l3.37917-0.52274l0.52084,3.37595l-3.37962,0.52547L167.41472,130.19272z M172.724,129.36987l3.381-0.52182
				l0.52364,3.37732l-3.3819,0.52409L172.724,129.36987z M176.92601,134.15692l0.52318,3.38284l-3.37964,0.52225l-0.52271-3.381
				L176.92601,134.15692z M178.85707,133.85814l3.37964-0.52226l0.52315,3.38332l-3.38005,0.52226L178.85707,133.85814z
				 M183.05817,138.65074l0.52267,3.37685l-3.37958,0.52315l-0.52271-3.3782L183.05817,138.65074z M183.87822,143.95821
				l0.52321,3.37917l-3.37964,0.52267l-0.52226-3.37869L183.87822,143.95821z M184.70065,149.26886l0.52406,3.37778
				l-3.37962,0.52364l-0.52313-3.3782L184.70065,149.26886z M185.52209,154.57912l0.52364,3.37959l-3.38005,0.52364l-0.52226-3.381
				L185.52209,154.57912z M186.34496,159.89166l0.52222,3.38052l-3.37868,0.52315l-0.52223-3.381L186.34496,159.89166z
				 M187.16919,165.20277l0.52274,3.37823l-3.381,0.52361l-0.52409-3.37869L187.16919,165.20277z M182.37662,169.40294
				l-3.37683,0.52364l-0.52226-3.37917l3.3773-0.52267L182.37662,169.40294z M177.06824,170.22487l-3.37822,0.52315
				l-0.52321-3.37868l3.37964-0.52271L177.06824,170.22487z M171.75893,171.04683l-3.3782,0.52267l-0.52367-3.37917l3.37779-0.52177
				L171.75893,171.04683z M166.44823,171.86871l-3.38095,0.52272l-0.52409-3.37964l3.38141-0.52315L166.44823,171.86871z
				 M161.13478,172.69064l-3.37912,0.52364l-0.52367-3.37958l3.37869-0.52136L161.13478,172.69064z M156.93414,167.90408
				l-0.52315-3.38011l3.37868-0.52361l0.52411,3.38052L156.93414,167.90408z M156.11086,162.59154l-0.52179-3.37869l3.37827-0.52362
				l0.52315,3.381L156.11086,162.59154z M155.28896,157.28038l-0.52226-3.37776l3.37958-0.52315l0.52274,3.37776
				L155.28896,157.28038z M154.46931,151.9711l-0.52408-3.38194l3.37869-0.52316l0.52499,3.38101L154.46931,151.9711z
				 M153.64738,146.6604l-0.52321-3.37961l3.37827-0.52359l0.52267,3.38052L153.64738,146.6604z M150.37073,138.26659l0.52411,3.381
				l-3.38194,0.52315l-0.52364-3.381L150.37073,138.26659z M154.85857,132.1344l0.52362,3.37779l-3.3782,0.52362l-0.52318-3.37868
				L154.85857,132.1344z M159.44104,126.60671l0.42944,2.77471l-3.37962,0.52267l-0.42987-2.77379L159.44104,126.60671z
				 M164.75499,125.78428l0.42944,2.77518l-3.38147,0.52226l-0.42944-2.77424L164.75499,125.78428z M170.06427,124.96098
				l0.43039,2.77704l-3.38058,0.52226l-0.42944-2.77475L170.06427,124.96098z M175.37636,124.13814l0.4285,2.77792l-3.37915,0.52316
				l-0.42987-2.77792L175.37636,124.13814z M181.11604,126.0955l-3.37964,0.52184l-0.43039-2.77754l3.37827-0.52407
				L181.11604,126.0955z M181.93703,131.40388l-3.38013,0.52364l-0.52034-3.37726l3.37636-0.52458L181.93703,131.40388z
				 M188.07098,135.89728l-3.37869,0.52222l-0.52545-3.38235l3.38191-0.52271L188.07098,135.89728z M188.89294,141.20518
				l-3.37917,0.52362l-0.52452-3.37773l3.3819-0.52321L188.89294,141.20518z M189.71439,146.51404l-3.38052,0.52226
				l-0.52086-3.37683l3.37732-0.5237L189.71439,146.51404z M190.53452,151.82425l-3.37822,0.52271l-0.52274-3.37637l3.37964-0.52455
				L190.53452,151.82425z M191.3578,157.1368l-3.37917,0.52315l-0.52362-3.38052l3.37962-0.52179L191.3578,157.1368z
				 M192.17839,162.44931l-3.37685,0.52318l-0.52368-3.38008l3.37732-0.52267L192.17839,162.44931z M189.62157,168.28275
				l-0.51991-3.37964l3.37546-0.52089l0.52226,3.37779L189.62157,168.28275z M185.13101,174.4135l-0.52321-3.37779l3.381-0.52362
				l0.52362,3.37915L185.13101,174.4135z M179.82167,175.2368l-0.52177-3.37917l3.37827-0.52226l0.52036,3.37779L179.82167,175.2368
				z M174.511,176.0578l-0.52364-3.3782l3.38057-0.52274l0.52315,3.3782L174.511,176.0578z M169.20172,176.88062l-0.52362-3.37956
				l3.3782-0.52274l0.52274,3.37871L169.20172,176.88062z M163.88779,177.70258l-0.52408-3.37915l3.3842-0.52269l0.52319,3.37773
				L163.88779,177.70258z M158.05161,175.14487l3.38243-0.5222l0.52267,3.3782l-3.381,0.52364L158.05161,175.14487z
				 M151.9218,170.65616l3.37726-0.52087l0.52368,3.37729l-3.37962,0.52315L151.9218,170.65616z M151.09892,165.34456
				l3.37964-0.52226l0.52315,3.381l-3.38005,0.52179L151.09892,165.34456z M150.2784,160.0343l3.37868-0.52271l0.52364,3.37962
				l-3.37917,0.52176L150.2784,160.0343z M149.45694,154.72502l3.37917-0.52274l0.5213,3.37868l-3.37779,0.5237L149.45694,154.72502
				z M148.63406,149.41156l3.37868-0.52408l0.52319,3.38237l-3.37917,0.52362L148.63406,149.41156z"/>
		</g>
		<path class="st133" d="M142.48895,154.81136c2.74797,17.77219,17.22179,30.33614,32.26497,28.00476
			c15.04128-2.32451,25.04022-18.67352,22.29135-36.44566c-1.75513-11.34265-10.38078-20.36082-19.10339-24.90869
			c-0.84547-0.72955-12.3945-10.92101-14.71071-25.88986l-3.86491,0.60073c2.39098,15.44491-5.45937,27.95487-5.54108,28.07864
			l0.03325,0.02398C146.28926,131.19656,140.66599,143.05455,142.48895,154.81136z M163.27826,108.34602
			c2.02989,4.15949,4.42276,7.58619,6.59668,10.23808c-1.81841-0.32138-3.56247-0.45576-5.09642-0.21751
			c-1.48225,0.2286-2.98801,0.7019-4.46658,1.38438C161.49496,116.73801,162.66139,112.87078,163.27826,108.34602z
			 M165.37512,122.22876c7.91455-1.22413,25.40826,9.21437,27.80661,24.74103c2.42244,15.64343-6.11552,29.9866-19.02721,31.98416
			c-12.90892,1.99667-25.38472-9.09898-27.80429-24.73779C143.92876,138.55792,156.13213,123.65929,165.37512,122.22876z"/>
		<g>
			<polygon class="st134" points="156.11829,42.41471 150.08627,43.35302 158.28018,96.33705 164.31586,95.40801 			"/>
		</g>
	</g>
	<g>
		<defs>
			<path id="SVGID_53_" d="M163.7345,68.97694c0,0,4.04039-10.7839-2.46025-16.41827c0,0-8.59056,37.81847-46.36102,29.39318
				l12.21402,23.62407l22.0092,10.62043c0,0,12.95882-0.19021,21.19936-10.03304c7.73073-9.24352,8.24146-17.30583,6.29283-23.87756
				C174.37573,74.70178,166.49121,68.87904,163.7345,68.97694z"/>
		</defs>
		<clipPath id="SVGID_4_">
			<use xlink:href="#SVGID_53_"  style="overflow:visible;"/>
		</clipPath>
		<g style="clip-path:url(#SVGID_4_);">
			<defs>
				<path id="SVGID_55_" d="M165.59721,97.4462c-6.05179,0.02864-9.41248-1.66002-9.41248-1.66002s10.43111-1.84152,11.83351-4.9113
					c0,0-10.2894,5.50327-16.27193,3.00423c0,0,8.29781-1.87429,10.15129-4.57051c0,0-8.35826,5.30975-16.07379,1.06853
					c0,0,9.69554-0.62845,10.95335-3.73194c0,0-8.06274,3.53891-13.89291,1.30357c0,0,36.526-13.20541,18.56546-51.60431
					l25.32559,8.11724l14.13492,19.92537c0,0,1.588,23.83736-23.82352,31.14839c-0.0148,0.00464-0.02864,0.012-0.04709,0.012
					c-4.25465,1.3414-7.93767,1.83273-10.98297,1.89182c-0.18515,0.01614-0.36894,0.03141-0.55916,0.0397
					C165.4975,97.47897,165.53583,97.46604,165.59721,97.4462z"/>
			</defs>
			<use xlink:href="#SVGID_55_"  style="overflow:visible;fill:#B0B1B2;"/>
			<clipPath id="SVGID_6_">
				<use xlink:href="#SVGID_55_"  style="overflow:visible;"/>
			</clipPath>
		</g>
	</g>
	<path class="st136" d="M89.28934,77.54299c12.67804,0,16.59051-8.66396,16.59051-8.66396
		c16.48896,14.40083,23.00756,38.85839,22.23368,53.44159c-0.88105,16.52915-8.46542,29.93583-18.69013,38.70557
		c-14.97574,7.69424-34.07223,2.48283-38.94656,1.26979c-11.07111-10.56964-19.62841-23.30261-19.62841-39.97536
		c0-10.82312,10.23392-40.44724,22.07802-52.21375C72.92645,70.10688,78.12354,77.54299,89.28934,77.54299z"/>
	<rect x="64.91355" y="95.56498" class="st129" width="18.41034" height="3.16352"/>
	<path class="st137" d="M107.62671,31.34268c0,0-18.7114-3.98633-35.89206,0c0,0-1.91539-4.42962,2.21876-6.5348
		c0,0,17.83909-6.04994,32.82181,0.7896C106.77522,25.59748,109.79463,29.82349,107.62671,31.34268z"/>
	<g id="usa_1_">
		<g>
			<polygon class="st17" points="82.89261,101.42424 74.73056,101.42424 74.73056,107.77893 82.89261,107.77893 82.89261,101.42424 
							"/>
			<rect x="65.34487" y="101.45796" class="st17" width="17.51954" height="11.72404"/>
			<path class="st138" d="M82.89261,101.42424v6.35469h-8.16205v-6.35469H82.89261L82.89261,101.42424z M81.85548,101.9183
				l0.2198,0.16074l-0.0771,0.2655l0.22025-0.16257l0.2281,0.18058l-0.08266-0.2835l0.22209-0.16074h-0.28442l-0.08311-0.24657
				l-0.07713,0.24657H81.85548L81.85548,101.9183z M75.11243,107.14496l0.23089,0.16579l-0.08224,0.28766l0.2212-0.18837
				l0.22208,0.18837l-0.0965-0.28766l0.22488-0.16579h-0.26734l-0.08313-0.24474l-0.10066,0.24474H75.11243L75.11243,107.14496z
				 M76.46031,107.14496l0.22346,0.16579l-0.0785,0.28766l0.2212-0.18837l0.2258,0.18837l-0.08128-0.28766l0.22256-0.16579h-0.28442
				l-0.08266-0.24474l-0.07758,0.24474H76.46031L76.46031,107.14496z M77.82616,107.14496l0.2018,0.16579l-0.08218,0.28766
				l0.22581-0.18837l0.23825,0.18837l-0.09882-0.28766l0.22073-0.16579h-0.27843l-0.08173-0.24474l-0.08266,0.24474H77.82616
				L77.82616,107.14496z M79.16946,107.14496l0.22298,0.16579l-0.10387,0.28766l0.23136-0.18837l0.2373,0.18837l-0.1025-0.28766
				l0.22536-0.16579H79.609l-0.08907-0.24474l-0.08593,0.24474H79.16946L79.16946,107.14496z M80.51453,107.14496l0.2212,0.16579
				l-0.08266,0.28766l0.22669-0.18837l0.2212,0.18837l-0.10158-0.28766l0.22208-0.16579h-0.26502l-0.07668-0.24474l-0.10206,0.24474
				H80.51453L80.51453,107.14496z M81.85548,107.14496l0.2198,0.16579l-0.0771,0.28766l0.22025-0.18837l0.2281,0.18837
				l-0.08266-0.28766l0.22209-0.16579h-0.28442l-0.08311-0.24474l-0.07713,0.24474H81.85548L81.85548,107.14496z
				 M75.83276,106.49663l0.22256,0.1649l-0.10298,0.2627l0.22489-0.16531l0.24335,0.18147l-0.09977-0.27886l0.22352-0.1649H76.2562
				l-0.07896-0.24657l-0.07803,0.24657H75.83276L75.83276,106.49663z M77.1723,106.49663l0.22584,0.1649l-0.08313,0.2627
				l0.22396-0.16531l0.22904,0.18147l-0.1067-0.27886l0.23181-0.1649H77.6216l-0.08263-0.24657l-0.10253,0.24657H77.1723
				L77.1723,106.49663z M78.51604,106.49663l0.22209,0.1649l-0.07755,0.2627l0.22117-0.16531l0.22676,0.18147l-0.08456-0.27886
				l0.22447-0.1649H78.9695l-0.08774-0.24657l-0.0771,0.24657H78.51604L78.51604,106.49663z M79.85516,106.49663l0.22765,0.1649
				l-0.08218,0.2627l0.22488-0.16531l0.2221,0.18147l-0.08266-0.27886l0.23089-0.1649h-0.28767l-0.08266-0.24657l-0.08176,0.24657
				H79.85516L79.85516,106.49663z M81.22147,106.49663l0.22394,0.1649l-0.10108,0.2627l0.22578-0.16531l0.24289,0.18147
				l-0.09977-0.27886l0.22352-0.1649h-0.28445l-0.08218-0.24657l-0.07944,0.24657H81.22147L81.22147,106.49663z M75.83276,105.18896
				l0.22256,0.16531l-0.10298,0.26273l0.22489-0.16439l0.24335,0.16439l-0.09977-0.26273l0.22352-0.16531H76.2562l-0.07896-0.23828
				l-0.07803,0.23828H75.83276L75.83276,105.18896z M77.1723,105.18896l0.22584,0.16531l-0.08313,0.26273l0.22396-0.16439
				l0.22904,0.16439l-0.1067-0.26273l0.23181-0.16531H77.6216l-0.08263-0.23828l-0.10253,0.23828H77.1723L77.1723,105.18896z
				 M78.51604,105.18896l0.22209,0.16531l-0.07755,0.26273l0.22117-0.16439l0.22676,0.16439l-0.08456-0.26273l0.22447-0.16531
				H78.9695l-0.08774-0.23828l-0.0771,0.23828H78.51604L78.51604,105.18896z M79.85516,105.18896l0.22765,0.16531l-0.08218,0.26273
				l0.22488-0.16439l0.2221,0.16439l-0.08266-0.26273l0.23089-0.16531h-0.28767l-0.08266-0.23828l-0.08176,0.23828H79.85516
				L79.85516,105.18896z M81.22147,105.18896l0.22394,0.16531l-0.10108,0.26273l0.22578-0.16439L81.813,105.617l-0.09977-0.26273
				l0.22352-0.16531h-0.28445l-0.08218-0.23828l-0.07944,0.23828H81.22147L81.22147,105.18896z M75.83276,103.89144l0.22256,0.15833
				l-0.10298,0.26877l0.22489-0.16484l0.24335,0.16484l-0.09977-0.26877l0.22352-0.15833H76.2562l-0.07896-0.26371l-0.07803,0.26371
				H75.83276L75.83276,103.89144z M77.1723,103.89144l0.22584,0.15833l-0.08313,0.26877l0.22396-0.16484l0.22904,0.16484
				l-0.1067-0.26877l0.23181-0.15833H77.6216l-0.08263-0.26371l-0.10253,0.26371H77.1723L77.1723,103.89144z M78.51604,103.89144
				l0.22209,0.15833l-0.07755,0.26877l0.22117-0.16484l0.22676,0.16484l-0.08456-0.26877l0.22447-0.15833H78.9695l-0.08774-0.26371
				l-0.0771,0.26371H78.51604L78.51604,103.89144z M79.85516,103.89144l0.22765,0.15833l-0.08218,0.26877l0.22488-0.16484
				l0.2221,0.16484l-0.08266-0.26877l0.23089-0.15833h-0.28767l-0.08266-0.26371l-0.08176,0.26371H79.85516L79.85516,103.89144z
				 M81.22147,103.89144l0.22394,0.15833l-0.10108,0.26877l0.22578-0.16484l0.24289,0.16484l-0.09977-0.26877l0.22352-0.15833
				h-0.28445l-0.08218-0.26371l-0.07944,0.26371H81.22147L81.22147,103.89144z M75.83276,102.56758l0.22256,0.16483
				l-0.10298,0.27846l0.22489-0.18148l0.24335,0.18148l-0.09977-0.27846l0.22352-0.16483H76.2562l-0.07896-0.24708l-0.07803,0.24708
				H75.83276L75.83276,102.56758z M77.1723,102.56758l0.22584,0.16483l-0.08313,0.27846l0.22396-0.18148l0.22904,0.18148
				l-0.1067-0.27846l0.23181-0.16483H77.6216l-0.08263-0.24708l-0.10253,0.24708H77.1723L77.1723,102.56758z M78.51604,102.56758
				l0.22209,0.16483l-0.07755,0.27846l0.22117-0.18148l0.22676,0.18148l-0.08456-0.27846l0.22447-0.16483H78.9695l-0.08774-0.24708
				l-0.0771,0.24708H78.51604L78.51604,102.56758z M79.85516,102.56758l0.22765,0.16483l-0.08218,0.27846l0.22488-0.18148
				l0.2221,0.18148l-0.08266-0.27846l0.23089-0.16483h-0.28767l-0.08266-0.24708l-0.08176,0.24708H79.85516L79.85516,102.56758z
				 M81.22147,102.56758l0.22394,0.16483l-0.10108,0.27846l0.22578-0.18148l0.24289,0.18148l-0.09977-0.27846l0.22352-0.16483
				h-0.28445l-0.08218-0.24708l-0.07944,0.24708H81.22147L81.22147,102.56758z M75.11243,105.84744l0.23089,0.15607
				l-0.08224,0.26781l0.2212-0.16579l0.22208,0.16579l-0.0965-0.26781l0.22488-0.15607h-0.26734l-0.08313-0.24708l-0.10066,0.24708
				H75.11243L75.11243,105.84744z M76.46031,105.84744l0.22346,0.15607l-0.0785,0.26781l0.2212-0.16579l0.2258,0.16579
				l-0.08128-0.26781l0.22256-0.15607h-0.28442l-0.08266-0.24708l-0.07758,0.24708H76.46031L76.46031,105.84744z
				 M77.82616,105.84744l0.2018,0.15607l-0.08218,0.26781l0.22581-0.16579l0.23825,0.16579l-0.09882-0.26781l0.22073-0.15607
				h-0.27843l-0.08173-0.24708l-0.08266,0.24708H77.82616L77.82616,105.84744z M79.16946,105.84744l0.22298,0.15607
				l-0.10387,0.26781l0.23136-0.16579l0.2373,0.16579l-0.1025-0.26781l0.22536-0.15607H79.609l-0.08907-0.24708l-0.08593,0.24708
				H79.16946L79.16946,105.84744z M80.51453,105.84744l0.2212,0.15607l-0.08266,0.26781l0.22669-0.16579l0.2212,0.16579
				l-0.10158-0.26781l0.22208-0.15607h-0.26502l-0.07668-0.24708l-0.10206,0.24708H80.51453L80.51453,105.84744z
				 M81.85548,105.84744l0.2198,0.15607l-0.0771,0.26781l0.22025-0.16579l0.2281,0.16579l-0.08266-0.26781l0.22209-0.15607h-0.28442
				l-0.08311-0.24708l-0.07713,0.24708H81.85548L81.85548,105.84744z M75.11243,104.54015l0.23089,0.16442l-0.08224,0.26318
				l0.2212-0.16436l0.22208,0.16436l-0.0965-0.26318l0.22488-0.16442h-0.26734l-0.08313-0.26318l-0.10066,0.26318H75.11243
				L75.11243,104.54015z M76.46031,104.54015l0.22346,0.16442l-0.0785,0.26318l0.2212-0.16436l0.2258,0.16436l-0.08128-0.26318
				l0.22256-0.16442h-0.28442l-0.08266-0.26318l-0.07758,0.26318H76.46031L76.46031,104.54015z M77.82616,104.54015l0.2018,0.16442
				l-0.08218,0.26318l0.22581-0.16436l0.23825,0.16436l-0.09882-0.26318l0.22073-0.16442h-0.27843l-0.08173-0.26318
				l-0.08266,0.26318H77.82616L77.82616,104.54015z M79.16946,104.54015l0.22298,0.16442l-0.10387,0.26318l0.23136-0.16436
				l0.2373,0.16436l-0.1025-0.26318l0.22536-0.16442H79.609l-0.08907-0.26318l-0.08593,0.26318H79.16946L79.16946,104.54015z
				 M80.51453,104.54015l0.2212,0.16442l-0.08266,0.26318l0.22669-0.16436l0.2212,0.16436l-0.10158-0.26318l0.22208-0.16442
				h-0.26502l-0.07668-0.26318l-0.10206,0.26318H80.51453L80.51453,104.54015z M81.85548,104.54015l0.2198,0.16442l-0.0771,0.26318
				l0.22025-0.16436l0.2281,0.16436l-0.08266-0.26318l0.22209-0.16442h-0.28442l-0.08311-0.26318l-0.07713,0.26318H81.85548
				L81.85548,104.54015z M75.11243,103.24128l0.23089,0.1602l-0.08224,0.26829l0.2212-0.16579l0.22208,0.16579l-0.0965-0.26829
				l0.22488-0.1602h-0.26734l-0.08313-0.27156l-0.10066,0.27156H75.11243L75.11243,103.24128z M76.46031,103.24128l0.22346,0.1602
				l-0.0785,0.26829l0.2212-0.16579l0.2258,0.16579l-0.08128-0.26829l0.22256-0.1602h-0.28442l-0.08266-0.27156l-0.07758,0.27156
				H76.46031L76.46031,103.24128z M77.82616,103.24128l0.2018,0.1602l-0.08218,0.26829l0.22581-0.16579l0.23825,0.16579
				l-0.09882-0.26829l0.22073-0.1602h-0.27843l-0.08173-0.27156l-0.08266,0.27156H77.82616L77.82616,103.24128z M79.16946,103.24128
				l0.22298,0.1602l-0.10387,0.26829l0.23136-0.16579l0.2373,0.16579l-0.1025-0.26829l0.22536-0.1602H79.609l-0.08907-0.27156
				l-0.08593,0.27156H79.16946L79.16946,103.24128z M80.51453,103.24128l0.2212,0.1602l-0.08266,0.26829l0.22669-0.16579
				l0.2212,0.16579l-0.10158-0.26829l0.22208-0.1602h-0.26502l-0.07668-0.27156l-0.10206,0.27156H80.51453L80.51453,103.24128z
				 M81.85548,103.24128l0.2198,0.1602l-0.0771,0.26829l0.22025-0.16579l0.2281,0.16579l-0.08266-0.26829l0.22209-0.1602h-0.28442
				l-0.08311-0.27156l-0.07713,0.27156H81.85548L81.85548,103.24128z M75.11243,101.9183l0.23089,0.16074l-0.08224,0.2655
				l0.2212-0.16257l0.22208,0.18058l-0.0965-0.2835l0.22488-0.16074h-0.26734l-0.08313-0.24657l-0.10066,0.24657H75.11243
				L75.11243,101.9183z M76.46031,101.9183l0.22346,0.16074l-0.0785,0.2655l0.2212-0.16257l0.2258,0.18058l-0.08128-0.2835
				l0.22256-0.16074h-0.28442l-0.08266-0.24657l-0.07758,0.24657H76.46031L76.46031,101.9183z M77.82616,101.9183l0.2018,0.16074
				l-0.08218,0.2655l0.22581-0.16257l0.23825,0.18058l-0.09882-0.2835l0.22073-0.16074h-0.27843l-0.08173-0.24657l-0.08266,0.24657
				H77.82616L77.82616,101.9183z M79.16946,101.9183l0.22298,0.16074l-0.10387,0.2655l0.23136-0.16257l0.2373,0.18058
				l-0.1025-0.2835l0.22536-0.16074H79.609l-0.08907-0.24657L79.434,101.9183H79.16946L79.16946,101.9183z M80.73573,102.07904
				l-0.08266,0.2655l0.22669-0.16257l0.2212,0.18058l-0.10158-0.2835l0.22208-0.16074h-0.26502l-0.07668-0.24657l-0.10206,0.24657
				h-0.26318L80.73573,102.07904z"/>
		</g>
		<g>
			<rect x="65.34487" y="108.67567" class="st139" width="17.54774" height="0.91157"/>
			<rect x="65.34487" y="112.30006" class="st139" width="17.54774" height="0.91148"/>
			<rect x="65.34487" y="110.48766" class="st139" width="17.54774" height="0.9124"/>
			<rect x="65.34487" y="106.8633" class="st139" width="9.38569" height="0.91564"/>
			<rect x="65.34487" y="101.42424" class="st139" width="9.38569" height="0.9203"/>
			<rect x="65.34487" y="103.24128" class="st139" width="9.38569" height="0.91243"/>
			<rect x="65.34487" y="105.04905" class="st139" width="9.38569" height="0.91611"/>
		</g>
	</g>
	<path class="st139" d="M142.14636,79.01003l-1.36865,7.32256c0,0-18.44679,5.07286-21.40111,0
		c-2.95387-5.07055-3.98589-6.6327-3.98589-6.6327S130.48236,83.76472,142.14636,79.01003z"/>
	<path class="st139" d="M30.9563,85.33059l3.5177,8.77061c0,0,20.46742,1.49982,27.6353-8.12093
		c3.51027-4.70255,4.8106-8.14591,4.8106-8.14591S48.54837,88.58597,30.9563,85.33059z"/>
	<path class="st130" d="M140.77771,86.3326c0,0-12.79488,3.29739-21.16978,0.30474l1.85625,3.98268c0,0,5.41502,3.09934,19.13716,0
		C140.60135,90.62002,140.85529,88.32231,140.77771,86.3326z"/>
	<path class="st130" d="M33.75964,92.32576c0,0,14.36853,2.36236,28.73618-6.83081l-2.57987,5.24049
		c0,0-11.23274,8.6095-24.95619,5.51064L33.75964,92.32576z"/>
	<path class="st137" d="M106.48105,68.05991l-16.79504,9.47851l-17.22683-9.47851l-0.85661,3.10807l18.08344,9.92917
		l18.40844-10.16421C108.09445,70.93294,106.66761,68.8093,106.48105,68.05991z"/>
</g>
</svg>
