<?xml version="1.0" encoding="utf-8"?>
<!-- Generator: Adobe Illustrator 20.0.0, SVG Export Plug-In . SVG Version: 6.00 Build 0)  -->
<!DOCTYPE svg PUBLIC "-//W3C//DTD SVG 1.1//EN" "http://www.w3.org/Graphics/SVG/1.1/DTD/svg11.dtd">
<svg version="1.1" id="Layer_1" xmlns="http://www.w3.org/2000/svg" xmlns:xlink="http://www.w3.org/1999/xlink" x="0px" y="0px"
	 viewBox="0 0 669 800" style="enable-background:new 0 0 669 800;" xml:space="preserve">
<style type="text/css">
	.st0{fill:#BA212F;}
	.st1{fill:#C9C7C6;}
	.st2{fill:#27397D;}
	.st3{fill:#FFFFFF;}
	.st4{fill:#454850;}
	.st5{fill:#D7D7D5;}
	.st6{fill:#E3E1E1;}
	.st7{fill:#2B2B34;}
	.st8{fill:#BA7B2A;}
	.st9{fill:#C9C5C4;}
	.st10{fill:#B7B8BA;}
	.st11{fill-rule:evenodd;clip-rule:evenodd;fill:#FFFFFF;}
	.st12{fill-rule:evenodd;clip-rule:evenodd;fill:#FFFFFF;stroke:#999999;stroke-miterlimit:10;}
	.st13{fill:none;stroke:#000000;stroke-width:2;stroke-miterlimit:10;}
	.st14{fill:#E2E1E1;}
	.st15{fill:none;}
	.st16{fill:#C1272D;}
	.st17{fill:#2B2A34;}
	.st18{fill:#E71C2D;}
	.st19{fill:none;stroke:#CBC9C8;stroke-width:0.1034;stroke-miterlimit:10;}
	.st20{fill:#D8D7D6;}
	.st21{fill:#E4E4E4;}
	.st22{fill:#424750;}
	.st23{fill:#2B2C2D;}
	.st24{fill:#FF0000;}
	.st25{clip-path:url(#SVGID_2_);}
</style>
<path d="M281.2,349.7c0,0,9.8-95.7-53.1-103c1.6-0.4,64.8-21.1,121.8-19.5c56.9,1.6,104.3,15.8,104.3,15.8s-43.9,35.8-41.1,105
	C413.4,346.8,281.2,349.7,281.2,349.7z"/>
<path class="st0" d="M292.8,342.6c0,0-1.8-88.6-64.7-95.9c1.6-0.4,64.8-21.1,121.8-19.5c56.9,1.6,104.3,15.8,104.3,15.8
	s-53.7,30-50.9,99.2C403.6,341,292.8,342.6,292.8,342.6z"/>
<path d="M398.9,587.7l-0.3,0c33.7-17.6,56.5-51.8,56.5-91.2c0-57.3-48.4-103.7-108-103.7c-59.6,0-108,46.4-108,103.7
	c0,39.4,22.8,73.6,56.5,91.2l-0.3,0c16.3,9.4,28.2,25.3,31.7,43.9c0.7-0.4,4.1-2,8.5,0.1v-32.1c3.8,0.4,7.6,0.6,11.5,0.6
	c3.9,0,7.7-0.2,11.5-0.6v32.1c4.5-2.1,7.9-0.4,8.5-0.1C370.7,612.9,382.6,597.1,398.9,587.7z"/>
<g>
	<path d="M354.5,638.4l0.5-0.3l-0.5-0.4v-8c0-1,0.8-1.8,1.8-1.8c0,0,2.5,2.2,7,2.2c4.5,0,6.5-2.2,7.8-2.2c0.2,0,0-1,1.1,0
		c6.9,6.4,22.3,7.8,22.3,7.8c0.9,0,1.4,1.4,0.6,2.3c-0.1,0.1-0.4,0.3-0.4,0.5l0.5,0.5c0,1-0.8,1.9-1.8,1.9h-37c-1,0-1.8-0.8-1.8-1.9
		V638.4z"/>
	<path d="M339.4,638.8c0,1-0.8,1.9-1.9,1.9h-37c-1,0-1.8-0.8-1.8-1.9l0.5-0.5c0-0.2-0.3-0.4-0.4-0.5c-0.8-0.9-0.2-2.3,0.6-2.3
		c0,0,15.4-1.3,22.3-7.8c1.1-1,0.9,0,1.1,0c1.2,0,3.3,2.2,7.8,2.2c4.5,0,7-2.2,7-2.2c1,0,1.9,0.8,1.9,1.8v8l-0.5,0.4l0.5,0.3V638.8z
		"/>
</g>
<path d="M339.6,552.8c-0.8,0-50.9-3.4-57.9-14.7c-0.9-1.3-2.1-6.5-1.4-11.2c1.7-10.5,6.9-11.9,7.5-10.5c8,18.3,51.2,19.9,52.5,20
	c1,0,45.1,0,53-15.1c2.3-4.4,8.6,14.1,6,18.3C391.4,552.2,339.6,552.8,339.6,552.8z"/>
<path d="M191.7,487.6c32.7,13.5,63.5,0.7,63.5,0.7l54.3-63.9l-1.6-88.8c-43.6,38.5-82.2,43.5-112.5,36.1c9.3,16.7,14.7,36,14.7,56.5
	C210,450.5,202.6,469.9,191.7,487.6z"/>
<path class="st1" d="M277.2,407c0-38.5,31.3-69.7,69.7-69.7c38.5,0,69.8,31.3,69.8,69.7c0,38.5-31.3,69.8-69.8,69.8
	C308.5,476.7,277.2,445.4,277.2,407z M278.3,407c0,37.9,30.8,68.7,68.7,68.7c37.9,0,68.7-30.8,68.7-68.7c0-37.9-30.8-68.7-68.7-68.7
	C309.1,338.3,278.3,369.1,278.3,407z"/>
<path class="st2" d="M220.6,467.3c0,47.7,21.9,89.7,55.2,114.7c20.5-7.6,61.3-30.6,71.3-96.2c0,0,5.6,70.6,72,95.6
	c32.9-25.1,54.5-66.8,54.5-114.1c0-76.7-56.7-138.8-126.5-138.8C277.3,328.5,220.6,390.7,220.6,467.3z"/>
<path class="st3" d="M220.6,467.3c0,47.7,21.9,89.7,55.2,114.7c20.5-7.6,61.3-30.6,71.3-96.2c0,0,5.6,70.6,72,95.6
	c32.9-25.1,54.5-66.8,54.5-114.1c0-76.7-56.7-138.8-126.5-138.8C277.3,328.5,220.6,390.7,220.6,467.3z"/>
<g>
	<path class="st4" d="M346.1,330c3.4,0,6.1,2.7,6.1,6.1c0,3.4-2.7,6.1-6.1,6.1c-3.4,0-6.1-2.7-6.1-6.1
		C340,332.8,342.7,330,346.1,330z"/>
	<path class="st5" d="M346.1,334.7c0.8,0,1.4,0.6,1.4,1.4c0,0.8-0.6,1.4-1.4,1.4c-0.8,0-1.4-0.6-1.4-1.4
		C344.7,335.3,345.3,334.7,346.1,334.7z"/>
</g>
<g>
	<path class="st4" d="M346.1,348.5c3.4,0,6.1,2.7,6.1,6.1c0,3.3-2.7,6.1-6.1,6.1c-3.4,0-6.1-2.7-6.1-6.1
		C340,351.2,342.7,348.5,346.1,348.5z"/>
	<path class="st5" d="M346.1,353.2c0.8,0,1.4,0.6,1.4,1.4c0,0.8-0.6,1.4-1.4,1.4c-0.8,0-1.4-0.6-1.4-1.4
		C344.7,353.8,345.3,353.2,346.1,353.2z"/>
</g>
<path class="st6" d="M293.6,263.2c10.1,20.2,4.1,46.6,0.3,61.6v11.3l52.8,78.3v-0.3l53.8-72.9l1.4-24.4c-4.4-16.3-8.7-32.2,0.3-53.3
	c3.3-11.2,3.9-22.6,3.2-37.7c0.8-16-0.3-33.3-6.6-45.3c-3.2-9.1-13.4-14.8-23.8-18.3c-6.6-5.2-21.8-14.9-39.6-10.6
	c0,0,6,2.1,11.3,5.2c-1.2,0.1-3,0.3-5.3,0.7c-7.5-2.7-17.5-3.2-28.9,4.4c0,0,4.1,0,8.9,0.1c-10.7,3.5-21.3,9.3-24.6,18.6
	c-6.3,11.9-7.4,29.3-6.6,45.3C289.5,238.6,290.1,252.2,293.6,263.2z"/>
<path class="st3" d="M322.8,215.6c0.2,5-5.2,9.2-11.9,9.5c-6.7,0.2-12.3-3.7-12.5-8.7c-0.2-5,5.2-9.3,11.9-9.5
	C317,206.7,322.6,210.6,322.8,215.6z"/>
<path class="st7" d="M316.1,215c0.4,3.1-1.7,5.9-4.8,6.4c-3.1,0.4-5.9-1.8-6.4-4.8c-0.4-3.1,1.7-5.9,4.8-6.4
	C312.8,209.8,315.7,211.9,316.1,215z"/>
<path class="st3" d="M397.2,215.6c0.1,5-5.2,9.2-11.9,9.5c-6.7,0.2-12.3-3.7-12.4-8.7c-0.2-5,5.1-9.3,11.8-9.5
	C391.4,206.7,397,210.6,397.2,215.6z"/>
<path class="st7" d="M390.6,215c0.4,3.1-1.7,5.9-4.8,6.4c-3.1,0.4-5.9-1.8-6.4-4.8c-0.4-3.1,1.7-5.9,4.8-6.4
	C387.3,209.8,390.2,211.9,390.6,215z"/>
<path class="st6" d="M198.5,371.6c0,0,38.6,59.4-0.5,118c0,0-54.3-18.8-72.7-56.2c-20.4-41.6-2.3-51.4-2.3-51.4s0.2,11.2,5.2,19.9
	c3,5.2,5.8,9,7.9,10.8c0,0-5.2-6.7-8-13.8c-7.2-17.7-0.5-44.5-0.4-42.4c1.5,20.9,22.5,39.4,11.2,24.6c-6.4-8.3-10.7-21.8-9.4-30.2
	c1.4-9,14.2-21,16.2-20.5c4.1,1-2.3,1.8-1.8,18.3c0.5,15.5,6.7,22.2,6.7,22.2s-3.9-1.3-4.8-22.5c-0.9-20.8,17.3-24.3,26.4-21.1
	c0.2,0.1,1.1,0.2,1.1,0.2v11.8c0,0-0.5,0.3-0.7,0.4c-3.3,2.2-4.4,6.4,1.2,14.6C182.5,367,198.5,371.6,198.5,371.6"/>
<path d="M188.9,367.4c0,0,36.6,67.1,0,119c0,0,5.2,3.9,19.8,6c0,0,26.6-69.4,0-118.4C208.7,374,195.3,371.6,188.9,367.4z"/>
<path class="st10" d="M148.7,300.8c-3.8-13.8,2.3-38.2,7.8-48.6h14h14c5.5,10.4,11.6,34.8,7.8,48.6c-3.8,13.8-19.3,23.1-19.3,23.1
	v44.2c0,4,7.3,8,12.4,9.7c5.1,1.7,5.1,1.3,5.1,1.3v2.1h-20h-20v-2.1c0,0,0,0.4,5.1-1.3c5.1-1.6,12.4-5.6,12.4-9.7v-44.2
	C168.1,323.9,152.5,314.6,148.7,300.8"/>
<path class="st0" d="M191.7,288.2c0.2,4.5-0.1,8.6-1.1,12.1c-3.6,13-18.4,22-18.5,22.1l-0.2,0.1h-2.6l-0.2-0.1
	c-0.1-0.1-15-9.1-18.5-22.1c-0.9-3.4-1.2-7.6-1.1-12.1c0,0,8.5-3.1,21.1,0C183.2,291.4,191.7,288.2,191.7,288.2"/>
<path d="M414.7,541.9c36.1,5,45.7-12.6,45.7-12.6c27.5-60.4,3.7-114.8,3.7-114.8c-16.3,15.1-47.8,8.5-47.8,8.5
	C448.6,476.6,414.8,541.9,414.7,541.9z"/>
<path d="M394.4,419.4c0,0,13,3.3,22,3.5c0,0,32.8,45.2-1.6,118.9c0,0-11.8-0.5-23.8-5.5C391,536.4,420,480.3,394.4,419.4z"/>
<path class="st3" d="M402,316.7c-6.1,69.4,20,74.7,20,74.7s-147,1.2-147.6,0c15.2-2.7,21-74,21-74s37,33.2,52.2,34.6
	C360.3,353.2,402,316.7,402,316.7z"/>
<g>
	<g>
		<path class="st11" d="M343,351.4l5.7,47.1v29.1c0,0-21.7-27.7-29.4-46.5c-6.3-15.4-23.7-60.8-23.7-60.8s16.7,16.4,23.6,20.9
			C324.1,344.4,343,351.4,343,351.4z"/>
		<g>
			<path d="M286.2,343.2c0,0,3.8,2,9.5,5c1.4,0.7,3,1.5,4.6,2.4c1.6,0.8,3.4,1.7,5.2,2.6c0.9,0.4,1.8,0.9,2.7,1.3
				c0.9,0.4,1.9,0.9,2.8,1.3c1.9,0.9,3.8,1.8,5.8,2.6c1.9,0.9,3.9,1.7,5.8,2.5c1.9,0.8,3.9,1.5,5.7,2.2c1.9,0.6,3.7,1.3,5.4,1.9
				c1.7,0.5,3.4,1,4.9,1.5c1.5,0.4,3,0.7,4.2,1c1.3,0.4,2.4,0.5,3.3,0.7c1.8,0.3,2.9,0.5,2.9,0.5s-1.1,0-3,0c-0.9,0-2.1,0.1-3.4-0.1
				c-1.3-0.1-2.8-0.3-4.4-0.5c-1.6-0.3-3.3-0.6-5.2-1c-1.8-0.5-3.7-1-5.7-1.5c-1.9-0.7-3.9-1.3-5.9-2c-2-0.8-4-1.6-6-2.5
				c-2-0.9-3.9-1.8-5.8-2.8c-1.9-0.9-3.7-2-5.5-2.9c-1.8-1-3.4-2-5-3c-1.6-1-3-1.9-4.4-2.8c-2.7-1.8-4.8-3.4-6.3-4.6
				C287,343.9,286.2,343.2,286.2,343.2z"/>
		</g>
		<path class="st12" d="M295.6,313.6c0,0,6.1,11.1,19.9,20.9C331.5,346,349,352,349,352s-13.6,3.5-16.3,13.6
			c-1.1,4.1-0.5,13.4-0.5,13.4s-26.4-27.9-36.7-58.7C295,318.7,295.6,313.6,295.6,313.6z"/>
	</g>
	<g>
		<path class="st11" d="M354.1,351l-5.7,47.1v29.1c0,0,21.7-27.7,29.4-46.5c6.3-15.4,23.7-60.8,23.7-60.8s-16.7,16.4-23.6,20.9
			C373,344,354.1,351,354.1,351z"/>
		<g>
			<path d="M350.2,368.8c0,0,3.6-1.7,9-4.2c1.3-0.6,2.8-1.3,4.4-2c1.5-0.7,3.2-1.5,4.8-2.3c1.7-0.8,3.4-1.7,5.1-2.5
				c1.8-0.8,3.5-1.8,5.3-2.7c1.7-0.9,3.5-1.8,5.2-2.7c1.7-1,3.4-1.8,5-2.8c1.6-1,3.2-1.8,4.6-2.7c1.4-0.9,2.8-1.7,4.1-2.5
				c1.2-0.8,2.4-1.6,3.4-2.2c1-0.7,1.8-1.3,2.6-1.8c1.4-1,2.3-1.6,2.3-1.6s-0.7,0.7-1.9,2c-0.6,0.6-1.3,1.4-2.2,2.3
				c-0.9,0.8-1.9,1.7-3.1,2.7c-1.2,1-2.5,1.9-3.8,3c-1.4,1.1-2.9,2-4.5,3.1c-0.8,0.5-1.6,1-2.4,1.5c-0.8,0.5-1.7,1-2.5,1.5
				c-1.7,1-3.5,1.9-5.3,2.9c-1.8,0.9-3.6,1.8-5.4,2.6c-1.8,0.8-3.6,1.6-5.3,2.3c-1.7,0.7-3.4,1.4-5.1,2c-1.6,0.6-3.2,1.1-4.6,1.6
				C354.2,368.1,350.2,368.8,350.2,368.8z"/>
		</g>
		<path class="st12" d="M401.5,313.2c0,0-6.1,11.1-19.9,20.9C365.5,345.6,349,352,349,352s12.6,3.1,15.3,13.2
			c1.1,4.1,0.5,13.4,0.5,13.4s26.4-27.9,36.7-58.7C402.1,318.3,401.5,313.2,401.5,313.2z"/>
	</g>
	<path class="st6" d="M317.9,454.9c-0.1-0.2-0.2-0.3-0.2-0.3c0.2,0.6,0.4,1.2,0.7,1.8c3,9.7,8.1,21,16.4,33.4c0,0.1,0,0.1,0.1,0.1
		c17.8,28,39.6,41.6,59.7,47.6c10.9-17.7,17.2-38.5,17.2-60.9c0-20.5-5.3-39.8-14.7-56.5c-43.6-10.7-70.2-46.9-70.2-46.9
		c-1.7,20.7,17.3,43.2,17.3,43.2c-11.1-1.1-22.3-31.5-22.3-31.5c-6.3,28.7,18.5,50.4,18.5,50.4c-10.4-3.4-24.2-28.2-24.2-28.2
		c-2.4,21.5,24.9,49.3,24.9,49.3c-11.1-1.6-26.8-33.3-26.8-33.3S312.2,435.5,317.9,454.9z"/>
</g>
<g>
	<path d="M276,352.9c-34,25-54.9,67-54.9,114.5c0,47.5,20.9,89.5,54.9,114.5V352.9z"/>
	<path d="M419,353.1v228.3c0,0,0.1,0,0.2,0.1c32.9-25.1,54.5-66.8,54.5-114.1C473.7,419.9,452,378.1,419,353.1z"/>
</g>
<polygon class="st3" points="331.8,244.3 335.4,265 339.6,244.3 "/>
<polygon class="st3" points="358.5,243.3 362.2,264 366.4,243.3 "/>
<path class="st4" d="M348.2,234.1c-6,10.2-18.7,10.4-18.7,10.4c9.8,6.2,19.7,25.5,19.7,25.5s9.4-20.7,19.3-26.9
	C368.5,243.1,354.3,244.3,348.2,234.1z"/>
<path class="st13" d="M351.9,370.5c-0.1-1.7-2.2-2.3-3.3-1c-3.5,4.2-9.4,12.1-10.4,18.3c-0.7,4.1,1.3,5.6,3.7,6.1
	c4.7,0.9,9.1-2.9,9.1-7.7C351,383.9,352.3,376.2,351.9,370.5z"/>
<path class="st13" d="M352.1,369.7c-0.6-1.6,1.1-3,2.6-2.3c4.9,2.3,13.6,7,17.2,12.1c2.4,3.4,1.2,5.6-0.8,7
	c-3.9,2.8-9.4,1.2-11.5-3.1C358.6,381.5,354.1,375,352.1,369.7z"/>
<g>
	<path d="M352.8,367.7c0,0,0,0.3,0.1,0.8c0,0.5,0.1,1.3,0.2,2.4c0,0.5,0,1.1,0,1.7c0,0.6,0,1.3-0.1,2c-0.1,1.4-0.4,3.1-0.8,4.8
		c-0.4,1.7-0.9,3.5-1.1,5.5c-0.3,1.9-0.3,4-0.2,6.2c0,0.5,0,1.1,0.1,1.6c0,0.6,0.1,1.1,0.1,1.7c0.1,1.1,0.3,2.2,0.5,3.3
		c0.4,2.2,1.1,4.3,2,6.5c0.8,2.2,1.6,4.5,2,6.8c0.4,2.3,0.5,4.6,0.6,6.9c0,2.2-0.1,4.4-0.5,6.4c-0.4,2-1,3.9-1.5,5.5
		c-0.5,1.7-0.9,3.2-1.2,4.6c-0.1,0.7-0.2,1.3-0.3,2c-0.1,0.6-0.1,1.2-0.2,1.7c-0.1,1-0.1,1.8-0.1,2.4c0,0.5,0,0.8,0,0.8
		s0-0.3-0.1-0.8c0-0.5-0.1-1.3-0.2-2.4c0-0.5,0-1.1,0-1.7c0-0.6,0-1.3,0.1-2c0.1-1.4,0.4-3.1,0.8-4.8c0.4-1.7,0.9-3.5,1.1-5.5
		c0.3-2,0.3-4,0.2-6.1c-0.1-2.2-0.3-4.4-0.7-6.6c-0.4-2.2-1.1-4.3-2-6.5c-0.8-2.2-1.6-4.5-2-6.8c-0.2-1.2-0.3-2.3-0.4-3.5
		c0-0.6-0.1-1.1-0.1-1.7c0-0.6,0-1.1,0-1.7c0-2.2,0.1-4.4,0.5-6.4c0.4-2,1-3.9,1.5-5.5c0.5-1.7,0.9-3.2,1.2-4.6
		c0.1-0.7,0.2-1.3,0.3-2c0.1-0.6,0.1-1.2,0.2-1.7c0.1-1,0.1-1.8,0.1-2.4C352.7,368,352.8,367.7,352.8,367.7z"/>
</g>
<g>
	<path d="M351.1,367.2c0,0,0.2,0.2,0.5,0.7c0.3,0.5,0.8,1.1,1.3,2c0.3,0.4,0.5,0.9,0.8,1.5c0.3,0.5,0.6,1.2,0.9,1.8
		c0.6,1.3,1.1,2.9,1.6,4.6c0.5,1.7,0.9,3.5,1.6,5.3c0.7,1.8,1.7,3.7,2.7,5.5c0.3,0.5,0.5,0.9,0.8,1.4c0.3,0.5,0.6,0.9,0.9,1.4
		c0.6,0.9,1.3,1.8,2,2.6c1.4,1.7,3,3.3,4.8,4.8c1.8,1.5,3.6,3.2,5,5.1c1.5,1.8,2.7,3.8,3.8,5.8c1.1,1.9,2,3.9,2.6,5.9
		c0.7,2,1,3.9,1.3,5.6c0.3,1.7,0.7,3.2,1.2,4.6c0.2,0.7,0.4,1.3,0.7,1.9c0.2,0.6,0.4,1.1,0.7,1.5c0.4,0.9,0.8,1.6,1,2.1
		c0.2,0.5,0.4,0.8,0.4,0.8s-0.2-0.2-0.5-0.7c-0.3-0.5-0.8-1.1-1.3-2c-0.3-0.4-0.5-0.9-0.8-1.5c-0.3-0.5-0.6-1.2-0.9-1.8
		c-0.6-1.3-1.1-2.9-1.6-4.6c-0.5-1.7-0.9-3.5-1.6-5.3c-0.7-1.8-1.6-3.6-2.7-5.5c-1.1-1.9-2.3-3.7-3.7-5.4c-1.4-1.7-3-3.3-4.8-4.8
		c-1.8-1.5-3.6-3.2-5-5.1c-0.7-0.9-1.4-1.9-2-2.9c-0.3-0.5-0.6-1-0.9-1.4c-0.3-0.5-0.6-1-0.8-1.5c-1.1-1.9-2-3.9-2.6-5.9
		c-0.7-2-1-3.9-1.3-5.6c-0.3-1.7-0.7-3.2-1.2-4.6c-0.2-0.7-0.4-1.3-0.7-1.9c-0.2-0.6-0.4-1.1-0.7-1.5c-0.4-0.9-0.8-1.6-1-2.1
		C351.2,367.5,351.1,367.2,351.1,367.2z"/>
</g>
<path class="st14" d="M165.6,326.5l1,16.4c0,0,1.3-5.2,10.3-6.2c1.7-0.3,6.5-0.5,6.5-0.5s-3.4-4.2-10.8-7.7
	C168.4,326.5,165.6,326.5,165.6,326.5"/>
<g>
	<path class="st0" d="M334.1,265.1c0,0-3.4,6,0.1,6.4C337.7,272,334.1,265.1,334.1,265.1z"/>
</g>
<g>
	<path class="st0" d="M333.6,276.1c0,0-2.5,4.3,0.1,4.7C336.3,281.1,333.6,276.1,333.6,276.1z"/>
</g>
</svg>
