<svg xmlns="http://www.w3.org/2000/svg" viewBox="0 0 90.31 116.19"><defs><style>.cls-1{fill:#e1e2e2;}.cls-2{fill:#096d72;}.cls-3{fill:#595e63;}.cls-16,.cls-18,.cls-4{fill:none;stroke-miterlimit:10;}.cls-4{stroke:#cbcaca;}.cls-16,.cls-4{stroke-width:0.37px;}.cls-5{fill:#2a2e35;}.cls-6{fill:#454751;}.cls-7{fill:#dbdcd9;}.cls-8{fill:#2b2b35;}.cls-9{fill:#e7e6e6;}.cls-10{fill:#2a2b35;}.cls-11{fill:#434851;}.cls-12{fill:#088a97;}.cls-13{fill:#275775;}.cls-14{fill:#45c3cf;}.cls-15{fill:#fff;}.cls-16{stroke:#81c0ad;}.cls-17{fill:#c8c6c6;}.cls-18{stroke:#9d9d9d;stroke-width:0.35px;}.cls-19{fill:#e7e6e5;}.cls-20{fill:#9d9d9d;}.cls-21{fill:#4c93b7;}.cls-22{fill:#fac348;}.cls-23{fill:#fff8a1;}.cls-24{fill:#fd4f57;}</style></defs><title>Asset 16</title><g id="Layer_2" data-name="Layer 2"><g id="Layer_1-2" data-name="Layer 1"><path class="cls-1" d="M83.78,59.37c-1.78-4.31-2.85-2.22-5.58-1.71,0,0,2.41-3.74-.06-2.79,0,0,1.65-4.88-1.08-4.57,0,0,1.52-7.23-2.6-4C67,52.14,53.72,57.78,36.78,43.76L38.05,65.2,50.8,80.29S69.13,86.38,80,67.93v-.06a30.11,30.11,0,0,0,3.68-8.24.92.92,0,0,0,.13-.44c.06.13.06.13,0,.19"/><path class="cls-2" d="M66,80a52.23,52.23,0,0,1-17.63,2.41L38.56,62.22l.7-19.6c9.64,9.64,18.58,10.54,25.56,8.83,0,0-1.84,4-2.35,12.54A33.41,33.41,0,0,0,66,80Z"/><path class="cls-3" d="M17.44,104.65h.06A23.06,23.06,0,0,1,4.88,84.23C4.88,71.42,15.73,61,29,61s24.16,10.4,24.16,23.21a23.18,23.18,0,0,1-12.62,20.42h.06a14.33,14.33,0,0,0-7.1,9.83,2.24,2.24,0,0,0-1.9,0v-7.17c-.82.06-1.71.13-2.6.13s-1.71-.06-2.6-.13v7.17a2.21,2.21,0,0,0-1.9,0A14.52,14.52,0,0,0,17.44,104.65Z"/><circle class="cls-4" cx="29.05" cy="62.54" r="15.85"/><path class="cls-5" d="M29,44.53c16,0,29,14.52,29,32.41,0,11-4.95,20.8-12.49,26.64C30.38,97.73,29,81.25,29,81.25c-2.28,15.35-11.67,20.67-16.36,22.45C5,97.86,0,88,0,76.93,0,59,13,44.53,29,44.53Z"/><circle class="cls-6" cx="28.79" cy="42.56" r="1.4"/><circle class="cls-7" cx="28.79" cy="42.56" r="0.32"/><path class="cls-8" d="M13.7,79.15,13.32,79v.06c.06,0,.06,0,.06.06v.13a.06.06,0,0,0-.06.06l-.06.06c-.06,0-.06.06-.13.06s-.06-.13-.06-.19v-.13h.06v-.06L12.81,79V79h.13a.06.06,0,0,0,.06.06v.06a.23.23,0,0,0,.06.19c0,.06.06.13.06.19s-.06.06-.13.06-.13.06-.19.13a.06.06,0,0,0-.06.06h-.19v.06l.38.13v-.06a.06.06,0,0,1-.06-.06s-.06,0,0-.06v-.06a.06.06,0,0,0,.06-.06L13,79.6a.22.22,0,0,1,.13-.06c0,.06.06.13.06.19v.13h-.13v.06l.32.13V80h-.13a.06.06,0,0,0-.06-.06v-.06c0-.06,0-.13-.06-.13a.23.23,0,0,0-.06-.19c.06-.06.13-.06.19-.13s.13-.06.19-.13a.06.06,0,0,0,.06-.06h.06c0-.06.06-.06.13-.06Z"/><path class="cls-8" d="M14,79.28l-.38-.13v.06h.13v.06l-.25.63V80h-.19V80l.38.13V80.1h-.13V80l.25-.63v-.06H14Z"/><path class="cls-8" d="M14.4,79.41,14,79.28v.06h.13v.06l-.25.63v.06H13.7v.06l.38.13v-.06H14V80.1l.25-.63v-.06h.13S14.33,79.47,14.4,79.41Z"/><path class="cls-8" d="M9.32,81.05l-.13.38h.06v-.13h.06l.63.19H10v.19h.06l.13-.38h-.06v.13H10l-.63-.19H9.32v-.19Z"/><path class="cls-8" d="M9.39,80.67l-.13.38h.06v-.13h.06l.63.19h.06v.19h.06l.13-.38h-.06v.13h-.13l-.63-.19H9.39v-.13C9.45,80.74,9.45,80.74,9.39,80.67Z"/><path class="cls-8" d="M9.51,80.36l-.13.38h.06v-.13h.06l.63.19h.06V81h.06l.13-.38h-.06v.13h-.13l-.63-.19H9.51v-.13C9.58,80.36,9.58,80.36,9.51,80.36Z"/><path class="cls-8" d="M15.79,83.34l.13-.38h-.06v.13h-.06l-.63-.19h-.06V82.7H15l-.13.38H15V83h.13l.63.19h.06v.13C15.73,83.34,15.73,83.34,15.79,83.34Z"/><path class="cls-8" d="M15.54,84l.13-.38H15.6c0,.06,0,.06-.06.06h-.13l-.06-.06-.06-.06c0-.06-.06-.06-.06-.13s.13-.06.19-.06.13-.06.13,0h0v.06h.06l.13-.32h-.06v.13a.06.06,0,0,0-.06.06h-.06a.23.23,0,0,0-.19.06c-.06,0-.13.06-.19.06s-.06-.06-.13-.13-.06-.13-.13-.19l-.06-.06v-.19h-.06l-.13.38h.06a.06.06,0,0,1,.06-.06s0-.06.06,0h.06l.06.06.06.06.06.06c-.06,0-.13.06-.19.06h-.13v-.13h-.06l-.13.32h.06v-.13a.06.06,0,0,0,.06-.06h.06a.22.22,0,0,0,.13-.06c.06,0,.13-.06.19-.06s.06.13.13.19.06.13.13.19a.06.06,0,0,0,.06.06v.06c.13.06.13.06.13.19Z"/><circle class="cls-8" cx="12.37" cy="82.01" r="0.13" transform="translate(-69.76 70.49) rotate(-73.44)"/><rect class="cls-8" x="11.86" y="81.19" width="1.65" height="0.13" transform="translate(-67.32 62.2) rotate(-67.73)"/><polygon class="cls-5" points="11.29 81.5 11.22 81.63 12.3 82.07 12.37 81.94 11.29 81.5"/><polyline class="cls-8" points="12.75 80.42 13.06 80.23 13.13 80.67 12.75 80.48"/><polyline class="cls-8" points="11.22 81.75 10.97 81.44 11.42 81.37 11.29 81.75"/><circle class="cls-6" cx="28.79" cy="50.49" r="1.4"/><circle class="cls-7" cx="28.79" cy="50.49" r="0.32"/><circle class="cls-9" cx="28.79" cy="42.56" r="0.32"/><circle class="cls-9" cx="28.79" cy="51.88" r="0.32"/><path class="cls-10" d="M27.21,114a.41.41,0,0,0-.38-.38,2.36,2.36,0,0,1-1.33.38c-.89,0-1.46-.57-1.65-.38-1.33,1.2-4.25,1.46-4.25,1.46-.19,0-.25.25-.13.44s.06.06.06.13l-.06.06a.41.41,0,0,0,.38.38h7a.41.41,0,0,0,.38-.38Z"/><path class="cls-10" d="M30.95,115.81a.41.41,0,0,0,.38.38h7.1a.41.41,0,0,0,.38-.38l-.06-.06c0-.06.06-.06.06-.13a.25.25,0,0,0-.13-.44s-2.92-.25-4.25-1.46c-.19-.19-.82.38-1.65.38a2.13,2.13,0,0,1-1.33-.38.41.41,0,0,0-.38.38Z"/><path class="cls-11" d="M16.68,83.46S7.42,84.61.13,79.28l.19,1.84s4.38,4.76,16.43,4.06V83.46Z"/><path class="cls-12" d="M40.14,36.41c.19,1.46,1.08.19,1.59,1.71C43,42.5,45,49.92,49.59,54.36c0,0-4.25,16.49-20.55,16.49S8.5,54.36,8.5,54.36C12.94,50.11,15,42.5,16.36,38.25c.57-1.78,1.52-.44,1.71-2.09"/><path class="cls-12" d="M29,44.53c16,0,29,14.52,29,32.41,0,11-4.95,20.8-12.49,26.64-13.7-.25-16.43-8.69-16.43-8.69-3.55,8.82-16.43,8.82-16.43,8.82C5.07,97.86.06,88,.06,76.93,0,59,13,44.53,29,44.53Z"/><polygon class="cls-13" points="17.68 43.43 29.27 71.61 29.27 43.76 20.15 40.36 17.68 42.88 17.68 43.43"/><polygon class="cls-13" points="40.87 43.43 29.27 71.61 29.27 43.76 38.4 40.36 40.87 42.88 40.87 43.43"/><path class="cls-14" d="M28.5,47,25.63,44.1a.88.88,0,0,1,.57-1.48h5.74a.85.85,0,0,1,.57,1.48L29.65,47A.79.79,0,0,1,28.5,47Z"/><path class="cls-14" d="M29.15,91l-5.35-5.35,4.75-39.11a.6.6,0,0,1,1.19,0L34.5,85.68Z"/><path class="cls-9" d="M16,17.25c-.19-3.68.06-7.67,1.52-10.4.76-2.16,3.17-3.42,5.64-4.25h-2a7,7,0,0,1,6.66-1c.51-.06,1-.13,1.2-.13a18.86,18.86,0,0,0-2.6-1.2c4.06-1,7.55,1.2,9.07,2.41,2.41.82,4.76,2.09,5.45,4.19,1.46,2.73,1.71,6.72,1.52,10.4a26.14,26.14,0,0,1-.7,8.63c-2,4.82-1.08,8.5-.06,12.24l-2.37,1.21c-3.17,1.62-7,3.23-10.08,4.43-3.39-1.2-7.75-1-11-2.6l-1.9-3c.89-3.42,2.79-7.74.51-12.37A25.09,25.09,0,0,1,16,17.25Z"/><path class="cls-15" d="M35.07,14.91C35,16,36.28,17.06,37.8,17.06s2.79-.82,2.85-2-1.2-2.16-2.73-2.16S35.13,13.77,35.07,14.91Z"/><path class="cls-8" d="M36.59,14.78a1.28,1.28,0,0,0,1.08,1.46,1.25,1.25,0,0,0,1.46-1.08,1.28,1.28,0,0,0-2.54-.38Z"/><path class="cls-15" d="M18,14.91c-.06,1.14,1.21,2.16,2.73,2.16s2.85-.82,2.85-2-1.2-2.16-2.73-2.16S18,13.77,18,14.91Z"/><path class="cls-8" d="M19.53,14.78a1.28,1.28,0,0,0,1.08,1.46,1.25,1.25,0,0,0,1.46-1.08A1.33,1.33,0,0,0,21,13.7,1.25,1.25,0,0,0,19.53,14.78Z"/><path class="cls-11" d="M29.17,17.83a7.38,7.38,0,0,0,4.38,3c-2.28,1.4-4.38,5.77-4.38,5.77s-2.28-4.38-4.5-5.77C24.61,20.81,27.78,20.17,29.17,17.83Z"/><path class="cls-16" d="M61.77,52.33c-3.3,7.67-3.93,21.88.89,28.35"/><rect class="cls-3" x="72.6" y="18.89" width="1.62" height="38.44" transform="translate(-5.19 12.35) rotate(-9.29)"/><rect class="cls-14" x="72.2" y="17.54" width="17.02" height="14.95" transform="translate(164.4 36.66) rotate(170.71)"/><path class="cls-17" d="M83.65,59.68c1.14-8.63-4.88-13.64-7-15A23.39,23.39,0,0,1,64.12,48c2.54,2.47,7.55,2.41,7.55,2.41-1.33,1.33-6.53-.51-6.53-.51,3,3.93,8.56,3,8.56,3-1.59,1-6.28.13-6.28.13,2.54,2.6,9.13,2,9.13,2-1.4,1.27-7.23-.06-7.23-.06a12.27,12.27,0,0,0,4.5,2.92h-.06c.13.06.19.06.32.13a22.48,22.48,0,0,0,6.15,1.46h0A16,16,0,0,0,83.65,59.68Z"/><path class="cls-2" d="M17.69,66.09A23.69,23.69,0,0,1,2.28,64.63,35.54,35.54,0,0,0,3.87,92.85a24.69,24.69,0,0,0,14.4.19S9.89,81.5,17.69,66.09Z"/><path class="cls-9" d="M36.66,66.85S33,74.14,30.5,74.46c0,0,6.28-6.34,5.71-11.29,0,0-3.17,5.71-5.52,6.47,0,0,5.71-5,4.25-11.61,0,0-2.54,7-5.14,7.23,0,0,4.31-5.14,3.93-9.89,0,0-6.09,8.31-16.11,10.78a26.38,26.38,0,0,0-3.36,12.94A26.7,26.7,0,0,0,18.2,93c4.63-1.4,9.64-4.5,13.7-10.91v-.06a30,30,0,0,0,3.74-7.67.9.9,0,0,0,.13-.38l-.06.06A16.14,16.14,0,0,0,36.66,66.85Z"/><path class="cls-16" d="M12.68,67c1.08-2.54-7.74,16.36,2.16,27"/><rect class="cls-9" x="27.5" y="49.06" width="4.03" height="6.27" rx="0.57" ry="0.57" transform="translate(-1.68 0.99) rotate(-1.86)"/><line class="cls-18" x1="28.29" y1="50.01" x2="28.43" y2="54.53"/><line class="cls-18" x1="29.09" y1="50.65" x2="29.22" y2="54.51"/><line class="cls-18" x1="29.9" y1="51.53" x2="30" y2="54.48"/><path class="cls-19" d="M17,38a.62.62,0,0,0-.6-1.09A.62.62,0,1,0,17,38Z"/><path class="cls-19" d="M17.61,39A.62.62,0,0,0,17,38,.62.62,0,1,0,17.61,39Z"/><path class="cls-19" d="M18.3,40.07a.62.62,0,1,0-.87-.17A.63.63,0,0,0,18.3,40.07Z"/><path class="cls-19" d="M19,41.08a.62.62,0,0,0-.73-1,.62.62,0,1,0,.73,1Z"/><path class="cls-19" d="M19.81,42.06a.62.62,0,0,0-.77-1,.62.62,0,1,0,.77,1Z"/><path class="cls-19" d="M20.62,43a.62.62,0,1,0-.89-.05A.62.62,0,0,0,20.62,43Z"/><path class="cls-19" d="M21.49,43.9a.62.62,0,0,0-.86-.9.62.62,0,1,0,.86.9Z"/><path class="cls-19" d="M22.4,44.74a.62.62,0,0,0-.92-.85.62.62,0,1,0,.92.85Z"/><path class="cls-19" d="M23.38,45.51a.62.62,0,0,0-1-.77.62.62,0,1,0,1,.77Z"/><path class="cls-19" d="M24.42,46.21a.64.64,0,0,0-.18-.85.63.63,0,0,0-.86.16.62.62,0,0,0,.16.88A.61.61,0,0,0,24.42,46.21Z"/><path class="cls-19" d="M25.52,46.79a.62.62,0,0,0-1.1-.59.62.62,0,1,0,1.1.59Z"/><path class="cls-19" d="M26.67,47.26a.63.63,0,0,0-.36-.79.64.64,0,0,0-.8.33.62.62,0,1,0,1.16.46Z"/><path class="cls-19" d="M27.88,47.56a.66.66,0,0,0-.46-.75.66.66,0,0,0-.75.44.62.62,0,1,0,1.21.31Z"/><path class="cls-19" d="M29.12,47.67a.67.67,0,0,0-.56-.66.66.66,0,0,0-.68.56.6.6,0,0,0,.56.69A.59.59,0,0,0,29.12,47.67Z"/><path class="cls-19" d="M30.36,47.59A.65.65,0,0,0,29.7,47a.64.64,0,0,0-.58.64.61.61,0,0,0,.66.61A.6.6,0,0,0,30.36,47.59Z"/><path class="cls-19" d="M31.57,47.31a.62.62,0,1,0-.46.78A.62.62,0,0,0,31.57,47.31Z"/><path class="cls-19" d="M32.74,46.87a.62.62,0,0,0-1.16.44.62.62,0,1,0,1.16-.44Z"/><path class="cls-19" d="M33.83,46.28a.62.62,0,0,0-1.1.59.62.62,0,1,0,1.1-.59Z"/><path class="cls-19" d="M34.86,45.58a.63.63,0,0,0-.85-.14.62.62,0,0,0-.18.84.63.63,0,0,0,.88.19A.62.62,0,0,0,34.86,45.58Z"/><path class="cls-19" d="M35.83,44.79a.65.65,0,0,0-.87-.08.63.63,0,0,0-.09.87.62.62,0,0,0,.89.1A.6.6,0,0,0,35.83,44.79Z"/><path class="cls-19" d="M36.73,43.93a.62.62,0,1,0-.9.86.62.62,0,1,0,.9-.86Z"/><path class="cls-19" d="M37.56,43a.62.62,0,0,0-.87,0,.65.65,0,0,0,0,.88.6.6,0,0,0,.88,0A.63.63,0,0,0,37.56,43Z"/><path class="cls-19" d="M38.35,42a.62.62,0,0,0-.86.1.61.61,0,0,0,.07.86.64.64,0,0,0,.89-.07A.63.63,0,0,0,38.35,42Z"/><circle class="cls-19" cx="38.73" cy="41.54" r="0.62" transform="translate(-17.76 47.46) rotate(-52.99)"/><path class="cls-19" d="M39.8,40a.62.62,0,0,0-.86.17.64.64,0,0,0,.16.87.61.61,0,0,0,.87-.16A.63.63,0,0,0,39.8,40Z"/><path class="cls-19" d="M40.48,39a.64.64,0,0,0-.87.18.63.63,0,0,0,1.05.67A.61.61,0,0,0,40.48,39Z"/><path class="cls-19" d="M41.11,37.89a.62.62,0,0,0-.85.22.64.64,0,0,0,.22.86.61.61,0,0,0,.85-.22A.63.63,0,0,0,41.11,37.89Z"/><path class="cls-19" d="M41.73,36.81a.64.64,0,0,0-.86.23.62.62,0,0,0,1.09.61A.61.61,0,0,0,41.73,36.81Z"/><rect class="cls-20" x="29.12" y="47.47" width="0.79" height="1.89" rx="0.39" ry="0.39"/><path class="cls-21" d="M29.28,43.76c4.89-3,8.18-4.38,11.35-12.45,4.64,6.15-.2,13.21-.2,13.21S37.77,41.74,29.28,43.76Z"/><path class="cls-21" d="M29.28,43.76c-4.89-3-8.18-4.38-11.35-12.45-4.64,6.15.2,13.21.2,13.21S20.78,41.74,29.28,43.76Z"/><rect class="cls-22" x="42.33" y="60.06" width="1.88" height="8.13"/><rect class="cls-23" x="44.22" y="60.06" width="1.88" height="8.13"/><rect class="cls-22" x="49.92" y="60.06" width="1.88" height="8.13"/><rect class="cls-24" x="46.03" y="60.06" width="3.9" height="8.13"/><rect class="cls-22" x="42.34" y="69.36" width="4.5" height="4.5" rx="2.25" ry="2.25"/><rect class="cls-22" x="47.67" y="69.36" width="4.34" height="4.5"/><polygon class="cls-24" points="49.84 75.53 47.67 73.86 52.01 73.86 49.84 75.53"/><circle class="cls-22" cx="12.36" cy="68.88" r="1.09"/><circle class="cls-22" cx="11.27" cy="72.28" r="1.09"/><ellipse class="cls-15" cx="14.2" cy="12.44" rx="0.96" ry="0.26"/><path class="cls-13" d="M32.43,11.57a12.81,12.81,0,0,1-3.15.67,12.81,12.81,0,0,1-3.15-.67c-2.67-.75-9.4-1.23-13.67-.07l.13,2a.92.92,0,0,1,1,.58c.26.72.85,3.7,1.94,4.86,1.35,1.44,4.25,1.5,6.22,1.43,2.64-.1,4.38-1.09,5.11-2.78S28,14.46,28.51,14A1.25,1.25,0,0,1,30,14c.47.46.89,1.9,1.63,3.59s2.47,2.68,5.11,2.78c2,.07,4.87,0,6.22-1.43,1.09-1.16,1.68-4.14,1.94-4.86a.92.92,0,0,1,1-.58l.13-2C41.84,10.35,35.1,10.83,32.43,11.57Zm-6.73,6A4.54,4.54,0,0,1,22,19.49a10.41,10.41,0,0,1-5-.65c-.95-.48-1.41-2-1.64-2.91s-.63-2.89.48-3.54,3.89-.7,5.74-.6c1.39.07,4.4.39,5,1.3S26.27,16.68,25.7,17.59Zm17.5-1.66c-.23.91-.69,2.43-1.64,2.91a10.41,10.41,0,0,1-5,.65,4.54,4.54,0,0,1-3.69-1.9c-.57-.92-1.42-3.59-.85-4.5s3.58-1.23,5-1.3c1.85-.1,4.63,0,5.74.6S43.43,15,43.2,15.93Z"/></g></g></svg>