<?xml version="1.0" encoding="utf-8"?>
<!-- Generator: Adobe Illustrator 19.2.1, SVG Export Plug-In . SVG Version: 6.00 Build 0)  -->
<svg version="1.1" id="Layer_1" xmlns="http://www.w3.org/2000/svg" xmlns:xlink="http://www.w3.org/1999/xlink" x="0px" y="0px"
	 width="200px" height="200px" viewBox="0 0 200 200" style="enable-background:new 0 0 200 200;" xml:space="preserve">
<style type="text/css">
	.st0{fill:#E2E3E4;}
	.st1{fill:#595D62;}
	.st2{fill:#C7702A;}
	.st3{fill:#C9C7C7;}
	.st4{fill:#EA8824;}
	.st5{fill:none;stroke:#C9C7C7;stroke-width:0.75651;stroke-miterlimit:10;}
	.st6{fill-rule:evenodd;clip-rule:evenodd;fill:#444851;}
	.st7{fill-rule:evenodd;clip-rule:evenodd;fill:#D8D7D6;}
	.st8{fill:#FFFFFF;}
	.st9{fill:#2B2B35;}
	.st10{fill:#434850;}
	.st11{fill:#6C4396;}
	.st12{fill:#A4A4A4;}
	.st13{fill:#EA4C65;}
	.st14{fill:#94814F;}
	.st15{fill:#9C2023;}
	.st16{fill:#B7242C;}
	.st17{fill-rule:evenodd;clip-rule:evenodd;fill:#FFFFFF;}
	.st18{fill:#0C4F6E;}
	.st19{fill:#C18E46;}
	.st20{fill:#3180BF;}
	.st21{fill:#D94F4F;}
	.st22{fill:#2C2C2D;}
	.st23{fill:#595E63;}
	.st24{fill:#E3E2E2;}
	.st25{fill:#9D9EA0;}
	.st26{fill:none;stroke:#C8C6C6;stroke-width:0.75651;stroke-miterlimit:10;}
	.st27{fill:#2A2E35;}
	.st28{fill-rule:evenodd;clip-rule:evenodd;fill:#454751;}
	.st29{fill-rule:evenodd;clip-rule:evenodd;fill:#D8D7D5;}
	.st30{fill:#434851;}
	.st31{fill:#EC9424;}
	.st32{fill:#445AA4;}
	.st33{clip-path:url(#SVGID_2_);fill:#58C1C4;}
	.st34{fill:#B7DBDB;}
	.st35{fill:#58C1C4;}
	.st36{fill:none;stroke:#434851;stroke-width:1.51302;stroke-linecap:round;stroke-linejoin:round;stroke-miterlimit:10;}
	.st37{clip-path:url(#SVGID_4_);fill:#58C1C4;}
	.st38{fill:#010101;}
	.st39{fill:#161718;}
	.st40{fill-rule:evenodd;clip-rule:evenodd;fill:#010101;}
	.st41{fill:#272626;}
	.st42{fill:#17191A;}
	.st43{fill:#D4D5D4;}
	.st44{fill-rule:evenodd;clip-rule:evenodd;fill:#272626;}
	.st45{fill-rule:evenodd;clip-rule:evenodd;fill:#E2E3E4;}
	.st46{fill:#19244E;}
	.st47{fill:#E3E1E1;}
	.st48{fill:#8E1B27;}
	.st49{fill:#CA2033;}
	.st50{fill:#EFE0A7;}
	.st51{fill:none;stroke:#EFE0A7;stroke-width:0.09335;stroke-miterlimit:10;}
	.st52{fill:#EECA81;}
	.st53{fill:#F3F3F3;}
	.st54{fill:#A0A1A4;}
	.st55{fill:#EB6B6D;}
	.st56{fill:none;stroke:#CAC8C6;stroke-width:0.02289;stroke-miterlimit:10;}
	.st57{fill:#464951;}
	.st58{fill:#D7D6D6;}
	.st59{fill:#EECC82;}
	.st60{fill:#F0E0A9;}
	.st61{fill:none;stroke:#F0E0A9;stroke-width:0.01145;stroke-miterlimit:10;}
	.st62{fill:#5AC1C2;}
	.st63{clip-path:url(#SVGID_6_);fill:#E2E3E4;}
	.st64{fill:#EE7823;}
	.st65{fill:#D6563D;}
	.st66{fill:#70533D;}
	.st67{fill:#81BCA9;}
	.st68{clip-path:url(#SVGID_8_);fill:#E2E3E4;}
	.st69{fill:none;stroke:#EFE0A7;stroke-width:0.37825;stroke-miterlimit:10;}
	.st70{clip-path:url(#SVGID_10_);}
	.st71{clip-path:url(#SVGID_12_);fill:#E3E2E2;}
	.st72{clip-path:url(#SVGID_12_);}
	.st73{fill-rule:evenodd;clip-rule:evenodd;fill:#1AAEA1;}
	.st74{fill-rule:evenodd;clip-rule:evenodd;fill:#0C8C70;}
	.st75{fill:#1AAEA1;}
	.st76{fill:#6F513B;}
	.st77{fill:#515050;}
	.st78{fill:#D4563A;}
	.st79{fill:none;}
	.st80{clip-path:url(#SVGID_14_);}
	.st81{clip-path:url(#SVGID_16_);fill:#E3E2E2;}
	.st82{clip-path:url(#SVGID_16_);}
	.st83{fill:#EEE3A3;}
	.st84{fill:none;stroke:#F0E0A9;stroke-width:0.37825;stroke-miterlimit:10;}
	.st85{clip-path:url(#SVGID_18_);}
	.st86{fill-rule:evenodd;clip-rule:evenodd;fill:#434850;}
	.st87{clip-path:url(#SVGID_20_);}
	.st88{fill:none;stroke:#E4CC21;stroke-width:1.92135;stroke-miterlimit:10;}
	.st89{fill:none;stroke:#FFFFFF;stroke-width:2.2037;stroke-miterlimit:10;}
	.st90{fill:#E4CC21;}
	.st91{fill:#232244;}
	.st92{fill:#C8C6C6;}
	.st93{fill:#542F19;}
	.st94{fill-rule:evenodd;clip-rule:evenodd;fill:#3D2E21;}
	.st95{fill:#3D2E21;}
	.st96{fill-rule:evenodd;clip-rule:evenodd;fill:#232244;}
	.st97{fill-rule:evenodd;clip-rule:evenodd;fill:#2E3280;}
	.st98{fill:#281911;}
	.st99{fill-rule:evenodd;clip-rule:evenodd;fill:#E4CC21;}
	.st100{fill-rule:evenodd;clip-rule:evenodd;fill:#D85127;}
	.st101{clip-path:url(#SVGID_22_);}
	.st102{fill-rule:evenodd;clip-rule:evenodd;fill:#EE7434;}
	.st103{fill:#17733B;}
	.st104{clip-path:url(#SVGID_24_);}
	.st105{fill:#1D73B6;}
	.st106{fill:#115E8E;}
	.st107{clip-path:url(#SVGID_26_);}
	.st108{fill:none;stroke:#FFFFFF;stroke-width:1.49993;stroke-miterlimit:10;}
	.st109{fill:none;stroke:#CAC8C6;stroke-width:0.024;stroke-miterlimit:10;}
	.st110{clip-path:url(#SVGID_28_);fill:#E2E3E4;}
	.st111{fill:#603A17;}
	.st112{fill:#78471F;}
	.st113{fill:#F8FAFD;}
	.st114{clip-path:url(#SVGID_30_);}
	.st115{clip-path:url(#SVGID_32_);}
	.st116{fill:none;stroke:#FFFFFF;stroke-width:0.49998;stroke-miterlimit:10;}
	.st117{fill:none;stroke:#FFFFFF;stroke-width:0.74997;stroke-miterlimit:10;}
	.st118{clip-path:url(#SVGID_34_);}
	.st119{clip-path:url(#SVGID_36_);}
	.st120{clip-path:url(#SVGID_38_);fill:#E2E3E4;}
	.st121{clip-path:url(#SVGID_40_);}
	.st122{clip-path:url(#SVGID_42_);}
	.st123{clip-path:url(#SVGID_44_);}
	.st124{opacity:0.7;fill:#434850;}
	.st125{fill:#5B3287;}
	.st126{fill:#643E1E;}
	.st127{fill:#C8D6DE;}
	.st128{fill:none;stroke:#CAC7C6;stroke-width:0.75651;stroke-miterlimit:10;}
	.st129{fill:#B6C3CE;}
	.st130{fill:#273980;}
	.st131{fill:#2B2C35;}
	.st132{clip-path:url(#SVGID_46_);fill:#FFFFFF;stroke:#5A3B84;stroke-width:4.53905;stroke-miterlimit:10;}
	.st133{fill:#C8C7C9;}
	.st134{fill:#056F43;}
	.st135{clip-path:url(#SVGID_48_);}
	.st136{fill:#EBEDF1;}
	.st137{fill:#CF2B29;}
	.st138{fill-rule:evenodd;clip-rule:evenodd;fill:#273980;}
	.st139{fill:#D6232A;}
	.st140{clip-path:url(#SVGID_52_);fill:#FFFFFF;stroke:#5A3B84;stroke-width:4.53905;stroke-miterlimit:10;}
	.st141{clip-path:url(#SVGID_54_);}
	.st142{fill:#532D17;}
	.st143{fill:none;stroke:#5E1116;stroke-width:0.95369;stroke-miterlimit:10;}
	.st144{fill-rule:evenodd;clip-rule:evenodd;fill:#5E1116;}
	.st145{fill:none;stroke:#5E1116;stroke-width:0.94639;stroke-miterlimit:10;}
	.st146{fill:#291B13;}
	.st147{fill-rule:evenodd;clip-rule:evenodd;fill:#291B13;}
	.st148{fill-rule:evenodd;clip-rule:evenodd;fill:#454850;}
	.st149{fill-rule:evenodd;clip-rule:evenodd;fill:#74441F;}
	.st150{fill:#7F161B;}
	.st151{fill-rule:evenodd;clip-rule:evenodd;fill:#7F161B;}
	.st152{fill:none;stroke:#5E1116;stroke-width:1.04342;stroke-miterlimit:10;}
	.st153{fill:#E4E0E4;}
	.st154{clip-path:url(#SVGID_58_);fill:#E1244D;}
	.st155{clip-path:url(#SVGID_60_);fill:#E1244D;}
	.st156{fill:#292933;}
	.st157{fill:none;stroke:#CAC8C6;stroke-width:0.02378;stroke-miterlimit:10;}
	.st158{fill:none;stroke:#F0E0A9;stroke-width:0.01189;stroke-miterlimit:10;}
	.st159{clip-path:url(#SVGID_62_);fill:#E2E3E4;}
	.st160{fill:#2F465D;}
	.st161{fill:#432F21;}
	.st162{fill-rule:evenodd;clip-rule:evenodd;fill:#3D5F7C;}
	.st163{fill-rule:evenodd;clip-rule:evenodd;fill:#2F465D;}
	.st164{clip-path:url(#SVGID_64_);fill:#2C2C2D;}
	.st165{clip-path:url(#SVGID_66_);fill:#F8B917;}
	.st166{clip-path:url(#SVGID_66_);fill:#1F4394;}
	.st167{clip-path:url(#SVGID_68_);fill:#E8212F;}
	.st168{clip-path:url(#SVGID_68_);fill:#C9C8C8;}
	.st169{clip-path:url(#SVGID_68_);fill:#2A2E35;}
	.st170{clip-path:url(#SVGID_68_);fill:#444750;}
	.st171{clip-path:url(#SVGID_68_);fill:#D7D7D6;}
	.st172{clip-path:url(#SVGID_68_);fill:#E3E2E2;}
	.st173{clip-path:url(#SVGID_68_);fill:#FFFFFF;}
	.st174{clip-path:url(#SVGID_68_);fill:#2B2D34;}
	.st175{clip-path:url(#SVGID_68_);fill:#B9252D;}
	.st176{clip-path:url(#SVGID_68_);fill:#24345B;}
	.st177{clip-path:url(#SVGID_68_);fill:#F7F6F8;}
	.st178{clip-path:url(#SVGID_70_);fill:#1F4394;}
	.st179{clip-path:url(#SVGID_70_);fill:#F8B917;}
	.st180{clip-path:url(#SVGID_70_);fill:#883D1E;}
	.st181{clip-path:url(#SVGID_70_);fill:#F5D07C;}
	.st182{clip-path:url(#SVGID_72_);fill:#E8212F;}
	.st183{clip-path:url(#SVGID_72_);fill:#E3E2E2;}
	.st184{clip-path:url(#SVGID_72_);fill:#F7F6F8;}
	.st185{clip-path:url(#SVGID_72_);fill:#F8B917;}
	.st186{clip-path:url(#SVGID_72_);fill:#888983;}
	.st187{clip-path:url(#SVGID_74_);fill:#888983;}
	.st188{clip-path:url(#SVGID_74_);fill:#624219;}
	.st189{clip-path:url(#SVGID_76_);fill:#E3E2E2;}
	.st190{clip-path:url(#SVGID_76_);fill:#2C2C2D;}
	.st191{clip-path:url(#SVGID_76_);fill:#888983;}
	.st192{clip-path:url(#SVGID_78_);fill:#F8B917;}
	.st193{clip-path:url(#SVGID_78_);fill:#1F4394;}
	.st194{clip-path:url(#SVGID_80_);fill:#E8212F;}
	.st195{clip-path:url(#SVGID_80_);fill:#C9C8C8;}
	.st196{clip-path:url(#SVGID_80_);fill:#2A2E35;}
	.st197{clip-path:url(#SVGID_80_);fill:#444750;}
	.st198{clip-path:url(#SVGID_80_);fill:#D7D7D6;}
	.st199{clip-path:url(#SVGID_80_);fill:#E3E2E2;}
	.st200{clip-path:url(#SVGID_80_);fill:#FFFFFF;}
	.st201{clip-path:url(#SVGID_80_);fill:#2B2D34;}
	.st202{clip-path:url(#SVGID_80_);fill:#B9252D;}
	.st203{clip-path:url(#SVGID_80_);fill:#24345B;}
	.st204{clip-path:url(#SVGID_80_);fill:#F7F6F8;}
	.st205{clip-path:url(#SVGID_82_);fill:#1F4394;}
	.st206{clip-path:url(#SVGID_82_);fill:#F8B917;}
	.st207{clip-path:url(#SVGID_82_);fill:#883D1E;}
	.st208{clip-path:url(#SVGID_82_);fill:#F5D07C;}
	.st209{clip-path:url(#SVGID_84_);fill:#E8212F;}
	.st210{clip-path:url(#SVGID_84_);fill:#E3E2E2;}
	.st211{clip-path:url(#SVGID_84_);fill:#F7F6F8;}
	.st212{clip-path:url(#SVGID_84_);fill:#F8B917;}
	.st213{clip-path:url(#SVGID_84_);fill:#888983;}
	.st214{clip-path:url(#SVGID_86_);fill:#888983;}
	.st215{clip-path:url(#SVGID_86_);fill:#624219;}
	.st216{clip-path:url(#SVGID_88_);fill:#E3E2E2;}
	.st217{clip-path:url(#SVGID_88_);fill:#2C2C2D;}
	.st218{clip-path:url(#SVGID_90_);fill:#2C2C2D;}
	.st219{clip-path:url(#SVGID_92_);fill:#F8B917;}
	.st220{clip-path:url(#SVGID_92_);fill:#1F4394;}
	.st221{clip-path:url(#SVGID_94_);fill:#E8212F;}
	.st222{clip-path:url(#SVGID_94_);fill:#C9C8C8;}
	.st223{clip-path:url(#SVGID_94_);fill:#2A2E35;}
	.st224{clip-path:url(#SVGID_94_);fill:#444750;}
	.st225{clip-path:url(#SVGID_94_);fill:#D7D7D6;}
	.st226{clip-path:url(#SVGID_94_);fill:#E3E2E2;}
	.st227{clip-path:url(#SVGID_94_);fill:#FFFFFF;}
	.st228{clip-path:url(#SVGID_94_);fill:#2B2D34;}
	.st229{clip-path:url(#SVGID_94_);fill:#B9252D;}
	.st230{clip-path:url(#SVGID_94_);fill:#24345B;}
	.st231{clip-path:url(#SVGID_94_);fill:#F7F6F8;}
	.st232{clip-path:url(#SVGID_96_);fill:#1F4394;}
	.st233{clip-path:url(#SVGID_96_);fill:#F8B917;}
	.st234{clip-path:url(#SVGID_96_);fill:#883D1E;}
	.st235{clip-path:url(#SVGID_96_);fill:#F5D07C;}
	.st236{clip-path:url(#SVGID_98_);fill:#E8212F;}
	.st237{clip-path:url(#SVGID_98_);fill:#E3E2E2;}
	.st238{clip-path:url(#SVGID_98_);fill:#F7F6F8;}
	.st239{clip-path:url(#SVGID_98_);fill:#F8B917;}
	.st240{clip-path:url(#SVGID_98_);fill:#888983;}
	.st241{clip-path:url(#SVGID_100_);fill:#888983;}
	.st242{clip-path:url(#SVGID_100_);fill:#624219;}
	.st243{clip-path:url(#SVGID_102_);fill:#E3E2E2;}
	.st244{clip-path:url(#SVGID_102_);fill:#2C2C2D;}
	.st245{clip-path:url(#SVGID_102_);fill:#888983;}
	.st246{clip-path:url(#SVGID_104_);fill:#F8B917;}
	.st247{clip-path:url(#SVGID_104_);fill:#1F4394;}
	.st248{clip-path:url(#SVGID_106_);fill:#E8212F;}
	.st249{clip-path:url(#SVGID_106_);fill:#C9C8C8;}
	.st250{clip-path:url(#SVGID_106_);fill:#2A2E35;}
	.st251{clip-path:url(#SVGID_106_);fill:#444750;}
	.st252{clip-path:url(#SVGID_106_);fill:#D7D7D6;}
	.st253{clip-path:url(#SVGID_106_);fill:#E3E2E2;}
	.st254{clip-path:url(#SVGID_106_);fill:#FFFFFF;}
	.st255{clip-path:url(#SVGID_106_);fill:#2B2D34;}
	.st256{clip-path:url(#SVGID_106_);fill:#B9252D;}
	.st257{clip-path:url(#SVGID_106_);fill:#24345B;}
	.st258{clip-path:url(#SVGID_106_);fill:#F7F6F8;}
	.st259{clip-path:url(#SVGID_108_);fill:#1F4394;}
	.st260{clip-path:url(#SVGID_108_);fill:#F8B917;}
	.st261{clip-path:url(#SVGID_108_);fill:#883D1E;}
	.st262{clip-path:url(#SVGID_108_);fill:#F5D07C;}
	.st263{clip-path:url(#SVGID_110_);fill:#E8212F;}
	.st264{clip-path:url(#SVGID_110_);fill:#E3E2E2;}
	.st265{clip-path:url(#SVGID_110_);fill:#F7F6F8;}
	.st266{clip-path:url(#SVGID_110_);fill:#F8B917;}
	.st267{clip-path:url(#SVGID_110_);fill:#888983;}
	.st268{clip-path:url(#SVGID_112_);fill:#888983;}
	.st269{clip-path:url(#SVGID_112_);fill:#624219;}
	.st270{clip-path:url(#SVGID_114_);fill:#E3E2E2;}
	.st271{clip-path:url(#SVGID_114_);fill:#2C2C2D;}
	.st272{fill:#EDE2A3;}
	.st273{clip-path:url(#SVGID_116_);}
	.st274{fill-rule:evenodd;clip-rule:evenodd;fill:#434851;}
	.st275{fill-rule:evenodd;clip-rule:evenodd;fill:#E3E2E2;}
	.st276{fill:#2A2B2A;}
	.st277{clip-path:url(#SVGID_118_);}
	.st278{clip-path:url(#SVGID_120_);}
	.st279{clip-path:url(#SVGID_122_);}
	.st280{fill:#1F3566;}
	.st281{fill:#E3E4E5;}
	.st282{fill:#4BB1E4;}
	.st283{fill:#2D2A6C;}
	.st284{fill-rule:evenodd;clip-rule:evenodd;fill:#D8D9D5;}
	.st285{fill:#434852;}
	.st286{fill:#E3E3E3;}
	.st287{fill:#162E54;}
	.st288{fill:none;stroke:#335DAB;stroke-width:1.68786;stroke-miterlimit:10;}
	.st289{fill:#81817F;}
	.st290{fill:#142B49;}
	.st291{fill:#5A5A5A;}
	.st292{fill:none;stroke:#FFFFFF;stroke-width:0.84393;stroke-linecap:round;stroke-linejoin:round;stroke-miterlimit:10;}
	.st293{fill:#AB9D9C;}
	.st294{fill:#EA6689;}
	.st295{fill:#CE1D5B;}
	.st296{fill:#BF742A;}
	.st297{fill:#273449;}
	.st298{fill:#A4464B;}
	.st299{fill:none;stroke:#CAC8C6;stroke-width:0.0662;stroke-miterlimit:10;}
	.st300{fill:#80333A;}
	.st301{fill:none;stroke:#B4B4B4;stroke-width:0.25748;stroke-miterlimit:10;}
	.st302{fill:none;stroke:#B4B4B4;stroke-width:3.08973;stroke-miterlimit:10;}
	.st303{fill:none;stroke:#B4B4B4;stroke-width:1.02991;stroke-miterlimit:10;}
	.st304{fill:none;stroke:#82858B;stroke-width:0.51495;stroke-miterlimit:10;}
	.st305{fill:none;stroke:#E2E3E4;stroke-width:1.02991;stroke-miterlimit:10;}
	.st306{fill:#E5E5E5;}
	.st307{fill:#2D2C2D;}
	.st308{fill:#4CB2E5;}
	.st309{fill:#AD2824;}
	.st310{fill-rule:evenodd;clip-rule:evenodd;fill:#D9D9D6;}
	.st311{fill:#E4E4E3;}
	.st312{fill:#DB4826;}
	.st313{fill:#B33725;}
	.st314{fill:#120C0D;}
	.st315{fill:#F3F0F0;}
	.st316{fill:#C4BFBF;}
	.st317{clip-path:url(#SVGID_124_);fill:none;stroke:#F3F0F0;stroke-width:1.10165;stroke-linecap:round;stroke-miterlimit:10;}
	.st318{clip-path:url(#SVGID_126_);fill:none;stroke:#F3F0F0;stroke-width:1.10165;stroke-linecap:round;stroke-miterlimit:10;}
	.st319{clip-path:url(#SVGID_128_);fill:none;stroke:#F3F0F0;stroke-width:1.10165;stroke-linecap:round;stroke-miterlimit:10;}
	.st320{fill:#DE5B2A;}
	.st321{fill:#7A2716;}
	.st322{fill:#E5E4E4;}
	.st323{fill:#BB4928;}
	.st324{fill:#454545;}
	.st325{fill:#6265AE;}
	.st326{fill:none;stroke:#CAC5C4;stroke-width:0.55083;stroke-linecap:round;stroke-miterlimit:10;}
	.st327{fill:#E1E3E3;}
	.st328{fill:#484848;}
	.st329{fill:#422F90;}
	.st330{fill:#D57A28;}
	.st331{fill:#B4B4B5;}
	.st332{fill:#4B4B4D;}
	.st333{fill:#949393;}
	.st334{fill:#040404;}
	.st335{clip-path:url(#SVGID_130_);fill:none;stroke:#F3F0F0;stroke-width:1.10165;stroke-linecap:round;stroke-miterlimit:10;}
	.st336{clip-path:url(#SVGID_132_);fill:none;stroke:#F3F0F0;stroke-width:1.10165;stroke-linecap:round;stroke-miterlimit:10;}
	.st337{clip-path:url(#SVGID_134_);fill:none;stroke:#F3F0F0;stroke-width:1.10165;stroke-linecap:round;stroke-miterlimit:10;}
	.st338{clip-path:url(#SVGID_140_);fill:#AD2824;}
	.st339{fill:#CDCCCC;}
	.st340{fill:#E4E5E6;}
	.st341{opacity:0.72;fill:none;stroke:#FFFFFF;stroke-width:1.1546;stroke-linecap:round;stroke-miterlimit:10;}
	.st342{fill:#BBD867;}
	.st343{fill:none;stroke:#BBD867;stroke-width:5.799;stroke-miterlimit:10;}
	.st344{clip-path:url(#SVGID_146_);fill:#AD2824;}
	.st345{fill:none;stroke:#AE4E85;stroke-width:1.54066;stroke-linecap:round;stroke-linejoin:round;stroke-miterlimit:10;}
	.st346{fill:none;stroke:#E97625;stroke-width:1.62274;stroke-linecap:round;stroke-linejoin:round;stroke-miterlimit:10;}
	.st347{fill:none;stroke:#C9C7C7;stroke-width:0.23348;stroke-miterlimit:10;}
	.st348{fill:#981E5C;}
	.st349{fill:none;stroke:#AE4E85;stroke-width:1.21706;stroke-linecap:round;stroke-linejoin:round;stroke-miterlimit:10;}
	.st350{fill:#AE4E85;}
	.st351{fill:#F7B456;}
	.st352{fill:#E97625;}
	.st353{fill:none;stroke:#E97625;stroke-width:1.54273;stroke-linecap:round;stroke-linejoin:round;stroke-miterlimit:10;}
</style>
<g>
	<g>
		<path class="st280" d="M57.48286,67.04562c0,0-3.26225-3.80191-1.62614-8.9048c0.57161-1.7962-2.67348-4.52507,1.70877-7.86008
			c7.48669-5.69544,32.27925-5.87786,40.63086-0.35239c5.10286,3.3757,3.97314,7.0372,2.81503,10.37959
			c-0.48166,1.39336,1.71004,4.19605-1.0052,5.80753L57.48286,67.04562z"/>
		<path class="st281" d="M28.10254,160.18007c4.14307,6.38168,8.24804,8.74837,8.24804,8.74837s-5.27165-12.2411-3.02319-15.82982
			c0,0,1.33422,14.6138,8.10031,19.17221c0,0-3.77242-10.0087-2.22261-13.82539c0,0,0.20084,12.45418,9.99024,17.63954
			c0,0-6.03552-10.62465-3.64425-14.10506c0,0,1.84919,10.93275,8.23706,15.50336c0,0-11.37618-47.51527,41.41075-55.18309
			l-26.0343-21.01398l-30.72324-1.08418c0,0-26.16008,14.81102-16.27946,46.58022c0.00492,0.01224,0.00492,0.02953,0.01602,0.05537
			c1.53872,5.40967,3.56906,9.61699,5.61416,12.85081c0.11089,0.21812,0.22544,0.41405,0.34251,0.62965
			C28.13459,160.31808,28.12349,160.26878,28.10254,160.18007"/>
		<path class="st282" d="M21.1172,123.43732c6.45928-25.27169,32.05494-38.21368,32.05494-38.21368l15.99246,16.06258
			l26.0343,21.01398c-23.09476,3.35346-33.90917,14.33664-38.76565,25.63275c0,0-3.1945-6.38173-14.291-15.81509
			C31.04688,122.68455,21.1172,123.43732,21.1172,123.43732"/>
		<path class="st283" d="M100.97202,177.65334l-0.12073,0.01224c12.46768-6.91505,20.72934-19.9913,20.35731-34.77267
			c-0.53717-21.50317-19.12288-38.47738-41.50801-37.9169c-22.37781,0.56303-40.08144,18.4453-39.5468,39.9447
			c0.37203,14.78136,9.27065,27.43007,22.06482,33.70958l-0.11089-0.00249c6.22892,3.36835,10.82677,9.21397,12.31743,16.1933
			c0.27603-0.15659,1.50428-0.77132,3.19942-0.05551l-0.29684-12.03891c1.43161,0.11203,2.86562,0.149,4.32183,0.11203
			c1.46114-0.03696,2.89754-0.14407,4.33167-0.32886l0.30302,12.04012c1.66563-0.81673,2.93954-0.2316,3.19703-0.0985
			C90.61593,187.39963,94.91808,181.3284,100.97202,177.65334"/>
		<path class="st92" d="M80.43481,134.28743c-14.80849,0.37077-27.15671-11.36507-27.52634-26.17846
			c-0.37329-14.80486,11.37379-27.1591,26.18102-27.53003c14.80962-0.36951,27.16276,11.3811,27.53479,26.18468
			C106.99644,121.57703,95.2457,133.91531,80.43481,134.28743 M79.10173,80.99049
			c-14.58672,0.3609-26.15377,12.5219-25.7854,27.10735c0.36219,14.58671,12.52306,26.15506,27.10864,25.79044
			c14.58671-0.36472,26.15011-12.52555,25.78539-27.11478C105.84818,92.18804,93.68604,80.62209,79.10173,80.99049"/>
		<path class="st282" d="M60.03436,64.04581c-0.2624,2.50213-1.81966,0.35345-2.55149,2.99981
			c-2.04384,7.34754-5.09302,19.90391-12.62172,27.50288c0,0,7.76776,27.44863,35.17942,26.76234
			c27.41911-0.68742,33.81304-28.48966,33.81304-28.48966c-7.58282-6.91634-11.31084-19.60706-13.84744-26.7057
			c-1.05958-2.97396-2.59098-0.70102-3.01347-3.45448"/>
		<path class="st284" d="M79.83356,73.95579c0.00492,0.29936-0.24146,0.54701-0.53465,0.55193
			c-0.30554,0.00871-0.56429-0.22667-0.57161-0.52606c-0.00744-0.31047,0.23895-0.56303,0.54449-0.57035
			C79.56497,73.40273,79.82132,73.64166,79.83356,73.95579"/>
		<path class="st24" d="M99.64764,30.94842c0.15643-6.17467-0.44103-12.82621-2.97285-17.35746
			c-1.3404-3.54068-5.46505-5.65113-9.63411-6.90284c1.83443-0.09235,3.41389-0.12073,3.41389-0.12073
			c-4.48823-2.85452-8.34429-2.55515-11.19263-1.43893c-0.89445-0.09613-1.61025-0.16009-2.06479-0.18482
			c2.02782-1.24301,4.29218-2.10541,4.29218-2.10541c-6.87446-1.50301-12.61553,2.36781-15.11391,4.45972
			c-4.00404,1.46113-7.86503,3.75514-8.99361,7.27614c-2.30372,4.65198-2.56739,11.32572-2.10541,17.48438
			c-0.13801,5.80138,0.21068,10.19096,1.58313,14.46841c3.63681,8.04124,2.16583,14.16784,0.62333,20.51875l22.19426,36.93125
			l0.00126,0.13181l20.32779-37.99319c-1.59914-5.71761-4.9921-12.81511-1.30848-20.70108
			C99.9137,41.1283,100.02333,35.87264,99.64764,30.94842"/>
		<path class="st8" d="M67.59005,27.83276c0.11581,1.93661-1.90456,3.61713-4.48936,3.77722
			c-2.57105,0.14054-4.77019-1.28868-4.88348-3.22895c-0.10723-1.93547,1.89473-3.62457,4.47574-3.7786
			C65.28141,24.45962,67.47185,25.90221,67.59005,27.83276"/>
		<path class="st9" d="M65.02267,27.66144c0.18974,1.17665-0.60744,2.29527-1.79015,2.49977
			c-1.18145,0.19832-2.30751-0.62459-2.50709-1.79506c-0.18848-1.19002,0.61728-2.29767,1.80983-2.50216
			C63.7056,25.67677,64.83167,26.48,65.02267,27.66144"/>
		<path class="st8" d="M96.24611,27.11443c0.11581,1.938-1.89233,3.61839-4.4746,3.77734
			c-2.58467,0.14293-4.77271-1.28615-4.88599-3.22907c-0.11581-1.93661,1.89725-3.62331,4.47448-3.77722
			C93.94718,23.74129,96.14014,25.18514,96.24611,27.11443"/>
		<path class="st9" d="M93.68604,26.94198c0.19705,1.17653-0.59747,2.29767-1.79872,2.5009
			c-1.16669,0.19718-2.28165-0.62207-2.48362-1.79494c-0.18974-1.18763,0.60113-2.29767,1.7962-2.50343
			C92.37769,24.9597,93.50867,25.76306,93.68604,26.94198"/>
		<path class="st285" d="M77.46574,32.43667c-2.21756,3.97074-7.02231,5.14853-7.02231,5.14853
			c3.85114,2.29262,7.82188,9.4468,7.82188,9.4468s3.44215-7.34265,7.17874-9.82514
			C85.44406,37.20686,79.88036,36.29274,77.46574,32.43667"/>
		<path class="st286" d="M178.83105,111.30966c1.94406-7.14182,1.01518-11.63985,1.01518-11.63985
			s-5.46884,11.73106-9.53558,12.43085c0,0,9.745-10.42513,8.67319-18.27288c0,0-4.81586,9.2042-8.59193,10.54208
			c0,0,8.9024-8.19028,6.3374-18.64727c0,0-3.80321,11.25164-7.86995,11.76421c0,0,6.72913-8.41327,5.92212-15.99369
			c0,0-27.11104,38.96771-66.79459,5.64255l1.59422,32.46643l19.081,22.97544c0,0,27.64694,9.40488,44.29112-18.30252
			c0.00858-0.01716,0.02347-0.03315,0.03444-0.04794c2.92352-4.60641,4.66434-8.80388,5.69061-12.37785
			c0.07393-0.21671,0.15277-0.42499,0.23163-0.6479C178.90991,111.20129,178.87787,111.2357,178.83105,111.30966"/>
		<path class="st282" d="M144.6557,120.14542c-0.18721-7.5176,1.59058-14.61384,4.8614-20.83163
			c-11.05083,2.99985-25.84457,0.70834-42.15115-12.97775l0.8378,33.3474l19.08591,23.19341c0,0,12.11785,3.3522,24.23191-0.6049
			C147.36855,135.89267,144.8602,128.31474,144.6557,120.14542"/>
		<path class="st280" d="M100.56542,66.11549c0,0,7.03215,17.77264,9.4185,20.22056c2.73631,2.80898,8.44408,0,12.13879,5.65607
			c4.52872,6.93237,15.1399,9.33723,27.95628,7.32168c0,0-6.64044,22.0107,2.00197,42.95815c0,0-14.2972,4.15671-22.44431,3.35585
			c0,0-7.3377,8.73601-6.51479,13.37817c1.4229,8.04367-3.51974,8.60907-3.51974,8.60907
			c1.46605,3.85129-3.42991,4.75179-3.42991,4.75179c4.01628,3.10709,2.82739,5.12506,2.6094,6.50861
			c-0.15656,0.97696-1.4981,1.79253-2.34573,2.30748c-2.98875,1.81474-56.20448,8.24817-69.39906-0.79576
			c-1.86521-1.27882,2.06604-7.22932-0.03078-8.07825c-4.92548-1.99576-1.69767-6.29907-3.98663-7.5065
			c-4.57439-2.41954-6.59237-11.11858-9.17339-16.86946c-1.62867-3.62331-2.52185-18.26051-2.52185-18.26051L19.93197,123.563
			c2.44792-11.40826,8.35287-15.21257,9.83368-23.36098c1.62375-8.93063,14.78629-9.82255,19.52696-13.86598
			c3.24017-2.7682,7.89215-19.97414,7.89215-19.97414l1.46479-4.6347h40.76521L100.56542,66.11549z"/>
		<rect x="71.21336" y="62.661" class="st287" width="11.67921" height="122.43716"/>
		<line class="st288" x1="82.89257" y1="62.661" x2="82.89257" y2="185.09818"/>
		<circle class="st289" cx="79.31367" cy="67.30682" r="1.36812"/>
		<circle class="st289" cx="79.31367" cy="91.9921" r="1.36815"/>
		<circle class="st289" cx="79.31367" cy="116.67834" r="1.36781"/>
		<circle class="st289" cx="79.31367" cy="141.36453" r="1.36813"/>
		<circle class="st289" cx="79.31367" cy="166.04955" r="1.36845"/>
		<polygon class="st280" points="58.84421,60.47915 58.64955,61.7272 62.52668,61.7272 		"/>
		<polygon class="st280" points="98.13592,58.8221 98.65581,61.73701 93.33861,61.7272 		"/>
		<path class="st290" d="M97.10107,52.54395c0,0,0.2045,5.94561-4.54475,9.18326
			C92.55632,61.7272,101.64468,62.41828,97.10107,52.54395z"/>
		<path class="st290" d="M58.7617,52.54395c0,0-0.2045,5.94561,4.54235,9.18326
			C63.30405,61.7272,54.21809,62.41828,58.7617,52.54395z"/>
		<circle class="st291" cx="63.47127" cy="66.35448" r="0.94461"/>
		<circle class="st291" cx="92.83843" cy="66.35448" r="0.94433"/>
		<path class="st292" d="M63.42604,66.35445c0,0-2.9297,13.54454-0.41152,21.98846
			c1.04961,3.52103,1.66071,6.78956,0.41152,14.69032c-0.31299,1.98102-0.98313,5.71758-0.62346,8.00418"/>
		<path class="st292" d="M92.77192,66.35445c0,0,1.72972,15.64869-0.38074,29.02444
			c-0.56795,3.60839-0.88081,4.92658-0.29684,14.60273"/>
		<path class="st289" d="M61.99443,111.41068c0,0,1.04103-0.52733,2.13013,0l0.47308,2.20028c0,0-0.01602,0.61478-2.60322,0.61478
			C61.99443,114.22574,61.2404,112.31496,61.99443,111.41068z"/>
		<path class="st289" d="M92.91599,110.21687c0,0-1.04218-0.52859-2.13001,0l-0.47308,2.19791c0,0,0.01476,0.61598,2.60309,0.61598
			C92.91599,113.03076,93.66876,111.11863,92.91599,110.21687z"/>
	</g>
	<path class="st293" d="M85.11505,196.09738c-0.01602,0.37457,0.26984,0.68741,0.63456,0.7047l13.38672,0.69727
		c0.36585,0.01605,0.68011-0.26241,0.69727-0.64186l-0.15278-0.17865c0-0.05905,0.11089-0.12802,0.15656-0.16991
		c0.3092-0.32776,0.12439-0.83162-0.18974-0.85385c0,0-5.54402-0.76006-7.92041-3.22037
		c-0.37947-0.39424-0.30807-0.00868-0.38818-0.01854c-0.44218-0.02219-1.22699,0.72198-2.84834,0.63821
		c-1.61757-0.08261-2.49964-0.91046-2.49964-0.91046c-0.36838-0.02344-0.68503,0.25751-0.70231,0.62585l-0.14773,2.91371
		l0.16261,0.15277l-0.17863,0.08614L85.11505,196.09738z"/>
	<path class="st293" d="M79.47881,196.09738c0.01716,0.37457-0.27111,0.68741-0.6333,0.7047l-13.38672,0.69727
		c-0.36711,0.01605-0.68011-0.26241-0.69727-0.64186l0.15265-0.17865c0-0.05905-0.11076-0.12802-0.16009-0.16991
		c-0.30681-0.32776-0.12325-0.83162,0.18974-0.85385c0,0,5.54642-0.76006,7.92167-3.22037
		c0.37948-0.39424,0.31047-0.00868,0.38932-0.01854c0.44344-0.02219,1.22698,0.72198,2.84581,0.63821
		c1.62135-0.08261,2.50343-0.91046,2.50343-0.91046c0.36838-0.02344,0.68503,0.25751,0.70231,0.62585l0.14659,2.91371
		l-0.16148,0.15277l0.1775,0.08614L79.47881,196.09738z"/>
</g>
</svg>
