<svg xmlns="http://www.w3.org/2000/svg" xmlns:xlink="http://www.w3.org/1999/xlink" viewBox="0 0 170.5 148.37"><defs><style>.cls-1,.cls-5{fill:none;}.cls-2{fill:#5a5f64;}.cls-3{fill:#e3e2e2;}.cls-4{fill:#9d9ea0;}.cls-5{stroke:#c9c6c6;stroke-miterlimit:10;stroke-width:0.59px;}.cls-6{fill:#2b2f36;}.cls-7{fill:#464852;}.cls-8{fill:#d9d8d5;}.cls-9{fill:#fff;}.cls-10{fill:#2c2c36;}.cls-11{fill:#444952;}.cls-12{fill:#ed9524;}.cls-13{fill:#465ba4;}.cls-14{clip-path:url(#clip-path);}.cls-15{clip-path:url(#clip-path-2);}.cls-16{fill:#59c2c5;}.cls-17{fill:#b8dbdc;}.cls-18{fill:#2d2c2d;}.cls-19{fill:#7588bf;}</style><clipPath id="clip-path"><path class="cls-1" d="M118,66.14c-3.95-5.5-6-13.08-7.51-17.65-.74-2.28-1.95-.58-2.22-2.68l-28,.35c-.24,1.88-1.38.23-2,2.22C76.94,53,74.91,60.47,70.82,66.07A43.35,43.35,0,0,0,57.54,97.82c0,14.08,6.28,26.5,15.87,34a58.22,58.22,0,0,1,41.75.17c9.71-7.44,16.08-19.95,16.08-34.12A43.37,43.37,0,0,0,118,66.14Z"/></clipPath><clipPath id="clip-path-2"><rect class="cls-1" x="16.79" y="-3.19" width="154.74" height="154.74"/></clipPath></defs><title>Asset 5</title><g id="Layer_2" data-name="Layer 2"><g id="Layer_1-2" data-name="Layer 1"><path class="cls-2" d="M109,133.34h-.09a29.42,29.42,0,0,0,16-26c0-16.32-13.73-29.56-30.66-29.56S63.62,91,63.62,107.35a29.42,29.42,0,0,0,16,26h-.08a18.45,18.45,0,0,1,9,12.52,2.71,2.71,0,0,1,2.41,0v-9.14a31.44,31.44,0,0,0,6.54,0v9.14a2.68,2.68,0,0,1,2.42,0A18.46,18.46,0,0,1,109,133.34Z"/><path class="cls-3" d="M19.88,83.93c-1.69-5.65-1-9.27-1-9.27s4.58,9.26,7.82,9.73c0,0-8-8.12-7.26-14.41,0,0,4,7.25,7,8.24,0,0-7.25-6.36-5.41-14.75,0,0,3.25,8.9,6.49,9.23,0,0-5.51-6.57-5-12.64,0,0,22.33,30.55,53.22,3.17l-.62,25.94L60.4,107.89s-21.79,8.05-35.58-13.72l0,0A38.24,38.24,0,0,1,20,84.36l-.19-.51Z"/><path class="cls-4" d="M47.23,90.3A33.89,33.89,0,0,0,43,73.78C51.8,76,63,74.48,75.73,63.23l.47,26L60.4,107.89a31.41,31.41,0,0,1-18.18.21A33.92,33.92,0,0,0,47.23,90.3Z"/><path class="cls-3" d="M168.44,83.93c1.69-5.65,1-9.27,1-9.27s-4.58,9.26-7.82,9.73c0,0,8-8.12,7.26-14.41,0,0-4,7.25-7,8.24,0,0,7.25-6.36,5.41-14.75,0,0-3.25,8.9-6.49,9.23,0,0,5.52-6.57,5-12.64,0,0-22.33,30.55-53.22,3.17l.62,25.94,14.71,18.71s21.79,8.05,35.58-13.72l0,0a38.2,38.2,0,0,0,4.77-9.76l.2-.51Z"/><path class="cls-4" d="M141.09,90.3a33.89,33.89,0,0,1,4.28-16.52c-8.85,2.17-20.09.7-32.78-10.55l-.47,26,15.81,18.68a31.41,31.41,0,0,0,18.18.21A33.92,33.92,0,0,1,141.09,90.3Z"/><ellipse class="cls-5" cx="94.28" cy="79.66" rx="20.16" ry="20.24"/><path class="cls-3" d="M80.18,46.36c-.24,1.88-1.38.23-2,2.22-1.69,5.54-4.23,15-10.06,20.63,0,0,5.36,21,26.1,21s26.1-21,26.1-21c-5.6-5.39-8.18-15.09-10-20.52-.75-2.28-1.95-.58-2.22-2.68"/><path class="cls-6" d="M94.22,56.72C73.87,56.72,57.37,75.21,57.37,98c0,14.08,6.28,26.5,15.87,34,19.35-7.45,21-28.45,21-28.45C97.13,123,109,129.91,115,132.15c9.71-7.44,16.08-19.95,16.08-34.12C131.07,75.21,114.58,56.72,94.22,56.72Z"/><path class="cls-3" d="M94.22,56C73.87,56,57.37,74.69,57.37,97.71c0,14.21,6.28,26.74,15.87,34.27,19.35-7.52,21-28.71,21-28.71C97.13,123,109,129.88,115,132.15c9.71-7.51,16.08-20.13,16.08-34.44C131.07,74.69,114.58,56,94.22,56Z"/><ellipse class="cls-7" cx="94.55" cy="54.25" rx="1.77" ry="1.77"/><circle class="cls-8" cx="94.55" cy="54.25" r="0.42"/><ellipse class="cls-7" cx="94.55" cy="64.34" rx="1.77" ry="1.77"/><circle class="cls-8" cx="94.55" cy="64.34" r="0.41"/><path class="cls-3" d="M110.76,22c.23-4.68-.09-9.74-1.92-13.23-.94-2.72-4-4.4-7.15-5.42a4.08,4.08,0,0,1,2-.41A7.57,7.57,0,0,0,95.83,2c-.68-.1-1.22-.15-1.56-.19A22.91,22.91,0,0,1,97.56.32C92.39-1,88,1.88,86,3.41c-3.05,1-6,2.7-6.94,5.35C77.28,12.25,77,17.32,77.19,22a32.27,32.27,0,0,0,.93,11c2.6,6.16,1.37,10.79.08,15.58L94.28,77v.1l16.09-28.44c-1.1-4.37-3.54-9.82-.61-15.74A32.76,32.76,0,0,0,110.76,22Z"/><path class="cls-9" d="M89.22,19c0,1.47-1.5,2.71-3.46,2.78s-3.58-1.07-3.63-2.54,1.5-2.71,3.46-2.78S89.17,17.55,89.22,19Z"/><path class="cls-10" d="M87.28,18.84a1.64,1.64,0,1,1-1.85-1.41A1.65,1.65,0,0,1,87.28,18.84Z"/><path class="cls-9" d="M105.93,19c0,1.47-1.5,2.71-3.46,2.78s-3.58-1.07-3.63-2.54,1.5-2.71,3.46-2.78S105.88,17.55,105.93,19Z"/><path class="cls-10" d="M104,18.84a1.64,1.64,0,1,1-1.85-1.41A1.65,1.65,0,0,1,104,18.84Z"/><path class="cls-11" d="M94,22.7a9.2,9.2,0,0,1-5.41,3.78c2.87,1.81,5.74,7.31,5.74,7.31S97,28.29,99.9,26.48C99.9,26.48,95.71,25.67,94,22.7Z"/><path class="cls-3" d="M103.76,85.13s-4.58,9.26-7.82,9.73c0,0,8-8.12,7.26-14.4,0,0-4,7.25-7,8.24,0,0,7.25-6.36,5.41-14.75,0,0-3.24,8.9-6.49,9.23,0,0,5.51-6.57,5-12.64,0,0-7.75,10.6-20.45,13.72a34.07,34.07,0,0,0,.74,34.31c5.88-1.76,12.21-5.73,17.4-13.92l0,0a38.29,38.29,0,0,0,4.77-9.76l.2-.52-.06.09A22,22,0,0,0,103.76,85.13Z"/><path class="cls-12" d="M78.11,8.33s16.28-5.2,31.39,0a19.89,19.89,0,0,1,1.9,5.57,88.32,88.32,0,0,0-35,0A27.71,27.71,0,0,1,78.11,8.33Z"/><path class="cls-13" d="M77,11.56s17.62-4.43,33.85,0L111,12A79.61,79.61,0,0,0,76.86,12Z"/><g class="cls-14"><g class="cls-15"><path class="cls-16" d="M75.73,53S76.62,70.53,94,70.53s20.48-18.06,20.48-18.06L118.31,61s.15,39.4,12.23,47.56c0,0-1.28,30.14-16.94,25.64,0,0-27.59,4.76-42.82,1.88L57.37,112.48l1.37-4s15.55-15.6,12.59-48.46Z"/></g></g><ellipse class="cls-17" cx="94.62" cy="92.15" rx="13.41" ry="13.45"/><path class="cls-16" d="M112.89,16.33s-.84,5.28,3,4.73C115.89,21.05,118.41,18,112.89,16.33Z"/><path class="cls-16" d="M120.16,16.79s-.84,5.28,3,4.72C123.16,21.51,125.68,18.44,120.16,16.79Z"/><path class="cls-16" d="M79.69,42.23s-3,3.05-.28,4.52C79.42,46.75,82.52,45.95,79.69,42.23Z"/><path class="cls-16" d="M84.57,38.57s-3,3.05-.28,4.52C84.29,43.09,87.39,42.28,84.57,38.57Z"/><path class="cls-16" d="M77.85,23.5s-2.72,3.81.5,4.89C78.35,28.39,81.53,27,77.85,23.5Z"/><path class="cls-16" d="M108.28,43.06s-2.7,3.78.5,4.85C108.78,47.91,111.93,46.51,108.28,43.06Z"/><path class="cls-16" d="M104.76,49.77s-2.7,3.78.5,4.85C105.26,54.62,108.41,53.21,104.76,49.77Z"/><path class="cls-16" d="M63.53,39.69s-3.91,2.5-1.34,4.69C62.19,44.38,65.64,44.25,63.53,39.69Z"/><path class="cls-16" d="M57.77,44.61s-3.91,2.5-1.34,4.69C56.42,49.29,59.87,49.16,57.77,44.61Z"/><path class="cls-16" d="M124.39,34.89s3.91,2.5,1.34,4.69C125.73,39.58,122.29,39.45,124.39,34.89Z"/><path class="cls-16" d="M130.16,39.8s3.91,2.5,1.34,4.69C131.5,44.49,128.05,44.36,130.16,39.8Z"/><path class="cls-16" d="M75.72,14.55s-4.56.85-3,3.85C72.73,18.4,76,19.57,75.72,14.55Z"/><path class="cls-16" d="M69.62,16.95s-4.56.85-3,3.85C66.63,20.8,69.88,22,69.62,16.95Z"/><path class="cls-18" d="M96.41,147.71l.13-.08-.13-.11v-2.27a.52.52,0,0,1,.52-.52,3.22,3.22,0,0,0,2,.61,6.41,6.41,0,0,0,2.19-.61c.06,0,0-.29.31,0,1.95,1.82,6.3,2.19,6.3,2.19.24,0,.4.39.18.65,0,0-.12.1-.12.14l.13.14a.52.52,0,0,1-.52.52H96.93a.52.52,0,0,1-.52-.52Z"/><path class="cls-18" d="M92.15,147.85a.52.52,0,0,1-.52.52H81.17a.52.52,0,0,1-.52-.52l.13-.14s-.08-.11-.12-.14c-.23-.26-.06-.65.18-.65,0,0,4.35-.37,6.3-2.19.32-.29.24,0,.31,0a6.42,6.42,0,0,0,2.19.61,3.22,3.22,0,0,0,2-.61.52.52,0,0,1,.52.52v2.27l-.13.11.13.08Z"/><rect class="cls-4" x="39.59" y="117.01" width="10.86" height="31.36" rx="2.34" ry="2.34"/><path class="cls-2" d="M50.45,123.2h4.2A2.34,2.34,0,0,1,57,125.54v14.29a2.34,2.34,0,0,1-2.34,2.34h-4.2a0,0,0,0,1,0,0v-19A0,0,0,0,1,50.45,123.2Z"/><rect class="cls-4" x="6.54" y="117.01" width="10.86" height="31.36" rx="2.34" ry="2.34" transform="translate(23.95 265.38) rotate(180)"/><path class="cls-2" d="M0,123.2H4.2a2.34,2.34,0,0,1,2.34,2.34v14.29a2.34,2.34,0,0,1-2.34,2.34H0a0,0,0,0,1,0,0v-19A0,0,0,0,1,0,123.2Z" transform="translate(6.54 265.38) rotate(180)"/><rect class="cls-2" x="17.4" y="130.89" width="22.19" height="3.6"/><rect class="cls-12" x="119.15" y="136.09" width="12.27" height="12.27" rx="4.06" ry="4.06"/><rect class="cls-12" x="141.09" y="136.09" width="12.27" height="12.27" rx="4.06" ry="4.06"/><rect class="cls-12" x="131.43" y="140.77" width="9.88" height="2.93"/><rect class="cls-13" x="157.26" y="127.39" width="13.24" height="20.98" rx="0.94" ry="0.94"/><polygon class="cls-19" points="158.2 147.37 158.26 135.84 169.56 135.88 169.5 147.37 158.2 147.37"/><rect class="cls-19" x="158.45" y="123.28" width="10.86" height="4.12"/><rect class="cls-16" x="157.35" y="122.13" width="13.07" height="1.15" rx="0.57" ry="0.57"/><path class="cls-13" d="M161.77,114H166a3.32,3.32,0,0,1,3.32,3.32v4.85a0,0,0,0,1,0,0H158.45a0,0,0,0,1,0,0v-4.85A3.32,3.32,0,0,1,161.77,114Z"/><rect class="cls-16" x="162.64" y="112.02" width="2.77" height="1.94"/></g></g></svg>