<?xml version="1.0" encoding="utf-8"?>
<!-- Generator: Adobe Illustrator 19.2.1, SVG Export Plug-In . SVG Version: 6.00 Build 0)  -->
<svg version="1.1" id="Layer_1" xmlns="http://www.w3.org/2000/svg" xmlns:xlink="http://www.w3.org/1999/xlink" x="0px" y="0px"
	 width="200px" height="200px" viewBox="0 0 200 200" style="enable-background:new 0 0 200 200;" xml:space="preserve">
<style type="text/css">
	.st0{fill:#E2E3E4;}
	.st1{fill:#595D62;}
	.st2{fill:#C7702A;}
	.st3{fill:#C9C7C7;}
	.st4{fill:#EA8824;}
	.st5{fill:none;stroke:#C9C7C7;stroke-width:0.75651;stroke-miterlimit:10;}
	.st6{fill-rule:evenodd;clip-rule:evenodd;fill:#444851;}
	.st7{fill-rule:evenodd;clip-rule:evenodd;fill:#D8D7D6;}
	.st8{fill:#FFFFFF;}
	.st9{fill:#2B2B35;}
	.st10{fill:#434850;}
	.st11{fill:#6C4396;}
	.st12{fill:#A4A4A4;}
	.st13{fill:#EA4C65;}
	.st14{fill:#94814F;}
	.st15{fill:#9C2023;}
	.st16{fill:#B7242C;}
	.st17{fill-rule:evenodd;clip-rule:evenodd;fill:#FFFFFF;}
	.st18{fill:#0C4F6E;}
	.st19{fill:#C18E46;}
	.st20{fill:#3180BF;}
	.st21{fill:#D94F4F;}
	.st22{fill:#2C2C2D;}
	.st23{fill:#595E63;}
	.st24{fill:#E3E2E2;}
	.st25{fill:#9D9EA0;}
	.st26{fill:none;stroke:#C8C6C6;stroke-width:0.75651;stroke-miterlimit:10;}
	.st27{fill:#2A2E35;}
	.st28{fill-rule:evenodd;clip-rule:evenodd;fill:#454751;}
	.st29{fill-rule:evenodd;clip-rule:evenodd;fill:#D8D7D5;}
	.st30{fill:#434851;}
	.st31{fill:#EC9424;}
	.st32{fill:#445AA4;}
	.st33{clip-path:url(#SVGID_2_);fill:#58C1C4;}
	.st34{fill:#B7DBDB;}
	.st35{fill:#58C1C4;}
	.st36{fill:none;stroke:#434851;stroke-width:1.51302;stroke-linecap:round;stroke-linejoin:round;stroke-miterlimit:10;}
	.st37{clip-path:url(#SVGID_4_);fill:#58C1C4;}
	.st38{fill:#010101;}
	.st39{fill:#161718;}
	.st40{fill-rule:evenodd;clip-rule:evenodd;fill:#010101;}
	.st41{fill:#272626;}
	.st42{fill:#17191A;}
	.st43{fill:#D4D5D4;}
	.st44{fill-rule:evenodd;clip-rule:evenodd;fill:#272626;}
	.st45{fill-rule:evenodd;clip-rule:evenodd;fill:#E2E3E4;}
	.st46{fill:#19244E;}
	.st47{fill:#E3E1E1;}
	.st48{fill:#8E1B27;}
	.st49{fill:#CA2033;}
	.st50{fill:#EFE0A7;}
	.st51{fill:none;stroke:#EFE0A7;stroke-width:0.09335;stroke-miterlimit:10;}
	.st52{fill:#EECA81;}
	.st53{fill:#F3F3F3;}
	.st54{fill:#A0A1A4;}
	.st55{fill:#EB6B6D;}
	.st56{fill:none;stroke:#CAC8C6;stroke-width:0.02289;stroke-miterlimit:10;}
	.st57{fill:#464951;}
	.st58{fill:#D7D6D6;}
	.st59{fill:#EECC82;}
	.st60{fill:#F0E0A9;}
	.st61{fill:none;stroke:#F0E0A9;stroke-width:0.01145;stroke-miterlimit:10;}
	.st62{fill:#5AC1C2;}
	.st63{clip-path:url(#SVGID_6_);fill:#E2E3E4;}
	.st64{fill:#EE7823;}
	.st65{fill:#D6563D;}
	.st66{fill:#70533D;}
	.st67{fill:#81BCA9;}
	.st68{clip-path:url(#SVGID_8_);fill:#E2E3E4;}
	.st69{fill:none;stroke:#EFE0A7;stroke-width:0.37825;stroke-miterlimit:10;}
	.st70{clip-path:url(#SVGID_10_);}
	.st71{clip-path:url(#SVGID_12_);fill:#E3E2E2;}
	.st72{clip-path:url(#SVGID_12_);}
	.st73{fill-rule:evenodd;clip-rule:evenodd;fill:#1AAEA1;}
	.st74{fill-rule:evenodd;clip-rule:evenodd;fill:#0C8C70;}
	.st75{fill:#1AAEA1;}
	.st76{fill:#6F513B;}
	.st77{fill:#515050;}
	.st78{fill:#D4563A;}
	.st79{fill:none;}
	.st80{clip-path:url(#SVGID_14_);}
	.st81{clip-path:url(#SVGID_16_);fill:#E3E2E2;}
	.st82{clip-path:url(#SVGID_16_);}
	.st83{fill:#EEE3A3;}
	.st84{fill:none;stroke:#F0E0A9;stroke-width:0.37825;stroke-miterlimit:10;}
	.st85{clip-path:url(#SVGID_18_);}
	.st86{fill-rule:evenodd;clip-rule:evenodd;fill:#434850;}
	.st87{clip-path:url(#SVGID_20_);}
	.st88{fill:none;stroke:#E4CC21;stroke-width:1.92135;stroke-miterlimit:10;}
	.st89{fill:none;stroke:#FFFFFF;stroke-width:2.2037;stroke-miterlimit:10;}
	.st90{fill:#E4CC21;}
	.st91{fill:#232244;}
	.st92{fill:#C8C6C6;}
	.st93{fill:#542F19;}
	.st94{fill-rule:evenodd;clip-rule:evenodd;fill:#3D2E21;}
	.st95{fill:#3D2E21;}
	.st96{fill-rule:evenodd;clip-rule:evenodd;fill:#232244;}
	.st97{fill-rule:evenodd;clip-rule:evenodd;fill:#2E3280;}
	.st98{fill:#281911;}
	.st99{fill-rule:evenodd;clip-rule:evenodd;fill:#E4CC21;}
	.st100{fill-rule:evenodd;clip-rule:evenodd;fill:#D85127;}
	.st101{clip-path:url(#SVGID_22_);}
	.st102{fill-rule:evenodd;clip-rule:evenodd;fill:#EE7434;}
	.st103{fill:#17733B;}
	.st104{clip-path:url(#SVGID_24_);}
	.st105{fill:#1D73B6;}
	.st106{fill:#115E8E;}
	.st107{clip-path:url(#SVGID_26_);}
	.st108{fill:none;stroke:#FFFFFF;stroke-width:1.49993;stroke-miterlimit:10;}
	.st109{fill:none;stroke:#CAC8C6;stroke-width:0.024;stroke-miterlimit:10;}
	.st110{clip-path:url(#SVGID_28_);fill:#E2E3E4;}
	.st111{fill:#603A17;}
	.st112{fill:#78471F;}
	.st113{fill:#F8FAFD;}
	.st114{clip-path:url(#SVGID_30_);}
	.st115{clip-path:url(#SVGID_32_);}
	.st116{fill:none;stroke:#FFFFFF;stroke-width:0.49998;stroke-miterlimit:10;}
	.st117{fill:none;stroke:#FFFFFF;stroke-width:0.74997;stroke-miterlimit:10;}
	.st118{clip-path:url(#SVGID_34_);}
	.st119{clip-path:url(#SVGID_36_);}
	.st120{clip-path:url(#SVGID_38_);fill:#E2E3E4;}
	.st121{clip-path:url(#SVGID_40_);}
	.st122{clip-path:url(#SVGID_42_);}
	.st123{clip-path:url(#SVGID_44_);}
	.st124{opacity:0.7;fill:#434850;}
	.st125{fill:#5B3287;}
	.st126{fill:#643E1E;}
	.st127{fill:#C8D6DE;}
	.st128{fill:none;stroke:#CAC7C6;stroke-width:0.75651;stroke-miterlimit:10;}
	.st129{fill:#B6C3CE;}
	.st130{fill:#273980;}
	.st131{fill:#2B2C35;}
	.st132{clip-path:url(#SVGID_46_);fill:#FFFFFF;stroke:#5A3B84;stroke-width:4.53905;stroke-miterlimit:10;}
	.st133{fill:#C8C7C9;}
	.st134{fill:#056F43;}
	.st135{clip-path:url(#SVGID_48_);}
	.st136{fill:#EBEDF1;}
	.st137{fill:#CF2B29;}
	.st138{fill-rule:evenodd;clip-rule:evenodd;fill:#273980;}
	.st139{fill:#D6232A;}
	.st140{clip-path:url(#SVGID_52_);fill:#FFFFFF;stroke:#5A3B84;stroke-width:4.53905;stroke-miterlimit:10;}
	.st141{clip-path:url(#SVGID_54_);}
	.st142{fill:#532D17;}
	.st143{fill:none;stroke:#5E1116;stroke-width:0.95369;stroke-miterlimit:10;}
	.st144{fill-rule:evenodd;clip-rule:evenodd;fill:#5E1116;}
	.st145{fill:none;stroke:#5E1116;stroke-width:0.94639;stroke-miterlimit:10;}
	.st146{fill:#291B13;}
	.st147{fill-rule:evenodd;clip-rule:evenodd;fill:#291B13;}
	.st148{fill-rule:evenodd;clip-rule:evenodd;fill:#454850;}
	.st149{fill-rule:evenodd;clip-rule:evenodd;fill:#74441F;}
	.st150{fill:#7F161B;}
	.st151{fill-rule:evenodd;clip-rule:evenodd;fill:#7F161B;}
	.st152{fill:none;stroke:#5E1116;stroke-width:1.04342;stroke-miterlimit:10;}
	.st153{fill:#E4E0E4;}
	.st154{clip-path:url(#SVGID_58_);fill:#E1244D;}
	.st155{clip-path:url(#SVGID_60_);fill:#E1244D;}
	.st156{fill:#292933;}
	.st157{fill:none;stroke:#CAC8C6;stroke-width:0.02378;stroke-miterlimit:10;}
	.st158{fill:none;stroke:#F0E0A9;stroke-width:0.01189;stroke-miterlimit:10;}
	.st159{clip-path:url(#SVGID_62_);fill:#E2E3E4;}
	.st160{fill:#2F465D;}
	.st161{fill:#432F21;}
	.st162{fill-rule:evenodd;clip-rule:evenodd;fill:#3D5F7C;}
	.st163{fill-rule:evenodd;clip-rule:evenodd;fill:#2F465D;}
	.st164{clip-path:url(#SVGID_64_);fill:#2C2C2D;}
	.st165{clip-path:url(#SVGID_66_);fill:#F8B917;}
	.st166{clip-path:url(#SVGID_66_);fill:#1F4394;}
	.st167{clip-path:url(#SVGID_68_);fill:#E8212F;}
	.st168{clip-path:url(#SVGID_68_);fill:#C9C8C8;}
	.st169{clip-path:url(#SVGID_68_);fill:#2A2E35;}
	.st170{clip-path:url(#SVGID_68_);fill:#444750;}
	.st171{clip-path:url(#SVGID_68_);fill:#D7D7D6;}
	.st172{clip-path:url(#SVGID_68_);fill:#E3E2E2;}
	.st173{clip-path:url(#SVGID_68_);fill:#FFFFFF;}
	.st174{clip-path:url(#SVGID_68_);fill:#2B2D34;}
	.st175{clip-path:url(#SVGID_68_);fill:#B9252D;}
	.st176{clip-path:url(#SVGID_68_);fill:#24345B;}
	.st177{clip-path:url(#SVGID_68_);fill:#F7F6F8;}
	.st178{clip-path:url(#SVGID_70_);fill:#1F4394;}
	.st179{clip-path:url(#SVGID_70_);fill:#F8B917;}
	.st180{clip-path:url(#SVGID_70_);fill:#883D1E;}
	.st181{clip-path:url(#SVGID_70_);fill:#F5D07C;}
	.st182{clip-path:url(#SVGID_72_);fill:#E8212F;}
	.st183{clip-path:url(#SVGID_72_);fill:#E3E2E2;}
	.st184{clip-path:url(#SVGID_72_);fill:#F7F6F8;}
	.st185{clip-path:url(#SVGID_72_);fill:#F8B917;}
	.st186{clip-path:url(#SVGID_72_);fill:#888983;}
	.st187{clip-path:url(#SVGID_74_);fill:#888983;}
	.st188{clip-path:url(#SVGID_74_);fill:#624219;}
	.st189{clip-path:url(#SVGID_76_);fill:#E3E2E2;}
	.st190{clip-path:url(#SVGID_76_);fill:#2C2C2D;}
	.st191{clip-path:url(#SVGID_76_);fill:#888983;}
	.st192{clip-path:url(#SVGID_78_);fill:#F8B917;}
	.st193{clip-path:url(#SVGID_78_);fill:#1F4394;}
	.st194{clip-path:url(#SVGID_80_);fill:#E8212F;}
	.st195{clip-path:url(#SVGID_80_);fill:#C9C8C8;}
	.st196{clip-path:url(#SVGID_80_);fill:#2A2E35;}
	.st197{clip-path:url(#SVGID_80_);fill:#444750;}
	.st198{clip-path:url(#SVGID_80_);fill:#D7D7D6;}
	.st199{clip-path:url(#SVGID_80_);fill:#E3E2E2;}
	.st200{clip-path:url(#SVGID_80_);fill:#FFFFFF;}
	.st201{clip-path:url(#SVGID_80_);fill:#2B2D34;}
	.st202{clip-path:url(#SVGID_80_);fill:#B9252D;}
	.st203{clip-path:url(#SVGID_80_);fill:#24345B;}
	.st204{clip-path:url(#SVGID_80_);fill:#F7F6F8;}
	.st205{clip-path:url(#SVGID_82_);fill:#1F4394;}
	.st206{clip-path:url(#SVGID_82_);fill:#F8B917;}
	.st207{clip-path:url(#SVGID_82_);fill:#883D1E;}
	.st208{clip-path:url(#SVGID_82_);fill:#F5D07C;}
	.st209{clip-path:url(#SVGID_84_);fill:#E8212F;}
	.st210{clip-path:url(#SVGID_84_);fill:#E3E2E2;}
	.st211{clip-path:url(#SVGID_84_);fill:#F7F6F8;}
	.st212{clip-path:url(#SVGID_84_);fill:#F8B917;}
	.st213{clip-path:url(#SVGID_84_);fill:#888983;}
	.st214{clip-path:url(#SVGID_86_);fill:#888983;}
	.st215{clip-path:url(#SVGID_86_);fill:#624219;}
	.st216{clip-path:url(#SVGID_88_);fill:#E3E2E2;}
	.st217{clip-path:url(#SVGID_88_);fill:#2C2C2D;}
	.st218{clip-path:url(#SVGID_90_);fill:#2C2C2D;}
	.st219{clip-path:url(#SVGID_92_);fill:#F8B917;}
	.st220{clip-path:url(#SVGID_92_);fill:#1F4394;}
	.st221{clip-path:url(#SVGID_94_);fill:#E8212F;}
	.st222{clip-path:url(#SVGID_94_);fill:#C9C8C8;}
	.st223{clip-path:url(#SVGID_94_);fill:#2A2E35;}
	.st224{clip-path:url(#SVGID_94_);fill:#444750;}
	.st225{clip-path:url(#SVGID_94_);fill:#D7D7D6;}
	.st226{clip-path:url(#SVGID_94_);fill:#E3E2E2;}
	.st227{clip-path:url(#SVGID_94_);fill:#FFFFFF;}
	.st228{clip-path:url(#SVGID_94_);fill:#2B2D34;}
	.st229{clip-path:url(#SVGID_94_);fill:#B9252D;}
	.st230{clip-path:url(#SVGID_94_);fill:#24345B;}
	.st231{clip-path:url(#SVGID_94_);fill:#F7F6F8;}
	.st232{clip-path:url(#SVGID_96_);fill:#1F4394;}
	.st233{clip-path:url(#SVGID_96_);fill:#F8B917;}
	.st234{clip-path:url(#SVGID_96_);fill:#883D1E;}
	.st235{clip-path:url(#SVGID_96_);fill:#F5D07C;}
	.st236{clip-path:url(#SVGID_98_);fill:#E8212F;}
	.st237{clip-path:url(#SVGID_98_);fill:#E3E2E2;}
	.st238{clip-path:url(#SVGID_98_);fill:#F7F6F8;}
	.st239{clip-path:url(#SVGID_98_);fill:#F8B917;}
	.st240{clip-path:url(#SVGID_98_);fill:#888983;}
	.st241{clip-path:url(#SVGID_100_);fill:#888983;}
	.st242{clip-path:url(#SVGID_100_);fill:#624219;}
	.st243{clip-path:url(#SVGID_102_);fill:#E3E2E2;}
	.st244{clip-path:url(#SVGID_102_);fill:#2C2C2D;}
	.st245{clip-path:url(#SVGID_102_);fill:#888983;}
	.st246{clip-path:url(#SVGID_104_);fill:#F8B917;}
	.st247{clip-path:url(#SVGID_104_);fill:#1F4394;}
	.st248{clip-path:url(#SVGID_106_);fill:#E8212F;}
	.st249{clip-path:url(#SVGID_106_);fill:#C9C8C8;}
	.st250{clip-path:url(#SVGID_106_);fill:#2A2E35;}
	.st251{clip-path:url(#SVGID_106_);fill:#444750;}
	.st252{clip-path:url(#SVGID_106_);fill:#D7D7D6;}
	.st253{clip-path:url(#SVGID_106_);fill:#E3E2E2;}
	.st254{clip-path:url(#SVGID_106_);fill:#FFFFFF;}
	.st255{clip-path:url(#SVGID_106_);fill:#2B2D34;}
	.st256{clip-path:url(#SVGID_106_);fill:#B9252D;}
	.st257{clip-path:url(#SVGID_106_);fill:#24345B;}
	.st258{clip-path:url(#SVGID_106_);fill:#F7F6F8;}
	.st259{clip-path:url(#SVGID_108_);fill:#1F4394;}
	.st260{clip-path:url(#SVGID_108_);fill:#F8B917;}
	.st261{clip-path:url(#SVGID_108_);fill:#883D1E;}
	.st262{clip-path:url(#SVGID_108_);fill:#F5D07C;}
	.st263{clip-path:url(#SVGID_110_);fill:#E8212F;}
	.st264{clip-path:url(#SVGID_110_);fill:#E3E2E2;}
	.st265{clip-path:url(#SVGID_110_);fill:#F7F6F8;}
	.st266{clip-path:url(#SVGID_110_);fill:#F8B917;}
	.st267{clip-path:url(#SVGID_110_);fill:#888983;}
	.st268{clip-path:url(#SVGID_112_);fill:#888983;}
	.st269{clip-path:url(#SVGID_112_);fill:#624219;}
	.st270{clip-path:url(#SVGID_114_);fill:#E3E2E2;}
	.st271{clip-path:url(#SVGID_114_);fill:#2C2C2D;}
	.st272{fill:#EDE2A3;}
	.st273{clip-path:url(#SVGID_116_);}
	.st274{fill-rule:evenodd;clip-rule:evenodd;fill:#434851;}
	.st275{fill-rule:evenodd;clip-rule:evenodd;fill:#E3E2E2;}
	.st276{fill:#2A2B2A;}
	.st277{clip-path:url(#SVGID_118_);}
	.st278{clip-path:url(#SVGID_120_);}
	.st279{clip-path:url(#SVGID_122_);}
	.st280{fill:#1F3566;}
	.st281{fill:#E3E4E5;}
	.st282{fill:#4BB1E4;}
	.st283{fill:#2D2A6C;}
	.st284{fill-rule:evenodd;clip-rule:evenodd;fill:#D8D9D5;}
	.st285{fill:#434852;}
	.st286{fill:#E3E3E3;}
	.st287{fill:#162E54;}
	.st288{fill:none;stroke:#335DAB;stroke-width:1.68786;stroke-miterlimit:10;}
	.st289{fill:#81817F;}
	.st290{fill:#142B49;}
	.st291{fill:#5A5A5A;}
	.st292{fill:none;stroke:#FFFFFF;stroke-width:0.84393;stroke-linecap:round;stroke-linejoin:round;stroke-miterlimit:10;}
	.st293{fill:#AB9D9C;}
	.st294{fill:#EA6689;}
	.st295{fill:#CE1D5B;}
	.st296{fill:#BF742A;}
	.st297{fill:#273449;}
	.st298{fill:#A4464B;}
	.st299{fill:none;stroke:#CAC8C6;stroke-width:0.0662;stroke-miterlimit:10;}
	.st300{fill:#80333A;}
	.st301{fill:none;stroke:#B4B4B4;stroke-width:0.25748;stroke-miterlimit:10;}
	.st302{fill:none;stroke:#B4B4B4;stroke-width:3.08973;stroke-miterlimit:10;}
	.st303{fill:none;stroke:#B4B4B4;stroke-width:1.02991;stroke-miterlimit:10;}
	.st304{fill:none;stroke:#82858B;stroke-width:0.51495;stroke-miterlimit:10;}
	.st305{fill:none;stroke:#E2E3E4;stroke-width:1.02991;stroke-miterlimit:10;}
	.st306{fill:#E5E5E5;}
	.st307{fill:#2D2C2D;}
	.st308{fill:#4CB2E5;}
	.st309{fill:#AD2824;}
	.st310{fill-rule:evenodd;clip-rule:evenodd;fill:#D9D9D6;}
	.st311{fill:#E4E4E3;}
	.st312{fill:#DB4826;}
	.st313{fill:#B33725;}
	.st314{fill:#120C0D;}
	.st315{fill:#F3F0F0;}
	.st316{fill:#C4BFBF;}
	.st317{clip-path:url(#SVGID_124_);fill:none;stroke:#F3F0F0;stroke-width:1.10165;stroke-linecap:round;stroke-miterlimit:10;}
	.st318{clip-path:url(#SVGID_126_);fill:none;stroke:#F3F0F0;stroke-width:1.10165;stroke-linecap:round;stroke-miterlimit:10;}
	.st319{clip-path:url(#SVGID_128_);fill:none;stroke:#F3F0F0;stroke-width:1.10165;stroke-linecap:round;stroke-miterlimit:10;}
	.st320{fill:#DE5B2A;}
	.st321{fill:#7A2716;}
	.st322{fill:#E5E4E4;}
	.st323{fill:#BB4928;}
	.st324{fill:#454545;}
	.st325{fill:#6265AE;}
	.st326{fill:none;stroke:#CAC5C4;stroke-width:0.55083;stroke-linecap:round;stroke-miterlimit:10;}
	.st327{fill:#E1E3E3;}
	.st328{fill:#484848;}
	.st329{fill:#422F90;}
	.st330{fill:#D57A28;}
	.st331{fill:#B4B4B5;}
	.st332{fill:#4B4B4D;}
	.st333{fill:#949393;}
	.st334{fill:#040404;}
	.st335{clip-path:url(#SVGID_130_);fill:none;stroke:#F3F0F0;stroke-width:1.10165;stroke-linecap:round;stroke-miterlimit:10;}
	.st336{clip-path:url(#SVGID_132_);fill:none;stroke:#F3F0F0;stroke-width:1.10165;stroke-linecap:round;stroke-miterlimit:10;}
	.st337{clip-path:url(#SVGID_134_);fill:none;stroke:#F3F0F0;stroke-width:1.10165;stroke-linecap:round;stroke-miterlimit:10;}
	.st338{clip-path:url(#SVGID_140_);fill:#AD2824;}
	.st339{fill:#CDCCCC;}
	.st340{fill:#E4E5E6;}
	.st341{opacity:0.72;fill:none;stroke:#FFFFFF;stroke-width:1.1546;stroke-linecap:round;stroke-miterlimit:10;}
	.st342{fill:#BBD867;}
	.st343{fill:none;stroke:#BBD867;stroke-width:5.799;stroke-miterlimit:10;}
	.st344{clip-path:url(#SVGID_146_);fill:#AD2824;}
	.st345{fill:none;stroke:#AE4E85;stroke-width:1.54066;stroke-linecap:round;stroke-linejoin:round;stroke-miterlimit:10;}
	.st346{fill:none;stroke:#E97625;stroke-width:1.62274;stroke-linecap:round;stroke-linejoin:round;stroke-miterlimit:10;}
	.st347{fill:none;stroke:#C9C7C7;stroke-width:0.23348;stroke-miterlimit:10;}
	.st348{fill:#981E5C;}
	.st349{fill:none;stroke:#AE4E85;stroke-width:1.21706;stroke-linecap:round;stroke-linejoin:round;stroke-miterlimit:10;}
	.st350{fill:#AE4E85;}
	.st351{fill:#F7B456;}
	.st352{fill:#E97625;}
	.st353{fill:none;stroke:#E97625;stroke-width:1.54273;stroke-linecap:round;stroke-linejoin:round;stroke-miterlimit:10;}
</style>
<g>
	<g>
		<path class="st23" d="M120.69666,174.17186l-0.10752,0.00902c12.00363-6.28751,20.15381-18.55182,20.15381-32.65129
			c0-20.50407-17.245-37.12914-38.51353-37.12914c-21.26902,0-38.51199,16.62508-38.51199,37.12914
			c0,14.09947,8.15017,26.36378,20.15085,32.65129l-0.09554-0.00751c5.83916,3.36366,10.06239,9.04872,11.3177,15.733
			c0.25312-0.13962,1.44639-0.69943,3.03091,0.02805v-11.48483c1.35184,0.13762,2.71972,0.21214,4.10807,0.21214
			c1.38742,0,2.75729-0.07452,4.10961-0.21214v11.48483c1.60703-0.73952,2.80931-0.15211,3.03993-0.02303
			C110.63028,183.22209,114.85898,177.53703,120.69666,174.17186z"/>
		<ellipse class="st26" cx="102.22931" cy="106.74612" rx="25.32835" ry="25.41992"/>
		<path class="st24" d="M84.51919,64.92385c-0.2992,2.36751-1.73362,0.28773-2.49509,2.7908
			c-2.11937,6.9544-5.30939,18.8455-12.64204,25.91351c0,0,6.73028,26.35073,32.77834,26.35073
			c26.05157,0,32.78288-26.35073,32.78288-26.35073c-7.02947-6.77686-10.27157-18.95157-12.50851-25.77943
			c-0.93456-2.86085-2.44501-0.7345-2.78175-3.36964"/>
		<g>
			<ellipse class="st28" cx="102.56693" cy="74.82917" rx="2.21939" ry="2.22794"/>
			<circle class="st29" cx="102.5663" cy="74.82855" r="0.52233"/>
		</g>
		<path class="st50" d="M130.33582,144.28932c-0.12303-0.32968,0.03802-0.68988,0.36725-0.81198l0,0
			c0.32724-0.12259,0.68292,0.04401,0.80551,0.37073l0.82605,2.22389c0.11757,0.32724-0.04857,0.68898-0.37079,0.81154l0,0
			c-0.3242,0.11708-0.68942-0.04903-0.8085-0.37473L130.33582,144.28932z"/>
		<path class="st50" d="M130.54948,147.19521c-0.07611-0.35919,0.14908-0.71643,0.50882-0.80052l1.51793-0.33772
			c0.36174-0.08203,0.71797,0.14612,0.79805,0.50986l0,0c0.07751,0.36075-0.14864,0.71991-0.50787,0.79802l-1.51793,0.3412
			C130.99022,147.78857,130.63199,147.56042,130.54948,147.19521L130.54948,147.19521z"/>
		
			<ellipse transform="matrix(0.95966 -0.28117 0.28117 0.95966 -36.00984 43.04119)" class="st69" cx="131.98476" cy="147.00746" rx="2.16465" ry="2.16953"/>
		<g>
			<path class="st9" d="M126.68449,133.37192l0.6299-0.24315l0.0255,0.06754c-0.05148,0.021-0.09103,0.04253-0.11956,0.06306
				c-0.02901,0.01999-0.04053,0.03899-0.033,0.05801c0.00349,0.009,0.01848,0.02652,0.04453,0.05054
				c0.02601,0.02353,0.05701,0.05051,0.09457,0.07855c0.0415,0.03099,0.08905,0.06702,0.14458,0.10855
				c0.05605,0.04105,0.11055,0.07957,0.16409,0.1181c0.02753-0.09605,0.05605-0.20915,0.08704-0.34023
				c0.03107-0.13062,0.04305-0.20564,0.03603-0.22467c-0.00798-0.021-0.02353-0.032-0.04601-0.035
				c-0.02301-0.00302-0.06805,0.00751-0.13556,0.03152l-0.02555-0.06754l0.50231-0.19412l0.02602,0.06702
				c-0.01604,0.008-0.036,0.01752-0.06004,0.03152c-0.02449,0.01352-0.04355,0.02704-0.05649,0.04152
				c-0.02554,0.03101-0.04504,0.06104-0.05708,0.08853c-0.01249,0.02805-0.02249,0.06059-0.03151,0.09657
				c-0.02003,0.07109-0.04453,0.16064-0.07604,0.26823c-0.03104,0.10803-0.05804,0.20558-0.07954,0.29262
				c0.05701,0.04008,0.1306,0.09163,0.21864,0.15115c0.08802,0.061,0.18311,0.12654,0.28465,0.19559
				c0.04156,0.02901,0.07359,0.04904,0.09607,0.05952c0.02153,0.01053,0.04805,0.01653,0.07854,0.01851
				c0.01804,0.00206,0.04053-0.00096,0.06906-0.00694c0.02855-0.00705,0.05054-0.01157,0.06708-0.01607l0.02599,0.06657
				l-0.62241,0.24115l-0.02601-0.06657c0.03554-0.01596,0.07204-0.03548,0.1081-0.05849
				c0.03648-0.02402,0.05103-0.04408,0.04497-0.06004c-0.00444-0.01152-0.02046-0.03055-0.04799-0.05405
				c-0.02801-0.02451-0.05804-0.04903-0.09259-0.07455c-0.03599-0.02802-0.076-0.05702-0.11956-0.09009
				c-0.04298-0.0325-0.09606-0.06898-0.1571-0.11105c-0.034,0.12509-0.06203,0.23619-0.08354,0.3347
				c-0.02153,0.09811-0.02855,0.1581-0.01902,0.18266c0.00751,0.02002,0.02457,0.03,0.05206,0.03
				c0.02752,0.00099,0.06953-0.00902,0.12757-0.02698l0.02602,0.06699l-0.50233,0.19316l-0.0255-0.06706
				c0.01552-0.00702,0.03503-0.01752,0.05952-0.03101c0.0235-0.01454,0.04304-0.02904,0.05656-0.04355
				c0.02749-0.0275,0.04549-0.05502,0.05399-0.07903c0.00953-0.02554,0.02054-0.05957,0.03454-0.10509
				c0.02601-0.08453,0.04807-0.16411,0.06906-0.23866c0.0205-0.07356,0.04503-0.16357,0.07307-0.26917
				c-0.07758-0.05251-0.16618-0.11305-0.26373-0.1806c-0.09754-0.06801-0.19061-0.1326-0.27866-0.19411
				c-0.03103-0.02151-0.06403-0.03957-0.09908-0.05554c-0.03503-0.01552-0.06255-0.02553-0.08154-0.02907
				c-0.01902-0.00296-0.04202,0-0.06754,0.00754c-0.02704,0.00699-0.04902,0.01503-0.06705,0.02051L126.68449,133.37192z"/>
			<path class="st9" d="M126.16118,133.57405l0.60589-0.23413l0.02554,0.0675c-0.01653,0.00801-0.04002,0.01953-0.07109,0.03505
				c-0.03252,0.0145-0.05251,0.02701-0.06499,0.03699c-0.01703,0.01656-0.02804,0.03304-0.03203,0.05206
				c-0.00406,0.0175-0.00052,0.03905,0.0085,0.06454l0.37574,0.9776c0.00799,0.02251,0.019,0.03854,0.03152,0.05154
				c0.01249,0.01305,0.03352,0.01903,0.06403,0.01955c0.02102-0.00052,0.048-0.00304,0.08002-0.0065
				c0.03104-0.00504,0.05502-0.01006,0.07504-0.01555l0.02605,0.06702l-0.60589,0.23419l-0.02653-0.06708
				c0.02002-0.00902,0.04253-0.01952,0.06802-0.03452c0.02553-0.01401,0.04703-0.02901,0.06509-0.04305
				c0.021-0.01747,0.03252-0.03601,0.034-0.05701c0.00149-0.01903-0.00148-0.03951-0.00953-0.06104l-0.37523-0.97664
				c-0.00799-0.021-0.019-0.03751-0.035-0.05103c-0.01551-0.01146-0.03651-0.01952-0.06203-0.01952
				c-0.015,0-0.03853,0.00252-0.07104,0.00806c-0.03203,0.00598-0.05904,0.01248-0.08009,0.01898L126.16118,133.57405z"/>
			<path class="st9" d="M125.56029,133.80618l0.60588-0.23361l0.0255,0.06699c-0.01597,0.00902-0.03951,0.01903-0.07201,0.03557
				c-0.03056,0.01398-0.05254,0.02698-0.06255,0.03651c-0.018,0.01651-0.02952,0.03299-0.03351,0.05202
				c-0.00348,0.01804-0.00103,0.03853,0.0085,0.06454l0.37523,0.97762c0.00901,0.02257,0.01951,0.04001,0.03152,0.05205
				c0.01352,0.01253,0.03451,0.01749,0.06403,0.01955c0.0215-0.00206,0.04858-0.00302,0.08006-0.00702
				c0.03101-0.00502,0.05656-0.01001,0.07456-0.01555l0.02601,0.06754l-0.60541,0.23416l-0.02598-0.06757
				c0.01903-0.00798,0.04202-0.01944,0.06754-0.034c0.02549-0.01503,0.04755-0.02901,0.06506-0.04305
				c0.022-0.01747,0.03204-0.03601,0.03352-0.05652c0.002-0.02002-0.00052-0.04002-0.00902-0.06204l-0.37472-0.97658
				c-0.00753-0.02005-0.02005-0.03757-0.03506-0.05057c-0.01551-0.01149-0.03654-0.01851-0.06203-0.01952
				c-0.01452,0-0.03905,0.002-0.07056,0.00803c-0.033,0.00549-0.06004,0.01199-0.08103,0.01901L125.56029,133.80618z"/>
		</g>
		<g>
			<path class="st9" d="M129.86201,142.53879c0.01653-0.00652,0.03455-0.01755,0.05556-0.03358
				c0.02048-0.01596,0.03703-0.03151,0.04852-0.04601c0.01648-0.02254,0.0275-0.04607,0.032-0.07204
				c0.0045-0.0255,0.00801-0.05505,0.00954-0.08908c0.00398-0.11656,0.00749-0.29868,0.00949-0.54434
				c0.00302-0.24614,0.0045-0.50281,0.00598-0.76949l0.07858-0.03c0.1851,0.2106,0.36371,0.41273,0.53584,0.60788
				c0.17261,0.1956,0.28818,0.32617,0.34921,0.39474c0.01604,0.01602,0.03252,0.03,0.05154,0.04053
				c0.01752,0.0085,0.03951,0.01648,0.06602,0.02298c0.02103,0.00354,0.04305,0.00452,0.06554,0.00156
				c0.02254-0.00156,0.04301-0.00702,0.06204-0.0125l0.0255,0.06802l-0.5558,0.21463l-0.02605-0.06755
				c0.04601-0.0195,0.08403-0.04053,0.11458-0.05952c0.02904-0.02002,0.04053-0.03853,0.034-0.05605
				c-0.00296-0.00702-0.00702-0.01552-0.013-0.02353c-0.00652-0.00902-0.01147-0.01552-0.01546-0.02048
				c-0.04755-0.05309-0.1241-0.13962-0.23117-0.26068c-0.10559-0.11957-0.25768-0.29118-0.45381-0.51283
				c-0.00299,0.13512-0.00499,0.29521-0.00499,0.4798c-0.002,0.18466-0.002,0.30969,0,0.37775
				c0,0.06602,0.00351,0.11105,0.00853,0.1346c0.00546,0.024,0.0105,0.04152,0.01596,0.05605
				c0.00554,0.015,0.017,0.02446,0.03358,0.02846c0.017,0.00502,0.03699,0.00804,0.06151,0.00702
				c0.02299-0.00296,0.04602-0.00702,0.06854-0.01146c0.02199-0.00504,0.04601-0.0105,0.06857-0.01804l0.0255,0.0675
				l-0.50034,0.19366L129.86201,142.53879z"/>
			<path class="st9" d="M128.92345,141.42902l0.60535-0.23361l0.02657,0.06802c-0.017,0.00702-0.04105,0.01903-0.07208,0.03455
				c-0.03203,0.01396-0.05254,0.02701-0.06406,0.03699c-0.017,0.01654-0.0275,0.03354-0.03249,0.05153
				c-0.00351,0.01804-0.00101,0.03957,0.00853,0.06454l0.37572,0.97813c0.00853,0.02205,0.01851,0.04001,0.03151,0.05154
				c0.01198,0.01303,0.03403,0.01851,0.06403,0.01851c0.02103,0,0.04803-0.00148,0.08003-0.00548
				c0.03055-0.00502,0.05508-0.01053,0.07411-0.01604l0.02646,0.06854l-0.60585,0.23317l-0.02553-0.06757
				c0.01903-0.00803,0.04155-0.01949,0.06705-0.03403c0.02554-0.01501,0.04752-0.02901,0.06451-0.04298
				c0.02151-0.01703,0.03307-0.03557,0.03506-0.05656c0.00096-0.02005-0.002-0.04105-0.01001-0.06155l-0.37527-0.9771
				c-0.00798-0.02002-0.01947-0.03653-0.03447-0.05057c-0.01552-0.0125-0.03609-0.01848-0.06207-0.0195
				c-0.015,0-0.0385,0.00198-0.07155,0.00804c-0.03201,0.00548-0.0585,0.0125-0.08005,0.019L128.92345,141.42902z"/>
		</g>
		<g>
			<path class="st9" d="M123.32235,140.04318l-0.20664-0.61644l0.06857-0.02396c0.00702,0.01796,0.01752,0.0425,0.03104,0.07452
				c0.014,0.03151,0.02501,0.05353,0.03499,0.06606c0.01552,0.01796,0.03204,0.02898,0.05006,0.03348
				c0.017,0.00452,0.03899,0.00304,0.06403-0.00546l0.99065-0.33322c0.02199-0.00806,0.04002-0.01804,0.05302-0.03001
				c0.01301-0.01204,0.01903-0.03305,0.02051-0.06354c0.00199-0.02151,0.00103-0.04858-0.00251-0.07904
				c-0.003-0.03203-0.00698-0.05756-0.01201-0.07661l0.06857-0.02298l0.20661,0.6169l-0.06853,0.0235
				c-0.0075-0.01952-0.01755-0.04253-0.03049-0.06953c-0.01455-0.0255-0.02708-0.04803-0.04105-0.06706
				c-0.01552-0.0215-0.03355-0.03403-0.05354-0.03603c-0.02053-0.00198-0.04156-0.0005-0.06203,0.00754l-0.98917,0.3327
				c-0.02099,0.00699-0.03899,0.01851-0.05154,0.03352c-0.01345,0.01399-0.0215,0.03505-0.02298,0.06003
				c-0.001,0.01601,0.00103,0.03951,0.00502,0.07257c0.00399,0.032,0.00947,0.06003,0.01597,0.08105L123.32235,140.04318z"/>
			<path class="st9" d="M123.67359,141.09483l-0.21414-0.64243l0.06802-0.02254c0.019,0.05154,0.03809,0.09207,0.05804,0.12262
				c0.01903,0.0295,0.03802,0.04153,0.05605,0.03548c0.0095-0.00398,0.02753-0.01744,0.05206-0.04297
				c0.02598-0.02402,0.05302-0.05508,0.08202-0.09108c0.03307-0.03853,0.07105-0.08601,0.11509-0.14006
				c0.04301-0.05505,0.08405-0.1071,0.12407-0.15961c-0.09355-0.03104-0.20512-0.06602-0.33419-0.10257
				c-0.1296-0.03654-0.20364-0.05205-0.22215-0.04555c-0.02054,0.00702-0.03304,0.02249-0.036,0.04555
				c-0.00354,0.02301,0.00445,0.06802,0.02447,0.1366l-0.06853,0.02298l-0.17159-0.5123l0.06902-0.02354
				c0.00651,0.01703,0.01649,0.03751,0.02853,0.06259c0.0115,0.02394,0.02502,0.04401,0.03905,0.05797
				c0.02901,0.02654,0.05798,0.04755,0.08505,0.05959c0.02749,0.01398,0.05901,0.02702,0.09451,0.03802
				c0.07053,0.02199,0.15765,0.05051,0.26469,0.08705c0.10508,0.03551,0.20166,0.06705,0.2877,0.09303
				c0.04149-0.05602,0.09554-0.12706,0.15909-0.21263c0.06455-0.08705,0.13409-0.1786,0.20764-0.27718
				c0.031-0.0405,0.05206-0.07253,0.06351-0.09355c0.01153-0.02202,0.01903-0.04703,0.02257-0.07755
				c0.00045-0.01851,0-0.04156-0.00454-0.07057c-0.00499-0.02852-0.00953-0.05202-0.01352-0.06801l0.06857-0.02254l0.21163,0.6344
				l-0.06802,0.02299c-0.01355-0.036-0.03158-0.0735-0.05308-0.11151c-0.02148-0.03706-0.04002-0.05302-0.05701-0.04704
				c-0.01252,0.00348-0.03055,0.019-0.05608,0.04549c-0.02498,0.02654-0.05103,0.05656-0.07851,0.09007
				c-0.02804,0.03503-0.06004,0.07356-0.09503,0.11507c-0.03403,0.04303-0.07307,0.09406-0.11663,0.15314
				c0.12262,0.04001,0.2322,0.07256,0.32871,0.09901c0.09658,0.02553,0.15765,0.03557,0.18066,0.02657
				c0.02047-0.006,0.03149-0.02353,0.03351-0.05206c0.001-0.02649-0.00653-0.06905-0.02302-0.12758l0.06854-0.02298l0.17062,0.5118
				l-0.06853,0.02249c-0.00503-0.015-0.01504-0.03601-0.02804-0.06151c-0.01301-0.02405-0.02602-0.04401-0.04002-0.05807
				c-0.02653-0.02846-0.05302-0.047-0.07607-0.05753c-0.0245-0.00998-0.05853-0.02399-0.10356-0.03951
				c-0.08405-0.02852-0.16158-0.05502-0.23413-0.07954c-0.07304-0.02405-0.16112-0.05206-0.26517-0.08505
				c-0.05553,0.07555-0.11956,0.1606-0.19161,0.25615c-0.07207,0.09503-0.14065,0.18562-0.20564,0.27267
				c-0.02154,0.02904-0.04156,0.06107-0.05952,0.09605c-0.01702,0.03354-0.027,0.06056-0.03306,0.08055
				c-0.00295,0.01854-0.00199,0.041,0.00451,0.06808c0.0065,0.02649,0.0125,0.04947,0.01854,0.0675L123.67359,141.09483z"/>
		</g>
		
			<ellipse transform="matrix(0.95939 -0.28208 0.28208 0.95939 -33.68032 41.93452)" class="st9" cx="128.80284" cy="137.94258" rx="0.20314" ry="0.22704"/>
		<polygon class="st9" points="127.73315,135.55981 127.92527,135.48274 128.90392,137.89529 128.71278,137.97333 		"/>
		<polygon class="st27" points="130.48941,137.16681 130.56198,137.35745 128.8564,138.05838 128.77985,137.86426 		"/>
		<polyline class="st9" points="128.17894,135.40874 127.65763,135.08247 127.5701,135.81796 128.20798,135.49628 		"/>
		<polyline class="st9" points="130.60101,137.50803 130.96623,137.01219 130.24626,136.86511 130.51694,137.52705 		"/>
		<path class="st27" d="M116.20184,140.04968c0,0,11.23766,1.07065,19.69202-2.25644
			c9.98132-3.92702,1.74159,15.4433,1.74159,15.4433l-12.99525-0.07004L116.20184,140.04968z"/>
		<g>
			<ellipse class="st28" cx="102.56693" cy="87.50923" rx="2.21939" ry="2.22742"/>
			<circle class="st29" cx="102.5663" cy="87.50948" r="0.52245"/>
		</g>
		<path class="st24" d="M122.92812,34.3159c0.29066-5.87474-0.11709-12.23529-2.41405-16.61455
			c-1.18622-3.41066-5.05723-5.52156-8.98618-6.81385c1.75408-0.04407,3.245-0.03103,3.245-0.03103
			c-4.18861-2.82676-7.86444-2.63367-10.5887-1.63352c-0.84655-0.12008-1.52748-0.19312-1.96024-0.23565
			c1.95471-1.12473,4.13164-1.89773,4.13164-1.89773c-6.49315-1.5965-12.04218,1.95828-14.46225,3.88697
			c-3.83392,1.29982-7.55878,3.39167-8.71752,6.72481c-2.29695,4.37926-2.7057,10.73981-2.41454,16.61455
			c-0.27264,5.52452-0.0415,9.71217,1.16123,13.83128c3.26763,7.74041,1.7206,13.55665,0.1016,19.56747l20.20532,35.72923v0.13209
			l20.20535-35.72724c-1.38487-5.49449-4.44077-12.33786-0.75845-19.76709C122.94814,44.0246,123.16225,39.01486,122.92812,34.3159z
			"/>
		<path class="st8" d="M92.55076,30.58055c0.06107,1.84912-1.88565,3.40464-4.34522,3.49169
			c-2.45507,0.08054-4.50088-1.34135-4.56243-3.19455c-0.061-1.84165,1.88469-3.40615,4.33924-3.4877
			C90.44347,27.31093,92.48827,28.73433,92.55076,30.58055z"/>
		<path class="st9" d="M90.12325,30.35234c0.15511,1.13278-0.6254,2.18092-1.75814,2.33957
			c-1.12817,0.16054-2.17538-0.64648-2.32846-1.76764c-0.15311-1.13526,0.62888-2.17442,1.7611-2.3385
			C88.92648,28.43565,89.97015,29.22417,90.12325,30.35234z"/>
		<path class="st8" d="M119.79512,30.58055c0.06207,1.84912-1.8852,3.40464-4.34375,3.49169
			c-2.45809,0.08054-4.50088-1.34135-4.56239-3.19455c-0.06155-1.84165,1.88217-3.40615,4.33975-3.4877
			C117.68528,27.31093,119.73161,28.73433,119.79512,30.58055z"/>
		<path class="st9" d="M117.36707,30.35234c0.15558,1.13278-0.62592,2.18092-1.7576,2.33957
			c-1.1292,0.16054-2.17538-0.64648-2.32852-1.76764c-0.15108-1.13526,0.6274-2.17442,1.76314-2.3385
			C116.17232,28.43565,117.21495,29.22417,117.36707,30.35234z"/>
		<path class="st9" d="M131.37247,25.61289c0,0,0.02953-0.67546-1.27832-0.86455c-1.30832-0.19013-2.31693-1.09572-14.55476-0.80155
			c-8.68299,0.73948-11.19056,1.70612-11.19056,1.70612s-0.48134,0.14458-1.13574,0.2041
			c-0.34976,0.06255-0.71196,0.09709-1.08623,0.09709c-0.40527,0-0.8-0.03905-1.17671-0.11309
			c-0.56987-0.06603-0.97466-0.1881-0.97466-0.1881s-2.50905-0.96663-11.18811-1.70612
			c-12.24273-0.29417-13.24941,0.61142-14.55522,0.80155c-1.30884,0.1891-1.27883,0.86455-1.27883,0.86455l0.01301,0.8445
			c-0.10656,2.48658,0.53432,2.52911,0.53432,2.52911c0.08604,0.19013,0.34474,0.54788,0.34474,0.54788
			c0.6639,0.27363,1.54297,3.0389,1.54297,3.0389c1.15628,3.39668,2.93641,3.81495,2.93641,3.81495
			c4.802,1.7501,12.73256,0.82254,12.73256,0.82254s4.45935-0.12659,5.85321-1.95775
			c1.04817-1.29833,2.61017-5.42395,2.61017-5.42395s0.2832-0.61139,0.90408-1.02316c0.72896-0.34874,1.7356-0.35273,1.7356-0.35273
			s1.00912,0.00399,1.7376,0.35273c0.62189,0.41177,1.00764,1.12421,1.00764,1.12421s1.45995,4.02456,2.50961,5.3229
			c1.39185,1.83116,5.85024,1.95775,5.85024,1.95775s7.93353,0.92757,12.73456-0.82254c0,0,1.77717-0.41826,2.93687-3.81495
			c0,0,0.87755-2.76527,1.54347-3.0389c0,0,0.25618-0.35775,0.34276-0.54788c0,0,0.64339-0.04253,0.53632-2.52911
			L131.37247,25.61289z M97.94024,30.38688c-1.19829,4.37282-2.9544,4.82759-2.9544,4.82759
			c-6.76678,2.14434-13.95937,0.70194-13.95937,0.70194c-3.18052-0.23567-3.80791-2.40951-3.80791-2.40951
			c-1.10622-2.34452-1.38242-6.47966-1.38242-6.47966c0-1.93423,4.60547-1.92071,4.60547-1.92071
			c11.05249-0.65688,16.3479,1.13175,16.3479,1.13175C99.11049,27.06778,97.94024,30.38688,97.94024,30.38688z M127.15878,33.50691
			c0,0-0.62739,2.17384-3.80842,2.40951c0,0-7.19504,1.4424-13.95835-0.70194c0,0-1.75662-0.45478-2.95536-4.82759
			c0,0-1.17128-3.3191,1.15221-4.1486c0,0,5.29484-1.78863,16.34791-1.13175c0,0,4.60489-0.01352,4.60489,1.92071
			C128.54166,27.02725,128.267,31.16239,127.15878,33.50691z"/>
		<path class="st30" d="M101.82519,35.20398c-2.20642,3.72835-6.79231,4.74152-6.79231,4.74152
			c3.60426,2.27344,7.20305,9.18882,7.20305,9.18882s3.45123-6.91538,7.05751-9.18882
			C109.29343,39.9455,104.02906,38.93233,101.82519,35.20398z"/>
		<g>
			<path class="st35" d="M118.84104,62.41827c0-0.10507-0.00753-0.20864-0.02656-0.31918h-0.00702
				c-0.05251-0.30022-0.15205-0.51034-0.15205-0.51034l-4.64297-6.15491c-1.27185-1.58054-2.91184-0.4513-2.91184-0.4513
				l-7.13455,4.84112c-0.52934-0.38727-1.18129-0.6149-1.88173-0.6149c-0.73395,0-1.40937,0.24611-1.94772,0.66238l0,0
				l-7.20657-4.8886c0,0-1.63703-1.12923-2.90536,0.4513l-4.64996,6.15491c0,0-0.10057,0.21012-0.15211,0.51034h-0.00496
				c-0.01953,0.11055-0.02907,0.21411-0.02752,0.31918v0.00798v0.00753c-0.00155,0.10405,0.00799,0.21314,0.02752,0.32118h0.00496
				c0.05154,0.30022,0.15211,0.50683,0.15211,0.50683l4.64996,6.15693c1.26833,1.5815,2.90536,0.45279,2.90536,0.45279
				l7.20657-4.89214v-0.00097c0.53835,0.41476,1.21377,0.66393,1.94772,0.66393c0.70044,0,1.35136-0.22866,1.87923-0.61342
				l7.13705,4.8426c0,0,1.63999,1.12872,2.91184-0.45279l4.64297-6.15693c0,0,0.09954-0.20661,0.15205-0.50683h0.00702
				c0.01903-0.10804,0.02656-0.21714,0.02656-0.32022v-0.0085V62.41827z"/>
			<g>
				<defs>
					<path id="SVGID_13_" d="M118.84104,62.41827c0-0.10507-0.00753-0.20864-0.02656-0.31918h-0.00702
						c-0.05251-0.30022-0.15205-0.51034-0.15205-0.51034l-4.64297-6.15491c-1.27185-1.58054-2.91184-0.4513-2.91184-0.4513
						l-7.13455,4.84112c-0.52934-0.38727-1.18129-0.6149-1.88173-0.6149c-0.73395,0-1.40937,0.24611-1.94772,0.66238l0,0
						l-7.20657-4.8886c0,0-1.63703-1.12923-2.90536,0.4513l-4.64996,6.15491c0,0-0.10057,0.21012-0.15211,0.51034h-0.00496
						c-0.01953,0.11055-0.02907,0.21411-0.02752,0.31918v0.00798v0.00753c-0.00155,0.10405,0.00799,0.21314,0.02752,0.32118h0.00496
						c0.05154,0.30022,0.15211,0.50683,0.15211,0.50683l4.64996,6.15693c1.26833,1.5815,2.90536,0.45279,2.90536,0.45279
						l7.20657-4.89214v-0.00097c0.53835,0.41476,1.21377,0.66393,1.94772,0.66393c0.70044,0,1.35136-0.22866,1.87923-0.61342
						l7.13705,4.8426c0,0,1.63999,1.12872,2.91184-0.45279l4.64297-6.15693c0,0,0.09954-0.20661,0.15205-0.50683h0.00702
						c0.01903-0.10804,0.02656-0.21714,0.02656-0.32022v-0.0085V62.41827z"/>
				</defs>
				<clipPath id="SVGID_2_">
					<use xlink:href="#SVGID_13_"  style="overflow:visible;"/>
				</clipPath>
				<g style="clip-path:url(#SVGID_2_);">
					<g>
						<ellipse class="st24" cx="88.22668" cy="55.19919" rx="0.60462" ry="0.60788"/>
						<ellipse class="st24" cx="88.22668" cy="58.086" rx="0.60462" ry="0.6074"/>
						<circle class="st24" cx="88.22668" cy="60.97362" r="0.60525"/>
						<ellipse class="st24" cx="88.22668" cy="63.86205" rx="0.60462" ry="0.60665"/>
						<circle class="st24" cx="88.22668" cy="66.74841" r="0.60462"/>
					</g>
					<g>
						<circle class="st24" cx="93.70879" cy="55.80369" r="0.60577"/>
						<ellipse class="st24" cx="93.70879" cy="58.69066" rx="0.60489" ry="0.60687"/>
						<circle class="st24" cx="93.70879" cy="61.57823" r="0.60514"/>
						<circle class="st24" cx="93.70879" cy="64.4662" r="0.60501"/>
						<ellipse class="st24" cx="93.70879" cy="67.35316" rx="0.60489" ry="0.60687"/>
					</g>
					<g>
						<ellipse class="st24" cx="99.19014" cy="55.80369" rx="0.60462" ry="0.60665"/>
						<ellipse class="st24" cx="99.19014" cy="58.69066" rx="0.60462" ry="0.60687"/>
						<circle class="st24" cx="99.19014" cy="61.57823" r="0.605"/>
						<circle class="st24" cx="99.19014" cy="64.4662" r="0.60487"/>
						<ellipse class="st24" cx="99.19014" cy="67.35316" rx="0.60462" ry="0.60687"/>
					</g>
					<g>
						<ellipse class="st24" cx="104.66987" cy="55.80369" rx="0.60465" ry="0.60664"/>
						<ellipse class="st24" cx="104.66987" cy="58.69066" rx="0.60465" ry="0.60687"/>
						<circle class="st24" cx="104.66987" cy="61.57823" r="0.60502"/>
						<circle class="st24" cx="104.66987" cy="64.4662" r="0.60489"/>
						<ellipse class="st24" cx="104.66987" cy="67.35316" rx="0.60465" ry="0.60687"/>
					</g>
					<g>
						<circle class="st24" cx="110.15225" cy="55.80369" r="0.60576"/>
						<ellipse class="st24" cx="110.15225" cy="58.69066" rx="0.60487" ry="0.60687"/>
						<circle class="st24" cx="110.15225" cy="61.57823" r="0.60513"/>
						<circle class="st24" cx="110.15225" cy="64.4662" r="0.605"/>
						<ellipse class="st24" cx="110.15225" cy="67.35316" rx="0.60487" ry="0.60687"/>
					</g>
					<g>
						<circle class="st24" cx="90.9669" cy="56.41072" r="0.60427"/>
						<circle class="st24" cx="90.9669" cy="59.29792" r="0.60438"/>
						<ellipse class="st24" cx="90.9669" cy="62.18624" rx="0.60364" ry="0.60664"/>
						<ellipse class="st24" cx="90.9669" cy="65.07497" rx="0.60364" ry="0.60589"/>
						<ellipse class="st24" cx="90.9669" cy="67.96104" rx="0.60364" ry="0.6069"/>
					</g>
					<g>
						<ellipse class="st24" cx="85.48754" cy="56.41072" rx="0.60288" ry="0.60491"/>
						<ellipse class="st24" cx="85.48754" cy="59.29792" rx="0.60288" ry="0.60513"/>
						<ellipse class="st24" cx="85.48754" cy="62.18624" rx="0.60288" ry="0.60664"/>
						<ellipse class="st24" cx="85.48754" cy="65.07497" rx="0.60288" ry="0.60589"/>
						<ellipse class="st24" cx="85.48754" cy="67.96104" rx="0.60288" ry="0.6069"/>
					</g>
					<g>
						<ellipse class="st24" cx="96.44941" cy="56.41072" rx="0.60264" ry="0.60491"/>
						<ellipse class="st24" cx="96.44941" cy="59.29792" rx="0.60264" ry="0.60513"/>
						<ellipse class="st24" cx="96.44941" cy="62.18624" rx="0.60264" ry="0.60665"/>
						<ellipse class="st24" cx="96.44941" cy="65.07497" rx="0.60264" ry="0.60589"/>
						<ellipse class="st24" cx="96.44941" cy="67.96104" rx="0.60264" ry="0.6069"/>
					</g>
					<g>
						<ellipse class="st24" cx="101.93001" cy="56.41072" rx="0.60288" ry="0.60491"/>
						<ellipse class="st24" cx="101.93001" cy="59.29792" rx="0.60288" ry="0.60513"/>
						<ellipse class="st24" cx="101.93001" cy="62.18624" rx="0.60288" ry="0.60665"/>
						<ellipse class="st24" cx="101.93001" cy="65.07497" rx="0.60288" ry="0.60589"/>
						<ellipse class="st24" cx="101.93001" cy="67.96104" rx="0.60288" ry="0.6069"/>
					</g>
					<g>
						<circle class="st24" cx="107.41149" cy="56.41072" r="0.60465"/>
						<circle class="st24" cx="107.41149" cy="59.29792" r="0.60476"/>
						<ellipse class="st24" cx="107.41149" cy="62.18624" rx="0.60439" ry="0.60664"/>
						<circle class="st24" cx="107.41149" cy="65.07497" r="0.60514"/>
						<ellipse class="st24" cx="107.41149" cy="67.96104" rx="0.60439" ry="0.6069"/>
					</g>
					<g>
						<circle class="st24" cx="112.89159" cy="56.41072" r="0.60452"/>
						<circle class="st24" cx="112.89159" cy="59.29792" r="0.60463"/>
						<ellipse class="st24" cx="112.89159" cy="62.18624" rx="0.60414" ry="0.60665"/>
						<circle class="st24" cx="112.89159" cy="65.07497" r="0.60501"/>
						<ellipse class="st24" cx="112.89159" cy="67.96104" rx="0.60414" ry="0.6069"/>
					</g>
					<g>
						<ellipse class="st24" cx="118.37346" cy="56.41072" rx="0.60236" ry="0.60491"/>
						<ellipse class="st24" cx="118.37346" cy="59.29792" rx="0.60236" ry="0.60513"/>
						<ellipse class="st24" cx="118.37346" cy="62.18624" rx="0.60236" ry="0.60665"/>
						<ellipse class="st24" cx="118.37346" cy="65.07497" rx="0.60236" ry="0.60589"/>
						<ellipse class="st24" cx="118.37346" cy="67.96104" rx="0.60236" ry="0.6069"/>
					</g>
					<g>
						<circle class="st24" cx="115.63361" cy="56.41072" r="0.60452"/>
						<circle class="st24" cx="115.63361" cy="59.29792" r="0.60463"/>
						<ellipse class="st24" cx="115.63361" cy="62.18624" rx="0.60413" ry="0.60665"/>
						<circle class="st24" cx="115.63361" cy="65.07497" r="0.60501"/>
						<ellipse class="st24" cx="115.63361" cy="67.96104" rx="0.60413" ry="0.6069"/>
					</g>
				</g>
			</g>
		</g>
		<g>
			<defs>
				<path id="SVGID_15_" d="M102.1604,77.93018c-25.55926,0-46.28391,23.23074-46.28391,51.88897
					c0,17.68124,7.89299,33.2827,19.93613,42.65112c17.02032,11.88712,40.38921,7.46977,52.43989,0.21115
					c12.19272-9.34595,20.19684-25.05194,20.19684-42.86227C148.44936,101.16092,127.72614,77.93018,102.1604,77.93018z"/>
			</defs>
			<clipPath id="SVGID_4_">
				<use xlink:href="#SVGID_15_"  style="overflow:visible;"/>
			</clipPath>
			<rect x="60.20122" y="85.2828" style="clip-path:url(#SVGID_4_);fill:#E3E2E2;" width="87.26551" height="37.78406"/>
			<g style="clip-path:url(#SVGID_4_);">
				<path class="st73" d="M178.03116,106.74599l-43.08839-2.07784l-4.67799-0.22815l0.10455-21.62876l-11.91855-5.75463
					l-0.60141,24.16132c0,0,1.14075,3.50974-3.56824,3.50974h-12.4429l0,0H89.39079c-4.70549,0-3.57082-3.50974-3.57082-3.50974
					l-0.60084-24.16132l-11.91208,5.75463l-8.16071,15.09209l-30.71255,6.82434l31.4425,66.4348l6.88837,81.60544l22.80902-4.29176
					v-36.44771c0-6.45709,6.24498-5.45949,6.26453-5.45847l0,0l0,0l0,0l0,0c0.01546-0.00102,6.26497-0.99863,6.26497,5.45847
					v36.44771l22.80301,4.29176l6.88785-81.60544L178.03116,106.74599z"/>
				<path class="st73" d="M294.67789,106.74599l-43.08691-2.07784l-4.67799-0.22815l0.10405-21.62876l-11.91904-5.75463
					l-0.60094,24.16132c0,0,1.14024,3.50974-3.56772,3.50974h-12.44444l0,0h-12.44591c-4.70453,0-3.57027-3.50974-3.57027-3.50974
					l-0.60042-24.16132l-11.91356,5.75463l0.1041,21.62876l-38.97728,0.28767l31.44298,66.4348l6.88737,81.60544l22.80904-4.29176
					v-36.44771c0-6.45709,6.24495-5.45949,6.26395-5.45847l0,0l0,0l0,0l0,0c0.01602-0.00102,6.26549-0.99863,6.26549,5.45847
					v36.44771l22.80299,4.29176l6.88838-81.60544L294.67789,106.74599z"/>
				<g>
					<path class="st74" d="M83.32791,100.77468L82.92963,80.7439l-7.35062,3.64633l0.0545,15.64947
						c-0.00547,0.12761-0.0545,0.24269-0.0545,0.37475v16.78668c0,3.2881,1.4339,5.95428,3.89045,5.95428
						c2.45555,0,3.88945-2.81932,3.88945-6.10788v-16.07327C83.35891,100.90226,83.33593,100.84422,83.32791,100.77468z"/>
				</g>
				<g>
					<path class="st74" d="M121.17748,100.77468l0.39725-20.03078l7.35767,3.64633l-0.05502,15.64947
						c0,0.12761,0.05502,0.24269,0.05502,0.37475v16.78668c0,3.2881-1.43841,5.95428-3.89444,5.95428
						c-2.4581,0-3.88997-2.81932-3.88997-6.10788v-16.07327C121.14799,100.90226,121.17748,100.84422,121.17748,100.77468z"/>
				</g>
			</g>
		</g>
		<g>
			<path class="st73" d="M85.3262,81.32581l-2.11689-17.70976l-9.87174,25.229l0.73346,11.1226
				c-0.00454,0.12713,3.00945-0.56587,3.00945-0.43378v16.78619c0,3.28859,1.43187,5.95477,3.88894,5.95477
				c2.45555,0,3.89096-2.81926,3.89096-6.10736v-16.07423C84.86038,100.02171,85.33419,81.39534,85.3262,81.32581z"/>
		</g>
		<g>
			<path class="st73" d="M118.34418,81.32581l2.8058-17.70976l9.19334,24.41602l-0.05653,11.93559
				c0.006,0.12713-3.0079-0.56587-3.0079-0.43378v16.78619c0,3.28859-1.43293,5.95477-3.88948,5.95477
				s-3.89148-2.81926-3.89148-6.10736v-16.07423C119.49792,100.02171,118.33521,81.39534,118.34418,81.32581z"/>
		</g>
		<g>
			<path class="st74" d="M121.18199,100.7797l0.39828-35.41408l7.35117,20.60213l-0.05554,14.07748
				c0.00652,0.12655,0.05554,0.24212,0.05554,0.37524v16.78613c0,3.28714-1.43391,5.9538-3.88949,5.9538
				c-2.45758,0-3.89197-2.81929-3.89197-6.10739v-16.07372C121.14999,100.90824,121.17252,100.84972,121.18199,100.7797z"/>
		</g>
		<g>
			<path class="st74" d="M83.32591,100.82371l-0.39828-35.41453L75.5765,86.01179l0.05502,14.07745
				c-0.00651,0.1271-0.05502,0.24219-0.05502,0.37424v16.78771c0,3.28656,1.43291,5.95274,3.88997,5.95274
				c2.45603,0,3.89045-2.81829,3.89045-6.10633v-16.07475C83.35692,100.9518,83.33393,100.89324,83.32591,100.82371z"/>
		</g>
		<g>
			<path class="st24" d="M40.72433,97.20341c0,0-14.81794-5.33492-17.75383-10.54521
				c-4.2267-7.48528,4.76054-6.69425,4.76054-6.69425s-1.75862-2.03783-4.74554-3.19504
				c-2.79576-1.07773-8.72854,0.01149-8.34829,6.68576c0.38225,6.65121,1.61601,7.02644,1.61601,7.02644
				s-1.9522-2.0723-2.18987-6.9309c-0.25667-5.16828,1.73908-5.4575,0.46579-5.75714
				c-0.62089-0.14509-4.56639,3.68832-4.96064,6.50716c-0.36973,2.65067,1.04315,6.86285,3.08545,9.44195
				c3.61631,4.57595-3.03742-1.13522-3.60729-7.66536c-0.05302-0.6819-1.99778,7.75994,0.32919,13.27995
				c0.91909,2.19238,2.57363,4.26624,2.57363,4.26624c-0.66445-0.55238-1.56399-1.72112-2.51807-3.33611
				c-1.59953-2.68926-1.72312-6.20397-1.72312-6.20397s-2.66219,8.02863,1.542,18.38622
				c6.39355,15.72798,22.33068,19.66449,22.86504,19.41083c0.14509-0.06854,0.21765-0.23462,0.32768-0.35074
				c14.65984-15.85607,6.88838-33.05604,6.88838-33.05604"/>
			<path class="st75" d="M30.71597,131.69682c12.21224,6.61423,24.5681,2.69475,24.5681,2.69475l17.18046-19.87913l2.00827-28.56823
				c-15.51384,12.50851-28.65174,12.88574-38.5285,9.34447c0,0,2.12732,5.72514,1.56901,18.17558
				C36.9614,125.91068,30.71597,131.69682,30.71597,131.69682z"/>
		</g>
		<g>
			<g>
				<path class="st65" d="M47.44109,71.63562c0,0,3.88694-7.53173,4.09011-8.55995c0.12355-0.62636,0.40524-1.4029-0.63895-2.65015
					c-0.86204-1.02915-4.83152-2.85831-7.31863-3.44118c-3.42617-0.79904-8.67101-0.94613-9.17385-0.28973
					c-0.51234,1.12321-0.97259,2.12887-0.97259,2.12887s8.7786,4.04108,9.28289,4.27373
					c0.73846,0.33973,0.97062,1.15022,0.66345,1.82516c-0.15565,0.33773-1.82819,4.00003-1.82819,4.00003L47.44109,71.63562z"/>
				<path class="st76" d="M39.48503,69.65739l-8.48092-3.90501l-2.09883,5.58559L7.58274,120.28211
					c-1.05368,2.30495-0.83902,4.66544,1.32335,5.66108c2.16386,0.99664,4.08708-0.38077,5.14025-2.68569l15.47888-32.60274
					l7.61582,3.51773l6.88638-14.4627c0.39725,0.18259,2.35102,0.37723,3.28759-1.67357l1.23483-2.7017
					c0.9376-2.05183-0.42226-3.38319-0.8811-3.59383c-0.46028-0.21215-6.47161-2.9789-6.47161-2.9789
					c-0.22512,0.49383-0.52785,1.43845-1.71107,0.89359L39.48503,69.65739z M11.19704,118.05818
					c0.27164-0.59588,0.97561-0.85853,1.56946-0.58487c0.59491,0.27267,0.85657,0.98061,0.58493,1.57648l-1.40992,3.08143
					c-0.27118,0.59642-0.97561,0.85908-1.57101,0.58538c-0.59485-0.27367-0.85406-0.98109-0.58236-1.57697L11.19704,118.05818z"/>
				<path class="st77" d="M32.11735,89.54951l-4.41582,9.66015c0,0-1.03115,2.32102,1.87419,3.65835
					c2.90682,1.33833,4.02353-0.9431,4.02353-0.9431l7.07605-15.48235l-2.23896-1.03114l-1.62454,3.55878L32.11735,89.54951z"/>
				<path class="st78" d="M35.67259,78.58152c0.40881-0.89455,1.3879-1.32132,2.18842-0.95407l5.51252,2.5386
					c0.80001,0.36828,1.11568,1.39189,0.70594,2.28648l-1.35735,2.97137c-0.40932,0.89458-1.3879,1.32187-2.18745,0.95263
					l-5.51297-2.53664c-0.79852-0.36921-1.1162-1.39237-0.70897-2.28645L35.67259,78.58152z"/>
				<path class="st65" d="M31.99528,62.80651l10.20297,4.69699l-1.02866,2.25297c-0.14857,0.32466-0.53034,0.46775-0.85455,0.3177
					l-9.03221-4.15816c-0.32273-0.1496-0.46482-0.53185-0.31619-0.85557L31.99528,62.80651z"/>
			</g>
			<path class="st65" d="M15.81397,114.63899c-0.42825,0.92407-1.37538,1.39388-2.11734,1.04917l0,0
				c-0.74148-0.34474-0.99863-1.37389-0.57038-2.29945l11.71546-25.38564c0.42677-0.92511,1.37489-1.39492,2.11635-1.04921l0,0
				c0.74347,0.34423,0.99763,1.37389,0.57137,2.29897L15.81397,114.63899z"/>
		</g>
		<path class="st24" d="M20.92769,76.51225c0,0,4.20072-1.31231,9.53512,3.4772c0,0-6.69381,0.15162-8.68055,6.38058
			C19.7945,92.59795,17.00872,80.64288,20.92769,76.51225z"/>
		<g>
			<path class="st22" d="M104.88898,192.48654l0.16254-0.09644l-0.16254-0.1393v-2.83963c0-0.35721,0.29288-0.65009,0.65189-0.65009
				c0,0,0.89294,0.76082,2.47705,0.76082c1.58414,0,2.31457-0.76082,2.73962-0.76082c0.08038,0-0.0107-0.3679,0.38223,0
				c2.43422,2.2753,7.86524,2.73607,7.86524,2.73607c0.30363,0,0.50365,0.48221,0.22325,0.81079
				c-0.04288,0.04645-0.14466,0.12143-0.14466,0.17859l0.16071,0.17145c0,0.36076-0.2911,0.65366-0.64826,0.65366h-13.05518
				c-0.359,0-0.65189-0.29289-0.65189-0.65366V192.48654z"/>
			<path class="st22" d="M99.57048,192.65799c0,0.36076-0.29288,0.65366-0.65009,0.65366H85.86342
				c-0.35538,0-0.64831-0.29289-0.64831-0.65366l0.16253-0.17145c0-0.05716-0.10538-0.13214-0.14465-0.1768
				c-0.2822-0.33037-0.08038-0.81258,0.22146-0.81258c0,0,5.43459-0.46077,7.86703-2.73607c0.3947-0.3679,0.30184,0,0.38217,0
				c0.42684,0,1.15553,0.76082,2.73785,0.76082c1.58593,0,2.47889-0.76082,2.47889-0.76082
				c0.35721,0,0.65009,0.29288,0.65009,0.65187v2.83784l-0.16254,0.14108l0.16254,0.09465V192.65799z"/>
		</g>
	</g>
	<g>
		<path class="st24" d="M191.83543,109.34461c1.87419-6.28497,1.14977-10.30051,1.14977-10.30051
			s-5.09175,10.28751-8.69609,10.81037c0,0,8.83965-9.02226,8.07069-16.01217c0,0-4.46635,8.05959-7.8325,9.16027
			c0,0,8.05412-7.06846,6.01082-16.39442c0,0-3.60728,9.89383-7.21309,10.25555c0,0,6.13193-7.30768,5.58855-14.05444
			c0,0-24.82228,33.9626-59.15915,3.52475l0.69046,28.83385l16.35593,20.80119c0,0,24.22441,8.9502,39.55165-15.25069
			c0.00902-0.016,0.019-0.03152,0.03101-0.04652c2.6832-4.01806,4.31378-7.70242,5.30237-10.84936
			c0.07407-0.19116,0.14508-0.3733,0.21864-0.57193C191.90448,109.25054,191.87848,109.28612,191.83543,109.34461z"/>
		<path class="st75" d="M161.43611,116.42363c0-6.66928,1.72859-12.92872,4.75253-18.36719
			c-9.8318,2.41405-22.33319,0.78001-36.43422-11.72244l-0.52534,28.86884l17.57173,20.7662c0,0,9.41249,3.47325,20.21135,0.23619
			C163.48038,130.44957,161.43611,123.67522,161.43611,116.42363z"/>
	</g>
</g>
</svg>
