<?xml version="1.0" encoding="utf-8"?>
<!-- Generator: Adobe Illustrator 19.2.1, SVG Export Plug-In . SVG Version: 6.00 Build 0)  -->
<svg version="1.1" id="Layer_1" xmlns="http://www.w3.org/2000/svg" xmlns:xlink="http://www.w3.org/1999/xlink" x="0px" y="0px"
	 width="200px" height="200px" viewBox="0 0 200 200" style="enable-background:new 0 0 200 200;" xml:space="preserve">
<style type="text/css">
	.st0{fill:#E2E3E4;}
	.st1{fill:#595D62;}
	.st2{fill:#C7702A;}
	.st3{fill:#C9C7C7;}
	.st4{fill:#EA8824;}
	.st5{fill:none;stroke:#C9C7C7;stroke-width:0.75651;stroke-miterlimit:10;}
	.st6{fill-rule:evenodd;clip-rule:evenodd;fill:#444851;}
	.st7{fill-rule:evenodd;clip-rule:evenodd;fill:#D8D7D6;}
	.st8{fill:#FFFFFF;}
	.st9{fill:#2B2B35;}
	.st10{fill:#434850;}
	.st11{fill:#6C4396;}
	.st12{fill:#A4A4A4;}
	.st13{fill:#EA4C65;}
	.st14{fill:#94814F;}
	.st15{fill:#9C2023;}
	.st16{fill:#B7242C;}
	.st17{fill-rule:evenodd;clip-rule:evenodd;fill:#FFFFFF;}
	.st18{fill:#0C4F6E;}
	.st19{fill:#C18E46;}
	.st20{fill:#3180BF;}
	.st21{fill:#D94F4F;}
	.st22{fill:#2C2C2D;}
	.st23{fill:#595E63;}
	.st24{fill:#E3E2E2;}
	.st25{fill:#9D9EA0;}
	.st26{fill:none;stroke:#C8C6C6;stroke-width:0.75651;stroke-miterlimit:10;}
	.st27{fill:#2A2E35;}
	.st28{fill-rule:evenodd;clip-rule:evenodd;fill:#454751;}
	.st29{fill-rule:evenodd;clip-rule:evenodd;fill:#D8D7D5;}
	.st30{fill:#434851;}
	.st31{fill:#EC9424;}
	.st32{fill:#445AA4;}
	.st33{clip-path:url(#SVGID_2_);fill:#58C1C4;}
	.st34{fill:#B7DBDB;}
	.st35{fill:#58C1C4;}
	.st36{fill:none;stroke:#434851;stroke-width:1.51302;stroke-linecap:round;stroke-linejoin:round;stroke-miterlimit:10;}
	.st37{clip-path:url(#SVGID_4_);fill:#58C1C4;}
	.st38{fill:#010101;}
	.st39{fill:#161718;}
	.st40{fill-rule:evenodd;clip-rule:evenodd;fill:#010101;}
	.st41{fill:#272626;}
	.st42{fill:#17191A;}
	.st43{fill:#D4D5D4;}
	.st44{fill-rule:evenodd;clip-rule:evenodd;fill:#272626;}
	.st45{fill-rule:evenodd;clip-rule:evenodd;fill:#E2E3E4;}
	.st46{fill:#19244E;}
	.st47{fill:#E3E1E1;}
	.st48{fill:#8E1B27;}
	.st49{fill:#CA2033;}
	.st50{fill:#EFE0A7;}
	.st51{fill:none;stroke:#EFE0A7;stroke-width:0.09335;stroke-miterlimit:10;}
	.st52{fill:#EECA81;}
	.st53{fill:#F3F3F3;}
	.st54{fill:#A0A1A4;}
	.st55{fill:#EB6B6D;}
	.st56{fill:none;stroke:#CAC8C6;stroke-width:0.02289;stroke-miterlimit:10;}
	.st57{fill:#464951;}
	.st58{fill:#D7D6D6;}
	.st59{fill:#EECC82;}
	.st60{fill:#F0E0A9;}
	.st61{fill:none;stroke:#F0E0A9;stroke-width:0.01145;stroke-miterlimit:10;}
	.st62{fill:#5AC1C2;}
	.st63{clip-path:url(#SVGID_6_);fill:#E2E3E4;}
	.st64{fill:#EE7823;}
	.st65{fill:#D6563D;}
	.st66{fill:#70533D;}
	.st67{fill:#81BCA9;}
	.st68{clip-path:url(#SVGID_8_);fill:#E2E3E4;}
	.st69{fill:none;stroke:#EFE0A7;stroke-width:0.37825;stroke-miterlimit:10;}
	.st70{clip-path:url(#SVGID_10_);}
	.st71{clip-path:url(#SVGID_12_);fill:#E3E2E2;}
	.st72{clip-path:url(#SVGID_12_);}
	.st73{fill-rule:evenodd;clip-rule:evenodd;fill:#1AAEA1;}
	.st74{fill-rule:evenodd;clip-rule:evenodd;fill:#0C8C70;}
	.st75{fill:#1AAEA1;}
	.st76{fill:#6F513B;}
	.st77{fill:#515050;}
	.st78{fill:#D4563A;}
	.st79{fill:none;}
	.st80{clip-path:url(#SVGID_14_);}
	.st81{clip-path:url(#SVGID_16_);fill:#E3E2E2;}
	.st82{clip-path:url(#SVGID_16_);}
	.st83{fill:#EEE3A3;}
	.st84{fill:none;stroke:#F0E0A9;stroke-width:0.37825;stroke-miterlimit:10;}
	.st85{clip-path:url(#SVGID_18_);}
	.st86{fill-rule:evenodd;clip-rule:evenodd;fill:#434850;}
	.st87{clip-path:url(#SVGID_20_);}
	.st88{fill:none;stroke:#E4CC21;stroke-width:1.92135;stroke-miterlimit:10;}
	.st89{fill:none;stroke:#FFFFFF;stroke-width:2.2037;stroke-miterlimit:10;}
	.st90{fill:#E4CC21;}
	.st91{fill:#232244;}
	.st92{fill:#C8C6C6;}
	.st93{fill:#542F19;}
	.st94{fill-rule:evenodd;clip-rule:evenodd;fill:#3D2E21;}
	.st95{fill:#3D2E21;}
	.st96{fill-rule:evenodd;clip-rule:evenodd;fill:#232244;}
	.st97{fill-rule:evenodd;clip-rule:evenodd;fill:#2E3280;}
	.st98{fill:#281911;}
	.st99{fill-rule:evenodd;clip-rule:evenodd;fill:#E4CC21;}
	.st100{fill-rule:evenodd;clip-rule:evenodd;fill:#D85127;}
	.st101{clip-path:url(#SVGID_22_);}
	.st102{fill-rule:evenodd;clip-rule:evenodd;fill:#EE7434;}
	.st103{fill:#17733B;}
	.st104{clip-path:url(#SVGID_24_);}
	.st105{fill:#1D73B6;}
	.st106{fill:#115E8E;}
	.st107{clip-path:url(#SVGID_26_);}
	.st108{fill:none;stroke:#FFFFFF;stroke-width:1.49993;stroke-miterlimit:10;}
	.st109{fill:none;stroke:#CAC8C6;stroke-width:0.024;stroke-miterlimit:10;}
	.st110{clip-path:url(#SVGID_28_);fill:#E2E3E4;}
	.st111{fill:#603A17;}
	.st112{fill:#78471F;}
	.st113{fill:#F8FAFD;}
	.st114{clip-path:url(#SVGID_30_);}
	.st115{clip-path:url(#SVGID_32_);}
	.st116{fill:none;stroke:#FFFFFF;stroke-width:0.49998;stroke-miterlimit:10;}
	.st117{fill:none;stroke:#FFFFFF;stroke-width:0.74997;stroke-miterlimit:10;}
	.st118{clip-path:url(#SVGID_34_);}
	.st119{clip-path:url(#SVGID_36_);}
	.st120{clip-path:url(#SVGID_38_);fill:#E2E3E4;}
	.st121{clip-path:url(#SVGID_40_);}
	.st122{clip-path:url(#SVGID_42_);}
	.st123{clip-path:url(#SVGID_44_);}
	.st124{opacity:0.7;fill:#434850;}
	.st125{fill:#5B3287;}
	.st126{fill:#643E1E;}
	.st127{fill:#C8D6DE;}
	.st128{fill:none;stroke:#CAC7C6;stroke-width:0.75651;stroke-miterlimit:10;}
	.st129{fill:#B6C3CE;}
	.st130{fill:#273980;}
	.st131{fill:#2B2C35;}
	.st132{clip-path:url(#SVGID_46_);fill:#FFFFFF;stroke:#5A3B84;stroke-width:4.53905;stroke-miterlimit:10;}
	.st133{fill:#C8C7C9;}
	.st134{fill:#056F43;}
	.st135{clip-path:url(#SVGID_48_);}
	.st136{fill:#EBEDF1;}
	.st137{fill:#CF2B29;}
	.st138{fill-rule:evenodd;clip-rule:evenodd;fill:#273980;}
	.st139{fill:#D6232A;}
	.st140{clip-path:url(#SVGID_52_);fill:#FFFFFF;stroke:#5A3B84;stroke-width:4.53905;stroke-miterlimit:10;}
	.st141{clip-path:url(#SVGID_54_);}
	.st142{fill:#532D17;}
	.st143{fill:none;stroke:#5E1116;stroke-width:0.95369;stroke-miterlimit:10;}
	.st144{fill-rule:evenodd;clip-rule:evenodd;fill:#5E1116;}
	.st145{fill:none;stroke:#5E1116;stroke-width:0.94639;stroke-miterlimit:10;}
	.st146{fill:#291B13;}
	.st147{fill-rule:evenodd;clip-rule:evenodd;fill:#291B13;}
	.st148{fill-rule:evenodd;clip-rule:evenodd;fill:#454850;}
	.st149{fill-rule:evenodd;clip-rule:evenodd;fill:#74441F;}
	.st150{fill:#7F161B;}
	.st151{fill-rule:evenodd;clip-rule:evenodd;fill:#7F161B;}
	.st152{fill:none;stroke:#5E1116;stroke-width:1.04342;stroke-miterlimit:10;}
	.st153{fill:#E4E0E4;}
	.st154{clip-path:url(#SVGID_58_);fill:#E1244D;}
	.st155{clip-path:url(#SVGID_60_);fill:#E1244D;}
	.st156{fill:#292933;}
	.st157{fill:none;stroke:#CAC8C6;stroke-width:0.02378;stroke-miterlimit:10;}
	.st158{fill:none;stroke:#F0E0A9;stroke-width:0.01189;stroke-miterlimit:10;}
	.st159{clip-path:url(#SVGID_62_);fill:#E2E3E4;}
	.st160{fill:#2F465D;}
	.st161{fill:#432F21;}
	.st162{fill-rule:evenodd;clip-rule:evenodd;fill:#3D5F7C;}
	.st163{fill-rule:evenodd;clip-rule:evenodd;fill:#2F465D;}
	.st164{clip-path:url(#SVGID_64_);fill:#2C2C2D;}
	.st165{clip-path:url(#SVGID_66_);fill:#F8B917;}
	.st166{clip-path:url(#SVGID_66_);fill:#1F4394;}
	.st167{clip-path:url(#SVGID_68_);fill:#E8212F;}
	.st168{clip-path:url(#SVGID_68_);fill:#C9C8C8;}
	.st169{clip-path:url(#SVGID_68_);fill:#2A2E35;}
	.st170{clip-path:url(#SVGID_68_);fill:#444750;}
	.st171{clip-path:url(#SVGID_68_);fill:#D7D7D6;}
	.st172{clip-path:url(#SVGID_68_);fill:#E3E2E2;}
	.st173{clip-path:url(#SVGID_68_);fill:#FFFFFF;}
	.st174{clip-path:url(#SVGID_68_);fill:#2B2D34;}
	.st175{clip-path:url(#SVGID_68_);fill:#B9252D;}
	.st176{clip-path:url(#SVGID_68_);fill:#24345B;}
	.st177{clip-path:url(#SVGID_68_);fill:#F7F6F8;}
	.st178{clip-path:url(#SVGID_70_);fill:#1F4394;}
	.st179{clip-path:url(#SVGID_70_);fill:#F8B917;}
	.st180{clip-path:url(#SVGID_70_);fill:#883D1E;}
	.st181{clip-path:url(#SVGID_70_);fill:#F5D07C;}
	.st182{clip-path:url(#SVGID_72_);fill:#E8212F;}
	.st183{clip-path:url(#SVGID_72_);fill:#E3E2E2;}
	.st184{clip-path:url(#SVGID_72_);fill:#F7F6F8;}
	.st185{clip-path:url(#SVGID_72_);fill:#F8B917;}
	.st186{clip-path:url(#SVGID_72_);fill:#888983;}
	.st187{clip-path:url(#SVGID_74_);fill:#888983;}
	.st188{clip-path:url(#SVGID_74_);fill:#624219;}
	.st189{clip-path:url(#SVGID_76_);fill:#E3E2E2;}
	.st190{clip-path:url(#SVGID_76_);fill:#2C2C2D;}
	.st191{clip-path:url(#SVGID_76_);fill:#888983;}
	.st192{clip-path:url(#SVGID_78_);fill:#F8B917;}
	.st193{clip-path:url(#SVGID_78_);fill:#1F4394;}
	.st194{clip-path:url(#SVGID_80_);fill:#E8212F;}
	.st195{clip-path:url(#SVGID_80_);fill:#C9C8C8;}
	.st196{clip-path:url(#SVGID_80_);fill:#2A2E35;}
	.st197{clip-path:url(#SVGID_80_);fill:#444750;}
	.st198{clip-path:url(#SVGID_80_);fill:#D7D7D6;}
	.st199{clip-path:url(#SVGID_80_);fill:#E3E2E2;}
	.st200{clip-path:url(#SVGID_80_);fill:#FFFFFF;}
	.st201{clip-path:url(#SVGID_80_);fill:#2B2D34;}
	.st202{clip-path:url(#SVGID_80_);fill:#B9252D;}
	.st203{clip-path:url(#SVGID_80_);fill:#24345B;}
	.st204{clip-path:url(#SVGID_80_);fill:#F7F6F8;}
	.st205{clip-path:url(#SVGID_82_);fill:#1F4394;}
	.st206{clip-path:url(#SVGID_82_);fill:#F8B917;}
	.st207{clip-path:url(#SVGID_82_);fill:#883D1E;}
	.st208{clip-path:url(#SVGID_82_);fill:#F5D07C;}
	.st209{clip-path:url(#SVGID_84_);fill:#E8212F;}
	.st210{clip-path:url(#SVGID_84_);fill:#E3E2E2;}
	.st211{clip-path:url(#SVGID_84_);fill:#F7F6F8;}
	.st212{clip-path:url(#SVGID_84_);fill:#F8B917;}
	.st213{clip-path:url(#SVGID_84_);fill:#888983;}
	.st214{clip-path:url(#SVGID_86_);fill:#888983;}
	.st215{clip-path:url(#SVGID_86_);fill:#624219;}
	.st216{clip-path:url(#SVGID_88_);fill:#E3E2E2;}
	.st217{clip-path:url(#SVGID_88_);fill:#2C2C2D;}
	.st218{clip-path:url(#SVGID_90_);fill:#2C2C2D;}
	.st219{clip-path:url(#SVGID_92_);fill:#F8B917;}
	.st220{clip-path:url(#SVGID_92_);fill:#1F4394;}
	.st221{clip-path:url(#SVGID_94_);fill:#E8212F;}
	.st222{clip-path:url(#SVGID_94_);fill:#C9C8C8;}
	.st223{clip-path:url(#SVGID_94_);fill:#2A2E35;}
	.st224{clip-path:url(#SVGID_94_);fill:#444750;}
	.st225{clip-path:url(#SVGID_94_);fill:#D7D7D6;}
	.st226{clip-path:url(#SVGID_94_);fill:#E3E2E2;}
	.st227{clip-path:url(#SVGID_94_);fill:#FFFFFF;}
	.st228{clip-path:url(#SVGID_94_);fill:#2B2D34;}
	.st229{clip-path:url(#SVGID_94_);fill:#B9252D;}
	.st230{clip-path:url(#SVGID_94_);fill:#24345B;}
	.st231{clip-path:url(#SVGID_94_);fill:#F7F6F8;}
	.st232{clip-path:url(#SVGID_96_);fill:#1F4394;}
	.st233{clip-path:url(#SVGID_96_);fill:#F8B917;}
	.st234{clip-path:url(#SVGID_96_);fill:#883D1E;}
	.st235{clip-path:url(#SVGID_96_);fill:#F5D07C;}
	.st236{clip-path:url(#SVGID_98_);fill:#E8212F;}
	.st237{clip-path:url(#SVGID_98_);fill:#E3E2E2;}
	.st238{clip-path:url(#SVGID_98_);fill:#F7F6F8;}
	.st239{clip-path:url(#SVGID_98_);fill:#F8B917;}
	.st240{clip-path:url(#SVGID_98_);fill:#888983;}
	.st241{clip-path:url(#SVGID_100_);fill:#888983;}
	.st242{clip-path:url(#SVGID_100_);fill:#624219;}
	.st243{clip-path:url(#SVGID_102_);fill:#E3E2E2;}
	.st244{clip-path:url(#SVGID_102_);fill:#2C2C2D;}
	.st245{clip-path:url(#SVGID_102_);fill:#888983;}
	.st246{clip-path:url(#SVGID_104_);fill:#F8B917;}
	.st247{clip-path:url(#SVGID_104_);fill:#1F4394;}
	.st248{clip-path:url(#SVGID_106_);fill:#E8212F;}
	.st249{clip-path:url(#SVGID_106_);fill:#C9C8C8;}
	.st250{clip-path:url(#SVGID_106_);fill:#2A2E35;}
	.st251{clip-path:url(#SVGID_106_);fill:#444750;}
	.st252{clip-path:url(#SVGID_106_);fill:#D7D7D6;}
	.st253{clip-path:url(#SVGID_106_);fill:#E3E2E2;}
	.st254{clip-path:url(#SVGID_106_);fill:#FFFFFF;}
	.st255{clip-path:url(#SVGID_106_);fill:#2B2D34;}
	.st256{clip-path:url(#SVGID_106_);fill:#B9252D;}
	.st257{clip-path:url(#SVGID_106_);fill:#24345B;}
	.st258{clip-path:url(#SVGID_106_);fill:#F7F6F8;}
	.st259{clip-path:url(#SVGID_108_);fill:#1F4394;}
	.st260{clip-path:url(#SVGID_108_);fill:#F8B917;}
	.st261{clip-path:url(#SVGID_108_);fill:#883D1E;}
	.st262{clip-path:url(#SVGID_108_);fill:#F5D07C;}
	.st263{clip-path:url(#SVGID_110_);fill:#E8212F;}
	.st264{clip-path:url(#SVGID_110_);fill:#E3E2E2;}
	.st265{clip-path:url(#SVGID_110_);fill:#F7F6F8;}
	.st266{clip-path:url(#SVGID_110_);fill:#F8B917;}
	.st267{clip-path:url(#SVGID_110_);fill:#888983;}
	.st268{clip-path:url(#SVGID_112_);fill:#888983;}
	.st269{clip-path:url(#SVGID_112_);fill:#624219;}
	.st270{clip-path:url(#SVGID_114_);fill:#E3E2E2;}
	.st271{clip-path:url(#SVGID_114_);fill:#2C2C2D;}
	.st272{fill:#EDE2A3;}
	.st273{clip-path:url(#SVGID_116_);}
	.st274{fill-rule:evenodd;clip-rule:evenodd;fill:#434851;}
	.st275{fill-rule:evenodd;clip-rule:evenodd;fill:#E3E2E2;}
	.st276{fill:#2A2B2A;}
	.st277{clip-path:url(#SVGID_118_);}
	.st278{clip-path:url(#SVGID_120_);}
	.st279{clip-path:url(#SVGID_122_);}
	.st280{fill:#1F3566;}
	.st281{fill:#E3E4E5;}
	.st282{fill:#4BB1E4;}
	.st283{fill:#2D2A6C;}
	.st284{fill-rule:evenodd;clip-rule:evenodd;fill:#D8D9D5;}
	.st285{fill:#434852;}
	.st286{fill:#E3E3E3;}
	.st287{fill:#162E54;}
	.st288{fill:none;stroke:#335DAB;stroke-width:1.68786;stroke-miterlimit:10;}
	.st289{fill:#81817F;}
	.st290{fill:#142B49;}
	.st291{fill:#5A5A5A;}
	.st292{fill:none;stroke:#FFFFFF;stroke-width:0.84393;stroke-linecap:round;stroke-linejoin:round;stroke-miterlimit:10;}
	.st293{fill:#AB9D9C;}
	.st294{fill:#EA6689;}
	.st295{fill:#CE1D5B;}
	.st296{fill:#BF742A;}
	.st297{fill:#273449;}
	.st298{fill:#A4464B;}
	.st299{fill:none;stroke:#CAC8C6;stroke-width:0.0662;stroke-miterlimit:10;}
	.st300{fill:#80333A;}
	.st301{fill:none;stroke:#B4B4B4;stroke-width:0.25748;stroke-miterlimit:10;}
	.st302{fill:none;stroke:#B4B4B4;stroke-width:3.08973;stroke-miterlimit:10;}
	.st303{fill:none;stroke:#B4B4B4;stroke-width:1.02991;stroke-miterlimit:10;}
	.st304{fill:none;stroke:#82858B;stroke-width:0.51495;stroke-miterlimit:10;}
	.st305{fill:none;stroke:#E2E3E4;stroke-width:1.02991;stroke-miterlimit:10;}
	.st306{fill:#E5E5E5;}
	.st307{fill:#2D2C2D;}
	.st308{fill:#4CB2E5;}
	.st309{fill:#AD2824;}
	.st310{fill-rule:evenodd;clip-rule:evenodd;fill:#D9D9D6;}
	.st311{fill:#E4E4E3;}
	.st312{fill:#DB4826;}
	.st313{fill:#B33725;}
	.st314{fill:#120C0D;}
	.st315{fill:#F3F0F0;}
	.st316{fill:#C4BFBF;}
	.st317{clip-path:url(#SVGID_124_);fill:none;stroke:#F3F0F0;stroke-width:1.10165;stroke-linecap:round;stroke-miterlimit:10;}
	.st318{clip-path:url(#SVGID_126_);fill:none;stroke:#F3F0F0;stroke-width:1.10165;stroke-linecap:round;stroke-miterlimit:10;}
	.st319{clip-path:url(#SVGID_128_);fill:none;stroke:#F3F0F0;stroke-width:1.10165;stroke-linecap:round;stroke-miterlimit:10;}
	.st320{fill:#DE5B2A;}
	.st321{fill:#7A2716;}
	.st322{fill:#E5E4E4;}
	.st323{fill:#BB4928;}
	.st324{fill:#454545;}
	.st325{fill:#6265AE;}
	.st326{fill:none;stroke:#CAC5C4;stroke-width:0.55083;stroke-linecap:round;stroke-miterlimit:10;}
	.st327{fill:#E1E3E3;}
	.st328{fill:#484848;}
	.st329{fill:#422F90;}
	.st330{fill:#D57A28;}
	.st331{fill:#B4B4B5;}
	.st332{fill:#4B4B4D;}
	.st333{fill:#949393;}
	.st334{fill:#040404;}
	.st335{clip-path:url(#SVGID_130_);fill:none;stroke:#F3F0F0;stroke-width:1.10165;stroke-linecap:round;stroke-miterlimit:10;}
	.st336{clip-path:url(#SVGID_132_);fill:none;stroke:#F3F0F0;stroke-width:1.10165;stroke-linecap:round;stroke-miterlimit:10;}
	.st337{clip-path:url(#SVGID_134_);fill:none;stroke:#F3F0F0;stroke-width:1.10165;stroke-linecap:round;stroke-miterlimit:10;}
	.st338{clip-path:url(#SVGID_140_);fill:#AD2824;}
	.st339{fill:#CDCCCC;}
	.st340{fill:#E4E5E6;}
	.st341{opacity:0.72;fill:none;stroke:#FFFFFF;stroke-width:1.1546;stroke-linecap:round;stroke-miterlimit:10;}
	.st342{fill:#BBD867;}
	.st343{fill:none;stroke:#BBD867;stroke-width:5.799;stroke-miterlimit:10;}
	.st344{clip-path:url(#SVGID_146_);fill:#AD2824;}
	.st345{fill:none;stroke:#AE4E85;stroke-width:1.54066;stroke-linecap:round;stroke-linejoin:round;stroke-miterlimit:10;}
	.st346{fill:none;stroke:#E97625;stroke-width:1.62274;stroke-linecap:round;stroke-linejoin:round;stroke-miterlimit:10;}
	.st347{fill:none;stroke:#C9C7C7;stroke-width:0.23348;stroke-miterlimit:10;}
	.st348{fill:#981E5C;}
	.st349{fill:none;stroke:#AE4E85;stroke-width:1.21706;stroke-linecap:round;stroke-linejoin:round;stroke-miterlimit:10;}
	.st350{fill:#AE4E85;}
	.st351{fill:#F7B456;}
	.st352{fill:#E97625;}
	.st353{fill:none;stroke:#E97625;stroke-width:1.54273;stroke-linecap:round;stroke-linejoin:round;stroke-miterlimit:10;}
</style>
<g>
	<g>
		<path class="st297" d="M82.95522,177.22211l-0.11064,0.0101c12.46955-6.50676,20.93644-19.20326,20.93644-33.79247
			c0-21.22396-17.91143-38.43557-40.01128-38.43557c-22.09177,0-40.00159,17.21161-40.00159,38.43557
			c0,14.5892,8.46487,27.28571,20.93079,33.79247l-0.0989-0.00404c6.06736,3.48012,10.45244,9.36418,11.75597,16.2812
			c0.26208-0.14214,1.50221-0.72203,3.1506,0.03151v-11.88806c1.40004,0.14215,2.8219,0.21887,4.26313,0.21887
			c1.44326,0,2.86712-0.07672,4.27484-0.21887v11.88806c1.66415-0.76726,2.91841-0.15588,3.15508-0.02786
			C72.50073,186.59235,76.88985,180.70828,82.95522,177.22211"/>
		<path class="st0" d="M160.54077,112.99577c2.20038-7.35275,1.35236-12.04958,1.35236-12.04958
			s-5.97815,12.03384-10.21382,12.64684c0,0,10.37982-10.55505,9.47644-18.72796c0,0-5.24077,9.42516-9.19211,10.71254
			c0,0,2.81943-7.60313-1.4122-7.17912c0,0,1.11638-9.01791-8.32245-3.46537c-12.39636,7.29238-31.68029,11.35884-54.56119-8.85235
			l0.81248,33.7234l19.1972,24.33379c0,0,28.43659,10.46822,46.42718-17.84077c0.01212-0.01575,0.02382-0.03553,0.03557-0.05128
			c3.15097-4.70046,5.0675-9.00881,6.2269-12.69246c0.08275-0.2225,0.1696-0.43572,0.25639-0.66631
			C160.62352,112.88714,160.59203,112.92671,160.54077,112.99577"/>
		<path class="st298" d="M124.85558,121.27528c0-7.8026,2.02681-15.11982,5.58401-21.48281
			c-11.54682,2.82189-26.22083,0.91303-42.77583-13.70969l-0.61502,33.76661l20.6247,24.28654
			c0,0,11.05376,4.06161,23.72845,0.27782C127.2571,137.68208,124.85558,129.75954,124.85558,121.27528"/>
		<circle class="st299" cx="63.77277" cy="107.43375" r="26.31088"/>
		<path class="st298" d="M45.37696,64.14689c-0.31134,2.45078-1.80225,0.29358-2.59293,2.88651
			c-2.20041,7.20091-5.51699,19.50491-13.13182,26.82212c0,0,6.98972,27.27359,34.04851,27.27359
			c27.0668,0,34.0545-27.27359,34.0545-27.27359c-7.29945-7.01354-10.6673-19.61313-12.99008-26.68401
			c-0.97401-2.9596-2.54366-0.75919-2.89054-3.48618"/>
		<path class="st300" d="M111.52419,145.15721c0,0,3.605-11.27965-0.76493-24.93328l-1.53393,24.38955L111.52419,145.15721z"/>
		<path class="st298" d="M63.70271,77.60822c-26.55196,0-48.08364,24.04384-48.08364,53.70719
			c0,8.16574,6.43178,14.58231,9.3514,21.50885c5.69777,4.42203,7.01379,4.55553,14.42278,6.02397
			c22.29369-0.83705,25.36408,1.04869,25.36408,1.04869c9.14442,2.55568,18.53011-5.70454,26.32262-2.78412
			c7.22417-5.51985,8.72721,0.1393,12.38504-8.8475c6.5472-2.01524,8.32137-9.03239,8.32137-16.94989
			C111.78635,101.65206,90.25871,77.60822,63.70271,77.60822"/>
		<path class="st57" d="M66.42769,74.39826c0,1.27163-1.02934,2.30662-2.30097,2.30662c-1.28172,0-2.31106-1.03499-2.31106-2.30662
			c0-1.27608,1.02934-2.30501,2.31106-2.30501C65.39835,72.09325,66.42769,73.12218,66.42769,74.39826"/>
		<path class="st58" d="M64.66299,74.39826c0,0.29963-0.2427,0.53986-0.54031,0.53986c-0.29963,0-0.54031-0.24023-0.54031-0.53986
			c0-0.29802,0.24068-0.54031,0.54031-0.54031C64.4203,73.85795,64.66299,74.10024,64.66299,74.39826"/>
		<path class="st9" d="M24.97047,152.82426c0,0,50.1876,12.42487,78.49451-4.55896c0,0-0.71756,4.70763-1.70585,7.26224
			c0,0-31.12319,13.39664-75.23103,1.96466L24.97047,152.82426z"/>
		<path class="st300" d="M22.80858,112.396c0,0,10.2652,3.73908,29.94496-1.88085l-4.84998,15.20532l-22.92779,0.92583
			L22.80858,112.396z"/>
		<path class="st300" d="M16.58224,141.60097c0,0,7.98121,29.66312,36.17129,13.44925L20.97091,139.0255l-5.10619-2.3918
			L16.58224,141.60097z"/>
		<path class="st0" d="M85.27396,32.46435c0.30367-6.08108-0.11829-12.66496-2.50813-17.19986
			c-1.23044-3.52939-5.25288-5.71405-9.3343-7.04908c1.82568-0.04523,3.3715-0.03352,3.3715-0.03352
			c-4.34955-2.9281-8.17089-2.72502-10.99841-1.6916c-0.88117-0.12034-1.58907-0.19751-2.0369-0.2427
			c2.03286-1.16744,4.2926-1.96584,4.2926-1.96584C61.3129,2.63341,55.54959,6.30857,53.03338,8.30784
			c-3.98085,1.34517-7.84945,3.50803-9.05243,6.95665c-2.38779,4.5349-2.8118,11.11878-2.50813,17.19986
			c-0.28792,5.71809-0.04523,10.05395,1.20298,14.31506c3.39734,8.01138,1.79013,14.0331,0.11024,20.25597l20.98571,11.78252
			L84.76151,67.1715c-1.43558-5.68462-4.61001-12.76717-0.785-20.46115C85.29375,42.51062,85.51868,37.32679,85.27396,32.46435"/>
		<path class="st8" d="M53.71786,28.59782c0.06505,1.91451-1.95809,3.52535-4.51551,3.61617
			c-2.5477,0.07878-4.67139-1.39031-4.7364-3.30886c-0.06502-1.90446,1.95408-3.52535,4.50747-3.61015
			C51.52916,25.21421,53.65244,26.68896,53.71786,28.59782"/>
		<path class="st9" d="M51.1956,28.36118c0.16193,1.17108-0.65055,2.25735-1.82567,2.41924
			c-1.17108,0.1696-2.2618-0.66666-2.41928-1.82401c-0.15991-1.17512,0.65459-2.25372,1.82971-2.42332
			C49.95143,26.37923,51.03811,27.19575,51.1956,28.36118"/>
		<path class="st8" d="M82.02039,28.59782c0.06339,1.91451-1.95974,3.52535-4.51108,3.61617
			c-2.55577,0.07878-4.67704-1.39031-4.74044-3.30886c-0.067-1.90446,1.9521-3.52535,4.50381-3.61015
			C79.83168,25.21421,81.95338,26.68896,82.02039,28.59782"/>
		<path class="st9" d="M79.49651,28.36118c0.16193,1.17108-0.65055,2.25735-1.82567,2.41924
			c-1.17107,0.1696-2.25977-0.66666-2.41727-1.82401c-0.15789-1.17512,0.65462-2.25372,1.82974-2.42332
			C78.25843,26.37923,79.33902,27.19575,79.49651,28.36118"/>
		<g>
			<path class="st300" d="M57.7136,77.40553c0,0-9.6212-3.30942-17.94226-0.93184l0.22545-0.63503
				c0,0,8.65138-3.4571,17.32981,0.86623C57.54859,76.81546,57.7136,77.40553,57.7136,77.40553z"/>
			<path class="st298" d="M60.15174,78.01692c0,0-16.62015-7.03595-26.76578,1.73544l10.60273-17.54277L60.15174,78.01692z"/>
		</g>
		<g>
			<path class="st300" d="M69.65499,77.40553c0,0,9.6212-3.30942,17.94226-0.93184l-0.22546-0.63503
				c0,0-8.65138-3.4571-17.3298,0.86623C69.82001,76.81546,69.65499,77.40553,69.65499,77.40553z"/>
			<path class="st298" d="M67.21685,78.01692c0,0,16.62015-7.03595,26.76578,1.73544L83.3799,62.20958L67.21685,78.01692z"/>
		</g>
		<path class="st9" d="M89.67115,31.62646c0,0-0.65459,2.24968-3.95541,2.49601c0,0-7.47713,1.49454-14.50037-0.72768
			c0,0-1.82607-0.47126-3.07226-4.99444c0,0-1.21832-3.43651,1.19494-4.29624c0,0,5.50121-1.84949,16.981-1.17148
			c0,0,4.78728-0.01171,4.78728,1.98558C91.10633,24.91821,90.81881,29.1991,89.67115,31.62646 M59.31763,28.40035
			c-1.24417,4.52319-3.07024,4.99444-3.07024,4.99444c-7.02526,2.22222-14.50037,0.72768-14.50037,0.72768
			c-3.30284-0.24633-3.95744-2.49601-3.95744-2.49601c-1.14766-2.42736-1.43356-6.70826-1.43356-6.70826
			c0-1.99729,4.78567-1.98558,4.78567-1.98558c11.47979-0.67801,16.97901,1.17148,16.97901,1.17148
			C60.53232,24.96384,59.31763,28.40035,59.31763,28.40035 M94.04453,23.45719c0,0,0.03153-0.6978-1.32897-0.89729
			c-1.35683-0.19706-2.40152-1.13352-15.11983-0.82581c-9.01487,0.76282-11.6215,1.76469-11.6215,1.76469
			s-0.49875,0.1478-1.18121,0.20878c-0.36465,0.06501-0.7394,0.10055-1.12787,0.10055c-0.41997,0-0.83187-0.03917-1.22236-0.1163
			c-0.58958-0.06905-1.00955-0.19303-1.00955-0.19303s-2.60868-1.00188-11.62557-1.76469
			c-12.7179-0.30771-13.76299,0.62875-15.11982,0.82581c-1.35643,0.19949-1.32897,0.89729-1.32897,0.89729l0.01212,0.87144
			c-0.10863,2.57718,0.55808,2.61675,0.55808,2.61675c0.08844,0.19908,0.35859,0.56979,0.35859,0.56979
			c0.68649,0.28389,1.60316,3.14697,1.60316,3.14697c1.19894,3.51566,3.04844,3.94936,3.04844,3.94936
			c4.98839,1.80831,13.22672,0.85206,13.22672,0.85206s4.63545-0.13407,6.08072-2.02718
			c1.09072-1.34472,2.71326-5.61754,2.71326-5.61754s0.296-0.63117,0.93646-1.05882c0.75918-0.359,1.80629-0.36303,1.80629-0.36303
			s1.04509,0.00404,1.80426,0.36303c0.64494,0.42765,1.04711,1.16341,1.04711,1.16341s1.51795,4.16823,2.60665,5.51295
			c1.4473,1.89311,6.07308,2.02718,6.07308,2.02718s8.24197,0.95625,13.23032-0.85206c0,0,1.8499-0.4337,3.05247-3.94936
			c0,0,0.91102-2.86308,1.60519-3.14697c0,0,0.2641-0.37071,0.35496-0.56979c0,0,0.66631-0.03957,0.55606-2.61675L94.04453,23.45719
			z"/>
		<g>
			<path class="st297" d="M62.56769,82.25961l-4.85409-4.85409c-0.90398-0.90398-0.26374-2.44965,1.01468-2.44965h9.70818
				c1.27843,0,1.91866,1.54567,1.01468,2.44965l-4.85409,4.85409C64.03666,82.82001,63.12808,82.82001,62.56769,82.25961z"/>
			<path class="st297" d="M63.70271,143.94719l-7.51288-7.51288l6.6797-55.03669c0.11945-0.98423,1.54691-0.98423,1.66636,0
				l6.6797,55.03669L63.70271,143.94719z"/>
		</g>
		<path class="st10" d="M63.35179,33.38506c-2.29329,3.86096-7.05309,4.90605-7.05309,4.90605
			c3.74257,2.35427,7.48278,9.50956,7.48278,9.50956s3.58468-7.15528,7.32728-9.50956
			C71.10876,38.29111,65.6431,37.24602,63.35179,33.38506"/>
		<path class="st298" d="M44.76598,113.38223c0,0-11.86423,3.69899-25.57795-2.39183c0,0-5.27286,12.07666-3.0335,28.34963
			c1.87859,13.65129,15.40967,22.71344,28.66271,18.93933c0.30571-0.08705,0.61201-0.17894,0.91872-0.27585
			C45.73595,158.00351,31.83082,138.90688,44.76598,113.38223"/>
		<path class="st0" d="M76.14076,114.55733c0,0-5.97855,12.03384-10.20978,12.6428c0,0,10.37534-10.55101,9.47604-18.72392
			c0,0-5.24481,9.42516-9.19619,10.71294c0,0,9.45262-8.26983,7.05514-19.17786c0,0-4.23163,11.57433-8.46487,11.99268
			c0,0,7.19485-8.54406,6.56008-16.43506c0,0-10.12137,13.78677-26.67839,17.83672
			c-3.54917,6.36097-5.57595,13.67818-5.57595,21.47877c0,8.48062,2.39384,16.39912,6.53825,23.12677
			c7.67217-2.28926,15.93393-7.44522,22.71124-18.10284c0.00767-0.01982,0.01938-0.03554,0.03149-0.05531
			c3.1506-4.69643,5.06713-9.00681,6.22691-12.68803c0.08278-0.22295,0.1692-0.44178,0.25239-0.66671
			c0,0-0.02786,0.03554-0.07915,0.10859C76.98838,119.25417,76.14076,114.55733,76.14076,114.55733"/>
		<path class="st10" d="M36.70752,117.08323h-0.60455c-1.09465,0-1.99027,0.89562-1.99027,1.99027v0.60455
			c0,1.09465,0.89562,1.99027,1.99027,1.99027h0.60455c1.09465,0,1.99027-0.89562,1.99027-1.99027v-0.60455
			C38.69779,117.97885,37.80217,117.08323,36.70752,117.08323z"/>
		<path class="st10" d="M122.19553,103.3245h-0.60455c-1.09465,0-1.99027,0.89562-1.99027,1.99026v0.60455
			c0,1.09465,0.89562,1.99027,1.99027,1.99027h0.60455c1.09464,0,1.99026-0.89562,1.99026-1.99027v-0.60455
			C124.1858,104.22012,123.29018,103.3245,122.19553,103.3245z"/>
		<g>
			<path class="st22" d="M66.69749,195.22498l0.17868-0.106l-0.17868-0.15315v-3.12169c0-0.39268,0.32198-0.71466,0.71664-0.71466
				c0,0,0.98165,0.8364,2.72311,0.8364c1.74151,0,2.54449-0.8364,3.01176-0.8364c0.08836,0-0.01176-0.40446,0.42019,0
				c2.67602,2.50131,8.64653,3.00784,8.64653,3.00784c0.33379,0,0.55368,0.53011,0.24543,0.89134
				c-0.04715,0.05106-0.15903,0.13348-0.15903,0.19632l0.17667,0.18848c0,0.39661-0.32001,0.71858-0.71266,0.71858H67.41412
				c-0.39466,0-0.71664-0.32198-0.71664-0.71858V195.22498z"/>
			<path class="st22" d="M60.85067,195.41345c0,0.39661-0.32197,0.71858-0.71467,0.71858H45.78203
				c-0.39068,0-0.71271-0.32198-0.71271-0.71858l0.17868-0.18848c0-0.06284-0.11585-0.14526-0.15902-0.19437
				c-0.31022-0.36319-0.08837-0.8933,0.24346-0.8933c0,0,5.97443-0.50653,8.64849-3.00784c0.43391-0.40446,0.33183,0,0.42014,0
				c0.46924,0,1.27031,0.8364,3.00981,0.8364c1.74347,0,2.72512-0.8364,2.72512-0.8364c0.3927,0,0.71467,0.32198,0.71467,0.71663
				v3.11972l-0.17868,0.15511l0.17868,0.10405V195.41345z"/>
		</g>
	</g>
	<g>
		<g>
			<path class="st10" d="M179.10861,156.12099h-38.01677c-2.92206,0-5.29086-2.3688-5.29086-5.29086V92.80222
				c0-2.92207,2.3688-5.29086,5.29086-5.29086h38.01677c2.92206,0,5.29086,2.3688,5.29086,5.29086v58.02791
				C184.39948,153.75218,182.03067,156.12099,179.10861,156.12099z"/>
			
				<rect x="130.19347" y="101.91515" transform="matrix(-1.836970e-16 1 -1 -1.836970e-16 281.91656 -38.28389)" class="st8" width="59.81353" height="39.80239"/>
			<line class="st301" x1="141.51845" y1="99.80843" x2="177.91234" y2="99.80843"/>
			<circle class="st67" cx="146.15746" cy="109.37629" r="3.18859"/>
			<line class="st302" x1="142.96886" y1="102.99911" x2="175.78662" y2="102.99911"/>
			<line class="st303" x1="152.91673" y1="107.82422" x2="175.78662" y2="107.82422"/>
			<line class="st303" x1="149.9847" y1="110.48705" x2="175.78662" y2="110.48705"/>
			<line class="st303" x1="149.9847" y1="113.14989" x2="175.78662" y2="113.14989"/>
			<line class="st303" x1="149.9847" y1="115.81271" x2="175.78662" y2="115.81271"/>
			<line class="st303" x1="149.9847" y1="118.47555" x2="175.78662" y2="118.47555"/>
			<line class="st303" x1="149.9847" y1="121.13838" x2="175.78662" y2="121.13838"/>
			<line class="st303" x1="149.9847" y1="123.80121" x2="175.78662" y2="123.80121"/>
			<line class="st303" x1="149.9847" y1="126.46404" x2="175.78662" y2="126.46404"/>
			<line class="st303" x1="149.9847" y1="129.12688" x2="175.78662" y2="129.12688"/>
			<line class="st303" x1="149.9847" y1="131.7897" x2="175.78662" y2="131.7897"/>
			<line class="st303" x1="149.9847" y1="134.45255" x2="175.78662" y2="134.45255"/>
			<line class="st303" x1="149.9847" y1="137.11537" x2="175.78662" y2="137.11537"/>
			<line class="st303" x1="149.9847" y1="139.7782" x2="175.78662" y2="139.7782"/>
			<line class="st303" x1="149.9847" y1="142.44104" x2="175.78662" y2="142.44104"/>
			<line class="st303" x1="149.9847" y1="145.10387" x2="175.78662" y2="145.10387"/>
			<line class="st303" x1="149.9847" y1="147.76669" x2="175.78662" y2="147.76669"/>
			<circle class="st304" cx="160.10022" cy="153.80788" r="1.48434"/>
		</g>
		<path class="st0" d="M135.80098,99.51639c0.36021-0.39166,4.39806-9.33369,10.35648-8.60068c0,0-4.16255,4.83786-4.16255,9.82232
			c-0.733,5.49757-6.19392,6.20734-6.19392,11.533l-2.08908-10.79999C133.7119,101.47104,135.3168,100.04282,135.80098,99.51639z"/>
		<path class="st0" d="M148.7052,87.53246c0,0,12.7459,4.84758,12.4113,11.98279c-0.00488,0.10428,2.45078-6.98656-1.23259-11.98279
			C157.07234,84.61462,151.41702,85.15431,148.7052,87.53246"/>
		<path class="st0" d="M160.54471,87.51135c0,0,5.78358,2.52475,4.83067,6.92281c0,0,4.91116-4.3165,1.68591-6.92281
			C163.83606,84.90504,160.54471,87.51135,160.54471,87.51135z"/>
		<path class="st305" d="M59.38704,158.62166v2.32899c0,0.86057,0.70882,1.55219,1.56912,1.53107l7.19003-0.17659
			c0.83093-0.02042,1.49392-0.69987,1.49392-1.53107v-2.27646c0-0.85619-0.7019-1.54607-1.55795-1.5313l-7.19003,0.12407
			C60.05672,157.10478,59.38704,157.78613,59.38704,158.62166z"/>
		<line class="st305" x1="69.64011" y1="159.60782" x2="65.54207" y2="159.60782"/>
	</g>
</g>
</svg>
